<svg width="30" height="30" viewBox="0 0 30 30" fill="none" xmlns="http://www.w3.org/2000/svg">
<g clip-path="url(#clip0_1603_638)">
<path d="M19.376 22.1875L20.9927 24.4006C21.1445 24.6409 21.4361 24.7481 21.7024 24.653C22.7071 24.2941 25.1975 23.3215 27.248 21.8406C27.4079 21.7251 27.5002 21.5326 27.499 21.3341C27.499 10.3125 24.376 7.1875 24.376 7.1875C24.376 7.1875 21.876 5.75266 19.1934 5.32002C18.9295 5.27745 18.671 5.41886 18.5536 5.66114L17.9974 6.80846C17.9974 6.80846 16.6066 6.51746 15 6.51746C13.3934 6.51746 12.0026 6.80846 12.0026 6.80846L11.4464 5.66114C11.3289 5.41886 11.0705 5.27745 10.8066 5.32002C8.12598 5.75234 5.62598 7.1875 5.62598 7.1875C5.62598 7.1875 2.50099 10.3125 2.50099 21.3341C2.49974 21.5326 2.59205 21.7251 2.75198 21.8406C4.80244 23.3215 7.29286 24.2941 8.29756 24.653C8.5638 24.7481 8.85545 24.6409 9.00726 24.4006L10.626 22.1875" stroke="white" stroke-width="1.875" stroke-linecap="round" stroke-linejoin="round"/>
<path d="M21.876 20.9375C21.876 20.9375 19.0071 22.8125 15.001 22.8125C10.9948 22.8125 8.12598 20.9375 8.12598 20.9375" stroke="white" stroke-width="1.875" stroke-linecap="round" stroke-linejoin="round"/>
<path d="M21.5635 15.3125C21.5635 16.6932 20.5841 17.8125 19.376 17.8125C18.1679 17.8125 17.1885 16.6932 17.1885 15.3125C17.1885 13.9318 18.1679 12.8125 19.376 12.8125C20.5841 12.8125 21.5635 13.9318 21.5635 15.3125Z" stroke="white" stroke-width="1.875"/>
<path d="M12.8135 15.3125C12.8135 16.6932 11.8341 17.8125 10.626 17.8125C9.41786 17.8125 8.43848 16.6932 8.43848 15.3125C8.43848 13.9318 9.41786 12.8125 10.626 12.8125C11.8341 12.8125 12.8135 13.9318 12.8135 15.3125Z" stroke="white" stroke-width="1.875"/>
</g>
<defs>
<clipPath id="clip0_1603_638">
<rect width="30" height="30" fill="white"/>
</clipPath>
</defs>
</svg>
