<svg width="30" height="31" viewBox="0 0 30 31" fill="none" xmlns="http://www.w3.org/2000/svg">
<g clip-path="url(#clip0_1603_1008)">
<path d="M12.5 26.1771C8.21429 27.6238 4.64286 26.1771 2.5 21.7178" stroke="url(#paint0_linear_1603_1008)" stroke-width="1.875" stroke-linecap="round" stroke-linejoin="round"/>
<path d="M12.5 27.9678V23.9151C12.5 23.1673 12.7299 22.5173 13.1005 21.9301C13.3548 21.5273 13.1806 20.9558 12.7214 20.8295C8.91743 19.7838 6.25 18.1024 6.25 12.5253C6.25 11.0754 6.72506 9.71222 7.56014 8.52577C7.76796 8.2305 7.87186 8.08287 7.89685 7.94915C7.92183 7.81543 7.8784 7.64092 7.79153 7.29192C7.43798 5.87142 7.46089 4.36301 7.99152 3.00306C7.99152 3.00306 9.08803 2.6458 11.5837 4.20488C12.1535 4.56086 12.4384 4.73885 12.6894 4.77866C12.9402 4.81847 13.2757 4.73507 13.9466 4.56828C14.8641 4.34021 15.8095 4.21777 16.875 4.21777C17.9405 4.21777 18.8859 4.34021 19.8034 4.56828C20.4743 4.73507 20.8097 4.81847 21.0606 4.77866C21.3116 4.73885 21.5965 4.56086 22.1662 4.20488C24.662 2.6458 25.7585 3.00306 25.7585 3.00306C26.2891 4.36301 26.312 5.87142 25.9585 7.29192C25.8716 7.64092 25.8281 7.81543 25.8531 7.94915C25.8781 8.08286 25.982 8.23051 26.1899 8.52577C27.0249 9.71222 27.5 11.0754 27.5 12.5253C27.5 18.1024 24.8326 19.7838 21.0286 20.8295C20.5694 20.9558 20.3952 21.5273 20.6495 21.9301C21.0201 22.5173 21.25 23.1673 21.25 23.9151V27.9678" stroke="url(#paint1_linear_1603_1008)" stroke-width="1.875" stroke-linecap="round" stroke-linejoin="round"/>
</g>
<defs>
<linearGradient id="paint0_linear_1603_1008" x1="8.90756" y1="21.7178" x2="8.15577" y2="27.0108" gradientUnits="userSpaceOnUse">
<stop stop-color="#95D500"/>
<stop offset="1" stop-color="#02E63F"/>
</linearGradient>
<linearGradient id="paint1_linear_1603_1008" x1="19.8661" y1="2.9678" x2="11.7496" y2="27.2545" gradientUnits="userSpaceOnUse">
<stop stop-color="#95D500"/>
<stop offset="1" stop-color="#02E63F"/>
</linearGradient>
<clipPath id="clip0_1603_1008">
<rect width="30" height="30" fill="white" transform="translate(0 0.467773)"/>
</clipPath>
</defs>
</svg>
