<svg width="30" height="30" viewBox="0 0 30 30" fill="none" xmlns="http://www.w3.org/2000/svg">
<g clip-path="url(#clip0_1603_634)">
<path d="M12.5 25.7094C8.21429 27.156 4.64286 25.7094 2.5 21.25" stroke="white" stroke-width="1.875" stroke-linecap="round" stroke-linejoin="round"/>
<path d="M12.5 27.5V23.4474C12.5 22.6995 12.7299 22.0495 13.1005 21.4624C13.3548 21.0595 13.1806 20.488 12.7214 20.3617C8.91743 19.316 6.25 17.6346 6.25 12.0576C6.25 10.6076 6.72506 9.24445 7.56014 8.058C7.76796 7.76272 7.87186 7.6151 7.89685 7.48137C7.92183 7.34766 7.8784 7.17315 7.79153 6.82415C7.43798 5.40365 7.46089 3.89523 7.99152 2.53528C7.99152 2.53528 9.08803 2.17802 11.5837 3.73711C12.1535 4.09309 12.4384 4.27107 12.6894 4.31088C12.9402 4.3507 13.2757 4.2673 13.9466 4.10051C14.8641 3.87244 15.8095 3.75 16.875 3.75C17.9405 3.75 18.8859 3.87244 19.8034 4.10051C20.4743 4.2673 20.8097 4.3507 21.0606 4.31088C21.3116 4.27107 21.5965 4.09309 22.1662 3.73711C24.662 2.17802 25.7585 2.53528 25.7585 2.53528C26.2891 3.89523 26.312 5.40365 25.9585 6.82415C25.8716 7.17315 25.8281 7.34766 25.8531 7.48137C25.8781 7.61508 25.982 7.76274 26.1899 8.058C27.0249 9.24445 27.5 10.6076 27.5 12.0576C27.5 17.6346 24.8326 19.316 21.0286 20.3617C20.5694 20.488 20.3952 21.0595 20.6495 21.4624C21.0201 22.0495 21.25 22.6995 21.25 23.4474V27.5" stroke="white" stroke-width="1.875" stroke-linecap="round" stroke-linejoin="round"/>
</g>
<defs>
<clipPath id="clip0_1603_634">
<rect width="30" height="30" fill="white"/>
</clipPath>
</defs>
</svg>
