<svg width="178" height="59" viewBox="0 0 178 59" fill="none" xmlns="http://www.w3.org/2000/svg">
<path d="M19.2236 2.26703V0.307031H25.9436V2.26703H19.2236ZM25.5181 2.26703V0.307031H32.2381V2.26703H25.5181ZM31.8127 2.26703V0.307031H38.5327V2.26703H31.8127ZM38.1072 2.26703V0.307031H44.8272V2.26703H38.1072ZM44.4017 2.26703V0.307031H51.1217V2.26703H44.4017ZM50.6963 2.26703V0.307031H57.4163V2.26703H50.6963ZM56.9908 2.26703V0.307031H63.7108V2.26703H56.9908ZM75.8744 2.26703V0.307031H82.5944V2.26703H75.8744ZM82.1689 2.26703V0.307031H88.8889V2.26703H82.1689ZM88.4634 2.26703V0.307031H95.1834V2.26703H88.4634ZM94.758 2.26703V0.307031H101.478V2.26703H94.758ZM113.642 2.26703V0.307031H120.362V2.26703H113.642ZM119.936 2.26703V0.307031H126.656V2.26703H119.936ZM126.231 2.26703V0.307031H132.951V2.26703H126.231ZM132.525 2.26703V0.307031H139.245V2.26703H132.525ZM19.5091 13.271L13.0691 10.359V8.35703L19.5091 5.43103V7.33503L15.6451 9.02903C15.4584 9.11303 15.2624 9.18303 15.0571 9.23903C14.8517 9.29503 14.6884 9.33236 14.5671 9.35103C14.6884 9.3697 14.8517 9.40703 15.0571 9.46303C15.2624 9.5097 15.4584 9.57503 15.6451 9.65903L19.5091 11.353V13.271ZM31.6727 15.497L36.5027 2.33703H38.6727L33.8427 15.497H31.6727ZM42.2963 16.267V14.307H57.4163V16.267H42.2963ZM67.9613 15.497L63.1313 2.33703H65.3013L70.1313 15.497H67.9613ZM69.4398 15.497L74.2698 2.33703H76.4398L71.6098 15.497H69.4398ZM80.0634 16.267V14.307H95.1834V16.267H80.0634ZM105.729 15.497L100.899 2.33703H103.069L107.899 15.497H105.729ZM107.207 15.497L112.037 2.33703H114.207L109.377 15.497H107.207ZM117.831 16.267V14.307H132.951V16.267H117.831ZM143.496 15.497L138.666 2.33703H140.836L145.666 15.497H143.496ZM155.598 16.267V14.307H170.718V16.267H155.598ZM12.7891 29.497L17.6191 16.337H19.7891L14.9591 29.497H12.7891ZM25.3781 29.497L30.2081 16.337H32.3781L27.5481 29.497H25.3781ZM37.9672 29.497L42.7972 16.337H44.9672L40.1372 29.497H37.9672ZM50.5563 29.497L55.3863 16.337H57.5563L52.7263 29.497H50.5563ZM63.1453 29.497L67.9753 16.337H70.1453L65.3153 29.497H63.1453ZM75.7344 29.497L80.5644 16.337H82.7344L77.9044 29.497H75.7344ZM88.3234 29.497L93.1534 16.337H95.3234L90.4934 29.497H88.3234ZM100.913 29.497L105.743 16.337H107.913L103.083 29.497H100.913ZM113.502 29.497L118.332 16.337H120.502L115.672 29.497H113.502ZM126.091 29.497L130.921 16.337H133.091L128.261 29.497H126.091ZM138.68 29.497L143.51 16.337H145.68L140.85 29.497H138.68ZM145.114 30.267V28.307H151.834V30.267H145.114ZM151.269 29.497L156.099 16.337H158.269L153.439 29.497H151.269ZM163.858 29.497L168.688 16.337H170.858L166.028 29.497H163.858ZM170.292 30.267V28.307H177.012V30.267H170.292ZM6.49453 43.497L11.3245 30.337H13.4945L8.66453 43.497H6.49453ZM19.0836 43.497L23.9136 30.337H26.0836L21.2536 43.497H19.0836ZM31.6727 43.497L36.5027 30.337H38.6727L33.8427 43.497H31.6727ZM38.1072 44.267V42.307H44.8272V44.267H38.1072ZM44.2617 43.497L49.0917 30.337H51.2617L46.4317 43.497H44.2617ZM56.8508 43.497L61.6808 30.337H63.8508L59.0208 43.497H56.8508ZM69.4398 43.497L74.2698 30.337H76.4398L71.6098 43.497H69.4398ZM75.8744 44.267V42.307H82.5944V44.267H75.8744ZM82.0289 43.497L86.8589 30.337H89.0289L84.1989 43.497H82.0289ZM94.618 43.497L99.448 30.337H101.618L96.788 43.497H94.618ZM107.207 43.497L112.037 30.337H114.207L109.377 43.497H107.207ZM113.642 44.267V42.307H120.362V44.267H113.642ZM119.796 43.497L124.626 30.337H126.796L121.966 43.497H119.796ZM132.385 43.497L137.215 30.337H139.385L134.555 43.497H132.385ZM138.82 44.267V42.307H145.54V44.267H138.82ZM155.598 44.267V42.307H170.718V44.267H155.598ZM170.152 43.497L174.982 30.337H177.152L172.322 43.497H170.152ZM0.2 57.497L5.03 44.337H7.2L2.37 57.497H0.2ZM6.63453 58.267V56.307H13.3545V58.267H6.63453ZM12.7891 57.497L17.6191 44.337H19.7891L14.9591 57.497H12.7891ZM23.8996 57.497L19.0696 44.337H21.2396L26.0696 57.497H23.8996ZM25.5181 58.267V56.307H32.2381V58.267H25.5181ZM31.8127 58.267V56.307H38.5327V58.267H31.8127ZM38.1072 58.267V56.307H44.8272V58.267H38.1072ZM44.4017 58.267V56.307H51.1217V58.267H44.4017ZM50.5563 57.497L55.3863 44.337H57.5563L52.7263 57.497H50.5563ZM61.6668 57.497L56.8368 44.337H59.0068L63.8368 57.497H61.6668ZM63.2853 58.267V56.307H70.0053V58.267H63.2853ZM69.5798 58.267V56.307H76.2998V58.267H69.5798ZM75.8744 58.267V56.307H82.5944V58.267H75.8744ZM82.1689 58.267V56.307H88.8889V58.267H82.1689ZM88.3234 57.497L93.1534 44.337H95.3234L90.4934 57.497H88.3234ZM99.434 57.497L94.604 44.337H96.774L101.604 57.497H99.434ZM101.053 58.267V56.307H107.773V58.267H101.053ZM107.347 58.267V56.307H114.067V58.267H107.347ZM113.642 58.267V56.307H120.362V58.267H113.642ZM119.936 58.267V56.307H126.656V58.267H119.936ZM126.091 57.497L130.921 44.337H133.091L128.261 57.497H126.091ZM138.68 57.497L143.51 44.337H145.68L140.85 57.497H138.68ZM145.114 58.267V56.307H151.834V58.267H145.114ZM151.269 57.497L156.099 44.337H158.269L153.439 57.497H151.269Z" fill="url(#paint0_linear_1443_733)"/>
<defs>
<linearGradient id="paint0_linear_1443_733" x1="114.195" y1="-12.0429" x2="105.9" y2="62.6331" gradientUnits="userSpaceOnUse">
<stop stop-color="#95D500"/>
<stop offset="1" stop-color="#02E63F"/>
</linearGradient>
</defs>
</svg>
