<svg width="159" height="59" viewBox="0 0 159 59" fill="none" xmlns="http://www.w3.org/2000/svg">
<path d="M19.2236 2.26703V0.307031H25.9436V2.26703H19.2236ZM25.5181 2.26703V0.307031H32.2381V2.26703H25.5181ZM31.8127 2.26703V0.307031H38.5327V2.26703H31.8127ZM38.1072 2.26703V0.307031H44.8272V2.26703H38.1072ZM44.4017 2.26703V0.307031H51.1217V2.26703H44.4017ZM56.9908 2.26703V0.307031H63.7108V2.26703H56.9908ZM63.2853 2.26703V0.307031H70.0053V2.26703H63.2853ZM69.5798 2.26703V0.307031H76.2998V2.26703H69.5798ZM75.8744 2.26703V0.307031H82.5944V2.26703H75.8744ZM94.758 2.26703V0.307031H101.478V2.26703H94.758ZM101.053 2.26703V0.307031H107.773V2.26703H101.053ZM107.347 2.26703V0.307031H114.067V2.26703H107.347ZM113.642 2.26703V0.307031H120.362V2.26703H113.642ZM15.2391 15.497V2.33703H17.3391V15.497H15.2391ZM17.1181 16.267V14.307H32.2381V16.267H17.1181ZM49.5063 15.497L54.3363 2.33703H56.5063L51.6763 15.497H49.5063ZM43.2063 15.497L48.0363 2.33703H50.2063L45.3763 15.497H43.2063ZM61.1798 16.267V14.307H76.2998V16.267H61.1798ZM86.8449 15.497L82.0149 2.33703H84.1849L89.0149 15.497H86.8449ZM88.3234 15.497L93.1534 2.33703H95.3234L90.4934 15.497H88.3234ZM98.947 16.267V14.307H114.067V16.267H98.947ZM124.612 15.497L119.782 2.33703H121.952L126.782 15.497H124.612ZM136.714 16.267V14.307H151.834V16.267H136.714ZM19.0836 29.497L23.9136 16.337H26.0836L21.2536 29.497H19.0836ZM25.5181 30.267V28.307H32.2381V30.267H25.5181ZM43.7017 29.497L44.3317 27.789L36.7857 24.359V22.357L43.2257 19.431V21.335L39.3617 23.029C39.1751 23.113 38.9791 23.183 38.7737 23.239C38.5684 23.295 38.4051 23.3324 38.2837 23.351C38.4051 23.3604 38.5684 23.393 38.7737 23.449C38.9791 23.505 39.1751 23.575 39.3617 23.659L44.9337 26.151L48.5317 16.337H50.7017L45.8717 29.497H43.7017ZM56.8508 29.497L61.6808 16.337H63.8508L59.0208 29.497H56.8508ZM69.4398 29.497L74.2698 16.337H76.4398L71.6098 29.497H69.4398ZM82.0289 29.497L86.8589 16.337H89.0289L84.1989 29.497H82.0289ZM94.618 29.497L99.448 16.337H101.618L96.788 29.497H94.618ZM107.207 29.497L112.037 16.337H114.207L109.377 29.497H107.207ZM119.796 29.497L124.626 16.337H126.796L121.966 29.497H119.796ZM126.231 30.267V28.307H132.951V30.267H126.231ZM132.385 29.497L137.215 16.337H139.385L134.555 29.497H132.385ZM144.974 29.497L149.804 16.337H151.974L147.144 29.497H144.974ZM151.409 30.267V28.307H158.129V30.267H151.409ZM6.63453 44.267V42.307H13.3545V44.267H6.63453ZM12.9291 44.267V42.307H19.6491V44.267H12.9291ZM19.2236 44.267V42.307H25.9436V44.267H19.2236ZM25.3781 43.497L30.2081 30.337H32.3781L27.5481 43.497H25.3781ZM37.9672 43.497L42.7972 30.337H44.9672L40.1372 43.497H37.9672ZM50.5563 43.497L55.3863 30.337H57.5563L52.7263 43.497H50.5563ZM56.9908 44.267V42.307H63.7108V44.267H56.9908ZM63.1453 43.497L67.9753 30.337H70.1453L65.3153 43.497H63.1453ZM75.7344 43.497L80.5644 30.337H82.7344L77.9044 43.497H75.7344ZM88.3234 43.497L93.1534 30.337H95.3234L90.4934 43.497H88.3234ZM94.758 44.267V42.307H101.478V44.267H94.758ZM100.913 43.497L105.743 30.337H107.913L103.083 43.497H100.913ZM113.502 43.497L118.332 30.337H120.502L115.672 43.497H113.502ZM119.936 44.267V42.307H126.656V44.267H119.936ZM136.714 44.267V42.307H151.834V44.267H136.714ZM151.269 43.497L156.099 30.337H158.269L153.439 43.497H151.269ZM0.2 57.497L5.03 44.337H7.2L2.37 57.497H0.2ZM6.63453 58.267V56.307H13.3545V58.267H6.63453ZM12.9291 58.267V56.307H19.6491V58.267H12.9291ZM19.2236 58.267V56.307H25.9436V58.267H19.2236ZM25.5181 58.267V56.307H32.2381V58.267H25.5181ZM31.6727 57.497L36.5027 44.337H38.6727L33.8427 57.497H31.6727ZM42.7832 57.497L37.9532 44.337H40.1232L44.9532 57.497H42.7832ZM44.4017 58.267V56.307H51.1217V58.267H44.4017ZM50.6963 58.267V56.307H57.4163V58.267H50.6963ZM56.9908 58.267V56.307H63.7108V58.267H56.9908ZM63.2853 58.267V56.307H70.0053V58.267H63.2853ZM69.4398 57.497L74.2698 44.337H76.4398L71.6098 57.497H69.4398ZM80.5504 57.497L75.7204 44.337H77.8904L82.7204 57.497H80.5504ZM82.1689 58.267V56.307H88.8889V58.267H82.1689ZM88.4634 58.267V56.307H95.1834V58.267H88.4634ZM94.758 58.267V56.307H101.478V58.267H94.758ZM101.053 58.267V56.307H107.773V58.267H101.053ZM107.207 57.497L112.037 44.337H114.207L109.377 57.497H107.207ZM119.796 57.497L124.626 44.337H126.796L121.966 57.497H119.796ZM126.231 58.267V56.307H132.951V58.267H126.231ZM132.385 57.497L137.215 44.337H139.385L134.555 57.497H132.385Z" fill="url(#paint0_linear_1443_727)"/>
<defs>
<linearGradient id="paint0_linear_1443_727" x1="102.021" y1="-12.0429" x2="92.7687" y2="62.4048" gradientUnits="userSpaceOnUse">
<stop stop-color="#95D500"/>
<stop offset="1" stop-color="#02E63F"/>
</linearGradient>
</defs>
</svg>
