<svg width="127" height="59" viewBox="0 0 127 59" fill="none" xmlns="http://www.w3.org/2000/svg">
<path d="M25.5181 2.26703V0.307031H32.2381V2.26703H25.5181ZM31.8127 2.26703V0.307031H38.5327V2.26703H31.8127ZM38.1072 2.26703V0.307031H44.8272V2.26703H38.1072ZM44.4017 2.26703V0.307031H51.1217V2.26703H44.4017ZM50.6963 2.26703V0.307031H57.4163V2.26703H50.6963ZM56.9908 2.26703V0.307031H63.7108V2.26703H56.9908ZM63.2853 2.26703V0.307031H70.0053V2.26703H63.2853ZM69.5798 2.26703V0.307031H76.2998V2.26703H69.5798ZM75.8744 2.26703V0.307031H82.5944V2.26703H75.8744ZM82.1689 2.26703V0.307031H88.8889V2.26703H82.1689ZM19.0836 15.497L23.9136 2.33703H26.0836L21.2536 15.497H19.0836ZM31.8127 16.267V14.307H38.5327V16.267H31.8127ZM38.1072 16.267V14.307H44.8272V16.267H38.1072ZM44.4017 16.267V14.307H51.1217V16.267H44.4017ZM50.6963 16.267V14.307H57.4163V16.267H50.6963ZM56.8508 15.497L61.6808 2.33703H63.8508L59.0208 15.497H56.8508ZM67.4744 16.267V14.307H82.5944V16.267H67.4744ZM93.1394 15.497L88.3094 2.33703H90.4794L95.3094 15.497H93.1394ZM105.242 16.267V14.307H120.362V16.267H105.242ZM12.7891 29.497L17.6191 16.337H19.7891L14.9591 29.497H12.7891ZM19.2236 30.267V28.307H25.9436V30.267H19.2236ZM25.5181 30.267V28.307H32.2381V30.267H25.5181ZM31.8127 30.267V28.307H38.5327V30.267H31.8127ZM49.0777 29.497L44.2477 16.337H46.4177L51.2477 29.497H49.0777ZM50.5563 29.497L55.3863 16.337H57.5563L52.7263 29.497H50.5563ZM63.1453 29.497L67.9753 16.337H70.1453L65.3153 29.497H63.1453ZM75.7344 29.497L80.5644 16.337H82.7344L77.9044 29.497H75.7344ZM88.3234 29.497L93.1534 16.337H95.3234L90.4934 29.497H88.3234ZM94.758 30.267V28.307H101.478V30.267H94.758ZM100.913 29.497L105.743 16.337H107.913L103.083 29.497H100.913ZM113.502 29.497L118.332 16.337H120.502L115.672 29.497H113.502ZM119.936 30.267V28.307H126.656V30.267H119.936ZM6.63453 44.267V42.307H13.3545V44.267H6.63453ZM12.9291 44.267V42.307H19.6491V44.267H12.9291ZM19.2236 44.267V42.307H25.9436V44.267H19.2236ZM25.5181 44.267V42.307H32.2381V44.267H25.5181ZM31.6727 43.497L36.5027 30.337H38.6727L33.8427 43.497H31.6727ZM44.2617 43.497L49.0917 30.337H51.2617L46.4317 43.497H44.2617ZM56.8508 43.497L61.6808 30.337H63.8508L59.0208 43.497H56.8508ZM63.2853 44.267V42.307H70.0053V44.267H63.2853ZM69.4398 43.497L74.2698 30.337H76.4398L71.6098 43.497H69.4398ZM82.0289 43.497L86.8589 30.337H89.0289L84.1989 43.497H82.0289ZM88.4634 44.267V42.307H95.1834V44.267H88.4634ZM105.242 44.267V42.307H120.362V44.267H105.242ZM119.796 43.497L124.626 30.337H126.796L121.966 43.497H119.796ZM0.2 57.497L5.03 44.337H7.2L2.37 57.497H0.2ZM6.63453 58.267V56.307H13.3545V58.267H6.63453ZM12.9291 58.267V56.307H19.6491V58.267H12.9291ZM19.2236 58.267V56.307H25.9436V58.267H19.2236ZM25.5181 58.267V56.307H32.2381V58.267H25.5181ZM31.8127 58.267V56.307H38.5327V58.267H31.8127ZM37.9672 57.497L42.7972 44.337H44.9672L40.1372 57.497H37.9672ZM49.0777 57.497L44.2477 44.337H46.4177L51.2477 57.497H49.0777ZM50.6963 58.267V56.307H57.4163V58.267H50.6963ZM56.9908 58.267V56.307H63.7108V58.267H56.9908ZM63.2853 58.267V56.307H70.0053V58.267H63.2853ZM69.5798 58.267V56.307H76.2998V58.267H69.5798ZM75.7344 57.497L80.5644 44.337H82.7344L77.9044 57.497H75.7344ZM88.3234 57.497L93.1534 44.337H95.3234L90.4934 57.497H88.3234ZM94.758 58.267V56.307H101.478V58.267H94.758ZM100.913 57.497L105.743 44.337H107.913L103.083 57.497H100.913Z" fill="url(#paint0_linear_1443_730)"/>
<defs>
<linearGradient id="paint0_linear_1443_730" x1="81.5167" y1="-12.0429" x2="70.0495" y2="61.7732" gradientUnits="userSpaceOnUse">
<stop stop-color="#95D500"/>
<stop offset="1" stop-color="#02E63F"/>
</linearGradient>
</defs>
</svg>
