<svg width="121" height="59" viewBox="0 0 121 59" fill="none" xmlns="http://www.w3.org/2000/svg">
<path d="M19.7236 2.31V0.35H26.4436V2.31H19.7236ZM26.0181 2.31V0.35H32.7381V2.31H26.0181ZM32.3127 2.31V0.35H39.0327V2.31H32.3127ZM38.6072 2.31V0.35H45.3272V2.31H38.6072ZM44.9017 2.31V0.35H51.6217V2.31H44.9017ZM57.4908 2.31V0.35H64.2108V2.31H57.4908ZM63.7853 2.31V0.35H70.5053V2.31H63.7853ZM70.0798 2.31V0.35H76.7998V2.31H70.0798ZM76.3744 2.31V0.35H83.0944V2.31H76.3744ZM13.2891 15.54L18.1191 2.38H20.2891L15.4591 15.54H13.2891ZM26.0181 16.31V14.35H32.7381V16.31H26.0181ZM32.3127 16.31V14.35H39.0327V16.31H32.3127ZM38.6072 16.31V14.35H45.3272V16.31H38.6072ZM50.0063 15.54L54.8363 2.38H57.0063L52.1763 15.54H50.0063ZM43.7063 15.54L48.5363 2.38H50.7063L45.8763 15.54H43.7063ZM61.6798 16.31V14.35H76.7998V16.31H61.6798ZM87.3449 15.54L82.5149 2.38H84.6849L89.5149 15.54H87.3449ZM99.447 16.31V14.35H114.567V16.31H99.447ZM6.99453 29.54L11.8245 16.38H13.9945L9.16453 29.54H6.99453ZM17.6181 30.31V28.35H32.7381V30.31H17.6181ZM43.2832 29.54L38.4532 16.38H40.6232L45.4532 29.54H43.2832ZM44.7617 29.54L49.5917 16.38H51.7617L46.9317 29.54H44.7617ZM57.3508 29.54L62.1808 16.38H64.3508L59.5208 29.54H57.3508ZM69.9398 29.54L74.7698 16.38H76.9398L72.1098 29.54H69.9398ZM82.5289 29.54L87.3589 16.38H89.5289L84.6989 29.54H82.5289ZM88.9634 30.31V28.35H95.6834V30.31H88.9634ZM95.118 29.54L99.948 16.38H102.118L97.288 29.54H95.118ZM107.707 29.54L112.537 16.38H114.707L109.877 29.54H107.707ZM114.142 30.31V28.35H120.862V30.31H114.142ZM0.7 43.54L5.53 30.38H7.7L2.87 43.54H0.7ZM13.2891 43.54L18.1191 30.38H20.2891L15.4591 43.54H13.2891ZM19.7236 44.31V42.35H26.4436V44.31H19.7236ZM25.8781 43.54L30.7081 30.38H32.8781L28.0481 43.54H25.8781ZM38.4672 43.54L43.2972 30.38H45.4672L40.6372 43.54H38.4672ZM51.0563 43.54L55.8863 30.38H58.0563L53.2263 43.54H51.0563ZM57.4908 44.31V42.35H64.2108V44.31H57.4908ZM63.6453 43.54L68.4753 30.38H70.6453L65.8153 43.54H63.6453ZM76.2344 43.54L81.0644 30.38H83.2344L78.4044 43.54H76.2344ZM82.6689 44.31V42.35H89.3889V44.31H82.6689ZM99.447 44.31V42.35H114.567V44.31H99.447ZM114.002 43.54L118.832 30.38H121.002L116.172 43.54H114.002ZM5.516 57.54L0.686 44.38H2.856L7.686 57.54H5.516ZM7.13453 58.31V56.35H13.8545V58.31H7.13453ZM13.4291 58.31V56.35H20.1491V58.31H13.4291ZM19.7236 58.31V56.35H26.4436V58.31H19.7236ZM26.0181 58.31V56.35H32.7381V58.31H26.0181ZM32.1727 57.54L37.0027 44.38H39.1727L34.3427 57.54H32.1727ZM43.2832 57.54L38.4532 44.38H40.6232L45.4532 57.54H43.2832ZM44.9017 58.31V56.35H51.6217V58.31H44.9017ZM51.1963 58.31V56.35H57.9163V58.31H51.1963ZM57.4908 58.31V56.35H64.2108V58.31H57.4908ZM63.7853 58.31V56.35H70.5053V58.31H63.7853ZM69.9398 57.54L74.7698 44.38H76.9398L72.1098 57.54H69.9398ZM82.5289 57.54L87.3589 44.38H89.5289L84.6989 57.54H82.5289ZM88.9634 58.31V56.35H95.6834V58.31H88.9634ZM95.118 57.54L99.948 44.38H102.118L97.288 57.54H95.118Z" fill="url(#paint0_linear_970_3860)"/>
<defs>
<linearGradient id="paint0_linear_970_3860" x1="78.1722" y1="-11.9999" x2="66.1695" y2="61.6413" gradientUnits="userSpaceOnUse">
<stop stop-color="#95D500"/>
<stop offset="1" stop-color="#02E63F"/>
</linearGradient>
</defs>
</svg>
