<svg width="24" height="24" viewBox="0 0 24 24" fill="none" xmlns="http://www.w3.org/2000/svg">
<g clip-path="url(#clip0_1047_6408)">
<path d="M9.98505 10.3231L10.2508 10.2152C12.7923 9.18372 15.802 10.1622 16.973 12.4008C18.1442 14.6393 17.0332 17.2901 14.4917 18.3215L10.8103 19.8156C8.26875 20.8471 5.25904 19.8686 4.08797 17.63C2.91688 15.3916 4.02785 12.7407 6.56935 11.7093L7.16576 11.4673" stroke="white" stroke-width="1.5" stroke-linecap="round"/>
<path d="M17.2575 13.0831L17.8538 12.8411C20.3954 11.8096 21.5064 9.15879 20.3352 6.92026C19.1642 4.68177 16.1545 3.70326 13.613 4.73473L9.93153 6.22883C7.39001 7.26029 6.27906 9.91111 7.45015 12.1496C8.62122 14.3881 11.6309 15.3667 14.1724 14.3351L14.4382 14.2273" stroke="white" stroke-width="1.5" stroke-linecap="round"/>
</g>
<defs>
<clipPath id="clip0_1047_6408">
<rect width="24" height="24" fill="white"/>
</clipPath>
</defs>
</svg>
