<svg width="598" height="598" viewBox="0 0 598 598" fill="none" xmlns="http://www.w3.org/2000/svg">
<circle cx="299" cy="299" r="294" fill="black" stroke="black" stroke-width="10"/>
<path d="M212.405 120.405C169.487 110.056 104.769 87.9424 251.753 173.874C266.187 182.312 268.3 194.694 263.815 198.317C254.98 205.457 243.625 204.064 233.067 194.545C222.277 184.816 212.488 180.647 205.575 182.836C197.394 185.427 171.138 212.108 169.516 219.477C167.741 227.539 172.188 236.881 182.419 246.588C189.745 253.539 191.936 263.31 188.297 272.778C185.92 278.958 174.293 283.581 161.133 283.581C150.813 283.581 147.846 284.658 141.961 290.529C135.341 297.137 135 298.482 135 318.047C135 337.612 135.341 338.957 141.961 345.565C147.846 351.436 150.813 352.513 161.133 352.513C174.293 352.513 185.92 357.136 188.297 363.316C191.936 372.784 189.745 382.555 182.419 389.506C172.257 399.149 167.632 408.75 169.487 416.354C171.557 424.832 198.53 451.799 206.739 453.598C214.446 455.288 220.967 452.265 233.246 441.307C244.515 431.25 256.183 430.461 264.901 439.165C269.836 444.088 270.748 447.268 270.748 459.55C270.748 472.467 271.532 474.886 277.709 481.052C284.356 487.686 285.626 488 305.759 488C320.83 488 328.329 486.964 332.047 484.366C338.032 480.18 342.161 467.444 342.18 453.113C342.192 445.224 343.485 442.17 348.47 438.257C358.57 430.328 369.177 431.763 381.023 442.662C399.104 459.296 407.959 457.884 429.75 434.889C446.523 417.188 438.907 405.893 423.548 389.506C411.076 376.197 414.634 389.918 426.337 360.599C431.505 347.652 417.067 338.484 403.706 334.279C392.203 330.658 380.864 330.868 375.019 334.279C372.28 335.877 375.019 333.649 370.016 347.646C362.271 363.445 350.885 374.752 333.118 382.869C315.481 390.93 288.726 389.793 272.491 380.297C232.815 357.091 222.92 306.077 251.753 273.384C269.305 253.482 282.353 247.834 308.853 248.661C322.278 249.082 329.572 250.665 338.217 255.031C351.086 261.533 363.384 271.684 370.016 283.581C372.15 287.666 372.926 287.494 375.949 297.136C377.307 298.267 379.05 298.845 381.023 299.07C386.348 299.678 393.343 299.652 398.925 299.07C413.422 297.559 425.451 290.251 423.548 270.857C419.891 233.576 425.751 234.272 436.219 233.071C441.908 226.911 441 228.297 459.169 210.156C464.14 199.113 465.863 178.648 454.388 167.19C444.825 157.642 429.75 154.778 423.548 154.778C412.313 154.778 398.925 158.843 380.947 193.565C369.173 204.323 358.515 205.726 348.47 197.837C343.197 193.698 342.195 191.027 342.195 181.122C342.195 167.11 337.308 154.222 330.644 150.661C328.001 149.249 325.109 145.06 308.853 141.41C287.588 136.636 241.144 127.335 212.405 120.405Z" fill="white"/>
<path d="M436.219 233.071C443.478 238.582 459.169 261.715 459.169 261.715C459.169 261.715 462.994 252.167 459.169 233.071C455.344 213.975 459.169 210.156 459.169 210.156C441 228.297 441.908 226.911 436.219 233.071Z" fill="white"/>
<circle cx="306" cy="317" r="72" fill="black"/>
</svg>
