<svg width="74" height="68" viewBox="0 0 74 68" fill="none" xmlns="http://www.w3.org/2000/svg">
<path d="M32.5974 65.3233L3.03098 42.7404C2.26646 42.3116 1.86046 41.3649 2.04361 40.4381L7.38046 21.4311C7.64477 20.0936 8 19.7015 10.097 18.4607L32.417 3.25429C35.2435 1.5819 38.7565 1.5819 41.583 3.25429L63.903 18.4607C66 19.7014 66.3552 20.0936 66.6195 21.4311L71.9564 40.4381C72.1395 41.3649 71.7335 42.3116 70.969 42.7404L41.4026 65.3233C40.0353 66.0902 38.5176 66.4737 37 66.4737C35.4824 66.4737 33.9647 66.0902 32.5974 65.3233Z" fill="white"/>
<path d="M32.5974 65.3233L3.03098 42.7404C2.26646 42.3116 1.86046 41.3649 2.04361 40.4381L7.38046 21.4311C7.64477 20.0936 8 19.7015 10.097 18.4607C8.17829 19.596 8.1349 22.3353 9.9668 23.5431C10.0519 23.5993 10.1307 23.6494 10.2128 23.7099C11.5503 24.6943 24.1706 33.9517 32.417 38.8309C35.3734 40.7699 36.5 42.5426 37 46.0426V66.4737C35.4824 66.4737 33.9647 66.0902 32.5974 65.3233Z" fill="#636363"/>
<path fill-rule="evenodd" clip-rule="evenodd" d="M33.2202 4.5221L10.9415 19.7003C10.9152 19.7183 10.8883 19.7354 10.8608 19.7516C9.89411 20.3236 9.87925 21.7127 10.8176 22.3071C10.8231 22.3105 10.8293 22.3145 10.8361 22.3188C10.8804 22.3467 10.9509 22.3913 11.0195 22.4379L33.2202 37.5631C35.5557 38.9259 38.4443 38.9259 40.7798 37.5631L62.9806 22.4379C63.0491 22.3912 63.1196 22.3467 63.1639 22.3188C63.1707 22.3145 63.177 22.3105 63.1824 22.3071C64.1208 21.7127 64.1059 20.3236 63.1392 19.7516C63.1117 19.7354 63.0848 19.7183 63.0585 19.7003L40.7798 4.5221C38.4443 3.1593 35.5557 3.1593 33.2202 4.5221ZM65.7806 23.9921C65.5026 24.3111 65.1717 24.5982 64.7878 24.8414C64.721 24.8837 64.6959 24.8993 64.6697 24.9172L42.4276 40.0705L42.4056 40.0852C41.0266 40.9896 40.1943 41.778 39.6363 42.6559C39.0903 43.5151 38.7336 44.5759 38.5 46.1512V64.8223C39.218 64.6758 39.9193 64.423 40.5802 64.064L70.0585 41.5484C70.1146 41.5055 70.1737 41.4667 70.2352 41.4322C70.3707 41.3562 70.5407 41.108 70.4923 40.7728L65.7806 23.9921ZM35.5 64.8223V46.1512C35.2664 44.5759 34.9097 43.5151 34.3637 42.6559C33.8057 41.778 32.9734 40.9896 31.5944 40.0852L31.5724 40.0705L9.33034 24.9172C9.30819 24.9021 9.28692 24.8887 9.24077 24.8595C9.23217 24.854 9.22269 24.848 9.21219 24.8414C8.82831 24.5982 8.49737 24.3111 8.21937 23.9921L3.50764 40.7728C3.45926 41.108 3.6293 41.3562 3.76473 41.4322C3.8263 41.4667 3.88536 41.5055 3.94146 41.5484L33.4198 64.064C34.0806 64.423 34.782 64.6758 35.5 64.8223ZM9.29175 17.1943L31.5724 2.01465C31.5988 1.99669 31.6257 1.97958 31.6532 1.96334C34.9507 0.0122194 39.0493 0.0122194 42.3469 1.96334C42.3743 1.97958 42.4012 1.99669 42.4276 2.01465L64.7083 17.1943C65.7079 17.7867 66.5046 18.2943 67.056 18.8979C67.6916 19.5938 67.9244 20.3192 68.0791 21.0805L73.4005 40.0326C73.4112 40.0705 73.4203 40.1088 73.4279 40.1473C73.7161 41.6055 73.1222 43.1876 71.8074 43.9876L42.3131 66.5154C42.257 66.5582 42.198 66.597 42.1364 66.6316C40.5412 67.5263 38.7703 67.9737 37 67.9737C35.2297 67.9737 33.4588 67.5263 31.8636 66.6316C31.802 66.597 31.743 66.5582 31.6869 66.5154L2.1926 43.9876C0.877778 43.1875 0.283901 41.6055 0.572054 40.1473C0.579677 40.1088 0.588815 40.0705 0.599445 40.0326L5.9209 21.0805C6.07558 20.3192 6.30834 19.5938 6.94399 18.8979C7.49537 18.2943 8.29208 17.7867 9.29175 17.1943Z" fill="black"/>
<path fill-rule="evenodd" clip-rule="evenodd" d="M10.0388 23.5893L10.0149 23.5742C8.13428 22.3829 8.16165 19.6058 10.097 18.4607L32.417 3.25429C35.2435 1.5819 38.7565 1.5819 41.583 3.25429L63.903 18.4607C65.8384 19.6058 65.8657 22.3829 63.9851 23.5742L63.9612 23.5894L63.961 23.5895C63.9153 23.6184 63.87 23.647 63.8251 23.6776L41.583 38.8309C38.7565 40.5033 35.2435 40.5033 32.417 38.8309L10.1749 23.6776C10.13 23.647 10.0846 23.6183 10.0388 23.5893ZM28.5102 17.7014C29.0884 17.3241 29.2512 16.5496 28.874 15.9715C28.4967 15.3933 27.7222 15.2304 27.144 15.6077L20.3169 20.0625C19.9632 20.2933 19.75 20.687 19.75 21.1093C19.75 21.5316 19.9632 21.9254 20.3169 22.1562L27.144 26.611C27.7222 26.9882 28.4967 26.8254 28.874 26.2472C29.2512 25.669 29.0884 24.8945 28.5102 24.5173L23.2874 21.1093L28.5102 17.7014ZM46.095 15.9715C45.7178 16.5496 45.8806 17.3241 46.4588 17.7014L51.6816 21.1093L46.4588 24.5173C45.8806 24.8945 45.7178 25.669 46.095 26.2472C46.4723 26.8254 47.2468 26.9882 47.8249 26.611L54.6521 22.1562C55.0057 21.9254 55.219 21.5316 55.219 21.1093C55.219 20.687 55.0057 20.2933 54.6521 20.0625L47.8249 15.6077C47.2468 15.2304 46.4723 15.3933 46.095 15.9715ZM42.28 13.0594C42.5655 12.4308 42.2873 11.6898 41.6588 11.4044C41.0302 11.1189 40.2892 11.397 40.0037 12.0256L32.689 28.1313C32.4035 28.7599 32.6816 29.5009 33.3102 29.7864C33.9388 30.0718 34.6797 29.7937 34.9652 29.1651L42.28 13.0594Z" fill="black"/>
</svg>
