<svg width="212" height="212" viewBox="0 0 212 212" fill="none" xmlns="http://www.w3.org/2000/svg">
<path d="M93.6956 190.144L13.7864 129.109C11.7202 127.95 10.6229 125.392 11.1179 122.887L25.5418 71.5165C26.2561 67.9015 27.2162 66.8417 32.8838 63.4883C27.6225 66.6013 27.5785 74.177 32.7517 77.3647C32.8385 77.4182 32.9197 77.471 33.0017 77.5315C35.2923 79.2199 70.4262 105.063 93.2081 118.543C101.198 123.783 104.243 128.575 105.595 138.034V193.253C101.493 193.253 97.3912 192.217 93.6956 190.144Z" fill="white"/>
<path d="M93.6937 190.144L13.7845 129.109C11.7182 127.95 10.6209 125.392 11.1159 122.887L25.5398 71.5165C26.2542 67.9015 27.2143 66.8417 32.8818 63.4883C27.6205 66.6013 27.5765 74.177 32.7497 77.3647C32.8365 77.4182 32.9177 77.471 32.9998 77.5315C35.2903 79.2199 70.4243 105.063 93.2062 118.543C101.197 123.783 104.241 128.575 105.593 138.034V193.253C101.491 193.253 97.3892 192.217 93.6937 190.144Z" fill="url(#paint0_linear_2349_2282)"/>
<path d="M93.6937 190.144L13.7845 129.109C11.7182 127.95 10.6209 125.392 11.1159 122.887L25.5398 71.5165C26.2542 67.9015 27.2143 66.8417 32.8818 63.4883C27.6205 66.6013 27.5765 74.177 32.7497 77.3647C32.8365 77.4182 32.9177 77.471 32.9998 77.5315C35.2903 79.2199 70.4243 105.063 93.2062 118.543C101.197 123.783 104.241 128.575 105.593 138.034V193.253C101.491 193.253 97.3892 192.217 93.6937 190.144Z" fill="black" fill-opacity="0.4"/>
<path fill-rule="evenodd" clip-rule="evenodd" d="M95.3783 25.8159L35.1657 66.8381C35.0944 66.8866 35.0217 66.9329 34.9475 66.9768C32.3348 68.5227 32.2946 72.2769 34.8306 73.8833C34.8454 73.8927 34.8623 73.9034 34.8808 73.9151C35.0005 73.9906 35.1911 74.1109 35.3762 74.237L95.3783 115.116C101.69 118.799 109.498 118.799 115.81 115.116L175.812 74.237C175.997 74.1109 176.187 73.9906 176.307 73.915C176.326 73.9033 176.342 73.8927 176.357 73.8833C178.893 72.2769 178.853 68.5227 176.24 66.9768C176.166 66.9329 176.093 66.8866 176.022 66.8381L115.81 25.8159C109.498 22.1326 101.69 22.1326 95.3783 25.8159ZM183.379 78.4376C182.628 79.2996 181.734 80.0756 180.696 80.7328C180.516 80.8472 180.448 80.8894 180.377 80.9378L120.263 121.893L120.204 121.932C116.477 124.377 114.227 126.507 112.719 128.88C111.243 131.202 110.279 134.069 109.648 138.327V188.789C111.588 188.393 113.484 187.71 115.27 186.74L194.941 125.887C195.093 125.771 195.253 125.666 195.419 125.573C195.785 125.367 196.244 124.697 196.114 123.791L183.379 78.4376ZM101.54 188.789V138.327C100.909 134.069 99.9445 131.202 98.4687 128.88C96.9608 126.507 94.7112 124.377 90.9841 121.932L90.9248 121.893L30.8111 80.9378C30.7512 80.897 30.6937 80.8606 30.569 80.7817C30.5457 80.767 30.5201 80.7508 30.4917 80.7328C29.4542 80.0756 28.5598 79.2996 27.8085 78.4376L15.074 123.791C14.9433 124.697 15.4028 125.367 15.7689 125.573C15.9353 125.666 16.0949 125.771 16.2465 125.887L95.9176 186.74C97.7038 187.71 99.5994 188.393 101.54 188.789ZM30.7068 60.0649L90.9248 19.039C90.9961 18.9904 91.0688 18.9442 91.143 18.9003C100.055 13.627 111.133 13.627 120.045 18.9003C120.119 18.9442 120.192 18.9904 120.263 19.039L180.481 60.0649C183.183 61.6661 185.336 63.0381 186.826 64.6695C188.544 66.55 189.173 68.5106 189.591 70.5682L203.974 121.79C204.002 121.893 204.027 121.996 204.048 122.1C204.827 126.041 203.221 130.317 199.668 132.479L119.954 193.365C119.802 193.481 119.642 193.586 119.476 193.679C115.165 196.097 110.379 197.307 105.594 197.307C100.809 197.307 96.0231 196.097 91.7118 193.679C91.5454 193.586 91.3857 193.481 91.2341 193.365L11.5199 132.479C7.96631 130.317 6.36124 126.041 7.14003 122.1C7.16063 121.996 7.18533 121.893 7.21406 121.79L21.5964 70.5683C22.0144 68.5107 22.6435 66.5501 24.3615 64.6695C25.8517 63.0381 28.005 61.6661 30.7068 60.0649Z" fill="url(#paint1_linear_2349_2282)"/>
<path fill-rule="evenodd" clip-rule="evenodd" d="M32.7263 77.3495C32.7049 77.3359 32.6834 77.3223 32.6619 77.3087C27.5791 74.0891 27.6531 66.5833 32.8838 63.4884L93.2081 22.39C100.847 17.87 110.342 17.87 117.981 22.39L178.305 63.4884C183.536 66.5833 183.61 74.0891 178.527 77.3087L178.463 77.3494C178.339 77.4277 178.216 77.5053 178.095 77.5881L117.981 118.543C110.342 123.063 100.847 123.063 93.2081 118.543L33.0943 77.5881C32.9729 77.5053 32.8501 77.4277 32.7263 77.3495ZM119.864 48.8924C120.636 47.1935 119.884 45.1909 118.185 44.4193C116.486 43.6478 114.484 44.3995 113.712 46.0983L93.9423 89.6274C93.1708 91.3262 93.9225 93.3289 95.6213 94.1004C97.3201 94.872 99.3228 94.1203 100.094 92.4215L119.864 48.8924ZM82.6483 61.4384C84.2109 60.4187 84.6511 58.3254 83.6315 56.7629C82.6118 55.2003 80.5186 54.7601 78.956 55.7797L60.5043 67.8197C59.5484 68.4434 58.9721 69.5076 58.9721 70.649C58.9721 71.7904 59.5484 72.8546 60.5043 73.4783L78.956 85.5183C80.5186 86.5379 82.6118 86.0977 83.6315 84.5351C84.6511 82.9725 84.2109 80.8792 82.6483 79.8596L68.5327 70.649L82.6483 61.4384ZM134.85 55.7797C133.288 54.7601 131.194 55.2003 130.175 56.7629C129.155 58.3254 129.595 60.4187 131.158 61.4384L145.274 70.649L131.158 79.8596C129.595 80.8792 129.155 82.9725 130.175 84.5351C131.194 86.0977 133.288 86.5379 134.85 85.5183L153.302 73.4783C154.258 72.8546 154.834 71.7904 154.834 70.649C154.834 69.5076 154.258 68.4434 153.302 67.8197L134.85 55.7797Z" fill="url(#paint2_linear_2349_2282)"/>
<defs>
<linearGradient id="paint0_linear_2349_2282" x1="71.6101" y1="63.4884" x2="24.1992" y2="185.155" gradientUnits="userSpaceOnUse">
<stop stop-color="#2DDC25"/>
<stop offset="1" stop-color="#00B45B"/>
</linearGradient>
<linearGradient id="paint1_linear_2349_2282" x1="133.364" y1="14.9455" x2="84.9885" y2="199.188" gradientUnits="userSpaceOnUse">
<stop stop-color="#95D500"/>
<stop offset="1" stop-color="#02E63F"/>
</linearGradient>
<linearGradient id="paint2_linear_2349_2282" x1="132.224" y1="19.0002" x2="86.1416" y2="195.131" gradientUnits="userSpaceOnUse">
<stop stop-color="#95D500"/>
<stop offset="1" stop-color="#02E63F"/>
</linearGradient>
</defs>
</svg>
