<svg width="359" height="69" viewBox="0 0 359 69" fill="none" xmlns="http://www.w3.org/2000/svg">
<g clip-path="url(#clip0_768_585)">
<mask id="mask0_768_585" style="mask-type:luminance" maskUnits="userSpaceOnUse" x="0" y="0" width="359" height="69">
<path d="M359 0H0V69H359V0Z" fill="white"/>
</mask>
<g mask="url(#mask0_768_585)">
<path fill-rule="evenodd" clip-rule="evenodd" d="M69.0141 34.4191C69.0141 15.4102 53.6403 0 34.6769 0C15.7133 0 0.339844 15.4102 0.339844 34.4191C0.339844 53.429 15.7133 68.8382 34.6769 68.8382C53.6403 68.8382 69.0141 53.429 69.0141 34.4191ZM28.4271 15.2974C28.1572 15.8284 28.1572 16.5237 28.1572 17.9141V25.7946C28.1572 26.1419 28.1572 26.3156 28.2009 26.4761C28.2397 26.6184 28.3034 26.7526 28.3891 26.8724C28.4858 27.0077 28.6203 27.1172 28.8892 27.3362L30.8779 28.9555C31.2021 29.2194 31.3641 29.3514 31.423 29.5103C31.4746 29.6497 31.4746 29.803 31.423 29.9423C31.3641 30.1012 31.2021 30.2331 30.8779 30.4971L28.8893 32.1164C28.6203 32.3354 28.4858 32.4449 28.3891 32.5802C28.3034 32.7 28.2397 32.8342 28.2009 32.9765C28.1572 33.1371 28.1572 33.3107 28.1572 33.658V50.924C28.1572 52.3143 28.1572 53.0094 28.4271 53.5404C28.6646 54.008 29.0435 54.3875 29.5095 54.6254C30.0393 54.8962 30.7329 54.8962 32.12 54.8962H37.2337C38.6208 54.8962 39.3144 54.8962 39.8441 54.6254C40.3103 54.3875 40.689 54.008 40.9267 53.5404C41.1967 53.0094 41.1967 52.3143 41.1967 50.924V43.0433C41.1967 42.6959 41.1967 42.5222 41.1528 42.362C41.1141 42.2197 41.0504 42.0852 40.9646 41.9655C40.8677 41.8303 40.7333 41.7208 40.4645 41.5019L38.4758 39.8824C38.1517 39.6186 37.9896 39.4866 37.9308 39.3277C37.8792 39.1883 37.8792 39.035 37.9308 38.8957C37.9896 38.7368 38.1517 38.6048 38.4758 38.3409L40.4645 36.7216C40.7333 36.5026 40.8677 36.3931 40.9646 36.2578C41.0504 36.138 41.1141 36.0038 41.1528 35.8615C41.1967 35.701 41.1967 35.5273 41.1967 35.18V17.9141C41.1967 16.5237 41.1967 15.8284 40.9267 15.2974C40.689 14.8302 40.3103 14.4504 39.8441 14.2124C39.3144 13.9418 38.6208 13.9418 37.2337 13.9418H32.12C30.7329 13.9418 30.0393 13.9418 29.5095 14.2124C29.0435 14.4504 28.6646 14.8302 28.4271 15.2974Z" fill="white"/>
<path d="M96.5789 55.0093C96.9194 55.0093 97.1949 54.7329 97.1949 54.3918V13.9612C97.1949 13.6202 96.9194 13.3438 96.5789 13.3438H90.6349C90.4147 13.3438 90.213 13.4632 90.092 13.6477C88.7292 15.725 86.1948 16.7713 82.7219 16.8803C82.3818 16.8909 82.1055 17.1662 82.1055 17.5072V23.5543C82.1055 23.8953 82.381 24.1718 82.7215 24.1718H87.5253C87.8653 24.1718 88.1413 24.4482 88.1413 24.7892V54.3918C88.1413 54.7329 88.4168 55.0093 88.7573 55.0093H96.5789Z" fill="white"/>
<path d="M120.31 21.7034C123.516 21.7034 126.094 23.4131 126.094 27.719C126.094 31.8982 123.516 33.7345 120.31 33.7345H113.331V21.7034H120.31ZM120.31 41.523C129.741 41.523 135.211 35.7608 135.211 27.4657C135.211 19.6138 129.741 13.8516 120.31 13.8516H104.956C104.615 13.8516 104.34 14.128 104.34 14.469V54.3931C104.34 54.7341 104.615 55.0105 104.956 55.0105H112.715C113.055 55.0105 113.331 54.7341 113.331 54.3931V42.1404C113.331 41.7994 113.607 41.523 113.947 41.523H120.31Z" fill="white"/>
<path d="M149.156 49.1849C146.515 49.1849 144.881 47.9817 144.881 45.8288C144.881 43.929 146.012 42.6628 148.716 42.6628H156.072V43.2957C156.072 46.9685 152.928 49.1849 149.156 49.1849ZM156.764 54.3928C156.764 54.7338 157.04 55.0102 157.38 55.0102H164.133C164.473 55.0102 164.749 54.7338 164.749 54.3928V36.5204C164.749 27.9087 159.907 22.9062 151.168 22.9062C144.679 22.9062 139.711 26.3818 137.674 31.9692C137.552 32.3048 137.755 32.6667 138.101 32.7518L144.905 34.4243C145.212 34.4999 145.525 34.3288 145.644 34.0352C146.678 31.5004 148.398 29.9983 151.168 29.9983C154.06 29.9983 156.072 31.8979 156.072 35.3173V35.7606C156.072 36.7104 155.758 37.0903 154.626 37.0903H146.767C140.228 37.0903 136.267 40.5729 136.267 46.0818C136.267 51.971 140.794 55.7704 147.081 55.7704C150.245 55.7704 153.284 54.7275 155.426 52.4053C155.848 51.9488 156.764 52.2272 156.764 52.849V54.3928Z" fill="white"/>
<path d="M181.477 49.4379C178.422 49.4379 176.19 48.1661 175.089 45.8288C174.956 45.5453 174.646 45.3803 174.342 45.4573L167.983 47.072C167.656 47.1549 167.455 47.4872 167.552 47.8112C169.162 53.1742 174.547 55.7704 181.162 55.7704C189.651 55.7704 194.492 51.4012 194.492 45.4489C194.492 33.9242 176.321 37.8502 176.321 32.1512C176.321 30.2516 177.893 29.0484 180.722 29.0484C183.538 29.0484 185.424 30.592 186.327 32.9589C186.439 33.2525 186.74 33.4367 187.048 33.3782L193.539 32.1459C193.885 32.08 194.108 31.7346 194.008 31.3951C192.519 26.3532 188.334 22.9062 180.785 22.9062C172.486 22.9062 168.084 27.3388 168.084 32.9111C168.084 44.8157 186.318 41.2697 186.318 46.2087C186.318 48.1717 184.683 49.4379 181.477 49.4379Z" fill="white"/>
<path d="M209.724 49.4379C206.668 49.4379 204.437 48.1661 203.336 45.8288C203.203 45.5453 202.893 45.3803 202.59 45.4573L196.23 47.072C195.903 47.1549 195.702 47.4872 195.799 47.8112C197.409 53.1742 202.794 55.7704 209.409 55.7704C217.897 55.7704 222.739 51.4012 222.739 45.4489C222.739 33.9242 204.568 37.8502 204.568 32.1512C204.568 30.2516 206.14 29.0484 208.969 29.0484C211.785 29.0484 213.67 30.592 214.574 32.9589C214.686 33.2525 214.987 33.4367 215.295 33.3782L221.785 32.1459C222.133 32.08 222.355 31.7346 222.254 31.3951C220.766 26.3532 216.581 22.9062 209.032 22.9062C200.733 22.9062 196.332 27.3388 196.332 32.9111C196.332 44.8157 214.565 41.2697 214.565 46.2087C214.565 48.1717 212.93 49.4379 209.724 49.4379Z" fill="white"/>
<path d="M230.686 54.5366C230.753 54.8134 231.001 55.0081 231.285 55.0081H241.064C241.35 55.0081 241.598 54.8111 241.664 54.5323L246.645 33.2889L251.626 54.5323C251.691 54.8111 251.94 55.0081 252.226 55.0081H262.321C262.604 55.0081 262.851 54.8142 262.919 54.5378L270.287 24.4286C270.382 24.0396 270.088 23.6641 269.689 23.6641H262.739C262.447 23.6641 262.195 23.8697 262.136 24.1565L257.208 48.0427L251.102 24.1284C251.032 23.8552 250.786 23.6641 250.505 23.6641H242.731C242.445 23.6641 242.197 23.8604 242.131 24.1386L236.459 48.0427L231.593 24.158C231.534 23.8705 231.282 23.6641 230.989 23.6641H223.977C223.577 23.6641 223.284 24.0387 223.378 24.4275L230.686 54.5366Z" fill="white"/>
<path d="M286.899 55.7704C296.33 55.7704 302.806 48.4251 302.806 39.3699C302.806 30.2516 296.33 22.9062 286.899 22.9062C277.531 22.9062 270.992 30.2516 270.992 39.3699C270.992 48.4251 277.531 55.7704 286.899 55.7704ZM286.899 48.2351C283.001 48.2351 279.983 44.9422 279.983 39.3699C279.983 33.7976 283.001 30.4415 286.899 30.4415C290.797 30.4415 293.878 33.7976 293.878 39.3699C293.878 44.9422 290.797 48.2351 286.899 48.2351Z" fill="white"/>
<path d="M315.207 38.4201C315.207 33.0377 317.911 31.7713 322.061 31.7713C322.856 31.7713 323.73 31.8505 324.558 32.0089C324.91 32.076 325.258 31.8512 325.32 31.4985L326.636 24.0415C326.682 23.7795 326.557 23.514 326.313 23.4097C325.557 23.0868 324.621 22.9062 323.507 22.9062C319.294 22.9062 316.025 25.3758 314.453 30.3782V24.2836C314.453 23.9426 314.177 23.6661 313.837 23.6661H307.021C306.681 23.6661 306.405 23.9426 306.405 24.2836V54.3928C306.405 54.7338 306.681 55.0102 307.021 55.0102H314.592C314.932 55.0102 315.207 54.7338 315.207 54.3928V38.4201Z" fill="white"/>
<path d="M342.904 48.4231C338.377 48.4231 335.988 44.6868 335.988 39.3679C335.988 34.0489 338.377 30.2496 342.904 30.2496C347.431 30.2496 349.82 34.0489 349.82 39.3679C349.82 44.6868 347.431 48.4231 342.904 48.4231ZM350.323 54.3908C350.323 54.7319 350.599 55.0083 350.939 55.0083H358.006C358.346 55.0083 358.622 54.7319 358.622 54.3908V14.5588C358.622 14.2178 358.346 13.9414 358.006 13.9414H350.688C350.347 13.9414 350.072 14.2178 350.072 14.5588V28.0333C348.122 24.3607 344.853 22.9043 340.703 22.9043C332.592 22.9043 327.06 29.9964 327.06 39.3679C327.06 48.7396 332.592 55.7685 340.703 55.7685C345.104 55.7685 348.5 53.9951 350.323 49.4359V54.3908Z" fill="white"/>
</g>
</g>
<defs>
<clipPath id="clip0_768_585">
<rect width="359" height="69" fill="white"/>
</clipPath>
</defs>
</svg>
