<svg width="77" height="77" viewBox="0 0 77 77" fill="none" xmlns="http://www.w3.org/2000/svg">
<g clip-path="url(#clip0_769_15)">
<path d="M38.5 0C30.8854 0 23.4419 2.25799 17.1106 6.48842C10.7793 10.7189 5.84463 16.7317 2.93066 23.7667C0.0166815 30.8016 -0.745747 38.5427 0.739784 46.011C2.22532 53.4792 5.89208 60.3393 11.2764 65.7236C16.6607 71.1079 23.5208 74.7747 30.989 76.2602C38.4573 77.7458 46.1984 76.9833 53.2333 74.0694C60.2683 71.1554 66.2812 66.2207 70.5116 59.8895C74.742 53.5582 77 46.1146 77 38.5C77 28.2892 72.9438 18.4965 65.7236 11.2764C58.5035 4.05624 48.7108 0 38.5 0ZM23.1741 23.3962H45.2893L41.928 28.838H19.8053L23.1741 23.3962ZM60.1266 50.2499L56.7653 44.8081H46.9404L50.3017 39.3662H53.4188L49.6576 33.3913L39.196 50.1166H11.3205L18.0432 39.3959H13.1196L16.4662 33.954H38.0114L34.6648 39.3959H24.3735L21.0269 44.8377H36.2418L49.6872 23.4258L66.4791 50.2795H60.1192L60.1266 50.2499Z" fill="white"/>
</g>
<defs>
<clipPath id="clip0_769_15">
<rect width="77" height="77" fill="white"/>
</clipPath>
</defs>
</svg>
