<svg width="1767" height="883" viewBox="0 0 1767 883" fill="none" xmlns="http://www.w3.org/2000/svg">
<path d="M1099.5 477.382C972.001 499.882 556.501 521.882 274.501 477.382C-7.49901 432.882 -116.401 375.618 429.001 339.003C506.435 333.804 989.795 306.42 801.512 375.618C801.512 375.618 697.001 372 572.001 385C447.001 398 636.501 408.882 734.501 414.882C832.501 420.882 1005.5 431.474 1145 414.882C1284.5 398.29 1332 396 1428 385C1524 374 1626.5 357.382 1722.5 399.882C1842.83 453.152 1905.22 549.029 1932.8 663L1773.5 883C1768.92 686.942 1741 616 1681 545.382C1648.88 507.58 1570.91 480.264 1507 473C1376.43 454.016 1227 454.882 1099.5 477.382Z" fill="#92CFFC"/>
<path fill-rule="evenodd" clip-rule="evenodd" d="M1665.91 247.855H1658.64V244.809H1665.91C1668.01 244.809 1666.79 246.84 1665.91 247.855ZM1656.31 258.376H1660.97V341.44H1656.31V258.376ZM1658.35 247.855H1651.07C1650.2 246.84 1648.98 244.809 1651.07 244.809H1658.35V247.855Z" fill="#132C6B"/>
<path d="M1658.64 247.855H1657.14V249.355H1658.64V247.855ZM1665.91 247.855V249.355H1666.6L1667.05 248.833L1665.91 247.855ZM1658.64 244.809V243.309H1657.14V244.809H1658.64ZM1660.97 258.376H1662.47V256.876H1660.97V258.376ZM1656.31 258.376V256.876H1654.81V258.376H1656.31ZM1660.97 341.44V342.94H1662.47V341.44H1660.97ZM1656.31 341.44H1654.81V342.94H1656.31V341.44ZM1651.07 247.855L1649.94 248.833L1650.39 249.355H1651.07V247.855ZM1658.35 247.855V249.355H1659.85V247.855H1658.35ZM1658.35 244.809H1659.85V243.309H1658.35V244.809ZM1661.84 258.653V260.153H1662.5L1662.94 259.668L1661.84 258.653ZM1665.91 254.223L1667.02 255.238L1667.41 254.808V254.223H1665.91ZM1665.91 247.855V246.355H1664.41V247.855H1665.91ZM1655.15 258.653L1654.04 259.668L1654.49 260.153H1655.15V258.653ZM1651.07 254.223H1649.57V254.808L1649.97 255.238L1651.07 254.223ZM1651.07 247.855H1652.57V246.355H1651.07V247.855ZM1658.64 249.355H1665.91V246.355H1658.64V249.355ZM1657.14 244.809V247.855H1660.14V244.809H1657.14ZM1665.91 243.309H1658.64V246.309H1665.91V243.309ZM1667.05 248.833C1667.52 248.285 1668.25 247.298 1668.48 246.302C1668.61 245.796 1668.68 244.938 1668.09 244.2C1667.5 243.472 1666.62 243.309 1665.91 243.309V246.309C1666.26 246.309 1666.01 246.4 1665.75 246.084C1665.49 245.759 1665.6 245.472 1665.57 245.6C1665.54 245.7 1665.46 245.895 1665.3 246.166C1665.14 246.421 1664.95 246.674 1664.78 246.877L1667.05 248.833ZM1660.97 256.876H1656.31V259.876H1660.97V256.876ZM1662.47 341.44V258.376H1659.47V341.44H1662.47ZM1656.31 342.94H1660.97V339.94H1656.31V342.94ZM1654.81 258.376V341.44H1657.81V258.376H1654.81ZM1651.07 249.355H1658.35V246.355H1651.07V249.355ZM1651.07 243.309C1650.37 243.309 1649.49 243.472 1648.9 244.2C1648.3 244.938 1648.38 245.796 1648.5 246.302C1648.74 247.298 1649.47 248.285 1649.94 248.833L1652.21 246.877C1652.04 246.674 1651.85 246.421 1651.69 246.166C1651.52 245.896 1651.44 245.7 1651.42 245.6C1651.39 245.472 1651.5 245.759 1651.23 246.084C1650.98 246.4 1650.73 246.309 1651.07 246.309V243.309ZM1658.35 243.309H1651.07V246.309H1658.35V243.309ZM1659.85 247.855V244.809H1656.85V247.855H1659.85ZM1662.94 259.668L1667.02 255.238L1664.81 253.208L1660.74 257.638L1662.94 259.668ZM1667.41 254.223V247.855H1664.41V254.223H1667.41ZM1657.14 247.855V258.376H1660.14V247.855H1657.14ZM1661.84 257.153H1660.97V260.153H1661.84V257.153ZM1669.41 246.355H1665.91V249.355H1669.41V246.355ZM1665.91 243.309H1658.64V246.309H1665.91V243.309ZM1656.25 257.638L1652.18 253.208L1649.97 255.238L1654.04 259.668L1656.25 257.638ZM1652.57 254.223V247.855H1649.57V254.223H1652.57ZM1656.85 247.855V258.376H1659.85V247.855H1656.85ZM1655.15 260.153H1656.31V257.153H1655.15V260.153ZM1647.58 249.355H1651.07V246.355H1647.58V249.355ZM1651.07 246.309H1658.35V243.309H1651.07V246.309Z" fill="#132C6B"/>
<g filter="url(#filter0_f_1027_1093)">
<ellipse cx="1658.27" cy="250.038" rx="48.3575" ry="46.1083" fill="#FFC139"/>
</g>
<g filter="url(#filter1_f_1027_1093)">
<ellipse cx="1659.02" cy="253.036" rx="9.37161" ry="6.37269" fill="#FCD85B"/>
</g>
<path fill-rule="evenodd" clip-rule="evenodd" d="M1621.2 393.86H1610.55V389.587H1621.2C1624.27 389.587 1622.48 392.436 1621.2 393.86ZM1607.14 408.622H1613.96V525.161H1607.14V408.622ZM1610.13 393.86H1599.48C1598.2 392.436 1596.41 389.587 1599.48 389.587H1610.13V393.86Z" fill="#132C6B"/>
<path d="M1610.55 393.86H1609.05V395.36H1610.55V393.86ZM1621.2 393.86V395.36H1621.87L1622.32 394.862L1621.2 393.86ZM1610.55 389.587V388.087H1609.05V389.587H1610.55ZM1613.96 408.622H1615.46V407.122H1613.96V408.622ZM1607.14 408.622V407.122H1605.64V408.622H1607.14ZM1613.96 525.161V526.661H1615.46V525.161H1613.96ZM1607.14 525.161H1605.64V526.661H1607.14V525.161ZM1599.48 393.86L1598.36 394.862L1598.81 395.36H1599.48V393.86ZM1610.13 393.86V395.36H1611.63V393.86H1610.13ZM1610.13 389.587H1611.63V388.087H1610.13V389.587ZM1615.24 409.01V410.51H1615.88L1616.32 410.049L1615.24 409.01ZM1621.2 402.795L1622.28 403.833L1622.7 403.398V402.795H1621.2ZM1621.2 393.86V392.36H1619.7V393.86H1621.2ZM1605.44 409.01L1604.36 410.049L1604.8 410.51H1605.44V409.01ZM1599.48 402.795H1597.98V403.398L1598.39 403.833L1599.48 402.795ZM1599.48 393.86H1600.98V392.36H1599.48V393.86ZM1610.55 395.36H1621.2V392.36H1610.55V395.36ZM1609.05 389.587V393.86H1612.05V389.587H1609.05ZM1621.2 388.087H1610.55V391.087H1621.2V388.087ZM1622.32 394.862C1622.99 394.113 1623.97 392.817 1624.29 391.555C1624.45 390.908 1624.52 389.915 1623.82 389.088C1623.15 388.292 1622.13 388.087 1621.2 388.087V391.087C1621.81 391.087 1621.71 391.238 1621.53 391.02C1621.32 390.772 1621.44 390.58 1621.38 390.824C1621.32 391.044 1621.17 391.377 1620.91 391.782C1620.66 392.171 1620.36 392.552 1620.08 392.858L1622.32 394.862ZM1613.96 407.122H1607.14V410.122H1613.96V407.122ZM1615.46 525.161V408.622H1612.46V525.161H1615.46ZM1607.14 526.661H1613.96V523.661H1607.14V526.661ZM1605.64 408.622V525.161H1608.64V408.622H1605.64ZM1599.48 395.36H1610.13V392.36H1599.48V395.36ZM1599.48 388.087C1598.55 388.087 1597.52 388.292 1596.85 389.088C1596.16 389.915 1596.23 390.908 1596.39 391.555C1596.71 392.817 1597.69 394.113 1598.36 394.862L1600.59 392.858C1600.32 392.552 1600.02 392.171 1599.77 391.782C1599.51 391.377 1599.36 391.044 1599.3 390.824C1599.24 390.58 1599.36 390.772 1599.15 391.021C1598.97 391.238 1598.87 391.087 1599.48 391.087V388.087ZM1610.13 388.087H1599.48V391.087H1610.13V388.087ZM1611.63 393.86V389.587H1608.63V393.86H1611.63ZM1616.32 410.049L1622.28 403.833L1620.12 401.756L1614.15 407.972L1616.32 410.049ZM1622.7 402.795V393.86H1619.7V402.795H1622.7ZM1609.05 393.86V408.622H1612.05V393.86H1609.05ZM1615.24 407.51H1613.96V410.51H1615.24V407.51ZM1626.31 392.36H1621.2V395.36H1626.31V392.36ZM1621.2 388.087H1610.55V391.087H1621.2V388.087ZM1606.52 407.972L1600.56 401.756L1598.39 403.833L1604.36 410.049L1606.52 407.972ZM1600.98 402.795V393.86H1597.98V402.795H1600.98ZM1608.63 393.86V408.622H1611.63V393.86H1608.63ZM1605.44 410.51H1607.14V407.51H1605.44V410.51ZM1594.36 395.36H1599.48V392.36H1594.36V395.36ZM1599.48 391.087H1610.13V388.087H1599.48V391.087Z" fill="#132C6B"/>
<g filter="url(#filter2_f_1027_1093)">
<ellipse cx="1608.61" cy="397.79" rx="55.6975" ry="53.1069" fill="#FFC139"/>
</g>
<g filter="url(#filter3_f_1027_1093)">
<ellipse cx="1609.48" cy="401.245" rx="10.7941" ry="7.33998" fill="#FCD85B"/>
</g>
<path fill-rule="evenodd" clip-rule="evenodd" d="M733.311 309.734H726.037C725.164 308.719 723.942 306.688 726.037 306.688H733.311V309.734ZM740.876 309.734H733.602V306.688H740.876C742.971 306.688 741.749 308.719 740.876 309.734ZM731.275 320.255H735.931V403.319H731.275V320.255Z" fill="#132C6B"/>
<path d="M726.037 309.734L724.899 310.712L725.348 311.234H726.037V309.734ZM733.311 309.734V311.234H734.811V309.734H733.311ZM733.311 306.688H734.811V305.188H733.311V306.688ZM733.602 309.734H732.102V311.234H733.602V309.734ZM740.876 309.734V311.234H741.565L742.014 310.712L740.876 309.734ZM733.602 306.688V305.188H732.102V306.688H733.602ZM735.931 320.255H737.431V318.755H735.931V320.255ZM731.275 320.255V318.755H729.775V320.255H731.275ZM735.931 403.319V404.819H737.431V403.319H735.931ZM731.275 403.319H729.775V404.819H731.275V403.319ZM736.803 320.532V322.032H737.461L737.907 321.548L736.803 320.532ZM740.876 316.102L741.98 317.118L742.376 316.687V316.102H740.876ZM740.876 309.734V308.234H739.376V309.734H740.876ZM730.11 320.532L729.006 321.548L729.452 322.032H730.11V320.532ZM726.037 316.102H724.537V316.687L724.933 317.118L726.037 316.102ZM726.037 309.734H727.537V308.234H726.037V309.734ZM726.037 311.234H733.311V308.234H726.037V311.234ZM726.037 305.188C725.334 305.188 724.45 305.351 723.863 306.08C723.268 306.817 723.343 307.675 723.465 308.182C723.705 309.178 724.428 310.164 724.899 310.712L727.174 308.756C726.999 308.553 726.809 308.3 726.652 308.045C726.486 307.775 726.406 307.579 726.382 307.479C726.351 307.351 726.46 307.639 726.197 307.964C725.942 308.28 725.691 308.188 726.037 308.188V305.188ZM733.311 305.188H726.037V308.188H733.311V305.188ZM734.811 309.734V306.688H731.811V309.734H734.811ZM733.602 311.234H740.876V308.234H733.602V311.234ZM732.102 306.688V309.734H735.102V306.688H732.102ZM740.876 305.188H733.602V308.188H740.876V305.188ZM742.014 310.712C742.485 310.164 743.208 309.178 743.448 308.182C743.569 307.675 743.645 306.817 743.05 306.08C742.462 305.351 741.579 305.188 740.876 305.188V308.188C741.221 308.188 740.97 308.28 740.715 307.964C740.453 307.639 740.562 307.351 740.531 307.48C740.507 307.579 740.427 307.775 740.261 308.045C740.104 308.3 739.913 308.553 739.739 308.756L742.014 310.712ZM735.931 318.755H731.275V321.755H735.931V318.755ZM737.431 403.319V320.255H734.431V403.319H737.431ZM731.275 404.819H735.931V401.819H731.275V404.819ZM729.775 320.255V403.319H732.775V320.255H729.775ZM737.907 321.548L741.98 317.118L739.772 315.087L735.698 319.517L737.907 321.548ZM742.376 316.102V309.734H739.376V316.102H742.376ZM732.102 309.734V320.255H735.102V309.734H732.102ZM736.803 319.032H735.931V322.032H736.803V319.032ZM744.368 308.234H740.876V311.234H744.368V308.234ZM740.876 305.188H733.602V308.188H740.876V305.188ZM731.214 319.517L727.141 315.087L724.933 317.118L729.006 321.548L731.214 319.517ZM727.537 316.102V309.734H724.537V316.102H727.537ZM731.811 309.734V320.255H734.811V309.734H731.811ZM730.11 322.032H731.275V319.032H730.11V322.032ZM722.545 311.234H726.037V308.234H722.545V311.234ZM726.037 308.188H733.311V305.188H726.037V308.188Z" fill="#132C6B"/>
<g filter="url(#filter4_f_1027_1093)">
<ellipse cx="733.853" cy="310.846" rx="49.6423" ry="47.3334" fill="#FFC139"/>
</g>
<g filter="url(#filter5_f_1027_1093)">
<ellipse cx="734.623" cy="313.924" rx="9.62061" ry="6.54201" fill="#FCD85B"/>
</g>
<rect x="1468.29" y="1" width="137.31" height="360.058" fill="#203D93"/>
<rect x="1498.42" y="35.4004" width="77.0557" height="282.084" fill="#FFFAEC"/>
<rect x="1468.29" y="1" width="30.127" height="360.058" fill="#788ACB"/>
<rect x="1575.48" y="1" width="30.127" height="360.058" fill="#788ACB"/>
<path d="M1498.42 1V35.4005H1509.72M1509.72 1V35.4005M1509.72 35.4005H1521.3M1521.3 1V35.4005M1521.3 35.4005H1533.18M1533.18 1V35.4005M1533.18 35.4005H1544.19M1544.19 1V35.4005M1544.19 35.4005H1554.91M1554.91 1V35.4005M1554.91 35.4005H1564.9M1574.9 1V35.4005H1564.9M1565.34 1L1564.9 35.4005" stroke="#788ACB" stroke-width="3"/>
<path d="M1515.22 317.485L1515.22 30.814" stroke="#203D93" stroke-width="5"/>
<path d="M1559.25 317.485L1559.25 30.814" stroke="#203D93" stroke-width="5"/>
<path d="M1537.24 317.485V30.814" stroke="#203D93" stroke-width="5"/>
<path d="M1605.6 1L1629.94 22.3473V361.058H1605.6V1Z" fill="#132C6B"/>
<path d="M1498.42 1V35.4005H1509.72M1509.72 1V35.4005M1509.72 35.4005H1521.3M1521.3 1V35.4005M1521.3 35.4005H1533.18M1533.18 1V35.4005M1533.18 35.4005H1544.19M1544.19 1V35.4005M1544.19 35.4005H1554.91M1554.91 1V35.4005M1554.91 35.4005H1564.9M1574.9 1V35.4005H1564.9M1565.34 1L1564.9 35.4005" stroke="#788ACB" stroke-width="3"/>
<path d="M1605.6 1L1629.94 22.3473V361.058H1605.6V1Z" fill="#132C6B"/>
<rect x="1519.28" y="322.071" width="35.3413" height="37.8405" fill="#132C6B"/>
<path d="M1421.14 166.727L1454.6 176.662V334.311H1421.14V166.727Z" fill="#132C6B"/>
<rect x="1059.49" y="166.727" width="361.648" height="167.584" fill="#788ACB"/>
<rect x="1199.16" y="148.93" width="139.136" height="185.381" fill="#203D93"/>
<rect x="1068.52" y="177.603" width="130.639" height="146.821" fill="#FFFAEC"/>
<rect x="1338.29" y="177.603" width="73.2854" height="146.821" fill="#FFFAEC"/>
<rect x="1240.05" y="187.489" width="90.2792" height="16.8078" fill="#FFFAEC"/>
<rect x="1204.47" y="228.026" width="90.2792" height="16.8078" fill="#FFFAEC"/>
<rect x="1205.53" y="177.603" width="43.5464" height="5.93218" fill="#FFFAEC"/>
<rect x="1267.13" y="177.603" width="63.1954" height="5.93218" fill="#FFFAEC"/>
<rect x="1240.05" y="269.057" width="90.2792" height="16.8078" fill="#FFFAEC"/>
<rect x="1204.47" y="269.057" width="20.1801" height="16.8078" fill="#FFFAEC"/>
<rect x="1205.53" y="259.17" width="43.5464" height="5.93219" fill="#FFFAEC"/>
<rect x="1267.13" y="259.17" width="63.1954" height="5.93219" fill="#FFFAEC"/>
<rect x="1204.47" y="218.633" width="43.0154" height="5.93218" fill="#FFFAEC"/>
<rect x="1266.07" y="218.633" width="63.1954" height="5.93218" fill="#FFFAEC"/>
<path d="M1069.05 197.376L1199.16 197.376" stroke="#203D93" stroke-width="5"/>
<path d="M1199.16 156.098L1338.29 156.345" stroke="#788ACB" stroke-width="5"/>
<path d="M1069.05 212.701L1199.16 212.701" stroke="#203D93" stroke-width="5"/>
<path d="M1069.05 228.026L1199.16 228.026" stroke="#203D93" stroke-width="5"/>
<path d="M1069.05 243.351L1199.16 243.351" stroke="#203D93" stroke-width="5"/>
<path d="M1069.05 258.675L1199.16 258.675" stroke="#203D93" stroke-width="5"/>
<path d="M1069.05 274L1199.16 274.001" stroke="#203D93" stroke-width="5"/>
<path d="M1069.05 289.325L1199.16 289.325" stroke="#203D93" stroke-width="5"/>
<path d="M1069.05 304.65L1199.16 304.65" stroke="#203D93" stroke-width="5"/>
<path d="M1338.29 197.376L1411.58 197.376" stroke="#203D93" stroke-width="5"/>
<path d="M1338.29 212.701L1411.58 212.701" stroke="#203D93" stroke-width="5"/>
<path d="M1338.29 228.026L1411.58 228.026" stroke="#203D93" stroke-width="5"/>
<path d="M1338.29 243.351L1411.58 243.351" stroke="#203D93" stroke-width="5"/>
<path d="M1338.29 258.675L1411.58 258.675" stroke="#203D93" stroke-width="5"/>
<path d="M1338.29 274L1411.58 274.001" stroke="#203D93" stroke-width="5"/>
<path d="M1338.29 289.325L1411.58 289.325" stroke="#203D93" stroke-width="5"/>
<path d="M1338.29 304.65L1411.58 304.65" stroke="#203D93" stroke-width="5"/>
<rect x="1205.53" y="304.65" width="43.5464" height="24.7174" fill="#FFFAEC"/>
<rect x="1289.44" y="304.65" width="40.8911" height="24.7174" fill="#FFFAEC"/>
<path d="M1109.94 177.603L1109.94 324.424" stroke="#788ACB" stroke-width="5"/>
<path d="M1157.21 177.603L1157.21 324.424" stroke="#788ACB" stroke-width="5"/>
<path d="M1374.94 177.603L1374.94 324.424" stroke="#788ACB" stroke-width="5"/>
<rect x="1252.79" y="300.695" width="32.3943" height="32.627" fill="#132C6B"/>
<path d="M1347.32 155.337L1338.29 148.93L1337.76 334.311H1347.32V155.337Z" fill="#788ACB"/>
<rect x="1229.96" y="277.955" width="182.683" height="8.89827" fill="#132C6B"/>
<path d="M1235.8 290.067L1229.96 286.853L1412.64 286.359V277.955L1415.83 281.168V290.067H1412.64H1235.8Z" fill="#788ACB"/>
<path d="M1280.08 286.643L1299.85 313.79H1260.32L1280.08 286.643Z" fill="#A8B7D3"/>
<path d="M1280.08 298.708L1306.75 334.661H1253.41L1280.08 298.708Z" fill="#A8B7D3"/>
<path d="M1280.08 316.318L1314.85 358.874H1245.32L1280.08 316.318Z" fill="#A8B7D3"/>
<rect x="1276.23" y="349.253" width="8.24882" height="27.3924" fill="#A8B7D3"/>
<path fill-rule="evenodd" clip-rule="evenodd" d="M1406.82 294.873H1401.71C1401.1 294.159 1400.24 292.73 1401.71 292.73H1406.82V294.873ZM1412.13 294.873H1407.02V292.73H1412.13C1413.6 292.73 1412.74 294.159 1412.13 294.873ZM1405.39 302.275H1408.66V360.712H1405.39V302.275Z" fill="#132C6B"/>
<path d="M1401.71 294.873L1400.57 295.85L1401.02 296.373H1401.71V294.873ZM1406.82 294.873V296.373H1408.32V294.873H1406.82ZM1406.82 292.73H1408.32V291.23H1406.82V292.73ZM1407.02 294.873H1405.52V296.373H1407.02V294.873ZM1412.13 294.873V296.373H1412.82L1413.27 295.85L1412.13 294.873ZM1407.02 292.73V291.23H1405.52V292.73H1407.02ZM1408.66 302.275H1410.16V300.775H1408.66V302.275ZM1405.39 302.275V300.775H1403.89V302.275H1405.39ZM1408.66 360.712V362.212H1410.16V360.712H1408.66ZM1405.39 360.712H1403.89V362.212H1405.39V360.712ZM1409.27 302.47V303.97H1409.93L1410.38 303.484L1409.27 302.47ZM1412.13 299.353L1413.23 300.367L1413.63 299.937V299.353H1412.13ZM1412.13 294.873V293.373H1410.63V294.873H1412.13ZM1404.57 302.47L1403.47 303.484L1403.91 303.97H1404.57V302.47ZM1401.71 299.353H1400.21V299.937L1400.61 300.367L1401.71 299.353ZM1401.71 294.873H1403.21V293.373H1401.71V294.873ZM1401.71 296.373H1406.82V293.373H1401.71V296.373ZM1401.71 291.23C1401.17 291.23 1400.38 291.356 1399.84 292.024C1399.29 292.7 1399.37 293.473 1399.47 293.884C1399.67 294.692 1400.23 295.452 1400.57 295.85L1402.85 293.896C1402.74 293.769 1402.62 293.61 1402.53 293.453C1402.48 293.376 1402.44 293.31 1402.42 293.256C1402.39 293.201 1402.39 293.177 1402.39 293.184C1402.39 293.186 1402.41 293.262 1402.4 293.387C1402.38 293.525 1402.32 293.721 1402.17 293.906C1401.87 294.283 1401.52 294.23 1401.71 294.23V291.23ZM1406.82 291.23H1401.71V294.23H1406.82V291.23ZM1408.32 294.873V292.73H1405.32V294.873H1408.32ZM1407.02 296.373H1412.13V293.373H1407.02V296.373ZM1405.52 292.73V294.873H1408.52V292.73H1405.52ZM1412.13 291.23H1407.02V294.23H1412.13V291.23ZM1413.27 295.85C1413.61 295.452 1414.18 294.692 1414.37 293.884C1414.47 293.473 1414.55 292.7 1414 292.024C1413.47 291.356 1412.68 291.23 1412.13 291.23V294.23C1412.32 294.23 1411.97 294.283 1411.67 293.906C1411.52 293.721 1411.46 293.525 1411.45 293.387C1411.43 293.262 1411.45 293.186 1411.45 293.184C1411.45 293.177 1411.45 293.201 1411.42 293.256C1411.4 293.31 1411.36 293.376 1411.32 293.453C1411.22 293.61 1411.1 293.769 1410.99 293.896L1413.27 295.85ZM1408.66 300.775H1405.39V303.775H1408.66V300.775ZM1410.16 360.712V302.275H1407.16V360.712H1410.16ZM1405.39 362.212H1408.66V359.212H1405.39V362.212ZM1403.89 302.275V360.712H1406.89V302.275H1403.89ZM1410.38 303.484L1413.23 300.367L1411.02 298.339L1408.16 301.456L1410.38 303.484ZM1413.63 299.353V294.873H1410.63V299.353H1413.63ZM1405.52 294.873V302.275H1408.52V294.873H1405.52ZM1409.27 300.97H1408.66V303.97H1409.27V300.97ZM1414.58 293.373H1412.13V296.373H1414.58V293.373ZM1412.13 291.23H1407.02V294.23H1412.13V291.23ZM1405.68 301.456L1402.82 298.339L1400.61 300.367L1403.47 303.484L1405.68 301.456ZM1403.21 299.353V294.873H1400.21V299.353H1403.21ZM1405.32 294.873V302.275H1408.32V294.873H1405.32ZM1404.57 303.97H1405.39V300.97H1404.57V303.97ZM1399.26 296.373H1401.71V293.373H1399.26V296.373ZM1401.71 294.23H1406.82V291.23H1401.71V294.23Z" fill="#132C6B"/>
<g filter="url(#filter6_f_1027_1093)">
<ellipse cx="1407.27" cy="296.183" rx="47.312" ry="45.2129" fill="#FFC139"/>
</g>
<g filter="url(#filter7_f_1027_1093)">
<ellipse cx="1408" cy="299.124" rx="9.16899" ry="6.24893" fill="#FCD85B"/>
</g>
<path d="M912.135 180L956.623 198.689V400H912.135V180Z" fill="#132C6B"/>
<path d="M1161.18 241.942L1200 255.369V400H1161.18V241.942Z" fill="#132C6B"/>
<rect x="773" y="223.074" width="139.135" height="176.926" fill="#A8B7D3"/>
<rect x="949.645" y="266.861" width="122.997" height="38.8026" fill="#203D93"/>
<rect x="934.379" y="305.664" width="122.997" height="94.3366" fill="#5F7BB3"/>
<rect x="1047.34" y="241.942" width="113.838" height="158.058" fill="#5F7BB3"/>
<rect x="808.328" y="194.952" width="103.806" height="28.123" fill="#132C6B"/>
<rect x="893.816" y="190.324" width="18.3187" height="32.7508" fill="#203D93"/>
<rect x="790.883" y="194.952" width="14.9515" height="121.252" transform="rotate(-90 790.883 194.952)" fill="#203D93"/>
<rect x="956.623" y="281.812" width="90.7211" height="16.7314" fill="#FFFAEC"/>
<rect x="943.539" y="320.971" width="104.242" height="30.2589" fill="#FFFAEC"/>
<rect x="773" y="244.434" width="139.135" height="54.11" fill="#FFFAEC"/>
<rect x="773" y="305.308" width="139.135" height="43.7864" fill="#FFFAEC"/>
<rect x="1072.64" y="332.718" width="88.5404" height="43.4304" fill="#FFFAEC"/>
<rect x="1059.99" y="290" width="88.5404" height="21.7152" fill="#FFFAEC"/>
<rect x="1059.99" y="255.469" width="88.5404" height="21.7152" fill="#FFFAEC"/>
<path d="M1161.18 332.718L1187.79 341.084V376.149H1161.18V332.718Z" fill="#FFFAEC"/>
<path d="M929.582 193.883L938.741 198.333V219.87H929.582V193.883Z" fill="#FFFAEC"/>
<path d="M943.539 201.003L950.081 204.234V219.871H943.539V201.003Z" fill="#FFFAEC"/>
<rect x="943.102" y="357.282" width="104.242" height="32.7508" fill="#FFFAEC"/>
<path d="M784.34 349.096V244.434" stroke="#788ACB" stroke-width="5"/>
<path d="M813.562 349.096V244.434" stroke="#788ACB" stroke-width="5"/>
<path d="M843.658 349.096V244.434" stroke="#788ACB" stroke-width="5"/>
<path d="M872.881 349.096V244.434" stroke="#788ACB" stroke-width="5"/>
<path d="M901.23 349.096V244.434" stroke="#788ACB" stroke-width="5"/>
<path d="M1059.12 311.715V255.469" stroke="#5F7BB3" stroke-width="5"/>
<path d="M1088.34 311.715V255.469" stroke="#5F7BB3" stroke-width="5"/>
<path d="M1118.44 311.715V255.469" stroke="#5F7BB3" stroke-width="5"/>
<path d="M1147.66 311.715V255.469" stroke="#5F7BB3" stroke-width="5"/>
<path d="M1072.64 383.269V327.023" stroke="#5F7BB3" stroke-width="5"/>
<path d="M1101.86 383.269V327.023" stroke="#5F7BB3" stroke-width="5"/>
<path d="M1131.96 383.269V327.023" stroke="#5F7BB3" stroke-width="5"/>
<path d="M1159.87 383.269V327.023" stroke="#5F7BB3" stroke-width="5"/>
<path d="M1174.7 376.149L1174.7 335.922" stroke="#132C6B" stroke-width="5"/>
<path d="M964.91 390.032V320.971" stroke="#5F7BB3" stroke-width="5"/>
<path d="M994.133 390.032V320.971" stroke="#5F7BB3" stroke-width="5"/>
<path d="M1024.23 390.032V320.971" stroke="#5F7BB3" stroke-width="5"/>
<path d="M972.762 298.543V281.812" stroke="#203D93" stroke-width="5"/>
<path d="M1001.98 298.543V281.812" stroke="#203D93" stroke-width="5"/>
<path d="M1032.08 298.543V281.812" stroke="#203D93" stroke-width="5"/>
<rect x="783.469" y="369.741" width="33.1481" height="30.2589" fill="#132C6B"/>
<rect x="826.211" y="369.741" width="33.1481" height="30.2589" fill="#132C6B"/>
<rect x="868.955" y="369.741" width="33.1481" height="30.2589" fill="#132C6B"/>
<path d="M1495.18 530C1343.51 530 1403.93 530 1299.22 530C1194.52 530 1242.48 530 1116 530C1116 451.023 1200.88 387 1305.59 387C1410.3 387 1495.18 451.023 1495.18 530Z" fill="#A8B7D3"/>
<path d="M1305.59 387.532C1518.55 387.532 1557 479.687 1557 530H1496.65C1486.34 434.578 1397.52 387.532 1305.59 387.532Z" fill="#132C6B"/>
<mask id="mask0_1027_1093" style="mask-type:alpha" maskUnits="userSpaceOnUse" x="1116" y="387" width="380" height="143">
<path d="M1495.18 530C1343.51 530 1403.93 530 1299.22 530C1194.52 530 1242.48 530 1116 530C1116 451.023 1200.88 387 1305.59 387C1410.3 387 1495.18 451.023 1495.18 530Z" fill="#7895CB"/>
</mask>
<g mask="url(#mask0_1027_1093)">
</g>
<mask id="mask1_1027_1093" style="mask-type:alpha" maskUnits="userSpaceOnUse" x="1116" y="387" width="380" height="143">
<path d="M1495.18 530C1343.51 530 1403.93 530 1299.22 530C1194.52 530 1242.48 530 1116 530C1116 451.023 1200.88 387 1305.59 387C1410.3 387 1495.18 451.023 1495.18 530Z" fill="#7895CB"/>
</mask>
<g mask="url(#mask1_1027_1093)">
<rect x="1120.71" y="427.933" width="27.6729" height="102.067" fill="#788ACB"/>
<rect x="1462.21" y="427.933" width="27.6729" height="102.067" fill="#788ACB"/>
<rect x="1167.81" y="376.368" width="27.6729" height="153.632" fill="#788ACB"/>
<rect x="1217.27" y="376.368" width="27.6729" height="153.632" fill="#788ACB"/>
<rect x="1266.73" y="376.368" width="27.6729" height="153.632" fill="#788ACB"/>
<rect x="1316.19" y="376.368" width="27.6729" height="153.632" fill="#788ACB"/>
<rect x="1365.64" y="376.368" width="27.6729" height="153.632" fill="#788ACB"/>
<rect x="1415.1" y="376.368" width="27.6729" height="153.632" fill="#788ACB"/>
<rect x="1240.23" y="463.019" width="130.121" height="66.9814" fill="#203D93"/>
<path d="M1126.32 482.954L1240.23 481.625V497.572H1120.71C1120.71 497.572 1122.78 491.725 1123.37 490.13C1123.96 488.535 1126.32 482.954 1126.32 482.954Z" fill="#FFFAEC"/>
<path d="M1370.36 481.625H1483.99C1483.99 481.625 1486.32 486.219 1487.52 489.333C1488.73 492.447 1490.17 497.572 1490.17 497.572H1370.36V481.625Z" fill="#FFFAEC"/>
<rect x="1223.75" y="430.06" width="14.7196" height="14.8848" fill="#FFFAEC"/>
<rect x="1297.94" y="430.06" width="14.7196" height="14.8848" fill="#FFFAEC"/>
<rect x="1372.12" y="430.06" width="14.7196" height="14.8848" fill="#FFFAEC"/>
</g>
<path d="M346.084 429C344.784 429 343.684 427.9 343.684 426.6C343.684 425.3 344.784 424.2 346.084 424.2C347.384 424.2 348.484 425.3 348.484 426.6C348.484 427.9 347.384 429 346.084 429ZM362.084 429C360.784 429 359.684 427.9 359.684 426.6C359.684 425.3 360.784 424.2 362.084 424.2C363.384 424.2 364.484 425.3 364.484 426.6C364.484 427.9 363.384 429 362.084 429ZM320.984 430.2C319.684 430.2 318.584 429.1 318.584 427.8C318.584 426.5 319.684 425.4 320.984 425.4C322.284 425.4 323.384 426.5 323.384 427.8C323.384 429.1 322.284 430.2 320.984 430.2ZM387.184 430.2C385.884 430.2 384.784 429.1 384.784 427.8C384.784 426.5 385.884 425.4 387.184 425.4C388.484 425.4 389.584 426.5 389.584 427.8C389.584 429.1 388.484 430.2 387.184 430.2ZM333.184 431.3C331.884 431.3 330.784 430.2 330.784 428.9C330.784 427.6 331.884 426.5 333.184 426.5C334.484 426.5 335.584 427.6 335.584 428.9C335.584 430.2 334.484 431.3 333.184 431.3ZM374.984 431.3C373.684 431.3 372.584 430.2 372.584 428.9C372.584 427.6 373.684 426.5 374.984 426.5C376.284 426.5 377.384 427.6 377.384 428.9C377.384 430.2 376.284 431.3 374.984 431.3ZM354.084 498.6C335.084 498.6 325.684 491.2 325.684 477.6C325.684 474.2 326.284 471.2 327.484 468.6L322.084 464.7L313.484 465.4L313.384 463.7L321.284 463.1L314.884 458.6L315.984 457.1L322.184 461.7L322.384 461.6L320.384 453.8L322.084 453.3L324.184 461.7L329.284 465.6C331.084 463.2 333.584 461.3 336.884 459.9C333.084 457 331.684 453.6 331.684 449C331.684 437.9 339.684 431.9 354.084 431.9C368.384 431.9 376.484 437.9 376.484 449C376.484 453.6 374.784 457.3 371.284 459.9C374.484 461.3 376.984 463.2 378.784 465.6L383.984 461.7L386.084 453.3L387.784 453.8L385.784 461.6L385.984 461.7L392.184 457.1L393.284 458.6L386.884 463.1L394.784 463.7L394.684 465.4L386.084 464.7L380.684 468.6C381.884 471.4 382.484 474.3 382.484 477.6C382.484 491.1 373.084 498.6 354.084 498.6ZM327.584 439.9C326.284 439.9 325.184 438.8 325.184 437.5C325.184 436.2 326.284 435.1 327.584 435.1C328.884 435.1 329.984 436.2 329.984 437.5C329.984 438.8 328.884 439.9 327.584 439.9ZM380.584 439.9C379.284 439.9 378.184 438.8 378.184 437.5C378.184 436.2 379.284 435.1 380.584 435.1C381.884 435.1 382.984 436.2 382.984 437.5C382.984 438.8 381.884 439.9 380.584 439.9ZM319.584 445.6C318.284 445.6 317.184 444.5 317.184 443.2C317.184 441.9 318.284 440.8 319.584 440.8C320.884 440.8 321.984 441.9 321.984 443.2C321.984 444.5 320.884 445.6 319.584 445.6ZM388.584 445.6C387.284 445.6 386.184 444.5 386.184 443.2C386.184 441.9 387.284 440.8 388.584 440.8C389.884 440.8 390.984 441.9 390.984 443.2C390.984 444.5 389.884 445.6 388.584 445.6ZM346.284 451.9C348.184 451.9 349.484 450.6 349.484 448.7C349.484 446.8 348.184 445.5 346.284 445.5C344.384 445.5 343.084 446.8 343.084 448.7C343.084 450.6 344.384 451.9 346.284 451.9ZM361.884 451.9C363.784 451.9 365.084 450.6 365.084 448.7C365.084 446.8 363.784 445.5 361.884 445.5C359.984 445.5 358.684 446.8 358.684 448.7C358.684 450.6 359.984 451.9 361.884 451.9ZM326.184 453.4C324.884 453.4 323.784 452.3 323.784 451C323.784 449.7 324.884 448.6 326.184 448.6C327.484 448.6 328.584 449.7 328.584 451C328.584 452.3 327.484 453.4 326.184 453.4ZM381.984 453.4C380.684 453.4 379.584 452.3 379.584 451C379.584 449.7 380.684 448.6 381.984 448.6C383.284 448.6 384.384 449.7 384.384 451C384.384 452.3 383.284 453.4 381.984 453.4ZM354.084 465.2C354.484 465.2 354.884 464.8 355.284 463.9C355.684 463 355.884 461.4 356.184 459.1L356.984 453.4H351.184C351.584 457.8 352.484 465.2 354.084 465.2Z" fill="white"/>
<path d="M556.514 395L594.677 439.918H518.351L556.514 395Z" fill="#5F7BB3"/>
<path d="M556.515 414.963L608.012 474.449H505.017L556.515 414.963Z" fill="#5F7BB3"/>
<path d="M556.515 444.099L623.645 514.511H489.385L556.515 444.099Z" fill="#5F7BB3"/>
<rect x="549.082" y="498.594" width="15.9278" height="45.3227" fill="#5F7BB3"/>
<path d="M55.1045 353L82.2346 384.422H27.9744L55.1045 353Z" fill="#788ACB"/>
<path d="M55.1068 366.965L91.7161 408.577H18.4975L55.1068 366.965Z" fill="#788ACB"/>
<path d="M55.1056 387.347L102.828 436.602H7.38275L55.1056 387.347Z" fill="#788ACB"/>
<rect x="49.8223" y="425.467" width="11.3231" height="31.7046" fill="#788ACB"/>
<path d="M473.268 258L490.631 279.51H455.905L473.268 258Z" fill="#A8B7D3"/>
<path d="M473.269 267.56L496.699 296.046H449.839L473.269 267.56Z" fill="#A8B7D3"/>
<path d="M473.268 281.513L503.81 315.231H442.725L473.268 281.513Z" fill="#A8B7D3"/>
<rect x="469.887" y="307.608" width="7.24677" height="21.7038" fill="#A8B7D3"/>
<path d="M1706.2 309.031L1724.06 331.559H1688.35L1706.2 309.031Z" fill="#788ACB"/>
<path d="M1706.2 319.044L1730.3 348.878H1682.11L1706.2 319.044Z" fill="#788ACB"/>
<path d="M1706.2 333.656L1737.61 368.97H1674.8L1706.2 333.656Z" fill="#788ACB"/>
<rect x="1702.72" y="360.988" width="7.45235" height="22.731" fill="#788ACB"/>
<path d="M255.759 404.52C254.095 404.52 252.687 403.112 252.687 401.448C252.687 399.784 254.095 398.376 255.759 398.376C257.423 398.376 258.831 399.784 258.831 401.448C258.831 403.112 257.423 404.52 255.759 404.52ZM276.239 404.52C274.575 404.52 273.167 403.112 273.167 401.448C273.167 399.784 274.575 398.376 276.239 398.376C277.903 398.376 279.311 399.784 279.311 401.448C279.311 403.112 277.903 404.52 276.239 404.52ZM223.631 406.056C221.967 406.056 220.559 404.648 220.559 402.984C220.559 401.32 221.967 399.912 223.631 399.912C225.295 399.912 226.703 401.32 226.703 402.984C226.703 404.648 225.295 406.056 223.631 406.056ZM308.367 406.056C306.703 406.056 305.295 404.648 305.295 402.984C305.295 401.32 306.703 399.912 308.367 399.912C310.031 399.912 311.439 401.32 311.439 402.984C311.439 404.648 310.031 406.056 308.367 406.056ZM239.247 407.464C237.583 407.464 236.175 406.056 236.175 404.392C236.175 402.728 237.583 401.32 239.247 401.32C240.911 401.32 242.319 402.728 242.319 404.392C242.319 406.056 240.911 407.464 239.247 407.464ZM292.751 407.464C291.087 407.464 289.679 406.056 289.679 404.392C289.679 402.728 291.087 401.32 292.751 401.32C294.415 401.32 295.823 402.728 295.823 404.392C295.823 406.056 294.415 407.464 292.751 407.464ZM265.999 493.608C241.679 493.608 229.647 484.136 229.647 466.728C229.647 462.376 230.415 458.536 231.951 455.208L225.039 450.216L214.031 451.112L213.903 448.936L224.015 448.168L215.823 442.408L217.231 440.488L225.167 446.376L225.423 446.248L222.863 436.264L225.039 435.624L227.727 446.376L234.255 451.368C236.559 448.296 239.759 445.864 243.983 444.072C239.119 440.36 237.327 436.008 237.327 430.12C237.327 415.912 247.567 408.232 265.999 408.232C284.303 408.232 294.671 415.912 294.671 430.12C294.671 436.008 292.495 440.744 288.015 444.072C292.111 445.864 295.311 448.296 297.615 451.368L304.271 446.376L306.959 435.624L309.135 436.264L306.575 446.248L306.831 446.376L314.767 440.488L316.175 442.408L307.983 448.168L318.095 448.936L317.967 451.112L306.959 450.216L300.047 455.208C301.583 458.792 302.351 462.504 302.351 466.728C302.351 484.008 290.319 493.608 265.999 493.608ZM232.079 418.472C230.415 418.472 229.007 417.064 229.007 415.4C229.007 413.736 230.415 412.328 232.079 412.328C233.743 412.328 235.151 413.736 235.151 415.4C235.151 417.064 233.743 418.472 232.079 418.472ZM299.919 418.472C298.255 418.472 296.847 417.064 296.847 415.4C296.847 413.736 298.255 412.328 299.919 412.328C301.583 412.328 302.991 413.736 302.991 415.4C302.991 417.064 301.583 418.472 299.919 418.472ZM221.839 425.768C220.175 425.768 218.767 424.36 218.767 422.696C218.767 421.032 220.175 419.624 221.839 419.624C223.503 419.624 224.911 421.032 224.911 422.696C224.911 424.36 223.503 425.768 221.839 425.768ZM310.159 425.768C308.495 425.768 307.087 424.36 307.087 422.696C307.087 421.032 308.495 419.624 310.159 419.624C311.823 419.624 313.231 421.032 313.231 422.696C313.231 424.36 311.823 425.768 310.159 425.768ZM256.015 433.832C258.447 433.832 260.111 432.168 260.111 429.736C260.111 427.304 258.447 425.64 256.015 425.64C253.583 425.64 251.919 427.304 251.919 429.736C251.919 432.168 253.583 433.832 256.015 433.832ZM275.983 433.832C278.415 433.832 280.079 432.168 280.079 429.736C280.079 427.304 278.415 425.64 275.983 425.64C273.551 425.64 271.887 427.304 271.887 429.736C271.887 432.168 273.551 433.832 275.983 433.832ZM230.287 435.752C228.623 435.752 227.215 434.344 227.215 432.68C227.215 431.016 228.623 429.608 230.287 429.608C231.951 429.608 233.359 431.016 233.359 432.68C233.359 434.344 231.951 435.752 230.287 435.752ZM301.711 435.752C300.047 435.752 298.639 434.344 298.639 432.68C298.639 431.016 300.047 429.608 301.711 429.608C303.375 429.608 304.783 431.016 304.783 432.68C304.783 434.344 303.375 435.752 301.711 435.752ZM265.999 450.856C266.511 450.856 267.023 450.344 267.535 449.192C268.047 448.04 268.303 445.992 268.687 443.048L269.711 435.752H262.287C262.799 441.384 263.951 450.856 265.999 450.856Z" fill="white"/>
<defs>
<filter id="filter0_f_1027_1093" x="1485.21" y="79.2292" width="346.115" height="341.617" filterUnits="userSpaceOnUse" color-interpolation-filters="sRGB">
<feFlood flood-opacity="0" result="BackgroundImageFix"/>
<feBlend mode="normal" in="SourceGraphic" in2="BackgroundImageFix" result="shape"/>
<feGaussianBlur stdDeviation="62.35" result="effect1_foregroundBlur_1027_1093"/>
</filter>
<filter id="filter1_f_1027_1093" x="1638.95" y="235.964" width="40.1441" height="34.1456" filterUnits="userSpaceOnUse" color-interpolation-filters="sRGB">
<feFlood flood-opacity="0" result="BackgroundImageFix"/>
<feBlend mode="normal" in="SourceGraphic" in2="BackgroundImageFix" result="shape"/>
<feGaussianBlur stdDeviation="5.35" result="effect1_foregroundBlur_1027_1093"/>
</filter>
<filter id="filter2_f_1027_1093" x="1428.21" y="219.984" width="360.795" height="355.614" filterUnits="userSpaceOnUse" color-interpolation-filters="sRGB">
<feFlood flood-opacity="0" result="BackgroundImageFix"/>
<feBlend mode="normal" in="SourceGraphic" in2="BackgroundImageFix" result="shape"/>
<feGaussianBlur stdDeviation="62.35" result="effect1_foregroundBlur_1027_1093"/>
</filter>
<filter id="filter3_f_1027_1093" x="1587.98" y="383.205" width="42.9879" height="36.0802" filterUnits="userSpaceOnUse" color-interpolation-filters="sRGB">
<feFlood flood-opacity="0" result="BackgroundImageFix"/>
<feBlend mode="normal" in="SourceGraphic" in2="BackgroundImageFix" result="shape"/>
<feGaussianBlur stdDeviation="5.35" result="effect1_foregroundBlur_1027_1093"/>
</filter>
<filter id="filter4_f_1027_1093" x="559.511" y="138.812" width="348.685" height="344.067" filterUnits="userSpaceOnUse" color-interpolation-filters="sRGB">
<feFlood flood-opacity="0" result="BackgroundImageFix"/>
<feBlend mode="normal" in="SourceGraphic" in2="BackgroundImageFix" result="shape"/>
<feGaussianBlur stdDeviation="62.35" result="effect1_foregroundBlur_1027_1093"/>
</filter>
<filter id="filter5_f_1027_1093" x="714.302" y="296.682" width="40.6422" height="34.484" filterUnits="userSpaceOnUse" color-interpolation-filters="sRGB">
<feFlood flood-opacity="0" result="BackgroundImageFix"/>
<feBlend mode="normal" in="SourceGraphic" in2="BackgroundImageFix" result="shape"/>
<feGaussianBlur stdDeviation="5.35" result="effect1_foregroundBlur_1027_1093"/>
</filter>
<filter id="filter6_f_1027_1093" x="1235.26" y="126.27" width="344.023" height="339.826" filterUnits="userSpaceOnUse" color-interpolation-filters="sRGB">
<feFlood flood-opacity="0" result="BackgroundImageFix"/>
<feBlend mode="normal" in="SourceGraphic" in2="BackgroundImageFix" result="shape"/>
<feGaussianBlur stdDeviation="62.35" result="effect1_foregroundBlur_1027_1093"/>
</filter>
<filter id="filter7_f_1027_1093" x="1388.14" y="282.175" width="39.7379" height="33.898" filterUnits="userSpaceOnUse" color-interpolation-filters="sRGB">
<feFlood flood-opacity="0" result="BackgroundImageFix"/>
<feBlend mode="normal" in="SourceGraphic" in2="BackgroundImageFix" result="shape"/>
<feGaussianBlur stdDeviation="5.35" result="effect1_foregroundBlur_1027_1093"/>
</filter>
</defs>
</svg>
