<svg width="725" height="752" viewBox="0 0 725 752" fill="none" xmlns="http://www.w3.org/2000/svg">
<path d="M124.923 69.1273C157.357 33.47 214.366 36.6264 242.666 75.6462L425.822 328.181L725 752H-250.163C-311.817 752 -347.813 682.453 -312.213 632.116L-50.2179 261.671L124.923 69.1273Z" fill="#F9FCFE"/>
<path d="M-146.952 312.955C-150.551 289.676 47.8616 112.822 147.518 27.3042C153.684 27.3042 178.915 29.9231 230.51 40.3985C295.003 53.4929 525.48 422.56 522.98 422.56C520.48 422.56 504.482 440.504 476.985 422.56C449.487 404.615 433.489 358.058 412.491 382.307C391.493 406.555 359.497 422.56 340.999 400.251C322.5 377.942 267.506 344.478 244.509 358.058C221.511 371.637 237.509 402.676 219.011 422.56C200.513 442.444 166.017 420.62 166.017 382.307C166.017 343.993 207.512 324.109 166.017 275.127C124.521 226.144 111.022 293.071 74.0261 344.478C37.0299 395.886 18.5318 505.49 -8.96539 469.602C-36.4626 433.714 -29.4633 348.843 -64.4597 324.109C-99.4561 299.376 -142.452 342.054 -146.952 312.955Z" fill="url(#paint0_linear_983_1479)"/>
<defs>
<linearGradient id="paint0_linear_983_1479" x1="188" y1="27.3042" x2="188" y2="476.684" gradientUnits="userSpaceOnUse">
<stop offset="0.265" stop-color="#EFF4FA"/>
<stop offset="1" stop-color="#C4EBFC"/>
</linearGradient>
</defs>
</svg>
