<svg width="1767" height="596" viewBox="0 0 1767 596" fill="none" xmlns="http://www.w3.org/2000/svg">
<path d="M580.054 50.7503C548.732 22.7353 500.62 25.4565 472.657 56.8246L291.446 260.101L0 596H926.232C991.412 596 1026.35 519.331 983.59 470.139L755.181 207.388L580.054 50.7503Z" fill="#F9FCFE"/>
<path d="M802.953 242.405C806.215 227.952 637.453 75.094 547.169 22C541.583 22 518.725 23.6259 471.982 30.1297C413.554 38.2594 204.754 267.397 207.018 267.397C209.283 267.397 223.777 278.537 248.688 267.397C273.599 256.256 288.093 227.35 307.116 242.405C326.139 257.46 355.126 267.397 371.885 253.546C388.643 239.695 393.384 220.71 414.219 229.141C435.053 237.572 442.542 255.051 459.3 267.397C476.059 279.742 497.788 248.777 513.728 229.141C532.792 205.655 548.578 253.546 572.317 253.546C618.352 253.546 580.233 187.003 613.749 218.919C647.266 250.836 664.025 318.885 688.936 296.603C713.847 274.322 697.316 234.276 729.021 218.919C760.726 203.563 798.877 260.471 802.953 242.405Z" fill="url(#paint0_linear_1027_1273)"/>
<path d="M1471.84 191.71C1498.16 176.132 1531.26 177.857 1555.83 196.087L1768.16 353.657L2086 596H1119.36C1046.59 596 1015.43 503.589 1073.34 459.521L1262.42 315.626L1471.84 191.71Z" fill="#F9FCFE"/>
<path d="M1210.32 340.89C1206.76 330.462 1390.81 220.179 1489.27 181.873C1495.36 181.873 1520.29 183.046 1571.27 187.738C1634.99 193.603 1862.7 358.92 1860.23 358.92C1857.76 358.92 1841.95 366.958 1814.79 358.92C1787.62 350.883 1771.81 330.028 1751.07 340.89C1730.32 351.752 1698.71 358.92 1680.43 348.928C1662.15 338.935 1656.98 325.237 1634.26 331.32C1611.54 337.403 1603.37 350.014 1585.1 358.92C1566.82 367.827 1543.12 345.486 1525.74 331.32C1504.95 314.375 1487.73 348.928 1461.84 348.928C1411.64 348.928 1453.21 300.918 1416.66 323.945C1380.11 346.972 1361.83 396.068 1334.66 379.992C1307.49 363.917 1325.52 335.024 1290.95 323.945C1256.37 312.866 1214.76 353.924 1210.32 340.89Z" fill="url(#paint1_linear_1027_1273)"/>
<defs>
<linearGradient id="paint0_linear_1027_1273" x1="510.495" y1="22" x2="510.495" y2="301" gradientUnits="userSpaceOnUse">
<stop offset="0.265" stop-color="#EFF4FA"/>
<stop offset="1" stop-color="#C4EBFC"/>
</linearGradient>
<linearGradient id="paint1_linear_1027_1273" x1="1529.26" y1="181.873" x2="1529.26" y2="383.164" gradientUnits="userSpaceOnUse">
<stop offset="0.265" stop-color="#EFF4FA"/>
<stop offset="1" stop-color="#C4EBFC"/>
</linearGradient>
</defs>
</svg>
