<svg width="103" height="88" viewBox="0 0 103 88" fill="none" xmlns="http://www.w3.org/2000/svg">
<path d="M75.6008 7.51509C75.6008 7.51509 69.4047 -1.33569 54.5937 0.173097C39.7827 1.68188 30.818 8.17068 20.5137 21.6628C13.113 31.3531 9.64137 44.4969 8.22194 57.1765C10.9149 54.0864 12.5334 52.906 15.4984 51.1957L4.89206 67.282C8.01541 67.1317 9.40819 66.8689 11.6752 66.2921L13.0729 70.7055C8.64273 75.7246 5.72213 78.1051 0 81.8422C7.31671 80.7232 11.2694 79.5217 18.0571 76.9214C16.701 81.0671 14.59 83.1799 8.22194 86.4618C25.0026 89.4102 32.7633 86.6587 44.0696 76.0676C45.4751 80.0762 43.0916 82.6287 38.602 87.2043C43.3766 86.8251 45.7554 86.0408 49.7428 84.152C48.4792 85.8035 47.5665 86.6329 45.5085 87.9055C66.8359 85.4761 75.0093 80.0816 83.7405 64.2297C89.5344 46.6582 89.5447 38.1978 76.5 21.5C86.737 17.8173 90.5 18.1156 102.733 18.1156C95.0218 10.5095 90.4563 9.80556 75.7312 7.5352L75.6008 7.51509Z" fill="#132C6B"/>
<ellipse cx="57.6614" cy="11.9484" rx="6.25712" ry="6.27802" fill="white"/>
<mask id="mask0_983_1873" style="mask-type:alpha" maskUnits="userSpaceOnUse" x="51" y="5" width="13" height="14">
<ellipse cx="57.6614" cy="11.9484" rx="6.25712" ry="6.27802" fill="white"/>
</mask>
<g mask="url(#mask0_983_1873)">
<path fill-rule="evenodd" clip-rule="evenodd" d="M58.9918 18.0002C61.7581 18.0002 64.0007 15.7576 64.0007 12.9913C64.0007 10.225 61.7581 7.98242 58.9918 7.98242C58.389 7.98242 57.8111 8.08889 57.2759 8.28406C58.2947 8.76352 59 9.7994 59 11C59 12.6569 57.6568 14 56 14C55.226 14 54.5204 13.7069 53.9883 13.2256C54.1106 15.8832 56.304 18.0002 58.9918 18.0002Z" fill="#2A2547"/>
</g>
</svg>
