<svg width="1920" height="564" viewBox="0 0 1920 564" fill="none" xmlns="http://www.w3.org/2000/svg">
<path d="M237.972 37.58C151.968 37.58 159.969 43.5609 -110.044 54.5266C-125.878 87.2576 -164.593 454.678 -142.192 512.896C-114.191 585.669 -197.577 526.354 140.88 542.803C479.337 559.251 342.83 542.803 564.341 542.803H1160.87C1530.89 542.803 1741.44 579.567 2024.41 556.261C2103.07 549.782 2193.38 596.297 2194.94 482.688C2198.04 255.435 2084.89 -20.4066 2007.55 1.19357C1891.55 33.5921 1895.55 38.5769 1730.04 21.1315C1564.53 3.68601 1463.53 29.1065 1328.52 37.58C1193.52 46.0535 952.505 54.5266 804.498 54.5266C656.491 54.5266 649.991 46.0531 544.486 54.5266C438.981 63.0001 323.976 37.58 237.972 37.58Z" fill="url(#paint0_linear_983_1483)"/>
<defs>
<linearGradient id="paint0_linear_983_1483" x1="1026.89" y1="-1.52077e-07" x2="1022.89" y2="540.311" gradientUnits="userSpaceOnUse">
<stop offset="0.301" stop-color="white"/>
<stop offset="1" stop-color="#C5DFF8"/>
</linearGradient>
</defs>
</svg>
