<svg width="18" height="10" viewBox="0 0 18 10" fill="white" xmlns="http://www.w3.org/2000/svg">
<path d="M12.008 9.44L14.92 5.776C14.664 5.712 14.44 5.62133 14.248 5.504C14.0667 5.376 13.9013 5.24267 13.752 5.104C13.6027 4.96533 13.4587 4.832 13.32 4.704C13.1813 4.576 13.032 4.46933 12.872 4.384C12.7227 4.29867 12.552 4.256 12.36 4.256C12.136 4.256 11.9387 4.32533 11.768 4.464C11.608 4.60267 11.448 4.77867 11.288 4.992C11.1387 5.19467 10.968 5.40267 10.776 5.616C10.584 5.81867 10.3547 5.98933 10.088 6.128C9.82133 6.26667 9.48533 6.336 9.08 6.336C8.68533 6.336 8.34933 6.26667 8.072 6.128C7.79467 5.98933 7.56 5.81867 7.368 5.616C7.176 5.40267 7 5.19467 6.84 4.992C6.68 4.77867 6.52 4.60267 6.36 4.464C6.18933 4.32533 5.992 4.256 5.768 4.256C5.544 4.256 5.352 4.32533 5.192 4.464C5.032 4.60267 4.88267 4.77867 4.744 4.992C4.59467 5.19467 4.43467 5.40267 4.264 5.616C4.08267 5.81867 3.864 5.98933 3.608 6.128C3.34133 6.26667 3.00533 6.336 2.6 6.336C1.98133 6.336 1.48 6.144 1.096 5.76C0.712 5.376 0.52 4.87467 0.52 4.256V3.616H1.88V4.256C1.88 4.544 1.94933 4.76267 2.088 4.912C2.216 5.06133 2.39733 5.136 2.632 5.136C2.84533 5.136 3.032 5.06667 3.192 4.928C3.352 4.78933 3.50667 4.61867 3.656 4.416C3.79467 4.20267 3.95467 3.99467 4.136 3.792C4.31733 3.57867 4.54133 3.40267 4.808 3.264C5.07467 3.12533 5.40533 3.056 5.8 3.056C6.19467 3.056 6.53067 3.12533 6.808 3.264C7.07467 3.40267 7.304 3.57867 7.496 3.792C7.688 3.99467 7.864 4.20267 8.024 4.416C8.17333 4.61867 8.33333 4.78933 8.504 4.928C8.664 5.06667 8.856 5.136 9.08 5.136C9.29333 5.136 9.48 5.06667 9.64 4.928C9.81067 4.78933 9.97067 4.61867 10.12 4.416C10.28 4.20267 10.456 3.99467 10.648 3.792C10.84 3.57867 11.0747 3.40267 11.352 3.264C11.6293 3.12533 11.9653 3.056 12.36 3.056C12.7653 3.056 13.096 3.11467 13.352 3.232C13.6187 3.33867 13.8427 3.47733 14.024 3.648C14.2053 3.808 14.3707 3.97333 14.52 4.144C14.6693 4.304 14.824 4.44267 14.984 4.56C15.144 4.66667 15.336 4.72 15.56 4.72H15.72H15.816L12.008 0H13.704L17.4 4.72L13.688 9.44H12.008Z" fill="white"/>
</svg>