<svg width="20" height="20" viewBox="0 0 20 20" fill="none" xmlns="http://www.w3.org/2000/svg">
<path d="M4.16699 7.50033C4.16699 4.75047 4.16699 3.37553 5.02127 2.52127C5.87553 1.66699 7.25047 1.66699 10.0003 1.66699C12.7502 1.66699 14.1251 1.66699 14.9794 2.52127C15.8337 3.37553 15.8337 4.75047 15.8337 7.50033V12.5003C15.8337 15.2502 15.8337 16.6251 14.9794 17.4794C14.1251 18.3337 12.7502 18.3337 10.0003 18.3337C7.25047 18.3337 5.87553 18.3337 5.02127 17.4794C4.16699 16.6251 4.16699 15.2502 4.16699 12.5003V7.50033Z" stroke="#34DF29" stroke-width="1.5" stroke-linecap="round"/>
<path d="M9.16699 15.833H10.8337" stroke="#34DF29" stroke-width="1.5" stroke-linecap="round" stroke-linejoin="round"/>
<path d="M7.5 1.66699L7.57417 2.11201C7.7349 3.0764 7.81527 3.5586 8.14599 3.85203C8.491 4.15811 8.98008 4.16699 10 4.16699C11.0199 4.16699 11.509 4.15811 11.854 3.85203C12.1847 3.5586 12.2651 3.0764 12.4258 2.11201L12.5 1.66699" stroke="#34DF29" stroke-width="1.5" stroke-linejoin="round"/>
</svg>
