<svg width="20" height="20" viewBox="0 0 20 20" fill="none" xmlns="http://www.w3.org/2000/svg">
<path d="M14.583 1.66699H6.66634C4.82539 1.66699 3.33301 3.15938 3.33301 5.00033V15.0003C3.33301 16.8413 4.82539 18.3337 6.66634 18.3337H14.583C16.424 18.3337 17.9163 16.8413 17.9163 15.0003V5.00033C17.9163 3.15938 16.424 1.66699 14.583 1.66699Z" stroke="#34DF29" stroke-width="1.5"/>
<path d="M8.825 11.4503C8.30104 11.8013 6.92717 12.5181 7.76395 13.4149C8.17271 13.853 8.628 14.1663 9.20033 14.1663H12.4663C13.0387 14.1663 13.494 13.853 13.9027 13.4149C14.7395 12.5181 13.3657 11.8013 12.8417 11.4503C11.6129 10.6272 10.0537 10.6272 8.825 11.4503Z" stroke="#34DF29" stroke-width="1.5"/>
<path d="M12.5003 7.49967C12.5003 8.42017 11.7542 9.16634 10.8337 9.16634C9.91316 9.16634 9.16699 8.42017 9.16699 7.49967C9.16699 6.5792 9.91316 5.83301 10.8337 5.83301C11.7542 5.83301 12.5003 6.5792 12.5003 7.49967Z" stroke="#34DF29" stroke-width="1.5"/>
<path d="M4.16634 5H2.08301M4.16634 10H2.08301M4.16634 15H2.08301" stroke="#34DF29" stroke-width="1.5" stroke-linecap="round" stroke-linejoin="round"/>
</svg>
