<svg width="20" height="20" viewBox="0 0 20 20" fill="none" xmlns="http://www.w3.org/2000/svg">
<path d="M1.66699 6.66667C1.66699 7.78482 8.41274 10.8333 9.98874 10.8333C11.5647 10.8333 18.3105 7.78482 18.3105 6.66667C18.3105 5.54852 11.5647 2.5 9.98874 2.5C8.41274 2.5 1.66699 5.54852 1.66699 6.66667Z" stroke="#34DF29" stroke-width="1.5" stroke-linecap="round" stroke-linejoin="round"/>
<path d="M4.99512 9.16699L5.19938 13.8586C5.20346 13.9525 5.21362 14.0466 5.24084 14.1366C5.32498 14.4147 5.48007 14.6675 5.71667 14.8373C7.56788 16.1657 12.4084 16.1657 14.2596 14.8373C14.4963 14.6675 14.6513 14.4147 14.7355 14.1366C14.7627 14.0466 14.7728 13.9525 14.777 13.8586L14.9812 9.16699" stroke="#34DF29" stroke-width="1.5" stroke-linecap="round" stroke-linejoin="round"/>
<path d="M17.0615 7.91699V13.7503M17.0615 13.7503C16.4015 14.9556 16.1096 15.6013 15.8132 16.667C15.7489 17.0462 15.8 17.2372 16.0613 17.4069C16.1675 17.4758 16.295 17.5003 16.4215 17.5003H17.6886C17.8233 17.5003 17.9592 17.4722 18.0701 17.3957C18.3131 17.2282 18.3756 17.0445 18.3097 16.667C18.0499 15.6775 17.7189 15.001 17.0615 13.7503Z" stroke="#34DF29" stroke-width="1.5" stroke-linecap="round" stroke-linejoin="round"/>
</svg>
