<svg width="24" height="24" viewBox="0 0 24 24" fill="none" xmlns="http://www.w3.org/2000/svg">
<path d="M22 6.75H19.2111C18.61 6.75 18.3094 6.75 18.026 6.66418C17.7426 6.57837 17.4925 6.41165 16.9923 6.0782C16.2421 5.57803 15.3862 5.00745 14.961 4.87872C14.5359 4.75 14.085 4.75 13.1833 4.75C11.9571 4.75 11.1667 4.75 10.6154 4.97836C10.0641 5.20672 9.63056 5.64027 8.76347 6.50736L8.00039 7.27044C7.80498 7.46585 7.70727 7.56356 7.64695 7.66002C7.42335 8.01761 7.44813 8.47705 7.70889 8.80851C7.77924 8.89793 7.88689 8.98456 8.10218 9.15782C8.89796 9.79824 10.0452 9.73432 10.7658 9.00942L12 7.76786H13L19 13.8036C19.5523 14.3592 19.5523 15.2599 19 15.8155C18.4477 16.3711 17.5523 16.3711 17 15.8155L16.5 15.3125M16.5 15.3125L13.5 12.2947M16.5 15.3125C17.0523 15.8681 17.0523 16.7689 16.5 17.3244C15.9477 17.88 15.0523 17.88 14.5 17.3244L13.5 16.3185M13.5 16.3185C14.0523 16.874 14.0523 17.7748 13.5 18.3304C12.9477 18.8859 12.0523 18.8859 11.5 18.3304L10 16.8214M13.5 16.3185L11.5 14.3185M10 16.8214L9.5 16.3185M10 16.8214C10.5523 17.377 10.5523 18.2778 10 18.8334C9.44772 19.3889 8.55229 19.3889 8 18.8334L5.17637 15.9509C4.59615 15.3586 4.30604 15.0625 3.93435 14.9062C3.56266 14.75 3.14808 14.75 2.31894 14.75H2" stroke="white" stroke-width="1.25" stroke-linecap="round" stroke-linejoin="round"/>
<path d="M22 14.75H19.5" stroke="white" stroke-width="1.25" stroke-linecap="round"/>
<path d="M8.5 6.75H2" stroke="white" stroke-width="1.25" stroke-linecap="round"/>
</svg>
