<svg width="20" height="20" viewBox="0 0 20 20" fill="none" xmlns="http://www.w3.org/2000/svg">
<path d="M10 13.7497V12.083" stroke="#34DF29" stroke-width="1.5" stroke-linecap="round"/>
<path d="M3.55618 15.7039C3.74358 17.0958 4.89645 18.1863 6.29939 18.2508C7.4799 18.305 8.6791 18.3333 9.99968 18.3333C11.3203 18.3333 12.5194 18.305 13.6999 18.2508C15.1029 18.1863 16.2558 17.0958 16.4432 15.7039C16.5654 14.7956 16.6663 13.8647 16.6663 12.9167C16.6663 11.9687 16.5654 11.0378 16.4432 10.1294C16.2558 8.7375 15.1029 7.64707 13.6999 7.58257C12.5194 7.52831 11.3203 7.5 9.99968 7.5C8.6791 7.5 7.4799 7.52831 6.29939 7.58257C4.89645 7.64707 3.74358 8.7375 3.55618 10.1294C3.43388 11.0378 3.33301 11.9687 3.33301 12.9167C3.33301 13.8647 3.43388 14.7956 3.55618 15.7039Z" stroke="#34DF29" stroke-width="1.5"/>
<path d="M6.25 7.50033V5.41699C6.25 3.34593 7.92893 1.66699 10 1.66699C12.0711 1.66699 13.75 3.34593 13.75 5.41699V7.50033" stroke="#34DF29" stroke-width="1.5" stroke-linecap="round" stroke-linejoin="round"/>
</svg>
