<svg width="24" height="24" viewBox="0 0 24 24" fill="none" xmlns="http://www.w3.org/2000/svg">
<g clip-path="url(#clip0_5634_2732)">
<path d="M7.18007 15.2964C5.92249 16.0335 2.62521 17.5386 4.63348 19.422C5.6145 20.342 6.70711 21 8.08078 21H15.9192C17.2929 21 18.3855 20.342 19.3665 19.422C21.3748 17.5386 18.0775 16.0335 16.8199 15.2964C13.871 13.5679 10.1291 13.5679 7.18007 15.2964Z" stroke="white" stroke-width="1.5" stroke-linecap="round" stroke-linejoin="round"/>
<path d="M16 7C16 9.20914 14.2092 11 12 11C9.79086 11 8 9.20914 8 7C8 4.79086 9.79086 3 12 3C14.2092 3 16 4.79086 16 7Z" stroke="white" stroke-width="1.5"/>
</g>
<defs>
<clipPath id="clip0_5634_2732">
<rect width="24" height="24" fill="white"/>
</clipPath>
</defs>
</svg>
