<svg width="20" height="20" viewBox="0 0 20 20" fill="none" xmlns="http://www.w3.org/2000/svg">
<path d="M5.98307 12.7473C4.93509 13.3616 2.18735 14.6158 3.86091 16.1854C4.67843 16.952 5.58893 17.5003 6.73366 17.5003H13.2657C14.4104 17.5003 15.321 16.952 16.1384 16.1854C17.812 14.6158 15.0643 13.3616 14.0163 12.7473C11.5588 11.3069 8.44057 11.3069 5.98307 12.7473Z" stroke="#34DF29" stroke-width="1.25" stroke-linecap="round" stroke-linejoin="round"/>
<path d="M13.3337 5.83333C13.3337 7.67428 11.8413 9.16667 10.0003 9.16667C8.15938 9.16667 6.66699 7.67428 6.66699 5.83333C6.66699 3.99239 8.15938 2.5 10.0003 2.5C11.8413 2.5 13.3337 3.99239 13.3337 5.83333Z" stroke="#34DF29" stroke-width="1.25"/>
</svg>
