<svg width="20" height="22" viewBox="0 0 20 22" fill="none" xmlns="http://www.w3.org/2000/svg">
<path d="M19 10.1833V7.28029C19 5.64029 19 4.82028 18.5959 4.28529C18.1918 3.75029 17.2781 3.49056 15.4507 2.9711C14.2022 2.6162 13.1016 2.18863 12.2223 1.79829C11.0234 1.2661 10.424 1 10 1C9.576 1 8.9766 1.2661 7.77771 1.79829C6.89839 2.18863 5.79784 2.61619 4.54933 2.9711C2.72193 3.49056 1.80822 3.75029 1.40411 4.28529C1 4.82028 1 5.64029 1 7.28029V10.1833C1 15.8085 6.06277 19.1835 8.594 20.5194C9.2011 20.8398 9.5046 21 10 21C10.4954 21 10.7989 20.8398 11.406 20.5194C13.9372 19.1835 19 15.8085 19 10.1833Z" stroke="#34DF29" stroke-width="1.5" stroke-linecap="round"/>
</svg>
