<?xml version="1.0" encoding="UTF-8"?>
<svg version="1.1" xmlns="http://www.w3.org/2000/svg" width="512" height="512">
<path d="M0 0 C0.98130697 -0.04081269 1.96261394 -0.08162537 2.97365749 -0.12367481 C6.25504723 -0.2541156 9.53664715 -0.35634813 12.81906128 -0.45750427 C15.17745193 -0.54318673 17.53580915 -0.62979385 19.89413452 -0.71725464 C41.56629475 -1.48702164 63.25139163 -1.90534608 84.93425179 -2.23690891 C87.84736606 -2.28226293 90.76046526 -2.32847495 93.67355347 -2.37547302 C94.39736497 -2.38711347 95.12117647 -2.39875392 95.86692165 -2.4107471 C106.76151611 -2.59132733 117.64212234 -2.93914536 128.52902222 -3.38035583 C145.32456497 -4.05200733 162.11028272 -4.47688634 178.9201355 -4.47874451 C179.5955961 -4.47923768 180.27105671 -4.47973086 180.96698582 -4.48023897 C213.11882311 -4.46706031 241.66544961 -3.61624426 265.66204834 19.95462036 C292.23155972 47.47813419 292.23155972 47.47813419 292.22007751 62.15238953 C292.22135915 63.13500537 292.22135915 63.13500537 292.22266668 64.13747203 C292.22431971 66.34241296 292.21880301 68.54727856 292.21334839 70.75221252 C292.21306645 72.32884214 292.21322438 73.9054719 292.21379089 75.48210144 C292.21407862 79.77111385 292.20818591 84.06009847 292.20121694 88.3491044 C292.19497926 92.82810737 292.19437927 97.30711092 292.19319153 101.78611755 C292.19007944 110.27172288 292.18186769 118.75731537 292.17184204 127.24291503 C292.16067712 136.90178435 292.15516949 146.56065427 292.1501466 156.21952844 C292.13968498 176.09224671 292.12208789 195.96495342 292.099823 215.83766174 C293.5501646 215.6976077 294.99993365 215.55161535 296.44943237 215.40309143 C297.66052673 215.28209076 297.66052673 215.28209076 298.89608765 215.15864563 C301.19225997 214.92269846 301.19225997 214.92269846 303.506073 213.79078674 C308.5000816 211.955639 314.16683267 212.55754219 319.43966675 212.62281799 C324.42828307 212.67254576 324.42828307 212.67254576 328.72872925 210.52320862 C329.92577302 209.01683702 331.0176748 207.42858111 332.099823 205.83766174 C335.16013747 203.8509908 337.59527686 203.5853163 341.2038269 203.57887268 C342.21812775 203.57256836 343.23242859 203.56626404 344.27746582 203.55976868 C345.91043106 203.56584137 345.91043106 203.56584137 347.5763855 203.57203674 C348.69798065 203.57012329 349.81957581 203.56820984 350.97515869 203.5662384 C353.34386418 203.56487818 355.71257717 203.56856325 358.08126831 203.57691956 C361.71783053 203.58764113 365.35390096 203.57700821 368.990448 203.56422424 C371.28992826 203.56554547 373.58940821 203.56810711 375.8888855 203.57203674 C376.98157745 203.56798828 378.07426941 203.56393982 379.20007324 203.55976868 C380.20806976 203.566073 381.21606628 203.57237732 382.25460815 203.57887268 C383.14411163 203.58046387 384.03361511 203.58205505 384.95007324 203.58369446 C387.099823 203.83766174 387.099823 203.83766174 389.099823 205.83766174 C389.65725543 211.07752661 389.65725543 211.07752661 387.724823 213.71266174 C386.099823 214.83766174 386.099823 214.83766174 384.099823 214.83766174 C384.099823 261.36766174 384.099823 307.89766174 384.099823 355.83766174 C385.419823 356.16766174 386.739823 356.49766174 388.099823 356.83766174 C389.099823 357.83766174 389.099823 357.83766174 389.412323 360.71266174 C389.099823 363.83766174 389.099823 363.83766174 387.36564636 365.50871277 C384.82644576 366.99800275 383.4514842 367.21699989 380.53414917 367.22584534 C379.63609055 367.23530182 378.73803192 367.2447583 377.8127594 367.25450134 C376.36737541 367.2453923 376.36737541 367.2453923 374.89279175 367.23609924 C373.89403519 367.23896942 372.89527863 367.2418396 371.86625671 367.24479675 C369.75392083 367.24683715 367.64156604 367.24130902 365.52926636 367.22877502 C362.30951173 367.21277203 359.09102209 367.22859876 355.87130737 367.24781799 C353.81596608 367.24583457 351.76062556 367.24198884 349.70529175 367.23609924 C348.74777512 367.24217194 347.79025848 367.24824463 346.8037262 367.25450134 C339.98503786 367.1834493 335.01936503 366.30804346 329.662323 361.77516174 C328.099823 359.83766174 328.099823 359.83766174 328.099823 357.83766174 C326.8932605 357.86086487 325.686698 357.88406799 324.443573 357.90797424 C322.82899591 357.9267484 321.21441206 357.94494682 319.599823 357.96266174 C318.80833862 357.97941956 318.01685425 357.99617737 317.2013855 358.01344299 C304.44923033 358.11796886 304.44923033 358.11796886 299.974823 353.77516174 C299.046698 352.81609924 299.046698 352.81609924 298.099823 351.83766174 C296.11132287 351.44145683 294.11012041 351.10188783 292.099823 350.83766174 C292.10258838 351.39296601 292.10535376 351.94827028 292.10820293 352.52040195 C292.17454022 366.0503956 292.22394949 379.58036063 292.25525951 393.11048222 C292.27091032 399.65363694 292.2921383 406.19667422 292.32614136 412.73976135 C292.35875509 419.05508007 292.37668042 425.37028586 292.38445473 431.6856823 C292.38999457 434.09420486 292.40081249 436.5027213 292.41701317 438.91119576 C292.43881368 442.28664089 292.44178875 445.66162034 292.44039917 449.03712463 C292.45657791 450.52821999 292.45657791 450.52821999 292.4730835 452.04943848 C292.44495822 458.36989897 291.88759779 463.59977747 287.599823 468.57984924 C283.33966379 471.79715698 280.50154233 472.9611019 275.22119522 472.97188282 C274.20935425 472.97634066 273.19751328 472.98079851 272.15501046 472.98539144 C271.04014882 472.98520708 269.92528718 472.98502271 268.77664185 472.98483276 C267.59478735 472.98850945 266.41293285 472.99218614 265.19526458 472.99597424 C261.90908653 473.00510283 258.62295843 473.00971115 255.33677244 473.01236355 C251.79472801 473.01626634 248.25269804 473.02584466 244.71066284 473.03457642 C236.15415313 473.05434092 227.59764224 473.06440674 219.0411154 473.07330421 C215.01240246 473.07768688 210.98369084 473.08305372 206.95497894 473.08829308 C193.56405536 473.10530488 180.17313259 473.11979951 166.78219986 473.12704182 C163.30701954 473.12895173 159.83183923 473.13087206 156.35665894 473.13282776 C155.49291333 473.1333115 154.62916772 473.13379524 153.73924801 473.13429364 C139.744097 473.14259568 125.74903142 473.16793572 111.75391772 473.20040844 C97.38793957 473.23347015 83.02200485 473.25148975 68.65598845 473.25468606 C60.58895683 473.25685191 52.5220498 473.26561164 44.45505524 473.29114723 C37.58551319 473.31284207 30.71612601 473.32091067 23.84655359 473.31118045 C20.3418333 473.30663224 16.83743261 473.30855175 13.33275604 473.32794189 C9.53187887 473.3455667 5.73181567 473.33859983 1.93093872 473.32540894 C0.82499996 473.33637818 -0.28093879 473.34734743 -1.42039084 473.35864908 C-7.80369825 473.30506796 -11.7241324 472.67165054 -16.900177 468.83766174 C-21.73262135 462.84222185 -21.44911044 457.14013563 -21.35427856 449.66017151 C-21.35486267 448.44970657 -21.35544678 447.23924164 -21.35604858 445.99209595 C-21.35374757 442.6905651 -21.33375888 439.39004823 -21.30575275 436.08869672 C-21.28066132 432.63207852 -21.27839104 429.17544522 -21.27365112 425.71875 C-21.26124395 419.18106641 -21.22845332 412.643652 -21.18825316 406.10608667 C-21.14346476 398.65991308 -21.12153072 391.21372628 -21.10147142 383.76745141 C-21.05971836 368.45736591 -20.98941075 353.14754861 -20.900177 337.83766174 C-22.48427694 337.95253922 -24.06746663 338.08000683 -25.650177 338.21266174 C-26.53189575 338.28227112 -27.4136145 338.35188049 -28.322052 338.42359924 C-30.90743127 338.83882682 -32.61277972 339.61339881 -34.900177 340.83766174 C-37.29446411 341.06129456 -37.29446411 341.06129456 -39.92752075 341.04078674 C-41.36321411 341.05818909 -41.36321411 341.05818909 -42.82791138 341.07594299 C-44.8305156 341.08374028 -46.83324215 341.07598736 -48.83572388 341.05250549 C-51.636709 341.10148035 -54.16796592 341.21193887 -56.900177 341.83766174 C-59.6492195 344.64275935 -59.6492195 344.64275935 -61.900177 347.83766174 C-68.15373666 350.83338419 -73.51894004 351.28090696 -80.384552 351.23609924 C-81.36256775 351.23896942 -82.3405835 351.2418396 -83.34823608 351.24479675 C-85.40217676 351.24682743 -87.45613721 351.24136773 -89.51004028 351.22877502 C-92.65484543 351.21263779 -95.79837894 351.22869342 -98.94314575 351.24781799 C-100.94445067 351.24583674 -102.94575479 351.24199551 -104.947052 351.23609924 C-106.35491974 351.24520828 -106.35491974 351.24520828 -107.79122925 351.25450134 C-114.22336156 351.18497158 -114.22336156 351.18497158 -117.49880981 349.50416565 C-118.900177 347.83766174 -118.900177 347.83766174 -119.275177 344.77516174 C-118.900177 341.83766174 -118.900177 341.83766174 -116.900177 339.83766174 C-115.910177 339.83766174 -114.920177 339.83766174 -113.900177 339.83766174 C-113.93731641 321.50522655 -113.99713667 303.17301314 -114.08407974 284.84074688 C-114.12391666 276.32905441 -114.15628542 267.81745501 -114.1711731 259.30567932 C-114.1841656 251.88820435 -114.21106842 244.47093378 -114.25479007 237.05357391 C-114.27745931 233.12481448 -114.29308444 229.19630767 -114.29206085 225.26747704 C-114.29131743 221.57127937 -114.30913865 217.87564126 -114.34134483 214.17958832 C-114.35395706 212.17275372 -114.34675506 210.16582545 -114.33903503 208.15896606 C-114.35990425 206.37318649 -114.35990425 206.37318649 -114.38119507 204.55133057 C-114.38488224 203.51431346 -114.38856941 202.47729635 -114.39236832 201.40885448 C-115.0381648 198.13898676 -116.21107028 197.63981057 -118.900177 195.83766174 C-119.275177 192.77516174 -119.275177 192.77516174 -118.900177 189.83766174 C-116.39015957 187.32764431 -115.55792188 187.57708806 -112.08670044 187.5471344 C-111.0851593 187.53437469 -110.08361816 187.52161499 -109.05172729 187.50846863 C-107.96530945 187.50624298 -106.8788916 187.50401733 -105.759552 187.50172424 C-104.08714447 187.49173904 -104.08714447 187.49173904 -102.38095093 187.48155212 C-100.01709649 187.47141028 -97.65321333 187.46673557 -95.28933716 187.46705627 C-91.67866427 187.46269614 -88.06922612 187.42642702 -84.45877075 187.38844299 C-82.16320202 187.38257254 -79.86762747 187.37860468 -77.572052 187.37672424 C-75.95457062 187.35516769 -75.95457062 187.35516769 -74.30441284 187.33317566 C-68.33790586 187.36937688 -64.52472249 187.65866742 -59.900177 191.83766174 C-59.38237671 192.57049377 -58.86457642 193.30332581 -58.33108521 194.05836487 C-57.0305049 196.05914298 -57.0305049 196.05914298 -54.63528442 196.32008362 C-53.33361328 196.31331604 -53.33361328 196.31331604 -52.00564575 196.30641174 C-51.04980591 196.32059143 -50.09396606 196.33477112 -49.10916138 196.34938049 C-47.10655703 196.34161344 -45.10395286 196.33380148 -43.10134888 196.32594299 C-36.48686159 196.42367215 -32.69388374 197.043955 -27.900177 201.83766174 C-25.57199737 202.20526905 -23.2383385 202.54007755 -20.900177 202.83766174 C-20.90386417 201.85975142 -20.90755135 200.88184111 -20.91135025 199.87429714 C-21.00014805 176.07970922 -21.06587982 152.28514278 -21.10742569 128.49042416 C-21.12805098 116.98347014 -21.15617108 105.47662558 -21.20193481 93.96974182 C-21.24180343 83.94035235 -21.26761005 73.91104215 -21.27653098 63.88157564 C-21.28174565 58.57101508 -21.29400157 53.26068129 -21.32309723 47.95019341 C-21.35026658 42.95074161 -21.35861885 37.95160983 -21.35260773 32.95209122 C-21.35370728 31.11831104 -21.36165207 29.28452005 -21.3769989 27.45080376 C-21.39695087 24.94365865 -21.39209765 22.43771591 -21.38119507 19.93054199 C-21.39284643 19.20776076 -21.4044978 18.48497952 -21.41650224 17.74029583 C-21.35553255 12.5401928 -20.23464811 8.77892138 -16.900177 4.83766174 C-11.41992765 0.66321327 -6.7565332 0.18223175 0 0 Z " fill="#040303" transform="translate(120.90017700195313,19.162338256835938)"/>
<path d="M0 0 C3.16903371 -0.29402661 6.14248931 -0.39075261 9.31387329 -0.36076355 C10.29155115 -0.36332682 11.26922902 -0.3658901 12.27653348 -0.36853105 C15.57335473 -0.3734974 18.86972441 -0.35692899 22.16650391 -0.34057617 C24.52144866 -0.33973052 26.87639421 -0.34020384 29.2313385 -0.34190369 C35.64224132 -0.34276746 42.0529771 -0.32507986 48.46384096 -0.30418181 C54.47946213 -0.28594782 60.49510317 -0.28431559 66.51074712 -0.2812262 C78.42809482 -0.27465583 90.34538102 -0.25467886 102.26269531 -0.22631836 C113.8411427 -0.19879289 125.41957339 -0.17755192 136.99804688 -0.16479492 C138.06809662 -0.16361267 138.06809662 -0.16361267 139.15976353 -0.16240653 C142.73841519 -0.15849149 146.31706696 -0.15470035 149.89571881 -0.15097082 C179.59718667 -0.11985671 209.29859042 -0.06678247 239 0 C239.00586624 0.58215775 239.01173248 1.16431549 239.01777649 1.76411438 C239.08163534 7.81498961 239.16603504 13.86532924 239.26245117 19.91577148 C239.29573686 22.17481431 239.32375733 24.43394103 239.34643555 26.69311523 C239.37991426 29.93770148 239.43222718 33.18151633 239.48828125 36.42578125 C239.49786613 37.94465691 239.49786613 37.94465691 239.50764465 39.49421692 C239.52743881 40.43496567 239.54723297 41.37571442 239.56762695 42.3449707 C239.57873001 43.17325882 239.58983307 44.00154694 239.60127258 44.85493469 C239.87209577 47.43806997 239.87209577 47.43806997 243 50 C266.265 50.495 266.265 50.495 290 51 C290 101.49 290 151.98 290 204 C258.09433962 204 258.09433962 204 249.625 195.6875 C247.37773442 192.90238175 245.27204339 190.01638367 243.1484375 187.13671875 C242.63071777 186.43780518 242.11299805 185.7388916 241.57958984 185.01879883 C240.55162098 183.62365283 239.53315756 182.22143605 238.52587891 180.8112793 C234.00315791 174.60970374 229.13267485 169.32251131 221.75 166.6875 C220.91984375 166.38199219 220.0896875 166.07648438 219.234375 165.76171875 C214.40147573 164.11413945 210.23281996 163.8655511 205.16015625 163.859375 C203.35610737 163.8410273 201.5520706 163.82145522 199.74804688 163.80078125 C196.91768199 163.77199209 194.08808845 163.75000445 191.25756836 163.74951172 C188.51607634 163.7461352 185.77633848 163.71132342 183.03515625 163.671875 C182.20967789 163.6789447 181.38419952 163.6860144 180.53370667 163.69329834 C175.51409164 163.59160398 171.97184319 162.66145703 167.42919922 160.49731445 C159.76040044 157.08150429 152.31177352 157.29339871 144.09765625 157.37109375 C142.48685038 157.37026253 140.87604462 157.36779365 139.26524353 157.36378479 C135.90744149 157.36094455 132.55031299 157.37545023 129.19262695 157.40307617 C124.92509148 157.43712863 120.65876053 157.43113311 116.39116764 157.4124136 C113.06988285 157.40175761 109.74887002 157.41085904 106.4276104 157.42579842 C104.85581715 157.43091979 103.28399477 157.43057343 101.71220589 157.42425346 C86.63710935 157.38637988 72.37409436 159.89458203 61.14306641 170.80371094 C58.38443588 173.60884659 55.65561312 176.44176013 52.93164062 179.28051758 C47.84953296 184.4570316 43.04928042 187.92516609 36 190 C35.01 190.33 34.02 190.66 33 191 C30.34105893 191.08494728 27.70914623 191.11594796 25.05078125 191.09765625 C24.27816452 191.0962413 23.50554779 191.09482635 22.70951843 191.09336853 C20.24380611 191.08777466 17.77818485 191.07522333 15.3125 191.0625 C13.63997527 191.05748421 11.96744912 191.05292144 10.29492188 191.04882812 C6.19657954 191.03780724 2.09830521 191.02054684 -2 191 C-2.04667533 166.53966563 -2.0819669 142.07933791 -2.10362434 117.61896801 C-2.11394656 106.26215821 -2.12802493 94.90537605 -2.15087891 83.54858398 C-2.17078387 73.65254283 -2.18370955 63.75652168 -2.18817699 53.86046106 C-2.19078928 48.61829007 -2.19694888 43.37617634 -2.21146011 38.13402367 C-2.22499833 33.20359251 -2.22923028 28.27324239 -2.22621536 23.34279442 C-2.22676721 21.5299231 -2.23076698 19.71704917 -2.23841095 17.90419388 C-2.24831342 15.43535206 -2.24598618 12.96681906 -2.24050903 10.49797058 C-2.24633472 9.77521083 -2.2521604 9.05245107 -2.25816262 8.3077895 C-2.23606307 4.64024448 -2.09412332 3.14118498 0 0 Z " fill="#EEEEEE" transform="translate(112,31)"/>
<path d="M0 0 C4.29153445 -0.08807085 8.58283224 -0.14074921 12.875 -0.1875 C14.07898438 -0.21263672 15.28296875 -0.23777344 16.5234375 -0.26367188 C27.03640596 -0.34937542 35.30539559 0.4691757 43.13720703 7.953125 C47.08809794 12.29444471 50.32301314 17.13158706 53.62304688 21.97265625 C60.01665017 31.03571621 67.92838229 37.78567646 79 40 C99.295 40.495 99.295 40.495 120 41 C120 78.62 120 116.24 120 155 C102.18 155.33 84.36 155.66 66 156 C57.05947834 158.75092974 49.33794592 161.48532106 41.125 165.625 C39.17186806 166.60156597 37.21619457 167.57306811 35.2578125 168.5390625 C34.4136377 168.96396973 33.56946289 169.38887695 32.69970703 169.82666016 C25.50650023 172.95295351 19.24270007 173.29712011 11.46850586 173.29052734 C10.3262001 173.29724457 9.18389435 173.30396179 8.00697327 173.31088257 C4.2428855 173.32983234 0.4789762 173.33378475 -3.28515625 173.3359375 C-5.90636773 173.34236561 -8.52757848 173.34909398 -11.14878845 173.35610962 C-16.6370459 173.36887362 -22.12525511 173.37187698 -27.61352539 173.37060547 C-33.94901327 173.36940259 -40.28416131 173.39054199 -46.61956316 173.4220928 C-52.72835062 173.45142565 -58.83697519 173.45858094 -64.94582939 173.45738602 C-67.53938628 173.4597467 -70.13294568 173.46859637 -72.7264576 173.48405075 C-76.35056017 173.50363112 -79.97378388 173.49790386 -83.59790039 173.48583984 C-84.66871857 173.49707886 -85.73953674 173.50831787 -86.84280396 173.51989746 C-92.89330841 173.46867906 -96.38236509 173.01829509 -101 169 C-103.78149582 166.0773712 -104.43131601 164.07590742 -104.4375 160.0625 C-104.32154145 156.63416019 -104.06904355 155.12480949 -102.375 152.0625 C-97.51207412 147.83943279 -93.2699016 146.62517962 -86.89306641 146.56762695 C-86.20944031 146.5574353 -85.52581421 146.54724365 -84.82147217 146.53674316 C-82.58141734 146.50675857 -80.34179113 146.49737002 -78.1015625 146.48828125 C-76.54070633 146.47142369 -74.97986365 146.453272 -73.41903687 146.43388367 C-69.32562474 146.38649416 -65.23226732 146.35661362 -61.13867188 146.33044434 C-56.95561932 146.3005828 -52.772755 146.25407177 -48.58984375 146.20898438 C-40.3933219 146.1230771 -32.1967827 146.05567622 -24 146 C-23.505 143.03 -23.505 143.03 -23 140 C-26.94353763 137.37097491 -30.31450981 137.72269559 -34.89013672 137.74462891 C-36.25400009 137.73919823 -36.25400009 137.73919823 -37.64541626 137.73365784 C-39.62119416 137.72676065 -41.59699113 137.724259 -43.57278061 137.72560501 C-46.69978514 137.72656869 -49.82644446 137.71364669 -52.95339966 137.69662476 C-61.84439411 137.65030389 -70.73535393 137.62574333 -79.62646484 137.61914062 C-85.06357726 137.61412887 -90.50033004 137.58989495 -95.93732071 137.55381393 C-98.00973477 137.54400723 -100.08219826 137.54168871 -102.15462875 137.54698563 C-105.05383537 137.5540477 -107.951969 137.53679117 -110.85107422 137.51416016 C-111.70735413 137.52233261 -112.56363403 137.53050507 -113.44586182 137.53892517 C-117.47796312 137.4829131 -119.50415215 137.31370276 -122.98977661 135.10848999 C-126.36168791 131.57174812 -126.90078702 128.89291685 -127.4375 124.0625 C-127.31977747 119.27209879 -125.40754414 117.25265577 -122 114 C-118.13498903 111.27363964 -113.76379119 111.70023066 -109.22412109 111.69702148 C-107.89670143 111.68436249 -107.89670143 111.68436249 -106.54246521 111.67144775 C-103.6194505 111.64567167 -100.69653672 111.6335312 -97.7734375 111.62109375 C-95.74369505 111.60492115 -93.71396039 111.58774141 -91.68423462 111.56959534 C-86.34211828 111.52390209 -80.9999916 111.48909727 -75.65777588 111.45739746 C-67.09928611 111.405523 -58.54091067 111.34049048 -49.98256302 111.26918221 C-46.98784655 111.24629936 -43.99314473 111.23006172 -40.99838257 111.21446228 C-39.17128334 111.2010596 -37.34418565 111.18744515 -35.51708984 111.17358398 C-34.26092613 111.16966393 -34.26092613 111.16966393 -32.97938538 111.16566467 C-28.85711243 111.23223546 -28.85711243 111.23223546 -25 110 C-25 108.02 -25 106.04 -25 104 C-27.28114826 102.85942587 -28.53841258 102.87298874 -31.07244873 102.86869812 C-31.92477081 102.86468994 -32.7770929 102.86068176 -33.65524292 102.85655212 C-34.59240143 102.85708084 -35.52955994 102.85760956 -36.49511719 102.8581543 C-37.48063568 102.85467987 -38.46615417 102.85120544 -39.48153687 102.84762573 C-41.62703637 102.84026079 -43.77254353 102.83491936 -45.91805267 102.83133507 C-49.31402299 102.82418263 -52.70984771 102.8085248 -56.10577393 102.78999329 C-65.76320386 102.73746887 -75.42055533 102.68954656 -85.078125 102.67407227 C-90.98093557 102.66399281 -96.8833821 102.63466674 -102.78604889 102.59275246 C-105.03625994 102.580435 -107.2865224 102.57532255 -109.53676605 102.57755089 C-112.68734079 102.5799028 -115.83687105 102.55774403 -118.98730469 102.5300293 C-120.38089706 102.53993141 -120.38089706 102.53993141 -121.80264282 102.55003357 C-127.3512418 102.46992949 -130.63056659 101.75781015 -135 98 C-137.89831934 93.65252099 -138.81811027 90.18136506 -138 85 C-135.87626316 81.73321213 -133.51976692 78.75988346 -130 77 C-128.62360638 76.90094171 -127.24260652 76.86228452 -125.8626709 76.85523987 C-124.99615402 76.84834137 -124.12963715 76.84144287 -123.23686218 76.83433533 C-121.80767204 76.83041527 -121.80767204 76.83041527 -120.34960938 76.82641602 C-118.84706352 76.8163855 -118.84706352 76.8163855 -117.31416321 76.80615234 C-115.13428474 76.79208055 -112.95439135 76.78019332 -110.77449036 76.77020454 C-107.32921925 76.75383722 -103.88405917 76.73060255 -100.43884277 76.70530701 C-90.64173885 76.6344032 -80.84459006 76.57430681 -71.04736328 76.52319336 C-65.06037319 76.49147647 -59.07351103 76.4502218 -53.08662415 76.40299797 C-50.79960929 76.38693613 -48.51256494 76.37463403 -46.22550964 76.36609077 C-43.03367042 76.35399397 -39.84213444 76.32986906 -36.65039062 76.30297852 C-35.6975972 76.30238937 -34.74480377 76.30180023 -33.76313782 76.30119324 C-32.89662094 76.29147491 -32.03010406 76.28175659 -31.1373291 76.27174377 C-30.00465481 76.26539587 -30.00465481 76.26539587 -28.84909821 76.25891972 C-26.75319432 76.1546737 -26.75319432 76.1546737 -25 74 C-24.7499227 71.45809998 -24.7499227 71.45809998 -25 69 C-26.7412601 67.2587399 -29.00389139 67.87001463 -31.32505798 67.85655212 C-32.46969261 67.8573452 -32.46969261 67.8573452 -33.63745117 67.8581543 C-34.83753311 67.85294266 -34.83753311 67.85294266 -36.06185913 67.84762573 C-37.80576566 67.84025437 -39.54968165 67.83491638 -41.29360008 67.83133507 C-44.05521175 67.82418706 -46.81664392 67.80853177 -49.57820129 67.78999329 C-57.43239836 67.73745502 -65.28650027 67.68956666 -73.14086914 67.67407227 C-77.94030989 67.663982 -82.73930422 67.63462609 -87.5385685 67.59275246 C-89.36731906 67.58044723 -91.19613272 67.57532033 -93.02492332 67.57755089 C-95.58895699 67.57990784 -98.15171508 67.55770685 -100.71557617 67.5300293 C-101.46854477 67.53663071 -102.22151337 67.54323212 -102.99729919 67.55003357 C-108.13127077 67.45926414 -111.03080488 66.21209949 -115 63 C-118.13971457 59.33699967 -118.57806136 55.90434067 -118.421875 51.21875 C-117.68670338 47.35229187 -115.860022 45.6650205 -113 43 C-109.34148617 40.54737094 -105.53249192 40.6375609 -101.26904297 40.55078125 C-100.49448257 40.5280011 -99.71992218 40.50522095 -98.92189026 40.48175049 C-90.83011907 40.26065154 -82.73477839 40.16562821 -74.640625 40.08007812 C-70.80579135 40.035556 -66.9748617 39.95209443 -63.14160156 39.83398438 C-58.50046025 39.69129083 -53.86298267 39.61835166 -49.21976089 39.59384155 C-47.45802243 39.57312332 -45.69638581 39.52846284 -43.93590927 39.45864868 C-30.48716135 38.95296897 -30.48716135 38.95296897 -26.31034088 42.39065552 C-23.75701879 45.25162818 -21.82573 48.31784452 -19.97463989 51.66455078 C-17.2833389 56.2105431 -14.68029914 57.7434272 -10 60 C-9.34 60.33 -8.68 60.66 -8 61 C-0.85227132 61.82421824 4.84364952 60.72556924 11 57 C16.02612136 52.97910291 19.29691073 47.97766243 20.421875 41.61328125 C21.05910929 30.33777457 13.37015979 21.27996855 7.1875 12.5 C5.82268519 10.5549802 4.46178417 8.60720616 3.10546875 6.65625 C2.50887451 5.80869141 1.91228027 4.96113281 1.29760742 4.08789062 C0 2 0 2 0 0 Z " fill="#FDB49E" transform="translate(296,204)"/>
<path d="M0 0 C2.86873171 -0.05259059 5.7364852 -0.09087927 8.60546875 -0.12109375 C9.41109253 -0.13732788 10.21671631 -0.15356201 11.04675293 -0.17028809 C22.65614566 -0.26184015 30.8206509 5.17038644 39.796875 11.9140625 C48.90100502 17.84284961 57.23092258 17.39687497 67.796875 17.17578125 C70.99866279 17.20148367 73.87992453 17.27423824 77 18 C78.6158231 19.64651717 79.24349406 20.90185543 79.88964844 23.10449219 C81.75877235 26.2953185 84.6503514 27.7151583 88 29 C91.90167921 29.57353999 95.7576383 29.54694409 99.69580078 29.51757812 C101.43628441 29.52809204 101.43628441 29.52809204 103.21192932 29.53881836 C107.03996878 29.55639202 110.86726575 29.54477223 114.6953125 29.53125 C117.36702383 29.53394617 120.03871294 29.53782439 122.7104187 29.54284668 C128.31060767 29.55011396 133.91058535 29.54056613 139.51074219 29.52148438 C145.95404932 29.49978097 152.39684878 29.50672258 158.84014332 29.52879 C164.39632399 29.5470471 169.95235331 29.54945054 175.50855434 29.53903532 C178.8160537 29.53284827 182.12326726 29.53343562 185.43075943 29.54518127 C189.13012315 29.55543091 192.82853825 29.53972415 196.52783203 29.51757812 C197.60153549 29.52567505 198.67523895 29.53377197 199.78147888 29.54211426 C212.30868952 29.40437895 222.9620016 24.87571014 234 19.3125 C235.97656936 18.32421532 237.95565298 17.34093939 239.9375 16.36328125 C241.21947266 15.71806519 241.21947266 15.71806519 242.52734375 15.05981445 C248.06875282 12.68469036 253.53254856 12.86723778 259.45703125 12.90234375 C260.81147591 12.90446617 260.81147591 12.90446617 262.19328308 12.90663147 C265.06638963 12.91221177 267.93941716 12.92476066 270.8125 12.9375 C272.76497283 12.94251755 274.71744689 12.94708001 276.66992188 12.95117188 C281.44664485 12.96217475 286.22330904 12.97942582 291 13 C291.06943466 24.8130765 291.12277803 36.62610464 291.15543652 48.43934345 C291.17110899 53.92439786 291.19237618 59.40931291 291.22631836 64.89428711 C291.2588553 70.1851406 291.27684109 75.47585985 291.28463173 80.76680565 C291.29018543 82.78788556 291.30103011 84.80895792 291.31719017 86.82998085 C291.3388891 89.65545296 291.34197008 92.48036652 291.34057617 95.3059082 C291.35675491 96.56610527 291.35675491 96.56610527 291.3732605 97.85176086 C291.34290204 103.51867288 291.34290204 103.51867288 289.77818441 105.71504658 C287.45142542 107.39641152 286.04759153 107.37491239 283.18828583 107.37473011 C282.19139504 107.38193665 281.19450425 107.3891432 280.16740465 107.39656812 C279.06926927 107.38919383 277.97113389 107.38181955 276.83972168 107.3742218 C275.67546268 107.37819621 274.51120368 107.38217061 273.3116641 107.38626546 C270.07466456 107.39424249 266.83800813 107.38870706 263.6010282 107.37751496 C260.11222604 107.36869074 256.62346057 107.37711129 253.13465881 107.38337708 C246.2979954 107.39287754 239.46143734 107.38625436 232.62478173 107.37411413 C224.66814758 107.36051011 216.71153869 107.36213058 208.75489587 107.36424746 C194.56102219 107.36743917 180.36719865 107.35575923 166.17333984 107.33618164 C152.39109774 107.31717671 138.60891442 107.31009387 124.82666016 107.31567383 C109.829313 107.32172775 94.83199171 107.32156165 79.8346467 107.310188 C78.23632717 107.30898067 76.63800764 107.30777468 75.03968811 107.30657005 C74.25322378 107.30596651 73.46675946 107.30536298 72.65646288 107.30474115 C67.10641642 107.30085716 61.55637956 107.30125748 56.0063324 107.3031559 C49.24539091 107.30527515 42.48450098 107.30007432 35.72357404 107.28554235 C32.27210445 107.27828458 28.82071006 107.27423304 25.36923409 107.27878571 C21.63283121 107.28198858 17.8966576 107.27297349 14.16027832 107.26069641 C13.06214294 107.26447573 11.96400756 107.26825506 10.83259535 107.27214891 C9.83570456 107.26631671 8.83881377 107.26048452 7.81171417 107.25447559 C6.9487172 107.25360882 6.08572022 107.25274204 5.19657183 107.251849 C3 107 3 107 0 105 C-0.36914349 103.11408043 -0.36914349 103.11408043 -0.36076355 100.77328491 C-0.36488754 99.88704941 -0.36901154 99.0008139 -0.3732605 98.08772278 C-0.36247467 97.11308578 -0.35168884 96.13844879 -0.34057617 95.13427734 C-0.34101425 94.10986038 -0.34145233 93.08544342 -0.34190369 92.02998352 C-0.33980766 88.63177669 -0.31643798 85.23405852 -0.29296875 81.8359375 C-0.2873757 79.48467275 -0.28310423 77.1334045 -0.28010559 74.78213501 C-0.26863397 68.58421224 -0.23914676 62.38649934 -0.20599365 56.18865967 C-0.17534271 49.8679895 -0.1616109 43.54728552 -0.14648438 37.2265625 C-0.11427937 24.81761597 -0.06305501 12.40882541 0 0 Z " fill="#ECECEC" transform="translate(111,375)"/>
<path d="M0 0 C1.59986126 -0.00711505 3.19972002 -0.01481598 4.79957581 -0.02307129 C8.1406261 -0.03646129 11.48144028 -0.03810936 14.82250977 -0.03222656 C19.08040928 -0.0263306 23.33716851 -0.05694234 27.59484768 -0.09734344 C30.89539067 -0.12333 34.19566285 -0.12608812 37.49629402 -0.12245178 C39.06502209 -0.1241323 40.63376412 -0.13367072 42.20239067 -0.15159607 C51.92301511 -0.25048391 60.61156441 0.10913258 68.19805908 7.00973511 C69.81365985 8.72925807 71.14055285 10.54146984 72.50390625 12.46875 C73.20596191 13.44038086 73.90801758 14.41201172 74.63134766 15.41308594 C76.66347598 18.25822542 78.63715751 21.13945198 80.59204102 24.03808594 C81.40945785 25.24359239 82.23471014 26.44382223 83.06762695 27.63867188 C91.80377695 40.17232726 91.80377695 40.17232726 91.50390625 48.46875 C90.20712092 52.50606176 88.21383194 54.97969008 84.69140625 57.40625 C80.96143404 58.64957407 78.41308888 58.95739783 74.50390625 58.46875 C69.03816047 55.54383739 66.41234941 51.90397185 63.25390625 46.78125 C60.57673395 41.9144695 60.57673395 41.9144695 56.50390625 38.46875 C53.80033465 38.35472688 51.12193194 38.30090957 48.41748047 38.29174805 C47.58147812 38.28517685 46.74547577 38.27860565 45.88414001 38.27183533 C43.10895705 38.25207714 40.33382836 38.24043187 37.55859375 38.23046875 C36.13657339 38.22435546 36.13657339 38.22435546 34.68582535 38.21811867 C29.66457588 38.19724351 24.64335382 38.18295014 19.62207031 38.17358398 C14.44368784 38.16253877 9.26573736 38.12816482 4.08750725 38.08841228 C0.0999575 38.06221544 -3.88749003 38.05388924 -7.87511826 38.05030251 C-9.78322123 38.04544158 -11.6913198 38.03384173 -13.59933853 38.01526451 C-16.2776691 37.99081605 -18.95489189 37.99184879 -21.63330078 37.9987793 C-22.41491074 37.98596924 -23.19652069 37.97315918 -24.0018158 37.95996094 C-30.45315904 38.02048603 -35.6472825 39.96091616 -40.51953125 44.25 C-40.96554688 44.8171875 -41.4115625 45.384375 -41.87109375 45.96875 C-42.33257812 46.5359375 -42.7940625 47.103125 -43.26953125 47.6875 C-46.25547017 52.02376798 -46.76902072 55.01322932 -46.74609375 60.34375 C-46.75125 61.53742188 -46.75640625 62.73109375 -46.76171875 63.9609375 C-46.49743381 67.45105337 -45.7497231 70.21528337 -44.49609375 73.46875 C-45.33140625 73.59830078 -45.33140625 73.59830078 -46.18359375 73.73046875 C-52.97166308 74.98029908 -58.55299352 76.98274778 -63.10546875 82.375 C-67.02177286 88.44747154 -67.51812055 94.40133823 -66.49609375 101.46875 C-64.72480868 107.68908641 -60.8096196 111.90585216 -55.49609375 115.46875 C-54.01109375 115.96375 -54.01109375 115.96375 -52.49609375 116.46875 C-52.95238733 118.59812004 -53.41321651 120.32594614 -54.51171875 122.21875 C-56.81668575 127.487246 -56.27933551 134.40022688 -54.87890625 139.88671875 C-52.55270039 145.20817199 -48.72915474 148.98692388 -43.49609375 151.46875 C-39.18485473 152.49594097 -34.90770307 153.07869918 -30.49609375 153.46875 C-30.80546875 154.29375 -31.11484375 155.11875 -31.43359375 155.96875 C-32.61486958 159.86001155 -33.07833543 163.43041953 -33.49609375 167.46875 C-48.09042057 168.08468876 -57.59152462 166.58588404 -69.63916016 157.76586914 C-74.61800356 154.18644009 -79.65283929 152.17897082 -85.49609375 150.46875 C-86.48609375 150.13875 -87.47609375 149.80875 -88.49609375 149.46875 C-98.72609375 149.13875 -108.95609375 148.80875 -119.49609375 148.46875 C-119.49609375 110.84875 -119.49609375 73.22875 -119.49609375 34.46875 C-103.32609375 34.13875 -87.15609375 33.80875 -70.49609375 33.46875 C-55.76822025 28.93709662 -49.11565476 24.56866054 -39.07470703 13.93823242 C-27.60568001 1.97872343 -15.99932182 -0.00869323 0 0 Z " fill="#FDB49D" transform="translate(215.49609375,197.53125)"/>
<path d="M0 0 C6.90519316 3.72880431 9.28085189 10.93214339 12 18 C12 18.66 12 19.32 12 20 C16.63056822 19.89038749 16.63056822 19.89038749 20.5078125 17.6328125 C21.71500342 16.12201668 22.86062362 14.56257332 24 13 C27.06429776 11.46785112 29.6165642 11.77061452 33 12 C36.44121198 13.45295617 37.6657595 14.31560279 39.3125 17.6875 C39.539375 18.450625 39.76625 19.21375 40 20 C42.92097575 19.50312364 42.92097575 19.50312364 46 18 C47.46292954 15.65107089 48.52338458 13.64453417 49.5625 11.125 C51.60194366 6.31171448 53.43865745 2.85347469 58 0 C60.0625 -0.53125 60.0625 -0.53125 62 -0.5 C62.9590625 -0.51546875 62.9590625 -0.51546875 63.9375 -0.53125 C68.46599783 0.63518126 70.69245926 3.48485439 73.01953125 7.3828125 C73.62969632 8.62413757 74.22721928 9.87174989 74.8125 11.125 C75.12380859 11.75792969 75.43511719 12.39085937 75.75585938 13.04296875 C78 17.68907967 78 17.68907967 78 20 C79.11375 19.95875 80.2275 19.9175 81.375 19.875 C87.68201858 19.89740504 93.71416729 20.50721129 99.0625 24 C102.21315943 27.25229361 102.63152782 29.98616891 102.6171875 34.41015625 C101.35002444 39.72742909 97.00402482 43.4931637 93 47 C90.703125 48.28515625 90.703125 48.28515625 89 49 C89.2165625 50.2684375 89.2165625 50.2684375 89.4375 51.5625 C92.06312292 67.60797342 92.06312292 67.60797342 89.75 72.8125 C86.83396204 76.45754746 85.25967269 77.7709686 80.5625 78.625 C75.00482068 78.48893629 70.57539896 75.24310387 65.953125 72.43359375 C63.18229008 70.75996299 63.18229008 70.75996299 60.609375 71.28515625 C59.81273437 71.63900391 59.81273437 71.63900391 59 72 C59.04640625 72.65226562 59.0928125 73.30453125 59.140625 73.9765625 C59.38394092 79.86828361 59.1257931 83.41578544 55 88 C51.57079269 90.60146762 48.18626296 90.29005131 44 90 C40.6484375 88.43359375 40.6484375 88.43359375 37.375 86.4375 C33.20790352 83.74199549 33.20790352 83.74199549 28.46875 83.09375 C25.52232391 84.17534945 22.87589673 85.55129309 20.125 87.0625 C15.54258175 89.39587862 12.22639924 91.06661209 7 90 C4.24670979 88.20437595 2.47372539 86.94745078 1 84 C0.92934383 81.95944995 0.91578024 79.91665743 0.9375 77.875 C0.94652344 76.77929688 0.95554688 75.68359375 0.96484375 74.5546875 C0.97644531 73.71164063 0.98804688 72.86859375 1 72 C-3.56541938 70.72835351 -6.01293554 71.12087781 -10.16210938 73.40039062 C-10.74798828 73.74263672 -11.33386719 74.08488281 -11.9375 74.4375 C-16.70879355 77.21150788 -20.36669462 78.63265317 -26 78 C-29.54005308 76.21586966 -31.73701558 73.78895325 -33 70 C-33.39714181 62.85144738 -32.20109984 56.03501337 -31 49 C-31.58523437 48.74089844 -32.17046875 48.48179688 -32.7734375 48.21484375 C-35.15795574 46.91381713 -36.73207391 45.50128994 -38.625 43.5625 C-39.21539062 42.96566406 -39.80578125 42.36882812 -40.4140625 41.75390625 C-43.96156382 37.83068435 -44.44040328 35.30653437 -44.31640625 30.22265625 C-43.836248 26.84969275 -42.50881238 25.23758942 -40 23 C-33.85269448 19.67713215 -26.80831224 19.88055593 -20 20 C-19.79375 19.236875 -19.5875 18.47375 -19.375 17.6875 C-15.83730862 8.20005495 -11.89462468 -2.28210822 0 0 Z " fill="#060503" transform="translate(227,48)"/>
<path d="M0 0 C14.85 0 29.7 0 45 0 C45 46.86 45 93.72 45 142 C30.15 142 15.3 142 0 142 C-2.63348941 139.36651059 -2.25123293 138.20808894 -2.25396729 134.53393555 C-2.25960693 133.37292328 -2.26524658 132.21191101 -2.27105713 131.01571655 C-2.26700867 129.73564728 -2.26296021 128.455578 -2.25878906 127.13671875 C-2.261498 125.78007825 -2.26505839 124.42343921 -2.26940918 123.06680298 C-2.27854706 119.37678566 -2.27498322 115.68687984 -2.26865101 111.9968605 C-2.26359823 108.14072614 -2.26828044 104.28460152 -2.27142334 100.4284668 C-2.2750651 93.95196818 -2.27025841 87.47551514 -2.26074219 80.99902344 C-2.24985722 73.50430112 -2.25338265 66.0096876 -2.264395 58.51496792 C-2.27346192 52.08776383 -2.27475608 45.66059255 -2.26951766 39.23338413 C-2.26639467 35.39136025 -2.26599759 31.54938756 -2.27259064 27.70736694 C-2.27835485 24.09586858 -2.27438431 20.48451092 -2.26280212 16.8730278 C-2.25888258 14.910115 -2.26484906 12.94719034 -2.27105713 10.98428345 C-2.26541748 9.82327118 -2.25977783 8.66225891 -2.25396729 7.46606445 C-2.25283621 5.94623711 -2.25283621 5.94623711 -2.25168228 4.39570618 C-2 2 -2 2 0 0 Z " fill="#72C0E7" transform="translate(460,233)"/>
<path d="M0 0 C44 0 44 0 47 2 C47.37473011 4.39570618 47.37473011 4.39570618 47.3742218 7.46606445 C47.38474327 9.20758286 47.38474327 9.20758286 47.39547729 10.98428345 C47.38783356 12.26435272 47.38018982 13.544422 47.37231445 14.86328125 C47.37474143 16.21992268 47.37845983 17.57656233 47.38337708 18.93319702 C47.39280277 22.62327287 47.38334677 26.31308426 47.37004495 30.0031395 C47.35875104 33.85927128 47.36283635 37.71538964 47.36479187 41.5715332 C47.3656755 48.04805842 47.35458008 54.52447911 47.33618164 61.00097656 C47.31501292 68.49570485 47.31150371 75.99027995 47.3177436 83.48503208 C47.32343242 90.68571057 47.31779731 97.88633493 47.30657005 105.08700562 C47.30191765 108.15555824 47.30105298 111.22407785 47.3031559 114.29263306 C47.30503545 117.90414353 47.29696079 121.51549743 47.2810955 125.1269722 C47.27480824 127.08987695 47.27836655 129.05280541 47.28216553 131.01571655 C47.27153831 132.75723495 47.27153831 132.75723495 47.26069641 134.53393555 C47.25864354 135.54715378 47.25659067 136.56037201 47.25447559 137.60429382 C47 140 47 140 45 142 C30.15 142 15.3 142 0 142 C0 95.14 0 48.28 0 0 Z " fill="#FB5E3E" transform="translate(7,217)"/>
<path d="M0 0 C15.96631808 0 24.89173731 1.78103695 37.02734375 10.87890625 C45.07978096 16.62460061 52.83541551 18.15624945 62.5480957 18.12451172 C73.68796675 18.12662254 73.68796675 18.12662254 77.60546875 20.734375 C79.3125 22.875 79.3125 22.875 80.48828125 24.9921875 C82.73148841 27.97153758 85.50358607 29.02103071 89 30 C92.91146635 30.42700698 96.7958611 30.41010836 100.72753906 30.38818359 C101.89107407 30.39344055 103.05460907 30.39869751 104.25340271 30.40411377 C108.09094768 30.41729171 111.92807596 30.40858073 115.765625 30.3984375 C118.44212353 30.40045941 121.11860958 30.40336775 123.79510498 30.40713501 C129.40365073 30.41258471 135.01207777 30.40542486 140.62060547 30.39111328 C147.07978123 30.37482005 153.53867236 30.38005403 159.99784112 30.3965925 C165.5641624 30.41026807 171.13039865 30.41209661 176.69673133 30.40427649 C180.011949 30.39962901 183.32700582 30.40009235 186.64221954 30.40888596 C190.34663253 30.41655336 194.05050945 30.40482007 197.75488281 30.38818359 C198.83577682 30.39425629 199.91667084 30.40032898 201.03031921 30.40658569 C210.76132972 30.32612652 219.3142474 28.09060473 228.05859375 23.8984375 C228.65503189 23.61650543 229.25147003 23.33457336 229.86598206 23.0440979 C231.72729463 22.16279107 233.5826271 21.26976912 235.4375 20.375 C237.3182222 19.47507286 239.20013544 18.57781028 241.08399963 17.68447876 C242.77526974 16.8814363 244.46282694 16.07058772 246.15014648 15.25927734 C249.86894877 13.61603378 252.97641268 12.87330004 257.03417969 12.88647461 C258.20494049 12.88658791 258.20494049 12.88658791 259.39935303 12.88670349 C260.23178528 12.89186478 261.06421753 12.89702606 261.921875 12.90234375 C262.78186096 12.9037587 263.64184692 12.90517365 264.52789307 12.90663147 C267.26863109 12.91221903 270.00928676 12.92476925 272.75 12.9375 C274.6106759 12.94251661 276.47135309 12.94707923 278.33203125 12.95117188 C282.88807792 12.96133255 287.44394701 12.98091039 292 13 C292 19.27 292 25.54 292 32 C287.73449219 32.05607422 287.73449219 32.05607422 283.3828125 32.11328125 C280.59920991 32.15962016 277.81573523 32.21080864 275.03222656 32.26245117 C273.11205963 32.29550746 271.19180003 32.32359812 269.27148438 32.34643555 C266.49569561 32.38033941 263.72074148 32.43266909 260.9453125 32.48828125 C260.1001004 32.49467117 259.25488831 32.5010611 258.38406372 32.50764465 C250.08470878 32.70796126 242.68489848 34.90374132 235.2734375 38.62890625 C234.3040625 39.10650391 233.3346875 39.58410156 232.3359375 40.07617188 C231.35882813 40.56666016 230.38171875 41.05714844 229.375 41.5625 C227.40727252 42.55022708 225.43597209 43.53087254 223.4609375 44.50390625 C222.60290527 44.93517822 221.74487305 45.3664502 220.86083984 45.81079102 C213.24924346 48.97481952 206.24018671 49.29728954 198.09545898 49.29052734 C196.92535278 49.29724457 195.75524658 49.30396179 194.54968262 49.31088257 C190.69844266 49.32981433 186.84737728 49.33378381 182.99609375 49.3359375 C180.99039436 49.3407408 178.98469493 49.34554785 176.97899681 49.35085833 C170.68072786 49.36709622 164.38251601 49.37203121 158.08422852 49.37060547 C151.60048519 49.36940264 145.11707396 49.39054289 138.63341469 49.4220928 C133.05100876 49.44828282 127.46871122 49.45897175 121.88624436 49.45769465 C118.55879153 49.45718615 115.2317005 49.46466304 111.90429497 49.48405075 C108.19429774 49.50365105 104.48515758 49.49789592 100.77514648 49.48583984 C99.68144241 49.49707886 98.58773834 49.50831787 97.46089172 49.51989746 C91.07343221 49.46716609 87.19816408 48.7961238 82 45 C78 40.79487179 78 40.79487179 78 37 C77.26475098 37.02094727 76.52950195 37.04189453 75.77197266 37.06347656 C72.38979165 37.14743329 69.00783088 37.19891086 65.625 37.25 C64.46871094 37.28351563 63.31242187 37.31703125 62.12109375 37.3515625 C51.42864878 37.47238109 43.97416785 34.87746653 35.5 28.5 C23.58754028 19.98539535 17.11692681 19.89538482 1 19 C1 52.99 1 86.98 1 122 C0.67 122 0.34 122 0 122 C0 81.74 0 41.48 0 0 Z " fill="#7B7A79" transform="translate(110,356)"/>
<path d="M0 0 C6.27 0 12.54 0 19 0 C19 40.92 19 81.84 19 124 C12.73 124 6.46 124 0 124 C-3.29347334 120.70652666 -3.37529962 120.49413256 -3.38095093 116.1796875 C-3.3894104 115.18702881 -3.39786987 114.19437012 -3.40658569 113.17163086 C-3.400513 112.08374268 -3.39444031 110.99585449 -3.38818359 109.875 C-3.39344055 108.72845947 -3.39869751 107.58191895 -3.40411377 106.40063477 C-3.41734733 102.60028572 -3.40856347 98.80035351 -3.3984375 95 C-3.40045726 92.3658846 -3.40336788 89.73176974 -3.40713501 87.09765625 C-3.41259407 81.57287049 -3.40539711 76.048205 -3.39111328 70.5234375 C-3.37478635 64.13462179 -3.38007477 57.74609329 -3.3965925 51.35728455 C-3.41184205 45.21324856 -3.4102341 39.06934 -3.4014473 32.92529297 C-3.39944176 30.30973267 -3.40191687 27.69416507 -3.40888596 25.07861328 C-3.41647921 21.42720949 -3.40492531 17.77636219 -3.38818359 14.125 C-3.39425629 13.03711182 -3.40032898 11.94922363 -3.40658569 10.82836914 C-3.39812622 9.83571045 -3.38966675 8.84305176 -3.38095093 7.8203125 C-3.37981985 6.95680176 -3.37868877 6.09329102 -3.37752342 5.20361328 C-3 3 -3 3 0 0 Z " fill="#F7F7F7" transform="translate(429,242)"/>
<path d="M0 0 C6.27 0 12.54 0 19 0 C22.29347334 3.29347334 22.37529962 3.50586744 22.38095093 7.8203125 C22.3894104 8.81297119 22.39786987 9.80562988 22.40658569 10.82836914 C22.400513 11.91625732 22.39444031 13.00414551 22.38818359 14.125 C22.39344055 15.27154053 22.39869751 16.41808105 22.40411377 17.59936523 C22.41734733 21.39971428 22.40856347 25.19964649 22.3984375 29 C22.40045726 31.6341154 22.40336788 34.26823026 22.40713501 36.90234375 C22.41259407 42.42712951 22.40539711 47.951795 22.39111328 53.4765625 C22.37478635 59.86537821 22.38007477 66.25390671 22.3965925 72.64271545 C22.41184205 78.78675144 22.4102341 84.93066 22.4014473 91.07470703 C22.39944176 93.69026733 22.40191687 96.30583493 22.40888596 98.92138672 C22.41647921 102.57279051 22.40492531 106.22363781 22.38818359 109.875 C22.39729263 111.50683228 22.39729263 111.50683228 22.40658569 113.17163086 C22.39812622 114.16428955 22.38966675 115.15694824 22.38095093 116.1796875 C22.37981985 117.04319824 22.37868877 117.90670898 22.37752342 118.79638672 C22 121 22 121 19 124 C12.73 124 6.46 124 0 124 C0 83.08 0 42.16 0 0 Z " fill="#F6F6F6" transform="translate(64,226)"/>
<path d="M0 0 C1.25469561 0.00669217 1.25469561 0.00669217 2.5347386 0.01351953 C3.42046161 0.01039954 4.30618463 0.00727956 5.21874774 0.00406504 C8.20443933 -0.00395036 11.18992967 0.00242244 14.175623 0.00869775 C16.30895552 0.00598944 18.4422871 0.00242941 20.5756169 -0.00192237 C26.38338909 -0.01106822 32.19109051 -0.00749294 37.998864 -0.0011642 C44.06601015 0.00388511 50.13315008 -0.00079272 56.20029646 -0.00393653 C66.39179012 -0.00757958 76.58325483 -0.00276849 86.77474409 0.00674462 C98.56947482 0.01762689 110.3641364 0.01410659 122.15886545 0.00309181 C132.2709769 -0.0059749 142.38306748 -0.00726927 152.49518168 -0.00203085 C158.54102694 0.00109262 164.58683967 0.00148793 170.63268286 -0.00510383 C176.31662435 -0.0108676 182.00047644 -0.00689816 187.68440825 0.00468469 C189.77463513 0.00733659 191.8648695 0.0065572 193.95509344 0.00215936 C196.80042943 -0.00327671 199.64547592 0.00351445 202.49079329 0.01351953 C203.3250263 0.00905808 204.15925932 0.00459664 205.01877213 0 C208.89524848 0.02658003 210.77497492 0.06663158 214.07625777 2.26748681 C214.38875777 5.26748681 214.38875777 5.26748681 214.07625777 8.26748681 C211.47267044 10.87107414 209.66810713 10.51070428 206.12168032 10.53497362 C205.28064351 10.53051218 204.43960671 10.52605073 203.57308394 10.5214541 C202.23731574 10.52613407 202.23731574 10.52613407 200.87456232 10.53090858 C197.87271757 10.53892405 194.87107299 10.53255118 191.86922652 10.52627587 C189.7244194 10.52898416 187.57961321 10.53254417 185.43480879 10.53689599 C179.59611312 10.54604156 173.75748784 10.54246682 167.91879088 10.53613782 C161.82048032 10.53108902 155.72217597 10.53576614 149.62386519 10.53891015 C139.38109697 10.54255307 129.13835755 10.53774216 118.8955937 10.528229 C107.03835911 10.51734384 95.18119329 10.52086918 83.32396036 10.53188181 C73.16006034 10.54094541 62.99618107 10.54224451 52.83227831 10.53700447 C46.75460691 10.53387966 40.67696788 10.5334894 34.59929854 10.54007745 C28.88663314 10.54583682 23.17405678 10.54187993 17.46140105 10.53028893 C15.35946621 10.52763478 13.25752394 10.52842022 11.15559202 10.53281426 C8.29676925 10.53824148 5.4382357 10.53147015 2.57943159 10.5214541 C1.31787638 10.52814626 1.31787638 10.52814626 0.03083521 10.53497362 C-5.69544219 10.49578685 -5.69544219 10.49578685 -7.92374223 8.26748681 C-8.17374223 5.26748681 -8.17374223 5.26748681 -7.92374223 2.26748681 C-5.32594479 -0.33031064 -3.53900386 0.02434954 0 0 Z " fill="#030303" transform="translate(152.92374223470688,426.7325131893158)"/>
<path d="M0 0 C1.07478969 0.00669217 1.07478969 0.00669217 2.1712923 0.01351953 C2.93113076 0.01039954 3.69096922 0.00727956 4.47383308 0.00406504 C7.03346423 -0.00394613 9.59286034 0.00242072 12.15249348 0.00869775 C13.98203388 0.00598927 15.81157319 0.00242914 17.64111042 -0.00192237 C22.62033336 -0.01106566 27.59947372 -0.00749415 32.57869816 -0.0011642 C37.78013812 0.00388578 42.98157083 -0.00079285 48.18301105 -0.00393653 C56.91927076 -0.00757911 65.6554967 -0.00276944 74.39175129 0.00674462 C84.50397956 0.01762973 94.61612719 0.01410435 104.7283535 0.00309181 C113.39757479 -0.00597277 122.06677175 -0.00727041 130.73599625 -0.00203085 C135.91940795 0.00109342 141.1027817 0.0014857 146.28619099 -0.00510383 C151.1583876 -0.01086463 156.03047985 -0.0069037 160.90266514 0.00468469 C162.69498871 0.00733807 164.48732101 0.00655469 166.27964115 0.00215936 C168.71809164 -0.00327092 171.15620349 0.00350707 173.59463215 0.01351953 C174.31115861 0.00905808 175.02768507 0.00459664 175.76592445 0 C180.65466205 0.03918663 180.65466205 0.03918663 182.88296223 2.26748681 C183.13296223 5.26748681 183.13296223 5.26748681 182.88296223 8.26748681 C180.4358122 10.71463684 179.10551418 10.50820449 175.76592445 10.53497362 C175.04939799 10.53051218 174.33287153 10.52605073 173.59463215 10.5214541 C172.83479369 10.52457408 172.07495523 10.52769406 171.29209137 10.53090858 C168.73246023 10.53891976 166.17306411 10.5325529 163.61343098 10.52627587 C161.78389058 10.52898435 159.95435126 10.53254448 158.12481403 10.53689599 C153.1455911 10.54603928 148.16645074 10.54246777 143.1872263 10.53613782 C137.98578633 10.53108784 132.78435363 10.53576647 127.5829134 10.53891015 C118.84665369 10.54255273 110.11042775 10.53774306 101.37417316 10.528229 C91.2619449 10.5173439 81.14979727 10.52086927 71.03757095 10.53188181 C62.36834966 10.54094639 53.6991527 10.54224403 45.02992821 10.53700447 C39.84651651 10.5338802 34.66314276 10.53348792 29.47973347 10.54007745 C24.60753686 10.54583825 19.7354446 10.54187732 14.86325932 10.53028893 C13.07093574 10.52763555 11.27860345 10.52841893 9.4862833 10.53281426 C7.04783281 10.53824454 4.60972096 10.53146656 2.1712923 10.5214541 C1.45476584 10.52591554 0.73823938 10.53037698 0 10.53497362 C-4.88873759 10.49578699 -4.88873759 10.49578699 -7.11703777 8.26748681 C-7.36703777 5.26748681 -7.36703777 5.26748681 -7.11703777 2.26748681 C-4.66988774 -0.17966322 -3.33958973 0.02676913 0 0 Z " fill="#000000" transform="translate(168.11703777313232,157.7325131893158)"/>
<path d="M0 0 C2.79914359 2.53616596 3.75236415 4.92718678 5.09375 8.44702148 C6.95470868 12.9750312 8.61535586 16.98443861 13.32861328 18.99169922 C19.1255703 20.44013557 25.03919489 20.86971383 31 21 C29.70304366 23.90933732 28.97970864 25.01557174 26.36328125 27.0234375 C20.2524119 31.69357604 20.2524119 31.69357604 17.5859375 38.66259766 C17.39690217 45.15316855 18.07340438 51.58177536 19 58 C17.35451172 57.13375 17.35451172 57.13375 15.67578125 56.25 C14.22162797 55.49946927 12.76718555 54.74949856 11.3125 54 C10.2306543 53.42765625 10.2306543 53.42765625 9.12695312 52.84375 C3.83140391 50.02580731 3.83140391 50.02580731 -2 50 C-4.86398479 51.16627143 -7.58060378 52.55470727 -10.3125 54 C-11.05306641 54.3815625 -11.79363281 54.763125 -12.55664062 55.15625 C-14.37577238 56.09515671 -16.18854001 57.04637594 -18 58 C-18.12510766 49.49267945 -18.12510766 49.49267945 -17.52319336 47.12231445 C-16.59190308 43.34457 -16.26280812 39.84171566 -17 36 C-18.77406452 33.22341898 -21.01786813 31.20662847 -23.5 29.0625 C-25.69709909 27.06866684 -27.85633844 25.05237926 -30 23 C-30 22.34 -30 21.68 -30 21 C-28.81921875 20.87882812 -27.6384375 20.75765625 -26.421875 20.6328125 C-24.86453957 20.4639448 -23.30725023 20.29465165 -21.75 20.125 C-20.97269531 20.04636719 -20.19539062 19.96773437 -19.39453125 19.88671875 C-18.64042969 19.80292969 -17.88632813 19.71914062 -17.109375 19.6328125 C-16.41811523 19.55949707 -15.72685547 19.48618164 -15.01464844 19.41064453 C-11.7960387 18.75459732 -9.66510777 17.92866497 -7.71972656 15.21240234 C-7.36362305 14.51066895 -7.00751953 13.80893555 -6.640625 13.0859375 C-6.24746094 12.32539062 -5.85429687 11.56484375 -5.44921875 10.78125 C-5.05347656 9.9871875 -4.65773437 9.193125 -4.25 8.375 C-3.83878906 7.57320313 -3.42757812 6.77140625 -3.00390625 5.9453125 C-1.99202926 3.96862257 -0.99130984 1.98706217 0 0 Z " fill="#EBBC1F" transform="translate(256,70)"/>
<path d="M0 0 C0.66 0 1.32 0 2 0 C3.33819498 2.6226232 4.6707151 5.24786599 6 7.875 C6.57234375 8.99455078 6.57234375 8.99455078 7.15625 10.13671875 C7.69765625 11.20986328 7.69765625 11.20986328 8.25 12.3046875 C8.58515625 12.96452637 8.9203125 13.62436523 9.265625 14.30419922 C10 16 10 16 10 18 C12.64 18.33 15.28 18.66 18 19 C18 19.99 18 20.98 18 22 C16.98679688 22.10957031 15.97359375 22.21914062 14.9296875 22.33203125 C13.57805539 22.49159893 12.22649657 22.65178833 10.875 22.8125 C10.20984375 22.88275391 9.5446875 22.95300781 8.859375 23.02539062 C4.36004885 23.57677863 0.83321424 24.56016482 -3 27 C-5.43809135 30.44406601 -5.40463167 33.46758865 -4.890625 37.5390625 C-3.11092627 42.45665111 1.10979569 45.67564359 5 49 C3 50 3 50 0.296875 50.33984375 C-3.57345889 51.11482767 -6.32789284 52.61095272 -9.75 54.5625 C-15.80885312 58 -15.80885312 58 -18 58 C-17.85479535 56.3749437 -17.70879131 54.74995883 -17.5625 53.125 C-17.48128906 52.12082031 -17.40007812 51.11664063 -17.31640625 50.08203125 C-17 47 -17 47 -16.46484375 44.32421875 C-15.7752478 40.59808263 -15.34261907 38.13892745 -17.28515625 34.7734375 C-20.04372606 31.53590722 -23.13009985 28.84608003 -26.4375 26.1875 C-27.7059375 25.1046875 -27.7059375 25.1046875 -29 24 C-29 23.01 -29 22.02 -29 21 C-28.43603516 20.99291016 -27.87207031 20.98582031 -27.29101562 20.97851562 C-16.49565498 20.96257544 -16.49565498 20.96257544 -7.28369141 16.31982422 C-4.30114409 11.90230807 -2.61004731 7.0499436 -1 2 C-0.67 1.34 -0.34 0.68 0 0 Z " fill="#E8B91E" transform="translate(222,58)"/>
<path d="M0 0 C0.66 0 1.32 0 2 0 C2.77923828 1.80597656 2.77923828 1.80597656 3.57421875 3.6484375 C4.27775412 5.22435672 4.98223057 6.79985606 5.6875 8.375 C6.02716797 9.1690625 6.36683594 9.963125 6.71679688 10.78125 C8.70096423 15.3014087 8.70096423 15.3014087 12.3203125 18.47265625 C15.60437357 19.11893649 18.86556848 19.64594589 22.1875 20.0625 C28.80084151 20.90042076 28.80084151 20.90042076 31 22 C29.57390841 25.36202939 27.85651485 27.23675579 25.0625 29.5625 C19.84403794 33.40912949 19.84403794 33.40912949 17.6875 39.0625 C18.00145995 43.01839542 18.67450222 46.70998883 19.5625 50.5703125 C20.0175156 53.09727411 20.07293779 55.43806008 20 58 C14.75325757 56.58196151 10.29472755 54.07547762 5.5859375 51.4375 C3.41452933 50.23043322 1.23187439 49.08974149 -1 48 C-0.43410156 47.45730469 0.13179688 46.91460937 0.71484375 46.35546875 C1.44832031 45.64003906 2.18179687 44.92460938 2.9375 44.1875 C3.66839844 43.47980469 4.39929688 42.77210937 5.15234375 42.04296875 C7.63669238 39.29600399 7.96831959 37.28512373 8.375 33.625 C8.30638373 29.94786566 8.30638373 29.94786566 6.05859375 27.38671875 C2.03627343 24.24797326 -1.34465548 23.80308926 -6.3125 23.1875 C-7.14845703 23.06697266 -7.98441406 22.94644531 -8.84570312 22.82226562 C-10.89456354 22.52957128 -12.94701677 22.26221904 -15 22 C-15.33 21.01 -15.66 20.02 -16 19 C-12.04 18.505 -12.04 18.505 -8 18 C-7.73445313 17.14148438 -7.46890625 16.28296875 -7.1953125 15.3984375 C-5.98976199 11.97089192 -4.52755614 8.85826202 -2.875 5.625 C-2.33617187 4.56539062 -1.79734375 3.50578125 -1.2421875 2.4140625 C-0.83226562 1.61742187 -0.42234375 0.82078125 0 0 Z " fill="#E8B91E" transform="translate(288,58)"/>
<path d="M0 0 C1.8871875 -0.02126953 1.8871875 -0.02126953 3.8125 -0.04296875 C7 0.1875 7 0.1875 9 2.1875 C9.26069641 4.76158142 9.26069641 4.76158142 9.2746582 8.05834961 C9.28895622 9.90552834 9.28895622 9.90552834 9.30354309 11.7900238 C9.30328167 13.13996407 9.30234464 14.48990436 9.30078125 15.83984375 C9.30466699 17.21985504 9.30900141 18.59986513 9.31376648 19.97987366 C9.32123415 22.87423578 9.32093364 25.76847594 9.31567383 28.6628418 C9.30988004 32.37320238 9.32680469 36.08306363 9.3500185 39.79334164 C9.36474649 42.64407778 9.36562883 45.49469344 9.36250877 48.34546089 C9.36302252 49.71341503 9.36827027 51.08137582 9.37832069 52.44929314 C9.39064742 54.3619087 9.381964 56.27462491 9.37231445 58.18725586 C9.37294388 59.27598495 9.3735733 60.36471405 9.3742218 61.48643494 C9 64.1875 9 64.1875 7.6368866 66.07032776 C6 67.1875 6 67.1875 3.4375 67.0625 C1 66.1875 1 66.1875 -1 63.1875 C-1.24050903 60.81465149 -1.24050903 60.81465149 -1.22705078 57.98168945 C-1.22682419 56.39037956 -1.22682419 56.39037956 -1.22659302 54.766922 C-1.21627045 53.62309555 -1.20594788 52.4792691 -1.1953125 51.30078125 C-1.1924826 50.12863571 -1.18965271 48.95649017 -1.18673706 47.74882507 C-1.17552753 43.99911357 -1.15042128 40.24963951 -1.125 36.5 C-1.11497121 33.9602899 -1.10584519 31.42057607 -1.09765625 28.88085938 C-1.07558567 22.64965835 -1.04210039 16.41859614 -1 10.1875 C-1.95003906 10.21070313 -2.90007812 10.23390625 -3.87890625 10.2578125 C-7 10.1875 -7 10.1875 -8.9375 9.0625 C-10 7.1875 -10 7.1875 -9.8125 4.0625 C-9.544375 3.11375 -9.27625 2.165 -9 1.1875 C-6.02958551 -0.29770725 -3.30235553 0.0169178 0 0 Z " fill="#C2E3FE" transform="translate(479,240.8125)"/>
<path d="M0 0 C0.69416016 -0.01224609 1.38832031 -0.02449219 2.10351562 -0.03710938 C3.92470901 -0.04239842 5.7453692 0.06580793 7.5625 0.1875 C10.1705523 2.7955523 9.81541786 3.8913194 9.82128906 7.5234375 C9.82759338 8.63799316 9.83389771 9.75254883 9.84039307 10.90087891 C9.8363446 12.10921387 9.83229614 13.31754883 9.828125 14.5625 C9.83003845 15.79790527 9.8319519 17.03331055 9.83392334 18.30615234 C9.8356361 21.59341407 9.82756699 24.88048787 9.81640625 28.16772461 C9.81250397 30.1854453 9.81639171 32.20299201 9.82324219 34.22070312 C9.83556004 38.08471828 9.83410978 41.94847428 9.828125 45.8125 C9.83217346 47.02083496 9.83622192 48.22916992 9.84039307 49.47412109 C9.83408875 50.58867676 9.82778442 51.70323242 9.82128906 52.8515625 C9.81890228 54.32810303 9.81890228 54.32810303 9.81646729 55.83447266 C9.5625 58.1875 9.5625 58.1875 7.5625 60.1875 C5.0625 60.4375 5.0625 60.4375 2.5625 60.1875 C0.5625 58.1875 0.5625 58.1875 0.32199097 56.12472534 C0.32643219 55.27645172 0.33087341 54.4281781 0.33544922 53.55419922 C0.33560028 52.59335419 0.33575134 51.63250916 0.33590698 50.64254761 C0.34622955 49.60292877 0.35655212 48.56330994 0.3671875 47.4921875 C0.3700174 46.42960724 0.37284729 45.36702698 0.37576294 44.27224731 C0.38698361 40.86888501 0.41209163 37.46578314 0.4375 34.0625 C0.44752736 31.75911838 0.45665363 29.45573264 0.46484375 27.15234375 C0.48692907 21.49730655 0.52042511 15.84242187 0.5625 10.1875 C-0.84902344 10.23390625 -0.84902344 10.23390625 -2.2890625 10.28125 C-5.80099912 10.1766762 -6.909645 9.52090462 -9.4375 7.1875 C-8.32667835 -0.27087394 -7.17478416 0.00662492 0 0 Z " fill="#FEC9C0" transform="translate(31.4375,229.8125)"/>
<path d="M0 0 C4.71957756 4.04535219 9.21897458 8.07020493 13.58984375 12.45703125 C14.17923233 13.0454631 14.76862091 13.63389496 15.37586975 14.24015808 C16.60638107 15.46999481 17.83565434 16.70107144 19.0637207 17.93334961 C20.95344748 19.8284932 22.84853271 21.71816277 24.74414062 23.60742188 C25.94302962 24.80697065 27.14160892 26.00682903 28.33984375 27.20703125 C28.90847641 27.77363968 29.47710907 28.34024811 30.06297302 28.92402649 C34 32.88501282 34 32.88501282 34 34 C22.78 34 11.56 34 0 34 C0 22.78 0 11.56 0 0 Z " fill="#E5E5E5" transform="translate(361,38)"/>
<path d="M0 0 C2 2 2 2 2.265625 4.75 C2.26046875 5.8225 2.2553125 6.895 2.25 8 C2.25515625 9.0725 2.2603125 10.145 2.265625 11.25 C2 14 2 14 0 16 C-2.78588739 16.35716505 -4.33736314 16.48867492 -6.63671875 14.79296875 C-8.4329273 12.43061997 -8.40127314 10.94259208 -8.375 8 C-8.38273437 7.13375 -8.39046875 6.2675 -8.3984375 5.375 C-7.56833249 0.42692306 -4.68203743 -0.60026121 0 0 Z " fill="#C1E3FE" transform="translate(486,318)"/>
<path d="M0 0 C2.375 0.6875 2.375 0.6875 3.375 1.6875 C3.54296875 3.68359375 3.54296875 3.68359375 3.5625 6.125 C3.57667969 6.92808594 3.59085938 7.73117187 3.60546875 8.55859375 C3.375 10.6875 3.375 10.6875 1.375 12.6875 C-1.125 12.9375 -1.125 12.9375 -3.625 12.6875 C-6.05022207 10.26227793 -5.92129254 9.5154321 -5.9375 6.1875 C-5.95425781 5.3934375 -5.97101562 4.599375 -5.98828125 3.78125 C-5.80845703 2.74484375 -5.80845703 2.74484375 -5.625 1.6875 C-2.625 -0.3125 -2.625 -0.3125 0 0 Z " fill="#FEC5BA" transform="translate(37.625,310.3125)"/>
</svg>
