<svg width="24" height="24" viewBox="0 0 24 24" fill="none" xmlns="http://www.w3.org/2000/svg">
<path d="M2.5 12C2.5 7.52166 2.5 5.28249 3.89124 3.89124C5.28249 2.5 7.52166 2.5 12 2.5C16.4783 2.5 18.7175 2.5 20.1088 3.89124C21.5 5.28249 21.5 7.52166 21.5 12C21.5 16.4783 21.5 18.7175 20.1088 20.1088C18.7175 21.5 16.4783 21.5 12 21.5C7.52166 21.5 5.28249 21.5 3.89124 20.1088C2.5 18.7175 2.5 16.4783 2.5 12Z" stroke="white" stroke-width="1.5" stroke-linejoin="round"/>
<path d="M6.75098 11.985V9.00492C6.75098 8.72282 6.98253 8.49414 7.26815 8.49414H9.24595C9.68584 8.49414 10.1379 8.56982 10.4657 8.8595C10.8164 9.16935 11.1565 9.64935 11.1396 10.2909C11.12 11.0391 10.5737 11.9234 9.77329 11.985C8.97284 12.0466 8.22078 11.985 6.75098 11.985ZM6.75098 11.985V14.9675C6.75098 15.2496 6.98256 15.478 7.26817 15.4808C8.40884 15.4917 9.07252 15.5322 9.77329 15.4783C10.5737 15.4166 11.12 14.5323 11.1396 13.7841C11.1565 13.1426 10.8164 12.6626 10.4657 12.3527C10.1379 12.063 9.68584 11.9873 9.24595 11.9873L6.75098 11.985ZM16.7955 14.9655C16.3573 15.3901 14.2228 16.2293 13.4538 14.0205C13.3739 13.8 13.3103 13.3244 13.3474 12.957M13.3474 12.957C13.4107 12.3314 13.6868 11.4539 14.7116 11.0958C16.1792 10.583 17.1021 12.0065 17.3411 12.957H13.3474ZM14.5889 9.00095H15.9491" stroke="white" stroke-width="1.5" stroke-linecap="round" stroke-linejoin="round"/>
</svg>
