<svg width="30" height="30" viewBox="0 0 30 30" fill="none" xmlns="http://www.w3.org/2000/svg">
<g clip-path="url(#clip0_1603_644)">
<path d="M22.5 20L24.7997 21.9823C25.7666 22.8156 26.25 23.2322 26.25 23.75C26.25 24.2678 25.7666 24.6844 24.7997 25.5177L22.5 27.5" stroke="white" stroke-width="1.875" stroke-linecap="round" stroke-linejoin="round"/>
<path d="M17.5 20L15.2003 21.9823C14.2334 22.8156 13.75 23.2322 13.75 23.75C13.75 24.2678 14.2334 24.6844 15.2003 25.5177L17.5 27.5" stroke="white" stroke-width="1.875" stroke-linecap="round" stroke-linejoin="round"/>
<path d="M25 16.254V9.77488C25 7.6577 25 6.59911 24.665 5.75364C24.1266 4.39444 22.9878 3.3223 21.544 2.81535C20.646 2.5 19.5216 2.5 17.2728 2.5C13.3373 2.5 11.3695 2.5 9.79795 3.05185C7.27142 3.93902 5.27851 5.81525 4.33618 8.19386C3.75 9.67344 3.75 11.526 3.75 15.231V18.4137C3.75 22.2516 3.75 24.1705 4.80963 25.5031C5.11323 25.885 5.47328 26.224 5.87884 26.5097C7.01883 27.3132 8.56274 27.4696 11.25 27.5" stroke="white" stroke-width="1.875" stroke-linecap="round" stroke-linejoin="round"/>
<path d="M3.75 15C3.75 12.6988 5.61548 10.8333 7.91666 10.8333C8.7489 10.8333 9.73005 10.9792 10.5392 10.7624C11.2581 10.5697 11.8197 10.0081 12.0124 9.2892C12.2292 8.48005 12.0833 7.4989 12.0833 6.66666C12.0833 4.36548 13.9489 2.5 16.25 2.5" stroke="white" stroke-width="1.875" stroke-linecap="round" stroke-linejoin="round"/>
</g>
<defs>
<clipPath id="clip0_1603_644">
<rect width="30" height="30" fill="white"/>
</clipPath>
</defs>
</svg>