
<svg width="30" height="30" viewBox="0 0 30 30" fill="none" xmlns="http://www.w3.org/2000/svg">
<g clip-path="url(#clip0_1603_657)">
<path d="M2.5 7.5L11.1413 12.3962C14.327 14.2013 15.673 14.2013 18.8587 12.3962L27.5 7.5" stroke="white" stroke-width="1.875" stroke-linejoin="round"/>
<path d="M2.51971 16.8445C2.60143 20.6765 2.64229 22.5924 4.0562 24.0118C5.4701 25.431 7.43791 25.4804 11.3735 25.5793C13.7991 25.6403 16.2009 25.6403 18.6265 25.5793C22.5621 25.4804 24.5299 25.431 25.9439 24.0118C27.3578 22.5924 27.3986 20.6765 27.4802 16.8445C27.5066 15.6124 27.5066 14.3876 27.4802 13.1555C27.3986 9.32358 27.3578 7.40761 25.9439 5.98833C24.5299 4.56904 22.5621 4.5196 18.6265 4.42071C16.2009 4.35976 13.7991 4.35976 11.3735 4.4207C7.43791 4.51958 5.4701 4.56901 4.05619 5.98831C2.64228 7.4076 2.60142 9.32356 2.5197 13.1555C2.49342 14.3876 2.49344 15.6124 2.51971 16.8445Z" stroke="white" stroke-width="1.875" stroke-linejoin="round"/>
</g>
<defs>
<clipPath id="clip0_1603_657">
<rect width="30" height="30" fill="white"/>
</clipPath>
</defs>
</svg>
