<svg width="17" height="16" viewBox="0 0 17 16" fill="none" xmlns="http://www.w3.org/2000/svg">
<g clip-path="url(#clip0_4680_4825)">
<path d="M7.16634 13.7113C4.88063 14.4829 2.97587 13.7113 1.83301 11.333" stroke="black" stroke-width="1.5" stroke-linecap="round" stroke-linejoin="round"/>
<path d="M7.16634 14.6663V12.5049C7.16634 12.1061 7.28894 11.7594 7.48661 11.4463C7.62221 11.2314 7.52934 10.9266 7.28441 10.8593C5.25563 10.3015 3.83301 9.40481 3.83301 6.43038C3.83301 5.65708 4.08637 4.93005 4.53175 4.29727C4.64259 4.13979 4.698 4.06106 4.71133 3.98974C4.72465 3.91843 4.70149 3.82535 4.65515 3.63922C4.46659 2.88162 4.47881 2.07713 4.76182 1.35183C4.76182 1.35183 5.34662 1.16129 6.67766 1.9928C6.98155 2.18265 7.13351 2.27758 7.26734 2.29881C7.40114 2.32005 7.58007 2.27557 7.93787 2.18661C8.42721 2.06497 8.93141 1.99967 9.49967 1.99967C10.0679 1.99967 10.5721 2.06497 11.0615 2.18661C11.4193 2.27557 11.5982 2.32005 11.732 2.29881C11.8659 2.27758 12.0178 2.18265 12.3217 1.9928C13.6527 1.16129 14.2375 1.35183 14.2375 1.35183C14.5205 2.07713 14.5327 2.88162 14.3442 3.63922C14.2979 3.82535 14.2747 3.91843 14.288 3.98974C14.3013 4.06105 14.3567 4.1398 14.4676 4.29727C14.9129 4.93005 15.1663 5.65708 15.1663 6.43038C15.1663 9.40481 13.7437 10.3015 11.7149 10.8593C11.47 10.9266 11.3771 11.2314 11.5127 11.4463C11.7104 11.7594 11.833 12.1061 11.833 12.5049V14.6663" stroke="black" stroke-width="1.5" stroke-linecap="round" stroke-linejoin="round"/>
</g>
<defs>
<clipPath id="clip0_4680_4825">
<rect width="16" height="16" fill="white" transform="translate(0.5)"/>
</clipPath>
</defs>
</svg>
