<svg width="21" height="20" viewBox="0 0 21 20" fill="none" xmlns="http://www.w3.org/2000/svg">
<path d="M6.3335 8.33301V14.1663" stroke="black" stroke-width="1.5" stroke-linecap="round" stroke-linejoin="round"/>
<path d="M9.6665 10.833V14.1663M9.6665 10.833C9.6665 9.45226 10.7858 8.33301 12.1665 8.33301C13.5473 8.33301 14.6665 9.45226 14.6665 10.833V14.1663M9.6665 10.833V8.33301" stroke="black" stroke-width="1.5" stroke-linecap="round" stroke-linejoin="round"/>
<path d="M6.34001 5.83301H6.33252" stroke="black" stroke-width="2" stroke-linecap="round" stroke-linejoin="round"/>
<path d="M2.5835 9.99967C2.5835 6.26772 2.5835 4.40175 3.74286 3.24237C4.90224 2.08301 6.76821 2.08301 10.5002 2.08301C14.2321 2.08301 16.0981 2.08301 17.2575 3.24237C18.4168 4.40175 18.4168 6.26772 18.4168 9.99967C18.4168 13.7316 18.4168 15.5976 17.2575 16.757C16.0981 17.9163 14.2321 17.9163 10.5002 17.9163C6.76821 17.9163 4.90224 17.9163 3.74286 16.757C2.5835 15.5976 2.5835 13.7316 2.5835 9.99967Z" stroke="black" stroke-width="1.5" stroke-linejoin="round"/>
</svg>
