<svg xmlns="http://www.w3.org/2000/svg" xmlns:xlink="http://www.w3.org/1999/xlink" width="142" height="50" viewBox="0 0 142 50"><defs><style>.a{fill:none;}.b{clip-path:url(#a);}.c{fill:#07f;}.d{clip-path:url(#b);}</style><clipPath id="a"><path class="a" d="M0,0H142V31H0Z"/></clipPath><clipPath id="b"><path class="a" d="M0,0H66V15H0Z"/></clipPath></defs><path class="a" d="M0,0H142V31H0Z"/><g class="b"><path class="c" d="M100.49,31h-.04a14.444,14.444,0,0,1-10.49-4.519,15.655,15.655,0,0,1-4.341-10.961A15.8,15.8,0,0,1,90,4.556a14.5,14.5,0,0,1,21.063-.046l-4.181,4.353a8.685,8.685,0,0,0-6.309-2.711,8.8,8.8,0,0,0-6.391,2.757,9.554,9.554,0,0,0-2.653,6.628,9.424,9.424,0,0,0,2.609,6.593,8.7,8.7,0,0,0,6.319,2.715h.013a8.808,8.808,0,0,0,6.368-2.761l4.181,4.352A14.569,14.569,0,0,1,100.49,31Zm26.747-.025a14.6,14.6,0,0,1-9.78-3.795,15.643,15.643,0,0,1-4.978-9.379h6.035a8.93,8.93,0,0,0,17.446,0H142a15.639,15.639,0,0,1-4.978,9.379A14.606,14.606,0,0,1,127.237,30.975ZM17.6,30.752H11.691V.258h6.561L32.142,21V.258h5.914V30.75h-6.6L17.6,10.058V30.751Zm63.1,0H74.789V17.8H80.7V30.75Zm-74.789,0H0V.258H5.914V30.75Zm49.91-.033H43.93V.291H55.824C63.917.291,70.5,7.116,70.5,15.5S63.917,30.718,55.824,30.718ZM49.844,6.446V24.562h5.98A8.924,8.924,0,0,0,64.587,15.5a8.924,8.924,0,0,0-8.762-9.058ZM129.466,17.8h-4.391V13.23h4.391V17.8Zm-10.957-4.57h-6.034a15.643,15.643,0,0,1,4.974-9.394,14.5,14.5,0,0,1,19.577,0A15.643,15.643,0,0,1,142,13.229h-6.034a8.93,8.93,0,0,0-17.456,0Zm-37.807,0H74.788V.258H80.7V13.229Z" transform="translate(0 0)"/></g><g transform="translate(75 35)"><path class="a" d="M0,0H66V15H0Z"/><g class="d"><path d="M43.338,15H39.915V3.162H35.753V0H47.5V3.162H43.338V15Zm11.3-.025H51L56.467.009H60.53L66,14.973H62.36l-.909-2.489h-5.9l-.91,2.489ZM58.5,4.408,56.7,9.324H60.3ZM21.223,14.975H17.583L23.054.009h4.063l5.468,14.964H28.946l-.91-2.489h-5.9l-.91,2.489ZM25.085,4.408l-1.8,4.916h3.592ZM6.184,14.967H0V.023H6.184a7.534,7.534,0,0,1,7.578,7.472A7.534,7.534,0,0,1,6.184,14.967ZM3.422,3.411v8.167H6.184a4.124,4.124,0,0,0,4.155-4.083A4.124,4.124,0,0,0,6.184,3.411Z"/></g></g></svg>