<svg xmlns="http://www.w3.org/2000/svg" width="100px" viewBox="0 0 113 48"><defs><clipPath id="b"><path d="M0 0h113v48H0Z"/></clipPath><clipPath id="c"><path fill="#fff" d="M0 .006h113v48H0Z"/></clipPath><clipPath id="a"><path d="M0 0h113v48H0z"/></clipPath></defs><g clip-path="url(#a)"><g fill="#fff" clip-path="url(#b)"><g clip-path="url(#c)" transform="translate(0 -.006)"><path d="M107 .006v11H96v-11h-7v11H78v7h11v11h7v-11h11v11h6v-29Zm-107 22h7v7H0Zm40-11h11v7H40Zm16-11H33v11h7v-5h16Zm-23 18v11h23v-7H40v-4Z"/><path d="M81 22.006H67v-16h13l4-6H63l-3 6v16l4 7h20Zm-52-22H5v6h9v23h7v-23h9v-6Z"/></g><path d="M37.535 46.173h-1.976v-8.475h1.976c1.936 0 3.991.321 3.991 4.238s-2.055 4.238-3.991 4.238m0-10.062h-3.734v11.689h3.734c2.469 0 5.749-.6 5.749-5.844s-3.279-5.844-5.749-5.844m12.761 10.22c-2.272 0-3.635-1.647-3.635-4.4s1.363-4.4 3.635-4.4c2.252 0 3.6 1.647 3.6 4.4s-1.343 4.4-3.6 4.4m0-10.383c-3.22 0-5.393 2.41-5.393 5.985 0 3.595 2.173 6.005 5.393 6.005 3.2 0 5.354-2.41 5.354-6.005 0-3.575-2.153-5.985-5.354-5.985m13.276 10.966-3.124-10.805h-3V47.78h1.758v-9.9l2.9 9.9h2.924l2.884-9.9v9.9h1.778V36.111h-2.983Zm11.181-5.121 1.521-4.84 1.521 4.84Zm.04-5.684L71.079 47.8h1.8l1.383-4.378h4.07l1.383 4.378h1.778l-3.697-11.689Zm8.1 1.587h2.469v8.475h-2.469v1.607h6.677v-1.607h-2.45v-8.475h2.45v-1.587h-6.677Zm16.831 8.535.079.382-5.354-10.5h-2.963v11.669h1.758V37.657l-.059-.382 5.314 10.5h2.963V36.111h-1.738Zm8.831-5.242c-.158-.04-.3-.1-.454-.141-1.916-.6-2.608-.984-2.608-1.948 0-.582.237-1.366 2.39-1.366 2.548 0 2.825 1.747 2.825 2.49v.241h1.758v-.241c0-1.968-1.205-4.077-4.6-4.077-3.418 0-4.149 1.627-4.149 3.013 0 2.129 1.62 2.792 3.911 3.495.2.06.375.12.573.161 1.521.442 2.944.844 2.944 2.169 0 .763-.316 1.567-2.706 1.567-2.193 0-3.457-.482-3.457-2.992v-.241h-1.761v.241c0 3.133 1.659 4.6 5.215 4.6 2.963 0 4.465-1.085 4.465-3.233.02-2.37-2.292-3.093-4.346-3.736"/></g></g></svg>