<svg width="121" height="61" viewBox="0 0 121 61" fill="none" xmlns="http://www.w3.org/2000/svg">
<path fill-rule="evenodd" clip-rule="evenodd" d="M8.58984 43.5902C8.58984 45.5082 10.1448 47.0632 12.0628 47.0632H109.3C111.218 47.0632 112.773 45.5082 112.773 43.5902V17.2543C112.773 15.3363 111.218 13.7812 109.3 13.7812H12.0718C10.1538 13.7812 8.59884 15.3363 8.59884 17.2543L8.58984 43.5902Z" fill="white"/>
<path d="M25.2141 35.9L25.2881 33.585V22.75H26.8881V28.38H26.9251C27.4991 27.38 28.5251 26.732 29.9811 26.732C32.2041 26.732 33.7781 28.584 33.7591 31.306C33.7591 34.51 31.7391 36.103 29.7391 36.103C28.4431 36.103 27.4061 35.603 26.7391 34.418H26.6831L26.6091 35.9H25.2021H25.2141ZM26.8991 32.307C26.8991 32.511 26.9361 32.714 26.9731 32.9C27.2881 34.03 28.2331 34.808 29.4181 34.808C31.1221 34.808 32.1411 33.408 32.1411 31.363C32.1411 29.566 31.2151 28.029 29.4741 28.029C28.3741 28.029 27.3261 28.789 26.9921 30.029C26.9551 30.214 26.8991 30.436 26.8991 30.696V32.307ZM41.1991 35.9L41.0691 34.77H41.0131C40.5131 35.474 39.5501 36.104 38.2731 36.104C36.4581 36.104 35.5331 34.826 35.5331 33.53C35.5331 31.363 37.4591 30.178 40.9331 30.196V30.02C40.9331 29.28 40.7291 27.946 38.8961 27.946C38.0631 27.946 37.1921 28.206 36.5631 28.613L36.1931 27.543C36.9331 27.061 38.0081 26.747 39.1381 26.747C41.8781 26.747 42.5461 28.617 42.5461 30.414V33.766C42.5461 34.544 42.5831 35.3 42.6941 35.914L41.1991 35.9ZM40.9591 31.326C39.1811 31.289 37.1621 31.604 37.1621 33.346C37.1621 34.402 37.8661 34.902 38.6991 34.902C39.8661 34.902 40.5991 34.162 40.8661 33.402C40.9239 33.2349 40.9553 33.0598 40.9591 32.883V31.326ZM45.4341 22.751H47.0641V35.901H45.4341V22.751ZM49.7621 34.233C50.2442 34.548 51.0951 34.881 51.9101 34.881C53.0951 34.881 53.6501 34.288 53.6501 33.547C53.6501 32.769 53.1871 32.343 51.9831 31.899C50.3831 31.325 49.6101 30.436 49.6101 29.362C49.6101 27.917 50.7771 26.732 52.7031 26.732C53.6111 26.732 54.4071 26.992 54.9071 27.288L54.5001 28.473C53.9491 28.1334 53.3145 27.9537 52.6671 27.954C51.7041 27.954 51.1671 28.51 51.1671 29.176C51.1671 29.916 51.7041 30.25 52.8711 30.696C54.4271 31.289 55.2231 32.066 55.2231 33.4C55.2231 34.974 54.0011 36.086 51.8711 36.086C50.8891 36.086 49.9711 35.846 49.3511 35.478L49.7621 34.233ZM62.7621 35.9L62.6321 34.77H62.5761C62.0761 35.474 61.1131 36.104 59.8361 36.104C58.0211 36.104 57.0961 34.826 57.0961 33.53C57.0961 31.363 59.0221 30.178 62.4961 30.196V30.02C62.4961 29.28 62.2921 27.946 60.4591 27.946C59.6261 27.946 58.7551 28.206 58.1261 28.613L57.7561 27.543C58.4962 27.061 59.5711 26.747 60.7011 26.747C63.4412 26.747 64.1091 28.617 64.1091 30.414V33.766C64.1091 34.544 64.1461 35.3 64.2571 35.914L62.7621 35.9ZM62.5221 31.326C60.7441 31.289 58.7251 31.604 58.7251 33.346C58.7251 34.402 59.4291 34.902 60.2621 34.902C61.4282 34.902 62.1702 34.162 62.4291 33.402C62.487 33.2349 62.5183 33.0598 62.5221 32.883V31.326ZM66.9841 29.363L66.9101 26.937H68.3362L68.4101 28.382H68.4681C68.9681 27.53 69.8022 26.734 71.2831 26.734C72.5051 26.734 73.4311 27.474 73.8201 28.531H73.8571C74.1351 28.031 74.4871 27.631 74.8571 27.364C75.3941 26.957 75.9872 26.734 76.8372 26.734C78.0222 26.734 79.7822 27.512 79.7822 30.634V35.914H78.1891V30.838C78.1891 29.116 77.5591 28.078 76.2441 28.078C75.3181 28.078 74.5961 28.763 74.3181 29.56C74.2441 29.782 74.1881 30.08 74.1881 30.375V35.913H72.5951V30.543C72.5951 29.117 71.9652 28.083 70.7252 28.083C69.7052 28.083 68.9651 28.898 68.7051 29.713C68.614 29.9683 68.57 30.238 68.5751 30.509V35.917H66.9821V29.377L66.9841 29.363ZM84.5101 24.418C84.5281 24.974 84.1101 25.418 83.4731 25.418C82.8991 25.418 82.4911 24.973 82.4911 24.418C82.4871 24.2831 82.5107 24.1488 82.5605 24.0233C82.6103 23.8979 82.6852 23.784 82.7807 23.6885C82.8761 23.5931 82.99 23.5182 83.1155 23.4684C83.2409 23.4186 83.3752 23.395 83.5101 23.399C84.1101 23.399 84.5101 23.844 84.5101 24.419V24.418ZM82.6901 35.9V26.936H84.3201V35.9H82.6901ZM93.4671 34.5H93.4301C92.9481 35.4 91.9482 36.093 90.5071 36.093C88.4151 36.093 86.7102 34.278 86.7102 31.555C86.7102 28.203 88.8772 26.721 90.7662 26.721C92.1662 26.721 93.0811 27.406 93.5261 28.277H93.5631L93.6211 26.927H95.1581L95.1031 29.39V39.557H93.4731V34.52L93.4671 34.5ZM93.4671 30.556C93.4671 30.334 93.4492 30.074 93.3932 29.871C93.1532 28.871 92.2932 28.019 91.0602 28.019C89.3752 28.019 88.3561 29.445 88.3561 31.464C88.3561 33.242 89.2082 34.798 91.0042 34.798C92.0602 34.798 92.9671 34.15 93.3372 33.02C93.4178 32.7683 93.4616 32.5062 93.4671 32.242V30.556Z" fill="black"/>
</svg>
