<svg width="265" height="53" viewBox="0 0 265 53" fill="none" xmlns="http://www.w3.org/2000/svg">
<g clip-path="url(#clip0_6995_1532)">
<path d="M67.8978 17.016C67.6379 12.5977 67.5079 10.0854 67.5079 9.47897C67.5079 6.76447 70.1358 5.40723 75.3915 5.40723C79.0589 5.40723 81.9178 6.15804 83.9681 7.65968C86.0184 9.16131 87.0436 11.0384 87.0436 13.2908C87.0436 15.5433 85.9174 17.6513 83.6649 19.615C87.5056 21.7231 89.426 24.5242 89.426 28.0184C89.426 30.3863 88.6968 32.4294 87.2385 34.1476C85.7802 35.8659 83.9104 37.1365 81.6291 37.9595C79.3477 38.7825 76.9942 39.194 74.5685 39.194C72.1428 39.194 69.9192 38.8764 67.8978 38.241C65.8763 37.6057 64.3025 36.8694 63.1763 36.0319C62.0501 35.1945 61.4869 34.4942 61.4869 33.9311C61.4869 33.368 61.6385 32.942 61.9418 32.6532C62.245 32.3645 62.5915 32.2201 62.9814 32.2201C63.3712 32.2201 64.0137 32.5449 64.9089 33.1947C65.8041 33.8444 67.0387 34.5014 68.6125 35.1656C70.1863 35.8298 71.9984 36.1619 74.0487 36.1619C77.4562 36.1619 80.2935 35.4038 82.5604 33.8878C84.8272 32.3717 85.9607 30.4441 85.9607 28.105C85.9607 26.7478 85.5564 25.4916 84.7478 24.3365C83.9393 23.1814 82.8419 22.2573 81.4558 21.5642C78.4814 23.7589 75.0016 25.1162 71.0165 25.636L71.1898 31.1805C71.1898 31.8447 71.0382 32.3789 70.735 32.7832C70.4318 33.1875 70.013 33.3896 69.4788 33.3896C68.9446 33.3896 68.5114 33.1875 68.1793 32.7832C67.8472 32.3789 67.6812 31.8447 67.6812 31.1805L67.8978 25.7659C65.9052 25.6793 64.4036 25.21 63.3929 24.3581C62.3821 23.5063 61.8768 22.5461 61.8768 21.4776C61.8768 20.4091 62.3966 19.4706 63.4362 18.662C64.4758 17.8535 65.963 17.3048 67.8978 17.016ZM70.9299 9.43565C70.9299 11.3993 70.9588 13.8395 71.0165 16.7561C74.5396 16.7561 77.8461 17.3048 80.936 18.4021C82.8708 16.9294 83.8382 15.305 83.8382 13.529C83.8382 11.7531 83.109 10.4608 81.6507 9.65223C80.1924 8.84366 78.3875 8.43937 76.2362 8.43937C74.0848 8.43937 72.316 8.77147 70.9299 9.43565ZM70.9299 19.7016V22.6905C72.1139 22.6616 73.5 22.4161 75.0883 21.9541C76.6765 21.492 77.9038 20.9722 78.7702 20.3947C77.1819 19.8749 74.9728 19.615 72.1428 19.615C71.5363 19.615 71.1321 19.6439 70.9299 19.7016ZM67.9411 22.8637V19.9182C65.8908 20.1492 64.8656 20.6257 64.8656 21.3477C64.8656 22.3006 65.8908 22.806 67.9411 22.8637ZM108.117 25.8959C109.287 25.2317 109.872 24.3365 109.872 23.2103C109.872 22.084 109.489 21.1094 108.724 20.2864C107.959 19.4634 106.868 19.0519 105.453 19.0519C103.547 19.0519 101.945 19.7666 100.645 21.196C99.3458 22.6255 98.5083 24.2932 98.1329 26.1991C99.7212 26.6611 101.49 26.8922 103.439 26.8922C105.388 26.8922 106.948 26.5601 108.117 25.8959ZM110.76 18.1856C112.218 19.4851 112.947 21.1744 112.947 23.2536C112.947 25.3328 112.045 26.9138 110.24 27.9967C108.435 29.0796 106.219 29.6211 103.59 29.6211C102.089 29.6211 100.255 29.4045 98.0893 28.9713C98.2625 30.9928 99.0206 32.7326 100.363 34.191C101.706 35.6493 103.201 36.3784 104.847 36.3784C105.828 36.3784 106.738 36.2413 107.576 35.9669C108.413 35.6926 109.048 35.3966 109.481 35.079C110.637 34.1837 111.395 33.7361 111.756 33.7361C112.117 33.7361 112.405 33.8444 112.622 34.061C112.839 34.2776 112.947 34.5447 112.947 34.8624C112.947 35.6709 112.117 36.595 110.456 37.6346C108.796 38.6742 106.998 39.194 105.063 39.194C102.06 39.194 99.6775 38.14 97.916 36.0319C96.1545 33.9238 95.2015 31.3826 95.0571 28.4082C93.5266 27.9462 92.7614 27.1954 92.7614 26.1558C92.7614 25.7226 92.8841 25.3833 93.1296 25.1378C93.375 24.8924 93.671 24.7697 94.0175 24.7697C94.3641 24.7697 94.7972 24.8996 95.317 25.1595C95.9523 22.5605 97.158 20.4236 98.9339 18.7487C100.71 17.0738 102.76 16.2363 105.085 16.2363C107.41 16.2363 109.301 16.8861 110.76 18.1856ZM131.465 25.8959C132.634 25.2317 133.219 24.3365 133.219 23.2103C133.219 22.084 132.837 21.1094 132.071 20.2864C131.306 19.4634 130.216 19.0519 128.801 19.0519C126.895 19.0519 125.292 19.7666 123.993 21.196C122.693 22.6255 121.856 24.2932 121.48 26.1991C123.069 26.6611 124.837 26.8922 126.787 26.8922C128.736 26.8922 130.295 26.5601 131.465 25.8959ZM134.107 18.1856C135.565 19.4851 136.295 21.1744 136.295 23.2536C136.295 25.3328 135.392 26.9138 133.587 27.9967C131.783 29.0796 129.566 29.6211 126.938 29.6211C125.436 29.6211 123.603 29.4045 121.437 28.9713C121.61 30.9928 122.368 32.7326 123.711 34.191C125.054 35.6493 126.548 36.3784 128.194 36.3784C129.176 36.3784 130.086 36.2413 130.923 35.9669C131.761 35.6926 132.396 35.3966 132.829 35.079C133.984 34.1837 134.742 33.7361 135.103 33.7361C135.464 33.7361 135.753 33.8444 135.969 34.061C136.186 34.2776 136.294 34.5447 136.294 34.8624C136.294 35.6709 135.464 36.595 133.804 37.6346C132.143 38.6742 130.346 39.194 128.411 39.194C125.407 39.194 123.025 38.14 121.264 36.0319C119.502 33.9238 118.549 31.3826 118.405 28.4082C116.874 27.9462 116.109 27.1954 116.109 26.1558C116.109 25.7226 116.232 25.3833 116.477 25.1378C116.723 24.8924 117.019 24.7697 117.365 24.7697C117.712 24.7697 118.145 24.8996 118.665 25.1595C119.3 22.5605 120.506 20.4236 122.281 18.7487C124.057 17.0738 126.108 16.2363 128.432 16.2363C130.757 16.2363 132.649 16.8861 134.107 18.1856ZM157.736 34.0827C158.458 34.0827 158.819 34.4653 158.819 35.2306C158.819 35.9958 157.981 36.8477 156.306 37.7862C154.632 38.7247 152.87 39.194 151.022 39.194C147.99 39.194 145.463 38.075 143.442 35.837C141.42 33.599 140.409 30.8916 140.409 27.7149C140.409 24.5381 141.427 21.8307 143.463 19.5927C145.499 17.3547 148.178 16.2357 151.499 16.2357C153.318 16.2357 154.928 16.6472 156.328 17.4702C157.729 18.2932 158.429 19.1379 158.429 20.0042C158.429 20.4663 158.285 20.8489 157.996 21.1521C157.707 21.4553 157.375 21.6069 157 21.6069C156.624 21.6069 156.191 21.3903 155.7 20.9572C154.199 19.6866 152.668 19.0513 151.109 19.0513C149.116 19.0513 147.376 19.8887 145.889 21.5636C144.402 23.2385 143.658 25.2744 143.658 27.6712C143.658 30.0681 144.409 32.1184 145.911 33.8221C147.413 35.5259 149.275 36.3778 151.499 36.3778C153.202 36.3778 154.863 35.8003 156.48 34.6452C157.029 34.2697 157.447 34.082 157.736 34.082L157.736 34.0827ZM176.86 25.8959C178.03 25.2317 178.615 24.3365 178.615 23.2103C178.615 22.084 178.232 21.1094 177.467 20.2864C176.702 19.4634 175.611 19.0519 174.196 19.0519C172.291 19.0519 170.688 19.7666 169.388 21.196C168.089 22.6255 167.251 24.2932 166.876 26.1991C168.464 26.6611 170.233 26.8922 172.182 26.8922C174.131 26.8922 175.691 26.5601 176.86 25.8959ZM179.503 18.1856C180.961 19.4851 181.69 21.1744 181.69 23.2536C181.69 25.3328 180.788 26.9138 178.983 27.9967C177.178 29.0796 174.962 29.6211 172.334 29.6211C170.832 29.6211 168.998 29.4045 166.832 28.9713C167.006 30.9928 167.764 32.7326 169.106 34.191C170.449 35.6493 171.944 36.3784 173.59 36.3784C174.572 36.3784 175.481 36.2413 176.319 35.9669C177.156 35.6926 177.791 35.3966 178.225 35.079C179.38 34.1837 180.138 33.7361 180.499 33.7361C180.86 33.7361 181.148 33.8444 181.365 34.061C181.582 34.2776 181.69 34.5447 181.69 34.8624C181.69 35.6709 180.86 36.595 179.199 37.6346C177.539 38.6742 175.741 39.194 173.806 39.194C170.803 39.194 168.421 38.14 166.659 36.0319C164.898 33.9238 163.945 31.3826 163.8 28.4082C162.27 27.9462 161.504 27.1954 161.504 26.1558C161.504 25.7226 161.627 25.3833 161.873 25.1378C162.118 24.8924 162.414 24.7697 162.761 24.7697C163.107 24.7697 163.54 24.8996 164.06 25.1595C164.695 22.5605 165.901 20.4236 167.677 18.7487C169.453 17.0738 171.503 16.2363 173.828 16.2363C176.153 16.2363 178.044 16.8861 179.503 18.1856ZM201.161 33.6062C202.561 31.9024 203.262 29.9026 203.262 27.6069C203.262 25.3111 202.756 23.3474 201.746 21.7158C200.735 20.0843 199.363 19.2685 197.631 19.2685C194.598 19.2685 192.101 21.7664 190.137 26.7622V33.6495C191.87 35.3244 193.92 36.1619 196.288 36.1619C198.136 36.1619 199.76 35.31 201.161 33.6062ZM187.451 30.3141L187.494 28.6681V27.9751C187.494 26.7622 187.364 24.9862 187.104 22.6472C186.845 20.3081 186.715 18.8858 186.715 18.3805C186.715 17.8751 186.866 17.4275 187.169 17.0377C187.473 16.6478 187.884 16.4529 188.404 16.4529C188.924 16.4529 189.335 16.6478 189.638 17.0377C189.942 17.4275 190.093 17.8679 190.093 18.3588C190.093 18.8497 190.086 19.4634 190.072 20.1998C190.057 20.9362 190.05 21.5498 190.05 22.0407C191.003 20.2792 192.071 18.9075 193.255 17.9257C194.439 16.9438 195.97 16.4529 197.847 16.4529C199.724 16.4529 201.341 17.0593 202.698 18.2722C204.056 19.4851 205.023 20.8856 205.601 22.4739C206.178 24.0622 206.467 25.6504 206.467 27.2387C206.467 30.3863 205.514 33.1297 203.608 35.4688C201.702 37.8079 199.262 38.9774 196.288 38.9774C194.122 38.9774 192.071 38.2699 190.137 36.8549C190.079 40.3491 190.05 42.9409 190.05 44.6302C190.05 46.3196 189.906 47.388 189.617 47.8356C189.328 48.2832 188.88 48.507 188.274 48.507C187.668 48.507 187.169 48.2544 186.78 47.749C186.39 47.2436 186.195 46.5145 186.195 45.5615C186.195 44.6086 186.253 43.4751 186.368 42.1612C186.484 40.8473 186.657 39.1146 186.888 36.9632C187.119 34.8118 187.307 32.8698 187.451 31.1372V30.3141ZM216.43 19.5284L216.343 29.7944C216.343 32.4222 216.451 34.1404 216.668 34.949C216.884 35.7576 217.455 36.1619 218.379 36.1619C218.812 36.1619 219.339 36.0103 219.96 35.707C220.581 35.4038 220.992 35.2522 221.194 35.2522C221.801 35.2522 222.104 35.5482 222.104 36.1402C222.104 36.7322 221.57 37.3531 220.501 38.0028C219.433 38.6526 218.379 38.9774 217.339 38.9774C214.827 38.9774 213.571 37.1293 213.571 33.4329L213.527 19.5284C212.574 19.615 211.91 19.6583 211.535 19.6583C210.091 19.6583 209.369 19.1818 209.369 18.2289C209.369 17.2759 210.091 16.7994 211.535 16.7994C211.65 16.7994 212.286 16.8283 213.441 16.8861L213.354 12.0346C213.354 10.5908 213.903 9.86882 215 9.86882C216.098 9.86882 216.646 10.5908 216.646 12.0346L216.516 16.9294L220.025 16.7561C221.469 16.7561 222.191 17.247 222.191 18.2289C222.191 19.153 221.469 19.615 220.025 19.615C219.765 19.615 218.567 19.5861 216.43 19.5284ZM242.376 27.6719C242.376 25.275 241.705 23.2391 240.362 21.5642C239.019 19.8893 237.351 19.0519 235.359 19.0519C233.366 19.0519 231.67 19.9038 230.269 21.6076C228.869 23.3113 228.168 25.3616 228.168 27.7585C228.168 30.1553 228.84 32.1912 230.183 33.8661C231.525 35.541 233.193 36.3784 235.186 36.3784C237.178 36.3784 238.875 35.5266 240.275 33.8228C241.676 32.119 242.376 30.0687 242.376 27.6719ZM242.593 19.5497C244.499 21.7588 245.452 24.4661 245.452 27.6715C245.452 30.8769 244.484 33.5988 242.549 35.837C240.615 38.0752 238.174 39.1942 235.229 39.194C232.283 39.1938 229.858 38.0892 227.952 35.8803C226.046 33.6714 225.093 30.964 225.093 27.7582C225.093 24.5523 226.053 21.8305 227.973 19.5927C229.894 17.3549 232.334 16.2359 235.294 16.2357C238.254 16.2355 240.687 17.3404 242.593 19.5497ZM253.898 28.6248L254.028 36.7683C254.028 38.241 253.48 38.9774 252.382 38.9774C251.054 38.9774 250.39 37.9595 250.39 35.9236C250.39 33.8878 250.678 31.036 251.256 27.3683C251.256 26.1555 251.133 24.495 250.888 22.3869C250.642 20.2789 250.52 18.9649 250.52 18.4451C250.52 17.9253 250.671 17.4633 250.974 17.059C251.278 16.6547 251.689 16.4526 252.209 16.4526C252.729 16.4526 253.14 16.6547 253.443 17.059C253.747 17.4633 253.898 17.9037 253.898 18.3802C253.898 18.8567 253.891 19.4631 253.877 20.1995C253.862 20.9358 253.855 21.5495 253.855 22.0404C254.433 20.5676 255.335 19.2682 256.562 18.1419C257.79 17.0157 259.053 16.4526 260.352 16.4526C261.652 16.4526 262.655 16.7197 263.363 17.2539C264.07 17.7882 264.424 18.3585 264.424 18.9649C264.424 19.5714 264.265 20.0479 263.948 20.3944C263.63 20.7409 263.219 20.9142 262.713 20.9142C262.208 20.9142 261.659 20.6471 261.067 20.1128C260.475 19.5786 260.006 19.3115 259.659 19.3115C258.706 19.3115 257.595 20.3366 256.324 22.3869C255.053 24.4372 254.245 26.5167 253.898 28.6248Z" fill="#FB00B2"/>
<path fill-rule="evenodd" clip-rule="evenodd" d="M40.1658 1.45564C41.7571 0.957032 43.3191 1.03467 44.8523 1.68568C46.0025 2.10666 47.182 2.86522 48.3892 3.95676C49.4054 4.935 50.2295 5.9121 50.8621 6.88977C51.6097 8.1941 51.9933 9.3926 52.0123 10.4841C52.0704 11.6735 51.7633 12.8035 51.0921 13.8772C50.6131 14.6634 49.9132 15.4306 48.993 16.1776C47.8428 17.0978 46.3671 17.9702 44.5648 18.7949C42.5329 19.6576 40.1371 20.3954 37.376 21.0091C36.3408 21.2201 35.3735 21.3921 34.4717 21.5266C36.4081 22.2162 38.1622 23.1944 39.7339 24.4597C41.1527 25.6288 42.3316 27.0769 43.2702 28.8022C44.0949 30.3544 44.6412 31.9935 44.9098 33.7188C45.4849 37.266 45.2934 40.3428 44.3347 42.9497C44.0472 43.6968 43.7211 44.3392 43.357 44.8763C44.4112 46.0075 45.0726 46.9271 45.3411 47.6374C45.4751 48.0393 45.4849 48.3079 45.3699 48.4413C45.2359 48.5569 44.9673 48.538 44.5648 48.3838C43.8752 48.1538 42.9832 47.5315 41.8911 46.5148L41.8048 46.5723C41.1722 47.0709 40.5396 47.4159 39.907 47.608C39.1979 47.8576 38.5268 47.991 37.8942 48.01C36.7629 48.029 35.5363 47.7616 34.2135 47.206C33.3129 46.8029 32.3738 46.2468 31.3961 45.5382C30.0924 44.5991 28.7219 43.3333 27.2841 41.7426C25.4628 39.6521 23.8721 37.4103 22.5108 35.0133C21.9932 34.0932 21.4756 33.0488 20.958 31.8796C20.958 33.5669 20.6895 35.704 20.1535 38.292C19.5594 40.9564 18.8112 43.3431 17.9106 45.4514C17.144 47.2147 16.2715 48.7007 15.2939 49.9084C14.6227 50.7521 13.8561 51.4324 12.9935 51.9506C11.9393 52.6401 10.7891 52.957 9.54287 52.8984C8.37369 52.8029 7.20393 52.3906 6.03418 51.6631C5.28655 51.2409 4.30888 50.4162 3.10117 49.1896C1.98892 47.9439 1.23209 46.7557 0.82952 45.6245C0.235442 44.1091 0.16873 42.5466 0.628235 40.9374C0.992274 39.5951 1.80719 38.1954 3.07241 36.7386C4.0311 35.6459 5.25779 34.544 6.75248 33.4318C9.0339 31.7445 12.0825 29.972 15.8966 28.1121L16.2129 27.9402H16.1272C14.4784 27.6906 12.9452 26.8854 11.5264 25.5242C10.6827 24.6236 10.0024 23.6551 9.48421 22.6205C8.8516 21.1638 8.57382 19.7732 8.65089 18.451L8.67964 18.221C7.91303 17.7034 7.11709 17.5113 6.29297 17.6459C6.21649 17.6269 6.13022 17.6355 6.03418 17.674C5.86165 17.7327 5.76561 17.7603 5.74663 17.7603L5.28655 17.8759C5.21006 17.9139 4.98002 18.0197 4.59643 18.1916C4.30888 18.3837 4.05986 18.4982 3.8488 18.5367L3.61933 18.566C3.5808 18.5281 3.56125 18.4516 3.56125 18.336C3.56125 18.1059 3.65729 17.7902 3.8488 17.3871C4.04031 17.1185 4.25137 16.8706 4.48198 16.64C4.50096 16.621 4.68327 16.4859 5.02775 16.2369C5.18188 16.1414 5.29633 16.0741 5.37339 16.0356C5.52694 15.9401 5.66094 15.8826 5.77596 15.8636C6.25502 15.7291 6.5903 15.6526 6.78238 15.6336H7.93259C8.37369 15.7101 8.77626 15.8245 9.1403 15.9787C9.35136 15.3846 9.77291 14.6272 10.4055 13.7076C10.9996 12.8829 11.661 12.2112 12.3896 11.6947C12.8497 11.3681 13.2229 11.1478 13.5105 11.0334C13.319 10.3237 13.338 9.62379 13.5686 8.93425C13.7601 8.22573 14.0856 7.64027 14.5462 7.17962C15.1593 6.52803 15.85 6.18354 16.6166 6.14501C17.0002 6.12603 17.3067 6.18297 17.5368 6.31697L17.6805 6.46074L17.5661 6.66318C17.5276 6.72069 17.3361 6.88344 16.991 7.15201C16.4734 7.65063 16.1381 8.05262 15.9846 8.35972C15.5429 9.04927 15.4192 9.74917 15.6108 10.4588C16.6845 10.3432 17.7674 10.487 18.8601 10.8902C19.9142 11.3111 20.8919 11.9156 21.7931 12.7017C22.7132 13.5253 23.4511 14.5121 24.0072 15.6623C24.6404 16.8712 24.9849 18.1456 25.043 19.4868C25.0809 19.8123 25.0527 20.235 24.9567 20.7526L26.1644 20.465C26.1454 20.1188 26.2127 19.6599 26.3663 19.0848C26.5768 18.3366 26.8741 17.5504 27.2577 16.7269C29.117 12.9111 30.8998 9.84463 32.6061 7.52525C33.7373 6.02884 34.849 4.80273 35.9417 3.84461C37.338 2.63518 38.747 1.83866 40.1658 1.45564ZM44.1052 3.58409C42.974 3.16197 41.8336 3.12344 40.6834 3.4685C39.6482 3.75605 38.5268 4.43696 37.3191 5.51068C36.3604 6.33422 35.3637 7.45624 34.3285 8.87501C32.7947 10.9833 31.108 13.9163 29.2677 17.6735C28.8651 18.5171 28.443 19.2458 28.0024 19.8594C27.8874 20.0136 27.7822 20.1573 27.6861 20.2908L28.4913 20.3201C29.948 20.3776 31.3564 20.5887 32.7183 20.9527C34.4246 20.6076 35.9101 20.262 37.1753 19.9169C39.7632 19.1699 42.0349 18.3164 43.9902 17.3583C45.6011 16.5722 46.9238 15.7285 47.9584 14.8279C49.5687 13.3901 50.2968 11.942 50.1438 10.4853C50.0863 9.70028 49.7602 8.82728 49.1661 7.86916C48.7452 7.19745 48.0263 6.3739 47.0095 5.39566C45.9933 4.51345 45.0254 3.91017 44.1052 3.58409ZM27.8868 26.9332C27.4268 27.3352 27.0052 27.7475 26.6222 28.1685L25.7595 29.0605C25.1844 29.731 24.8009 30.0565 24.6093 30.0376C24.5708 30.0376 24.5513 29.9421 24.5513 29.75C24.5702 29.4625 24.6663 29.0311 24.8388 28.456C24.9349 28.2076 25.1264 27.8044 25.4139 27.2483C25.7595 26.6922 26.1426 26.1556 26.5641 25.6386C27.1777 24.8904 28.2319 23.8943 29.7272 22.6475L25.7877 22.3893C25.1741 22.3318 24.3598 22.2547 23.3435 22.1593C23.152 21.9672 23.0175 21.5945 22.941 21.0384L22.826 19.6006C22.788 18.5839 22.5286 17.597 22.0496 16.6389C21.6085 15.7572 21.0242 14.9711 20.2955 14.281C19.5864 13.6472 18.8284 13.1779 18.0239 12.8714C17.1802 12.5838 16.3751 12.4884 15.6084 12.5838C14.2667 12.738 13.0585 13.523 11.9853 14.9417C11.5252 15.5358 11.1704 16.1311 10.9208 16.7257C10.7103 17.2617 10.5757 17.8851 10.5188 18.5948C10.3647 20.7606 11.0749 22.7252 12.6461 24.4896C13.7584 25.7352 15.0046 26.5306 16.3843 26.8751C17.324 27.1247 18.2533 27.1344 19.1741 26.9044L20.008 26.7606L20.1224 27.8533C20.8125 29.8662 21.934 32.0901 23.4873 34.5245C25.0211 36.8439 26.6791 38.9332 28.4614 40.7931C29.2286 41.5591 29.9377 42.2308 30.5892 42.8059C30.6278 42.3073 30.6853 41.9053 30.7618 41.5982C31.1074 40.0828 31.9022 38.4823 33.1484 36.795C34.049 35.5493 35.0463 34.4854 36.139 33.6038C37.8643 32.204 39.5993 31.2654 41.3436 30.7858C41.4972 30.7478 41.6599 30.7283 41.8325 30.7283C41.6409 30.3061 41.4782 29.9904 41.3436 29.7793C40.826 28.7833 40.1555 27.862 39.3308 27.0183C39.1007 27.0769 38.7844 27.1431 38.3818 27.2207C36.9251 27.4496 35.5357 28.0161 34.2124 28.9167C33.4268 29.4343 32.5452 30.1727 31.5669 31.1308C30.9539 31.7634 30.0527 32.8941 28.8639 34.5239C28.4039 35.2324 28.0594 35.7121 27.8288 35.9617L27.57 36.1917C27.532 36.1537 27.5125 36.0376 27.5125 35.8466C27.5125 35.386 27.6372 34.7729 27.8857 34.0057C28.4228 32.549 29.19 31.1878 30.1861 29.9225C31.0108 28.8678 31.9499 27.9476 33.0041 27.1615C34.3268 26.2413 35.6593 25.58 37.001 25.178C35.6973 24.3343 34.202 23.6729 32.5153 23.1944L32.4572 23.2226C31.8441 23.7212 30.9619 24.4303 29.8117 25.3511C28.9128 26.0602 28.2704 26.587 27.8868 26.9332ZM41.9199 32.9131C40.5011 33.2972 39.0064 34.0633 37.4341 35.2135C36.3799 36.0761 35.4212 36.9974 34.5586 37.9745C33.3503 39.3933 32.4399 40.7356 31.8269 42.0002L31.223 43.1504L31.1937 43.2942C31.2707 43.3707 31.6923 43.6772 32.4589 44.2144C33.3601 44.8084 34.2032 45.2691 34.9893 45.5946C36.0814 46.0363 37.0401 46.2272 37.8648 46.1697C38.957 46.0742 39.8875 45.6901 40.6541 45.0195C41.4207 44.3869 42.0251 43.438 42.4656 42.1733C43.2702 39.8919 43.395 37.1792 42.8389 34.0357L42.4656 32.5979C42.3127 32.7503 42.1309 32.8561 41.9199 32.9131ZM20.5836 31.0164C20.219 30.0381 19.9505 29.1093 19.7785 28.2271C19.2034 28.8212 18.2257 29.4435 16.8455 30.0962C13.1838 31.879 10.2318 33.575 7.98895 35.1859C6.57017 36.2785 5.44873 37.2752 4.62461 38.1758C3.60783 39.364 2.94704 40.4952 2.64051 41.5689C2.29488 42.7571 2.34318 43.8986 2.78429 44.9902C3.09082 45.8919 3.69467 46.8592 4.59528 47.895C5.59193 48.9308 6.4264 49.6583 7.09754 50.081C8.0177 50.6561 8.89933 50.9718 9.743 51.0287C10.5867 51.0477 11.3826 50.8378 12.1297 50.3961C12.7813 50.0131 13.4236 49.4662 14.0563 48.7571C14.977 47.6259 15.8103 46.2939 16.5585 44.7607C17.4977 42.8433 18.3505 40.5809 19.1171 37.9739C19.7112 35.7311 20.2006 33.4306 20.5842 31.0727V31.0164H20.5836Z" fill="#FB00B2"/>
</g>
<defs>
<clipPath id="clip0_6995_1532">
<rect width="264.255" height="52" fill="white" transform="translate(0.168701 0.957031)"/>
</clipPath>
</defs>
</svg>
