<svg width="255" height="48" viewBox="0 0 255 48" fill="none" xmlns="http://www.w3.org/2000/svg">
<path d="M0 0.480469H18.6947C22.2556 0.480469 24.9263 1.3698 26.9046 2.85203C29.0807 4.6307 30.2677 7.19989 30.2677 10.362C30.2677 14.0181 28.7839 16.2909 25.8165 17.6743V17.8719C29.7731 19.1565 32.0481 22.7139 32.0481 26.9629C32.0481 31.0143 30.4655 34.1764 27.8937 36.1527C25.7176 37.7337 22.948 38.4255 19.1893 38.4255H0V0.480469ZM16.8154 15.3027C18.7936 15.3027 20.2773 14.2158 20.2773 11.943C20.2773 9.76909 18.7936 8.68212 16.7164 8.68212H10.287V15.2039H16.8154V15.3027ZM17.7056 30.0262C19.9806 30.0262 21.6621 28.6428 21.6621 26.1724C21.6621 23.5044 19.8817 22.3186 17.7056 22.3186H10.386V30.125H17.7056V30.0262ZM33.7296 0.480469H43.5221V38.5243H33.7296V0.480469ZM45.5004 24.9866C45.5004 16.3897 51.0396 10.6584 59.6451 10.6584C68.2506 10.6584 73.6908 16.4885 73.6908 24.9866C73.6908 33.5835 68.2506 39.3148 59.6451 39.3148C51.0396 39.3148 45.5004 33.5835 45.5004 24.9866ZM63.8984 24.9866C63.8984 20.2435 62.4147 17.279 59.4473 17.279C56.4798 17.279 55.095 20.2435 55.095 24.9866C55.095 29.7297 56.4798 32.793 59.4473 32.793C62.4147 32.6942 63.8984 29.7297 63.8984 24.9866ZM74.7789 24.9866C74.7789 16.3897 80.3181 10.6584 88.9236 10.6584C97.5291 10.6584 102.87 16.3897 102.87 24.9866C102.87 33.5835 97.4302 39.3148 88.8247 39.3148C80.3181 39.3148 74.7789 33.5835 74.7789 24.9866ZM93.1769 24.9866C93.1769 20.2435 91.6932 17.279 88.7258 17.279C85.7583 17.279 84.3736 20.2435 84.3736 24.9866C84.3736 29.7297 85.7583 32.793 88.7258 32.793C91.6932 32.6942 93.1769 29.7297 93.1769 24.9866ZM104.849 11.3501H113.949V15.4015H114.147C115.927 12.2395 118.4 10.5596 122.356 10.5596C125.818 10.5596 128.39 12.2395 129.676 15.2039H129.874C132.05 11.6466 134.919 10.5596 138.282 10.5596C144.612 10.5596 147.283 15.2039 147.283 21.4293V38.4255H137.787V23.1091C137.787 20.3423 136.897 18.5636 134.523 18.5636C132.149 18.5636 130.962 20.7376 130.962 23.702V38.4255H121.466V23.1091C121.466 20.3423 120.576 18.5636 118.202 18.5636C115.828 18.5636 114.641 20.7376 114.641 23.702V38.4255H104.849V11.3501ZM159.251 34.8681H159.152V38.4255H150.052V0.480469H159.548V14.1169H159.746C161.526 11.7454 163.999 10.4608 167.461 10.4608C174.286 10.4608 178.243 16.5873 178.243 24.789C178.243 33.9788 173.99 39.3148 166.868 39.3148C163.9 39.3148 160.834 37.9314 159.251 34.8681ZM168.45 24.6902C168.45 20.3423 166.868 17.4767 163.999 17.4767C161.032 17.4767 159.251 20.3423 159.251 24.6902C159.251 29.038 161.131 31.9037 163.999 31.9037C166.868 31.9037 168.45 29.1368 168.45 24.6902ZM179.331 24.8878C179.331 16.3897 184.969 10.5596 193.08 10.5596C197.135 10.5596 200.202 11.8442 202.576 14.1169C205.741 17.1802 207.126 21.9233 207.027 27.457H188.827C189.222 30.8167 190.805 32.5954 193.673 32.5954C195.355 32.5954 196.839 31.8048 197.432 30.0262H206.631C205.048 36.2515 200.202 39.3148 193.377 39.3148C184.969 39.216 179.331 33.4847 179.331 24.8878ZM188.827 22.0222H197.531C197.333 18.7613 195.553 17.0814 193.278 17.0814C190.607 16.9826 189.123 18.8601 188.827 22.0222ZM217.808 15.9944H218.006C219.984 12.2395 222.556 10.7572 225.82 10.7572C226.612 10.7572 227.106 10.8561 227.403 11.0537V19.3541H227.205C221.567 18.366 218.303 21.034 218.303 27.1605V38.5243H208.708V11.3501H217.808V15.9944ZM228.392 38.5243H237.591C237.987 39.7101 239.174 40.797 241.449 40.797C244.515 40.797 245.603 38.9195 245.603 36.0539V34.0776H245.405C243.922 35.8563 241.844 37.1409 238.877 37.1409C233.041 37.1409 227.898 32.793 227.898 24.2949C227.898 16.4885 232.052 10.4608 238.382 10.4608C242.042 10.4608 244.218 11.943 245.702 14.2158H245.9V11.2513H255V34.7693C255 39.1172 253.516 42.4769 251.241 44.4532C248.867 46.5283 245.504 47.4176 241.647 47.4176C234.327 47.5164 229.282 44.552 228.392 38.5243ZM245.999 23.8996C245.999 20.5399 244.416 17.7731 241.647 17.7731C238.976 17.7731 237.294 20.1447 237.294 23.8996C237.294 27.5558 238.976 30.125 241.647 30.125C244.317 30.125 245.999 27.457 245.999 23.8996Z" fill="white"/>
</svg>
