<svg width="220" height="77" viewBox="0 0 220 77" fill="none" xmlns="http://www.w3.org/2000/svg">
<path d="M133.401 59.6847C129.798 56.1479 127.996 51.8535 127.996 46.8013C127.996 41.749 129.798 37.4545 133.401 33.9179C137.039 30.3476 141.433 28.5625 146.581 28.5625C151.386 28.5625 155.539 30.1287 159.04 33.2611C159.555 33.7327 159.572 34.2042 159.091 34.6757L155.076 38.7681C154.629 39.1723 154.2 39.1723 153.789 38.7681C151.798 37.0503 149.481 36.1914 146.838 36.1914C143.955 36.1914 141.553 37.2187 139.631 39.2733C137.709 41.2942 136.747 43.7362 136.747 46.5991C136.747 49.4283 137.709 51.8535 139.631 53.8743C141.587 55.8618 144.007 56.8553 146.89 56.8553C149.567 56.8553 151.866 56.0467 153.789 54.4301C154.269 54.0259 154.715 54.0428 155.127 54.4805L159.143 58.6742C159.589 59.1119 159.572 59.5666 159.091 60.0381C155.659 63.3052 151.489 64.9388 146.581 64.9388C141.433 64.9388 137.039 63.1875 133.401 59.6847ZM174.532 64.9388C171.614 64.9388 169.178 64.518 167.221 63.6756C165.299 62.8336 163.875 61.9578 162.948 61.0486C162.502 60.6109 162.434 60.1054 162.742 59.5331L165.111 55.4406C165.316 55.1375 165.591 54.969 165.934 54.9351C166.312 54.8678 166.621 54.9351 166.861 55.1375C169.641 56.9899 172.078 57.9161 174.171 57.9161C175.201 57.9161 176.042 57.6299 176.694 57.0572C177.381 56.4849 177.724 55.7606 177.724 54.8848C177.724 53.8743 177.295 52.9985 176.437 52.2577C175.579 51.4831 174.24 50.6576 172.421 49.7822C170.876 49.041 169.624 48.401 168.663 47.8621C167.702 47.2898 166.689 46.5486 165.625 45.6392C164.561 44.7298 163.755 43.7025 163.205 42.5573C162.691 41.3784 162.434 40.0648 162.434 38.6165C162.434 35.8883 163.48 33.5306 165.574 31.5433C167.668 29.5561 170.585 28.5625 174.326 28.5625C178.17 28.5625 181.842 29.8256 185.343 32.3517C185.618 32.5201 185.772 32.7896 185.807 33.1601C185.841 33.5306 185.79 33.8 185.652 33.9684L183.026 37.8587C182.512 38.6671 181.757 38.785 180.761 38.2123C178.084 36.3935 175.768 35.4841 173.811 35.4841C172.781 35.4841 171.992 35.7536 171.443 36.2925C170.928 36.8314 170.671 37.4882 170.671 38.2628C170.671 39.0375 171.117 39.7785 172.009 40.4858C172.902 41.1932 174.326 42.0184 176.282 42.9615C179.509 44.5108 181.705 45.7571 182.872 46.7002C185.412 48.7549 186.682 51.348 186.682 54.4805C186.682 57.2426 185.549 59.6847 183.284 61.8063C181.053 63.8949 178.136 64.9388 174.532 64.9388ZM197.946 63.4737V36.4946H190.584C190.309 36.4946 190.069 36.4104 189.863 36.2419C189.692 36.0398 189.606 35.8041 189.606 35.5346V30.0277C189.606 29.7582 189.692 29.5393 189.863 29.3708C190.069 29.1688 190.309 29.0677 190.584 29.0677H213.443C213.717 29.0677 213.94 29.1688 214.112 29.3708C214.318 29.5393 214.421 29.7582 214.421 30.0277V35.5346C214.421 35.8041 214.318 36.0398 214.112 36.2419C213.94 36.4104 213.717 36.4946 213.443 36.4946H206.081V63.4737C206.081 63.7095 205.977 63.9283 205.772 64.1307C205.566 64.3326 205.343 64.4338 205.102 64.4338H198.924C198.684 64.4338 198.461 64.3326 198.255 64.1307C198.049 63.9283 197.946 63.7095 197.946 63.4737Z" fill="white"/>
<path d="M7.84531 59.6847C4.24148 56.1479 2.43958 51.8535 2.43958 46.8013C2.43958 41.749 4.24148 37.4545 7.84531 33.9179C11.4834 30.3476 15.8767 28.5625 21.025 28.5625C25.8301 28.5625 29.983 30.1287 33.4839 33.2611C33.9987 33.7327 34.0159 34.2042 33.5354 34.6757L29.5197 38.7681C29.0735 39.1723 28.6445 39.1723 28.2326 38.7681C26.242 37.0503 23.9252 36.1914 21.2824 36.1914C18.3994 36.1914 15.9968 37.2187 14.0747 39.2733C12.1527 41.2942 11.1917 43.7362 11.1917 46.5991C11.1917 49.4283 12.1527 51.8535 14.0747 53.8743C16.0311 55.8618 18.4508 56.8553 21.3339 56.8553C24.011 56.8553 26.3106 56.0467 28.2326 54.4301C28.7131 54.0259 29.1593 54.0428 29.5712 54.4805L33.5869 58.6742C34.0331 59.1119 34.0159 59.5666 33.5354 60.0381C30.1032 63.3052 25.933 64.9388 21.025 64.9388C15.8767 64.9388 11.4834 63.1875 7.84531 59.6847ZM49.2771 64.9388C46.36 64.9388 43.9231 64.518 41.9668 63.6756C40.0448 62.8336 38.6204 61.9578 37.6937 61.0486C37.2475 60.6109 37.1788 60.1054 37.4877 59.5331L39.856 55.4406C40.0619 55.1375 40.3365 54.969 40.6797 54.9351C41.0572 54.8678 41.3662 54.9351 41.6064 55.1375C44.3865 56.9899 46.8233 57.9161 48.917 57.9161C49.9466 57.9161 50.7874 57.6299 51.4396 57.0572C52.1259 56.4849 52.4692 55.7606 52.4692 54.8848C52.4692 53.8743 52.0403 52.9985 51.1824 52.2577C50.324 51.4831 48.9854 50.6576 47.1668 49.7822C45.622 49.041 44.3693 48.401 43.4083 47.8621C42.4473 47.2898 41.4348 46.5486 40.3708 45.6392C39.3068 44.7298 38.5003 43.7025 37.9511 42.5573C37.4363 41.3784 37.1788 40.0648 37.1788 38.6165C37.1788 35.8883 38.2257 33.5306 40.3193 31.5433C42.413 29.5561 45.3303 28.5625 49.0715 28.5625C52.9154 28.5625 56.5881 29.8256 60.0887 32.3517C60.3632 32.5201 60.5176 32.7896 60.552 33.1601C60.5865 33.5306 60.5348 33.8 60.3976 33.9684L57.7722 37.8587C57.2571 38.6671 56.502 38.785 55.5069 38.2123C52.8298 36.3935 50.5129 35.4841 48.5565 35.4841C47.5269 35.4841 46.7375 35.7536 46.1883 36.2925C45.6735 36.8314 45.4161 37.4882 45.4161 38.2628C45.4161 39.0375 45.8623 39.7785 46.7547 40.4858C47.6469 41.1932 49.0715 42.0184 51.0279 42.9615C54.2539 44.5108 56.4509 45.7571 57.6177 46.7002C60.1575 48.7549 61.4272 51.348 61.4272 54.4805C61.4272 57.2426 60.2948 59.6847 58.0295 61.8063C55.7986 63.8949 52.881 64.9388 49.2771 64.9388ZM67.9598 63.4737V30.0277C67.9598 29.7582 68.0459 29.5393 68.2175 29.3708C68.4232 29.1688 68.6637 29.0677 68.9382 29.0677H90.2523C90.5268 29.0677 90.7496 29.1688 90.9213 29.3708C91.1274 29.5393 91.2302 29.7582 91.2302 30.0277V35.5346C91.2302 35.8041 91.1274 36.0398 90.9213 36.2419C90.7496 36.4104 90.5268 36.4946 90.2523 36.4946H75.9914V42.7594H87.7297C87.9698 42.7594 88.1931 42.8604 88.3987 43.0625C88.6048 43.231 88.7077 43.4498 88.7077 43.7193V49.2264C88.7077 49.4956 88.6048 49.7314 88.3987 49.9338C88.2271 50.1018 88.0042 50.1861 87.7297 50.1861H75.9914V57.0068H90.2523C90.5268 57.0068 90.7496 57.108 90.9213 57.3099C91.1274 57.4784 91.2302 57.6972 91.2302 57.9669V63.4737C91.2302 63.7433 91.1274 63.9791 90.9213 64.181C90.7496 64.3495 90.5268 64.4338 90.2523 64.4338H68.9382C68.6637 64.4338 68.4232 64.3495 68.2175 64.181C68.0459 63.9791 67.9598 63.7433 67.9598 63.4737Z" fill="white"/>
<path d="M109.335 20.3535V67.4577" stroke="#FBAF1A" stroke-width="6.81047"/>
<path d="M56.1192 7.11024C55.7953 7.11024 55.5041 7.05599 55.2445 6.94744C54.9849 6.83893 54.7643 6.68446 54.581 6.48411C54.3982 6.28377 54.2577 6.03956 54.16 5.75154C54.0623 5.46352 54.0134 5.14001 54.0134 4.78103C54.0134 4.43039 54.0623 4.11106 54.16 3.82304C54.2619 3.53502 54.407 3.28874 54.5941 3.0842C54.7811 2.87549 55.0067 2.71478 55.2701 2.60208C55.5381 2.4852 55.8381 2.42676 56.1699 2.42676C56.4253 2.42676 56.6588 2.46015 56.8719 2.52694C57.0887 2.59373 57.2781 2.68973 57.4395 2.81496C57.601 2.94019 57.7331 3.09255 57.835 3.27204C57.9415 3.45154 58.0113 3.65398 58.0458 3.87939H57.4395C57.3711 3.56632 57.2246 3.33048 56.9994 3.17186C56.778 3.00906 56.4997 2.92767 56.1634 2.92767C55.9335 2.92767 55.7232 2.97149 55.532 3.05915C55.3445 3.14264 55.1831 3.26369 55.0472 3.42231C54.9109 3.57676 54.8048 3.76669 54.7281 3.9921C54.6555 4.21333 54.6192 4.4617 54.6192 4.7372C54.6192 5.0294 54.6531 5.29239 54.7215 5.52613C54.7937 5.75575 54.8955 5.95188 55.0277 6.11469C55.1635 6.27328 55.3278 6.39644 55.5194 6.48411C55.7107 6.56758 55.9275 6.60933 56.1699 6.60933C56.3616 6.60933 56.5337 6.57806 56.6868 6.51543C56.844 6.4528 56.9803 6.36517 57.0948 6.25245C57.2097 6.13557 57.299 5.99781 57.3628 5.83921C57.4312 5.68057 57.4716 5.50734 57.4842 5.31951H58.0904C58.0267 5.9039 57.8243 6.34846 57.4842 6.65319C57.1436 6.95792 56.6886 7.11024 56.1192 7.11024ZM60.2013 7.07893C59.9589 7.07893 59.7374 7.03933 59.5374 6.95998C59.342 6.88064 59.1735 6.76797 59.0335 6.62188C58.8972 6.47161 58.7906 6.2921 58.7143 6.08337C58.6376 5.87469 58.5994 5.64303 58.5994 5.38838C58.5994 5.12958 58.6362 4.89582 58.7083 4.68711C58.7846 4.4784 58.8911 4.30099 59.027 4.15489C59.1675 4.00462 59.3354 3.88983 59.5308 3.81052C59.7314 3.73121 59.9542 3.69155 60.2013 3.69155C60.4479 3.69155 60.6688 3.73329 60.8647 3.81678C61.0643 3.89609 61.2327 4.00879 61.3686 4.15489C61.5091 4.30099 61.6152 4.4784 61.6877 4.68711C61.764 4.89582 61.8022 5.12958 61.8022 5.38838C61.8022 5.63465 61.764 5.86215 61.6877 6.07087C61.6152 6.27543 61.5091 6.4528 61.3686 6.6031C61.2327 6.75336 61.0643 6.87025 60.8647 6.95371C60.6688 7.03717 60.4479 7.07893 60.2013 7.07893ZM60.2013 6.60933C60.3497 6.60933 60.4865 6.58012 60.6093 6.5217C60.7372 6.46328 60.8452 6.38188 60.9345 6.27749C61.0285 6.16899 61.1006 6.03956 61.1518 5.8893C61.2025 5.73904 61.2281 5.57202 61.2281 5.38838C61.2281 5.20471 61.2025 5.03774 61.1518 4.88747C61.1006 4.7372 61.0303 4.60989 60.941 4.50553C60.8517 4.397 60.7433 4.31351 60.6158 4.25507C60.4879 4.19246 60.3478 4.16115 60.1943 4.16115C60.0501 4.16115 59.9137 4.19246 59.7863 4.25507C59.663 4.31351 59.5546 4.397 59.4611 4.50553C59.3717 4.61406 59.3015 4.74346 59.2503 4.89373C59.1991 5.04401 59.1735 5.20889 59.1735 5.38838C59.1735 5.5679 59.1991 5.73277 59.2503 5.88303C59.3015 6.03329 59.3717 6.16272 59.4611 6.27122C59.5504 6.37973 59.6569 6.46328 59.7802 6.5217C59.9077 6.58012 60.0482 6.60933 60.2013 6.60933ZM62.9788 3.76669V4.24255H62.9918C63.238 3.87522 63.5934 3.69155 64.0573 3.69155C64.5421 3.69155 64.844 3.87522 64.9631 4.24255C65.0734 4.06723 65.2181 3.93157 65.3967 3.83556C65.58 3.73956 65.782 3.69155 66.0034 3.69155C66.3775 3.69155 66.652 3.77295 66.826 3.93574C67.0046 4.09854 67.094 4.32395 67.094 4.61197V7.0038H66.5519V4.85617C66.5519 4.61823 66.5026 4.44291 66.4049 4.33021C66.3072 4.21751 66.1435 4.16115 65.9141 4.16115C65.6587 4.16115 65.4502 4.23629 65.2888 4.38656C65.1311 4.53266 65.0524 4.72676 65.0524 4.96887V7.0038H64.5104V4.85617C64.5104 4.61823 64.4611 4.44291 64.3634 4.33021C64.2657 4.21751 64.108 4.16115 63.8912 4.16115C63.7335 4.16115 63.5916 4.19664 63.4641 4.2676C63.3361 4.33438 63.2296 4.44083 63.1449 4.58692C63.0556 4.72885 63.0105 4.85825 63.0105 4.97513V7.0038H62.4684V3.76669H62.9788ZM68.4446 3.76669V4.24255H68.4572C68.7042 3.87522 69.0592 3.69155 69.523 3.69155C70.0078 3.69155 70.3098 3.87522 70.4289 4.24255C70.5396 4.06723 70.6843 3.93157 70.863 3.83556C71.0458 3.73956 71.2482 3.69155 71.4687 3.69155C71.8433 3.69155 72.1177 3.77295 72.2922 3.93574C72.4709 4.09854 72.5602 4.32395 72.5602 4.61197V7.0038H72.0177V4.85617C72.0177 4.61823 71.9689 4.44291 71.8712 4.33021C71.7735 4.21751 71.6092 4.16115 71.3794 4.16115C71.1244 4.16115 70.916 4.23629 70.7541 4.38656C70.5973 4.53266 70.5182 4.72676 70.5182 4.96887V7.0038H69.9757V4.85617C69.9757 4.61823 69.9269 4.44291 69.8292 4.33021C69.7315 4.21751 69.5742 4.16115 69.3574 4.16115C69.1997 4.16115 69.0573 4.19664 68.9294 4.2676C68.8019 4.33438 68.6958 4.44083 68.6107 4.58692C68.5214 4.72885 68.4767 4.85825 68.4767 4.97513V7.0038H67.9342V3.76669H68.4446ZM74.5357 7.07893C73.7792 7.07893 73.4 6.69494 73.4 5.92684V3.76669H73.9429V5.9707C73.9429 6.15855 74.002 6.31298 74.1216 6.43403C74.2402 6.55091 74.4045 6.60933 74.6124 6.60933C74.9316 6.60933 75.174 6.5196 75.3396 6.34013C75.5057 6.15644 75.589 5.91434 75.589 5.61378V3.76669H76.131V7.0038H75.6206V6.49039H75.6076C75.3871 6.88279 75.0298 7.07893 74.5357 7.07893ZM77.4821 3.76669V4.28012H77.4951C77.7291 3.88774 78.0865 3.69155 78.5671 3.69155C79.324 3.69155 79.7027 4.07767 79.7027 4.8499V7.0038H79.1607V4.79355C79.1607 4.61406 79.103 4.46379 78.9881 4.34273C78.8732 4.22168 78.7057 4.16115 78.4842 4.16115C78.1735 4.16115 77.9334 4.25299 77.7631 4.43666C77.597 4.61615 77.5142 4.85617 77.5142 5.15671V7.0038H76.9717V3.76669H77.4821ZM81.118 2.5332V3.18438H80.5755V2.5332H81.118ZM81.118 3.76669V7.0038H80.5755V3.76669H81.118ZM83.3498 7.07893C83.1121 7.07893 82.8967 7.04139 82.7055 6.96626C82.5184 6.89113 82.357 6.78257 82.2207 6.64065C82.089 6.49455 81.9867 6.31925 81.9141 6.11469C81.842 5.91013 81.8061 5.68057 81.8061 5.42595C81.8061 5.1588 81.842 4.91878 81.9141 4.70589C81.9867 4.48883 82.089 4.30517 82.2207 4.15489C82.357 4.00462 82.5208 3.88983 82.712 3.81052C82.9032 3.73121 83.1205 3.69155 83.3629 3.69155C83.763 3.69155 84.0882 3.78339 84.339 3.96705C84.5902 4.15072 84.7386 4.43039 84.7856 4.80607H84.2241C84.1305 4.37613 83.8584 4.16115 83.4071 4.16115C83.0716 4.16115 82.8162 4.27177 82.6417 4.49301C82.4673 4.71007 82.3803 5.02104 82.3803 5.42595C82.3803 5.78079 82.4631 6.06666 82.6287 6.28377C82.799 6.50082 83.0372 6.60933 83.3433 6.60933C83.6113 6.60933 83.8202 6.54047 83.9686 6.40271C84.1217 6.26495 84.2157 6.07088 84.2496 5.8204H84.8047C84.7456 6.22535 84.5902 6.53626 84.339 6.75336C84.0924 6.97042 83.763 7.07893 83.3498 7.07893ZM86.3502 7.07893C86.0055 7.07893 85.7375 7.00174 85.5463 6.84727C85.3546 6.68867 85.2592 6.46328 85.2592 6.17105C85.2592 5.87886 85.3546 5.6493 85.5463 5.4823C85.7422 5.31117 86.1865 5.18176 86.8797 5.0941C87.1179 5.06487 87.2775 5.02104 87.3584 4.96261C87.4436 4.89999 87.4859 4.81025 87.4859 4.69337C87.4859 4.33856 87.2417 4.16115 86.7522 4.16115C86.4842 4.16115 86.2823 4.21124 86.146 4.31143C86.0143 4.40743 85.9418 4.56188 85.9292 4.77477H85.3867C85.4337 4.05263 85.9017 3.69155 86.7908 3.69155C87.6115 3.69155 88.0219 3.98166 88.0219 4.56188V6.42775C88.0219 6.5488 88.0796 6.60933 88.1945 6.60933C88.241 6.60933 88.2964 6.59889 88.3601 6.57806V6.9913C88.2499 7.04972 88.1201 7.07893 87.9707 7.07893C87.6646 7.07893 87.5115 6.91196 87.5115 6.57806C87.2221 6.91196 86.835 7.07893 86.3502 7.07893ZM86.4717 6.60933C86.6201 6.60933 86.7569 6.59056 86.8797 6.55297C87.003 6.51543 87.1095 6.46328 87.1989 6.39644C87.2882 6.32964 87.3566 6.25451 87.4031 6.17105C87.4543 6.08337 87.4799 5.98947 87.4799 5.8893V5.33203C87.4329 5.36541 87.3775 5.39257 87.3138 5.41342C87.25 5.43428 87.1779 5.45099 87.097 5.46352L86.5415 5.54492C86.2991 5.57829 86.1204 5.64093 86.0055 5.73277C85.8906 5.82461 85.8334 5.95816 85.8334 6.13346C85.8334 6.28377 85.8892 6.40065 85.9994 6.48411C86.1097 6.56758 86.2674 6.60933 86.4717 6.60933ZM89.855 7.0038C89.7145 7.0038 89.5954 6.99336 89.4977 6.97248C89.4042 6.95165 89.3274 6.91617 89.2678 6.86608C89.2083 6.81595 89.1659 6.74709 89.1404 6.65942C89.1148 6.57179 89.1022 6.46113 89.1022 6.32758V4.23629H88.5407V3.76669H89.1022V2.79618H89.6442V3.76669H90.3016V4.23629H89.6442V6.26495C89.6442 6.36096 89.6638 6.42986 89.7019 6.47161C89.7401 6.51337 89.8354 6.5342 89.9885 6.5342H90.3016V7.0038H89.855ZM91.5048 2.5332V3.18438H90.9623V2.5332H91.5048ZM91.5048 3.76669V7.0038H90.9623V3.76669H91.5048ZM93.7943 7.07893C93.5514 7.07893 93.3304 7.03933 93.1304 6.95998C92.9345 6.88064 92.7665 6.76797 92.626 6.62188C92.4902 6.47161 92.3836 6.2921 92.3073 6.08337C92.2306 5.87469 92.1924 5.64303 92.1924 5.38838C92.1924 5.12958 92.2282 4.89582 92.3013 4.68711C92.3776 4.4784 92.4837 4.30099 92.62 4.15489C92.7605 4.00462 92.928 3.88983 93.1238 3.81052C93.3239 3.73121 93.5472 3.69155 93.7943 3.69155C94.0404 3.69155 94.2618 3.73329 94.4577 3.81678C94.6573 3.89609 94.8257 4.00879 94.9616 4.15489C95.1016 4.30099 95.2082 4.4784 95.2803 4.68711C95.357 4.89582 95.3952 5.12958 95.3952 5.38838C95.3952 5.63465 95.357 5.86215 95.2803 6.07087C95.2082 6.27543 95.1016 6.4528 94.9616 6.6031C94.8257 6.75336 94.6573 6.87025 94.4577 6.95371C94.2618 7.03717 94.0404 7.07893 93.7943 7.07893ZM93.7943 6.60933C93.9427 6.60933 94.079 6.58012 94.2023 6.5217C94.3302 6.46328 94.4382 6.38188 94.5275 6.27749C94.6215 6.16899 94.6936 6.03956 94.7443 5.8893C94.7955 5.73904 94.8211 5.57202 94.8211 5.38838C94.8211 5.20471 94.7955 5.03774 94.7443 4.88747C94.6936 4.7372 94.6233 4.60989 94.534 4.50553C94.4447 4.397 94.3363 4.31351 94.2088 4.25507C94.0809 4.19246 93.9408 4.16115 93.7873 4.16115C93.6426 4.16115 93.5067 4.19246 93.3793 4.25507C93.256 4.31351 93.1471 4.397 93.0541 4.50553C92.9647 4.61406 92.894 4.74346 92.8433 4.89373C92.7921 5.04401 92.7665 5.20889 92.7665 5.38838C92.7665 5.5679 92.7921 5.73277 92.8433 5.88303C92.894 6.03329 92.9647 6.16272 93.0541 6.27122C93.1434 6.37973 93.2495 6.46328 93.3727 6.5217C93.5007 6.58012 93.6407 6.60933 93.7943 6.60933ZM96.5713 3.76669V4.28012H96.5844C96.8184 3.88774 97.1757 3.69155 97.6563 3.69155C98.4133 3.69155 98.792 4.07767 98.792 4.8499V7.0038H98.25V4.79355C98.25 4.61406 98.1923 4.46379 98.0774 4.34273C97.9624 4.22168 97.7945 4.16115 97.5735 4.16115C97.2627 4.16115 97.0226 4.25299 96.8524 4.43666C96.6863 4.61615 96.6035 4.85617 96.6035 5.15671V7.0038H96.061V3.76669H96.5713ZM100.82 7.07893C100.394 7.07893 100.058 6.98924 99.8114 6.80972C99.569 6.62604 99.4396 6.35056 99.4224 5.9832H99.9644C99.9733 6.18359 100.052 6.33802 100.201 6.44657C100.354 6.55508 100.571 6.60933 100.852 6.60933C101.383 6.60933 101.649 6.44863 101.649 6.12723C101.649 5.98114 101.585 5.86842 101.457 5.78913C101.39 5.74737 101.288 5.70562 101.151 5.66386C101.015 5.61799 100.839 5.57413 100.622 5.53239C100.218 5.44892 99.9286 5.33829 99.7541 5.20054C99.5801 5.05861 99.4922 4.86242 99.4922 4.61197C99.4922 4.47422 99.5201 4.34899 99.5755 4.23629C99.635 4.12359 99.7183 4.02758 99.8244 3.94827C99.9351 3.86478 100.065 3.80217 100.214 3.76042C100.367 3.71451 100.539 3.69155 100.73 3.69155C101.181 3.69155 101.513 3.77712 101.725 3.94827C101.938 4.11524 102.056 4.36778 102.077 4.70589H101.534V4.69963C101.517 4.52431 101.439 4.39074 101.298 4.2989C101.162 4.20707 100.986 4.16115 100.768 4.16115C100.552 4.16115 100.379 4.19664 100.252 4.2676C100.129 4.33856 100.067 4.44083 100.067 4.5744C100.067 4.69545 100.12 4.79355 100.226 4.86869C100.337 4.93965 100.507 5.00018 100.737 5.05027L101.247 5.16297C101.566 5.23393 101.809 5.33829 101.975 5.47604C102.14 5.61378 102.223 5.8079 102.223 6.05833C102.223 6.38394 102.098 6.63648 101.847 6.81595C101.6 6.9913 101.258 7.07893 100.82 7.07893Z" fill="white"/>
<path d="M55.8553 13.0478C55.5701 13.0478 55.311 13.0123 55.077 12.9413C54.8429 12.8704 54.6452 12.766 54.4838 12.6283C54.3219 12.4905 54.1967 12.3235 54.1074 12.1274C54.0181 11.9312 53.9734 11.712 53.9734 11.4699H54.5475C54.5517 11.8206 54.6755 12.0877 54.9178 12.2713C55.1602 12.455 55.4794 12.5469 55.8749 12.5469C56.2489 12.5469 56.5341 12.478 56.7295 12.3402C56.9296 12.1983 57.0292 11.9959 57.0292 11.7329C57.0292 11.5117 56.9338 11.3384 56.7426 11.2132C56.6444 11.1464 56.5127 11.0879 56.3471 11.0379C56.181 10.9878 55.9809 10.9397 55.7469 10.8939C55.4152 10.8312 55.143 10.7624 54.9304 10.6872C54.7173 10.6079 54.5494 10.5202 54.4261 10.4243C54.307 10.3241 54.2242 10.2134 54.1776 10.0924C54.1348 9.96717 54.1139 9.82735 54.1139 9.67288C54.1139 9.47253 54.152 9.29301 54.2288 9.13442C54.3093 8.97162 54.4219 8.83386 54.5666 8.72118C54.7113 8.60847 54.8857 8.52079 55.0895 8.4582C55.2938 8.39557 55.5194 8.36426 55.766 8.36426C56.0214 8.36426 56.2531 8.39763 56.4616 8.46443C56.67 8.52706 56.8463 8.6189 56.991 8.73995C57.1357 8.861 57.2464 9.0092 57.3227 9.18451C57.4037 9.35981 57.4442 9.5581 57.4442 9.77932H56.87C56.7975 9.1699 56.4211 8.86517 55.7404 8.86517C55.4087 8.86517 55.1556 8.92986 54.9816 9.05929C54.8067 9.18867 54.7196 9.37863 54.7196 9.62906C54.7196 9.78353 54.7857 9.91914 54.9178 10.0361C55.0453 10.1487 55.4664 10.2782 56.181 10.4243C56.67 10.5202 57.0338 10.6705 57.272 10.8751C57.5144 11.0754 57.6358 11.3551 57.6358 11.7141C57.6358 11.9228 57.5889 12.1106 57.4953 12.2776C57.4018 12.4404 57.2739 12.5802 57.1124 12.6971C56.9505 12.8098 56.7616 12.8954 56.5444 12.9538C56.3276 13.0165 56.0977 13.0478 55.8553 13.0478ZM59.7127 13.0165C59.4536 13.0165 59.2237 12.9726 59.0237 12.885C58.8283 12.7931 58.6645 12.67 58.5324 12.5156C58.4007 12.3611 58.3007 12.1795 58.2323 11.9708C58.1648 11.7621 58.1304 11.5388 58.1304 11.3008C58.1304 11.0629 58.1686 10.8417 58.2453 10.6372C58.3263 10.4326 58.4347 10.2552 58.571 10.1049C58.7069 9.95467 58.8706 9.83774 59.0618 9.75428C59.2531 9.67082 59.4596 9.62906 59.6811 9.62906C59.9151 9.62906 60.1231 9.67288 60.3064 9.76055C60.4934 9.84401 60.6507 9.96511 60.7786 10.1237C60.9061 10.2782 61.0038 10.466 61.0717 10.6872C61.1401 10.9085 61.1741 11.1526 61.1741 11.4198V11.4824H58.7045V11.52C58.7045 11.8331 58.7962 12.0835 58.979 12.2713C59.1623 12.455 59.4131 12.5469 59.7323 12.5469C60.204 12.5469 60.4892 12.336 60.5869 11.9145H61.1229C61.0508 12.2818 60.8912 12.5573 60.6442 12.7409C60.3976 12.9246 60.0873 13.0165 59.7127 13.0165ZM60.6 11.0128C60.5916 10.8793 60.5613 10.7582 60.5106 10.6497C60.4595 10.5369 60.3911 10.441 60.3064 10.3616C60.2254 10.2782 60.1277 10.2134 60.0128 10.1676C59.9026 10.1216 59.7788 10.0987 59.6429 10.0987C59.3875 10.0987 59.1726 10.1821 58.9981 10.3491C58.8283 10.5119 58.7301 10.7331 58.7045 11.0128H60.6ZM63.1281 13.0165C62.8895 13.0165 62.675 12.9789 62.4833 12.9037C62.2967 12.8286 62.1344 12.7201 61.9985 12.5782C61.8664 12.4321 61.7645 12.2568 61.6924 12.0522C61.6203 11.8477 61.584 11.6181 61.584 11.3635C61.584 11.0963 61.6203 10.8563 61.6924 10.6434C61.7645 10.4263 61.8664 10.2427 61.9985 10.0924C62.1344 9.94213 62.2986 9.82735 62.4903 9.74805C62.6815 9.66871 62.8983 9.62906 63.1407 9.62906C63.5403 9.62906 63.866 9.7209 64.1168 9.90458C64.3676 10.0882 64.5169 10.3679 64.5634 10.7436H64.0019C63.9084 10.3136 63.6362 10.0987 63.1854 10.0987C62.849 10.0987 62.594 10.2093 62.4196 10.4305C62.2456 10.6476 62.1586 10.9586 62.1586 11.3635C62.1586 11.7183 62.2409 12.0042 62.407 12.2213C62.5773 12.4384 62.8155 12.5469 63.1216 12.5469C63.3896 12.5469 63.598 12.478 63.7469 12.3402C63.9 12.2025 63.9935 12.0084 64.0275 11.7579H64.583C64.523 12.1628 64.3676 12.4738 64.1168 12.6909C63.8702 12.908 63.5404 13.0165 63.1281 13.0165ZM66.3519 13.0165C65.5944 13.0165 65.2162 12.6324 65.2162 11.8644V9.70419H65.7582V11.9082C65.7582 12.096 65.8178 12.2505 65.9369 12.3716C66.056 12.4884 66.2197 12.5469 66.4282 12.5469C66.7473 12.5469 66.9897 12.4571 67.1558 12.2776C67.3214 12.094 67.4043 11.8518 67.4043 11.5513V9.70419H67.9467V12.9413H67.4364V12.4279H67.4238C67.2023 12.8203 66.845 13.0165 66.3519 13.0165ZM69.2788 9.70419V10.3867H69.2918C69.5384 9.8816 69.9171 9.62906 70.4275 9.62906H70.5038V10.1926C70.0916 10.1926 69.7891 10.2969 69.5979 10.5057C69.4062 10.7144 69.3109 11.0441 69.3109 11.495V12.9413H68.7684V9.70419H69.2788ZM71.5129 8.4707V9.12188H70.9709V8.4707H71.5129ZM71.5129 9.70419V12.9413H70.9709V9.70419H71.5129ZM73.3427 12.9413C73.2027 12.9413 73.0836 12.9309 72.9854 12.91C72.8924 12.8891 72.8156 12.8537 72.756 12.8036C72.6965 12.7535 72.6537 12.6846 72.6286 12.597C72.603 12.5093 72.5899 12.3987 72.5899 12.2651V10.1738H72.0284V9.70419H72.5899V8.73368H73.1324V9.70419H73.7894V10.1738H73.1324V12.2025C73.1324 12.2985 73.1515 12.3674 73.1897 12.4091C73.2283 12.4509 73.3241 12.4717 73.4772 12.4717H73.7894V12.9413H73.3427ZM74.7566 14.2374C74.6166 14.2374 74.491 14.2186 74.3802 14.1811V13.6927C74.5333 13.7428 74.6398 13.7678 74.6989 13.7678C74.9162 13.7678 75.0693 13.6593 75.1586 13.4422L75.3694 12.9226L74.0611 9.70419H74.6738L75.6373 12.3527H75.6499L76.5748 9.70419H77.149L75.7453 13.2857C75.669 13.4819 75.5969 13.6405 75.5285 13.7616C75.461 13.8868 75.388 13.9828 75.3117 14.0496C75.2349 14.1205 75.1526 14.1686 75.0632 14.1936C74.9739 14.2229 74.8715 14.2374 74.7566 14.2374ZM82.6724 8.4707V8.97162H80.1331V10.393H82.4998V10.8939H80.1331V12.4404H82.6915V12.9413H79.5268V8.4707H82.6724ZM84.5511 13.0165C84.1259 13.0165 83.7895 12.9267 83.5429 12.7472C83.3005 12.5636 83.1712 12.2881 83.1539 11.9207H83.696C83.7048 12.1211 83.7834 12.2756 83.9323 12.3841C84.0854 12.4926 84.3022 12.5469 84.5832 12.5469C85.1145 12.5469 85.3802 12.3861 85.3802 12.0647C85.3802 11.9186 85.3164 11.806 85.189 11.7266C85.121 11.6849 85.0191 11.6432 84.8828 11.6014C84.7465 11.5555 84.5702 11.5117 84.3534 11.4699C83.9495 11.3864 83.6597 11.2758 83.4857 11.1381C83.3112 10.9961 83.2237 10.7999 83.2237 10.5495C83.2237 10.4117 83.2516 10.2865 83.307 10.1738C83.3661 10.0611 83.4494 9.96511 83.5555 9.88577C83.6662 9.80231 83.796 9.73967 83.9449 9.69792C84.0979 9.65205 84.2701 9.62906 84.4618 9.62906C84.9126 9.62906 85.2443 9.71463 85.4569 9.88577C85.67 10.0528 85.7868 10.3053 85.8082 10.6434H85.2653V10.6372C85.249 10.4618 85.1699 10.3283 85.0298 10.2364C84.8935 10.1446 84.7167 10.0987 84.4999 10.0987C84.2831 10.0987 84.111 10.1341 83.983 10.2051C83.8602 10.2761 83.7979 10.3783 83.7979 10.5119C83.7979 10.6329 83.8514 10.7311 83.9579 10.8062C84.0682 10.8772 84.2384 10.9377 84.4683 10.9878L84.9787 11.1005C85.2978 11.1715 85.5402 11.2758 85.7059 11.4136C85.8719 11.5513 85.9548 11.7454 85.9548 11.9959C85.9548 12.3214 85.8291 12.574 85.5784 12.7535C85.3313 12.9288 84.9894 13.0165 84.5511 13.0165ZM87.5445 12.9413C87.404 12.9413 87.2849 12.9309 87.1872 12.91C87.0932 12.8891 87.0169 12.8537 86.9574 12.8036C86.8978 12.7535 86.8555 12.6846 86.8299 12.597C86.8043 12.5093 86.7913 12.3987 86.7913 12.2651V10.1738H86.2302V9.70419H86.7913V8.73368H87.3338V9.70419H87.9912V10.1738H87.3338V12.2025C87.3338 12.2985 87.3528 12.3674 87.3915 12.4091C87.4296 12.4509 87.525 12.4717 87.6781 12.4717H87.9912V12.9413H87.5445ZM89.5325 13.0165C89.1878 13.0165 88.9198 12.9393 88.7286 12.7848C88.5369 12.6262 88.4411 12.4008 88.4411 12.1086C88.4411 11.8164 88.5369 11.5868 88.7286 11.4198C88.924 11.2487 89.3683 11.1193 90.0615 11.0316C90.2997 11.0024 90.4593 10.9586 90.5407 10.9001C90.6254 10.8375 90.6682 10.7478 90.6682 10.6309C90.6682 10.2761 90.4235 10.0987 89.9341 10.0987C89.6661 10.0987 89.4641 10.1487 89.3283 10.2489C89.1962 10.3449 89.124 10.4994 89.1115 10.7123H88.5685C88.6155 9.99015 89.0836 9.62906 89.9722 9.62906C90.7934 9.62906 91.2042 9.91914 91.2042 10.4994V12.3653C91.2042 12.4863 91.2614 12.5469 91.3763 12.5469C91.4229 12.5469 91.4782 12.5364 91.542 12.5156V12.9288C91.4317 12.9872 91.3019 13.0165 91.153 13.0165C90.8469 13.0165 90.6938 12.8495 90.6938 12.5156C90.404 12.8495 90.0173 13.0165 89.5325 13.0165ZM89.6535 12.5469C89.8019 12.5469 89.9387 12.5281 90.0615 12.4905C90.1848 12.4529 90.2914 12.4008 90.3807 12.334C90.47 12.2672 90.5384 12.192 90.5849 12.1086C90.6361 12.0209 90.6617 11.927 90.6617 11.8268V11.2696C90.6147 11.3029 90.5593 11.3301 90.4956 11.3509C90.4319 11.3718 90.3598 11.3885 90.2788 11.4011L89.7238 11.4824C89.4814 11.5158 89.3027 11.5784 89.1878 11.6703C89.0729 11.7621 89.0152 11.8957 89.0152 12.071C89.0152 12.2213 89.071 12.3381 89.1813 12.4217C89.2915 12.5051 89.4493 12.5469 89.6535 12.5469ZM93.7133 13.0165C93.509 13.0165 93.3085 12.9768 93.1136 12.8975C92.9177 12.814 92.7623 12.6846 92.6474 12.5093H92.6344V12.9413H92.0924V8.4707H92.6344V10.1425H92.6474C92.8177 9.8002 93.1685 9.62906 93.7003 9.62906C93.9301 9.62906 94.1381 9.67082 94.3256 9.75428C94.5126 9.83362 94.6717 9.9484 94.8038 10.0987C94.936 10.2489 95.0379 10.4284 95.11 10.6372C95.1826 10.8458 95.2188 11.0775 95.2188 11.3321C95.2188 11.5826 95.1826 11.8122 95.11 12.0209C95.0379 12.2296 94.936 12.407 94.8038 12.5531C94.6764 12.6992 94.5186 12.814 94.3316 12.8975C94.1488 12.9768 93.9427 13.0165 93.7133 13.0165ZM93.6556 12.5469C93.9743 12.5469 94.219 12.4384 94.3893 12.2213C94.5591 12.0042 94.6447 11.6953 94.6447 11.2946C94.6447 11.1193 94.621 10.9586 94.574 10.8125C94.5275 10.6622 94.4596 10.5349 94.3702 10.4305C94.2809 10.3262 94.1725 10.2448 94.045 10.1863C93.9171 10.1279 93.7747 10.0987 93.617 10.0987C93.4639 10.0987 93.3257 10.1279 93.2024 10.1863C93.0791 10.2406 92.9731 10.322 92.8837 10.4305C92.7981 10.5349 92.7321 10.6622 92.6855 10.8125C92.639 10.9627 92.6158 11.1318 92.6158 11.3197C92.6158 11.6995 92.7051 12 92.8837 12.2213C93.0661 12.4384 93.3239 12.5469 93.6556 12.5469ZM96.4559 8.4707V12.9413H95.9135V8.4707H96.4559ZM97.8968 8.4707V9.12188H97.3543V8.4707H97.8968ZM97.8968 9.70419V12.9413H97.3543V9.70419H97.8968ZM99.95 13.0165C99.5247 13.0165 99.1888 12.9267 98.9418 12.7472C98.6994 12.5636 98.5696 12.2881 98.5528 11.9207H99.0948C99.1032 12.1211 99.1823 12.2756 99.3312 12.3841C99.4843 12.4926 99.7015 12.5469 99.9821 12.5469C100.514 12.5469 100.78 12.3861 100.78 12.0647C100.78 11.9186 100.716 11.806 100.588 11.7266C100.52 11.6849 100.418 11.6432 100.282 11.6014C100.146 11.5555 99.9695 11.5117 99.7522 11.4699C99.3479 11.3864 99.059 11.2758 98.8846 11.1381C98.7101 10.9961 98.6231 10.7999 98.6231 10.5495C98.6231 10.4117 98.6505 10.2865 98.7059 10.1738C98.7655 10.0611 98.8483 9.96511 98.9548 9.88577C99.0651 9.80231 99.1949 9.73967 99.3442 9.69792C99.4973 9.65205 99.6694 9.62906 99.8607 9.62906C100.312 9.62906 100.644 9.71463 100.856 9.88577C101.068 10.0528 101.186 10.3053 101.207 10.6434H100.665V10.6372C100.647 10.4618 100.569 10.3283 100.429 10.2364C100.292 10.1446 100.116 10.0987 99.8988 10.0987C99.682 10.0987 99.5099 10.1341 99.3824 10.2051C99.2586 10.2761 99.1972 10.3783 99.1972 10.5119C99.1972 10.6329 99.2502 10.7311 99.3568 10.8062C99.4675 10.8772 99.6378 10.9377 99.8672 10.9878L100.378 11.1005C100.697 11.1715 100.939 11.2758 101.105 11.4136C101.271 11.5513 101.354 11.7454 101.354 11.9959C101.354 12.3214 101.228 12.574 100.978 12.7535C100.731 12.9288 100.388 13.0165 99.95 13.0165ZM102.522 8.4707V10.1801H102.535C102.612 10.0048 102.746 9.86906 102.937 9.7731C103.129 9.67709 103.341 9.62906 103.575 9.62906C104.332 9.62906 104.711 10.0152 104.711 10.7874V12.9413H104.168V10.7311C104.168 10.5515 104.111 10.4013 103.996 10.2802C103.881 10.1592 103.713 10.0987 103.492 10.0987C103.186 10.0987 102.948 10.1905 102.778 10.3742C102.607 10.5537 102.522 10.7937 102.522 11.0942V12.9413H101.98V8.4707H102.522ZM106.062 9.70419V10.1801H106.075C106.322 9.8127 106.677 9.62906 107.14 9.62906C107.625 9.62906 107.927 9.8127 108.047 10.1801C108.157 10.0048 108.302 9.86906 108.48 9.7731C108.663 9.67709 108.866 9.62906 109.086 9.62906C109.461 9.62906 109.735 9.71046 109.91 9.87327C110.088 10.0361 110.178 10.2615 110.178 10.5495V12.9413H109.635V10.7937C109.635 10.5558 109.586 10.3804 109.489 10.2677C109.39 10.155 109.227 10.0987 108.997 10.0987C108.742 10.0987 108.534 10.1738 108.371 10.3241C108.215 10.4701 108.136 10.6643 108.136 10.9064V12.9413H107.593V10.7937C107.593 10.5558 107.544 10.3804 107.447 10.2677C107.349 10.155 107.192 10.0987 106.975 10.0987C106.817 10.0987 106.675 10.1341 106.547 10.2051C106.419 10.2719 106.313 10.3783 106.228 10.5244C106.139 10.6664 106.094 10.7958 106.094 10.9126V12.9413H105.552V9.70419H106.062ZM112.422 13.0165C112.162 13.0165 111.932 12.9726 111.732 12.885C111.537 12.7931 111.373 12.67 111.241 12.5156C111.109 12.3611 111.009 12.1795 110.941 11.9708C110.873 11.7621 110.839 11.5388 110.839 11.3008C110.839 11.0629 110.877 10.8417 110.954 10.6372C111.035 10.4326 111.143 10.2552 111.279 10.1049C111.415 9.95467 111.579 9.83774 111.771 9.75428C111.962 9.67082 112.168 9.62906 112.389 9.62906C112.623 9.62906 112.832 9.67288 113.015 9.76055C113.202 9.84401 113.359 9.96511 113.487 10.1237C113.614 10.2782 113.712 10.466 113.781 10.6872C113.848 10.9085 113.882 11.1526 113.882 11.4198V11.4824H111.413V11.52C111.413 11.8331 111.504 12.0835 111.688 12.2713C111.87 12.455 112.121 12.5469 112.441 12.5469C112.913 12.5469 113.198 12.336 113.296 11.9145H113.832C113.759 12.2818 113.6 12.5573 113.353 12.7409C113.106 12.9246 112.796 13.0165 112.422 13.0165ZM113.308 11.0128C113.299 10.8793 113.27 10.7582 113.219 10.6497C113.168 10.5369 113.1 10.441 113.015 10.3616C112.934 10.2782 112.836 10.2134 112.722 10.1676C112.61 10.1216 112.487 10.0987 112.351 10.0987C112.096 10.0987 111.881 10.1821 111.707 10.3491C111.537 10.5119 111.439 10.7331 111.413 11.0128H113.308ZM114.981 9.70419V10.2176H114.994C115.228 9.82524 115.586 9.62906 116.066 9.62906C116.823 9.62906 117.202 10.0152 117.202 10.7874V12.9413H116.659V10.7311C116.659 10.5515 116.602 10.4013 116.487 10.2802C116.372 10.1592 116.204 10.0987 115.983 10.0987C115.673 10.0987 115.433 10.1905 115.262 10.3742C115.096 10.5537 115.013 10.7937 115.013 11.0942V12.9413H114.471V9.70419H114.981ZM119.006 12.9413C118.866 12.9413 118.747 12.9309 118.649 12.91C118.555 12.8891 118.479 12.8537 118.419 12.8036C118.36 12.7535 118.317 12.6846 118.292 12.597C118.266 12.5093 118.253 12.3987 118.253 12.2651V10.1738H117.692V9.70419H118.253V8.73368H118.795V9.70419H119.453V10.1738H118.795V12.2025C118.795 12.2985 118.815 12.3674 118.853 12.4091C118.891 12.4509 118.987 12.4717 119.14 12.4717H119.453V12.9413H119.006Z" fill="white"/>
<path d="M131.45 7.1087C131.127 7.1087 130.835 7.05444 130.576 6.94594C130.316 6.83738 130.095 6.68296 129.912 6.48256C129.729 6.28222 129.589 6.03801 129.491 5.74999C129.393 5.46197 129.344 5.13846 129.344 4.77948C129.344 4.42884 129.393 4.10951 129.491 3.82149C129.593 3.53347 129.738 3.28719 129.925 3.08265C130.112 2.87394 130.338 2.71323 130.601 2.60053C130.869 2.48365 131.169 2.42521 131.501 2.42521C131.756 2.42521 131.99 2.4586 132.203 2.52539C132.42 2.59218 132.609 2.68819 132.771 2.81341C132.932 2.93864 133.064 3.091 133.166 3.27049C133.272 3.44999 133.343 3.65243 133.377 3.87784H132.771C132.702 3.56478 132.556 3.32893 132.33 3.17031C132.109 3.00752 131.831 2.92612 131.495 2.92612C131.265 2.92612 131.054 2.96995 130.863 3.05761C130.676 3.14109 130.514 3.26215 130.378 3.42077C130.242 3.57521 130.136 3.76514 130.059 3.99055C129.987 4.21178 129.95 4.46015 129.95 4.73565C129.95 5.02785 129.984 5.29084 130.053 5.52458C130.125 5.7542 130.227 5.95034 130.359 6.11314C130.495 6.27178 130.659 6.39494 130.85 6.48256C131.041 6.56603 131.258 6.60778 131.501 6.60778C131.692 6.60778 131.865 6.57651 132.018 6.51388C132.175 6.45125 132.311 6.36362 132.426 6.2509C132.541 6.13402 132.63 5.99626 132.694 5.83766C132.762 5.67902 132.802 5.5058 132.815 5.31796H133.422C133.358 5.90236 133.156 6.34691 132.815 6.65164C132.475 6.95637 132.02 7.1087 131.45 7.1087ZM135.513 7.07738C135.253 7.07738 135.024 7.03356 134.824 6.94594C134.628 6.85405 134.464 6.73094 134.333 6.57651C134.201 6.42204 134.101 6.24046 134.033 6.03174C133.965 5.82306 133.931 5.59973 133.931 5.36179C133.931 5.12386 133.969 4.90262 134.046 4.69808C134.127 4.49354 134.234 4.31614 134.371 4.16587C134.507 4.0156 134.671 3.89872 134.862 3.81523C135.054 3.73175 135.26 3.69 135.481 3.69C135.715 3.69 135.923 3.73383 136.107 3.82149C136.294 3.90497 136.451 4.02603 136.579 4.18465C136.706 4.3391 136.804 4.52694 136.872 4.74818C136.94 4.96941 136.974 5.2136 136.974 5.48075V5.54337H134.505V5.58096C134.505 5.89402 134.596 6.14446 134.779 6.3323C134.962 6.51594 135.213 6.60778 135.533 6.60778C136.004 6.60778 136.289 6.397 136.387 5.97538H136.923C136.851 6.34274 136.691 6.61827 136.444 6.8019C136.198 6.98554 135.888 7.07738 135.513 7.07738ZM136.4 5.07377C136.391 4.94019 136.362 4.81914 136.311 4.71061C136.26 4.5979 136.191 4.50189 136.107 4.42258C136.026 4.3391 135.928 4.2744 135.813 4.22848C135.702 4.18257 135.579 4.15961 135.443 4.15961C135.188 4.15961 134.973 4.24309 134.798 4.41006C134.628 4.57285 134.53 4.79409 134.505 5.07377H136.4ZM138.073 3.76514V4.27857H138.086C138.32 3.88619 138.677 3.69 139.158 3.69C139.915 3.69 140.293 4.07612 140.293 4.84835V7.00225H139.751V4.792C139.751 4.61251 139.694 4.46224 139.579 4.34119C139.464 4.22014 139.296 4.15961 139.075 4.15961C138.764 4.15961 138.524 4.25144 138.354 4.43511C138.188 4.6146 138.105 4.85462 138.105 5.15517V7.00225H137.562V3.76514H138.073ZM142.098 7.00225C141.958 7.00225 141.839 6.99181 141.741 6.97098C141.647 6.9501 141.571 6.91462 141.511 6.86453C141.451 6.81445 141.409 6.74554 141.384 6.65787C141.358 6.57024 141.345 6.45958 141.345 6.32603V4.23474H140.784V3.76514H141.345V2.79463H141.887V3.76514H142.545V4.23474H141.887V6.26345C141.887 6.35941 141.906 6.42831 141.945 6.47007C141.983 6.51182 142.079 6.53265 142.232 6.53265H142.545V7.00225H142.098ZM143.665 3.76514V4.44763H143.678C143.924 3.94254 144.303 3.69 144.813 3.69H144.89V4.25353C144.477 4.25353 144.176 4.35788 143.984 4.5666C143.793 4.77531 143.697 5.10507 143.697 5.55587V7.00225H143.154V3.76514H143.665ZM146.616 7.07738C146.357 7.07738 146.127 7.03356 145.927 6.94594C145.731 6.85405 145.568 6.73094 145.435 6.57651C145.304 6.42204 145.204 6.24046 145.136 6.03174C145.068 5.82306 145.034 5.59973 145.034 5.36179C145.034 5.12386 145.072 4.90262 145.149 4.69808C145.229 4.49354 145.338 4.31614 145.474 4.16587C145.61 4.0156 145.774 3.89872 145.965 3.81523C146.157 3.73175 146.363 3.69 146.584 3.69C146.818 3.69 147.027 3.73383 147.209 3.82149C147.397 3.90497 147.554 4.02603 147.682 4.18465C147.809 4.3391 147.907 4.52694 147.975 4.74818C148.043 4.96941 148.077 5.2136 148.077 5.48075V5.54337H145.608V5.58096C145.608 5.89402 145.7 6.14446 145.882 6.3323C146.065 6.51594 146.316 6.60778 146.635 6.60778C147.107 6.60778 147.392 6.397 147.49 5.97538H148.026C147.954 6.34274 147.794 6.61827 147.548 6.8019C147.301 6.98554 146.99 7.07738 146.616 7.07738ZM147.503 5.07377C147.495 4.94019 147.464 4.81914 147.414 4.71061C147.362 4.5979 147.295 4.50189 147.209 4.42258C147.129 4.3391 147.031 4.2744 146.916 4.22848C146.806 4.18257 146.682 4.15961 146.546 4.15961C146.291 4.15961 146.076 4.24309 145.902 4.41006C145.731 4.57285 145.634 4.79409 145.608 5.07377H147.503ZM151.808 7.07738C151.579 7.07738 151.37 7.03778 151.183 6.95843C151 6.87497 150.84 6.75809 150.704 6.60778C150.572 6.45752 150.47 6.27801 150.398 6.06933C150.326 5.86065 150.289 5.62894 150.289 5.37431C150.289 5.11968 150.323 4.8901 150.392 4.68556C150.464 4.47685 150.564 4.29944 150.691 4.15334C150.823 4.00307 150.98 3.88828 151.164 3.80897C151.351 3.72966 151.559 3.69 151.789 3.69C152.006 3.69 152.212 3.73383 152.408 3.82149C152.608 3.90915 152.758 4.03438 152.861 4.19718H152.873V2.53165H153.416V7.00225H152.873V6.56397H152.861C152.776 6.73094 152.639 6.85826 152.452 6.94594C152.269 7.03356 152.055 7.07738 151.808 7.07738ZM151.885 6.60778C152.195 6.60778 152.439 6.49717 152.618 6.27595C152.801 6.05056 152.893 5.7542 152.893 5.38683C152.893 5.0195 152.801 4.72313 152.618 4.49772C152.439 4.27231 152.182 4.15961 151.846 4.15961C151.527 4.15961 151.283 4.27022 151.112 4.49146C150.946 4.71269 150.864 5.0195 150.864 5.41188C150.864 5.58718 150.887 5.74999 150.934 5.90025C150.985 6.04634 151.055 6.17156 151.145 6.27595C151.234 6.38033 151.34 6.46173 151.464 6.52015C151.591 6.57857 151.732 6.60778 151.885 6.60778ZM155.68 7.07738C155.421 7.07738 155.191 7.03356 154.991 6.94594C154.795 6.85405 154.632 6.73094 154.5 6.57651C154.368 6.42204 154.268 6.24046 154.2 6.03174C154.132 5.82306 154.098 5.59973 154.098 5.36179C154.098 5.12386 154.136 4.90262 154.213 4.69808C154.293 4.49354 154.402 4.31614 154.538 4.16587C154.674 4.0156 154.838 3.89872 155.029 3.81523C155.221 3.73175 155.427 3.69 155.648 3.69C155.882 3.69 156.091 3.73383 156.273 3.82149C156.461 3.90497 156.618 4.02603 156.746 4.18465C156.873 4.3391 156.971 4.52694 157.039 4.74818C157.107 4.96941 157.141 5.2136 157.141 5.48075V5.54337H154.672V5.58096C154.672 5.89402 154.764 6.14446 154.947 6.3323C155.129 6.51594 155.38 6.60778 155.699 6.60778C156.172 6.60778 156.456 6.397 156.554 5.97538H157.09C157.018 6.34274 156.858 6.61827 156.612 6.8019C156.365 6.98554 156.054 7.07738 155.68 7.07738ZM156.567 5.07377C156.559 4.94019 156.529 4.81914 156.478 4.71061C156.427 4.5979 156.359 4.50189 156.273 4.42258C156.193 4.3391 156.095 4.2744 155.98 4.22848C155.87 4.18257 155.746 4.15961 155.61 4.15961C155.355 4.15961 155.14 4.24309 154.966 4.41006C154.795 4.57285 154.698 4.79409 154.672 5.07377H156.567ZM160.106 2.53165V7.00225H159.564V2.53165H160.106ZM161.885 7.07738C161.541 7.07738 161.273 7.00019 161.081 6.84572C160.89 6.68712 160.794 6.46173 160.794 6.1695C160.794 5.87731 160.89 5.64776 161.081 5.48075C161.277 5.30962 161.722 5.18021 162.415 5.09255C162.653 5.06333 162.813 5.0195 162.893 4.96106C162.979 4.89845 163.021 4.8087 163.021 4.69182C163.021 4.33701 162.777 4.15961 162.287 4.15961C162.019 4.15961 161.817 4.2097 161.681 4.30988C161.549 4.40588 161.477 4.56033 161.464 4.77322H160.922C160.969 4.05108 161.437 3.69 162.325 3.69C163.147 3.69 163.557 3.98011 163.557 4.56033V6.42621C163.557 6.54726 163.615 6.60778 163.729 6.60778C163.776 6.60778 163.831 6.59734 163.895 6.57651V6.98975C163.785 7.04817 163.655 7.07738 163.506 7.07738C163.2 7.07738 163.047 6.91041 163.047 6.57651C162.757 6.91041 162.37 7.07738 161.885 7.07738ZM162.007 6.60778C162.155 6.60778 162.291 6.58901 162.415 6.55147C162.538 6.51388 162.645 6.46173 162.734 6.39494C162.823 6.32809 162.892 6.25296 162.938 6.1695C162.989 6.08183 163.014 5.98792 163.014 5.88775V5.33048C162.968 5.36386 162.913 5.39102 162.849 5.41188C162.785 5.43273 162.713 5.44945 162.632 5.46197L162.077 5.54337C161.834 5.57675 161.655 5.63938 161.541 5.73122C161.426 5.82306 161.368 5.95661 161.368 6.13196C161.368 6.28222 161.424 6.3991 161.535 6.48256C161.645 6.56603 161.802 6.60778 162.007 6.60778ZM167.415 7.07738C166.99 7.07738 166.654 6.98769 166.407 6.80817C166.165 6.62449 166.035 6.34902 166.018 5.98165H166.561C166.569 6.18204 166.648 6.33647 166.796 6.44502C166.95 6.55353 167.166 6.60778 167.447 6.60778C167.979 6.60778 168.245 6.44708 168.245 6.12569C168.245 5.97959 168.181 5.86687 168.054 5.78758C167.985 5.74582 167.883 5.70407 167.747 5.66231C167.611 5.61644 167.434 5.57258 167.218 5.53084C166.813 5.44738 166.524 5.33674 166.349 5.19899C166.175 5.05707 166.088 4.86088 166.088 4.61042C166.088 4.47268 166.115 4.34745 166.171 4.23474C166.23 4.12204 166.314 4.02603 166.42 3.94672C166.53 3.86324 166.66 3.80062 166.809 3.75888C166.962 3.71296 167.135 3.69 167.326 3.69C167.777 3.69 168.109 3.77558 168.322 3.94672C168.534 4.11369 168.651 4.36623 168.672 4.70434H168.13V4.69808C168.113 4.52276 168.034 4.38919 167.894 4.29735C167.758 4.20552 167.581 4.15961 167.364 4.15961C167.147 4.15961 166.975 4.19509 166.847 4.26605C166.724 4.33701 166.662 4.43928 166.662 4.57285C166.662 4.69391 166.715 4.792 166.822 4.86714C166.932 4.9381 167.103 4.99863 167.332 5.04872L167.843 5.16142C168.162 5.23239 168.404 5.33674 168.57 5.47449C168.736 5.61223 168.819 5.80635 168.819 6.05678C168.819 6.38239 168.693 6.63493 168.443 6.81445C168.195 6.98975 167.853 7.07738 167.415 7.07738ZM170.849 7.07738C170.589 7.07738 170.359 7.03356 170.16 6.94594C169.964 6.85405 169.8 6.73094 169.668 6.57651C169.536 6.42204 169.436 6.24046 169.369 6.03174C169.3 5.82306 169.267 5.59973 169.267 5.36179C169.267 5.12386 169.305 4.90262 169.381 4.69808C169.462 4.49354 169.571 4.31614 169.707 4.16587C169.842 4.0156 170.007 3.89872 170.198 3.81523C170.39 3.73175 170.595 3.69 170.817 3.69C171.051 3.69 171.259 3.73383 171.442 3.82149C171.629 3.90497 171.787 4.02603 171.914 4.18465C172.042 4.3391 172.139 4.52694 172.208 4.74818C172.276 4.96941 172.31 5.2136 172.31 5.48075V5.54337H169.841V5.58096C169.841 5.89402 169.932 6.14446 170.115 6.3323C170.298 6.51594 170.549 6.60778 170.868 6.60778C171.34 6.60778 171.625 6.397 171.723 5.97538H172.259C172.186 6.34274 172.027 6.61827 171.78 6.8019C171.534 6.98554 171.223 7.07738 170.849 7.07738ZM171.736 5.07377C171.727 4.94019 171.697 4.81914 171.646 4.71061C171.595 4.5979 171.527 4.50189 171.442 4.42258C171.361 4.3391 171.263 4.2744 171.148 4.22848C171.038 4.18257 170.914 4.15961 170.779 4.15961C170.523 4.15961 170.309 4.24309 170.134 4.41006C169.964 4.57285 169.866 4.79409 169.841 5.07377H171.736ZM171.123 2.41895H171.678L170.995 3.31432H170.44L171.123 2.41895ZM174.264 7.07738C174.026 7.07738 173.811 7.03984 173.619 6.96471C173.432 6.88958 173.27 6.78102 173.135 6.6391C173.002 6.493 172.9 6.3177 172.828 6.11314C172.756 5.90858 172.72 5.67902 172.72 5.4244C172.72 5.15725 172.756 4.91723 172.828 4.70434C172.9 4.48728 173.002 4.30362 173.135 4.15334C173.27 4.00307 173.435 3.88828 173.626 3.80897C173.817 3.72966 174.034 3.69 174.277 3.69C174.676 3.69 175.002 3.78184 175.253 3.9655C175.504 4.14917 175.653 4.42884 175.7 4.80453H175.138C175.044 4.37458 174.772 4.15961 174.321 4.15961C173.985 4.15961 173.73 4.27022 173.556 4.49146C173.381 4.70852 173.294 5.0195 173.294 5.4244C173.294 5.77924 173.377 6.06511 173.543 6.28222C173.713 6.49928 173.951 6.60778 174.257 6.60778C174.525 6.60778 174.734 6.53892 174.883 6.40116C175.036 6.26345 175.13 6.06933 175.164 5.81885H175.719C175.659 6.2238 175.504 6.53476 175.253 6.75182C175.006 6.96887 174.676 7.07738 174.264 7.07738ZM177.487 7.07738C176.73 7.07738 176.352 6.6934 176.352 5.92529V3.76514H176.894V5.96915C176.894 6.157 176.954 6.31143 177.072 6.43248C177.192 6.54936 177.355 6.60778 177.564 6.60778C177.883 6.60778 178.126 6.51805 178.291 6.33858C178.458 6.15489 178.54 5.91279 178.54 5.61223V3.76514H179.083V7.00225H178.572V6.48884H178.559C178.338 6.88124 177.981 7.07738 177.487 7.07738ZM180.415 3.76514V4.44763H180.427C180.674 3.94254 181.053 3.69 181.563 3.69H181.64V4.25353C181.227 4.25353 180.925 4.35788 180.734 4.5666C180.542 4.77531 180.447 5.10507 180.447 5.55587V7.00225H179.904V3.76514H180.415ZM182.649 2.53165V3.18283H182.107V2.53165H182.649ZM182.649 3.76514V7.00225H182.107V3.76514H182.649ZM184.479 7.00225C184.338 7.00225 184.22 6.99181 184.122 6.97098C184.028 6.9501 183.952 6.91462 183.892 6.86453C183.832 6.81445 183.79 6.74554 183.764 6.65787C183.739 6.57024 183.726 6.45958 183.726 6.32603V4.23474H183.164V3.76514H183.726V2.79463H184.269V3.76514H184.925V4.23474H184.269V6.26345C184.269 6.35941 184.287 6.42831 184.326 6.47007C184.364 6.51182 184.46 6.53265 184.613 6.53265H184.925V7.00225H184.479ZM186.883 7.07738C186.624 7.07738 186.394 7.03356 186.194 6.94594C185.998 6.85405 185.835 6.73094 185.703 6.57651C185.571 6.42204 185.471 6.24046 185.403 6.03174C185.335 5.82306 185.301 5.59973 185.301 5.36179C185.301 5.12386 185.34 4.90262 185.416 4.69808C185.496 4.49354 185.605 4.31614 185.741 4.16587C185.877 4.0156 186.041 3.89872 186.233 3.81523C186.424 3.73175 186.63 3.69 186.851 3.69C187.086 3.69 187.294 3.73383 187.476 3.82149C187.663 3.90497 187.821 4.02603 187.949 4.18465C188.076 4.3391 188.174 4.52694 188.242 4.74818C188.311 4.96941 188.344 5.2136 188.344 5.48075V5.54337H185.876V5.58096C185.876 5.89402 185.966 6.14446 186.15 6.3323C186.332 6.51594 186.583 6.60778 186.902 6.60778C187.375 6.60778 187.66 6.397 187.757 5.97538H188.293C188.221 6.34274 188.061 6.61827 187.815 6.8019C187.568 6.98554 187.257 7.07738 186.883 7.07738ZM187.77 5.07377C187.762 4.94019 187.732 4.81914 187.681 4.71061C187.63 4.5979 187.562 4.50189 187.476 4.42258C187.395 4.3391 187.298 4.2744 187.183 4.22848C187.073 4.18257 186.949 4.15961 186.813 4.15961C186.558 4.15961 186.343 4.24309 186.169 4.41006C185.999 4.57285 185.901 4.79409 185.876 5.07377H187.77ZM187.158 2.41895H187.713L187.03 3.31432H186.475L187.158 2.41895Z" fill="white"/>
<path d="M131.262 13.0149C131.033 13.0149 130.824 12.9752 130.637 12.8959C130.454 12.8124 130.295 12.6955 130.158 12.5453C130.027 12.395 129.924 12.2155 129.852 12.0068C129.78 11.7981 129.744 11.5664 129.744 11.3118C129.744 11.0571 129.777 10.8276 129.846 10.623C129.918 10.4144 130.018 10.2369 130.145 10.0908C130.277 9.94054 130.435 9.82576 130.618 9.74647C130.805 9.66712 131.013 9.62748 131.243 9.62748C131.46 9.62748 131.666 9.67129 131.862 9.75897C132.062 9.84664 132.212 9.97186 132.315 10.1347H132.327V8.46912H132.87V12.9397H132.327V12.5015H132.315C132.23 12.6684 132.094 12.7957 131.906 12.8834C131.724 12.9711 131.508 13.0149 131.262 13.0149ZM131.339 12.5453C131.649 12.5453 131.894 12.4346 132.072 12.2134C132.255 11.988 132.347 11.6917 132.347 11.3243C132.347 10.957 132.255 10.6606 132.072 10.4352C131.894 10.2098 131.636 10.0971 131.301 10.0971C130.981 10.0971 130.737 10.2077 130.566 10.429C130.401 10.6501 130.318 10.957 130.318 11.3493C130.318 11.5247 130.341 11.6875 130.388 11.8377C130.439 11.9838 130.509 12.1091 130.598 12.2134C130.688 12.3178 130.794 12.3992 130.918 12.4576C131.045 12.516 131.186 12.5453 131.339 12.5453ZM135.134 13.0149C134.875 13.0149 134.645 12.9711 134.445 12.8834C134.249 12.7915 134.086 12.6684 133.954 12.514C133.822 12.3595 133.722 12.1779 133.654 11.9692C133.586 11.7605 133.552 11.5372 133.552 11.2992C133.552 11.0613 133.59 10.8401 133.667 10.6356C133.748 10.431 133.856 10.2536 133.992 10.1033C134.128 9.95309 134.292 9.83616 134.484 9.75269C134.675 9.66923 134.882 9.62748 135.102 9.62748C135.337 9.62748 135.545 9.67129 135.727 9.75897C135.915 9.84243 136.072 9.96352 136.2 10.1221C136.327 10.2766 136.425 10.4644 136.493 10.6857C136.562 10.9069 136.595 11.151 136.595 11.4182V11.4808H134.126V11.5184C134.126 11.8315 134.218 12.082 134.4 12.2698C134.583 12.4534 134.834 12.5453 135.153 12.5453C135.625 12.5453 135.911 12.3345 136.008 11.9129H136.544C136.472 12.2802 136.313 12.5557 136.066 12.7394C135.819 12.923 135.509 13.0149 135.134 13.0149ZM136.021 11.0112C136.013 10.8777 135.983 10.7566 135.932 10.6481C135.88 10.5354 135.813 10.4394 135.727 10.3601C135.647 10.2766 135.549 10.2119 135.434 10.166C135.324 10.1201 135.2 10.0971 135.064 10.0971C134.809 10.0971 134.594 10.1805 134.42 10.3476C134.249 10.5103 134.152 10.7315 134.126 11.0112H136.021ZM138.371 13.0149C137.945 13.0149 137.609 12.9251 137.363 12.7456C137.12 12.562 136.991 12.2865 136.974 11.9192H137.516C137.524 12.1195 137.603 12.274 137.752 12.3825C137.905 12.491 138.122 12.5453 138.403 12.5453C138.934 12.5453 139.2 12.3845 139.2 12.0631C139.2 11.917 139.136 11.8044 139.009 11.725C138.94 11.6833 138.839 11.6416 138.703 11.5998C138.567 11.5539 138.39 11.5101 138.173 11.4683C137.769 11.3849 137.48 11.2742 137.306 11.1365C137.131 10.9945 137.044 10.7983 137.044 10.5479C137.044 10.4101 137.071 10.2849 137.127 10.1722C137.186 10.0595 137.269 9.96352 137.375 9.88418C137.486 9.80072 137.616 9.73813 137.765 9.69633C137.918 9.65046 138.09 9.62748 138.282 9.62748C138.732 9.62748 139.064 9.71305 139.277 9.88418C139.489 10.0512 139.606 10.3037 139.628 10.6418H139.086V10.6356C139.068 10.4602 138.99 10.3267 138.85 10.2348C138.713 10.143 138.537 10.0971 138.32 10.0971C138.103 10.0971 137.931 10.1326 137.803 10.2035C137.68 10.2745 137.618 10.3768 137.618 10.5103C137.618 10.6314 137.671 10.7295 137.778 10.8046C137.888 10.8756 138.058 10.9361 138.288 10.9862L138.798 11.0989C139.118 11.1699 139.36 11.2742 139.526 11.412C139.692 11.5497 139.775 11.7438 139.775 11.9943C139.775 12.3198 139.649 12.5724 139.398 12.7519C139.151 12.9272 138.809 13.0149 138.371 13.0149ZM143.166 12.9397C143.026 12.9397 142.907 12.9293 142.809 12.9084C142.715 12.8876 142.639 12.8521 142.579 12.802C142.52 12.7519 142.477 12.683 142.452 12.5954C142.426 12.5077 142.413 12.3971 142.413 12.2635V10.1722H141.852V9.70261H142.413V8.7321H142.956V9.70261H143.613V10.1722H142.956V12.2009C142.956 12.2969 142.975 12.3658 143.013 12.4075C143.051 12.4493 143.147 12.4702 143.3 12.4702H143.613V12.9397H143.166ZM145.571 13.0149C145.311 13.0149 145.082 12.9711 144.882 12.8834C144.686 12.7915 144.522 12.6684 144.39 12.514C144.258 12.3595 144.159 12.1779 144.091 11.9692C144.022 11.7605 143.988 11.5372 143.988 11.2992C143.988 11.0613 144.027 10.8401 144.103 10.6356C144.184 10.431 144.293 10.2536 144.429 10.1033C144.564 9.95309 144.729 9.83616 144.92 9.75269C145.111 9.66923 145.318 9.62748 145.539 9.62748C145.773 9.62748 145.981 9.67129 146.164 9.75897C146.351 9.84243 146.509 9.96352 146.636 10.1221C146.764 10.2766 146.861 10.4644 146.93 10.6857C146.998 10.9069 147.032 11.151 147.032 11.4182V11.4808H144.563V11.5184C144.563 11.8315 144.654 12.082 144.837 12.2698C145.02 12.4534 145.271 12.5453 145.59 12.5453C146.062 12.5453 146.347 12.3345 146.445 11.9129H146.981C146.909 12.2802 146.749 12.5557 146.503 12.7394C146.256 12.923 145.945 13.0149 145.571 13.0149ZM146.457 11.0112C146.449 10.8777 146.419 10.7566 146.368 10.6481C146.317 10.5354 146.249 10.4394 146.164 10.3601C146.083 10.2766 145.985 10.2119 145.871 10.166C145.76 10.1201 145.636 10.0971 145.5 10.0971C145.245 10.0971 145.031 10.1805 144.857 10.3476C144.686 10.5103 144.589 10.7315 144.563 11.0112H146.457ZM145.845 8.35645H146.4L145.717 9.25178H145.163L145.845 8.35645ZM148.195 8.46912V12.9397H147.652V8.46912H148.195ZM150.465 13.0149C150.205 13.0149 149.976 12.9711 149.776 12.8834C149.58 12.7915 149.416 12.6684 149.284 12.514C149.153 12.3595 149.053 12.1779 148.985 11.9692C148.916 11.7605 148.882 11.5372 148.882 11.2992C148.882 11.0613 148.921 10.8401 148.997 10.6356C149.078 10.431 149.187 10.2536 149.322 10.1033C149.459 9.95309 149.623 9.83616 149.814 9.75269C150.005 9.66923 150.212 9.62748 150.433 9.62748C150.667 9.62748 150.875 9.67129 151.058 9.75897C151.245 9.84243 151.403 9.96352 151.53 10.1221C151.658 10.2766 151.756 10.4644 151.824 10.6857C151.892 10.9069 151.926 11.151 151.926 11.4182V11.4808H149.457V11.5184C149.457 11.8315 149.548 12.082 149.731 12.2698C149.914 12.4534 150.165 12.5453 150.484 12.5453C150.956 12.5453 151.241 12.3345 151.339 11.9129H151.875C151.803 12.2802 151.643 12.5557 151.397 12.7394C151.15 12.923 150.839 13.0149 150.465 13.0149ZM151.351 11.0112C151.343 10.8777 151.313 10.7566 151.262 10.6481C151.211 10.5354 151.143 10.4394 151.058 10.3601C150.977 10.2766 150.879 10.2119 150.765 10.166C150.654 10.1201 150.531 10.0971 150.394 10.0971C150.139 10.0971 149.925 10.1805 149.751 10.3476C149.58 10.5103 149.483 10.7315 149.457 11.0112H151.351ZM150.739 8.35645H151.294L150.611 9.25178H150.057L150.739 8.35645ZM153.88 13.0149C153.642 13.0149 153.427 12.9773 153.236 12.9022C153.048 12.827 152.887 12.7185 152.751 12.5766C152.619 12.4305 152.517 12.2552 152.445 12.0506C152.372 11.8461 152.336 11.6165 152.336 11.3619C152.336 11.0947 152.372 10.8547 152.445 10.6418C152.517 10.4247 152.619 10.2411 152.751 10.0908C152.887 9.94054 153.051 9.82576 153.242 9.74647C153.433 9.66712 153.65 9.62748 153.893 9.62748C154.293 9.62748 154.618 9.71932 154.869 9.903C155.12 10.0866 155.269 10.3663 155.316 10.742H154.754C154.66 10.312 154.388 10.0971 153.938 10.0971C153.601 10.0971 153.346 10.2077 153.172 10.429C152.997 10.646 152.91 10.957 152.91 11.3619C152.91 11.7167 152.993 12.0026 153.159 12.2197C153.329 12.4368 153.567 12.5453 153.874 12.5453C154.142 12.5453 154.35 12.4764 154.499 12.3387C154.652 12.2009 154.745 12.0068 154.78 11.7563H155.334C155.275 12.1613 155.12 12.4722 154.869 12.6893C154.622 12.9064 154.293 13.0149 153.88 13.0149ZM157.391 13.0149C157.148 13.0149 156.927 12.9752 156.727 12.8959C156.532 12.8166 156.364 12.7039 156.223 12.5578C156.087 12.4075 155.981 12.228 155.904 12.0193C155.828 11.8106 155.789 11.5789 155.789 11.3243C155.789 11.0655 155.825 10.8318 155.898 10.623C155.975 10.4144 156.081 10.2369 156.217 10.0908C156.357 9.94054 156.525 9.82576 156.721 9.74647C156.921 9.66712 157.144 9.62748 157.391 9.62748C157.637 9.62748 157.858 9.66923 158.054 9.75269C158.254 9.83204 158.422 9.94475 158.558 10.0908C158.699 10.2369 158.805 10.4144 158.877 10.623C158.954 10.8318 158.992 11.0655 158.992 11.3243C158.992 11.5706 158.954 11.7981 158.877 12.0068C158.805 12.2113 158.699 12.3887 158.558 12.539C158.422 12.6893 158.254 12.8062 158.054 12.8897C157.858 12.9731 157.637 13.0149 157.391 13.0149ZM157.391 12.5453C157.54 12.5453 157.676 12.516 157.799 12.4576C157.927 12.3992 158.035 12.3178 158.125 12.2134C158.218 12.1049 158.29 11.9755 158.341 11.8252C158.393 11.6749 158.418 11.508 158.418 11.3243C158.418 11.1407 158.393 10.9737 158.341 10.8234C158.29 10.6731 158.22 10.5458 158.131 10.4415C158.042 10.3329 157.933 10.2494 157.805 10.191C157.678 10.1284 157.537 10.0971 157.384 10.0971C157.24 10.0971 157.103 10.1284 156.976 10.191C156.853 10.2494 156.744 10.3329 156.651 10.4415C156.561 10.55 156.491 10.6794 156.44 10.8296C156.389 10.98 156.364 11.1448 156.364 11.3243C156.364 11.5038 156.389 11.6687 156.44 11.819C156.491 11.9692 156.561 12.0987 156.651 12.2072C156.74 12.3157 156.846 12.3992 156.97 12.4576C157.097 12.516 157.238 12.5453 157.391 12.5453ZM160.168 9.70261V10.1785H160.181C160.428 9.81111 160.783 9.62748 161.247 9.62748C161.732 9.62748 162.034 9.81111 162.153 10.1785C162.263 10.0032 162.408 9.86747 162.587 9.77151C162.769 9.6755 162.972 9.62748 163.193 9.62748C163.567 9.62748 163.841 9.70888 164.016 9.87168C164.195 10.0345 164.284 10.2599 164.284 10.5479V12.9397H163.742V10.7921C163.742 10.5542 163.693 10.3788 163.595 10.2662C163.497 10.1534 163.333 10.0971 163.103 10.0971C162.848 10.0971 162.64 10.1722 162.478 10.3225C162.321 10.4686 162.242 10.6627 162.242 10.9048V12.9397H161.7V10.7921C161.7 10.5542 161.651 10.3788 161.553 10.2662C161.455 10.1534 161.298 10.0971 161.081 10.0971C160.924 10.0971 160.781 10.1326 160.653 10.2035C160.526 10.2703 160.42 10.3768 160.334 10.5229C160.245 10.6648 160.201 10.7942 160.201 10.9111V12.9397H159.658V9.70261H160.168ZM165.634 9.70261V10.1785H165.647C165.894 9.81111 166.249 9.62748 166.713 9.62748C167.198 9.62748 167.5 9.81111 167.619 10.1785C167.729 10.0032 167.874 9.86747 168.053 9.77151C168.235 9.6755 168.437 9.62748 168.659 9.62748C169.033 9.62748 169.307 9.70888 169.482 9.87168C169.66 10.0345 169.75 10.2599 169.75 10.5479V12.9397H169.207V10.7921C169.207 10.5542 169.158 10.3788 169.061 10.2662C168.963 10.1534 168.799 10.0971 168.569 10.0971C168.314 10.0971 168.106 10.1722 167.944 10.3225C167.786 10.4686 167.708 10.6627 167.708 10.9048V12.9397H167.166V10.7921C167.166 10.5542 167.117 10.3788 167.019 10.2662C166.921 10.1534 166.764 10.0971 166.547 10.0971C166.389 10.0971 166.247 10.1326 166.119 10.2035C165.992 10.2703 165.885 10.3768 165.8 10.5229C165.711 10.6648 165.666 10.7942 165.666 10.9111V12.9397H165.124V9.70261H165.634ZM171.726 13.0149C170.968 13.0149 170.59 12.6308 170.59 11.8628V9.70261H171.132V11.9066C171.132 12.0945 171.192 12.2489 171.311 12.37C171.43 12.4869 171.594 12.5453 171.802 12.5453C172.121 12.5453 172.364 12.4555 172.53 12.276C172.695 12.0924 172.778 11.8502 172.778 11.5497V9.70261H173.321V12.9397H172.81V12.4263H172.798C172.576 12.8187 172.219 13.0149 171.726 13.0149ZM174.672 9.70261V10.2161H174.685C174.919 9.82366 175.276 9.62748 175.757 9.62748C176.514 9.62748 176.892 10.0136 176.892 10.7858V12.9397H176.35V10.7295C176.35 10.55 176.293 10.3997 176.178 10.2787C176.063 10.1576 175.895 10.0971 175.674 10.0971C175.364 10.0971 175.123 10.1889 174.953 10.3726C174.787 10.5521 174.704 10.7921 174.704 11.0926V12.9397H174.162V9.70261H174.672ZM178.308 8.46912V9.12029H177.766V8.46912H178.308ZM178.308 9.70261V12.9397H177.766V9.70261H178.308ZM180.54 13.0149C180.301 13.0149 180.087 12.9773 179.895 12.9022C179.708 12.827 179.546 12.7185 179.41 12.5766C179.278 12.4305 179.176 12.2552 179.104 12.0506C179.032 11.8461 178.996 11.6165 178.996 11.3619C178.996 11.0947 179.032 10.8547 179.104 10.6418C179.176 10.4247 179.278 10.2411 179.41 10.0908C179.546 9.94054 179.71 9.82576 179.902 9.74647C180.093 9.66712 180.31 9.62748 180.552 9.62748C180.952 9.62748 181.278 9.71932 181.529 9.903C181.779 10.0866 181.929 10.3663 181.975 10.742H181.414C181.32 10.312 181.048 10.0971 180.597 10.0971C180.261 10.0971 180.006 10.2077 179.831 10.429C179.657 10.646 179.57 10.957 179.57 11.3619C179.57 11.7167 179.653 12.0026 179.819 12.2197C179.989 12.4368 180.227 12.5453 180.533 12.5453C180.801 12.5453 181.01 12.4764 181.159 12.3387C181.312 12.2009 181.405 12.0068 181.439 11.7563H181.995C181.935 12.1613 181.779 12.4722 181.529 12.6893C181.282 12.9064 180.952 13.0149 180.54 13.0149ZM183.54 13.0149C183.196 13.0149 182.928 12.9377 182.736 12.7832C182.545 12.6246 182.449 12.3992 182.449 12.107C182.449 11.8148 182.545 11.5852 182.736 11.4182C182.932 11.2471 183.376 11.1177 184.07 11.03C184.308 11.0008 184.467 10.957 184.548 10.8986C184.633 10.8359 184.676 10.7462 184.676 10.6293C184.676 10.2745 184.431 10.0971 183.942 10.0971C183.674 10.0971 183.472 10.1472 183.336 10.2473C183.204 10.3433 183.132 10.4978 183.119 10.7107H182.577C182.623 9.98857 183.091 9.62748 183.98 9.62748C184.801 9.62748 185.212 9.91756 185.212 10.4978V12.3637C185.212 12.4848 185.269 12.5453 185.384 12.5453C185.431 12.5453 185.486 12.5348 185.55 12.514V12.9272C185.439 12.9856 185.309 13.0149 185.161 13.0149C184.854 13.0149 184.701 12.8479 184.701 12.514C184.412 12.8479 184.025 13.0149 183.54 13.0149ZM183.661 12.5453C183.81 12.5453 183.946 12.5265 184.07 12.4889C184.193 12.4513 184.3 12.3992 184.389 12.3324C184.478 12.2656 184.546 12.1905 184.593 12.107C184.644 12.0193 184.669 11.9254 184.669 11.8252V11.268C184.622 11.3014 184.568 11.3285 184.503 11.3493C184.44 11.3702 184.367 11.3869 184.287 11.3995L183.732 11.4808C183.489 11.5142 183.31 11.5768 183.196 11.6687C183.081 11.7605 183.023 11.8941 183.023 12.0694C183.023 12.2197 183.078 12.3366 183.189 12.4201C183.3 12.5035 183.457 12.5453 183.661 12.5453ZM187.044 12.9397C186.904 12.9397 186.785 12.9293 186.687 12.9084C186.594 12.8876 186.517 12.8521 186.457 12.802C186.398 12.7519 186.355 12.683 186.33 12.5954C186.304 12.5077 186.291 12.3971 186.291 12.2635V10.1722H185.73V9.70261H186.291V8.7321H186.834V9.70261H187.491V10.1722H186.834V12.2009C186.834 12.2969 186.853 12.3658 186.891 12.4075C186.93 12.4493 187.026 12.4702 187.179 12.4702H187.491V12.9397H187.044ZM188.694 8.46912V9.12029H188.152V8.46912H188.694ZM188.694 9.70261V12.9397H188.152V9.70261H188.694ZM190.983 13.0149C190.741 13.0149 190.52 12.9752 190.32 12.8959C190.125 12.8166 189.957 12.7039 189.816 12.5578C189.68 12.4075 189.574 12.228 189.497 12.0193C189.421 11.8106 189.382 11.5789 189.382 11.3243C189.382 11.0655 189.418 10.8318 189.49 10.623C189.567 10.4144 189.673 10.2369 189.81 10.0908C189.95 9.94054 190.118 9.82576 190.314 9.74647C190.514 9.66712 190.737 9.62748 190.983 9.62748C191.23 9.62748 191.451 9.66923 191.647 9.75269C191.847 9.83204 192.015 9.94475 192.151 10.0908C192.292 10.2369 192.398 10.4144 192.47 10.623C192.547 10.8318 192.585 11.0655 192.585 11.3243C192.585 11.5706 192.547 11.7981 192.47 12.0068C192.398 12.2113 192.292 12.3887 192.151 12.539C192.015 12.6893 191.847 12.8062 191.647 12.8897C191.451 12.9731 191.23 13.0149 190.983 13.0149ZM190.983 12.5453C191.133 12.5453 191.269 12.516 191.392 12.4576C191.519 12.3992 191.628 12.3178 191.718 12.2134C191.811 12.1049 191.883 11.9755 191.934 11.8252C191.986 11.6749 192.011 11.508 192.011 11.3243C192.011 11.1407 191.986 10.9737 191.934 10.8234C191.883 10.6731 191.813 10.5458 191.724 10.4415C191.634 10.3329 191.526 10.2494 191.398 10.191C191.271 10.1284 191.13 10.0971 190.977 10.0971C190.833 10.0971 190.696 10.1284 190.569 10.191C190.445 10.2494 190.337 10.3329 190.243 10.4415C190.154 10.55 190.084 10.6794 190.033 10.8296C189.982 10.98 189.957 11.1448 189.957 11.3243C189.957 11.5038 189.982 11.6687 190.033 11.819C190.084 11.9692 190.154 12.0987 190.243 12.2072C190.333 12.3157 190.439 12.3992 190.562 12.4576C190.69 12.516 190.83 12.5453 190.983 12.5453ZM193.761 9.70261V10.2161H193.774C194.008 9.82366 194.365 9.62748 194.846 9.62748C195.603 9.62748 195.982 10.0136 195.982 10.7858V12.9397H195.439V10.7295C195.439 10.55 195.382 10.3997 195.267 10.2787C195.152 10.1576 194.984 10.0971 194.763 10.0971C194.453 10.0971 194.212 10.1889 194.042 10.3726C193.876 10.5521 193.793 10.7921 193.793 11.0926V12.9397H193.251V9.70261H193.761ZM198.009 13.0149C197.584 13.0149 197.248 12.9251 197.001 12.7456C196.759 12.562 196.629 12.2865 196.612 11.9192H197.155C197.163 12.1195 197.242 12.274 197.391 12.3825C197.544 12.491 197.761 12.5453 198.041 12.5453C198.573 12.5453 198.839 12.3845 198.839 12.0631C198.839 11.917 198.775 11.8044 198.647 11.725C198.579 11.6833 198.477 11.6416 198.341 11.5998C198.205 11.5539 198.029 11.5101 197.812 11.4683C197.408 11.3849 197.118 11.2742 196.944 11.1365C196.769 10.9945 196.682 10.7983 196.682 10.5479C196.682 10.4101 196.71 10.2849 196.766 10.1722C196.825 10.0595 196.907 9.96352 197.014 9.88418C197.124 9.80072 197.254 9.73813 197.403 9.69633C197.556 9.65046 197.729 9.62748 197.92 9.62748C198.371 9.62748 198.703 9.71305 198.915 9.88418C199.128 10.0512 199.245 10.3037 199.267 10.6418H198.724V10.6356C198.707 10.4602 198.628 10.3267 198.488 10.2348C198.352 10.143 198.175 10.0971 197.958 10.0971C197.741 10.0971 197.57 10.1326 197.442 10.2035C197.318 10.2745 197.256 10.3768 197.256 10.5103C197.256 10.6314 197.31 10.7295 197.416 10.8046C197.527 10.8756 197.697 10.9361 197.927 10.9862L198.437 11.0989C198.756 11.1699 198.999 11.2742 199.164 11.412C199.33 11.5497 199.413 11.7438 199.413 11.9943C199.413 12.3198 199.288 12.5724 199.037 12.7519C198.79 12.9272 198.447 13.0149 198.009 13.0149Z" fill="white"/>
<mask id="mask0_6995_1441" style="mask-type:luminance" maskUnits="userSpaceOnUse" x="20" y="2" width="25" height="11">
<path d="M44.4868 2.54199H20.6974V12.8337H44.4868V2.54199Z" fill="white"/>
</mask>
<g mask="url(#mask0_6995_1441)">
<path d="M20.6974 2.54199H26.6448L26.8901 2.75426H38.2941L38.5394 2.54199H44.4867V12.8337H38.5394L38.2941 12.6214H26.8901L26.6448 12.8337H20.6974V2.54199Z" fill="#FF0000"/>
<path d="M26.6437 2.54199H38.5383V12.8337H26.6437V2.54199ZM32.814 12.0403L32.7025 10.19C32.7009 10.1595 32.7072 10.1292 32.7209 10.1011C32.7347 10.0731 32.7555 10.0481 32.7819 10.0279C32.8083 10.0078 32.8395 9.99294 32.8734 9.98466C32.9073 9.97633 32.9429 9.97468 32.9776 9.9799L35.1063 10.3036L34.8188 9.61748C34.8071 9.59019 34.8056 9.56043 34.8145 9.53237C34.8234 9.5043 34.8422 9.47935 34.8683 9.46099L37.2002 7.82717L36.6749 7.61492C36.6394 7.60041 36.6112 7.57523 36.5957 7.54405C36.5802 7.51283 36.5784 7.4778 36.5906 7.44553L37.0515 6.21913L35.7084 6.46568C35.672 6.47227 35.6341 6.46774 35.6012 6.45286C35.5682 6.43802 35.5421 6.41376 35.5275 6.38423L35.2673 5.85461L34.2191 6.82805C34.1951 6.84993 34.1636 6.86449 34.1292 6.86953C34.095 6.87456 34.0596 6.86994 34.0286 6.85616C33.9977 6.84238 33.9726 6.82027 33.9574 6.79321C33.9421 6.76606 33.9375 6.73543 33.944 6.70581L34.4496 4.45024L33.6392 4.85547C33.6202 4.86512 33.5991 4.87129 33.5772 4.87358C33.5553 4.87588 33.5331 4.87427 33.5119 4.86885C33.4908 4.86342 33.4712 4.85429 33.4543 4.84204C33.4374 4.82978 33.4236 4.81465 33.4137 4.79758L32.591 3.39963L31.7683 4.79758C31.7584 4.81465 31.7446 4.82978 31.7277 4.84204C31.7108 4.85429 31.6912 4.86342 31.67 4.86885C31.6489 4.87427 31.6267 4.87588 31.6048 4.87358C31.5829 4.87129 31.5618 4.86512 31.5428 4.85547L30.7325 4.45024L31.238 6.70581C31.2446 6.73543 31.2398 6.76606 31.2246 6.79321C31.2094 6.82027 31.1844 6.84238 31.1534 6.85616C31.1224 6.86994 31.0871 6.87456 31.0528 6.86953C31.0184 6.86449 30.9869 6.84993 30.9629 6.82805L29.9147 5.85461L29.6545 6.38423C29.6398 6.41376 29.6138 6.43802 29.5809 6.45286C29.5479 6.46774 29.51 6.47227 29.4736 6.46568L28.1305 6.21913L28.5915 7.44553C28.6036 7.4778 28.6018 7.51283 28.5863 7.54405C28.5708 7.57523 28.5426 7.60041 28.5071 7.61492L27.9818 7.82717L30.3137 9.46099C30.3398 9.47935 30.3586 9.5043 30.3675 9.53237C30.3764 9.56043 30.3749 9.59019 30.3633 9.61748L30.0758 10.3036L32.2045 9.9799C32.2391 9.97468 32.2747 9.97633 32.3086 9.98466C32.3424 9.99294 32.3737 10.0078 32.4001 10.0279C32.4265 10.0481 32.4474 10.0731 32.4611 10.1011C32.4749 10.1292 32.4811 10.1595 32.4795 10.19L32.3679 12.0403H32.814Z" fill="white"/>
</g>
</svg>
