<svg width="322" height="70" viewBox="0 0 322 70" fill="none" xmlns="http://www.w3.org/2000/svg">
<g clip-path="url(#clip0_768_630)">
<path d="M304.934 56.5887C304.934 51.8728 308.759 48.0469 313.468 48.0469C318.18 48.0469 322 51.8728 322 56.5887C322 61.3045 318.18 65.1283 313.468 65.1283C308.759 65.1283 304.934 61.3045 304.934 56.5887Z" fill="#86BC24"/>
<path d="M32.7548 33.9652C32.7548 28.5548 31.7104 24.5408 29.6214 21.9256C27.5294 19.3134 24.3615 18.0083 20.1013 18.0083H15.5702V51.0936H19.0373C23.7687 51.0936 27.2357 49.6892 29.4436 46.8718C31.6486 44.0594 32.7548 39.7562 32.7548 33.9652ZM48.915 33.4013C48.915 43.2583 46.268 50.8538 40.9732 56.1849C35.6788 61.5185 28.2361 64.1853 18.6418 64.1853H0V5.1214H19.9435C29.1939 5.1214 36.3356 7.54628 41.3683 12.3931C46.3988 17.2425 48.915 24.2421 48.915 33.402M100.553 64.185H115.387V4.87328H100.553V64.185ZM136.226 42.0613C136.226 45.8429 136.72 48.7273 137.706 50.7094C138.693 52.6944 140.348 53.6854 142.674 53.6854C144.975 53.6854 146.603 52.6944 147.551 50.7094C148.499 48.7273 148.971 45.8429 148.971 42.0613C148.971 38.2994 148.492 35.462 147.532 33.5468C146.568 31.6258 144.926 30.6646 142.597 30.6646C140.32 30.6646 138.693 31.6215 137.705 33.5243C136.72 35.4299 136.226 38.2747 136.226 42.0613ZM164.069 42.0613C164.069 49.2661 162.182 54.8868 158.399 58.9154C154.619 62.9465 149.327 64.9636 142.523 64.9636C135.999 64.9636 130.806 62.9021 126.951 58.7793C123.091 54.6568 121.162 49.0856 121.162 42.0617C121.162 34.8788 123.052 29.2977 126.835 25.3186C130.618 21.3391 135.922 19.3497 142.753 19.3497C146.973 19.3497 150.707 20.2717 153.942 22.113C157.179 23.9539 159.679 26.5916 161.434 30.0272C163.193 33.4577 164.069 37.4717 164.069 42.0613ZM169.96 64.185H184.797V20.1283H169.96V64.185ZM169.96 14.7991H184.796V4.87109H169.96V14.7991ZM214.855 52.948C216.858 52.948 219.243 52.4386 222.026 51.4279V62.5132C220.025 63.3929 218.124 64.0231 216.316 64.3964C214.509 64.7747 212.388 64.9625 209.96 64.9625C204.979 64.9625 201.389 63.7095 199.183 61.2078C196.988 58.7069 195.887 54.866 195.887 49.683V31.521H190.691V20.1323H195.887V8.88114L210.837 6.27872V20.132H220.302V31.5214H210.837V48.6694C210.837 51.5218 212.178 52.948 214.855 52.948ZM249.191 52.948C251.194 52.948 253.58 52.4386 256.363 51.4279V62.5132C254.365 63.3929 252.461 64.0231 250.653 64.3964C248.843 64.7747 246.73 64.9625 244.297 64.9625C239.316 64.9625 235.726 63.7095 233.525 61.2078C231.325 58.7069 230.224 54.866 230.224 49.683V31.521H225.026V20.1323H230.224V8.71087L245.171 6.27872V20.132H254.642V31.5214H245.171V48.6694C245.171 51.5218 246.512 52.948 249.191 52.948ZM275.083 36.6942C275.285 34.2821 275.975 32.5146 277.15 31.3853C278.33 30.2582 279.787 29.6947 281.531 29.6947C283.432 29.6947 284.944 30.3273 286.065 31.6025C287.193 32.8705 287.781 34.5688 287.828 36.6942H275.083ZM296.004 24.5437C292.478 21.0837 287.475 19.3508 281.003 19.3508C274.199 19.3508 268.963 21.3406 265.294 25.3197C261.627 29.2992 259.792 35.0083 259.792 42.4484C259.792 49.6528 261.775 55.2091 265.731 59.1093C269.69 63.0095 275.248 64.9621 282.407 64.9621C285.845 64.9621 288.803 64.7274 291.282 64.2603C293.747 63.7982 296.133 62.9625 298.447 61.7565L296.167 51.8278C294.486 52.5154 292.885 53.044 291.374 53.3922C289.191 53.8994 286.796 54.1537 284.188 54.1537C281.328 54.1537 279.071 53.4544 277.417 52.0555C275.762 50.6541 274.88 48.7211 274.779 46.2595H301.296V39.4946C301.296 32.9869 299.533 28.0014 296.004 24.5437ZM68.6037 36.6942C68.8062 34.2821 69.4954 32.5146 70.6706 31.3853C71.8483 30.2582 73.3078 29.6947 75.054 29.6947C76.9504 29.6947 78.4619 30.3273 79.5854 31.6025C80.7137 32.8705 81.299 34.5688 81.351 36.6942H68.6037ZM89.5272 24.5437C85.9983 21.0837 80.9976 19.3508 74.5229 19.3508C67.7171 19.3508 62.4845 21.3406 58.8171 25.3197C55.1501 29.2992 53.313 35.0083 53.313 42.4484C53.313 49.6528 55.2933 55.2091 59.2544 59.1093C63.2104 63.0095 68.7691 64.9621 75.9282 64.9621C79.3655 64.9621 82.3241 64.7274 84.8031 64.2603C87.2677 63.7982 89.6534 62.9625 91.9696 61.7565L89.6879 51.8278C88.006 52.5154 86.4058 53.044 84.8969 53.3922C82.7094 53.8994 80.3164 54.1537 77.7083 54.1537C74.8512 54.1537 72.592 53.4544 70.9374 52.0555C69.2802 50.6541 68.4012 48.7211 68.3002 46.2595H94.8169V39.4946C94.8169 32.9869 93.0539 28.0014 89.5272 24.5437Z" fill="white"/>
</g>
<defs>
<clipPath id="clip0_768_630">
<rect width="322" height="70" fill="white"/>
</clipPath>
</defs>
</svg>
