<svg width="355" height="60" viewBox="0 0 355 60" fill="none" xmlns="http://www.w3.org/2000/svg">
<g clip-path="url(#clip0_768_641)">
<path d="M29.8172 59.975V48.3111C42.1678 48.3111 51.6947 36.1187 46.933 23.2168C46.0665 20.8221 44.6851 18.6473 42.8863 16.8463C41.0876 15.0453 38.9156 13.6621 36.5239 12.7945C33.748 11.7494 30.761 11.3915 27.8173 11.7513C24.8735 12.1111 22.0602 13.178 19.617 14.861C17.1737 16.5441 15.1729 18.7934 13.785 21.4175C12.397 24.0416 11.6631 26.9627 11.6456 29.932H0C0 10.4922 18.8802 -4.88222 39.5212 1.48183C43.957 2.8769 47.9903 5.32473 51.2776 8.61686C54.5649 11.909 57.0089 15.9479 58.4014 20.3895C64.7538 41.0673 49.4024 59.975 29.8172 59.975Z" fill="white"/>
<path d="M29.9945 48.3136H18.349V36.8271H29.9945M18.349 57.3275H9.52712V48.3136H18.349V57.3275ZM9.52712 48.3136H2.12598V40.8924H9.52712M106.394 17.3873C103.042 15.0886 98.6314 13.8399 93.689 13.8399H82.9292V48.2994H93.6926C98.6338 48.2994 102.869 47.0625 106.397 44.5888C108.325 43.1849 109.847 41.2951 110.808 39.1116C111.871 36.8129 112.396 33.9856 112.396 30.9809C112.396 27.9763 111.868 25.149 110.808 23.0277C109.746 20.3919 108.335 18.6253 106.394 17.3873ZM89.2817 19.686H92.6333C96.3391 19.686 99.5136 20.3955 101.983 21.9847C104.63 23.574 105.88 26.5964 105.88 30.9987C105.88 35.401 104.463 38.5972 101.983 40.3638C99.6908 41.7828 96.6899 42.6626 92.8069 42.6626H89.2817V19.686ZM119.981 13.3255C119.491 13.3124 119.003 13.4 118.548 13.5831C118.092 13.7661 117.68 14.0407 117.334 14.3897C116.932 14.7008 116.61 15.1036 116.395 15.5646C116.18 16.0255 116.078 16.5312 116.098 17.0396C116.098 18.0237 116.488 18.9675 117.183 19.6634C117.878 20.3593 118.821 20.7502 119.804 20.7502C120.787 20.7502 121.729 20.3593 122.424 19.6634C123.119 18.9675 123.51 18.0237 123.51 17.0396C123.523 16.5487 123.435 16.0603 123.252 15.6045C123.069 15.1488 122.795 14.7354 122.447 14.3897C121.919 13.6802 121.03 13.3255 119.967 13.3255M116.778 23.9287H122.954V48.1398H116.803V23.9287M145.033 26.0571C143.261 24.4679 141.136 23.4072 138.858 23.4072C137.303 23.3729 135.758 23.6717 134.328 24.2835C132.897 24.8953 131.614 25.806 130.564 26.9546C128.36 29.292 127.157 32.3999 127.212 35.6139C127.212 38.9733 128.275 41.9744 130.401 44.2731C132.526 46.5718 135.34 47.6325 138.695 47.6325C140.854 47.6664 142.963 46.9827 144.693 45.6885V46.2171C144.693 48.161 144.165 49.7645 143.106 50.8287C142.046 51.8929 140.626 52.4179 138.695 52.4179C135.86 52.4179 134.107 51.3537 131.991 48.3526L127.74 52.4179L127.917 52.5953C128.799 53.8333 130.209 55.0785 131.974 56.3059C133.738 57.5333 136.03 58.0796 138.677 58.0796C142.383 58.0796 145.207 57.0154 147.322 54.7202C149.437 52.425 150.673 49.5942 150.673 45.8836V23.9287H144.682V26.0571H145.036M143.449 40.3709C142.386 41.609 140.969 42.1446 139.198 42.1446C137.426 42.1446 136.009 41.6161 134.946 40.3709C133.883 39.1258 133.359 37.533 133.359 35.5997C133.359 33.6663 133.922 32.0558 134.985 30.8178C136.048 29.5797 137.465 29.0441 139.237 29.0441C141.008 29.0441 142.425 29.5726 143.488 30.8178C144.551 32.0629 145.075 33.6557 145.075 35.589C145.075 37.5224 144.548 39.1364 143.488 40.3603M156.367 23.9252H162.542V48.1362H156.328V23.9287M159.329 13.3255C158.839 13.3133 158.351 13.401 157.896 13.5832C157.441 13.7653 157.028 14.0382 156.681 14.3852C156.335 14.7322 156.062 15.1461 155.88 15.6018C155.698 16.0575 155.611 16.5455 155.623 17.0361C155.623 18.0202 156.013 18.964 156.708 19.6599C157.403 20.3557 158.346 20.7467 159.329 20.7467C160.311 20.7467 161.254 20.3557 161.949 19.6599C162.644 18.964 163.035 18.0202 163.035 17.0361C163.047 16.5452 162.959 16.0569 162.777 15.601C162.595 15.1451 162.322 14.731 161.975 14.3839C161.628 14.0368 161.214 13.764 160.759 13.5821C160.303 13.4001 159.815 13.3128 159.325 13.3255M175.729 17.3873H169.738V23.9287H166.195V29.4059H169.738V39.4805C169.738 42.6732 170.446 44.9577 171.679 46.1958C172.912 47.4338 175.222 48.1398 178.209 48.1398C179.212 48.1689 180.217 48.1095 181.21 47.9624H181.564V42.4816L179.438 42.659C178.021 42.659 176.958 42.4816 176.604 41.9495C176.076 41.421 175.895 40.3603 175.895 38.7569V29.5833H181.543V24.1025H175.913L175.729 17.3873ZM209.957 13.8399H216.132V48.2994H209.964V13.8612M277.719 39.6615C276.816 40.7063 275.811 41.6571 274.718 42.4994C273.757 43.0828 272.653 43.3885 271.529 43.3827C270.702 43.3755 269.884 43.1975 269.128 42.86C268.373 42.5225 267.694 42.0326 267.136 41.421C265.899 40.002 265.365 38.4163 265.365 36.295C265.365 34.1736 265.892 32.5844 267.136 31.169C267.672 30.5265 268.349 30.0168 269.114 29.6795C269.879 29.3423 270.712 29.1868 271.547 29.225C273.488 29.225 275.604 30.463 277.368 32.5844L281.425 28.6822C278.778 25.3228 275.426 23.7336 271.366 23.7336C268.015 23.7336 265.191 24.9716 262.721 27.4442C260.411 29.8705 259.139 33.1056 259.179 36.4581C259.179 40.0056 260.415 43.1734 262.721 45.4721C263.819 46.6669 265.157 47.6154 266.647 48.2549C268.137 48.8945 269.745 49.2107 271.366 49.1827C275.777 49.1827 279.306 47.2387 281.775 43.7055L277.719 39.6402M302.597 27.4477C301.668 26.2231 300.451 25.248 299.054 24.6098C297.453 23.8672 295.702 23.5031 293.938 23.5456C290.587 23.5456 287.763 24.7836 285.644 27.2562C283.639 29.8263 282.579 33.0095 282.643 36.2701C282.643 39.9807 283.706 42.9854 285.995 45.2841C288.284 47.5828 291.111 48.8315 294.817 48.8315C298.873 48.8315 302.229 47.2423 304.875 43.8829L305.052 43.7055L300.996 39.8033C300.641 40.3319 300.113 40.6867 299.578 41.2223C299.078 41.7507 298.475 42.1719 297.807 42.4604C296.889 42.9638 295.852 43.209 294.806 43.1698C293.269 43.1921 291.771 42.6919 290.555 41.7509C289.492 40.8676 288.967 39.6224 288.783 38.0403H305.017V35.7416C305.056 34.1744 304.816 32.6127 304.308 31.1299C304.05 29.7598 303.44 28.4809 302.537 27.4194M289.364 33.1165C289.634 32.047 290.182 31.0679 290.951 30.2786C291.368 29.8624 291.867 29.5375 292.416 29.3244C292.965 29.1112 293.552 29.0146 294.14 29.0405C295.557 29.0405 296.787 29.3953 297.492 30.2786C298.2 30.988 298.555 32.0523 298.728 33.1165H289.364ZM326.065 25.8691C324.294 24.2799 321.654 23.5704 318.48 23.5704C316.539 23.6255 314.625 24.0467 312.84 24.812C311.252 25.6953 309.651 26.9405 308.783 28.7142L312.68 32.4247C314.267 29.7748 316.032 28.8773 318.501 28.8773C319.656 28.8467 320.784 29.2234 321.69 29.9416C322.092 30.2527 322.414 30.6555 322.629 31.1164C322.844 31.5773 322.946 32.0831 322.926 32.5915V33.8295C321.505 33.3496 320.015 33.1098 318.515 33.12C315.516 33.12 313.045 33.8295 311.104 35.2485C309.162 36.6674 308.269 38.7959 308.269 41.2578C308.269 43.5565 308.978 45.3231 310.561 46.735C312.145 48.1469 314.104 48.679 316.382 48.679C318.661 48.679 320.793 47.7957 322.912 46.1958V48.1398H328.91V32.5879C328.91 29.75 328.028 27.4619 326.076 25.8727M315.312 38.9484C316.021 38.4199 316.9 38.2389 318.147 38.2389C319.713 38.2918 321.261 38.5899 322.735 39.1222V41.421C321.275 42.7076 319.387 43.401 317.442 43.3649C316.379 43.3649 315.5 43.1876 314.962 42.6555C314.423 42.1234 314.08 41.5912 314.08 40.8818C314.142 40.4903 314.284 40.1158 314.497 39.7814C314.709 39.447 314.988 39.1599 315.316 38.9378M352.354 26.2239C350.582 24.2799 348.297 23.3859 345.296 23.3859C342.826 23.3859 340.885 24.0954 339.475 25.5144V24.0954H333.473V48.3065H339.649V34.8831C339.649 33.1094 340.003 31.5237 340.885 30.4666C341.317 29.9505 341.86 29.5393 342.474 29.264C343.088 28.9887 343.756 28.8565 344.428 28.8773C345.033 28.8478 345.637 28.9608 346.191 29.2072C346.745 29.4537 347.233 29.8267 347.617 30.2963C348.445 31.4259 348.88 32.7971 348.853 34.1984V48.3349H355V34.1772C354.823 30.8189 353.941 28.1679 352.354 26.2239ZM202.379 25.8691C200.607 24.2799 197.968 23.5704 194.793 23.5704C192.85 23.6235 190.934 24.0435 189.146 24.8085C187.559 25.6918 185.957 26.9369 185.089 28.7106L188.986 32.4212C190.574 29.7713 192.338 28.8738 194.807 28.8738C195.962 28.8431 197.091 29.2198 197.996 29.938C198.398 30.2491 198.72 30.6519 198.935 31.1129C199.15 31.5738 199.252 32.0795 199.232 32.5879V33.826C197.812 33.346 196.321 33.1062 194.822 33.1165C191.822 33.1165 189.351 33.826 187.41 35.2449C185.468 36.6639 184.575 38.7923 184.575 41.2542C184.575 43.553 185.284 45.3196 186.868 46.7314C188.451 48.1433 190.411 48.6754 192.689 48.6754C194.967 48.6754 197.1 47.7921 199.218 46.1922V48.1362H205.216V32.5879C205.216 29.75 204.154 27.4619 202.382 25.8727M191.442 38.9484C192.15 38.4199 193.029 38.2389 194.276 38.2389C195.842 38.2918 197.39 38.5899 198.864 39.1222V41.421C197.404 42.7076 195.516 43.401 193.571 43.3649C192.508 43.3649 191.629 43.1876 191.091 42.6555C190.552 42.1234 190.209 41.5912 190.209 40.8818C190.472 40.1503 190.895 39.4864 191.445 38.9378M238.212 48.835C234.72 48.8364 231.307 47.8011 228.403 45.86C225.5 43.9189 223.236 41.1592 221.899 37.93C220.562 34.7008 220.212 31.1471 220.892 27.7183C221.572 24.2896 223.253 21.1399 225.721 18.6675C228.189 16.1952 231.334 14.5113 234.758 13.8288C238.183 13.1463 241.732 13.4959 244.958 14.8333C248.183 16.1707 250.94 18.4359 252.88 21.3424C254.82 24.2489 255.855 27.6661 255.855 31.1619C255.839 35.8427 253.974 40.3271 250.669 43.6376C247.364 46.9481 242.886 48.8164 238.212 48.835ZM238.212 19.5015C235.942 19.498 233.723 20.1685 231.834 21.4282C229.945 22.6879 228.472 24.4802 227.601 26.5784C226.73 28.6766 226.5 30.9863 226.94 33.2154C227.38 35.4446 228.47 37.493 230.073 39.1014C231.676 40.7099 233.72 41.8062 235.945 42.2517C238.17 42.6971 240.478 42.4717 242.575 41.6039C244.672 40.7361 246.466 39.265 247.728 37.3766C248.99 35.4882 249.664 33.2674 249.666 30.9951C249.669 29.4861 249.375 27.9912 248.8 26.5964C248.224 25.2015 247.38 23.9341 246.314 22.8669C245.249 21.7997 243.983 20.9536 242.59 20.3773C241.197 19.801 239.705 19.5058 238.197 19.5086" fill="white"/>
</g>
<defs>
<clipPath id="clip0_768_641">
<rect width="355" height="60" fill="white"/>
</clipPath>
</defs>
</svg>
