<svg width="428" height="77" viewBox="0 0 428 77" fill="none" xmlns="http://www.w3.org/2000/svg">
<g clip-path="url(#clip0_6995_1424)">
<path fill-rule="evenodd" clip-rule="evenodd" d="M63.6316 30.1716C63.6251 30.2233 63.6179 30.288 63.6179 30.3397C63.5731 31.1802 62.3058 49.9622 38.916 58.4318C38.903 58.4383 38.8965 58.4383 38.8835 58.4448V46.8523L38.916 46.82L53.0383 31.678C54.3121 30.3138 54.2341 28.1738 52.8563 26.9001C51.4785 25.6329 49.3274 25.7105 48.0471 27.0812L38.916 36.8762L38.8835 36.9085V26.8161C38.8965 26.7902 38.903 26.7708 38.916 26.745C40.0468 24.2364 45.4605 14.1116 58.8484 14.1116C58.9783 14.1116 59.1083 14.1116 59.2383 14.1181C64.4765 20.3572 63.6381 30.0746 63.6316 30.1716ZM32.1116 36.9085L32.0856 36.8762L22.9481 27.0812C21.6743 25.7105 19.5166 25.6264 18.1453 26.9001C16.7676 28.1738 16.6831 30.3138 17.9627 31.678L32.0856 46.82L32.1116 46.8458V58.4448C32.1051 58.4448 32.0921 58.4383 32.0856 58.4383C8.68935 49.9686 7.42206 31.1802 7.38306 30.3526C7.37657 30.2945 7.37007 30.2298 7.37007 30.1716C7.35707 30.0682 6.47971 20.3959 11.7569 14.1181C11.8933 14.1116 12.0298 14.1116 12.1663 14.1116C25.6062 14.1116 30.9483 24.2105 32.0856 26.7579C32.0921 26.7773 32.1051 26.7967 32.1116 26.8161V36.9085ZM63.1897 8.40265C62.6047 7.82076 61.8249 7.46517 60.9995 7.41345C48.1901 6.63113 39.9039 13.0707 35.5041 19.1287C31.0978 13.0707 22.8116 6.62467 10.0015 7.41345C9.17028 7.46517 8.3904 7.82076 7.8055 8.40265C-0.422189 16.5878 0.481166 29.4863 0.591649 30.747C0.64364 31.6651 1.17656 38.0206 5.36189 45.3135C9.37175 52.3026 17.6449 61.5934 34.3408 66.2549C34.4252 66.2808 34.5162 66.3067 34.6072 66.3325H34.6137C34.6787 66.3519 34.7372 66.3648 34.8022 66.3778C34.8867 66.3972 34.9712 66.4101 35.0621 66.423C35.2116 66.4489 35.3611 66.4554 35.5099 66.4554C35.6535 66.4554 35.7965 66.4489 35.9395 66.423L36.1735 66.3843C36.245 66.3713 36.3164 66.3519 36.3879 66.3325C36.4848 66.3067 36.5829 66.2808 36.6804 66.2485C67.5375 57.6107 70.215 33.1134 70.397 30.8181C70.475 30.0682 71.6058 16.7753 63.1897 8.40265Z" fill="#88B04B"/>
<path fill-rule="evenodd" clip-rule="evenodd" d="M188.985 60.563C188.985 61.1048 188.788 61.5729 188.391 61.9667C187.995 62.3604 187.525 62.5576 186.981 62.5576H181.338C180.794 62.5576 180.323 62.3604 179.927 61.9667C179.531 61.5729 179.333 61.1048 179.333 60.563V12.1088C179.333 11.567 179.531 11.0996 179.927 10.7052C180.323 10.3115 180.794 10.1143 181.338 10.1143H186.981C187.525 10.1143 187.995 10.3115 188.391 10.7052C188.788 11.0996 188.985 11.567 188.985 12.1088V60.563Z" fill="white"/>
<path fill-rule="evenodd" clip-rule="evenodd" d="M259.546 40.7675C259.447 41.5058 259.397 42.3676 259.397 43.353C259.397 44.337 259.447 45.1988 259.546 45.9378C259.695 47.4643 260.041 48.769 260.585 49.8526C261.13 50.9362 261.81 51.8103 262.627 52.4743C263.444 53.1396 264.348 53.6316 265.337 53.9523C266.327 54.2724 267.342 54.4321 268.381 54.4321C269.619 54.4321 270.659 54.3338 271.5 54.1366C272.341 53.94 273.059 53.6569 273.653 53.287C274.247 52.9179 274.754 52.4995 275.175 52.0315C275.595 51.564 276.004 51.0345 276.4 50.4436C276.697 50 277.043 49.5571 277.439 49.1143C277.835 48.6707 278.305 48.449 278.85 48.449H284.493C285.038 48.449 285.52 48.6462 285.94 49.0399C286.361 49.4337 286.547 49.9018 286.498 50.4436C286.449 51.4774 286.077 52.7329 285.384 54.2103C284.691 55.6876 283.614 57.1035 282.154 58.4574C280.694 59.8119 278.825 60.9569 276.548 61.8925C274.271 62.828 271.549 63.2955 268.381 63.2955C265.658 63.2955 263.209 62.8403 261.03 61.9293C258.853 61.0183 256.96 59.7873 255.351 58.2363C253.742 56.6852 252.48 54.8872 251.565 52.8442C250.649 50.8004 250.091 48.6462 249.893 46.3813C249.794 45.4949 249.745 44.5096 249.745 43.4267C249.745 42.3431 249.794 41.3332 249.893 40.3983C250.042 38.1328 250.587 35.9663 251.527 33.898C252.467 31.8297 253.73 30.02 255.313 28.469C256.898 26.9179 258.791 25.6869 260.994 24.776C263.196 23.865 265.658 23.4092 268.381 23.4092C271.549 23.4092 274.271 23.8773 276.548 24.8128C278.825 25.7484 280.694 26.8934 282.154 28.2472C283.614 29.6017 284.691 31.017 285.384 32.495C286.077 33.9717 286.449 35.2279 286.498 36.2617C286.547 36.8035 286.361 37.271 285.94 37.6654C285.52 38.0591 285.038 38.2563 284.493 38.2563H278.85C278.305 38.2563 277.835 38.0345 277.439 37.591C277.043 37.1481 276.697 36.7046 276.4 36.2617C276.004 35.6708 275.595 35.1413 275.175 34.6738C274.754 34.2057 274.247 33.7874 273.653 33.4176C273.059 33.0491 272.341 32.7659 271.5 32.5687C270.659 32.3715 269.619 32.2732 268.381 32.2732C267.342 32.2732 266.327 32.4329 265.337 32.753C264.348 33.0736 263.444 33.5657 262.627 34.2303C261.81 34.8949 261.13 35.7697 260.585 36.8527C260.041 37.9363 259.695 39.241 259.546 40.7675Z" fill="white"/>
<path fill-rule="evenodd" clip-rule="evenodd" d="M235.743 51.5882C235.743 51.0451 235.569 50.6003 235.222 50.2544C234.874 49.9091 234.266 49.5871 233.397 49.2904C232.528 48.9943 231.372 48.6982 229.933 48.4014C228.492 48.1046 226.655 47.7102 224.42 47.2156C222.234 46.7223 220.422 46.1042 218.982 45.3633C217.541 44.6217 216.386 43.7579 215.518 42.7687C214.649 41.7815 214.04 40.6572 213.693 39.397C213.345 38.1376 213.172 36.7663 213.172 35.2844C213.172 33.8019 213.518 32.3452 214.214 30.9119C214.909 29.4791 215.914 28.2068 217.232 27.0954C218.547 25.9833 220.148 25.0827 222.036 24.3902C223.923 23.6991 226.084 23.3525 228.517 23.3525C230.95 23.3525 233.123 23.6247 235.036 24.1678C236.947 24.7122 238.574 25.4279 239.915 26.3169C241.256 27.2066 242.299 28.232 243.044 29.3925C243.788 30.5537 244.21 31.7272 244.31 32.9129C244.359 33.4573 244.173 33.926 243.751 34.3204C243.329 34.7168 242.845 34.9133 242.299 34.9133H236.563C235.817 34.9133 235.259 34.7782 234.886 34.506C234.514 34.2351 234.104 33.926 233.657 33.5795C233.211 33.2342 232.615 32.9252 231.869 32.6536C231.125 32.3821 230.007 32.2457 228.517 32.2457C227.028 32.2457 225.711 32.4681 224.569 32.9129C223.426 33.3571 222.856 34.1484 222.856 35.2844C222.856 35.8282 222.992 36.2846 223.265 36.6551C223.538 37.0255 224.059 37.3592 224.83 37.6559C225.6 37.952 226.666 38.2611 228.034 38.5818C229.398 38.9037 231.173 39.2858 233.36 39.7307C237.779 40.6694 240.895 42.139 242.708 44.1401C244.521 46.1411 245.427 48.6238 245.427 51.5882C245.427 53.07 245.055 54.5151 244.31 55.9239C243.565 57.3314 242.485 58.5915 241.069 59.7029C239.654 60.8149 237.915 61.7039 235.855 62.3712C233.794 63.0377 231.472 63.3713 228.89 63.3713C226.257 63.3713 223.935 63.0623 221.924 62.4449C219.913 61.8274 218.211 61.0257 216.822 60.0365C215.431 59.0486 214.364 57.9372 213.618 56.7017C212.874 55.4674 212.476 54.2558 212.426 53.07C212.376 52.5276 212.563 52.0582 212.985 51.6619C213.407 51.2675 213.891 51.069 214.438 51.069H220.174C220.919 51.069 221.478 51.2429 221.85 51.5882C222.222 51.9347 222.644 52.3291 223.117 52.7733C223.588 53.2181 224.245 53.6144 225.09 53.9597C225.935 54.3062 227.2 54.4782 228.89 54.4782C229.635 54.4782 230.404 54.4297 231.199 54.3302C231.993 54.2319 232.726 54.0709 233.397 53.8485C234.067 53.6261 234.626 53.3293 235.073 52.9595C235.519 52.5884 235.743 52.1326 235.743 51.5882Z" fill="white"/>
<path fill-rule="evenodd" clip-rule="evenodd" d="M366.957 45.4206C367.106 44.0415 367.106 42.6631 366.957 41.284C366.66 38.0837 365.67 35.7813 363.987 34.3777C362.304 32.9747 360.25 32.2732 357.825 32.2732C355.399 32.2732 353.357 32.987 351.699 34.4152C350.041 35.8434 349.088 37.8865 348.84 40.5457C348.742 41.284 348.692 42.2196 348.692 43.3523C348.692 44.485 348.742 45.4206 348.84 46.1596C349.088 48.7199 350.041 50.739 351.699 52.2157C353.357 53.6931 355.399 54.432 357.825 54.432C360.25 54.432 362.304 53.7306 363.987 52.3269C365.67 50.9233 366.66 48.6216 366.957 45.4206ZM360.052 63.2954C358.517 63.2954 357.143 63.1474 355.931 62.8519C354.719 62.5571 353.654 62.1879 352.738 61.7444C351.823 61.3009 351.044 60.8211 350.399 60.3039C349.756 59.7873 349.236 59.3069 348.84 58.8634V74.5963C348.84 75.1381 348.642 75.6062 348.246 75.9999C347.851 76.3937 347.38 76.5909 346.836 76.5909H341.193C340.649 76.5909 340.179 76.3937 339.783 75.9999C339.386 75.6062 339.188 75.1381 339.188 74.5963V26.1421C339.188 25.6003 339.386 25.1329 339.783 24.7391C340.179 24.3447 340.649 24.1482 341.193 24.1482H346.836C347.38 24.1482 347.851 24.3447 348.246 24.7391C348.642 25.1329 348.84 25.6003 348.84 26.1421V27.8412C349.236 27.3983 349.756 26.9179 350.399 26.4007C351.044 25.8835 351.823 25.4038 352.738 24.9602C353.654 24.5173 354.719 24.1482 355.931 23.8527C357.143 23.5572 358.517 23.4092 360.052 23.4092C362.527 23.4092 364.767 23.8896 366.771 24.8497C368.776 25.8098 370.484 27.0899 371.894 28.6908C373.305 30.2909 374.418 32.1375 375.235 34.2303C376.052 36.3231 376.51 38.502 376.609 40.7675C376.658 41.5058 376.683 42.3676 376.683 43.3523C376.683 44.337 376.658 45.1988 376.609 45.9378C376.51 48.2026 376.052 50.3815 375.235 52.4743C374.418 54.5672 373.305 56.4137 371.894 58.0145C370.484 59.6147 368.776 60.8948 366.771 61.855C364.767 62.8151 362.527 63.2954 360.052 63.2954Z" fill="white"/>
<path fill-rule="evenodd" clip-rule="evenodd" d="M206.868 60.563C206.868 61.1048 206.67 61.5729 206.274 61.9667C205.878 62.3604 205.408 62.5576 204.864 62.5576H199.221C198.676 62.5576 198.206 62.3604 197.81 61.9667C197.414 61.5729 197.216 61.1048 197.216 60.563V12.1088C197.216 11.567 197.414 11.0996 197.81 10.7052C198.206 10.3115 198.676 10.1143 199.221 10.1143H204.864C205.408 10.1143 205.878 10.3115 206.274 10.7052C206.67 11.0996 206.868 11.567 206.868 12.1088V60.563Z" fill="white"/>
<path fill-rule="evenodd" clip-rule="evenodd" d="M126.893 10.1143C127.438 10.1143 127.909 10.3115 128.304 10.7052C128.7 11.0989 128.898 11.567 128.898 12.1082V17.3529C128.898 17.8947 128.7 18.3622 128.304 18.7565C127.909 19.1503 127.438 19.3468 126.893 19.3468H103.209V34.4151H125.408C125.953 34.4151 126.423 34.6123 126.819 35.006C127.215 35.3997 127.413 35.8678 127.413 36.409V41.6537C127.413 42.1955 127.215 42.663 126.819 43.0574C126.423 43.4511 125.953 43.6483 125.408 43.6483H103.209V60.5624C103.209 61.1042 103.01 61.5723 102.615 61.966C102.219 62.3604 101.748 62.557 101.204 62.557H95.1902C94.6456 62.557 94.1751 62.3604 93.7793 61.966C93.3835 61.5723 93.1853 61.1042 93.1853 60.5624V12.1082C93.1853 11.567 93.3835 11.0989 93.7793 10.7052C94.1751 10.3115 94.6456 10.1143 95.1902 10.1143H126.893Z" fill="white"/>
<path fill-rule="evenodd" clip-rule="evenodd" d="M135.765 26.1424C135.765 25.6006 135.963 25.1331 136.359 24.7394C136.755 24.345 137.226 24.1484 137.77 24.1484H143.413C143.957 24.1484 144.427 24.345 144.824 24.7394C145.219 25.1331 145.418 25.6006 145.418 26.1424V44.9036C145.418 47.8583 146.049 50.2221 147.311 51.9942C148.573 53.7677 150.639 54.6534 153.51 54.6534C156.134 54.6534 158.138 53.7677 159.524 51.9942C160.91 50.2221 161.603 47.8583 161.603 44.9036V26.1424C161.603 25.6006 161.801 25.1331 162.197 24.7394C162.593 24.345 163.063 24.1484 163.607 24.1484H169.251C169.795 24.1484 170.265 24.345 170.661 24.7394C171.057 25.1331 171.255 25.6006 171.255 26.1424V60.5628C171.255 61.1046 171.057 61.572 170.661 61.9664C170.265 62.3602 169.795 62.5574 169.251 62.5574H163.607C163.063 62.5574 162.593 62.3602 162.197 61.9664C161.801 61.572 161.603 61.1046 161.603 60.5628V58.8637C160.465 59.9964 159.054 61.018 157.371 61.9296C155.688 62.8399 153.659 63.2957 151.283 63.2957C148.263 63.2957 145.764 62.8276 143.784 61.8921C141.804 60.9565 140.22 59.701 139.032 58.1253C137.844 56.5497 137.003 54.7149 136.507 52.6227C136.013 50.5298 135.765 48.3264 135.765 46.0118V26.1424Z" fill="white"/>
<path fill-rule="evenodd" clip-rule="evenodd" d="M331.049 60.563C331.049 61.1048 330.85 61.5729 330.455 61.9667C330.059 62.3604 329.588 62.5576 329.044 62.5576H323.401C322.857 62.5576 322.386 62.3604 321.99 61.9667C321.594 61.5729 321.396 61.1048 321.396 60.563V26.1426C321.396 25.6008 321.594 25.1334 321.99 24.7396C322.386 24.3452 322.857 24.1487 323.401 24.1487H329.044C329.588 24.1487 330.059 24.3452 330.455 24.7396C330.85 25.1334 331.049 25.6008 331.049 26.1426V60.563ZM329.415 10.1143C329.959 10.1143 330.43 10.3115 330.826 10.7052C331.222 11.0996 331.419 11.567 331.419 12.1088V17.8701C331.419 18.4119 331.222 18.8794 330.826 19.2738C330.43 19.6675 329.959 19.8647 329.415 19.8647H323.03C322.485 19.8647 322.015 19.6675 321.619 19.2738C321.223 18.8794 321.025 18.4119 321.025 17.8701V12.1088C321.025 11.567 321.223 11.0996 321.619 10.7052C322.015 10.3115 322.485 10.1143 323.03 10.1143H329.415Z" fill="white"/>
<path fill-rule="evenodd" clip-rule="evenodd" d="M423.399 29.2113L425.733 24.7185C425.779 24.626 425.843 24.542 425.924 24.4657C426.004 24.3894 426.111 24.3506 426.242 24.3506H426.68C426.765 24.3506 426.838 24.381 426.899 24.4424C426.961 24.5038 426.992 24.5762 426.992 24.6609V32.0851C426.992 32.1698 426.961 32.2422 426.899 32.303C426.838 32.3651 426.765 32.3948 426.68 32.3948H426.207C426.122 32.3948 426.049 32.3651 425.987 32.303C425.926 32.2422 425.895 32.1698 425.895 32.0851V26.638L424.093 30.097C424.031 30.2115 423.965 30.302 423.897 30.3666C423.827 30.4313 423.735 30.4643 423.619 30.4643H423.18C423.064 30.4643 422.973 30.4313 422.903 30.3666C422.833 30.302 422.768 30.2115 422.707 30.097L420.904 26.638V32.0851C420.904 32.1698 420.874 32.2422 420.813 32.303C420.751 32.3651 420.677 32.3948 420.593 32.3948H420.118C420.033 32.3948 419.961 32.3651 419.899 32.303C419.838 32.2422 419.807 32.1698 419.807 32.0851V24.6609C419.807 24.5762 419.838 24.5038 419.899 24.4424C419.961 24.381 420.033 24.3506 420.118 24.3506H420.558C420.689 24.3506 420.794 24.3894 420.876 24.4657C420.956 24.542 421.021 24.626 421.065 24.7185L423.399 29.2113Z" fill="white"/>
<path fill-rule="evenodd" clip-rule="evenodd" d="M383.209 23.978V12.1082C383.209 11.567 383.407 11.0989 383.803 10.7052C384.198 10.3108 384.669 10.1143 385.214 10.1143H390.857C391.401 10.1143 391.871 10.3108 392.267 10.7052C392.663 11.0989 392.861 11.567 392.861 12.1082V24.148H402.439C402.984 24.148 403.453 24.3452 403.85 24.739C404.246 25.1334 404.444 25.6008 404.444 26.1426V31.0175C404.444 31.5593 404.246 32.0267 403.85 32.4211C403.453 32.8149 402.984 33.0121 402.439 33.0121H392.861V48.6706C392.861 50.1971 393.269 51.4158 394.086 52.3268C394.903 53.2377 396.425 53.6936 398.653 53.6936H403.181C403.726 53.6936 404.196 53.8908 404.592 54.2845C404.989 54.6782 405.186 55.1463 405.186 55.6875V60.5624C405.186 61.1042 404.989 61.5723 404.592 61.966C404.196 62.3604 403.726 62.557 403.181 62.557H397.687C393.034 62.557 389.458 61.4372 386.958 59.1963C384.459 56.956 383.209 53.5209 383.209 48.8924V23.978Z" fill="white"/>
<path fill-rule="evenodd" clip-rule="evenodd" d="M310.645 33.0118C307.675 33.0118 305.535 33.6642 304.223 34.9689C302.911 36.2736 302.255 38.404 302.255 41.358V60.5628C302.255 61.1046 302.057 61.572 301.661 61.9664C301.265 62.3602 300.795 62.5574 300.25 62.5574H294.607C294.063 62.5574 293.593 62.3602 293.197 61.9664C292.801 61.572 292.603 61.1046 292.603 60.5628V26.1424C292.603 25.6006 292.801 25.1331 293.197 24.7394C293.593 24.345 294.063 24.1484 294.607 24.1484H300.25C300.795 24.1484 301.265 24.345 301.661 24.7394C302.057 25.1331 302.255 25.6006 302.255 26.1424V27.8415C303.542 26.6596 304.916 25.7486 306.376 25.1085C307.836 24.4685 309.754 24.1484 312.13 24.1484H312.674C313.219 24.1484 313.69 24.345 314.085 24.7394C314.481 25.1331 314.679 25.6006 314.679 26.1424V31.0173C314.679 31.5591 314.481 32.0272 314.085 32.4209C313.69 32.8146 313.219 33.0118 312.674 33.0118H310.645Z" fill="white"/>
<path fill-rule="evenodd" clip-rule="evenodd" d="M418.236 24.3506C418.321 24.3506 418.394 24.3803 418.455 24.4417C418.517 24.5032 418.548 24.5762 418.548 24.6603V25.0741C418.548 25.1588 418.517 25.2312 418.455 25.2926C418.394 25.354 418.321 25.3844 418.236 25.3844H416.075V32.0845C416.075 32.1692 416.046 32.2422 415.984 32.3024C415.922 32.3651 415.849 32.3948 415.764 32.3948H415.29C415.205 32.3948 415.132 32.3651 415.071 32.3024C415.009 32.2422 414.978 32.1692 414.978 32.0845V25.3844H412.818C412.733 25.3844 412.66 25.354 412.598 25.2926C412.537 25.2312 412.507 25.1588 412.507 25.0741V24.6603C412.507 24.5762 412.537 24.5032 412.598 24.4417C412.66 24.3803 412.733 24.3506 412.818 24.3506H418.236Z" fill="white"/>
</g>
<defs>
<clipPath id="clip0_6995_1424">
<rect width="426.982" height="76" fill="white" transform="translate(0.509033 0.957031)"/>
</clipPath>
</defs>
</svg>
