<svg width="292" height="77" viewBox="0 0 292 77" fill="none" xmlns="http://www.w3.org/2000/svg">
<path fill-rule="evenodd" clip-rule="evenodd" d="M116.151 16.0559C119.421 15.9971 122.653 16.7606 125.551 18.2762C128.45 19.7924 130.922 22.0129 132.739 24.7336L132.94 25.0353L127.715 29.467L127.466 29.0657C126.268 27.1353 124.591 25.5471 122.598 24.4554C120.605 23.3636 118.364 22.8053 116.092 22.8346L116.089 22.8347C108.065 22.8841 102.423 29.0974 102.423 37.5177C102.423 45.9362 108.283 52.4048 116.477 52.4048H116.485L116.493 52.405C118.747 52.4914 120.984 51.9827 122.979 50.9301C124.94 49.8958 126.599 48.3722 127.796 46.508V42.6319H115.68V35.989H134.88V48.0219L134.831 48.1131C133 51.4599 130.296 54.2475 127.007 56.1789C123.718 58.1101 119.967 59.1133 116.154 59.0816C113.343 59.0961 110.558 58.5463 107.963 57.4654C105.367 56.3839 103.015 54.7925 101.045 52.7858C99.0753 50.7789 97.5282 48.3973 96.4957 45.7816C95.4638 43.169 94.9665 40.3763 95.0324 37.5683C94.9736 34.7621 95.476 31.9727 96.5101 29.3634C97.5455 26.7512 99.0926 24.3726 101.061 22.3673C103.029 20.362 105.378 18.7706 107.971 17.6867C110.561 16.6033 113.343 16.0489 116.151 16.0559Z" fill="white"/>
<path fill-rule="evenodd" clip-rule="evenodd" d="M151.083 26.5583C148.576 26.4891 146.094 27.0667 143.876 28.2356C141.656 29.4053 139.775 31.1277 138.415 33.2362L138.241 33.506L142.419 37.8793L142.71 37.5193C145.11 34.5515 147.384 33.15 150.482 33.15C152.401 33.15 153.846 33.6998 154.814 34.6999C155.783 35.7021 156.329 37.2143 156.329 39.2516V40.8159H148.443C145.08 40.8159 142.288 41.6823 140.328 43.2639C138.359 44.8528 137.262 47.1378 137.262 49.8895C137.262 52.6359 138.329 54.9471 140.207 56.5661C142.078 58.1786 144.724 59.0802 147.855 59.082C149.681 59.1717 151.504 58.8378 153.18 58.1064C154.533 57.5159 155.762 56.6789 156.804 55.6412V58.4023H163.449L163.379 39.6594C163.379 35.4959 162.183 32.2104 160.02 29.9649C157.855 27.7186 154.769 26.5596 151.083 26.5583ZM145.612 47.192C144.864 47.7243 144.466 48.5215 144.466 49.6516C144.466 50.7651 144.929 51.6489 145.728 52.2648C146.538 52.8885 147.717 53.2551 149.156 53.2551H149.166L149.176 53.2553C150.093 53.2986 151.01 53.156 151.871 52.8358C152.732 52.5158 153.52 52.0251 154.186 51.3931C154.853 50.7607 155.384 50.0005 155.75 49.1577C156.115 48.3148 156.306 47.4069 156.312 46.4883V46.4784L156.316 46.337H149.242C147.58 46.337 146.383 46.6423 145.612 47.192Z" fill="white"/>
<path fill-rule="evenodd" clip-rule="evenodd" d="M191.624 11.165H198.691V58.4051H192.048V54.8298C190.965 56.0668 189.646 57.0809 188.163 57.8098C186.327 58.7124 184.298 59.1504 182.253 59.0848C173.784 59.0813 167.578 52.0609 167.578 42.8401C167.578 33.6304 173.894 26.34 182.258 26.5269C184.17 26.4714 186.07 26.8494 187.815 27.6325C189.239 28.2711 190.529 29.1656 191.624 30.2687V11.165ZM183.279 33.2889C178.535 33.2889 174.697 37.1565 174.697 42.7719C174.697 48.3974 178.375 52.3401 183.279 52.3401C185.476 52.3401 187.573 51.5557 189.12 49.9924C190.665 48.4319 191.692 46.064 191.692 42.8401C191.692 39.6177 190.649 37.2361 189.094 35.6616C187.537 34.0841 185.439 33.2889 183.279 33.2889Z" fill="white"/>
<path fill-rule="evenodd" clip-rule="evenodd" d="M254.363 26.5259C245.791 26.3374 238.643 33.8989 238.83 42.8386C238.781 44.9734 239.164 47.0958 239.954 49.0794C240.746 51.0658 241.93 52.8721 243.437 54.3898C244.943 55.9075 246.74 57.1055 248.721 57.9121C250.699 58.718 252.82 59.1165 254.955 59.0838C257.185 59.116 259.399 58.6944 261.461 57.8445C263.526 56.9935 265.395 55.7317 266.956 54.1352L267.184 53.9001L263.738 48.6911L263.386 49.0422C261.2 51.2213 258.256 52.4698 255.168 52.526L255.163 52.5263L255.156 52.5265C252.957 52.6377 250.797 51.9127 249.111 50.4973C247.543 49.1813 246.492 47.3588 246.133 45.3531H267.723L267.792 45.0329C268.091 43.6621 268.255 42.265 268.278 40.8618C268.349 38.9965 268.04 37.1363 267.371 35.3933C266.703 33.6491 265.687 32.0587 264.385 30.7183C263.085 29.3777 261.524 28.3152 259.802 27.5945C258.079 26.8748 256.23 26.5112 254.363 26.5259ZM256.926 33.2833C256.055 32.9456 255.123 32.7908 254.19 32.8286L254.183 32.8291C252.227 32.8704 250.349 33.6043 248.884 34.9004C247.537 36.0918 246.619 37.6873 246.263 39.4411H261.261C261.241 38.6411 261.078 37.8499 260.782 37.1046C260.435 36.2369 259.916 35.4498 259.252 34.7924C258.588 34.135 257.795 33.6213 256.926 33.2833Z" fill="white"/>
<path fill-rule="evenodd" clip-rule="evenodd" d="M278.036 19.2197H281.246V27.2065H289.93V33.6455H281.246V47.5469C281.246 49.4299 281.717 50.6039 282.555 51.3226C283.409 52.0537 284.729 52.3909 286.598 52.3909C287.472 52.3909 288.691 52.2749 290.429 52.0874L290.88 52.0388V58.3176L290.571 58.3934C288.843 58.8139 287.075 59.0457 285.299 59.0847H285.291C281.871 59.0847 279.062 58.2188 277.106 56.3784C275.148 54.5338 274.109 51.7697 274.109 48.1078V33.6455H269.352V30.5685L278.036 19.2197Z" fill="white"/>
<path fill-rule="evenodd" clip-rule="evenodd" d="M223.88 27.8087C222.016 26.9059 219.958 26.4782 217.889 26.5634C209.539 26.5679 203.267 33.1457 203.267 42.2644C203.267 51.3824 209.488 57.9617 217.89 57.9655C219.815 58.035 221.73 57.6691 223.494 56.8952C224.938 56.2616 226.249 55.3679 227.364 54.2616V55.3833C227.364 58.1568 226.541 60.2053 225.115 61.5608C223.688 62.9185 221.603 63.6331 218.975 63.626C215.258 63.5085 211.72 62.0037 209.056 59.4083L208.725 59.0853L204.835 64.2594L205.087 64.5091C206.974 66.3767 209.21 67.8542 211.668 68.8571C214.126 69.8598 216.757 70.3682 219.411 70.3538C223.929 70.3535 227.702 68.9802 230.348 66.3435C232.994 63.7061 234.465 59.8501 234.465 54.9754V27.3791H227.84V30.8221C226.737 29.5666 225.391 28.5409 223.88 27.8087ZM215.747 33.8971C216.669 33.5209 217.65 33.316 218.643 33.2914H219.05C221.375 33.2914 223.472 34.0856 224.986 35.5572C226.497 37.0258 227.463 39.2381 227.463 42.2135V42.2259L227.464 42.2381C227.54 43.4865 227.355 44.7367 226.921 45.9097C226.487 47.0816 225.815 48.1501 224.946 49.0482C224.175 49.8173 223.256 50.4228 222.245 50.8281C221.233 51.2342 220.149 51.4313 219.059 51.4078L219.05 51.4075L219.041 51.4078C217.913 51.4344 216.792 51.2281 215.747 50.8018C214.704 50.3762 213.76 49.7406 212.973 48.9345C212.15 48.0445 211.51 47.0005 211.092 45.8625C210.673 44.723 210.484 43.5119 210.535 42.2989L210.536 42.2814L210.535 42.2639C210.484 41.0725 210.673 39.8829 211.092 38.7662C211.51 37.6502 212.15 36.6301 212.971 35.7664C213.758 34.9593 214.703 34.323 215.747 33.8971Z" fill="white"/>
<path d="M7.60925 25.6192L40.7123 7.71094L74.6838 25.6192V51.342L50.0464 56.1175L40.7123 71.0954L7.60925 52.753V25.6192Z" fill="white"/>
<path d="M76.0428 27.1502C76.0428 25.7127 75.2668 24.3923 74.0189 23.6736L42.7028 5.85615C42.0789 5.50513 41.3875 5.32129 40.6792 5.32129C39.9709 5.32129 39.2796 5.50513 38.6556 5.85615L7.42368 23.824C6.17576 24.5428 5.40002 25.8632 5.40002 27.3007L5.45061 51.1687C5.45061 52.6061 6.22635 53.9265 7.47427 54.6452L37.5257 71.744C38.5206 72.3122 39.6504 72.6131 40.7973 72.6131C41.9439 72.6131 43.0907 72.3122 44.0858 71.7272L53.2428 66.4622C54.4907 65.7435 55.2664 64.4231 55.2664 62.9857L55.2494 58.0047L59.6172 60.4785C60.2411 60.8296 60.9327 61.0133 61.641 61.0133C62.3491 61.0133 63.0407 60.8296 63.6647 60.4785L74.0696 54.4947C75.3175 53.776 76.0932 52.4557 76.0932 51.0182L76.0428 27.1502ZM61.2699 33.3178C61.0675 32.9667 60.781 32.6825 60.4268 32.4821L41.8765 21.9186C41.1514 21.5174 40.2744 21.5174 39.5494 21.9186L21.0497 32.5657C20.3245 32.9834 19.8861 33.7356 19.9029 34.5546L19.9198 44.1486C19.9198 44.767 20.2571 45.3519 20.8136 45.6696L28.5709 50.0822C29.3636 50.5334 30.3754 49.9651 30.3754 49.0458L30.3584 40.5049C30.3584 39.6859 30.7969 38.917 31.5053 38.516L39.6 33.8526C40.3081 33.4349 41.2018 33.4349 41.9271 33.8526L50.0386 38.4658C50.3928 38.6662 50.6963 38.9672 50.8817 39.3013L41.7921 44.5329C41.1682 44.9007 40.7803 45.5526 40.7803 46.2713L40.831 68.6183C40.4261 68.6183 40.0216 68.518 39.6674 68.3176L10.6784 51.8205C9.95326 51.4193 9.51479 50.6504 9.51479 49.8314L9.4642 28.621C9.4642 27.802 9.90267 27.0331 10.6109 26.6321L39.5324 10.0013C40.2407 9.58342 41.1345 9.58342 41.8598 10.0013L70.8487 26.4984C71.2028 26.6987 71.5063 26.9997 71.6918 27.3341L61.2699 33.3178Z" fill="#0B0B0F"/>
<path fill-rule="evenodd" clip-rule="evenodd" d="M76.0433 27.1554C76.0433 26.6199 75.9356 26.1007 75.736 25.6226C75.5951 25.2854 75.4084 24.9686 75.1814 24.6813C74.8665 24.2829 74.4746 23.9409 74.0197 23.6789L42.7033 5.86153C42.4389 5.71275 42.1625 5.59401 41.8775 5.50656C41.4904 5.38769 41.0878 5.32669 40.6797 5.32669C40.283 5.32669 39.8913 5.3844 39.5141 5.49688C39.218 5.58517 38.9305 5.7072 38.6561 5.86153L7.4243 23.8294C7.22151 23.9462 7.03118 24.0789 6.8546 24.2254C6.3924 24.609 6.02458 25.0871 5.77454 25.6226C5.53236 26.1413 5.40065 26.7136 5.40065 27.3059L5.45124 51.174C5.45124 51.728 5.56653 52.2648 5.77969 52.7563C6.01506 53.2992 6.36977 53.7869 6.82043 54.1823C7.02039 54.3576 7.23922 54.5149 7.47489 54.6505L37.5262 71.7492C38.2614 72.1692 39.0705 72.4431 39.9055 72.5576C40.2004 72.5979 40.4986 72.6184 40.7978 72.6184C41.4412 72.6184 42.0845 72.5236 42.7011 72.3372C43.0869 72.2206 43.4623 72.0679 43.8208 71.8802C43.9105 71.8331 43.9989 71.7839 44.0863 71.7325L53.2433 66.4675C54.4912 65.7487 55.2669 64.4284 55.2669 62.991L55.2502 58.0102L59.6179 60.484C60.2419 60.8348 60.9332 61.0188 61.6415 61.0188C62.3498 61.0188 63.0412 60.8348 63.6652 60.484L74.0703 54.5002C74.4759 54.2664 74.8316 53.9693 75.127 53.6252C75.6721 52.9901 76.0119 52.1954 76.0808 51.3455C76.0894 51.2388 76.0939 51.1317 76.0939 51.0235L76.0433 27.1554ZM79.2996 27.1554L79.3503 51.0202V51.0235C79.3503 53.6463 77.9347 56.0324 75.6954 57.3219L65.2753 63.3145L65.2617 63.3221C64.1604 63.9415 62.9206 64.2751 61.6415 64.2751C60.5448 64.2751 59.4768 64.0299 58.5004 63.5693C58.3092 65.961 56.9419 68.0954 54.8687 69.2893L54.8664 69.2906L45.7221 74.5483C44.2137 75.4314 42.4999 75.8747 40.7978 75.8747C39.0837 75.8747 37.3978 75.4258 35.9125 74.5777C35.912 74.5774 35.913 74.5779 35.9125 74.5777L5.8571 57.4767L5.84973 57.4723C3.61171 56.1834 2.19632 53.799 2.19488 51.178C2.19488 51.1768 2.19488 51.1752 2.19488 51.174L2.14429 27.3095V27.3059C2.14429 24.6833 3.55998 22.2972 5.79914 21.0076L37.0459 3.0311L37.0596 3.0234C38.1608 2.40385 39.4009 2.07031 40.6797 2.07031C41.9588 2.07031 43.1986 2.40386 44.3001 3.0234L44.3069 3.02728L75.6374 20.8528L75.6448 20.8571C77.8825 22.1458 79.2976 24.5296 79.2996 27.1501C79.2996 27.1519 79.2996 27.1537 79.2996 27.1554Z" fill="white" fill-opacity="0.3"/>
</svg>
