<svg width="269" height="73" viewBox="0 0 269 73" fill="none" xmlns="http://www.w3.org/2000/svg">
<g clip-path="url(#clip0_770_12)">
<path d="M51.8213 31.2448H29.2196C28.9395 31.245 28.6709 31.3567 28.4729 31.5555C28.2748 31.7543 28.1635 32.0238 28.1633 32.3049V43.3953C28.1635 43.6766 28.2747 43.9463 28.4728 44.1453C28.6708 44.3444 28.9393 44.4565 29.2196 44.4571H38.0366V58.2353C38.0366 58.2353 36.0568 58.9132 30.5833 58.9132C24.1259 58.9132 15.105 56.5446 15.105 36.6369C15.105 16.7252 24.4983 14.1048 33.317 14.1048C40.9506 14.1048 44.2392 15.4544 46.3316 16.1036C46.9891 16.3059 47.5974 15.6494 47.5974 15.0632L50.1187 4.34825C50.1187 4.07451 50.0263 3.74401 49.7149 3.51974C48.8653 2.91157 43.6809 0 30.5833 0C15.4948 0 0.0175781 6.44311 0.0175781 37.4131C0.0175781 68.3853 17.7378 73 32.6701 73C45.034 73 52.5343 67.6973 52.5343 67.6973C52.8434 67.5253 52.877 67.092 52.877 66.893V32.3044C52.877 31.7198 52.4043 31.2448 51.8213 31.2448ZM168.302 3.71085C168.303 3.57165 168.277 3.43359 168.225 3.30461C168.172 3.17562 168.095 3.05824 167.998 2.95922C167.9 2.86019 167.784 2.78147 167.657 2.72757C167.529 2.67367 167.391 2.64566 167.253 2.64515H154.526C154.387 2.64566 154.25 2.67364 154.121 2.72748C153.993 2.78131 153.877 2.85995 153.779 2.95891C153.681 3.05787 153.604 3.17521 153.551 3.30423C153.498 3.43325 153.471 3.57141 153.472 3.71085L153.475 28.3934H133.639V3.71085C133.64 3.5716 133.613 3.43352 133.561 3.30452C133.509 3.17553 133.432 3.05816 133.334 2.95915C133.236 2.86014 133.12 2.78143 132.992 2.72754C132.865 2.67366 132.727 2.64566 132.588 2.64515H119.863C119.583 2.64664 119.314 2.75973 119.117 2.95957C118.92 3.15941 118.81 3.42964 118.812 3.71085V70.5443C118.812 71.1333 119.284 71.6128 119.863 71.6128H132.588C133.17 71.6128 133.639 71.1328 133.639 70.5443V41.9569H153.475L153.441 70.5443C153.441 71.1333 153.913 71.6128 154.495 71.6128H167.252C167.835 71.6128 168.301 71.1328 168.302 70.5443V3.71085ZM75.8361 12.4815C75.8361 7.88204 72.1621 4.16557 67.6295 4.16557C63.1015 4.16557 59.4247 7.88204 59.4247 12.4815C59.4247 17.0754 63.1015 20.8014 67.6295 20.8014C72.1621 20.8014 75.8361 17.0754 75.8361 12.4815ZM74.926 56.4462V25.596C74.9267 25.3147 74.8163 25.0446 74.6189 24.8449C74.4215 24.6453 74.1533 24.5323 73.873 24.5308H61.1872C60.6053 24.5308 60.0844 25.1334 60.0844 25.7196V69.9181C60.0844 71.2177 60.8909 71.6032 61.9348 71.6032H73.3645C74.6185 71.6032 74.926 70.9849 74.926 69.8979V56.4462ZM216.666 24.6314H204.037C203.458 24.6314 202.987 25.1103 202.987 25.6999V58.4703C202.987 58.4703 199.778 60.8265 195.225 60.8265C190.672 60.8265 189.464 58.753 189.464 54.2783V25.6999C189.464 25.1103 188.993 24.6314 188.413 24.6314H175.596C175.018 24.6314 174.544 25.1103 174.544 25.6999V56.4417C174.544 69.7326 181.925 72.9843 192.079 72.9843C200.409 72.9843 207.124 68.3662 207.124 68.3662C207.124 68.3662 207.444 70.7995 207.589 71.0884C207.734 71.3762 208.111 71.6667 208.518 71.6667L216.672 71.6308C217.25 71.6308 217.725 71.1508 217.725 70.5639L217.72 25.7005C217.72 25.1103 217.248 24.6314 216.666 24.6314ZM246.201 60.786C241.821 60.6522 238.85 58.6569 238.85 58.6569V37.4929C238.85 37.4929 241.78 35.6898 245.376 35.3671C249.924 34.9585 254.306 36.3373 254.306 47.2242C254.307 58.7052 252.329 60.9709 246.201 60.786ZM251.182 23.1307C244.009 23.1307 239.131 26.3424 239.131 26.3424V3.71141C239.131 3.12122 238.661 2.64515 238.081 2.64515H225.318C225.18 2.64581 225.042 2.67392 224.914 2.72787C224.786 2.78182 224.67 2.86056 224.572 2.95958C224.475 3.0586 224.398 3.17596 224.345 3.30496C224.293 3.43396 224.266 3.57207 224.267 3.71141V70.5443C224.267 71.1333 224.738 71.6128 225.32 71.6128H234.175C234.573 71.6128 234.875 71.4065 235.098 71.0456C235.318 70.6865 235.636 67.9643 235.636 67.9643C235.636 67.9643 240.855 72.9275 250.733 72.9275C262.331 72.9275 268.982 67.0234 268.982 46.4232C268.982 25.8225 258.36 23.1307 251.182 23.1307ZM111.502 24.5252H101.956L101.941 11.8677C101.941 11.3888 101.695 11.1494 101.143 11.1494H88.1344C87.6286 11.1494 87.357 11.3731 87.357 11.8604V24.9406C87.357 24.9406 80.8379 26.5194 80.3972 26.6476C80.1773 26.7115 79.9841 26.8454 79.8466 27.0291C79.7092 27.2128 79.6349 27.4364 79.6349 27.6661V35.8854C79.6349 36.4767 80.1054 36.9522 80.6873 36.9522H87.357V56.725C87.357 71.4121 97.6218 72.855 104.549 72.855C107.713 72.855 111.499 71.8354 112.124 71.6027C112.503 71.4633 112.722 71.0704 112.722 70.6443L112.733 61.6027C112.733 61.0125 112.237 60.5365 111.678 60.5365C111.121 60.5365 109.698 60.7635 108.233 60.7635C103.544 60.7635 101.956 58.5754 101.956 55.743L101.955 36.9516H111.502C112.084 36.9516 112.555 36.4755 112.555 35.8848V25.5892C112.555 25.4499 112.529 25.3118 112.476 25.1829C112.423 25.054 112.346 24.9368 112.248 24.8379C112.15 24.7391 112.034 24.6606 111.906 24.6069C111.778 24.5533 111.641 24.5255 111.502 24.5252Z" fill="white"/>
</g>
<defs>
<clipPath id="clip0_770_12">
<rect width="269" height="73" fill="white"/>
</clipPath>
</defs>
</svg>
