<svg width="131" height="53" viewBox="0 0 131 53" fill="none" xmlns="http://www.w3.org/2000/svg">
<g clip-path="url(#clip0_6995_1608)">
<path d="M61.5866 18.1768C61.624 18.1768 61.6613 18.1768 61.6998 18.1769C62.6453 18.1788 63.5378 18.2798 64.458 18.5042C64.4898 18.5117 64.5217 18.5193 64.5545 18.5271C65.1088 18.6595 65.6555 18.8247 66.1731 19.065C66.2493 19.1004 66.3259 19.1344 66.403 19.1679C67.0428 19.4481 67.648 19.7718 68.2307 20.1574C68.2837 20.1923 68.337 20.2268 68.3905 20.261C68.4165 20.2778 68.4426 20.2945 68.4695 20.3118C68.4929 20.3268 68.5164 20.3417 68.5406 20.3572C68.5658 20.3771 68.5658 20.3771 68.5915 20.3974C68.5915 20.4182 68.5915 20.439 68.5915 20.4605C68.6148 20.4688 68.6382 20.4771 68.6622 20.4857C68.7492 20.5236 68.8077 20.5643 68.8798 20.6253C68.9032 20.6449 68.9266 20.6644 68.9507 20.6846C68.9747 20.705 68.9987 20.7254 69.0234 20.7464C69.0714 20.787 69.1196 20.8274 69.1677 20.8678C69.1888 20.8858 69.21 20.9037 69.2318 20.9222C69.2846 20.9675 69.2846 20.9675 69.3488 20.9969C69.3488 21.0177 69.3488 21.0385 69.3488 21.06C69.3745 21.0707 69.3745 21.0707 69.4007 21.0816C69.4977 21.1358 69.574 21.2072 69.6544 21.2828C69.6719 21.2991 69.6894 21.3154 69.7074 21.3322C69.8626 21.4782 70.0143 21.6276 70.1652 21.7778C70.1873 21.7998 70.2094 21.8218 70.2322 21.8444C70.9023 22.5165 71.4586 23.3069 71.934 24.1259C71.9677 24.1838 72.0019 24.2413 72.0361 24.2988C72.7328 25.4861 73.1405 26.8312 73.362 28.1832C73.3693 28.2279 73.3693 28.2279 73.3768 28.2735C73.3922 28.3721 73.406 28.4708 73.4192 28.5697C73.4233 28.6004 73.4233 28.6004 73.4276 28.6316C73.4883 29.0892 73.4935 29.5444 73.4921 30.0054C73.4921 30.0431 73.492 30.0808 73.492 30.1197C73.4908 30.6612 73.4756 31.1898 73.3876 31.725C73.379 31.7837 73.3705 31.8424 73.3621 31.9011C73.061 33.886 72.2179 35.7248 71.0033 37.3131C70.9706 37.3563 70.9386 37.4 70.9069 37.444C70.8901 37.4671 70.8734 37.4903 70.8561 37.5141C70.8408 37.5354 70.8256 37.5567 70.8099 37.5786C70.7895 37.6019 70.7895 37.6019 70.7687 37.6255C70.7478 37.6255 70.727 37.6255 70.7056 37.6255C70.6976 37.6436 70.6896 37.6616 70.6814 37.6801C70.6374 37.7611 70.5865 37.8199 70.5241 37.8878C70.4989 37.9153 70.4736 37.9428 70.4476 37.9711C70.4335 37.9863 70.4194 38.0015 70.4049 38.0172C70.3539 38.0723 70.3032 38.1277 70.2526 38.1831C69.6965 38.7889 69.6965 38.7889 69.475 38.8877C69.475 38.9085 69.475 38.9293 69.475 38.9508C69.3841 39.0365 69.2842 39.1116 69.1861 39.1888C69.1239 39.2379 69.0623 39.2876 69.0006 39.3373C68.6578 39.6112 68.301 39.8546 67.9289 40.0867C67.9084 40.0997 67.8878 40.1126 67.8667 40.126C65.3886 41.6876 62.3084 42.2332 59.0371 41.6156C58.4012 41.4697 57.7747 41.2896 57.175 41.031C57.107 41.0021 57.0385 40.9748 56.9696 40.948C56.6226 40.812 56.2961 40.6456 55.9701 40.4653C55.9426 40.4501 55.9151 40.4349 55.8867 40.4193C55.3598 40.1269 54.869 39.8053 54.3907 39.4393C54.3295 39.3927 54.268 39.3466 54.2063 39.3006C54.1685 39.2721 54.1306 39.2436 54.0927 39.215C54.0751 39.202 54.0575 39.1889 54.0393 39.1755C53.9981 39.1441 53.9584 39.1108 53.9192 39.077C53.9192 39.0562 53.9192 39.0353 53.9192 39.0139C53.9016 39.0061 53.884 38.9983 53.8659 38.9902C53.7346 38.9192 53.6317 38.8222 53.5272 38.7168C53.4669 38.6563 53.4062 38.5962 53.3455 38.536C53.2961 38.4869 53.2468 38.4378 53.1974 38.3887C53.1728 38.3645 53.1483 38.3402 53.123 38.3152C52.7089 37.9028 52.7089 37.9028 52.6255 37.7202C52.6046 37.7202 52.5838 37.7202 52.5624 37.7202C51.6112 36.7256 50.8962 35.3369 50.4475 34.0533C50.4182 33.9697 50.3882 33.8863 50.3581 33.803C49.4917 31.3592 49.4973 28.4015 50.4483 25.9823C50.4695 25.9267 50.4907 25.8712 50.5119 25.8156C50.9684 24.6304 51.6007 23.5508 52.3965 22.5611C52.4354 22.5124 52.4735 22.4632 52.5117 22.414C52.5343 22.385 52.5568 22.356 52.5801 22.3261C52.5997 22.3008 52.6192 22.2755 52.6394 22.2494C52.6556 22.2318 52.6719 22.2141 52.6886 22.1959C52.7094 22.1959 52.7302 22.1959 52.7517 22.1959C52.7599 22.1776 52.7681 22.1593 52.7765 22.1405C52.8457 22.0126 52.9521 21.9145 53.0514 21.8094C53.0732 21.7859 53.095 21.7624 53.1174 21.7382C53.1487 21.7048 53.1487 21.7048 53.1806 21.6709C53.1997 21.6505 53.2188 21.6302 53.2385 21.6092C53.2881 21.5649 53.2881 21.5649 53.3512 21.5649C53.359 21.5464 53.3669 21.528 53.375 21.509C53.4198 21.4288 53.4689 21.382 53.5385 21.3223C53.5603 21.3033 53.5821 21.2843 53.6045 21.2647C53.6667 21.2178 53.6667 21.2178 53.7614 21.1862C53.777 21.1394 53.777 21.1394 53.7929 21.0916C53.9336 20.9653 53.9336 20.9653 54.0138 20.9653C54.0138 20.9445 54.0138 20.9237 54.0138 20.9022C54.0685 20.8546 54.1256 20.8098 54.1834 20.7662C54.2015 20.7525 54.2195 20.7389 54.2381 20.7248C54.2998 20.6785 54.3619 20.6325 54.424 20.5867C54.447 20.5697 54.4699 20.5528 54.4936 20.5353C54.5662 20.4819 54.639 20.4287 54.7119 20.3757C54.7345 20.3592 54.757 20.3428 54.7803 20.3258C55.3553 19.9107 55.9807 19.5486 56.6284 19.26C56.6927 19.2313 56.7567 19.202 56.8207 19.1725C57.7618 18.7437 58.7618 18.4754 59.7802 18.3089C59.81 18.304 59.8398 18.2992 59.8705 18.2941C59.9691 18.2787 60.0678 18.2649 60.1667 18.2517C60.1975 18.2476 60.1975 18.2476 60.2289 18.2433C60.6811 18.1839 61.131 18.176 61.5866 18.1768Z" fill="white"/>
<path d="M119.008 20.5055C119.1 20.5856 119.1 20.5856 119.203 20.6487C119.203 20.6696 119.203 20.6904 119.203 20.7119C119.245 20.7327 119.287 20.7535 119.33 20.775C119.33 20.7958 119.33 20.8166 119.33 20.8381C119.371 20.8589 119.413 20.8797 119.456 20.9012C119.456 20.922 119.456 20.9428 119.456 20.9643C119.487 20.9747 119.518 20.9851 119.55 20.9958C119.599 21.0441 119.599 21.0441 119.651 21.1063C119.754 21.2285 119.861 21.3465 119.97 21.4636C120.027 21.5363 120.057 21.6032 120.087 21.69C120.108 21.69 120.128 21.69 120.15 21.69C120.206 21.7618 120.257 21.8336 120.308 21.9089C120.323 21.9316 120.338 21.9543 120.354 21.9776C120.518 22.2223 120.668 22.4748 120.813 22.7313C120.823 22.7502 120.834 22.7692 120.846 22.7887C121.708 24.2881 122.018 26.0945 122.015 27.8054C122.015 27.8641 122.015 27.9229 122.015 27.9816C122.016 28.1417 122.015 28.3018 122.015 28.4619C122.015 28.635 122.015 28.8081 122.015 28.9812C122.015 29.2808 122.015 29.5803 122.015 29.8798C122.015 30.3129 122.015 30.7459 122.015 31.179C122.014 31.8817 122.014 32.5844 122.014 33.2871C122.014 33.9695 122.013 34.6519 122.013 35.3343C122.013 35.3658 122.013 35.3658 122.013 35.3981C122.013 35.6305 122.013 35.863 122.013 36.0955C122.013 37.8462 122.012 39.597 122.012 41.3478C120.471 41.3478 118.929 41.3478 117.342 41.3478C117.341 40.9468 117.341 40.5458 117.34 40.1327C117.339 38.8473 117.337 37.562 117.334 36.2766C117.334 36.0767 117.334 35.8768 117.333 35.6769C117.333 35.6371 117.333 35.5973 117.333 35.5563C117.332 34.9133 117.331 34.2703 117.331 33.6273C117.33 32.9667 117.329 32.3062 117.328 31.6456C117.327 31.2385 117.326 30.8315 117.326 30.4244C117.326 30.1447 117.325 29.8649 117.324 29.5851C117.324 29.4241 117.324 29.2631 117.324 29.1021C117.325 27.3403 117.126 25.4715 115.84 24.1426C115.732 24.031 115.732 24.031 115.732 23.9619C115.706 23.9511 115.706 23.9511 115.68 23.9402C115.585 23.8865 115.517 23.8173 115.439 23.741C114.409 22.7711 112.881 22.4378 111.504 22.4788C111.465 22.4797 111.425 22.4806 111.385 22.4816C110.808 22.5007 110.226 22.5924 109.674 22.7628C109.643 22.7721 109.611 22.7815 109.578 22.791C108.985 22.9752 108.404 23.2977 107.939 23.7094C107.909 23.7356 107.879 23.7618 107.848 23.7888C106.622 24.8757 106.112 26.429 106.014 28.0322C105.996 28.44 106 28.8488 106 29.2569C106 29.4196 106 29.5824 105.999 29.7452C105.999 30.0262 105.998 30.3073 105.998 30.5883C105.998 30.9946 105.997 31.4009 105.996 31.8072C105.995 32.4666 105.994 33.1261 105.993 33.7855C105.993 34.4255 105.992 35.0655 105.991 35.7056C105.991 35.7451 105.991 35.7847 105.991 35.8254C105.99 36.0238 105.99 36.2223 105.989 36.4207C105.987 38.0631 105.984 39.7054 105.982 41.3478C104.431 41.3478 102.88 41.3478 101.281 41.3478C101.281 33.8923 101.281 26.4369 101.281 18.7555C102.832 18.7555 104.384 18.7555 105.982 18.7555C105.993 19.5781 106.003 20.4007 106.014 21.2483C106.186 21.0608 106.186 21.0608 106.361 20.8696C106.582 20.6405 106.582 20.6405 106.645 20.5856C106.666 20.5856 106.687 20.5856 106.708 20.5856C106.708 20.5648 106.708 20.544 106.708 20.5225C106.816 20.4189 106.937 20.3298 107.055 20.2386C107.077 20.2216 107.099 20.2046 107.122 20.1871C108.285 19.2962 109.649 18.7381 111.094 18.5031C111.121 18.4981 111.149 18.4932 111.177 18.488C111.421 18.4446 111.663 18.4207 111.911 18.4045C111.971 18.4006 111.971 18.4006 112.032 18.3965C114.51 18.2442 117.1 18.8567 119.008 20.5055Z" fill="white"/>
<path d="M128.766 10.3869C129.391 10.9074 129.81 11.5655 129.9 12.3827C129.929 12.98 129.912 13.5406 129.648 14.0866C129.636 14.1126 129.625 14.1386 129.614 14.1654C129.472 14.4779 129.226 14.8204 128.953 15.0332C128.933 15.0332 128.912 15.0332 128.89 15.0332C128.88 15.0644 128.87 15.0956 128.859 15.1278C128.262 15.6513 127.457 15.8384 126.682 15.7904C125.862 15.7151 125.148 15.3746 124.599 14.7492C124.026 14.0147 123.851 13.1951 123.944 12.2735C123.963 12.1491 123.995 12.0297 124.031 11.9094C124.038 11.8824 124.044 11.8554 124.051 11.8275C124.145 11.4559 124.367 11.1357 124.599 10.8366C124.621 10.8073 124.643 10.778 124.666 10.7478C124.685 10.725 124.705 10.7023 124.725 10.6788C124.746 10.6788 124.767 10.6788 124.788 10.6788C124.799 10.6475 124.809 10.6163 124.82 10.5841C125.853 9.56105 127.637 9.51623 128.766 10.3869Z" fill="white"/>
<path d="M88.4388 18.5978C88.4843 18.6068 88.4843 18.6068 88.5306 18.6159C89.4256 18.7982 90.2566 19.1401 91.0565 19.5728C91.1113 19.6024 91.1663 19.6316 91.2213 19.6608C91.7607 19.9489 92.2553 20.297 92.7301 20.6804C92.7579 20.7027 92.7579 20.7027 92.7863 20.7255C92.8401 20.7687 92.8936 20.8122 92.947 20.8559C92.9937 20.894 92.9937 20.894 93.0414 20.9329C93.0636 20.9537 93.0858 20.9745 93.1087 20.9959C93.1087 21.0167 93.1087 21.0375 93.1087 21.059C93.1504 21.0798 93.192 21.1006 93.2349 21.1221C93.2349 21.1429 93.2349 21.1638 93.2349 21.1852C93.2766 21.206 93.3182 21.2269 93.3611 21.2483C93.3611 21.2691 93.3611 21.29 93.3611 21.3114C93.3791 21.3185 93.3971 21.3255 93.4156 21.3327C93.5087 21.387 93.5589 21.4536 93.6254 21.5382C93.7345 21.6761 93.8459 21.8087 93.9606 21.9425C93.9711 20.8908 93.9815 19.8391 93.9922 18.7556C95.5541 18.7556 97.116 18.7556 98.7252 18.7556C98.7271 21.515 98.7271 21.515 98.7276 22.3691C98.7277 22.4148 98.7277 22.4148 98.7277 22.4614C98.7283 23.4874 98.7288 24.5134 98.7292 25.5395C98.7292 25.573 98.7292 25.6065 98.7293 25.641C98.7295 26.3692 98.7298 27.0974 98.73 27.8256C98.7302 28.1827 98.7303 28.5399 98.7304 28.897C98.7304 28.9326 98.7304 28.9681 98.7304 29.0047C98.7308 30.1553 98.7316 31.3059 98.7324 32.4565C98.7333 33.6395 98.7339 34.8225 98.7341 36.0055C98.7341 36.1728 98.7342 36.3402 98.7342 36.5075C98.7342 36.5404 98.7342 36.5734 98.7342 36.6073C98.7343 37.1361 98.7348 37.6648 98.7353 38.1936C98.7359 38.726 98.7361 39.2584 98.736 39.7908C98.7359 40.1065 98.7361 40.4223 98.7366 40.7381C98.737 40.9497 98.737 41.1614 98.7367 41.373C98.7366 41.4932 98.7366 41.6133 98.737 41.7334C98.7449 44.0675 98.1497 46.3326 96.804 48.2567C96.7696 48.3062 96.7353 48.356 96.703 48.407C96.6739 48.4529 96.6427 48.4976 96.6111 48.542C96.5903 48.542 96.5695 48.542 96.548 48.542C96.5403 48.5649 96.5326 48.5878 96.5247 48.6114C96.48 48.7106 96.4271 48.7724 96.3528 48.8516C96.266 48.9448 96.1806 49.0386 96.0974 49.135C95.9762 49.2741 95.8481 49.4055 95.7178 49.5359C95.6952 49.5589 95.6727 49.5818 95.6494 49.6055C95.6171 49.6379 95.6171 49.6379 95.584 49.671C95.5646 49.6906 95.5452 49.7101 95.5252 49.7302C95.4752 49.7726 95.4752 49.7726 95.4121 49.7726C95.4017 49.8038 95.3913 49.8351 95.3805 49.8672C95.2399 49.9935 95.2399 49.9935 95.1597 49.9935C95.1597 50.0143 95.1597 50.0351 95.1597 50.0566C95.1096 50.1008 95.1096 50.1008 95.0396 50.1516C95.0142 50.1702 94.9888 50.1888 94.9626 50.2079C94.9352 50.2276 94.9078 50.2473 94.8796 50.2676C94.8518 50.2878 94.824 50.3079 94.7954 50.3287C94.7421 50.3673 94.6888 50.4057 94.6354 50.4441C94.5825 50.4822 94.5298 50.5206 94.4772 50.5593C92.1083 52.2964 89.0041 52.6703 84.9732 52.3025C84.2712 52.1917 83.5804 52.0244 82.9092 51.7906C82.8232 51.7608 82.7369 51.7319 82.6505 51.7033C82.3493 51.6023 82.0614 51.4873 81.7766 51.347C81.7162 51.3179 81.6552 51.2903 81.5939 51.2631C80.8761 50.9416 80.2261 50.5021 79.6038 50.025C79.5748 50.0029 79.5458 49.9808 79.516 49.958C79.2098 49.719 78.9305 49.4486 78.6553 49.175C78.6299 49.1499 78.6299 49.1499 78.604 49.1242C78.3417 48.8608 78.3417 48.8608 78.3417 48.7629C78.3209 48.7629 78.3001 48.7629 78.2786 48.7629C78.2402 48.722 78.2402 48.722 78.1974 48.6646C78.1816 48.6437 78.1659 48.6227 78.1497 48.601C78.1247 48.5669 78.1247 48.5669 78.0991 48.5321C78.0734 48.4974 78.0734 48.4974 78.0472 48.4619C77.9161 48.2831 77.792 48.1019 77.6791 47.9109C77.6685 47.8931 77.6579 47.8752 77.647 47.8568C77.0689 46.8754 76.5432 45.628 76.5432 44.4716C78.0842 44.4716 79.6253 44.4716 81.2131 44.4716C81.2547 44.5757 81.2964 44.6799 81.3393 44.7872C81.6057 45.4207 81.9374 46.0587 82.4752 46.5068C82.5699 46.5857 82.5699 46.5857 82.6453 46.6614C83.9215 47.9337 85.9126 48.3819 87.6519 48.3921C89.234 48.3828 90.6713 47.9675 91.9097 46.9643C91.9279 46.9457 91.946 46.927 91.9648 46.9078C92.0043 46.8697 92.0043 46.8697 92.0674 46.8697C92.0779 46.8384 92.0883 46.8072 92.099 46.775C92.1473 46.7297 92.1473 46.7297 92.2094 46.6804C92.3742 46.5402 92.5031 46.3774 92.6354 46.2071C92.6592 46.1767 92.6831 46.1463 92.7076 46.115C92.959 45.788 93.1678 45.4505 93.3296 45.0711C93.3437 45.0418 93.3578 45.0126 93.3723 44.9824C93.9265 43.7938 93.9726 42.4522 93.967 41.1652C93.9666 41.0545 93.9666 40.9437 93.9665 40.833C93.9663 40.6249 93.9658 40.4169 93.9652 40.2088C93.9645 39.9713 93.9641 39.7337 93.9638 39.4961C93.9632 39.009 93.9621 38.5219 93.9606 38.0347C93.9355 38.0642 93.9103 38.0937 93.8844 38.1241C93.8506 38.1636 93.8168 38.2031 93.783 38.2427C93.7665 38.262 93.7501 38.2813 93.7331 38.3012C93.5242 38.5454 93.3119 38.7932 93.0772 39.0129C93.0563 39.0129 93.0355 39.0129 93.014 39.0129C93.0037 39.0396 93.0037 39.0396 92.9931 39.0669C92.9374 39.1623 92.8673 39.2161 92.7813 39.285C92.7512 39.3095 92.721 39.334 92.6899 39.3592C92.6199 39.4111 92.5569 39.4512 92.4776 39.4862C92.4776 39.507 92.4776 39.5278 92.4776 39.5493C92.4161 39.6007 92.4161 39.6007 92.3297 39.6617C92.2819 39.6956 92.2819 39.6956 92.2331 39.7301C92.1993 39.7537 92.1654 39.7774 92.1305 39.8017C92.0827 39.8357 92.0827 39.8357 92.0339 39.8704C91.7852 40.0454 91.53 40.2081 91.2707 40.3671C91.225 40.3954 91.1796 40.4242 91.1344 40.4532C90.8961 40.6035 90.6392 40.7184 90.3837 40.836C90.3241 40.8636 90.2648 40.8916 90.2056 40.92C89.9575 41.0377 89.707 41.1351 89.4465 41.2216C89.4264 41.2283 89.4062 41.2351 89.3854 41.242C88.4999 41.5348 87.5589 41.6993 86.6256 41.7002C86.5892 41.7003 86.5528 41.7004 86.5152 41.7005C86.4386 41.7007 86.3619 41.7008 86.2853 41.7008C86.1702 41.7008 86.0552 41.7014 85.9401 41.702C85.3552 41.7034 84.782 41.6741 84.2067 41.5628C84.1714 41.556 84.136 41.5493 84.0996 41.5424C83.4553 41.4156 82.8339 41.2406 82.2228 41.0007C82.1871 40.9871 82.1871 40.9871 82.1507 40.9732C81.7808 40.8316 81.4331 40.6561 81.0869 40.4643C81.0484 40.4431 81.0484 40.4431 81.0091 40.4214C80.6724 40.2342 80.353 40.0339 80.0456 39.8017C80.0286 39.7891 80.0117 39.7764 79.9942 39.7634C79.7345 39.57 79.4878 39.3633 79.2438 39.1506C79.1934 39.1073 79.1423 39.0653 79.0909 39.0232C79.0043 38.9498 79.0043 38.9498 78.9274 38.8571C78.8656 38.7832 78.8131 38.7298 78.7401 38.6697C78.5789 38.5358 78.4293 38.3848 78.3417 38.1925C78.3209 38.1925 78.3001 38.1925 78.2786 38.1925C78.2234 38.1286 78.1719 38.0644 78.1208 37.9973C78.1054 37.9772 78.09 37.9572 78.0741 37.9365C78.042 37.8949 78.01 37.8532 77.9781 37.8114C77.9357 37.7562 77.8928 37.7014 77.8496 37.6467C77.5545 37.2707 77.2967 36.8729 77.0555 36.4605C77.0257 36.4097 76.9956 36.3591 76.9653 36.3086C76.8348 36.0892 76.7186 35.8667 76.6122 35.6347C76.5961 35.5996 76.58 35.5645 76.5634 35.5284C76.0016 34.284 75.6673 32.9577 75.5118 31.6037C75.508 31.5711 75.5042 31.5384 75.5003 31.5047C75.445 30.9902 75.4323 30.4742 75.4329 29.9571C75.4329 29.929 75.4329 29.901 75.4329 29.8721C75.4336 29.3929 75.4526 28.9194 75.5019 28.4425C75.5067 28.3933 75.5067 28.3933 75.5116 28.3431C75.5615 27.8434 75.646 27.355 75.7543 26.8648C75.7614 26.8321 75.7686 26.7994 75.7759 26.7657C75.9441 26.0007 76.1946 25.2772 76.5116 24.5614C76.5244 24.5326 76.5372 24.5037 76.5503 24.474C76.9143 23.6617 77.4009 22.9154 77.9631 22.2265C77.9873 22.1967 78.0116 22.1669 78.0365 22.1362C78.0851 22.0768 78.1337 22.0174 78.1825 21.9581C78.2213 21.9108 78.2598 21.8633 78.2978 21.8154C78.3321 21.7725 78.3683 21.7311 78.4048 21.6901C78.4256 21.6901 78.4465 21.6901 78.4679 21.6901C78.4744 21.6733 78.4809 21.6565 78.4876 21.6393C78.5493 21.5321 78.6327 21.4531 78.7204 21.3666C78.7376 21.3492 78.7548 21.3317 78.7726 21.3136C78.9017 21.1852 78.9017 21.1852 78.9728 21.1852C78.9884 21.1384 78.9884 21.1384 79.0043 21.0905C79.0656 21.0336 79.0656 21.0336 79.1483 20.9683C79.1796 20.9433 79.2109 20.9184 79.2432 20.8927C79.2605 20.879 79.2778 20.8653 79.2956 20.8512C79.3554 20.8033 79.4145 20.7546 79.4734 20.7056C79.7189 20.5023 79.9651 20.3142 80.2349 20.1439C80.2753 20.1176 80.2753 20.1176 80.3165 20.0907C80.4044 20.0337 80.493 19.9782 80.582 19.9231C80.5994 19.9121 80.6168 19.9012 80.6347 19.8899C81.7294 19.2036 82.9433 18.7674 84.2106 18.5347C84.2499 18.5274 84.2499 18.5274 84.2899 18.5199C85.6531 18.2721 87.0843 18.3304 88.4388 18.5978ZM86.8431 22.4501C86.275 22.4701 85.701 22.5594 85.1615 22.7403C85.1104 22.7574 85.059 22.774 85.0076 22.7904C84.7826 22.8628 84.5673 22.948 84.3526 23.0469C84.3201 23.0618 84.2877 23.0767 84.2542 23.0921C83.66 23.3713 83.1366 23.7325 82.633 24.1512C82.6145 24.1658 82.596 24.1804 82.5769 24.1954C82.4629 24.2855 82.3715 24.3882 82.2779 24.4984C82.2257 24.558 82.1714 24.613 82.1143 24.6679C82.0261 24.739 82.0261 24.739 82.0335 24.8138C82.0126 24.8138 81.9918 24.8138 81.9704 24.8138C81.9252 24.8615 81.9252 24.8615 81.8798 24.925C81.8618 24.9492 81.8439 24.9733 81.8254 24.9981C81.8062 25.0245 81.787 25.0509 81.7672 25.0781C81.7475 25.1052 81.7277 25.1322 81.7074 25.1601C81.283 25.7489 80.9524 26.3712 80.7082 27.0541C80.6998 27.0773 80.6915 27.1005 80.6828 27.1244C79.9794 29.1044 80.0846 31.6867 80.9784 33.5936C81.0139 33.6649 81.05 33.7359 81.0869 33.8066C81.1064 33.8455 81.126 33.8845 81.1455 33.9234C81.3726 34.369 81.6572 34.7745 81.9704 35.1634C81.9836 35.1799 81.9967 35.1964 82.0103 35.2133C82.2853 35.5547 82.5911 35.9162 82.9485 36.1731C82.9693 36.1731 82.9902 36.1731 83.0116 36.1731C83.0116 36.1939 83.0116 36.2147 83.0116 36.2362C83.0637 36.257 83.1157 36.2778 83.1694 36.2993C83.1694 36.3201 83.1694 36.3409 83.1694 36.3624C83.2379 36.4135 83.2379 36.4135 83.3252 36.4649C83.4353 36.5327 83.5431 36.6013 83.6486 36.676C84.6644 37.3526 85.9232 37.6316 87.1254 37.6324C87.1678 37.6325 87.1678 37.6325 87.2111 37.6325C87.6177 37.632 88.0092 37.6196 88.4072 37.5299C88.4339 37.5243 88.4605 37.5187 88.488 37.513C88.8718 37.4323 89.2414 37.3267 89.6063 37.1828C89.6265 37.1749 89.6468 37.167 89.6676 37.1589C90.184 36.9553 90.6859 36.6763 91.1208 36.3308C91.1471 36.3105 91.1734 36.2902 91.2005 36.2693C91.8152 35.7879 92.2959 35.2386 92.7301 34.5954C92.7472 34.5712 92.7643 34.5471 92.782 34.5222C92.9254 34.3171 93.0324 34.0948 93.1403 33.8697C93.1494 33.8509 93.1586 33.8321 93.168 33.8127C94.1753 31.7441 94.265 29.2323 93.521 27.0629C93.3772 26.6632 93.1903 26.2881 92.9825 25.9182C92.9707 25.8971 92.959 25.876 92.9469 25.8543C92.776 25.55 92.578 25.2708 92.3634 24.9959C92.326 24.948 92.2892 24.8996 92.2526 24.8511C91.8881 24.3836 91.4497 23.9824 90.9631 23.6464C90.9234 23.6183 90.8838 23.5902 90.8441 23.5621C90.5712 23.3717 90.2869 23.2176 89.9849 23.0784C89.9486 23.0616 89.9123 23.0447 89.8748 23.0274C88.9146 22.5999 87.8903 22.4249 86.8431 22.4501Z" fill="white"/>
<path d="M1.91931 18.7559C3.47079 18.7559 5.02227 18.7559 6.62077 18.7559C6.62077 26.2113 6.62077 33.6667 6.62077 41.3481C5.06929 41.3481 3.51781 41.3481 1.91931 41.3481C1.91931 33.8927 1.91931 26.4372 1.91931 18.7559Z" fill="white"/>
<path d="M22.9023 18.5977C22.9326 18.6037 22.9628 18.6097 22.994 18.6158C24.185 18.8584 25.3599 19.3572 26.3462 20.0709C26.4036 20.1137 26.4036 20.1137 26.4678 20.1439C26.4678 20.1647 26.4678 20.1855 26.4678 20.207C26.4906 20.2149 26.5134 20.2228 26.5369 20.231C26.633 20.2733 26.7021 20.324 26.7834 20.3904C26.8094 20.4114 26.8354 20.4324 26.8623 20.4541C26.9453 20.5261 27.0217 20.6019 27.0989 20.6803C27.1413 20.7217 27.1838 20.763 27.2264 20.8044C27.513 21.085 27.7763 21.3666 28.014 21.69C28.0452 21.7311 28.0764 21.7721 28.1076 21.8132C28.9974 23.0002 29.4974 24.4043 29.7494 25.855C29.7567 25.897 29.7567 25.897 29.7642 25.9398C29.9286 26.9173 29.9165 27.9189 29.9145 28.9069C29.9142 29.0746 29.9143 29.2423 29.9144 29.4099C29.9144 29.6991 29.9142 29.9882 29.9138 30.2774C29.9133 30.6954 29.9132 31.1135 29.9131 31.5315C29.9129 32.2101 29.9125 32.8886 29.9119 33.5672C29.9113 34.2256 29.9109 34.884 29.9106 35.5424C29.9106 35.6035 29.9106 35.6035 29.9106 35.6658C29.9105 35.8701 29.9104 36.0744 29.9103 36.2787C29.9097 37.9684 29.9085 39.6581 29.9072 41.3477C28.3661 41.3477 26.825 41.3477 25.2373 41.3477C25.2366 40.9565 25.236 40.5652 25.2354 40.1621C25.2333 38.9076 25.231 37.6532 25.2284 36.3988C25.228 36.2036 25.2276 36.0085 25.2272 35.8134C25.2271 35.7551 25.2271 35.7551 25.227 35.6957C25.2258 35.0682 25.2247 34.4407 25.2238 33.8133C25.2228 33.1686 25.2216 32.5239 25.2201 31.8792C25.2193 31.482 25.2186 31.0847 25.2181 30.6875C25.2178 30.4144 25.2172 30.1414 25.2165 29.8683C25.216 29.7112 25.2157 29.5541 25.2157 29.3969C25.215 27.8285 25.1545 26.1261 24.2354 24.7823C24.196 24.7191 24.196 24.7191 24.196 24.656C24.1752 24.656 24.1543 24.656 24.1329 24.656C24.1026 24.6119 24.0726 24.5676 24.044 24.5225C23.9784 24.4244 23.9005 24.3368 23.8233 24.2478C23.8066 24.2284 23.7899 24.2091 23.7727 24.1891C23.5819 23.9518 23.5819 23.9518 23.3441 23.7725C23.3441 23.7517 23.3441 23.7308 23.3441 23.7094C23.3273 23.7019 23.3105 23.6944 23.2931 23.6867C23.216 23.6453 23.1473 23.5967 23.077 23.5446C22.0931 22.816 20.9606 22.5159 19.747 22.4788C19.7164 22.4779 19.6859 22.4769 19.6544 22.476C19.5694 22.4748 19.4849 22.4763 19.3999 22.4788C19.3608 22.4797 19.3217 22.4806 19.2814 22.4815C18.6694 22.5019 18.0544 22.5933 17.4751 22.7943C17.4544 22.8012 17.4337 22.8081 17.4124 22.8153C16.7769 23.0285 16.2171 23.3695 15.7081 23.804C15.6834 23.8245 15.6587 23.8449 15.6333 23.8659C15.4441 24.0266 15.292 24.2077 15.1402 24.4036C15.1167 24.4328 15.0933 24.462 15.0692 24.4922C14.4202 25.3226 14.1164 26.3425 13.9648 27.3715C13.9597 27.4058 13.9545 27.4401 13.9492 27.4754C13.8515 28.1802 13.8727 28.8968 13.8717 29.6067C13.8714 29.7646 13.871 29.9225 13.8706 30.0804C13.8699 30.3533 13.8693 30.6262 13.8689 30.8991C13.8681 31.2937 13.8672 31.6883 13.8663 32.0828C13.8648 32.7231 13.8634 33.3634 13.8622 34.0038C13.8609 34.6254 13.8596 35.247 13.8582 35.8686C13.8581 35.9262 13.8581 35.9262 13.858 35.985C13.8575 36.1775 13.8571 36.3701 13.8567 36.5627C13.8531 38.1577 13.8497 39.7527 13.8465 41.3477C12.295 41.3477 10.7435 41.3477 9.14502 41.3477C9.14502 33.8923 9.14502 26.4369 9.14502 18.7555C10.6965 18.7555 12.248 18.7555 13.8465 18.7555C13.8569 19.5885 13.8673 20.4215 13.878 21.2798C14.0816 21.0588 14.0816 21.0588 14.2764 20.8301C14.3757 20.7151 14.488 20.6205 14.6038 20.5225C14.6246 20.504 14.6454 20.4855 14.6669 20.4664C14.6962 20.4405 14.6962 20.4405 14.726 20.414C14.7435 20.3984 14.761 20.3829 14.779 20.3668C14.8246 20.3332 14.8246 20.3332 14.8877 20.3332C14.8877 20.3123 14.8877 20.2915 14.8877 20.2701C14.9398 20.2492 14.9919 20.2284 15.0455 20.207C15.0455 20.1861 15.0455 20.1653 15.0455 20.1439C15.109 20.0938 15.109 20.0938 15.1978 20.035C15.2303 20.0134 15.2628 19.9919 15.2962 19.9696C15.3306 19.9471 15.365 19.9245 15.4005 19.9013C15.4334 19.8793 15.4664 19.8574 15.5003 19.8348C15.8276 19.6184 16.1579 19.4199 16.5167 19.2604C16.5617 19.2402 16.5617 19.2402 16.6075 19.2197C17.3035 18.9111 18.0202 18.678 18.7688 18.5346C18.7913 18.5302 18.8138 18.5259 18.837 18.5213C20.1705 18.2683 21.5763 18.3346 22.9023 18.5977Z" fill="white"/>
<path d="M43.3298 18.7492C43.4517 18.7495 43.5735 18.7494 43.6953 18.7494C43.9055 18.7493 44.1157 18.7495 44.3259 18.7499C44.6298 18.7504 44.9337 18.7506 45.2376 18.7506C45.7309 18.7508 46.2241 18.7512 46.7174 18.7518C47.1961 18.7524 47.6747 18.7528 48.1534 18.7531C48.1977 18.7531 48.1977 18.7531 48.243 18.7531C48.3915 18.7532 48.54 18.7533 48.6885 18.7534C49.9168 18.754 51.1452 18.7551 52.3735 18.7566C52.2528 18.8785 52.1378 18.9777 51.9949 19.0721C51.974 19.0721 51.9532 19.0721 51.9318 19.0721C51.9318 19.0929 51.9318 19.1137 51.9318 19.1352C51.8862 19.1749 51.8862 19.1749 51.8227 19.2199C51.6791 19.324 51.542 19.4345 51.4052 19.5474C51.3821 19.5663 51.359 19.5852 51.3351 19.6046C51.2364 19.6859 51.1403 19.7666 51.0516 19.8588C50.9852 19.924 50.9852 19.924 50.9221 19.924C50.9221 19.9449 50.9221 19.9657 50.9221 19.9871C50.8779 20.0305 50.8779 20.0305 50.8156 20.0818C50.5674 20.2931 50.3435 20.5274 50.1332 20.776C50.1004 20.8148 50.0675 20.8536 50.0346 20.8923C50.0209 20.9087 50.0071 20.9251 49.993 20.942C49.954 20.9856 49.9129 21.0272 49.8712 21.0681C49.3603 21.5878 48.8497 22.2701 48.524 22.9216C48.48 22.9218 48.48 22.9218 48.4352 22.9219C47.7192 22.9245 47.0033 22.9274 46.2874 22.9307C45.9411 22.9323 45.5949 22.9337 45.2487 22.9349C44.9466 22.936 44.6445 22.9372 44.3425 22.9387C44.1828 22.9395 44.0231 22.9402 43.8634 22.9406C43.7126 22.9411 43.5617 22.9418 43.4109 22.9427C43.356 22.9429 43.3012 22.9431 43.2464 22.9432C41.6307 22.9455 39.88 23.4136 38.661 24.5279C38.6162 24.5624 38.6162 24.5624 38.5531 24.5624C38.5531 24.5832 38.5531 24.604 38.5531 24.6255C38.5014 24.6714 38.4478 24.7151 38.3934 24.7576C38.0923 24.999 37.8366 25.2728 37.6148 25.5889C37.6016 25.6042 37.5885 25.6194 37.575 25.6352C37.5541 25.6352 37.5333 25.6352 37.5119 25.6352C37.5054 25.656 37.4988 25.6769 37.4921 25.6983C37.4541 25.7814 37.4175 25.8372 37.362 25.9083C36.6978 26.7819 36.3074 27.8435 36.1235 28.9168C36.1178 28.9478 36.1122 28.9788 36.1063 29.0108C36.0502 29.3504 36.0479 29.6875 36.0486 30.031C36.0486 30.0617 36.0486 30.0923 36.0486 30.1239C36.0494 30.6067 36.0813 31.0633 36.1866 31.5357C36.1959 31.583 36.2051 31.6303 36.2142 31.6777C36.4518 32.8532 37.0947 34.0166 37.9274 34.8753C37.9895 34.9398 38.0432 34.9961 38.0825 35.0771C38.121 35.1513 38.1628 35.1601 38.2376 35.1959C38.2939 35.2459 38.349 35.2974 38.4032 35.3497C39.6162 36.486 41.3157 37.1362 42.9707 37.1209C43.0897 37.1198 43.2087 37.1191 43.3277 37.1183C43.3917 37.1179 43.4557 37.1175 43.5197 37.117C43.7548 37.1154 43.9898 37.1144 44.2249 37.1139C44.2762 37.1138 44.2762 37.1138 44.3286 37.1137C44.4695 37.1134 44.6104 37.1131 44.7513 37.1129C45.1508 37.1122 45.5502 37.1107 45.9496 37.1071C46.2675 37.1042 46.5854 37.1029 46.9033 37.1034C47.0714 37.1036 47.2393 37.1031 47.4074 37.1006C47.5654 37.0983 47.7232 37.0981 47.8812 37.0994C47.9391 37.0996 47.9969 37.099 48.0547 37.0975C48.4796 37.0875 48.4796 37.0875 48.606 37.1951C48.7086 37.3158 48.7726 37.4514 48.8395 37.5939C49.1857 38.1541 49.6193 38.6675 50.0625 39.1531C50.1017 39.2032 50.1017 39.2032 50.1332 39.2978C50.154 39.2978 50.1749 39.2978 50.1963 39.2978C50.2342 39.3364 50.2342 39.3364 50.2811 39.3945C50.4013 39.5361 50.5305 39.6674 50.6617 39.7987C50.6826 39.8198 50.7035 39.8408 50.7251 39.8625C50.745 39.8824 50.7649 39.9022 50.7855 39.9227C50.8034 39.9406 50.8213 39.9585 50.8398 39.9769C50.8949 40.03 50.8949 40.03 50.9852 40.0867C50.9852 40.1075 50.9852 40.1283 50.9852 40.1498C51.0026 40.1571 51.0201 40.1645 51.038 40.1721C51.1305 40.2235 51.1981 40.2883 51.2751 40.3608C51.4248 40.4996 51.5795 40.6264 51.7424 40.7493C51.7855 40.7823 51.8286 40.8154 51.8716 40.8485C51.9193 40.8851 51.9669 40.9217 52.0146 40.9583C52.0372 40.9757 52.0598 40.9931 52.0831 41.011C52.1894 41.0923 52.2962 41.1722 52.4058 41.249C52.4368 41.2715 52.4678 41.294 52.4997 41.3172C52.4997 41.3277 52.4997 41.3381 52.4997 41.3488C51.2692 41.3502 50.0387 41.3514 48.8081 41.352C48.6624 41.3521 48.5166 41.3522 48.3709 41.3523C48.3273 41.3523 48.3273 41.3523 48.2829 41.3523C47.8151 41.3526 47.3472 41.3531 46.8794 41.3537C46.3982 41.3543 45.917 41.3546 45.4358 41.3547C45.1397 41.3548 44.8435 41.3551 44.5473 41.3556C44.3434 41.3559 44.1394 41.356 43.9355 41.356C43.8183 41.3559 43.7012 41.356 43.5841 41.3563C42.8258 41.3584 42.0612 41.3462 41.3121 41.2167C41.2519 41.2066 41.2519 41.2066 41.1906 41.1962C40.3407 41.0476 39.5034 40.8081 38.7109 40.4653C38.686 40.4547 38.661 40.444 38.6354 40.4331C37.4638 39.9301 36.383 39.2167 35.4567 38.3404C35.3942 38.2825 35.3323 38.2279 35.2665 38.1742C35.1931 38.1124 35.1332 38.054 35.0724 37.9805C34.9916 37.8855 34.9074 37.7972 34.818 37.7103C34.6613 37.5555 34.525 37.3875 34.3881 37.2153C34.3581 37.179 34.3581 37.179 34.3274 37.142C34.0124 36.7585 33.7338 36.3435 33.473 35.9216C33.4546 35.8921 33.4546 35.8921 33.4359 35.8621C32.6125 34.5358 32.1465 33.0409 31.9269 31.5041C31.9215 31.4674 31.9215 31.4674 31.9159 31.4298C31.6157 29.3502 31.987 27.0335 32.9366 25.1619C32.9518 25.1319 32.9669 25.1019 32.9825 25.071C33.0353 24.967 33.0884 24.8633 33.1417 24.7596C33.1586 24.7267 33.1754 24.6938 33.1928 24.6599C33.2924 24.4685 33.3991 24.2848 33.517 24.1039C33.568 24.0254 33.6173 23.946 33.6663 23.8662C33.9894 23.3598 34.3619 22.8999 34.7656 22.4563C34.823 22.3927 34.8788 22.3281 34.9343 22.2629C35.1515 22.0139 35.3898 21.7686 35.6502 21.5648C35.671 21.5648 35.6919 21.5648 35.7133 21.5648C35.7289 21.518 35.7289 21.518 35.7449 21.4702C35.7981 21.4201 35.7981 21.4201 35.8711 21.3637C35.8995 21.3416 35.9279 21.3196 35.9571 21.2969C35.9733 21.2845 35.9895 21.2721 36.0062 21.2593C36.0668 21.2128 36.1271 21.1658 36.1874 21.1189C36.4434 20.9202 36.7013 20.7284 36.9755 20.5551C36.9945 20.5429 37.0135 20.5306 37.033 20.518C38.334 19.6822 39.7804 19.1382 41.3022 18.8749C41.3292 18.8701 41.3562 18.8653 41.384 18.8604C42.0291 18.7557 42.6781 18.7474 43.3298 18.7492Z" fill="white"/>
<path d="M124.536 18.7559C126.087 18.7559 127.639 18.7559 129.237 18.7559C129.237 26.2113 129.237 33.6667 129.237 41.3481C127.686 41.3481 126.134 41.3481 124.536 41.3481C124.536 33.8927 124.536 26.4372 124.536 18.7559Z" fill="white"/>
<path d="M5.5796 10.0474C5.61925 10.0648 5.61925 10.0648 5.65971 10.0826C5.88418 10.186 6.0879 10.3266 6.27377 10.4891C6.27377 10.51 6.27377 10.5308 6.27377 10.5523C6.29199 10.5601 6.31022 10.5679 6.32899 10.5759C6.41038 10.6211 6.46502 10.6717 6.5262 10.7416C6.5262 10.7624 6.5262 10.7832 6.5262 10.8047C6.54702 10.8047 6.56785 10.8047 6.58931 10.8047C7.08651 11.3556 7.30713 12.1275 7.2894 12.858C7.24861 13.4944 7.11147 14.1539 6.68397 14.6542C6.66314 14.6542 6.64232 14.6542 6.62086 14.6542C6.6124 14.6724 6.60394 14.6906 6.59522 14.7094C6.55683 14.7822 6.51663 14.8442 6.46309 14.9066C6.44227 14.9066 6.42144 14.9066 6.39999 14.9066C6.39999 14.9274 6.39999 14.9483 6.39999 14.9697C6.33415 15.0278 6.26828 15.0819 6.19883 15.1354C6.17853 15.1511 6.15823 15.1667 6.13731 15.1829C5.75987 15.4706 5.32913 15.6887 4.85387 15.7586C4.8306 15.762 4.80734 15.7655 4.78337 15.769C3.97712 15.8678 3.17924 15.7358 2.5204 15.2478C2.4451 15.1879 2.37153 15.1265 2.29804 15.0644C2.27437 15.0477 2.2507 15.031 2.22631 15.0137C2.20833 14.9992 2.19035 14.9847 2.17183 14.9697C2.17183 14.9489 2.17183 14.9281 2.17183 14.9066C2.15446 14.9006 2.13709 14.8946 2.1192 14.8884C2.0128 14.8235 1.9496 14.7301 1.87799 14.6305C1.86273 14.6094 1.84748 14.5883 1.83176 14.5666C1.33171 13.8582 1.20058 13.0271 1.32999 12.1797C1.47246 11.4297 1.90399 10.7469 2.53075 10.3077C3.41003 9.7155 4.61304 9.58489 5.5796 10.0474Z" fill="white"/>
</g>
<defs>
<clipPath id="clip0_6995_1608">
<rect width="129.243" height="52" fill="white" transform="translate(0.965332 0.957031)"/>
</clipPath>
</defs>
</svg>
