<svg width="62" height="53" viewBox="0 0 62 53" fill="none" xmlns="http://www.w3.org/2000/svg">
<path fill-rule="evenodd" clip-rule="evenodd" d="M25.5151 1.01562H28.4562L30.0762 4.63665C31.9408 4.8927 33.7755 5.38301 35.5356 6.10316L38.6758 3.7225L41.223 5.19309L40.8137 9.15531C42.2983 10.308 43.6374 11.6459 44.7961 13.1404L48.72 12.647L50.1906 15.1941L47.8487 18.4297C48.3302 19.6104 48.7105 20.8297 48.9855 22.0744H45.3593C43.2152 13.9483 35.8148 7.95673 27.0151 7.95673C16.5379 7.95673 8.04447 16.4502 8.04447 26.9273C8.04447 37.4045 16.5379 45.8979 27.0151 45.8979L27.0151 49.4275C24.0926 49.4275 21.2132 48.8583 18.5327 47.7673L15.4131 50.1324L12.8659 48.6618L13.2709 44.7417C11.7574 43.5741 10.4038 42.222 9.23914 40.7212L5.36892 41.2078L3.89833 38.6606L6.2027 35.477C5.47335 33.7016 4.97809 31.8499 4.72142 29.9678L1.13269 28.4567L1.13269 25.5156L4.71809 23.9116C4.78021 23.4524 4.85662 22.9943 4.94739 22.5379C5.23038 21.1152 5.64881 19.7303 6.19329 18.4008L3.83951 15.296L5.3101 12.7489L9.22404 13.1532C9.80326 12.4051 10.4312 11.6915 11.1052 11.0175C11.7823 10.3404 12.4995 9.70968 13.2515 9.12818L12.7641 5.25185L15.3112 3.78126L18.5102 6.09675C19.8331 5.55662 21.2106 5.14122 22.6255 4.85978C23.0797 4.76943 23.5356 4.69332 23.9926 4.63136L25.5151 1.01562Z" fill="#421F49"/>
<path fill-rule="evenodd" clip-rule="evenodd" d="M41.4191 17.3036C42.4052 18.7794 43.1531 20.3895 43.645 22.0751H40.9326C38.9264 16.3213 33.4529 12.1928 27.0151 12.1928C18.8771 12.1928 12.2798 18.79 12.2798 26.9281C12.2798 35.0563 18.8611 41.6474 26.9856 41.6634V41.6633H59.1729L57.6786 44.2516L27.0151 44.2516L26.9988 44.2515H26.9856V44.2515C23.5696 44.2457 20.2313 43.2301 17.3906 41.332C14.5418 39.4285 12.3214 36.7229 11.0102 33.5575C9.69903 30.392 9.35597 26.9088 10.0244 23.5484C10.6928 20.1879 12.3427 17.1012 14.7655 14.6784C17.1882 12.2557 20.275 10.6058 23.6354 9.93737C26.9958 9.26893 30.479 9.612 33.6445 10.9232C36.81 12.2344 39.5155 14.4548 41.4191 17.3036Z" fill="#963220"/>
<path fill-rule="evenodd" clip-rule="evenodd" d="M38.0443 19.5583C38.5744 20.3517 39.0146 21.1957 39.3602 22.0748H37.314C35.4924 18.2157 31.5656 15.5454 27.0151 15.5454C20.7288 15.5454 15.6327 20.6415 15.6327 26.9278C15.6327 33.2103 20.7225 38.3039 27.0035 38.3101H61.1087L60.0219 40.1925L27.0151 40.1925L27.0028 40.1925H26.9857V40.1925C24.3724 40.1867 21.8188 39.4091 19.6456 37.957C17.4642 36.4995 15.7641 34.4278 14.7601 32.004C13.7561 29.5802 13.4934 26.9131 14.0052 24.34C14.5171 21.7669 15.7804 19.4033 17.6355 17.5482C19.4906 15.6931 21.8542 14.4298 24.4273 13.918C27.0004 13.4061 29.6675 13.6688 32.0913 14.6728C34.5151 15.6768 36.5867 17.377 38.0443 19.5583Z" fill="#8B8B8B"/>
<path d="M26.2252 32.8433L25.1189 31.5798L30.3427 26.2114L30.3573 26.1895L29.3023 26.1019V24.8164H33.6908V26.1019L32.6871 26.2991L26.2252 32.8433ZM23.3972 35.4508V34.1726L24.5328 33.9535V26.321L23.3972 26.1019V24.8164H27.7564V26.1019L26.6721 26.321V33.9535L27.7564 34.1726V35.4508H23.3972ZM29.5368 35.4508V34.1726L30.5331 34.085H30.5405L27.8297 30.36L29.2437 28.9504L33.0241 33.99L34.0718 34.1726V35.4508H29.5368Z" fill="white"/>
<path d="M57.1685 35.6043C56.1331 35.6043 55.2319 35.39 54.4651 34.9615C53.6982 34.5282 53.1048 33.9171 52.6848 33.1283C52.2696 32.3346 52.062 31.3972 52.062 30.3163V29.9584C52.062 28.9261 52.2623 28.0131 52.6628 27.2194C53.0682 26.4209 53.6445 25.7952 54.3918 25.3423C55.1391 24.8895 56.028 24.6631 57.0586 24.6631C57.7815 24.6631 58.458 24.7653 59.088 24.9698C59.723 25.1744 60.2896 25.486 60.7878 25.9047V28.4757H59.1979L58.9781 26.8615C58.817 26.7447 58.6411 26.6449 58.4506 26.5621C58.2602 26.4793 58.0526 26.416 57.8279 26.3722C57.6081 26.3284 57.3688 26.3065 57.1099 26.3065C56.5043 26.3065 55.9841 26.455 55.5494 26.752C55.1147 27.049 54.7801 27.4702 54.5457 28.0156C54.3161 28.556 54.2013 29.1988 54.2013 29.9438V30.3163C54.2013 31.0613 54.3234 31.7064 54.5676 32.2518C54.8119 32.7971 55.1586 33.2208 55.608 33.5227C56.0574 33.8197 56.5897 33.9682 57.2052 33.9682C57.5129 33.9682 57.8206 33.9341 58.1283 33.8659C58.4409 33.7929 58.7242 33.7004 58.9781 33.5884L59.1979 32.0911H60.7878V34.6329C60.3726 34.9055 59.8549 35.1368 59.2346 35.3267C58.6143 35.5117 57.9256 35.6043 57.1685 35.6043Z" fill="white"/>
<path d="M34.4248 35.4508V34.1726L35.5604 33.9535V26.321L34.4248 26.1019V24.8164H42.7037V27.6868H41.0625L40.9673 26.4598H37.6997V29.133H41.3116V30.7764H37.6997V33.8148H41.1431L41.2384 32.5439H42.8648V35.4508H34.4248Z" fill="white"/>
<path d="M43.2178 35.4508V34.1726L44.3534 33.9535V26.321L43.2178 26.1019V24.8164H51.7091V27.7306H50.068L49.9727 26.4598H46.4927V29.3886H50.2292V31.032H46.4927V33.9535L47.6356 34.1726V35.4508H43.2178Z" fill="white"/>
</svg>
