<svg width="237" height="64" viewBox="0 0 237 64" fill="none" xmlns="http://www.w3.org/2000/svg">
<g clip-path="url(#clip0_770_219)">
<path d="M69.46 35.4109H72.2207V36.5632C72.8951 35.8316 73.6326 35.1914 75.0657 35.1914C77.152 35.1914 78.3322 36.3437 78.3322 38.3192V43.7699H75.5715V39.124C75.5715 37.9716 74.9814 37.4595 73.9066 37.4595C72.8108 37.4595 72.2417 38.0448 72.2417 39.124V43.7699H69.481V35.4109H69.46Z" fill="white"/>
<path d="M91.04 39.6178C91.04 37.2217 92.9578 35.1914 95.8028 35.1914C99.0693 35.1914 100.481 37.368 100.481 39.7641C100.481 39.9836 100.481 40.2031 100.481 40.4226H93.8008C94.0536 41.5201 94.9809 42.0871 96.14 42.0871C97.0673 42.0871 97.7205 41.8676 98.4792 41.2091L100.06 42.4346C99.1325 43.3857 97.8891 44.0259 96.14 44.0259C93.1264 43.9711 91.04 42.2334 91.04 39.6178ZM97.8048 38.9593C97.6363 37.8619 96.8776 37.1485 95.8028 37.1485C94.6226 37.1485 93.9694 37.8802 93.7165 38.9593H97.8048Z" fill="white"/>
<path d="M113.695 41.4287V37.4413H112.515V35.411H113.695V33.2344H116.456V35.411H118.71V37.4413H116.456V40.9897C116.456 41.575 116.708 41.7945 117.383 41.7945C117.889 41.7945 118.31 41.6482 118.71 41.5019V43.459C118.12 43.7517 117.446 43.9712 116.54 43.9712C114.875 43.898 113.695 43.3127 113.695 41.4287Z" fill="white"/>
<path d="M130.744 35.4102H133.505L135.022 40.495L136.856 35.4102H139.195L141.028 40.495L142.63 35.4102H145.37L142.377 43.824H139.869L138.015 38.6659L136.181 43.824H133.673L130.744 35.4102Z" fill="white"/>
<path d="M156.918 39.6178C156.918 37.1485 159.173 35.1914 162.187 35.1914C165.2 35.1914 167.371 37.1485 167.371 39.5447C167.371 41.9408 165.116 43.8979 162.102 43.8979C159.089 43.9711 156.918 42.0871 156.918 39.6178ZM164.61 39.6178C164.61 38.3923 163.598 37.2949 162.102 37.2949C160.522 37.2949 159.594 38.3192 159.594 39.5447C159.594 40.7701 160.606 41.8676 162.102 41.8676C163.683 41.9408 164.61 40.8433 164.61 39.6178Z" fill="white"/>
<path d="M180.079 35.4131H182.84V37.0775C183.43 35.9252 184.252 35.1936 185.938 35.2667V37.736H185.769C183.936 37.736 182.84 38.6872 182.84 40.7174V43.8452H180.079V35.4131Z" fill="white"/>
<path d="M198.371 32.3555H201.048V38.4464L204.314 35.4101H207.581L203.893 38.6658L207.749 43.7507H204.567L202.059 40.3486L201.048 41.2083V43.7507H198.371V32.3555Z" fill="white"/>
<path d="M219.023 42.6735L220.204 41.0821C221.215 41.7406 222.374 42.1064 223.217 42.1064C223.976 42.1064 224.397 41.8869 224.397 41.448C224.397 40.9358 223.47 40.7895 222.395 40.4968C221.068 40.131 219.55 39.6189 219.55 37.9544C219.55 36.2899 221.131 35.2656 223.07 35.2656C224.334 35.2656 225.662 35.6314 226.673 36.2168L225.577 37.8812C224.65 37.3691 223.66 37.0764 222.985 37.0764C222.311 37.0764 221.974 37.2959 221.974 37.6617C221.974 38.1007 222.901 38.3202 223.892 38.686C225.219 39.0518 226.821 39.6372 226.821 41.1553C226.821 43.0393 225.24 43.8441 223.133 43.8441C221.784 43.9721 220.288 43.5331 219.023 42.6735Z" fill="white"/>
<path d="M69.5449 0.511719H75.3192L84.7605 13.2056L94.2228 0.511719H99.976V27.3628H94.56V8.04759L84.7605 20.7598H84.5919L74.8978 8.12075V27.3628H69.5449V0.511719Z" fill="white"/>
<path d="M117.13 0.292969H122.146L135.781 27.3636H130.007L126.825 20.9069H112.199L109.017 27.3636H103.411L117.13 0.292969ZM124.991 16.6817L119.638 5.94487L114.285 16.6817H124.991Z" fill="white"/>
<path d="M139.363 0.511719H153.167C157.087 0.511719 160.1 1.53601 162.102 3.20049C163.767 4.64547 164.694 6.67577 164.694 8.99872V9.07188C164.694 13.4983 161.597 16.1139 157.34 17.1931L165.706 27.3445H159.278L151.671 17.9796H144.821V27.3445H139.384V0.511719H139.363ZM152.809 13.7909C156.728 13.7909 159.152 12.0533 159.152 9.29137V9.21821C159.152 6.30995 156.728 4.7918 152.724 4.7918H144.779V13.7909H152.809Z" fill="white"/>
<path d="M168.193 14.0109V13.9377C168.193 6.31037 174.79 0 184.168 0C189.858 0 193.356 1.73764 196.285 4.20692L192.766 7.6822C190.258 5.6519 187.666 4.35324 184.062 4.35324C178.204 4.35324 173.862 8.56016 173.862 13.8645V13.9377C173.862 19.2421 178.119 23.449 184.062 23.449C187.898 23.449 190.342 22.1503 192.913 19.9737L196.433 23.0283C193.166 25.9366 189.668 27.8205 183.894 27.8205C174.979 27.7839 168.193 21.6931 168.193 14.0109Z" fill="white"/>
<path d="M200.479 0.511719H205.895V11.6875H220.71V0.511719H226.126V27.3628H220.71V16.0407H205.895V27.3628H200.479V0.511719Z" fill="white"/>
<path d="M232.153 1.8125H233.565C233.986 1.8125 234.324 1.88566 234.492 2.10516C234.661 2.25148 234.745 2.47097 234.745 2.69047C234.745 3.12945 234.408 3.4221 233.986 3.56843L234.829 4.59272H234.155L233.396 3.64159H232.722V4.57443H232.132L232.153 1.8125ZM233.586 3.20261C234.007 3.20261 234.26 2.98312 234.26 2.76363C234.26 2.47097 234.007 2.32465 233.586 2.32465H232.743V3.27578H233.586V3.20261Z" fill="white"/>
<path d="M233.417 6.45863C231.415 6.45863 229.813 5.08681 229.813 3.33088C229.813 1.59324 231.394 0.203125 233.417 0.203125C235.44 0.203125 237.021 1.57495 237.021 3.33088C237 5.01364 235.419 6.45863 233.417 6.45863ZM233.417 0.587235C231.668 0.587235 230.235 1.81273 230.235 3.34917C230.235 4.88561 231.647 6.1111 233.417 6.1111C235.187 6.1111 236.599 4.88561 236.599 3.34917C236.578 1.81273 235.166 0.587235 233.417 0.587235Z" fill="white"/>
<mask id="mask0_770_219" style="mask-type:luminance" maskUnits="userSpaceOnUse" x="16" y="4" width="26" height="31">
<path d="M16.0586 28.4443L20.8214 34.0962L41.7058 9.65953L36.8588 4.0625L16.0586 28.4443Z" fill="white"/>
</mask>
<g mask="url(#mask0_770_219)">
<path d="M41.7269 4.0625H16.0586V34.0962H41.7269V4.0625Z" fill="white"/>
</g>
<mask id="mask1_770_219" style="mask-type:luminance" maskUnits="userSpaceOnUse" x="16" y="0" width="18" height="16">
<path d="M23.9825 0.367188L16.0586 9.65899L20.9057 15.3109L33.6134 0.367188H23.9825Z" fill="white"/>
</mask>
<g mask="url(#mask1_770_219)">
<path d="M33.6134 0.367188H16.0586V15.3109H33.6134V0.367188Z" fill="white"/>
</g>
<mask id="mask2_770_219" style="mask-type:luminance" maskUnits="userSpaceOnUse" x="23" y="0" width="35" height="44">
<path d="M40.0409 0.367188L47.9859 9.65899L23.9824 37.8087L28.8506 43.4606L57.5957 9.65899L49.735 0.367188H40.0409Z" fill="white"/>
</mask>
<g mask="url(#mask2_770_219)">
<path d="M57.5957 0.367188H23.9824V43.3875H57.5957V0.367188Z" fill="white"/>
</g>
<mask id="mask3_770_219" style="mask-type:luminance" maskUnits="userSpaceOnUse" x="0" y="0" width="18" height="25">
<path d="M7.94496 0.367188L0 9.65899L12.8763 24.6758L17.6391 19.0788L9.60982 9.65899L17.5548 0.367188H7.94496Z" fill="white"/>
</mask>
<g mask="url(#mask3_770_219)">
<path d="M17.6391 0.367188H0V24.6758H17.6391V0.367188Z" fill="white"/>
</g>
<path d="M79.0912 61.53H76.9206L76.0776 59.5728H72.1578L71.3149 61.53H69.2285L73.064 53.043H75.1504L79.0912 61.53ZM75.4032 58.1096L74.0756 54.9086L72.7479 58.1096H75.4032Z" fill="white"/>
<path d="M83.4323 53.043H87.0359C87.8789 53.043 88.4479 53.1161 88.8694 53.1893C89.4595 53.3356 89.9653 53.6283 90.3657 53.9941C90.7871 54.3599 91.1243 54.8721 91.2929 55.3659C91.5458 55.8781 91.6301 56.5914 91.6301 57.3962C91.6301 58.1278 91.5458 58.6949 91.2929 59.207C91.04 59.8655 90.7028 60.3045 90.1971 60.7252C89.8599 61.0178 89.3541 61.2373 88.7851 61.3836C88.3636 61.53 87.7735 61.53 87.0359 61.53H83.2637V53.043H83.4323ZM85.35 54.4148V60.0667H86.8463C87.4364 60.0667 87.7735 60.0667 88.0264 59.9935C88.3636 59.9204 88.6165 59.774 88.8694 59.6277C89.1223 59.4814 89.2909 59.1887 89.3752 58.8229C89.4595 58.4571 89.5438 57.9449 89.5438 57.3048C89.5438 56.6463 89.4595 56.1524 89.3752 55.7866C89.2909 55.4208 89.038 55.1281 88.7851 54.9818C88.5322 54.7623 88.195 54.616 87.8578 54.5428C87.6049 54.4697 87.0149 54.4697 86.2773 54.4697H85.35V54.4148Z" fill="white"/>
<path d="M97.3831 59.5718L99.2166 59.8645C98.9637 60.4498 98.6265 60.8888 98.0364 61.2363C97.5307 61.5289 96.8563 61.6753 96.1187 61.6753C94.8542 61.6753 93.948 61.3094 93.358 60.651C92.8522 60.0657 92.6836 59.4255 92.6836 58.5475C92.6836 57.5232 93.0208 56.7367 93.6109 56.1514C94.2009 55.5661 95.0228 55.2734 95.9501 55.2734C97.0459 55.2734 97.8678 55.5661 98.4579 56.2246C99.048 56.8099 99.3852 57.7427 99.3009 58.9865H94.6224C94.6224 59.4986 94.791 59.8645 95.0439 60.1388C95.2968 60.4315 95.7183 60.5778 96.1398 60.5778C96.4769 60.5778 96.6455 60.5046 96.8984 60.3583C97.1513 60.084 97.2988 59.8645 97.3831 59.5718ZM97.4674 57.9073C97.4674 57.3952 97.2988 57.1025 97.0459 56.8099C96.7931 56.5904 96.4559 56.4441 96.0344 56.4441C95.6129 56.4441 95.2757 56.5904 95.0228 56.8099C94.7699 57.1025 94.6013 57.3952 94.6013 57.9073H97.4674Z" fill="white"/>
<path d="M100.903 61.53V53.043H102.737V61.53H100.903Z" fill="white"/>
<path d="M107.921 55.367V56.6656H106.656V59.1349C106.656 59.6471 106.656 59.9397 106.656 60.0129C106.656 60.086 106.741 60.1592 106.825 60.2324C106.909 60.3055 106.993 60.3055 107.162 60.3055C107.331 60.3055 107.583 60.2324 107.921 60.1592L108.089 61.3847C107.668 61.531 107.162 61.6042 106.593 61.6042C106.256 61.6042 105.919 61.531 105.666 61.4579C105.413 61.3847 105.16 61.2384 105.076 61.092C104.907 60.9457 104.823 60.7262 104.823 60.4336C104.823 60.2141 104.738 59.8483 104.738 59.2812V56.5925H103.896V55.2938H104.738V54.0683L106.656 53.1172V55.2938H107.921V55.367Z" fill="white"/>
<path d="M110.681 57.249L109.017 56.9564C109.185 56.3711 109.522 55.9321 110.028 55.6577C110.534 55.3834 111.208 55.2188 112.114 55.2188C112.957 55.2188 113.526 55.2919 113.948 55.5114C114.369 55.6577 114.622 55.8772 114.791 56.1699C114.959 56.4625 115.044 56.9015 115.044 57.6149V59.4988C115.044 60.011 115.044 60.45 115.128 60.7243C115.212 60.9987 115.297 61.2365 115.465 61.5291H113.632C113.548 61.456 113.548 61.2365 113.463 61.017C113.463 60.9438 113.379 60.8707 113.379 60.7975C113.042 61.0901 112.705 61.3096 112.367 61.3828C112.03 61.5291 111.609 61.6023 111.187 61.6023C110.429 61.6023 109.86 61.456 109.438 61.0901C109.017 60.7243 108.764 60.2853 108.764 59.7915C108.764 59.4257 108.848 59.133 109.017 58.8404C109.185 58.5477 109.522 58.3282 109.86 58.1819C110.197 58.0356 110.703 57.8892 111.356 57.8161C112.283 57.6697 112.852 57.5234 113.189 57.3771V57.249C113.189 56.9564 113.105 56.7369 112.936 56.5906C112.768 56.4442 112.431 56.3711 111.925 56.3711C111.588 56.3711 111.335 56.4442 111.166 56.5174C110.934 56.7369 110.766 56.9564 110.681 57.249ZM113.189 58.5477C112.936 58.6209 112.599 58.694 112.009 58.7672C111.503 58.8404 111.166 58.9867 110.998 59.0598C110.745 59.2062 110.66 59.4257 110.66 59.6452C110.66 59.8647 110.745 60.0841 110.998 60.2305C111.166 60.3768 111.419 60.45 111.756 60.45C112.093 60.45 112.431 60.3768 112.768 60.1573C113.021 60.011 113.189 59.7915 113.189 59.6452C113.274 59.4988 113.274 59.2062 113.274 58.8404V58.5477H113.189Z" fill="white"/>
<path d="M125.223 58.403V56.958H129.48V60.3601C129.058 60.7259 128.468 61.0186 127.646 61.3112C126.824 61.6039 126.066 61.677 125.223 61.677C124.211 61.677 123.305 61.4575 122.546 61.0917C121.788 60.7259 121.219 60.2138 120.797 59.5004C120.376 58.7871 120.207 58.0554 120.207 57.2506C120.207 56.3727 120.46 55.5862 120.881 54.8545C121.303 54.1229 121.977 53.629 122.715 53.2632C123.389 52.9706 124.127 52.8242 125.054 52.8242C126.319 52.8242 127.225 53.0437 127.899 53.4827C128.573 53.9217 128.995 54.5801 129.227 55.2935L127.225 55.5862C127.056 55.1472 126.803 54.8545 126.466 54.5619C126.045 54.3424 125.623 54.196 125.054 54.196C124.211 54.196 123.474 54.4155 122.968 54.9277C122.462 55.4398 122.209 56.08 122.209 57.0311C122.209 58.0554 122.462 58.7688 122.968 59.2809C123.474 59.7931 124.148 60.0126 124.97 60.0126C125.391 60.0126 125.813 59.9394 126.234 59.7931C126.656 59.6467 126.993 59.5004 127.33 59.2809V58.1835H125.244V58.403H125.223Z" fill="white"/>
<path d="M133.167 61.5291H131.334V55.3651H133.083V56.243C133.42 55.8041 133.673 55.5846 133.926 55.4382C134.179 55.2919 134.432 55.2188 134.769 55.2188C135.191 55.2188 135.612 55.2919 136.034 55.5114L135.443 56.9564C135.106 56.8101 134.853 56.6637 134.516 56.6637C134.263 56.6637 134.01 56.7369 133.842 56.8832C133.673 57.0296 133.505 57.249 133.42 57.5417C133.336 57.9075 133.252 58.566 133.252 59.572V61.5291H133.167Z" fill="white"/>
<path d="M136.266 58.3311C136.266 57.8189 136.434 57.2336 136.771 56.7398C137.109 56.2276 137.53 55.8618 138.099 55.5874C138.689 55.2948 139.279 55.1484 140.017 55.1484C141.113 55.1484 141.935 55.4411 142.693 56.0996C143.368 56.6849 143.705 57.4714 143.705 58.4225C143.705 59.3736 143.368 60.1602 142.693 60.7455C142.019 61.3308 141.113 61.6966 140.101 61.6966C139.427 61.6966 138.837 61.5503 138.268 61.3308C137.678 61.1113 137.256 60.6723 136.94 60.2333C136.35 59.648 136.266 59.0627 136.266 58.3311ZM138.183 58.4042C138.183 58.9895 138.352 59.5017 138.689 59.776C139.026 60.0687 139.448 60.2882 139.954 60.2882C140.459 60.2882 140.881 60.1419 141.218 59.776C141.555 59.4102 141.724 58.9712 141.724 58.3311C141.724 57.7457 141.555 57.2336 141.218 56.9592C140.881 56.6849 140.459 56.4471 139.954 56.4471C139.448 56.4471 139.026 56.5934 138.689 56.9592C138.352 57.3982 138.183 57.8372 138.183 58.4042Z" fill="white"/>
<path d="M149.732 61.5291V60.578C149.479 60.9438 149.142 61.1633 148.72 61.3828C148.299 61.6023 147.877 61.6755 147.393 61.6755C146.887 61.6755 146.465 61.6023 146.128 61.3828C145.707 61.1633 145.454 60.9438 145.285 60.578C145.117 60.2122 145.032 59.7732 145.032 59.2062V55.2919H146.866V58.127C146.866 59.005 146.866 59.4988 146.95 59.7183C147.034 59.9378 147.119 60.0841 147.371 60.1573C147.624 60.2305 147.793 60.3036 148.046 60.3036C148.383 60.3036 148.636 60.2305 148.889 60.0841C149.142 59.9378 149.31 59.7183 149.395 59.4988C149.479 59.2793 149.563 58.694 149.563 57.8344V55.2188H151.397V61.3828H149.732V61.5291Z" fill="white"/>
<path d="M153.314 55.3651H155.064V56.243C155.316 55.9504 155.569 55.6577 155.991 55.5114C156.412 55.3651 156.834 55.2188 157.255 55.2188C158.098 55.2188 158.752 55.5114 159.342 56.0967C159.932 56.682 160.185 57.4685 160.185 58.4197C160.185 59.444 159.932 60.2305 159.342 60.8158C158.752 61.4011 158.077 61.6937 157.255 61.6937C156.834 61.6937 156.497 61.6206 156.159 61.4743C155.822 61.3279 155.485 61.1084 155.148 60.7426V63.8704H153.314V55.3651ZM155.253 58.3282C155.253 59.0598 155.422 59.5537 155.759 59.8464C156.096 60.2122 156.433 60.3585 156.939 60.3585C157.361 60.3585 157.782 60.2122 158.035 59.9195C158.288 59.6269 158.457 59.1147 158.457 58.4014C158.457 57.7429 158.288 57.249 158.035 56.9564C157.698 56.6637 157.361 56.5174 156.939 56.5174C156.518 56.5174 156.096 56.6637 155.759 56.9564C155.316 57.249 155.253 57.7612 155.253 58.3282Z" fill="white"/>
<path d="M171.881 58.404L173.799 58.9162C173.462 59.8673 173.04 60.5075 172.302 61.0196C171.628 61.4586 170.722 61.6781 169.71 61.6781C168.383 61.6781 167.371 61.3123 166.528 60.5258C165.685 59.721 165.264 58.715 165.264 57.3248C165.264 55.8799 165.685 54.7824 166.528 54.0508C167.371 53.3191 168.446 52.8984 169.879 52.8984C171.059 52.8984 172.05 53.1911 172.808 53.8496C173.23 54.2154 173.567 54.7275 173.82 55.4409L171.902 55.8799C171.818 55.4409 171.565 55.0751 171.143 54.8556C170.806 54.5629 170.3 54.4897 169.816 54.4897C169.057 54.4897 168.488 54.7092 168.067 55.1482C167.645 55.5872 167.392 56.3005 167.392 57.3248C167.392 58.4223 167.645 59.1356 168.067 59.6478C168.488 60.0868 169.078 60.3063 169.816 60.3063C170.321 60.3063 170.827 60.1599 171.143 59.8673C171.375 59.5015 171.712 58.9893 171.881 58.404Z" fill="white"/>
<path d="M175.062 58.3311C175.062 57.8189 175.231 57.2336 175.568 56.7398C175.905 56.2276 176.327 55.8618 176.896 55.5874C177.486 55.2948 178.076 55.1484 178.814 55.1484C179.91 55.1484 180.731 55.4411 181.49 56.0996C182.164 56.6849 182.502 57.4714 182.502 58.4225C182.502 59.3736 182.164 60.1602 181.49 60.7455C180.816 61.3308 179.91 61.6966 178.898 61.6966C178.224 61.6966 177.634 61.5503 177.065 61.3308C176.474 61.1113 176.053 60.6723 175.737 60.2333C175.147 59.648 175.062 59.0627 175.062 58.3311ZM176.98 58.4042C176.98 58.9895 177.149 59.5017 177.486 59.776C177.823 60.0687 178.245 60.2882 178.75 60.2882C179.256 60.2882 179.678 60.1419 180.015 59.776C180.352 59.4102 180.521 58.9712 180.521 58.3311C180.521 57.7457 180.352 57.2336 180.015 56.9592C179.678 56.6849 179.256 56.4471 178.75 56.4471C178.245 56.4471 177.823 56.5934 177.486 56.9592C177.149 57.3982 176.98 57.8372 176.98 58.4042Z" fill="white"/>
<path d="M183.661 55.3651H185.41V56.243C186 55.5846 186.738 55.2188 187.581 55.2188C188.002 55.2188 188.424 55.2919 188.761 55.4382C189.098 55.5846 189.351 55.8772 189.604 56.1699C189.941 55.8041 190.278 55.5846 190.616 55.4382C190.953 55.2919 191.374 55.2188 191.796 55.2188C192.302 55.2188 192.807 55.2919 193.123 55.5114C193.461 55.7309 193.798 55.9504 193.966 56.3162C194.135 56.6089 194.135 56.9747 194.135 57.6149V61.5291H192.302V57.9807C192.302 57.3954 192.217 56.9564 192.133 56.8284C191.964 56.6089 191.711 56.4625 191.29 56.4625C191.037 56.4625 190.784 56.5357 190.531 56.682C190.278 56.8284 190.11 57.0478 190.026 57.2673C189.941 57.56 189.857 57.999 189.857 58.566V61.5474H188.023V58.1453C188.023 57.56 188.023 57.121 187.939 56.993C187.855 56.8649 187.771 56.7003 187.602 56.6272C187.433 56.554 187.265 56.4808 187.012 56.4808C186.759 56.4808 186.422 56.554 186.253 56.7003C186.085 56.8466 185.832 57.0661 185.747 57.2856C185.663 57.5783 185.579 57.9441 185.579 58.5843V61.5657H183.745V55.4017H183.661V55.3651Z" fill="white"/>
<path d="M195.947 55.3651H197.696V56.243C197.949 55.9504 198.202 55.6577 198.624 55.5114C199.045 55.3651 199.467 55.2188 199.888 55.2188C200.731 55.2188 201.384 55.5114 201.974 56.0967C202.565 56.682 202.817 57.4685 202.817 58.4197C202.817 59.444 202.565 60.2305 201.974 60.8158C201.384 61.4011 200.71 61.6937 199.888 61.6937C199.467 61.6937 199.129 61.6206 198.792 61.4743C198.455 61.3279 198.118 61.1084 197.781 60.7426V63.8704H195.947V55.3651ZM197.802 58.3282C197.802 59.0598 197.97 59.5537 198.308 59.8464C198.645 60.2122 198.982 60.3585 199.488 60.3585C199.909 60.3585 200.331 60.2122 200.584 59.9195C200.836 59.6269 201.005 59.1147 201.005 58.4014C201.005 57.7429 200.836 57.249 200.584 56.9564C200.246 56.6637 199.909 56.5174 199.488 56.5174C199.066 56.5174 198.645 56.6637 198.308 56.9564C197.97 57.249 197.802 57.7612 197.802 58.3282Z" fill="white"/>
<path d="M205.747 57.249L204.082 56.9564C204.251 56.3711 204.588 55.9321 205.094 55.6577C205.599 55.3651 206.274 55.2188 207.18 55.2188C208.023 55.2188 208.592 55.2919 209.013 55.5114C209.435 55.7309 209.688 55.8772 209.856 56.1699C210.025 56.4625 210.109 56.9015 210.109 57.6149V59.4988C210.109 60.011 210.109 60.45 210.194 60.7243C210.278 61.017 210.362 61.2365 210.531 61.5291H208.697C208.613 61.456 208.613 61.2365 208.529 61.017C208.529 60.9438 208.444 60.8707 208.444 60.7975C208.107 61.0901 207.77 61.3096 207.433 61.3828C207.096 61.5291 206.674 61.6023 206.253 61.6023C205.494 61.6023 204.925 61.456 204.503 61.0901C204.082 60.7243 203.829 60.2853 203.829 59.7915C203.829 59.4257 203.913 59.133 204.082 58.8404C204.251 58.5477 204.588 58.3282 204.925 58.1819C205.262 58.0356 205.768 57.8892 206.421 57.8161C207.264 57.6697 207.917 57.5234 208.255 57.3771V57.249C208.255 56.9564 208.17 56.7369 208.002 56.5906C207.833 56.4442 207.496 56.3711 206.99 56.3711C206.653 56.3711 206.4 56.4442 206.232 56.5174C206.063 56.5906 205.894 56.9564 205.747 57.249ZM208.255 58.5477C208.002 58.6209 207.665 58.694 207.075 58.7672C206.569 58.8404 206.232 58.9867 206.063 59.0598C205.81 59.2062 205.726 59.4257 205.726 59.6452C205.726 59.8647 205.81 60.0841 206.063 60.2305C206.232 60.3768 206.484 60.45 206.822 60.45C207.159 60.45 207.496 60.3768 207.833 60.1573C208.086 60.011 208.255 59.7915 208.255 59.6452C208.339 59.4988 208.339 59.2062 208.339 58.8404V58.5477H208.255Z" fill="white"/>
<path d="M218.434 61.5291H216.6V58.4014C216.6 57.7429 216.6 57.3039 216.516 57.1027C216.432 56.8832 216.263 56.7369 216.095 56.6637C215.926 56.5906 215.673 56.5174 215.42 56.5174C215.083 56.5174 214.83 56.5906 214.577 56.7369C214.324 56.8832 214.156 57.1027 214.071 57.3222C213.987 57.5417 213.903 58.0538 213.903 58.7672V61.5291H212.069V55.3651H213.818V56.243C214.409 55.5114 215.23 55.2188 216.158 55.2188C216.579 55.2188 216.916 55.2919 217.338 55.4382C217.675 55.5846 217.928 55.7309 218.097 55.9504C218.265 56.1699 218.434 56.3894 218.434 56.6089C218.518 56.9015 218.518 57.2673 218.518 57.7063V61.5474H218.434V61.5291Z" fill="white"/>
<path d="M219.445 55.3672H221.447L223.112 59.7204L224.777 55.3672H226.695L224.187 61.3117L223.766 62.4092C223.597 62.775 223.428 63.0677 223.26 63.214C223.091 63.4335 222.923 63.5798 222.754 63.653C222.585 63.7993 222.332 63.8725 221.995 63.9456C221.658 64.0188 221.405 64.0188 221.068 64.0188C220.731 64.0188 220.309 64.0188 219.972 63.9456L219.804 62.647C220.141 62.7201 220.394 62.7201 220.647 62.7201C221.068 62.7201 221.405 62.5738 221.658 62.3543C221.827 62.1348 221.995 61.8422 222.164 61.4764L219.445 55.3672Z" fill="white"/>
</g>
<defs>
<clipPath id="clip0_770_219">
<rect width="237" height="64" fill="white"/>
</clipPath>
</defs>
</svg>
