<svg width="81" height="53" viewBox="0 0 81 53" fill="none" xmlns="http://www.w3.org/2000/svg">
<g clip-path="url(#clip0_6995_1557)">
<path d="M65.7279 26.9017C65.7279 40.8785 54.3967 52.2096 40.4181 52.2096C26.4282 52.2096 15.1023 40.8785 15.1023 26.9017C15.1023 12.9219 26.4278 1.59863 40.4181 1.59863C54.3967 1.59863 65.7279 12.9219 65.7279 26.9017Z" fill="white"/>
<path d="M35.0784 5.26576C35.1009 5.33497 35.1099 5.42512 35.1099 5.5381C35.1099 5.65071 35.1009 5.75097 35.0758 5.83477C35.05 5.91707 35.0145 5.96383 34.9655 5.97169C34.4945 6.06708 34.0272 6.16959 33.566 6.28256C33.5188 6.29715 33.4919 6.33232 33.4919 6.39143C33.514 9.54996 33.5319 12.6976 33.5529 15.8521C33.5529 15.9014 33.4926 15.9437 33.3729 15.9725C33.2498 16.0021 33.1485 16.0197 33.0822 16.0197C32.9973 16.0197 32.9001 16.0125 32.7848 15.9968C32.6692 15.9837 32.6094 15.9516 32.6094 15.8984C32.5892 12.8129 32.5746 9.7299 32.557 6.64095C32.557 6.58484 32.5245 6.56501 32.4508 6.58746C32.0015 6.72101 31.5518 6.86205 31.1036 7.01954C30.9877 7.06107 30.9304 6.96866 30.9304 6.73859C30.9304 6.50029 30.9817 6.35888 31.089 6.31361C32.3453 5.83963 33.6337 5.46403 34.9393 5.18346C35.0145 5.17111 35.0582 5.19992 35.0784 5.26576Z" fill="#48312F"/>
<path d="M42.7072 15.9843C42.6099 16.009 42.5018 16.0195 42.3806 16.0195C42.2676 16.0195 42.1591 16.0094 42.0559 15.9843C41.9567 15.9619 41.9051 15.9278 41.9051 15.8893C41.9115 14.1535 41.9137 12.4214 41.9178 10.6852C41.9178 10.6107 41.8815 10.5733 41.8112 10.5733C41.2665 10.5587 40.7218 10.5565 40.1756 10.558C40.1248 10.5587 40.0986 10.5943 40.0986 10.6672C40.1023 12.3918 40.1023 14.1134 40.1023 15.8365C40.1023 15.8912 40.0552 15.936 39.9602 15.9693C39.8614 16.0015 39.7522 16.0191 39.6302 16.0191C39.5049 16.0191 39.3994 16.012 39.2995 15.9933C39.2022 15.9791 39.16 15.9432 39.16 15.8893C39.1457 12.1614 39.1416 8.44468 39.1289 4.71939C39.1289 4.68722 39.16 4.64906 39.2232 4.60903C39.2853 4.56526 39.4128 4.53982 39.6134 4.53795C39.7956 4.53047 39.9257 4.54618 39.9935 4.58359C40.0634 4.6225 40.0982 4.65991 40.0982 4.70106C40.0982 6.32877 40.0982 7.95461 40.0986 9.57821C40.0986 9.65939 40.13 9.69568 40.1902 9.69568C40.733 9.68969 41.2736 9.69568 41.8157 9.71251C41.8853 9.71251 41.9193 9.68221 41.9193 9.61711C41.9249 7.98566 41.9332 6.35009 41.9332 4.71901C41.9332 4.6917 41.9702 4.65691 42.054 4.62549C42.1292 4.58995 42.2526 4.57536 42.415 4.58995C42.7352 4.61053 42.8987 4.68684 42.8987 4.80581C42.8815 8.49855 42.8639 12.1819 42.8505 15.8758C42.8505 15.9267 42.8041 15.9622 42.7072 15.9843Z" fill="#48312F"/>
<path d="M50.0445 15.3004C50.0692 15.3382 50.0879 15.4335 50.0879 15.5896C50.0879 15.7388 50.0692 15.8316 50.0404 15.8769C50.0104 15.924 49.9738 15.9476 49.9341 15.9476C49.0382 15.9434 48.1422 15.9352 47.2473 15.9266C47.1654 15.9266 47.1269 15.8914 47.1306 15.8196C47.1512 12.4071 47.1751 8.99827 47.198 5.58572C47.198 5.49631 47.2436 5.46152 47.3341 5.48434C48.2092 5.71666 49.0651 5.99162 49.9136 6.3111C49.9622 6.32981 50.0003 6.37994 50.0273 6.45326C50.0602 6.52995 50.0696 6.61375 50.0696 6.70428C50.0696 6.78995 50.0602 6.86253 50.034 6.93136C50.0108 7.00244 49.9742 7.02826 49.9281 7.0118C49.3599 6.81128 48.7856 6.62685 48.205 6.46561C48.1426 6.45102 48.1171 6.47346 48.1171 6.53369C48.1066 7.76972 48.1007 9.008 48.0902 10.2463C48.0902 10.3061 48.1171 10.3394 48.1706 10.3484C48.7011 10.4322 49.2319 10.5272 49.7609 10.6357C49.7871 10.6428 49.8241 10.6675 49.8559 10.7173C49.8926 10.7633 49.9072 10.8665 49.9072 11.0237C49.9072 11.1815 49.8926 11.2747 49.8559 11.3106C49.8193 11.3506 49.7849 11.3633 49.7445 11.3562C49.2286 11.2661 48.7134 11.1879 48.1934 11.1097C48.1224 11.1007 48.0846 11.1359 48.0846 11.2137C48.0763 12.5032 48.0719 13.7969 48.0644 15.0886C48.0644 15.1608 48.101 15.1934 48.1706 15.1952C48.755 15.2072 49.3382 15.2289 49.9214 15.2416C49.9678 15.242 50.0105 15.2622 50.0445 15.3004Z" fill="#48312F"/>
<path d="M28.0079 33.9557C28.5021 33.9576 28.881 34.0725 29.1324 34.3078C29.3883 34.5494 29.5129 34.9366 29.5013 35.4746C29.4347 38.6619 29.3692 41.8466 29.3019 45.0287C29.2903 45.5768 29.1579 45.9195 28.9012 46.0542C28.6446 46.1896 28.2776 46.1294 27.8051 45.878C27.039 45.4612 26.2926 45.0112 25.5598 44.5271C25.4554 44.4556 25.4053 44.3711 25.4053 44.2704C25.4053 40.8702 25.4053 37.4682 25.4053 34.0657C25.4053 33.9827 25.4472 33.9441 25.5396 33.9464C26.3645 33.9516 27.1823 33.9539 28.0079 33.9557ZM28.4303 35.4114C28.4303 35.2479 28.3861 35.1068 28.2963 34.9954C28.2065 34.8786 28.0722 34.8184 27.8856 34.8128C27.4351 34.7907 26.9866 34.7739 26.5422 34.7548C26.4745 34.7511 26.4423 34.7817 26.4423 34.845C26.4172 37.9246 26.3899 41.0038 26.3641 44.0808C26.3641 44.181 26.4019 44.2443 26.4703 44.2873C26.8845 44.5207 27.3031 44.7456 27.7277 44.958C27.8983 45.0426 28.0303 45.0471 28.1205 44.9603C28.2122 44.8746 28.2585 44.7283 28.2627 44.5338C28.3169 41.4931 28.3697 38.4562 28.4303 35.4114Z" fill="#48312F"/>
<path d="M34.6396 33.8701C35.0452 33.8701 35.3142 33.9517 35.4548 34.1047C35.5985 34.2603 35.674 34.4436 35.6995 34.6546C35.6995 34.6823 35.7148 34.9079 35.7474 35.3224C35.7821 35.7365 35.8244 36.2748 35.8719 36.9355C35.9213 37.5962 35.9759 38.3417 36.0425 39.1752C36.1091 40.0084 36.1723 40.8639 36.2457 41.7371C36.3152 42.6143 36.3826 43.471 36.448 44.3143C36.5161 45.1541 36.5767 45.9057 36.6291 46.5742C36.6781 47.239 36.7211 47.7724 36.7499 48.1813C36.7806 48.5816 36.7963 48.7956 36.7963 48.8102C36.8098 48.8386 36.7773 48.8723 36.6953 48.912C36.6216 48.9475 36.472 48.9505 36.2591 48.9176C36.0455 48.8783 35.9037 48.8308 35.8375 48.7765C35.772 48.7212 35.7361 48.6804 35.7208 48.6471C35.7208 48.6366 35.7099 48.4746 35.6834 48.1769C35.6572 47.8731 35.631 47.5446 35.6003 47.1832C35.5727 46.8241 35.5438 46.4938 35.5188 46.1945C35.4911 45.8937 35.4799 45.7205 35.4799 45.6805C35.4705 45.5821 35.4294 45.5226 35.3602 45.5114C34.7728 45.4182 34.1825 45.3038 33.6008 45.1739C33.5076 45.1522 33.4552 45.1792 33.4384 45.2596C33.4384 45.2862 33.4197 45.4388 33.3767 45.7156C33.3367 45.9921 33.297 46.2947 33.2592 46.6251C33.2143 46.9543 33.1777 47.2596 33.1425 47.5446C33.1051 47.8263 33.0879 47.9722 33.0879 47.9864C33.0755 48.0246 33.0344 48.0504 32.9708 48.0751C32.9076 48.0957 32.7583 48.0684 32.5249 47.9924C32.2925 47.9172 32.1523 47.8499 32.0898 47.799C32.0325 47.7444 32.0138 47.7002 32.0284 47.6658C32.0284 47.6527 32.0494 47.4668 32.0887 47.1092C32.1332 46.7478 32.1923 46.2749 32.2712 45.6842C32.3442 45.0969 32.4276 44.4216 32.5196 43.6611C32.6102 42.8949 32.7052 42.1089 32.8021 41.2983C32.8997 40.4895 32.9958 39.6949 33.0935 38.9186C33.1904 38.1375 33.2712 37.4308 33.343 36.8068C33.413 36.1813 33.4732 35.6744 33.5188 35.2876C33.5675 34.9049 33.5922 34.695 33.5922 34.6707C33.6146 34.4384 33.7063 34.2457 33.8458 34.0991C33.9868 33.9505 34.2491 33.8701 34.6396 33.8701ZM35.236 44.3715C35.3295 44.385 35.3632 44.3229 35.3441 44.1803C35.3441 44.1609 35.3295 43.9884 35.3033 43.6543C35.2719 43.3188 35.2348 42.8886 35.1866 42.3663C35.1443 41.8403 35.0942 41.2586 35.0384 40.6241C34.9842 39.9863 34.9314 39.3672 34.8791 38.7663C34.8245 38.1648 34.7773 37.607 34.7407 37.1027C34.7021 36.5988 34.6748 36.2183 34.6569 35.9539C34.6479 35.8439 34.6333 35.793 34.6236 35.8087C34.6108 35.8233 34.5989 35.8671 34.5876 35.9539C34.5585 36.2146 34.5169 36.5917 34.4548 37.0885C34.3942 37.5846 34.3321 38.1236 34.2607 38.7099C34.1945 39.3009 34.1193 39.8976 34.0366 40.5089C33.9569 41.1202 33.8851 41.6701 33.8241 42.1714C33.765 42.6675 33.7089 43.0756 33.6711 43.3955C33.6299 43.7191 33.6064 43.8844 33.6064 43.9001C33.6064 44.0236 33.6415 44.092 33.7089 44.1051C34.2169 44.2024 34.7249 44.2971 35.236 44.3715Z" fill="#48312F"/>
<path d="M40.4621 49.2771C40.0753 49.2737 39.8811 49.2019 39.8811 49.0736C39.892 44.0846 39.9039 39.0967 39.9088 34.1144C39.9088 34.0549 39.9511 34.0025 40.0326 33.9517C40.1101 33.8971 40.2492 33.8701 40.4438 33.8701C40.6402 33.8701 40.7797 33.8971 40.8669 33.9517C40.9518 34.0025 40.9959 34.0545 40.9959 34.1144C41.0042 39.0884 41.0131 44.0576 41.0214 49.0294C41.0214 49.1903 40.8336 49.2771 40.4621 49.2771Z" fill="#48312F"/>
<path d="M48.5127 39.8344C48.5139 40.0481 48.4592 40.2785 48.3425 40.5243C48.2258 40.7663 48.0492 40.91 47.818 40.9493C48.0492 40.9104 48.2277 40.9792 48.353 41.1434C48.4765 41.3148 48.5401 41.4936 48.5505 41.693C48.5917 43.6989 48.6302 45.7067 48.6747 47.7096C48.6747 47.8589 48.5023 47.9925 48.1544 48.1006C47.9912 48.1563 47.8603 48.172 47.7477 48.1586C47.6426 48.1563 47.5887 48.1099 47.5865 48.0426C47.5524 46.015 47.5094 43.9866 47.4724 41.9605C47.4698 41.8505 47.4529 41.7603 47.4219 41.6926C47.3957 41.6211 47.3149 41.5983 47.1858 41.6148C46.6523 41.6945 46.1129 41.7644 45.5757 41.8224C45.4964 41.8351 45.4575 41.8744 45.4575 41.9432C45.4881 44.1445 45.5203 46.3374 45.554 48.5338C45.554 48.5772 45.5027 48.6337 45.404 48.7021C45.3037 48.7691 45.1724 48.8192 45.0022 48.8465C44.8383 48.8787 44.7007 48.8776 44.6008 48.8465C44.4979 48.8114 44.4429 48.7653 44.4429 48.7092C44.3905 43.8504 44.3318 38.9879 44.2678 34.1324C44.2678 34.0295 44.315 33.9798 44.4077 33.9798C45.3348 33.9798 46.2547 33.9798 47.1791 33.9727C47.5835 33.9727 47.8857 34.1324 48.0971 34.4317C48.3017 34.7362 48.4099 35.0725 48.4196 35.4287C48.4484 36.8989 48.4761 38.368 48.5127 39.8344ZM46.958 40.5725C47.2823 40.5291 47.4432 40.3193 47.4331 39.9403C47.4058 38.4955 47.3773 37.0519 47.35 35.6108C47.35 35.4612 47.3078 35.3224 47.2288 35.2027C47.1563 35.083 47.0089 35.0284 46.8091 35.0284C46.3587 35.0355 45.9187 35.0478 45.4754 35.0523C45.3954 35.0523 45.3568 35.1006 45.3568 35.1821C45.3823 36.9928 45.4111 38.806 45.4365 40.6137C45.4365 40.7005 45.4724 40.7368 45.5469 40.7289C46.0156 40.687 46.4855 40.6313 46.958 40.5725Z" fill="#48312F"/>
<path d="M55.1343 33.8705C55.4804 33.8705 55.6356 33.9251 55.6027 34.0354C55.5814 34.1065 55.5395 34.2401 55.4804 34.4402C55.4239 34.6396 55.3569 34.879 55.2802 35.1607C55.2013 35.4424 55.116 35.7541 55.0236 36.0997C54.9237 36.4424 54.8306 36.8019 54.7318 37.1652C54.5118 38.0136 54.2791 38.9795 54.0225 40.0652C54.0034 40.1288 53.9914 40.2032 53.9914 40.2926C54.0124 41.9267 54.0337 43.5608 54.0547 45.1911C54.0547 45.2349 54.0547 45.2742 54.0547 45.3093C54.0577 45.3426 54.0124 45.4032 53.9267 45.4926C53.844 45.5821 53.7322 45.664 53.5915 45.7437C53.443 45.8297 53.3226 45.8716 53.2388 45.8742C53.1591 45.8791 53.116 45.8548 53.116 45.7994C53.1131 45.7642 53.1131 45.7294 53.1131 45.6928C53.0846 44.0015 53.0596 42.3008 53.0266 40.6024C53.0266 40.544 53.0266 40.5092 53.0266 40.5029C53.0266 40.4875 53.0195 40.4606 53.0072 40.4202C52.7012 39.4337 52.4161 38.4921 52.161 37.613C52.0517 37.2321 51.9421 36.8535 51.8276 36.4746C51.7218 36.0956 51.6185 35.7398 51.525 35.4177C51.433 35.0941 51.3555 34.8132 51.2916 34.5704C51.2317 34.3257 51.1864 34.1604 51.1632 34.0728C51.1236 33.9389 51.2803 33.8705 51.6256 33.8705C51.9537 33.8499 52.1367 33.8899 52.1606 33.9947C52.5867 35.4877 53.0008 36.9052 53.4135 38.2478C53.4348 38.3021 53.4591 38.3028 53.4812 38.2538C53.6622 37.5097 53.8414 36.7772 54.0225 36.0698C54.1875 35.4529 54.3809 34.7548 54.6023 33.9984C54.6289 33.8936 54.8017 33.8521 55.1343 33.8705Z" fill="#48312F"/>
<path d="M40.5075 52.6968C33.6361 52.6968 27.1585 50.0217 22.3098 45.161C17.4536 40.301 14.7754 33.8414 14.7754 26.9666C14.7754 20.1056 17.4536 13.6377 22.3102 8.78379C27.1589 3.92347 33.6361 1.24902 40.5075 1.24902C47.3809 1.24902 53.8394 3.92347 58.6971 8.78379C63.5589 13.6381 66.2363 20.1059 66.2363 26.9666C66.2363 33.8414 63.5589 40.3014 58.6971 45.1613C53.8394 50.0217 47.3809 52.6968 40.5075 52.6968ZM40.5075 2.24226C26.8566 2.24226 15.7668 13.3329 15.7668 26.9666C15.7668 40.6089 26.8566 51.7032 40.5075 51.7032C54.1473 51.7032 65.2427 40.6089 65.2427 26.9666C65.2427 13.3332 54.1473 2.24226 40.5075 2.24226Z" fill="#48312F"/>
<path d="M40.5074 51.1867C34.0415 51.1867 27.9358 48.669 23.3773 44.0934C18.8055 39.5189 16.2859 33.4386 16.2859 26.9671C16.2859 20.5075 18.8055 14.4227 23.3773 9.85459C27.9358 5.27933 34.0415 2.75977 40.5074 2.75977C46.9734 2.75977 53.0596 5.27933 57.6315 9.85459C62.2041 14.4227 64.7233 20.5079 64.7233 26.9671C64.7233 33.4386 62.2041 39.5193 57.6315 44.0934C53.0596 48.669 46.9734 51.1867 40.5074 51.1867ZM40.5074 3.25844C27.4094 3.25844 16.7793 13.8923 16.7793 26.9671C16.7793 40.049 27.4094 50.6892 40.5074 50.6892C53.5908 50.6892 64.2295 40.049 64.2295 26.9671C64.2295 13.8923 53.5908 3.25844 40.5074 3.25844Z" fill="#48312F"/>
<path d="M79.9578 38.8455C79.9578 38.8328 79.9578 38.8208 79.9541 38.8119C79.9541 38.8059 79.9541 38.7969 79.9541 38.7861C79.953 38.7801 79.9515 38.7745 79.9485 38.7666C79.944 38.7554 79.941 38.743 79.935 38.7311C79.935 38.7292 79.935 38.7292 79.935 38.7292L75.9628 29.8873L79.244 22.4442C79.2829 22.3574 79.2747 22.2508 79.2186 22.1722C79.1662 22.0877 79.0727 22.0383 78.9758 22.0383H72.184L72.1762 20.5958C72.1762 20.3171 72.0475 20.0578 71.8039 19.8195C70.4616 18.5038 64.7701 17.6916 54.8994 17.404C47.692 17.2023 40.7693 17.3572 40.5078 17.3639C40.25 17.3572 33.3254 17.2034 26.1116 17.4163C16.2406 17.7002 10.5513 18.5177 9.20676 19.8367C8.96172 20.0739 8.83678 20.3373 8.83678 20.6122L8.82892 22.0581H2.03413C1.93499 22.0581 1.84483 22.1094 1.79171 22.1883C1.73634 22.274 1.72811 22.3773 1.77076 22.464L5.04901 29.9053L1.07306 38.7483C1.0667 38.7565 1.0667 38.7741 1.06072 38.7823C1.05847 38.7913 1.05436 38.7984 1.05436 38.8059C1.05211 38.8119 1.05211 38.8201 1.05211 38.8287C1.04875 38.844 1.04875 38.8493 1.04875 38.8639C1.04875 38.8639 1.04688 38.8661 1.04688 38.8672C1.04688 38.8751 1.04875 38.8785 1.04875 38.8856C1.04875 38.8964 1.05211 38.911 1.05211 38.9219C1.05436 38.932 1.05847 38.9391 1.06034 38.9484C1.06259 38.9559 1.0667 38.9671 1.0682 38.9724C1.07306 38.9851 1.07718 38.9952 1.08316 39.0008C1.08541 39.0116 1.09064 39.0187 1.09513 39.0229C1.09775 39.0337 1.10711 39.0382 1.11272 39.0483C1.1187 39.0562 1.12431 39.0606 1.1318 39.0693C1.13516 39.0745 1.14526 39.0823 1.15237 39.0909C1.1606 39.0932 1.16771 39.1003 1.16883 39.1063C1.1823 39.1108 1.1939 39.1171 1.20512 39.1254C1.20923 39.1291 1.21298 39.1291 1.22195 39.1325C1.22195 39.1325 1.22195 39.1325 1.22457 39.1325C1.23654 39.1411 1.25188 39.1437 1.27021 39.1482C1.27508 39.1519 1.27807 39.1519 1.28069 39.1519C1.29004 39.1575 1.2979 39.1575 1.31174 39.1587C1.31959 39.1587 1.33119 39.1587 1.33643 39.1587C1.65928 39.1587 2.19911 39.1646 2.88109 39.1804C4.06549 39.1998 5.63672 39.2256 7.22178 39.2256C9.77652 39.2256 12.3589 39.1587 13.3974 38.8863C14.0521 38.7168 14.482 38.5549 14.5478 37.8415C14.5545 37.7588 14.5545 37.6817 14.5478 37.6084V33.659C17.0647 33.2928 20.7508 32.9725 26.1221 32.7881C33.4245 32.5341 40.4315 32.6542 40.513 32.6557C40.5845 32.6538 47.5888 32.5277 54.8845 32.7765C60.2584 32.9632 63.9456 33.2778 66.4618 33.6452V37.5844C66.4561 37.66 66.4561 37.7393 66.4618 37.8183C66.5265 38.5354 66.9597 38.7004 67.6114 38.8669C69.2922 39.3083 75.0403 39.2103 78.1255 39.162C78.8105 39.1512 79.3544 39.1418 79.6698 39.1418C79.6799 39.1418 79.6915 39.1403 79.6978 39.1403C79.7064 39.1347 79.7191 39.1347 79.7315 39.1317C79.7315 39.1317 79.7375 39.1317 79.7393 39.1317C79.7562 39.1284 79.7704 39.1246 79.7891 39.1168C79.7966 39.11 79.8011 39.107 79.8067 39.1059C79.8145 39.0999 79.8265 39.0928 79.8347 39.0906C79.8433 39.0823 79.8501 39.0741 79.8579 39.0689C79.8665 39.0681 79.8763 39.0588 79.88 39.0532C79.8852 39.0431 79.8953 39.0378 79.901 39.0307C79.9013 39.0225 79.9099 39.0184 79.9163 39.006C79.9197 39.0004 79.9227 38.9926 79.9275 38.9847C79.9298 38.972 79.9354 38.9664 79.9391 38.9551C79.9444 38.9492 79.9462 38.9409 79.9485 38.9316C79.9515 38.9215 79.9541 38.9136 79.9541 38.9035C79.9541 38.8927 79.9578 38.8818 79.9578 38.8669C79.9578 38.8601 79.9619 38.856 79.9619 38.8489L79.9578 38.8455Z" fill="#66C1BF"/>
<path d="M79.901 39.0311C79.9013 39.0229 79.9099 39.0187 79.9163 39.0064C79.9197 39.0008 79.9227 38.9929 79.9275 38.9851C79.9298 38.9724 79.9354 38.9667 79.9391 38.9555C79.9444 38.9495 79.9462 38.9413 79.9485 38.932C79.9515 38.9219 79.9541 38.914 79.9541 38.9039C79.9541 38.893 79.9578 38.8822 79.9578 38.8672C79.9578 38.8605 79.9619 38.8564 79.9619 38.8493L79.9578 38.8455C79.9578 38.8328 79.9578 38.8208 79.9541 38.8119C79.9541 38.8059 79.9541 38.7969 79.9541 38.7861C79.953 38.7801 79.9515 38.7745 79.9485 38.7666C79.944 38.7554 79.941 38.743 79.935 38.7311C79.935 38.7292 79.935 38.7292 79.935 38.7292L75.9628 29.8873L79.244 22.4442C79.2829 22.3574 79.2747 22.2508 79.2186 22.1722C79.1662 22.0877 79.0727 22.0383 78.9758 22.0383H72.184L72.1762 20.5958C72.1762 20.3171 72.0475 20.0578 71.8039 19.8195C70.4616 18.5038 64.7701 17.6916 54.8994 17.404C47.692 17.2023 40.7693 17.3572 40.5078 17.3639C40.25 17.3572 33.3254 17.2034 26.1116 17.4163C16.2406 17.7002 10.5513 18.5177 9.20676 19.8367C8.96172 20.0739 8.83678 20.3373 8.83678 20.6122L8.82892 22.0581H2.03413C1.93499 22.0581 1.84483 22.1094 1.79171 22.1883C1.73634 22.274 1.72811 22.3773 1.77076 22.464L5.04901 29.9053L1.07306 38.7483C1.0667 38.7565 1.0667 38.7741 1.06072 38.7823C1.05847 38.7913 1.05436 38.7984 1.05436 38.8059C1.05211 38.8119 1.05211 38.8201 1.05211 38.8287C1.04875 38.844 1.04875 38.8493 1.04875 38.8639C1.04875 38.8639 1.04688 38.8661 1.04688 38.8672C1.04688 38.8751 1.04875 38.8785 1.04875 38.8856C1.04875 38.8964 1.05211 38.911 1.05211 38.9219C1.05436 38.932 1.05847 38.9391 1.06034 38.9484C1.06259 38.9559 1.0667 38.9671 1.0682 38.9724C1.07306 38.9851 1.07718 38.9952 1.08316 39.0008C1.08541 39.0116 1.09064 39.0187 1.09513 39.0229C1.09775 39.0337 1.10711 39.0382 1.11272 39.0483C1.1187 39.0562 1.12431 39.0606 1.1318 39.0693C1.13516 39.0745 1.14526 39.0823 1.15237 39.0909C1.1606 39.0932 1.16771 39.1003 1.16883 39.1063C1.1823 39.1108 1.1939 39.1171 1.20512 39.1254C1.20923 39.1291 1.21298 39.1291 1.22195 39.1325C1.22195 39.1325 1.22195 39.1325 1.22457 39.1325C1.23654 39.1411 1.25188 39.1437 1.27021 39.1482C1.27508 39.1519 1.27807 39.1519 1.28069 39.1519C1.29004 39.1575 1.2979 39.1575 1.31174 39.1587C1.31959 39.1587 1.33119 39.1587 1.33643 39.1587C1.65928 39.1587 2.19911 39.1646 2.88109 39.1804C4.06549 39.1998 5.63672 39.2256 7.22178 39.2256C9.77652 39.2256 12.3589 39.1587 13.3974 38.8863C14.0521 38.7168 14.482 38.5549 14.5478 37.8415C14.5545 37.7588 14.5545 37.6817 14.5478 37.6084V33.659C17.0647 33.2928 20.7508 32.9725 26.1221 32.7881C33.4245 32.5341 40.4315 32.6542 40.513 32.6557C40.5845 32.6538 47.5888 32.5277 54.8845 32.7765C60.2584 32.9632 63.9456 33.2778 66.4618 33.6452V37.5844C66.4561 37.66 66.4561 37.7393 66.4618 37.8183C66.5265 38.5354 66.9597 38.7004 67.6114 38.8669C69.2922 39.3083 75.0403 39.2103 78.1255 39.162C78.8105 39.1512 79.3544 39.1418 79.6698 39.1418C79.6799 39.1418 79.6915 39.1403 79.6978 39.1403C79.7064 39.1347 79.7191 39.1347 79.7315 39.1317C79.7315 39.1317 79.7375 39.1317 79.7393 39.1317C79.7562 39.1284 79.7704 39.1246 79.7891 39.1168C79.7966 39.11 79.8011 39.107 79.8067 39.1059C79.8145 39.0999 79.8265 39.0928 79.8347 39.0906C79.8433 39.0823 79.8501 39.0741 79.8579 39.0689C79.8665 39.0681 79.8763 39.0588 79.88 39.0532C79.8852 39.0431 79.8953 39.0378 79.901 39.0311ZM13.2504 38.321C11.6478 38.7404 5.73361 38.6443 2.89231 38.596C2.4606 38.5889 2.088 38.5818 1.79171 38.5758L5.6341 30.0246C5.66627 29.9502 5.66627 29.8656 5.6341 29.7844L2.47856 22.6402H8.82368V35.5269C8.82368 35.5897 8.84276 35.6459 8.8768 35.6919C9.24754 36.7431 10.1502 36.8497 11.0234 36.9518C11.2512 36.9777 11.4809 36.9994 11.7031 37.0454C11.9029 37.0775 12.1476 37.0921 12.4094 37.1022C12.9575 37.128 13.6376 37.1602 13.8763 37.4326C13.9129 37.4745 13.9507 37.5347 13.9627 37.6391V37.7741C13.9627 37.7797 13.9627 37.7831 13.9627 37.7876C13.9414 38.0629 13.9331 38.1422 13.2504 38.321ZM13.9627 36.7899C13.5407 36.5729 12.9624 36.5456 12.4349 36.5216C12.1955 36.5126 11.9676 36.4999 11.8075 36.4719C11.5658 36.4255 11.3298 36.3993 11.096 36.3709C10.1768 36.268 9.64147 36.1703 9.41401 35.4558C9.42149 35.3484 9.48734 35.2388 9.60144 35.1244C10.0459 34.6889 11.2209 34.1902 13.9627 33.7458V36.7899ZM40.513 32.0747C40.4438 32.0736 33.4216 31.9497 26.1041 32.2045C21.0755 32.3773 17.1332 32.6837 14.296 33.1162C14.2807 33.1162 14.2702 33.1106 14.2541 33.1106C14.2096 33.1106 14.1692 33.1214 14.1281 33.142C11.7454 33.5142 10.1667 33.9733 9.40952 34.5262V22.3668L9.42149 20.6141C9.42149 20.4963 9.48771 20.3773 9.61528 20.2512C10.4611 19.4234 14.0155 18.3527 26.1258 17.995C33.4249 17.7855 40.4318 17.9494 40.5029 17.9498C40.5052 17.9498 40.5134 17.9498 40.5134 17.9498C40.5848 17.9494 47.5869 17.7784 54.8815 17.9887C66.993 18.3373 70.5477 19.4076 71.3965 20.2337C71.526 20.3601 71.5881 20.4821 71.5881 20.5992L71.6034 22.3522V34.5138C70.8425 33.9583 69.2713 33.4966 66.8867 33.1285C66.8486 33.1042 66.8014 33.0911 66.7543 33.0911C66.7386 33.0911 66.7218 33.0967 66.7087 33.099C63.8689 32.6695 59.9303 32.3691 54.9047 32.1978C47.597 31.9464 40.5747 32.0736 40.513 32.0747ZM71.4081 35.1072C71.5256 35.222 71.5877 35.3297 71.5959 35.4394C71.3722 36.1494 70.8324 36.2478 69.9181 36.357C69.6858 36.3836 69.4448 36.4064 69.2024 36.4505C69.0431 36.482 68.8137 36.4924 68.5773 36.5048C68.0517 36.5295 67.4718 36.5587 67.0495 36.7693V33.7316C69.7856 34.1719 70.9671 34.6724 71.4081 35.1072ZM78.1187 38.5762C75.2752 38.6271 69.3603 38.7251 67.7573 38.3031C67.0816 38.1291 67.0667 38.0457 67.0476 37.7689C67.0476 37.7644 67.0495 37.7644 67.0495 37.758V37.6226C67.0622 37.5194 67.1003 37.4546 67.134 37.4168C67.3701 37.1475 68.0532 37.112 68.6046 37.0861C68.8627 37.0734 69.1078 37.0648 69.3083 37.0278C69.5331 36.9844 69.7602 36.9616 69.9824 36.9335C70.8604 36.8306 71.7624 36.7229 72.1279 35.6743C72.1627 35.6335 72.1836 35.5718 72.1836 35.5086V22.6208H78.5295L75.3728 29.7702C75.3444 29.8465 75.3444 29.9322 75.3777 30.0082L79.2231 38.5635C78.9231 38.5653 78.5471 38.5728 78.1187 38.5762Z" fill="#48312F"/>
<path d="M18.9788 21.0507C19.2261 21.0376 19.375 21.164 19.4367 21.3855C19.8302 22.6709 20.2174 23.9582 20.6001 25.241C20.6334 25.3749 20.7427 25.3704 20.7674 25.2335C21.0236 23.9167 21.2896 22.6017 21.5515 21.2875C21.6023 21.0593 21.7269 20.9186 21.9779 20.9081C22.9244 20.8655 23.8758 20.8296 24.8252 20.7926C25.0983 20.7825 25.239 20.9093 25.2506 21.176C25.3527 24.0397 25.4556 26.9024 25.56 29.7586C25.5648 30.0216 25.4384 30.1716 25.1672 30.1799C24.6681 30.1982 24.1679 30.2161 23.6681 30.2386C23.4085 30.2509 23.2566 30.1058 23.2473 29.8529C23.168 28.092 23.0958 26.3292 23.0239 24.5672C23.0217 24.4726 22.9016 24.4658 22.875 24.5586C22.5084 26.3637 22.1493 28.1676 21.7954 29.9707C21.7531 30.2004 21.6106 30.3261 21.3704 30.3381C21.0752 30.3531 20.7816 30.3673 20.486 30.3822C20.2406 30.3901 20.0921 30.2801 20.021 30.053C19.4973 28.2944 18.9732 26.5342 18.4318 24.7715C18.4049 24.6791 18.28 24.7023 18.2871 24.7973C18.3776 26.5533 18.476 28.318 18.5733 30.0755C18.586 30.3325 18.4573 30.4851 18.1894 30.5012C17.6859 30.5267 17.1868 30.5573 16.687 30.5843C16.4188 30.603 16.2744 30.4616 16.2632 30.2102C16.0915 27.3479 15.9183 24.4887 15.748 21.6324C15.7327 21.3646 15.8618 21.2231 16.1341 21.2037C17.0806 21.1506 18.0334 21.0982 18.9788 21.0507Z" fill="white"/>
<path d="M34.655 20.5587C34.9311 20.5542 35.0699 20.6855 35.0729 20.9515C35.0759 21.4539 35.0826 21.9511 35.0875 22.4524C35.0923 22.7083 34.9558 22.8549 34.6834 22.8583C33.5784 22.8725 32.4748 22.8901 31.37 22.9122C31.1112 22.9189 30.963 23.0543 30.9712 23.3214C30.9739 23.4662 30.9791 23.6102 30.9817 23.7543C30.984 24.0068 31.1366 24.1546 31.397 24.1493C32.104 24.1359 32.8055 24.1231 33.5088 24.1123C33.7819 24.1071 33.9229 24.2417 33.9251 24.5096C33.9315 25.0079 33.9356 25.5092 33.9431 26.012C33.9528 26.2664 33.8182 26.4167 33.5447 26.419C32.8436 26.4325 32.1403 26.4407 31.4392 26.4579C31.1864 26.4609 31.0401 26.6001 31.0494 26.8668C31.0494 27.0131 31.052 27.1556 31.0569 27.2978C31.0614 27.551 31.2122 27.6943 31.4695 27.6902C32.5634 27.6685 33.6468 27.6502 34.7411 27.6382C35.0108 27.6344 35.1488 27.7687 35.1499 28.0385C35.1548 28.5394 35.1578 29.0384 35.1664 29.5394C35.1705 29.8087 35.037 29.943 34.7669 29.9464C32.8885 29.9711 31.0083 30.0077 29.1153 30.0538C28.855 30.0609 28.7057 29.918 28.6978 29.6643C28.6174 26.8006 28.5407 23.9361 28.4584 21.0768C28.4528 20.8123 28.5983 20.6751 28.8658 20.6664C30.8025 20.6137 32.7288 20.5797 34.655 20.5587Z" fill="white"/>
<path d="M45.3905 29.2409C45.5738 29.5952 45.352 29.9693 44.9393 29.9629C44.4253 29.9539 43.9188 29.9468 43.401 29.9401C43.2693 29.9401 43.1508 29.8743 43.0973 29.7512C42.6401 28.8492 42.1807 27.9473 41.7153 27.0401C41.6891 26.9982 41.6487 26.9753 41.608 26.9753C41.4291 26.9709 41.2499 26.9709 41.0655 26.9709C40.8246 26.9697 40.6514 27.1426 40.6458 27.3857C40.6405 28.0928 40.6405 28.798 40.6405 29.5061C40.6398 29.7478 40.4621 29.9225 40.2223 29.9225C39.7195 29.9225 39.2175 29.9225 38.718 29.9225C38.4764 29.9225 38.299 29.7478 38.2983 29.5061C38.2908 26.6484 38.2867 23.7959 38.2773 20.9441C38.2773 20.705 38.4535 20.5273 38.7005 20.5273C39.7045 20.5273 40.7079 20.5273 41.7153 20.5371C44.1668 20.5543 45.1413 21.5872 45.1084 23.7858C45.0867 25.039 44.7657 25.9028 44.0374 26.4052C43.9857 26.4452 43.9734 26.5115 43.994 26.5829C44.4646 27.4654 44.9296 28.3562 45.3905 29.2409ZM41.0846 22.8374C40.8392 22.8374 40.6604 23.0117 40.6604 23.2478C40.6604 23.5804 40.6604 23.9141 40.6555 24.2478C40.6555 24.4842 40.8336 24.6627 41.0782 24.6634C41.3072 24.6634 41.5414 24.6653 41.7767 24.6653C42.425 24.6709 42.7512 24.5927 42.7565 23.7577C42.7703 22.9265 42.4385 22.8453 41.7834 22.8397C41.5515 22.8389 41.318 22.8389 41.0846 22.8374Z" fill="white"/>
<path d="M55.2583 29.522C55.4296 29.8774 55.2014 30.2485 54.7816 30.2317C54.2736 30.2108 53.7641 30.1898 53.2519 30.1726C53.1195 30.167 53.0013 30.097 52.9478 29.9751C52.5187 29.0567 52.0795 28.1401 51.6392 27.2288C51.6134 27.1873 51.573 27.157 51.5337 27.157C51.3545 27.1529 51.1753 27.1454 50.9954 27.1413C50.7537 27.1371 50.5708 27.3051 50.5625 27.5472C50.5453 28.2497 50.5236 28.956 50.4978 29.6646C50.4959 29.9051 50.3126 30.0768 50.0695 30.0675C49.5708 30.054 49.0714 30.0428 48.5663 30.0308C48.3269 30.0241 48.1578 29.8464 48.1619 29.6058C48.2278 26.7477 48.2921 23.8982 48.3572 21.043C48.3632 20.8047 48.545 20.639 48.7957 20.6416C49.7968 20.6641 50.8027 20.694 51.8049 20.7224C54.2568 20.801 55.2025 21.8642 55.1161 24.062C55.063 25.3134 54.7136 26.169 53.9758 26.6508C53.922 26.6901 53.9055 26.7571 53.9354 26.8285C54.3739 27.7222 54.8183 28.6242 55.2583 29.522ZM51.1155 23.0116C50.8719 22.9996 50.6879 23.172 50.6808 23.4115C50.6729 23.7444 50.6613 24.0721 50.6534 24.4036C50.6463 24.6464 50.8184 24.8263 51.0627 24.8364C51.292 24.8413 51.5255 24.8499 51.7578 24.8559C52.4087 24.8772 52.7383 24.8084 52.7671 23.9749C52.7993 23.1444 52.4738 23.052 51.8143 23.0318C51.5835 23.0202 51.35 23.0146 51.1155 23.0116Z" fill="white"/>
<path d="M59.8174 21.0556C60.053 21.0694 60.1967 21.1715 60.2667 21.3863C60.563 22.2385 60.8566 23.0892 61.1439 23.9358C61.1978 24.0581 61.2771 24.0671 61.3388 23.9481C61.7178 23.1359 62.1039 22.3226 62.4963 21.5127C62.5883 21.3047 62.7451 21.2187 62.9826 21.237C63.6377 21.2718 64.2901 21.3118 64.9429 21.3567C65.2598 21.3773 65.3844 21.5715 65.2299 21.8445C64.2901 23.5766 63.3642 25.3136 62.454 27.0494C62.4263 27.1022 62.4237 27.156 62.4159 27.2088C62.3609 28.2039 62.2992 29.1997 62.2397 30.1978C62.2236 30.4504 62.0822 30.5951 61.8147 30.5761C61.1851 30.5401 60.563 30.5031 59.9345 30.4743C59.6786 30.4597 59.5405 30.3048 59.5525 30.0456C59.6075 29.0505 59.6587 28.0546 59.7126 27.0554C59.7145 27.0026 59.716 26.9488 59.6928 26.8949C58.9719 25.0637 58.2405 23.2355 57.5017 21.4136C57.3745 21.1278 57.5196 20.9452 57.8402 20.9598C58.4949 20.9894 59.1582 21.0208 59.8174 21.0556Z" fill="white"/>
<path d="M65.3242 14.7368V14.4922H67.0324V14.7368H66.3162V16.7698H66.0404V14.7368H65.3242Z" fill="#48312F"/>
<path d="M67.4581 14.4922H67.7872L68.5613 16.3828H68.588L69.362 14.4922H69.6912V16.7698H69.4331V15.0393H69.4109L68.6992 16.7698H68.4501L67.7383 15.0393H67.7161V16.7698H67.4581V14.4922Z" fill="#48312F"/>
</g>
<defs>
<clipPath id="clip0_6995_1557">
<rect width="79.3094" height="52" fill="white" transform="translate(0.779785 0.957031)"/>
</clipPath>
</defs>
</svg>
