<svg width="100" height="214" viewBox="0 0 100 214" fill="none" xmlns="http://www.w3.org/2000/svg">
<g clip-path="url(#clip0_1760_5407)">
<rect x="4.58055" y="-2" width="90.33" height="40" fill="url(#paint0_linear_1760_5407)"/>
<mask id="mask0_1760_5407" style="mask-type:luminance" maskUnits="userSpaceOnUse" x="0" y="38" width="100" height="176">
<path d="M99.9466 38H0V213.064H99.9466V38Z" fill="white"/>
</mask>
<g mask="url(#mask0_1760_5407)">
<path d="M5.59796 106.127C5.59796 105.463 7.01272 105.176 7.95674 105.176H92.4987C93.4427 105.176 93.6361 105.466 93.6361 106.127V196.28C93.6361 196.944 93.2392 197.736 92.402 198.041L51.9491 212.837C51.1094 213.143 49.8092 213.145 48.9669 212.845L7.40966 198.033C6.56742 197.73 5.59541 196.942 5.59541 196.28V106.127H5.59796Z" fill="#F7F7F7"/>
<path opacity="0.42" d="M90.6132 137.41V127.063H8.771L90.6132 137.41Z" fill="#E0E0E0"/>
<path d="M96.0051 122.608C96.0051 122.608 55.3511 136.048 4.05598 122.608V96.4556C51.3741 108.774 96.0051 96.4556 96.0051 96.4556V122.608Z" fill="white"/>
<path d="M96.0051 96.4556V122.608C96.0051 122.608 77.9338 128.58 50.6921 128.58C37.0687 128.58 21.1552 127.087 4.05598 122.608V96.4556C19.827 100.562 35.3028 101.931 48.9237 101.931C76.1679 101.931 96.0026 96.4556 96.0026 96.4556M99.9669 91.2495L94.9491 92.6337C94.7354 92.6923 75.2366 97.9671 48.9237 97.9671C33.4427 97.9671 18.6819 96.1681 5.05343 92.621L0.0915985 91.3258V125.667L3.05089 126.443C18.5064 130.491 34.5344 132.545 50.6921 132.545C78.2545 132.545 96.486 126.624 97.2494 126.372L99.9695 125.473V91.2495H99.9669Z" fill="#F7F7F7"/>
<path d="M19.2519 106.679C19.5267 106.73 19.7786 106.835 20.0051 106.987C20.2316 107.14 20.4198 107.321 20.5649 107.529C20.7125 107.738 20.8193 107.972 20.8855 108.237C20.9517 108.501 20.9618 108.768 20.9135 109.041C20.4453 111.687 19.9771 114.333 19.5089 116.98C19.4606 117.252 19.3562 117.501 19.1985 117.725C19.0382 117.949 18.8473 118.135 18.626 118.282C18.402 118.43 18.1501 118.529 17.8677 118.583C17.5852 118.636 17.2952 118.636 17 118.58C14.827 118.168 12.659 117.718 10.4962 117.226C10.2036 117.16 9.93638 117.046 9.69974 116.883C9.46056 116.72 9.26463 116.527 9.1145 116.3C8.96183 116.074 8.86005 115.829 8.80916 115.56C8.75827 115.293 8.7659 115.025 8.82952 114.756C9.45801 112.142 10.084 109.529 10.7125 106.916C10.7761 106.646 10.8906 106.405 11.0509 106.188C11.2112 105.972 11.4046 105.799 11.6285 105.667C11.8524 105.537 12.0992 105.445 12.369 105.397C12.6387 105.346 12.9109 105.354 13.1832 105.415C15.201 105.873 17.2239 106.295 19.2544 106.679H19.2519ZM17.6565 109.366C16.2875 109.099 14.9211 108.814 13.5572 108.511C13.1094 110.539 12.6616 112.567 12.2137 114.593C13.626 114.906 15.0433 115.201 16.4606 115.478C16.86 113.44 17.257 111.402 17.6565 109.366Z" fill="black"/>
<path d="M33.1272 108.812C33.1832 108.88 33.2087 108.962 33.1985 109.053C33.1196 109.812 33.0407 110.567 32.9618 111.326C32.9517 111.417 32.9109 111.491 32.8397 111.547C32.7684 111.603 32.6845 111.626 32.5903 111.616C30.6183 111.407 28.6514 111.163 26.687 110.886C26.6285 110.878 26.5954 110.896 26.5903 110.942C26.5013 111.565 26.4148 112.186 26.3257 112.809C26.3181 112.868 26.3435 112.898 26.402 112.908C27.9084 113.122 29.4173 113.313 30.9288 113.489C31.0229 113.499 31.0967 113.539 31.1501 113.611C31.2036 113.682 31.2239 113.761 31.2137 113.852C31.1323 114.57 31.0509 115.285 30.972 116.003C30.9618 116.094 30.9237 116.168 30.855 116.224C30.7863 116.28 30.7048 116.303 30.6081 116.293C29.0738 116.117 27.5394 115.921 26.0076 115.705C25.9466 115.697 25.9135 115.72 25.9059 115.779C25.7226 117.064 25.542 118.349 25.3588 119.634C25.3282 119.85 25.1959 119.942 24.9618 119.908C24.1094 119.786 23.2595 119.657 22.4071 119.522C22.173 119.484 22.0738 119.359 22.1068 119.14C22.7099 115.369 23.3155 111.601 23.9185 107.83C23.9542 107.613 24.0789 107.522 24.2977 107.557C27.1578 108.01 30.0254 108.389 32.9008 108.695C32.9924 108.705 33.0687 108.746 33.1247 108.814L33.1272 108.812Z" fill="black"/>
<path d="M44.1756 109.608C44.2366 109.675 44.2672 109.753 44.2621 109.845C44.2315 110.606 44.2036 111.367 44.173 112.127C44.1705 112.219 44.1348 112.295 44.0661 112.356C43.9974 112.418 43.9186 112.446 43.8244 112.443C41.8473 112.362 39.8702 112.247 37.8931 112.099C37.8346 112.094 37.8041 112.115 37.799 112.161C37.7506 112.786 37.7048 113.415 37.6565 114.041C37.6514 114.099 37.6794 114.13 37.7404 114.135C39.2544 114.25 40.771 114.344 42.2901 114.418C42.3868 114.423 42.4606 114.458 42.5191 114.524C42.5751 114.591 42.603 114.669 42.598 114.761C42.5649 115.481 42.5293 116.201 42.4962 116.921C42.4911 117.013 42.458 117.089 42.3944 117.15C42.3308 117.211 42.2494 117.239 42.1527 117.234C40.6107 117.158 39.0712 117.064 37.5318 116.947C37.4707 116.942 37.4376 116.97 37.4351 117.026C37.3359 118.321 37.2392 119.613 37.1399 120.909C37.1247 121.127 36.9974 121.227 36.7608 121.209C35.9033 121.143 35.0483 121.069 34.1908 120.99C33.9542 120.967 33.8473 120.848 33.8677 120.629C34.2239 116.827 34.5827 113.026 34.9389 109.224C34.9593 109.005 35.0789 108.906 35.3002 108.926C38.1781 109.191 41.0611 109.382 43.944 109.499C44.0356 109.501 44.1145 109.537 44.1756 109.603V109.608Z" fill="black"/>
<path d="M48.9593 121.417C48.9593 121.636 48.8372 121.746 48.6005 121.743C47.743 121.733 46.883 121.715 46.0254 121.692C45.7888 121.687 45.6743 121.573 45.6794 121.354C45.7888 117.537 45.8982 113.72 46.0051 109.903C46.0102 109.684 46.1247 109.578 46.3461 109.583C47.1476 109.603 47.9491 109.621 48.7506 109.628C48.972 109.631 49.0814 109.743 49.0789 109.962C49.0382 113.779 49 117.598 48.9593 121.415V121.417Z" fill="black"/>
<path d="M55 112.623C54.9364 112.682 54.9059 112.758 54.9084 112.85C54.9517 114.717 54.9949 116.585 55.0382 118.455C55.0382 118.547 55.0763 118.621 55.145 118.677C55.2137 118.733 55.2977 118.761 55.3944 118.758C57.3588 118.707 59.3232 118.626 61.285 118.511C61.3842 118.506 61.4682 118.532 61.5394 118.593C61.6107 118.651 61.6489 118.728 61.6539 118.819C61.6997 119.58 61.7456 120.338 61.7914 121.099C61.7964 121.191 61.7659 121.272 61.7023 121.338C61.6387 121.407 61.5547 121.443 61.4555 121.448C60.1578 121.524 58.8575 121.585 57.5573 121.633C56.4886 121.672 55.4173 121.702 54.3486 121.722C54.2366 121.722 54.1247 121.728 54.0127 121.728C53.715 121.733 53.43 121.684 53.1629 121.585C52.8931 121.486 52.659 121.343 52.4606 121.16C52.2595 120.977 52.1043 120.763 51.9924 120.514C51.8804 120.267 51.8219 120.005 51.8219 119.728C51.8219 119.623 51.8219 119.519 51.8219 119.417C51.8219 118.997 51.8168 118.575 51.8143 118.155C51.8066 116.812 51.799 115.468 51.7939 114.125C51.7939 113.75 51.7888 113.374 51.7888 113C51.7888 112.555 51.7837 112.112 51.7812 111.666C51.7812 111.389 51.8321 111.127 51.9338 110.878C52.0382 110.628 52.1807 110.415 52.3664 110.234C52.5522 110.053 52.7685 109.908 53.0178 109.794C53.2672 109.682 53.5293 109.623 53.8092 109.618C53.9135 109.618 54.0178 109.616 54.1221 109.613C56.3359 109.57 58.5471 109.486 60.7557 109.356C60.8499 109.351 60.9288 109.379 60.9975 109.437C61.0662 109.496 61.1018 109.572 61.1069 109.664C61.1527 110.425 61.1985 111.183 61.2443 111.944C61.2494 112.035 61.2214 112.117 61.1603 112.183C61.0992 112.249 61.0204 112.287 60.9262 112.292C59.0331 112.402 57.1374 112.483 55.2392 112.529C55.145 112.529 55.0662 112.562 55.0025 112.621L55 112.623Z" fill="black"/>
<path d="M68.0178 120.616C68.0382 120.835 67.9313 120.954 67.6947 120.977C66.8397 121.056 65.9822 121.13 65.1272 121.199C64.8906 121.216 64.7659 121.117 64.7481 120.898C64.4555 117.092 64.1654 113.285 63.8728 109.478C63.855 109.26 63.9567 109.143 64.1781 109.125C64.9771 109.061 65.7761 108.992 66.5751 108.919C66.7939 108.898 66.916 108.997 66.9364 109.214C67.2977 113.015 67.6565 116.817 68.0178 120.618V120.616Z" fill="black"/>
<path d="M77.7634 107.502C78.0407 107.458 78.3104 107.468 78.5751 107.537C78.8397 107.606 79.0763 107.71 79.285 107.858C79.4936 108.003 79.6743 108.189 79.827 108.415C79.9797 108.641 80.0789 108.888 80.1272 109.163C80.6819 112.369 81.2341 115.575 81.7888 118.779C81.8041 118.87 81.7837 118.952 81.7277 119.026C81.6718 119.099 81.5929 119.145 81.4936 119.163C80.6387 119.308 79.7812 119.448 78.9262 119.583C78.827 119.598 78.7379 119.58 78.6616 119.527C78.5827 119.476 78.5369 119.402 78.5242 119.311C78.3664 118.29 78.2087 117.27 78.0534 116.25C78.0382 116.158 77.9975 116.087 77.9262 116.033C77.855 115.98 77.7735 115.96 77.6768 115.975C76.4809 116.158 75.2824 116.326 74.084 116.484C73.9873 116.496 73.9084 116.54 73.8499 116.611C73.7914 116.682 73.7685 116.764 73.7786 116.855C73.911 117.878 74.0433 118.904 74.1756 119.926C74.2036 120.143 74.0992 120.267 73.8651 120.298C73.0127 120.407 72.1578 120.509 71.3028 120.606C71.0662 120.631 70.9389 120.537 70.9135 120.318C70.5547 117.084 70.1959 113.853 69.8372 110.619C69.8066 110.344 69.8295 110.077 69.9084 109.82C69.9847 109.563 70.1069 109.334 70.2723 109.135C70.4377 108.937 70.6387 108.769 70.8728 108.629C71.1094 108.491 71.3639 108.405 71.6412 108.369C73.6845 108.117 75.7252 107.827 77.7634 107.502ZM77.6056 113.359C77.4504 112.356 77.2977 111.351 77.1425 110.349C75.7685 110.56 74.3919 110.756 73.0127 110.934C73.1425 111.942 73.2723 112.947 73.4046 113.954C74.8066 113.774 76.2087 113.575 77.6056 113.359Z" fill="black"/>
<path d="M92.3511 113.941C92.4478 113.918 92.5318 113.931 92.6081 113.977C92.6819 114.025 92.7303 114.094 92.7532 114.183C92.9313 114.924 93.1094 115.664 93.2875 116.404C93.3079 116.494 93.2977 116.578 93.2519 116.654C93.2061 116.73 93.1349 116.781 93.0356 116.804C90.402 117.43 87.7608 117.997 85.1094 118.506C84.8753 118.552 84.7379 118.466 84.6972 118.249C83.9873 114.499 83.2748 110.745 82.5649 106.995C82.5242 106.779 82.6132 106.651 82.8295 106.611C83.6209 106.458 84.4097 106.303 85.1985 106.14C85.4148 106.094 85.5471 106.181 85.5903 106.394C86.1705 109.178 86.7506 111.962 87.3308 114.745C87.3486 114.837 87.3969 114.903 87.4758 114.944C87.5547 114.987 87.6412 114.997 87.7379 114.977C89.2799 114.654 90.8168 114.308 92.3537 113.941H92.3511Z" fill="black"/>
<path d="M100.031 91.2417L94.9644 88.7303L94.9084 38H4.58015L4.67684 89.1349L0.0279846 91.4402L4.67684 94.6692V94.7405H4.78117L5.06616 94.9389L5.08651 94.7405H6.65394C6.65394 94.7405 50.0178 107.761 94.3079 94.9389H94.9695V94.7506C94.9695 94.7506 94.9898 94.7455 94.9975 94.743L100.033 91.2443L100.031 91.2417Z" fill="#F7F7F7"/>
<path d="M22.3766 180.858C22.6234 180.962 22.8346 181.105 23.0127 181.288C23.1908 181.471 23.3333 181.682 23.4427 181.924C23.5522 182.163 23.6056 182.423 23.6056 182.697V185.926C23.6056 186.201 23.5522 186.461 23.4427 186.708C23.3333 186.954 23.1908 187.168 23.0127 187.351C22.8346 187.535 22.6234 187.677 22.3766 187.781C22.1298 187.886 21.8702 187.937 21.5954 187.937H14.743C14.5242 187.937 14.4173 187.827 14.4173 187.611V185.532C14.4173 185.44 14.4478 185.364 14.5114 185.3C14.5751 185.237 14.6514 185.206 14.743 185.206H20.5827C20.6743 185.206 20.7506 185.178 20.8142 185.12C20.8779 185.064 20.9084 184.987 20.9084 184.896V183.471C20.9084 183.379 20.8779 183.303 20.8142 183.239C20.7506 183.176 20.6743 183.145 20.5827 183.145H16.4275C16.1527 183.145 15.8931 183.094 15.6463 182.99C15.3995 182.886 15.1857 182.743 15.0025 182.56C14.8193 182.377 14.6768 182.166 14.5725 181.924C14.4682 181.682 14.4173 181.425 14.4173 181.15V177.921C14.4173 177.647 14.4682 177.387 14.5725 177.14C14.6743 176.893 14.8193 176.682 15.0025 176.504C15.1857 176.326 15.3995 176.183 15.6463 176.074C15.8931 175.965 16.1527 175.911 16.4275 175.911H22.9008C23.117 175.911 23.2265 176.021 23.2265 176.237V178.349C23.2265 178.44 23.1959 178.514 23.1323 178.573C23.0687 178.631 22.9924 178.659 22.9008 178.659H17.4224C17.3308 178.659 17.257 178.69 17.1985 178.753C17.1399 178.817 17.112 178.893 17.112 178.985V180.377C17.112 180.468 17.1399 180.545 17.1985 180.608C17.2544 180.672 17.3308 180.702 17.4224 180.702H21.5954C21.8702 180.702 22.1298 180.753 22.3766 180.858Z" fill="black"/>
<path d="M35.3079 176.008C35.3715 176.071 35.402 176.148 35.402 176.239V178.402C35.402 178.494 35.3715 178.567 35.3079 178.626C35.2443 178.684 35.1679 178.712 35.0763 178.712H29.3231C29.2646 178.712 29.2366 178.74 29.2366 178.799V180.672C29.2366 180.718 29.2646 180.74 29.3231 180.74H34.2341C34.3257 180.74 34.3995 180.771 34.458 180.835C34.514 180.898 34.5445 180.975 34.5445 181.066V182.784C34.5445 182.875 34.5165 182.954 34.458 183.015C34.3995 183.079 34.3257 183.109 34.2341 183.109H29.3231C29.2646 183.109 29.2366 183.137 29.2366 183.196V185.051C29.2366 185.109 29.2646 185.137 29.3231 185.137H35.0763C35.1679 185.137 35.2443 185.168 35.3079 185.232C35.3715 185.295 35.402 185.371 35.402 185.463V187.611C35.402 187.702 35.3715 187.779 35.3079 187.842C35.2443 187.906 35.1679 187.936 35.0763 187.936H26.542C26.3231 187.936 26.2163 187.827 26.2163 187.611V176.242C26.2163 176.15 26.2468 176.074 26.3104 176.01C26.374 175.947 26.4504 175.916 26.542 175.916H35.0763C35.1679 175.916 35.2443 175.947 35.3079 176.01V176.008Z" fill="black"/>
<path d="M46.2036 175.914C46.4784 175.914 46.7379 175.967 46.9847 176.076C47.2316 176.186 47.4428 176.328 47.6209 176.506C47.799 176.685 47.9415 176.896 48.0509 177.143C48.1603 177.389 48.2137 177.649 48.2137 177.924V187.608C48.2137 187.7 48.1832 187.776 48.1196 187.84C48.056 187.903 47.9796 187.934 47.888 187.934H45.5013C45.4097 187.934 45.3333 187.903 45.2697 187.84C45.2061 187.776 45.1756 187.7 45.1756 187.608V184.534C45.1756 184.443 45.1476 184.366 45.0891 184.303C45.0305 184.239 44.9568 184.209 44.8651 184.209H41.4657C41.3741 184.209 41.2977 184.239 41.2341 184.303C41.1705 184.366 41.14 184.443 41.14 184.534V187.608C41.14 187.827 41.0305 187.934 40.8143 187.934H38.4453C38.229 187.934 38.1196 187.825 38.1196 187.608V177.924C38.1196 177.649 38.1705 177.389 38.2748 177.143C38.3791 176.896 38.5216 176.685 38.7048 176.506C38.888 176.328 39.1018 176.186 39.3486 176.076C39.5954 175.967 39.855 175.914 40.1298 175.914H46.2087H46.2036ZM45.173 181.631V178.608H41.1374V181.631H45.173Z" fill="black"/>
<path d="M58.8346 180.858C59.0814 180.962 59.2926 181.105 59.4707 181.288C59.6489 181.471 59.7914 181.682 59.9008 181.924C60.0102 182.163 60.0636 182.423 60.0636 182.697V185.926C60.0636 186.201 60.0102 186.461 59.9008 186.708C59.7914 186.954 59.6489 187.168 59.4707 187.351C59.2926 187.535 59.0814 187.677 58.8346 187.781C58.5878 187.886 58.3282 187.937 58.0534 187.937H51.201C50.9822 187.937 50.8753 187.827 50.8753 187.611V185.532C50.8753 185.44 50.9059 185.364 50.9695 185.3C51.0331 185.237 51.1094 185.206 51.201 185.206H57.0407C57.1323 185.206 57.2087 185.178 57.2723 185.12C57.3359 185.064 57.3664 184.987 57.3664 184.896V183.471C57.3664 183.379 57.3359 183.303 57.2723 183.239C57.2087 183.176 57.1323 183.145 57.0407 183.145H52.8855C52.6107 183.145 52.3511 183.094 52.1043 182.99C51.8575 182.886 51.6438 182.743 51.4606 182.56C51.2774 182.377 51.1349 182.166 51.0305 181.924C50.9262 181.682 50.8753 181.425 50.8753 181.15V177.921C50.8753 177.647 50.9262 177.387 51.0305 177.14C51.1323 176.893 51.2774 176.682 51.4606 176.504C51.6438 176.326 51.8575 176.183 52.1043 176.074C52.3511 175.965 52.6107 175.911 52.8855 175.911H59.3588C59.5776 175.911 59.6845 176.021 59.6845 176.237V178.349C59.6845 178.44 59.6539 178.514 59.5903 178.573C59.5267 178.631 59.4504 178.659 59.3588 178.659H53.8804C53.7888 178.659 53.715 178.69 53.6565 178.753C53.6005 178.817 53.57 178.893 53.57 178.985V180.377C53.57 180.468 53.598 180.545 53.6565 180.608C53.7125 180.672 53.7888 180.702 53.8804 180.702H58.0534C58.3282 180.702 58.5878 180.753 58.8346 180.858Z" fill="black"/>
<path d="M70.7252 175.914C71 175.914 71.2595 175.967 71.5064 176.076C71.7532 176.186 71.9644 176.328 72.1425 176.506C72.3206 176.685 72.4631 176.896 72.5725 177.143C72.6819 177.389 72.7354 177.649 72.7354 177.924V185.926C72.7354 186.201 72.6819 186.461 72.5725 186.707C72.4631 186.954 72.3206 187.168 72.1425 187.351C71.9644 187.534 71.7532 187.677 71.5064 187.781C71.2595 187.886 71 187.936 70.7252 187.936H64.6463C64.3715 187.936 64.112 187.886 63.8651 187.781C63.6183 187.677 63.4046 187.534 63.2214 187.351C63.0382 187.168 62.8957 186.954 62.7914 186.707C62.6896 186.461 62.6361 186.201 62.6361 185.926V177.924C62.6361 177.649 62.687 177.389 62.7914 177.143C62.8957 176.896 63.0382 176.685 63.2214 176.506C63.4046 176.328 63.6183 176.186 63.8651 176.076C64.112 175.967 64.3715 175.914 64.6463 175.914H70.7252ZM69.6947 178.832H65.659V185.015H69.6947V178.832Z" fill="black"/>
<path d="M85.4351 176.008C85.4987 176.071 85.5293 176.148 85.5293 176.239V187.608C85.5293 187.7 85.4987 187.776 85.4351 187.84C85.3715 187.903 85.2952 187.934 85.2036 187.934H82.7303C82.6387 187.934 82.5471 187.909 82.4555 187.858C82.3639 187.807 82.2952 187.741 82.2494 187.659L78.4529 180.652V187.606C78.4529 187.825 78.3435 187.931 78.1272 187.931H75.7583C75.5394 187.931 75.4326 187.822 75.4326 187.606V176.237C75.4326 176.021 75.542 175.911 75.7583 175.911H78.1959C78.2875 175.911 78.3791 175.937 78.4707 175.987C78.5623 176.038 78.631 176.105 78.6768 176.186L82.4885 183.209V176.237C82.4885 176.145 82.5191 176.069 82.5827 176.005C82.6463 175.942 82.7226 175.911 82.8142 175.911H85.201C85.2926 175.911 85.369 175.942 85.4326 176.005L85.4351 176.008Z" fill="black"/>
<path d="M20.5776 78.0762C20.6488 78.1067 20.7099 78.15 20.7608 78.2009C20.8117 78.2518 20.8524 78.3128 20.8855 78.3841C20.9186 78.4553 20.9313 78.5291 20.9313 78.608V81.3942C20.9313 81.4197 20.9211 81.4426 20.9033 81.4604C20.8855 81.4782 20.8626 81.4884 20.8371 81.4884H20.1501C20.1247 81.4884 20.1018 81.4782 20.0865 81.4604C20.0712 81.4426 20.0611 81.4197 20.0611 81.3942V78.8701H19.5089V81.3942C19.5089 81.4197 19.5013 81.4426 19.4835 81.4604C19.4656 81.4782 19.4453 81.4884 19.4198 81.4884H18.7964C18.771 81.4884 18.7481 81.4782 18.7303 81.4604C18.7125 81.4426 18.7023 81.4197 18.7023 81.3942V78.8701H18.1501V81.3942C18.1501 81.4579 18.1196 81.4884 18.056 81.4884H17.374C17.3104 81.4884 17.2799 81.4579 17.2799 81.3942V78.122C17.2799 78.0584 17.3104 78.0278 17.374 78.0278H20.3537C20.4326 78.0278 20.5089 78.0431 20.5776 78.0736V78.0762Z" fill="black"/>
<path d="M24.0331 78.0308C24.112 78.0308 24.1883 78.046 24.2595 78.0766C24.3308 78.1071 24.3919 78.1504 24.4427 78.2012C24.4936 78.2521 24.5344 78.3132 24.5674 78.3845C24.6005 78.4557 24.6132 78.5295 24.6132 78.6084V81.3946C24.6132 81.4201 24.6031 81.443 24.5852 81.4608C24.5674 81.4786 24.5445 81.4888 24.5191 81.4888H23.8321C23.8066 81.4888 23.7837 81.4786 23.7659 81.4608C23.7481 81.443 23.7379 81.4201 23.7379 81.3946V80.5091C23.7379 80.4837 23.7303 80.4608 23.7125 80.443C23.6947 80.4252 23.6743 80.415 23.6489 80.415H22.6692C22.6438 80.415 22.6209 80.4252 22.6031 80.443C22.5852 80.4608 22.5751 80.4837 22.5751 80.5091V81.3946C22.5751 81.4582 22.5445 81.4888 22.4809 81.4888H21.799C21.7379 81.4888 21.7048 81.4582 21.7048 81.3946V78.6084C21.7048 78.5295 21.7201 78.4532 21.7481 78.3845C21.7786 78.3132 21.8193 78.2521 21.8728 78.2012C21.9262 78.1504 21.9873 78.1096 22.0585 78.0766C22.1298 78.046 22.2036 78.0308 22.2824 78.0308H24.0331ZM23.7379 79.6771V78.8068H22.5776V79.6771H23.7379Z" fill="black"/>
<path d="M27.7226 78.0584C27.7405 78.0762 27.7506 78.0991 27.7506 78.1245V80.9108C27.7506 80.9897 27.7354 81.066 27.7048 81.1347C27.6743 81.206 27.631 81.267 27.5802 81.3205C27.5293 81.3739 27.4682 81.4146 27.3969 81.4451C27.3257 81.4757 27.2519 81.4884 27.173 81.4884H25.6845C25.6056 81.4884 25.5293 81.4731 25.4606 81.4451C25.3893 81.4146 25.3282 81.3739 25.2748 81.3205C25.2214 81.267 25.1807 81.206 25.1501 81.1347C25.1196 81.0635 25.1043 80.9897 25.1043 80.9108V79.8523C25.1043 79.7886 25.1349 79.7581 25.1985 79.7581H25.8804C25.9415 79.7581 25.9746 79.7886 25.9746 79.8523V80.5596C25.9746 80.5851 25.9822 80.608 26.0025 80.6233C26.0204 80.6385 26.0433 80.6487 26.0687 80.6487H26.7863C26.8117 80.6487 26.8346 80.6411 26.8524 80.6233C26.8702 80.6054 26.8804 80.5851 26.8804 80.5596V78.122C26.8804 78.0965 26.888 78.0736 26.9058 78.0558C26.9237 78.038 26.944 78.0278 26.9695 78.0278H27.6565C27.6819 78.0278 27.7048 78.038 27.7226 78.0558V78.0584Z" fill="black"/>
<path d="M30.8499 78.0308C30.9288 78.0308 31.0051 78.046 31.0738 78.0766C31.145 78.1071 31.2061 78.1504 31.257 78.2012C31.3079 78.2521 31.3486 78.3132 31.3817 78.3845C31.4148 78.4557 31.4275 78.5295 31.4275 78.6084V80.9112C31.4275 80.99 31.4122 81.0664 31.3817 81.1351C31.3511 81.2038 31.3104 81.2674 31.257 81.3208C31.2061 81.3743 31.145 81.415 31.0738 81.4455C31.0025 81.4761 30.9288 81.4888 30.8499 81.4888H29.0992C29.0204 81.4888 28.944 81.4735 28.8753 81.4455C28.8041 81.415 28.743 81.3743 28.6896 81.3208C28.6361 81.2674 28.5954 81.2063 28.5649 81.1351C28.5344 81.0638 28.5191 80.99 28.5191 80.9112V78.6084C28.5191 78.5295 28.5344 78.4532 28.5649 78.3845C28.5954 78.3157 28.6361 78.2521 28.6896 78.2012C28.743 78.1504 28.8041 78.1096 28.8753 78.0766C28.9466 78.046 29.0204 78.0308 29.0992 78.0308H30.8499ZM30.5547 78.8705H29.3944V80.6491H30.5547V78.8705Z" fill="black"/>
<path d="M35.2188 81.4095C35.2315 81.4324 35.2341 81.4528 35.2239 81.4655C35.2137 81.4808 35.1959 81.4884 35.1705 81.4884H34.3842C34.3588 81.4884 34.3308 81.4808 34.3053 81.4655C34.2799 81.4502 34.2595 81.4324 34.2468 81.4095L33.7226 80.4706C33.715 80.4579 33.7048 80.4502 33.687 80.4502H33.0992C33.084 80.4502 33.0738 80.4579 33.0738 80.4757V81.3942C33.0738 81.4579 33.0432 81.4884 32.9796 81.4884H32.2977C32.2341 81.4884 32.2036 81.4579 32.2036 81.3942V78.122C32.2036 78.0584 32.2341 78.0278 32.2977 78.0278H34.5318C34.6107 78.0278 34.687 78.0431 34.7557 78.0736C34.827 78.1042 34.888 78.1474 34.9389 78.1983C34.9898 78.2492 35.0305 78.3103 35.0636 78.3815C35.0941 78.4528 35.1094 78.5266 35.1094 78.6054V79.9057C35.1094 80.0304 35.0712 80.1449 34.9974 80.2441C34.9237 80.3459 34.8295 80.4121 34.7125 80.4502L34.6972 80.4553C34.6743 80.4629 34.6692 80.4706 34.6819 80.4858L34.687 80.496L35.2163 81.4095H35.2188ZM34.2341 78.8344H33.0432V79.6741H34.2341V78.8344Z" fill="black"/>
<path d="M39.8779 80.6487C39.9033 80.6487 39.9262 80.6589 39.9415 80.6767C39.9567 80.6945 39.9669 80.7174 39.9669 80.7428V81.3942C39.9669 81.4197 39.9593 81.4426 39.9415 81.4604C39.9237 81.4782 39.9033 81.4884 39.8779 81.4884H37.743C37.6794 81.4884 37.6488 81.4579 37.6488 81.3942V78.122C37.6488 78.0584 37.6794 78.0278 37.743 78.0278H38.4249C38.4885 78.0278 38.5191 78.0584 38.5191 78.122V80.5596C38.5191 80.5851 38.5267 80.608 38.5471 80.6233C38.5674 80.6385 38.5878 80.6487 38.6132 80.6487H39.8779Z" fill="black"/>
<path d="M43.0687 78.0585C43.0865 78.0764 43.0967 78.0993 43.0967 78.1247V78.7481C43.0967 78.7736 43.0865 78.7965 43.0687 78.8117C43.0509 78.827 43.028 78.8372 43.0025 78.8372H41.3461C41.3308 78.8372 41.3206 78.8448 41.3206 78.8626V79.4021C41.3206 79.4148 41.3282 79.4224 41.3461 79.4224H42.7608C42.7863 79.4224 42.8092 79.4326 42.8244 79.4504C42.8397 79.4682 42.8499 79.4911 42.8499 79.5166V80.0102C42.8499 80.0356 42.8422 80.0585 42.8244 80.0764C42.8066 80.0942 42.7863 80.1043 42.7608 80.1043H41.3461C41.3308 80.1043 41.3206 80.112 41.3206 80.1298V80.6641C41.3206 80.6794 41.3282 80.6896 41.3461 80.6896H43.0025C43.028 80.6896 43.0509 80.6998 43.0687 80.7176C43.0865 80.7354 43.0967 80.7583 43.0967 80.7837V81.4021C43.0967 81.4275 43.0865 81.4504 43.0687 81.4682C43.0509 81.486 43.028 81.4962 43.0025 81.4962H40.5471C40.4835 81.4962 40.4529 81.4657 40.4529 81.4021V78.1298C40.4529 78.1043 40.4631 78.0814 40.4809 78.0636C40.4987 78.0458 40.5216 78.0356 40.5471 78.0356H43.0025C43.028 78.0356 43.0509 78.0458 43.0687 78.0636V78.0585Z" fill="black"/>
<path d="M46.2036 78.0308C46.2824 78.0308 46.3588 78.046 46.43 78.0766C46.5013 78.1071 46.5623 78.1504 46.6132 78.2012C46.6641 78.2521 46.7048 78.3132 46.7379 78.3845C46.771 78.4557 46.7837 78.5295 46.7837 78.6084V81.3946C46.7837 81.4201 46.7735 81.443 46.7557 81.4608C46.7379 81.4786 46.715 81.4888 46.6896 81.4888H46.0025C45.9771 81.4888 45.9542 81.4786 45.9364 81.4608C45.9186 81.443 45.9084 81.4201 45.9084 81.3946V80.5091C45.9084 80.4837 45.9008 80.4608 45.883 80.443C45.8651 80.4252 45.8448 80.415 45.8193 80.415H44.8397C44.8143 80.415 44.7914 80.4252 44.7735 80.443C44.7557 80.4608 44.7456 80.4837 44.7456 80.5091V81.3946C44.7456 81.4582 44.715 81.4888 44.6514 81.4888H43.9695C43.9084 81.4888 43.8753 81.4582 43.8753 81.3946V78.6084C43.8753 78.5295 43.8906 78.4532 43.9186 78.3845C43.9491 78.3132 43.9898 78.2521 44.0433 78.2012C44.0967 78.1504 44.1578 78.1096 44.229 78.0766C44.3003 78.046 44.374 78.0308 44.4529 78.0308H46.2036ZM45.9084 79.6771V78.8068H44.7481V79.6771H45.9084Z" fill="black"/>
<path d="M50.4326 79.6287C50.4504 79.6465 50.4605 79.6694 50.4605 79.6949V80.9112C50.4605 80.99 50.4453 81.0664 50.4147 81.1351C50.3842 81.2038 50.3435 81.2674 50.2901 81.3208C50.2392 81.3743 50.1781 81.415 50.1069 81.4455C50.0356 81.4761 49.9618 81.4888 49.8829 81.4888H48.1323C48.0534 81.4888 47.9771 81.4735 47.9084 81.4455C47.8371 81.415 47.7761 81.3743 47.7226 81.3208C47.6692 81.2674 47.6285 81.2063 47.598 81.1351C47.5674 81.0638 47.5522 80.99 47.5522 80.9112V78.6084C47.5522 78.5295 47.5674 78.4532 47.598 78.3845C47.6285 78.3157 47.6692 78.2521 47.7226 78.2012C47.7761 78.1504 47.8371 78.1096 47.9084 78.0766C47.9796 78.046 48.0534 78.0308 48.1323 78.0308H50.173C50.1985 78.0308 50.2214 78.0409 50.2392 78.0587C50.257 78.0766 50.2672 78.0995 50.2672 78.1249V78.7763C50.2672 78.8018 50.257 78.8247 50.2392 78.8425C50.2214 78.8603 50.1985 78.8705 50.173 78.8705H48.5165C48.4911 78.8705 48.4682 78.8781 48.4504 78.8959C48.4326 78.9137 48.4224 78.9341 48.4224 78.9595V80.56C48.4224 80.5855 48.4326 80.6084 48.4504 80.6236C48.4682 80.6389 48.4911 80.6491 48.5165 80.6491H49.4962C49.5216 80.6491 49.5445 80.6414 49.5598 80.6236C49.5751 80.6058 49.5852 80.5855 49.5852 80.56V79.6949C49.5852 79.6694 49.5929 79.6465 49.6132 79.6287C49.6336 79.6109 49.6539 79.6007 49.6794 79.6007H50.3664C50.3918 79.6007 50.4147 79.6109 50.4326 79.6287Z" fill="black"/>
<path d="M54.0789 78.0587C54.0967 78.0766 54.1069 78.0995 54.1069 78.1249V80.9112C54.1069 80.99 54.0916 81.0664 54.0611 81.1351C54.0305 81.2038 53.9898 81.2674 53.9364 81.3208C53.8855 81.3743 53.8244 81.415 53.7532 81.4455C53.6819 81.4761 53.6081 81.4888 53.5267 81.4888H51.7761C51.6972 81.4888 51.6209 81.4735 51.5522 81.4455C51.4809 81.415 51.4198 81.3743 51.3664 81.3208C51.313 81.2674 51.2723 81.2063 51.2417 81.1351C51.2112 81.0638 51.1985 80.99 51.1985 80.9112V78.1249C51.1985 78.0613 51.229 78.0308 51.2926 78.0308H51.9745C52.0356 78.0308 52.0687 78.0613 52.0687 78.1249V80.5626C52.0687 80.588 52.0789 80.6109 52.0967 80.6262C52.1145 80.6414 52.1374 80.6516 52.1628 80.6516H53.1425C53.1679 80.6516 53.1908 80.644 53.2061 80.6262C53.2214 80.6084 53.2315 80.588 53.2315 80.5626V78.1249C53.2315 78.0995 53.2417 78.0766 53.2595 78.0587C53.2773 78.0409 53.3003 78.0308 53.3257 78.0308H54.0127C54.0382 78.0308 54.0611 78.0409 54.0789 78.0587Z" fill="black"/>
<path d="M57.5038 78.0585C57.5216 78.0764 57.5318 78.0993 57.5318 78.1247V78.7481C57.5318 78.7736 57.5216 78.7965 57.5038 78.8117C57.486 78.827 57.4631 78.8372 57.4377 78.8372H55.7812C55.7659 78.8372 55.7557 78.8448 55.7557 78.8626V79.4021C55.7557 79.4148 55.7634 79.4224 55.7812 79.4224H57.1959C57.2214 79.4224 57.2443 79.4326 57.2595 79.4504C57.2748 79.4682 57.285 79.4911 57.285 79.5166V80.0102C57.285 80.0356 57.2774 80.0585 57.2595 80.0764C57.2417 80.0942 57.2214 80.1043 57.1959 80.1043H55.7812C55.7659 80.1043 55.7557 80.112 55.7557 80.1298V80.6641C55.7557 80.6794 55.7634 80.6896 55.7812 80.6896H57.4377C57.4631 80.6896 57.486 80.6998 57.5038 80.7176C57.5216 80.7354 57.5318 80.7583 57.5318 80.7837V81.4021C57.5318 81.4275 57.5216 81.4504 57.5038 81.4682C57.486 81.486 57.4631 81.4962 57.4377 81.4962H54.9822C54.9186 81.4962 54.888 81.4657 54.888 81.4021V78.1298C54.888 78.1043 54.8982 78.0814 54.916 78.0636C54.9338 78.0458 54.9567 78.0356 54.9822 78.0356H57.4377C57.4631 78.0356 57.486 78.0458 57.5038 78.0636V78.0585Z" fill="black"/>
<path d="M62.8092 78.0308C62.8346 78.0308 62.8575 78.0409 62.8753 78.0587C62.8931 78.0766 62.9033 78.0995 62.9033 78.1249V81.3972C62.9033 81.4226 62.8957 81.4455 62.8753 81.4633C62.855 81.4811 62.8346 81.4913 62.8092 81.4913H62.1221C62.0967 81.4913 62.0738 81.4811 62.056 81.4633C62.0382 81.4455 62.028 81.4226 62.028 81.3972V80.2547C62.028 80.2292 62.0203 80.2063 62.0025 80.1911C61.9847 80.1758 61.9644 80.1656 61.9389 80.1656H60.9593C60.9338 80.1656 60.9109 80.1733 60.8931 80.1911C60.8753 80.2089 60.8651 80.2292 60.8651 80.2547V81.3972C60.8651 81.4608 60.8346 81.4913 60.771 81.4913H60.089C60.0254 81.4913 59.9949 81.4608 59.9949 81.3972V78.1249C59.9949 78.0613 60.0254 78.0308 60.089 78.0308H60.771C60.8346 78.0308 60.8651 78.0613 60.8651 78.1249V79.2318C60.8651 79.2954 60.8957 79.3259 60.9593 79.3259H61.9389C61.9644 79.3259 61.9873 79.3157 62.0025 79.2979C62.0178 79.2801 62.028 79.2572 62.028 79.2318V78.1249C62.028 78.0995 62.0382 78.0766 62.056 78.0587C62.0738 78.0409 62.0967 78.0308 62.1221 78.0308H62.8092Z" fill="black"/>
<path d="M66.0127 78.0308C66.0916 78.0308 66.1679 78.046 66.2392 78.0766C66.3104 78.1071 66.3715 78.1504 66.4224 78.2012C66.4733 78.2521 66.514 78.3132 66.5471 78.3845C66.5802 78.4557 66.5929 78.5295 66.5929 78.6084V81.3946C66.5929 81.4201 66.5827 81.443 66.5649 81.4608C66.5471 81.4786 66.5242 81.4888 66.4987 81.4888H65.8117C65.7863 81.4888 65.7634 81.4786 65.7455 81.4608C65.7277 81.443 65.7176 81.4201 65.7176 81.3946V80.5091C65.7176 80.4837 65.7099 80.4608 65.6921 80.443C65.6743 80.4252 65.6539 80.415 65.6285 80.415H64.6489C64.6234 80.415 64.6005 80.4252 64.5827 80.443C64.5649 80.4608 64.5547 80.4837 64.5547 80.5091V81.3946C64.5547 81.4582 64.5242 81.4888 64.4606 81.4888H63.7786C63.7176 81.4888 63.6845 81.4582 63.6845 81.3946V78.6084C63.6845 78.5295 63.6997 78.4532 63.7277 78.3845C63.7583 78.3132 63.799 78.2521 63.8524 78.2012C63.9059 78.1504 63.9669 78.1096 64.0382 78.0766C64.1094 78.046 64.1832 78.0308 64.2621 78.0308H66.0127ZM65.7176 79.6771V78.8068H64.5573V79.6771H65.7176Z" fill="black"/>
<path d="M68.2545 78.8959C68.2366 78.9112 68.2265 78.9341 68.2265 78.9595V80.56C68.2265 80.5855 68.2341 80.6084 68.2545 80.6236C68.2748 80.6389 68.2952 80.6491 68.3206 80.6491H69.9084C69.9338 80.6491 69.9567 80.6593 69.9746 80.6771C69.9924 80.6949 70.0025 80.7178 70.0025 80.7432V81.3946C70.0025 81.4201 69.9949 81.443 69.9746 81.4608C69.9542 81.4786 69.9338 81.4888 69.9084 81.4888H67.9364C67.8575 81.4888 67.7812 81.4735 67.7125 81.4455C67.6412 81.415 67.5802 81.3743 67.5267 81.3208C67.4733 81.2674 67.4326 81.2063 67.402 81.1351C67.3715 81.0638 67.3562 80.99 67.3562 80.9112V78.6084C67.3562 78.5295 67.3715 78.4532 67.402 78.3845C67.4326 78.3132 67.4733 78.2521 67.5267 78.2012C67.5802 78.1504 67.6412 78.1096 67.7125 78.0766C67.7837 78.046 67.8575 78.0308 67.9364 78.0308H69.9084C69.9338 78.0308 69.9567 78.0409 69.9746 78.0587C69.9924 78.0766 70.0025 78.0995 70.0025 78.1249V78.7763C70.0025 78.8018 69.9949 78.8247 69.9746 78.8425C69.9542 78.8603 69.9338 78.8705 69.9084 78.8705H68.3206C68.2952 78.8705 68.2723 78.8781 68.2545 78.8959Z" fill="black"/>
<path d="M72.7532 79.4888C72.7532 79.4888 72.7405 79.5091 72.7481 79.5244L73.9059 81.4124C73.9186 81.4353 73.9211 81.4557 73.9109 81.4684C73.9008 81.4837 73.883 81.4913 73.8575 81.4913H73.0382C73.0127 81.4913 72.9847 81.4837 72.9593 81.4684C72.9338 81.4532 72.9135 81.4353 72.9008 81.4124L72.1552 80.0638C72.145 80.0486 72.1374 80.046 72.1298 80.0587L71.7201 80.5091C71.7048 80.5269 71.6896 80.5498 71.6794 80.5804C71.6667 80.6109 71.6616 80.6414 71.6616 80.6669V81.3972C71.6616 81.4608 71.6311 81.4913 71.5674 81.4913H70.8855C70.8219 81.4913 70.7914 81.4608 70.7914 81.3972V78.1249C70.7914 78.0613 70.8219 78.0308 70.8855 78.0308H71.5674C71.6311 78.0308 71.6616 78.0613 71.6616 78.1249V79.5931L72.9364 78.0995C72.9517 78.0791 72.9746 78.0638 73.0051 78.0511C73.0356 78.0384 73.0636 78.0308 73.0891 78.0308H73.9084C73.9338 78.0308 73.9491 78.0384 73.9542 78.0511C73.9593 78.0638 73.9542 78.0816 73.9364 78.0995L72.7557 79.4888H72.7532Z" fill="black"/>
<path d="M75.4173 81.3972C75.4173 81.4608 75.3868 81.4913 75.3232 81.4913H74.6412C74.5776 81.4913 74.5471 81.4608 74.5471 81.3972V78.1249C74.5471 78.0613 74.5776 78.0308 74.6412 78.0308H75.3232C75.3868 78.0308 75.4173 78.0613 75.4173 78.1249V81.3972Z" fill="black"/>
<path d="M78.7455 78.0762C78.8168 78.1067 78.8779 78.15 78.9287 78.2009C78.9796 78.2518 79.0203 78.3128 79.0534 78.3841C79.084 78.4553 79.0992 78.5291 79.0992 78.608V81.3942C79.0992 81.4197 79.0916 81.4426 79.0712 81.4604C79.0509 81.4782 79.0305 81.4884 79.0051 81.4884H78.3181C78.2926 81.4884 78.2697 81.4782 78.2544 81.4604C78.2392 81.4426 78.229 81.4197 78.229 81.3942V78.9566C78.229 78.9311 78.2188 78.9082 78.201 78.893C78.1832 78.8777 78.1603 78.8675 78.1349 78.8675H77.1552C77.1298 78.8675 77.1069 78.8752 77.089 78.893C77.0712 78.9108 77.0611 78.9311 77.0611 78.9566V81.3942C77.0611 81.4579 77.0305 81.4884 76.9669 81.4884H76.285C76.2214 81.4884 76.1908 81.4579 76.1908 81.3942V78.122C76.1908 78.0584 76.2214 78.0278 76.285 78.0278H78.5191C78.5979 78.0278 78.6743 78.0431 78.743 78.0736L78.7455 78.0762Z" fill="black"/>
<path d="M82.7481 79.6287C82.7659 79.6465 82.7761 79.6694 82.7761 79.6949V80.9112C82.7761 80.99 82.7608 81.0664 82.7303 81.1351C82.6997 81.2038 82.659 81.2674 82.6056 81.3208C82.5547 81.3743 82.4936 81.415 82.4224 81.4455C82.3511 81.4761 82.2773 81.4888 82.1985 81.4888H80.4478C80.3689 81.4888 80.2926 81.4735 80.2239 81.4455C80.1527 81.415 80.0916 81.3743 80.0382 81.3208C79.9847 81.2674 79.944 81.2063 79.9135 81.1351C79.8829 81.0638 79.8677 80.99 79.8677 80.9112V78.6084C79.8677 78.5295 79.8829 78.4532 79.9135 78.3845C79.944 78.3157 79.9847 78.2521 80.0382 78.2012C80.0916 78.1504 80.1527 78.1096 80.2239 78.0766C80.2952 78.046 80.3689 78.0308 80.4478 78.0308H82.4885C82.514 78.0308 82.5369 78.0409 82.5547 78.0587C82.5725 78.0766 82.5827 78.0995 82.5827 78.1249V78.7763C82.5827 78.8018 82.5725 78.8247 82.5547 78.8425C82.5369 78.8603 82.514 78.8705 82.4885 78.8705H80.8321C80.8066 78.8705 80.7837 78.8781 80.7659 78.8959C80.7481 78.9137 80.7379 78.9341 80.7379 78.9595V80.56C80.7379 80.5855 80.7481 80.6084 80.7659 80.6236C80.7837 80.6389 80.8066 80.6491 80.8321 80.6491H81.8117C81.8371 80.6491 81.86 80.6414 81.8753 80.6236C81.8906 80.6058 81.9008 80.5855 81.9008 80.56V79.6949C81.9008 79.6694 81.9084 79.6465 81.9287 79.6287C81.9491 79.6109 81.9695 79.6007 81.9949 79.6007H82.6819C82.7074 79.6007 82.7303 79.6109 82.7481 79.6287Z" fill="black"/>
<path d="M38.1272 54.2137C38.5751 54.4122 38.9593 54.6717 39.2824 54.9924C39.6056 55.3155 39.8651 55.6997 40.0636 56.145C40.2621 56.5929 40.3613 57.0636 40.3613 57.5623V75.7125C40.3613 75.8778 40.3028 76.0203 40.1883 76.1323C40.0738 76.2443 39.9338 76.3028 39.7659 76.3028H35.4249C35.257 76.3028 35.1221 76.2468 35.0178 76.1323C34.9135 76.0178 34.8626 75.8778 34.8626 75.7125V59.2137H31.3639V75.7125C31.3639 75.8778 31.3104 76.0203 31.2087 76.1323C31.1043 76.2468 30.9695 76.3028 30.8015 76.3028H26.8651C26.6972 76.3028 26.5573 76.2468 26.4427 76.1323C26.3282 76.0178 26.2697 75.8778 26.2697 75.7125V59.2137H22.771V75.7125C22.771 76.1069 22.5725 76.3053 22.1781 76.3053H17.8677C17.4707 76.3053 17.2748 76.1069 17.2748 75.7125V54.5089C17.2748 54.1145 17.4733 53.916 17.8677 53.916H36.7023C37.201 53.916 37.6743 54.0153 38.1221 54.2112L38.1272 54.2137Z" fill="#E73427"/>
<path d="M38.1272 54.2137C38.5751 54.4122 38.9593 54.6717 39.2824 54.9924C39.6056 55.3155 39.8651 55.6997 40.0636 56.145C40.2621 56.5929 40.3613 57.0636 40.3613 57.5623V59.1806L34.8651 59.2137H22.7786L17.2824 59.1806V54.5089C17.2824 54.1145 17.4809 53.916 17.8753 53.916H36.7099C37.2087 53.916 37.6819 54.0153 38.1298 54.2112L38.1272 54.2137Z" fill="#E73427"/>
<path d="M59.2901 70.8727C59.4656 70.8727 59.6107 70.9312 59.7201 71.0482C59.8295 71.1653 59.8855 71.3103 59.8855 71.4808V75.7022C59.8855 75.8727 59.8295 76.0177 59.7201 76.1347C59.6107 76.2518 59.4656 76.3103 59.2901 76.3103H44.4199C44 76.3103 43.7914 76.1068 43.7914 75.7022V54.5266C43.7914 54.122 44 53.9185 44.4199 53.9185H48.9847C49.4046 53.9185 49.6132 54.122 49.6132 54.5266V70.2976C49.6132 70.4681 49.6743 70.608 49.7964 70.7123C49.9186 70.8192 50.0662 70.8727 50.2443 70.8727H59.2901Z" fill="#1D539F"/>
<path d="M49.5674 76.3103H44.4198C44.0025 76.3103 43.7939 76.1068 43.7939 75.7022V54.5266C43.7939 54.122 44.0025 53.9185 44.4198 53.9185H48.9745C49.3918 53.9185 49.6005 54.122 49.6005 54.5266V70.2976C49.6005 70.4681 49.5674 76.3103 49.5674 76.3103Z" fill="#1D539F"/>
<path d="M82.145 53.9186C82.3231 53.9186 82.4733 53.9771 82.5954 54.0941C82.7176 54.2112 82.7786 54.3562 82.7786 54.5267V75.7633C82.7786 75.9338 82.7176 76.0789 82.5954 76.1959C82.4733 76.313 82.3231 76.3715 82.145 76.3715H77.5191C77.341 76.3715 77.1908 76.313 77.0687 76.1959C76.9466 76.0789 76.8855 75.9338 76.8855 75.7633V68.3537C76.8855 68.1832 76.8295 68.0432 76.7201 67.9364C76.6081 67.8295 76.4656 67.7761 76.2875 67.7761H69.799C69.6209 67.7761 69.4707 67.8295 69.3486 67.9364C69.2265 68.0432 69.1654 68.1832 69.1654 68.3537V75.7633C69.1654 76.1705 68.9542 76.374 68.5343 76.374H63.9415C63.5191 76.374 63.3104 76.1705 63.3104 75.7633V54.5267C63.3104 54.1196 63.5216 53.916 63.9415 53.916H68.5343C68.9542 53.916 69.1654 54.1196 69.1654 54.5267V61.7125C69.1654 62.1196 69.3766 62.3231 69.7964 62.3231H76.285C76.4631 62.3231 76.6056 62.2646 76.7175 62.1476C76.8295 62.0305 76.8829 61.8855 76.8829 61.715V54.5292C76.8829 54.3588 76.944 54.2137 77.0661 54.0967C77.1883 53.9796 77.3384 53.9211 77.5165 53.9211H82.1425L82.145 53.9186Z" fill="#F8B92A"/>
<path d="M69.1679 68.3537V75.7633C69.1679 76.1705 68.9567 76.374 68.5369 76.374H63.944C63.5216 76.374 63.313 76.1705 63.313 75.7633V54.5267C63.313 54.1196 63.5242 53.916 63.944 53.916H68.5369C68.9567 53.916 69.1679 54.1196 69.1679 54.5267V68.3537Z" fill="#F8B92A"/>
<path d="M82.145 53.9185C82.3232 53.9185 82.4733 53.977 82.5954 54.094C82.7176 54.2111 82.7786 54.3561 82.7786 54.5266V75.7632C82.7786 75.9337 82.7176 76.0788 82.5954 76.1958C82.4733 76.3129 82.3232 76.3714 82.145 76.3714H77.5191C77.341 76.3714 77.1908 76.3129 77.0687 76.1958C76.9466 76.0788 76.8855 75.9337 76.8855 75.7632V54.5266C76.8855 54.3561 76.9466 54.2111 77.0687 54.094C77.1908 53.977 77.341 53.9185 77.5191 53.9185H82.145Z" fill="#F8B92A"/>
<path d="M19.8346 162.244V164.827C19.8931 165.117 20.0662 165.262 20.3562 165.262H30.1018C30.257 165.262 30.3817 165.315 30.4784 165.422C30.5751 165.529 30.6234 165.659 30.6234 165.814V169.323C30.6234 169.478 30.5751 169.608 30.4784 169.715C30.3817 169.822 30.257 169.875 30.1018 169.875H15.8295C15.4631 169.875 15.2774 169.692 15.2774 169.323V161.028C15.2774 160.565 15.3639 160.13 15.5394 159.723C15.715 159.315 15.9542 158.959 16.2646 158.649C16.5751 158.338 16.9364 158.097 17.3537 157.924C17.7685 157.751 18.2087 157.662 18.6743 157.662H25.5496C25.7048 157.662 25.8346 157.608 25.9415 157.501C26.0484 157.394 26.1018 157.265 26.1018 157.109V154.761C26.1018 154.606 26.0484 154.476 25.9415 154.369C25.8346 154.262 25.7048 154.209 25.5496 154.209H16.4402C16.285 154.209 16.1603 154.16 16.0636 154.064C15.9669 153.967 15.9186 153.842 15.9186 153.687V150.12C15.9186 149.964 15.9669 149.835 16.0636 149.728C16.1603 149.621 16.285 149.567 16.4402 149.567H27.2595C27.7227 149.567 28.1578 149.659 28.5649 149.842C28.972 150.025 29.3283 150.267 29.6387 150.567C29.9466 150.868 30.1908 151.224 30.3639 151.641C30.5369 152.058 30.626 152.496 30.626 152.962V153.773C30.6438 153.794 30.654 153.822 30.654 153.86V161.257C30.654 161.412 30.6005 161.537 30.4936 161.634C30.3868 161.73 30.257 161.779 30.1018 161.779H20.3562C20.084 161.779 19.9109 161.934 19.8346 162.242V162.244Z" fill="black"/>
<path d="M45.7964 149.57C46.2595 149.57 46.6997 149.661 47.117 149.845C47.5318 150.028 47.8906 150.27 48.1908 150.57C48.4911 150.87 48.7328 151.226 48.916 151.644C49.0992 152.061 49.1908 152.499 49.1908 152.964V166.481C49.1908 166.944 49.0992 167.384 48.916 167.801C48.7328 168.219 48.4911 168.58 48.1908 168.888C47.8906 169.198 47.5343 169.44 47.117 169.613C46.6997 169.786 46.2621 169.875 45.7964 169.875H37.0662C36.603 169.875 36.1628 169.789 35.7455 169.613C35.3282 169.44 34.9669 169.198 34.659 168.888C34.3486 168.58 34.1069 168.216 33.9338 167.801C33.7608 167.387 33.6718 166.946 33.6718 166.481V152.964C33.6718 152.501 33.7583 152.061 33.9338 151.644C34.1069 151.229 34.3486 150.87 34.659 150.57C34.9669 150.27 35.3308 150.028 35.7455 149.845C36.1603 149.661 36.6005 149.57 37.0662 149.57H45.7964ZM44.2595 154.501H38.6031V164.944H44.2595V154.501Z" fill="black"/>
<path d="M56.7023 162.244V164.827C56.7608 165.117 56.9338 165.262 57.2239 165.262H66.9695C67.1247 165.262 67.2494 165.315 67.3461 165.422C67.4427 165.529 67.4911 165.659 67.4911 165.814V169.323C67.4911 169.478 67.4427 169.608 67.3461 169.715C67.2494 169.822 67.1247 169.875 66.9695 169.875H52.6972C52.3308 169.875 52.145 169.692 52.145 169.323V161.028C52.145 160.565 52.2316 160.13 52.4071 159.723C52.5802 159.315 52.8219 158.959 53.1323 158.649C53.4427 158.338 53.8041 158.097 54.2188 157.924C54.6336 157.751 55.0738 157.662 55.5394 157.662H62.4148C62.57 157.662 62.6997 157.608 62.8066 157.501C62.9135 157.394 62.9669 157.265 62.9669 157.109V154.761C62.9669 154.606 62.9135 154.476 62.8066 154.369C62.6997 154.262 62.57 154.209 62.4148 154.209H53.3053C53.1501 154.209 53.0254 154.16 52.9288 154.064C52.8321 153.967 52.7837 153.842 52.7837 153.687V150.12C52.7837 149.964 52.8321 149.835 52.9288 149.728C53.0254 149.621 53.1501 149.567 53.3053 149.567H64.1247C64.5878 149.567 65.0229 149.659 65.43 149.842C65.8372 150.025 66.1934 150.267 66.5038 150.567C66.8142 150.868 67.056 151.224 67.229 151.641C67.402 152.058 67.4911 152.496 67.4911 152.962V153.773C67.5089 153.794 67.5191 153.822 67.5191 153.86V161.257C67.5191 161.412 67.4656 161.537 67.3588 161.634C67.2519 161.73 67.1221 161.779 66.9669 161.779H57.2214C56.9491 161.779 56.7761 161.934 56.6997 162.242L56.7023 162.244Z" fill="black"/>
<path d="M82.6349 157.462C83.0957 157.462 83.5277 157.548 83.931 157.721C84.3534 157.893 84.7089 158.132 84.9969 158.438C85.3041 158.745 85.5443 159.099 85.7171 159.501C85.9092 159.903 86.0051 160.334 86.0051 160.793V166.192C86.0051 166.651 85.9092 167.092 85.7171 167.513C85.5443 167.915 85.3041 168.269 84.9969 168.576C84.7089 168.882 84.3534 169.121 83.931 169.293C83.5277 169.466 83.0957 169.552 82.6349 169.552H71.2852C71.1316 169.552 70.9972 169.504 70.8819 169.408C70.786 169.293 70.7379 169.16 70.7379 169.006V165.532C70.7379 165.378 70.786 165.254 70.8819 165.158C70.9972 165.043 71.1316 164.986 71.2852 164.986H80.9641C81.1176 164.986 81.2425 164.938 81.3384 164.842C81.4346 164.747 81.4824 164.622 81.4824 164.469V162.086C81.4824 161.932 81.4346 161.808 81.3384 161.712C81.2425 161.598 81.1176 161.54 80.9641 161.54H71.2852C71.1316 161.54 70.9972 161.492 70.8819 161.397C70.786 161.301 70.7379 161.176 70.7379 161.023V149.996C70.7379 149.632 70.9204 149.45 71.2852 149.45H84.8529C85.0064 149.45 85.1313 149.508 85.2272 149.622C85.3234 149.718 85.3712 149.843 85.3712 149.996V153.528C85.3712 153.681 85.3234 153.806 85.2272 153.901C85.1313 153.997 85.0064 154.045 84.8529 154.045H75.8079C75.6542 154.045 75.5196 154.102 75.4046 154.217C75.3084 154.313 75.2606 154.437 75.2606 154.59V156.917C75.2606 157.07 75.3084 157.204 75.4046 157.319C75.5196 157.414 75.6542 157.462 75.8079 157.462H82.6349Z" fill="black"/>
</g>
</g>
<defs>
<linearGradient id="paint0_linear_1760_5407" x1="49.7456" y1="-2" x2="49.7456" y2="38" gradientUnits="userSpaceOnUse">
<stop/>
<stop offset="0.94" stop-color="#F7F7F7"/>
</linearGradient>
<clipPath id="clip0_1760_5407">
<rect width="100" height="216" fill="white" transform="translate(0 -2)"/>
</clipPath>
</defs>
</svg>
