<svg width="182" height="77" viewBox="0 0 182 77" fill="none" xmlns="http://www.w3.org/2000/svg">
<g clip-path="url(#clip0_6995_1472)">
<path d="M9.8471 67.5197C10.1327 67.6435 10.3766 67.8469 10.5497 68.1055C10.7228 68.3642 10.8178 68.6672 10.8234 68.9784V76.6609C10.8219 76.7292 10.7937 76.7943 10.7448 76.842C10.6959 76.8898 10.6302 76.9166 10.5619 76.9166H8.66741C8.63505 76.9181 8.60275 76.9126 8.57268 76.9006C8.5426 76.8886 8.51546 76.8702 8.49307 76.8468C8.44731 76.7958 8.42242 76.7294 8.42333 76.6609V69.6873H6.89496V76.6609C6.89556 76.7276 6.87061 76.7921 6.82523 76.841C6.80486 76.8673 6.77821 76.8879 6.74774 76.9011C6.71726 76.9143 6.68396 76.9197 6.65089 76.9166H4.9075C4.83969 76.9166 4.77465 76.8896 4.7267 76.8417C4.67875 76.7937 4.65181 76.7287 4.65181 76.6609V69.6873H3.1525V76.6609C3.1608 76.7202 3.14529 76.7804 3.10936 76.8283C3.07342 76.8762 3.01999 76.9079 2.96072 76.9166H1.01394C0.955634 76.9253 0.896185 76.9116 0.847632 76.8781C0.799078 76.8447 0.765049 76.794 0.752434 76.7364V67.6476C0.74413 67.5883 0.759639 67.5281 0.795573 67.4802C0.831507 67.4323 0.884943 67.4005 0.944207 67.3919H9.21948C9.43555 67.3877 9.64989 67.4313 9.8471 67.5197Z" fill="white"/>
<path d="M19.3486 67.3924C19.6644 67.3905 19.9738 67.4822 20.2375 67.656C20.5012 67.8297 20.7076 68.0778 20.8305 68.3687C20.9185 68.5621 20.9641 68.7722 20.9641 68.9847V76.6672C20.9657 76.7002 20.9606 76.7332 20.949 76.7642C20.9374 76.7952 20.9197 76.8235 20.8969 76.8474C20.8741 76.8713 20.8466 76.8903 20.8162 76.9033C20.7858 76.9163 20.7531 76.923 20.7201 76.9229H18.814C18.7456 76.9229 18.6799 76.8962 18.6311 76.8484C18.5822 76.8006 18.554 76.7356 18.5524 76.6672V74.2265C18.5552 74.1604 18.5323 74.0959 18.4885 74.0463C18.4663 74.0208 18.4385 74.0007 18.4073 73.9876C18.376 73.9745 18.3422 73.9687 18.3084 73.9708H15.6119C15.5436 73.9708 15.4779 73.9975 15.429 74.0453C15.3802 74.0931 15.352 74.1581 15.3504 74.2265V76.6672C15.3554 76.6963 15.3545 76.726 15.3478 76.7547C15.3411 76.7834 15.3287 76.8104 15.3113 76.8343C15.294 76.8581 15.2721 76.8782 15.2469 76.8934C15.2216 76.9087 15.1936 76.9187 15.1645 76.9229H13.2177C13.1882 76.9288 13.1579 76.9285 13.1285 76.9222C13.0991 76.9159 13.0714 76.9037 13.0469 76.8863C13.0224 76.8688 13.0017 76.8466 12.9861 76.821C12.9706 76.7953 12.9604 76.7667 12.9562 76.737V68.9847C12.9557 68.7733 12.9972 68.564 13.0782 68.3687C13.1541 68.1703 13.2709 67.9901 13.4211 67.8399C13.5743 67.6935 13.7537 67.5772 13.9499 67.497C14.1439 67.4113 14.3538 67.3677 14.5659 67.3692L19.3486 67.3924ZM18.5292 71.931V69.531H15.333V71.9252L18.5292 71.931Z" fill="white"/>
<path d="M29.53 67.4677C29.5559 67.4897 29.5763 67.5174 29.5894 67.5487C29.6026 67.5801 29.6081 67.614 29.6056 67.6479V75.342C29.607 75.5541 29.5634 75.7641 29.4777 75.958C29.3965 76.1537 29.2803 76.3329 29.1349 76.4869C28.9878 76.6382 28.8093 76.7553 28.6118 76.8297C28.4146 76.9108 28.2033 76.9522 27.99 76.9518H23.9221C23.7089 76.9522 23.4976 76.9108 23.3003 76.8297C23.008 76.7071 22.7589 76.5 22.585 76.235C22.411 75.9699 22.3202 75.659 22.324 75.342V72.4364C22.3156 72.3764 22.331 72.3155 22.3668 72.2667C22.4026 72.2178 22.4561 72.1849 22.5158 72.1749H24.4626C24.5223 72.1679 24.5825 72.1838 24.631 72.2194C24.6795 72.255 24.7128 72.3076 24.7241 72.3667V74.3832C24.7225 74.4164 24.7279 74.4496 24.7399 74.4806C24.7519 74.5117 24.7703 74.5398 24.7938 74.5633C24.8454 74.6075 24.9119 74.6303 24.9798 74.6272H26.9556C27.0217 74.63 27.0862 74.6071 27.1358 74.5633C27.1613 74.5411 27.1815 74.5133 27.1946 74.4821C27.2077 74.4508 27.2134 74.417 27.2113 74.3832V67.6479C27.2107 67.5811 27.2357 67.5167 27.2811 67.4677C27.303 67.4418 27.3307 67.4215 27.3621 67.4083C27.3934 67.3952 27.4273 67.3897 27.4612 67.3922H29.3557C29.3885 67.3914 29.4211 67.3978 29.4512 67.4108C29.4813 67.4239 29.5082 67.4433 29.53 67.4677Z" fill="white"/>
<path d="M38.1484 67.3926C38.3604 67.3912 38.5704 67.4348 38.7644 67.5205C38.9545 67.5983 39.127 67.7135 39.2718 67.8592C39.4165 68.005 39.5305 68.1783 39.607 68.3689C39.6951 68.5623 39.7406 68.7724 39.7407 68.9849V75.3134C39.74 75.5277 39.6945 75.7395 39.607 75.9352C39.5296 76.1297 39.4151 76.3074 39.27 76.4582C39.1208 76.6097 38.9403 76.7267 38.7411 76.8011C38.5469 76.8855 38.3368 76.9271 38.1251 76.9231H33.325C33.115 76.9232 32.9072 76.8797 32.7148 76.7953C32.4266 76.6768 32.18 76.4756 32.0062 76.217C31.8325 75.9584 31.7393 75.654 31.7385 75.3424V69.014C31.7381 68.8007 31.7795 68.5894 31.8606 68.3922C31.933 68.1951 32.0481 68.0165 32.1976 67.8691C32.3509 67.7227 32.5302 67.6064 32.7264 67.5263C32.9203 67.4401 33.1303 67.3965 33.3424 67.3984L38.1484 67.3926ZM37.329 69.7171H34.1328V74.6219H37.3639L37.329 69.7171Z" fill="white"/>
<path d="M50.1835 76.7081C50.2009 76.7305 50.2104 76.7581 50.2104 76.7865C50.2104 76.8149 50.2009 76.8425 50.1835 76.865C50.1672 76.8876 50.1451 76.9054 50.1196 76.9167C50.094 76.9279 50.0659 76.9321 50.0382 76.9289H47.8764C47.8002 76.9282 47.7257 76.906 47.6614 76.865C47.5922 76.8287 47.534 76.7745 47.4929 76.7081L46.0807 74.1221C46.0715 74.1044 46.0571 74.0899 46.0395 74.0806C46.0218 74.0713 46.0018 74.0675 45.982 74.0698H44.3374C44.3297 74.0681 44.3218 74.0679 44.3141 74.0694C44.3064 74.0708 44.2991 74.0738 44.2926 74.0781C44.2861 74.0825 44.2805 74.0881 44.2762 74.0946C44.2719 74.1012 44.269 74.1085 44.2676 74.1162V76.65C44.2717 76.6794 44.2697 76.7094 44.2619 76.7381C44.2541 76.7668 44.2405 76.7937 44.2221 76.817C44.2036 76.8403 44.1806 76.8597 44.1545 76.874C44.1284 76.8882 44.0997 76.897 44.07 76.8998H42.1349C42.0764 76.9083 42.017 76.8935 41.9693 76.8588C41.9215 76.8241 41.8892 76.7721 41.8792 76.7139C41.8733 76.691 41.8733 76.667 41.8792 76.6442V67.6483C41.8742 67.6192 41.8751 67.5895 41.8818 67.5608C41.8886 67.5321 41.9009 67.5051 41.9183 67.4812C41.9356 67.4574 41.9575 67.4373 41.9828 67.4221C42.008 67.4068 42.036 67.3968 42.0651 67.3926H48.2948C48.5068 67.3919 48.7167 67.4354 48.9108 67.5204C49.2899 67.6851 49.5915 67.9887 49.7535 68.3689C49.8392 68.5629 49.8828 68.7728 49.8813 68.9849V72.5646C49.8834 72.9017 49.7753 73.2303 49.5733 73.5002C49.384 73.7761 49.1078 73.9806 48.7888 74.0814H48.7481C48.6842 74.0814 48.6668 74.1279 48.7016 74.1627L50.1835 76.7081ZM47.4755 69.6125H44.1921V71.937H47.4755V69.6125Z" fill="white"/>
<path d="M63.0029 74.6104C63.0362 74.6081 63.0696 74.6131 63.1007 74.6251C63.1319 74.6372 63.16 74.656 63.183 74.6802C63.2288 74.7312 63.2537 74.7976 63.2528 74.8661V76.6676C63.2534 76.7344 63.2284 76.7988 63.183 76.8478C63.1611 76.8737 63.1333 76.8941 63.102 76.9072C63.0707 76.9203 63.0367 76.9259 63.0029 76.9233H57.1219C57.0627 76.9319 57.0026 76.9173 56.9539 76.8827C56.9052 76.8481 56.8717 76.796 56.8603 76.7374V67.6485C56.852 67.5892 56.8675 67.529 56.9035 67.4811C56.9394 67.4332 56.9929 67.4015 57.0521 67.3928H58.9989C59.0582 67.3845 59.1184 67.4 59.1663 67.436C59.2142 67.4719 59.246 67.5253 59.2546 67.5846C59.2606 67.6055 59.2606 67.6276 59.2546 67.6485V74.3664C59.2534 74.4001 59.2595 74.4336 59.2725 74.4648C59.2856 74.4959 59.3052 74.5238 59.3301 74.5465C59.3812 74.5923 59.4476 74.6172 59.5161 74.6162L63.0029 74.6104Z" fill="white"/>
<path d="M71.813 67.4681C71.8379 67.4909 71.8576 67.5188 71.8706 67.5499C71.8837 67.581 71.8898 67.6146 71.8886 67.6483V69.3626C71.8911 69.3965 71.8855 69.4304 71.8724 69.4618C71.8593 69.4931 71.8389 69.5208 71.813 69.5428C71.7641 69.5881 71.6996 69.6131 71.6329 69.6125H67.0652C67.0579 69.6108 67.0503 69.6107 67.043 69.6122C67.0356 69.6137 67.0287 69.6167 67.0226 69.6211C67.0165 69.6255 67.0115 69.6312 67.0078 69.6377C67.0041 69.6443 67.0019 69.6515 67.0013 69.659V71.1409C67.0013 71.1757 67.0013 71.1932 67.0652 71.1932H70.9587C70.9916 71.1916 71.0245 71.1975 71.0547 71.2106C71.0849 71.2237 71.1118 71.2436 71.1331 71.2687C71.1785 71.3177 71.2034 71.3821 71.2028 71.4489V72.8145C71.2034 72.8813 71.1785 72.9457 71.1331 72.9947C71.1118 73.0198 71.0849 73.0396 71.0547 73.0527C71.0245 73.0658 70.9916 73.0718 70.9587 73.0702H67.0652C67.0506 73.0685 67.036 73.0723 67.0241 73.0809C67.0122 73.0895 67.0041 73.1023 67.0013 73.1167V74.5869C66.9986 74.5942 66.9975 74.6019 66.9982 74.6096C66.9989 74.6173 67.0013 74.6247 67.0051 74.6314C67.009 74.6381 67.0144 74.6438 67.0207 74.6482C67.0271 74.6525 67.0343 74.6554 67.0419 74.6567H71.6503C71.7171 74.6567 71.7813 74.6828 71.8291 74.7295C71.8769 74.7762 71.9045 74.8398 71.906 74.9066V76.65C71.9068 76.6833 71.9009 76.7164 71.8887 76.7474C71.8764 76.7784 71.8582 76.8066 71.8349 76.8304C71.8116 76.8542 71.7838 76.8732 71.7531 76.8861C71.7224 76.899 71.6894 76.9057 71.6561 76.9057H64.8627C64.8036 76.9142 64.7434 76.8997 64.6947 76.865C64.646 76.8304 64.6125 76.7784 64.6012 76.7197V67.6483C64.6027 67.5799 64.6309 67.5149 64.6798 67.4671C64.7287 67.4193 64.7943 67.3926 64.8627 67.3926H71.6503C71.7121 67.3962 71.7703 67.4232 71.813 67.4681Z" fill="white"/>
<path d="M80.4543 67.3924C80.6682 67.3906 80.8802 67.4341 81.0761 67.5203C81.4594 67.6776 81.7645 67.9807 81.9245 68.3629C82.0107 68.5567 82.0543 68.7668 82.0524 68.9789V76.6615C82.0539 76.6945 82.0488 76.7275 82.0372 76.7584C82.0257 76.7894 82.0079 76.8177 81.9851 76.8416C81.9623 76.8655 81.9348 76.8845 81.9045 76.8975C81.8741 76.9105 81.8413 76.9172 81.8083 76.9171H79.8848C79.8169 76.9171 79.7519 76.8902 79.7039 76.8423C79.656 76.7943 79.6291 76.7293 79.6291 76.6615V74.2207C79.6297 74.154 79.6047 74.0895 79.5593 74.0406C79.5374 74.0146 79.5096 73.9943 79.4783 73.9811C79.447 73.968 79.413 73.9625 79.3792 73.965H76.7234C76.6551 73.965 76.5894 73.9917 76.5405 74.0395C76.4916 74.0873 76.4634 74.1524 76.4619 74.2207V76.6615C76.4702 76.7208 76.4547 76.7809 76.4188 76.8289C76.3828 76.8768 76.3294 76.9085 76.2701 76.9171H74.3234C74.2943 76.9221 74.2646 76.9212 74.2359 76.9145C74.2072 76.9078 74.1801 76.8954 74.1563 76.8781C74.1325 76.8607 74.1124 76.8388 74.0971 76.8136C74.0819 76.7884 74.0719 76.7603 74.0677 76.7312C74.0618 76.7083 74.0618 76.6843 74.0677 76.6615V68.9847C74.0672 68.7734 74.1087 68.564 74.1897 68.3687C74.2655 68.1703 74.3824 67.9901 74.5326 67.8399C74.6858 67.6935 74.8652 67.5772 75.0614 67.4971C75.2552 67.4108 75.4653 67.3672 75.6774 67.3692L80.4543 67.3924ZM79.6407 71.9311V69.531H76.4387V71.9253L79.6407 71.9311Z" fill="white"/>
<path d="M92.1058 71.7977C92.1301 71.8218 92.1489 71.851 92.161 71.883C92.173 71.9151 92.178 71.9495 92.1755 71.9836V75.3426C92.177 75.5546 92.1334 75.7646 92.0477 75.9586C91.966 76.1526 91.852 76.3314 91.7106 76.4874C91.5604 76.6376 91.3802 76.7544 91.1818 76.8303C90.9864 76.9108 90.7772 76.9523 90.5658 76.9523H85.7425C85.5331 76.9531 85.3257 76.9124 85.1322 76.8326C84.9387 76.7529 84.7628 76.6356 84.6148 76.4876C84.4668 76.3396 84.3496 76.1638 84.2698 75.9702C84.1901 75.7767 84.1494 75.5693 84.1502 75.36V69.0257C84.1502 68.8144 84.1916 68.6051 84.2722 68.4097C84.3437 68.2105 84.4588 68.0298 84.6093 67.8809C84.7615 67.736 84.9387 67.6198 85.1323 67.538C85.3292 67.4551 85.5404 67.4117 85.7541 67.4102H91.4085C91.4778 67.4102 91.5443 67.4377 91.5934 67.4868C91.6424 67.5358 91.67 67.6023 91.67 67.6717V69.4674C91.67 69.5367 91.6424 69.6032 91.5934 69.6523C91.5443 69.7013 91.4778 69.7289 91.4085 69.7289H86.8466C86.7781 69.7279 86.7117 69.7528 86.6606 69.7986C86.6126 69.8463 86.5854 69.9111 86.5851 69.9787V74.3895C86.5854 74.4221 86.5922 74.4544 86.6052 74.4843C86.6182 74.5143 86.637 74.5413 86.6606 74.5639C86.6852 74.5876 86.7144 74.606 86.7464 74.618C86.7784 74.63 86.8125 74.6353 86.8466 74.6336H89.543C89.5736 74.6351 89.6041 74.6307 89.6329 74.6204C89.6617 74.6102 89.6882 74.5943 89.7109 74.5738C89.7336 74.5533 89.752 74.5285 89.765 74.5009C89.7781 74.4732 89.7856 74.4433 89.7871 74.4128V72.0069C89.7855 71.9739 89.7907 71.9409 89.8022 71.9099C89.8138 71.8789 89.8315 71.8506 89.8543 71.8267C89.8772 71.8028 89.9046 71.7838 89.935 71.7708C89.9654 71.7578 89.9981 71.7512 90.0312 71.7512H91.9373C91.9972 71.7459 92.0571 71.7624 92.1058 71.7977Z" fill="white"/>
<path d="M102.154 67.4683C102.202 67.516 102.229 67.5808 102.229 67.6485V75.3426C102.229 75.5551 102.183 75.765 102.095 75.9586C102.016 76.1538 101.902 76.333 101.758 76.4874C101.608 76.6376 101.428 76.7545 101.23 76.8303C101.032 76.9113 100.821 76.9528 100.608 76.9524H95.7844C95.5731 76.9524 95.3638 76.9109 95.1684 76.8303C94.784 76.6697 94.4774 76.3652 94.3142 75.9819C94.2331 75.7846 94.1917 75.5733 94.1921 75.3601V67.6485C94.1838 67.5892 94.1993 67.529 94.2353 67.4811C94.2712 67.4332 94.3246 67.4014 94.3839 67.3928H96.3307C96.39 67.3845 96.4502 67.4 96.4981 67.4359C96.546 67.4719 96.5778 67.5253 96.5864 67.5846C96.5924 67.6054 96.5924 67.6276 96.5864 67.6485V74.3663C96.5852 74.4 96.5913 74.4336 96.6043 74.4647C96.6174 74.4958 96.637 74.5237 96.6619 74.5465C96.713 74.5922 96.7794 74.6171 96.8479 74.6162H99.5443C99.5766 74.6167 99.6086 74.6107 99.6385 74.5988C99.6684 74.5868 99.6957 74.569 99.7187 74.5465C99.7435 74.524 99.7628 74.496 99.7749 74.4647C99.787 74.4334 99.7916 74.3997 99.7884 74.3663V67.6485C99.7899 67.5801 99.8181 67.5151 99.867 67.4673C99.9159 67.4195 99.9815 67.3928 100.05 67.3928H101.944C101.983 67.3863 102.022 67.3899 102.059 67.4031C102.096 67.4164 102.128 67.4388 102.154 67.4683Z" fill="white"/>
<path d="M111.591 67.4673C111.639 67.515 111.666 67.5798 111.667 67.6475V69.3618C111.668 69.3955 111.662 69.4291 111.649 69.4602C111.636 69.4913 111.616 69.5192 111.591 69.542C111.54 69.5877 111.474 69.6126 111.405 69.6117H106.843C106.836 69.61 106.828 69.6099 106.82 69.6113C106.812 69.6128 106.805 69.6157 106.799 69.6201C106.792 69.6244 106.787 69.63 106.782 69.6366C106.778 69.6431 106.775 69.6505 106.774 69.6582V71.1633C106.774 71.1982 106.774 71.2156 106.843 71.2156H110.737C110.77 71.2148 110.802 71.2212 110.832 71.2342C110.863 71.2473 110.889 71.2667 110.911 71.2911C110.957 71.3401 110.982 71.4045 110.981 71.4713V72.837C110.982 72.9037 110.957 72.9682 110.911 73.0171C110.889 73.0416 110.863 73.061 110.832 73.074C110.802 73.0871 110.77 73.0934 110.737 73.0926H106.843C106.828 73.0907 106.813 73.0943 106.8 73.1029C106.787 73.1114 106.778 73.1243 106.774 73.1391V74.6326C106.772 74.6403 106.772 74.6482 106.773 74.6559C106.775 74.6636 106.778 74.6709 106.782 74.6774C106.786 74.6839 106.792 74.6895 106.799 74.6938C106.805 74.6981 106.812 74.701 106.82 74.7024H111.405C111.473 74.7023 111.537 74.7283 111.586 74.7748C111.635 74.8214 111.664 74.8849 111.667 74.9523V76.6956C111.667 76.7625 111.641 76.8266 111.594 76.8744C111.547 76.9222 111.484 76.9498 111.417 76.9513H104.641C104.612 76.9563 104.581 76.9555 104.552 76.9488C104.523 76.9422 104.496 76.9299 104.472 76.9126C104.447 76.8953 104.427 76.8734 104.411 76.8482C104.395 76.8229 104.384 76.7948 104.379 76.7654C104.374 76.7425 104.374 76.7185 104.379 76.6956V67.6475C104.381 67.5791 104.409 67.5141 104.458 67.4663C104.507 67.4185 104.573 67.3918 104.641 67.3918H111.405C111.44 67.3905 111.474 67.3965 111.506 67.4096C111.538 67.4226 111.567 67.4423 111.591 67.4673Z" fill="white"/>
<path d="M126.206 67.3916C126.239 67.39 126.272 67.3951 126.303 67.4067C126.334 67.4182 126.363 67.436 126.386 67.4588C126.41 67.4816 126.429 67.5091 126.442 67.5395C126.455 67.5699 126.462 67.6026 126.462 67.6356V76.6664C126.463 76.6997 126.457 76.7328 126.445 76.7638C126.432 76.7948 126.414 76.823 126.391 76.8468C126.368 76.8707 126.34 76.8896 126.309 76.9025C126.278 76.9154 126.245 76.9221 126.212 76.9221H124.312C124.243 76.9221 124.178 76.8953 124.129 76.8475C124.08 76.7997 124.052 76.7347 124.05 76.6664V73.4992C124.052 73.4687 124.047 73.4381 124.037 73.4093C124.027 73.3805 124.011 73.354 123.991 73.3314C123.97 73.3087 123.945 73.2903 123.918 73.2772C123.89 73.2641 123.86 73.2566 123.829 73.2551H121.116C121.047 73.253 120.98 73.2781 120.93 73.3249C120.904 73.3468 120.883 73.3746 120.87 73.4059C120.857 73.4372 120.852 73.4712 120.854 73.505V76.6722C120.862 76.7315 120.847 76.7917 120.811 76.8396C120.775 76.8875 120.722 76.9192 120.662 76.9279C120.641 76.9335 120.619 76.9335 120.598 76.9279H118.721C118.662 76.9362 118.602 76.9207 118.554 76.8847C118.506 76.8488 118.474 76.7954 118.466 76.7361C118.46 76.7152 118.46 76.6931 118.466 76.6722V67.6473C118.457 67.5879 118.473 67.5278 118.509 67.4798C118.545 67.4319 118.598 67.4002 118.657 67.3916H120.604C120.664 67.3833 120.724 67.3988 120.772 67.4347C120.82 67.4706 120.851 67.5241 120.86 67.5833C120.866 67.6042 120.866 67.6264 120.86 67.6473V70.6924C120.852 70.7517 120.867 70.8119 120.903 70.8598C120.939 70.9077 120.992 70.9394 121.052 70.9481H123.812C123.845 70.9504 123.879 70.9454 123.91 70.9333C123.941 70.9213 123.969 70.9025 123.992 70.8783C124.038 70.8273 124.063 70.7609 124.062 70.6924V67.6414C124.063 67.5731 124.092 67.5081 124.141 67.4603C124.189 67.4125 124.255 67.3857 124.323 67.3857H126.212L126.206 67.3916Z" fill="white"/>
<path d="M135.028 67.3924C135.242 67.3905 135.454 67.4341 135.65 67.5202C136.033 67.6776 136.338 67.9807 136.498 68.3629C136.584 68.5567 136.628 68.7668 136.626 68.9789V76.6614C136.628 76.6944 136.622 76.7274 136.611 76.7584C136.599 76.7893 136.582 76.8176 136.559 76.8415C136.536 76.8655 136.508 76.8845 136.478 76.8975C136.448 76.9104 136.415 76.9171 136.382 76.9171H134.476C134.408 76.9171 134.343 76.8901 134.295 76.8422C134.247 76.7942 134.22 76.7292 134.22 76.6614V74.2207C134.221 74.1539 134.196 74.0895 134.15 74.0405C134.128 74.0146 134.101 73.9942 134.069 73.9811C134.038 73.968 134.004 73.9624 133.97 73.965H131.268C131.2 73.965 131.135 73.9919 131.087 74.0398C131.039 74.0878 131.012 74.1528 131.012 74.2207V76.6614C131.021 76.7207 131.005 76.7809 130.969 76.8288C130.933 76.8767 130.88 76.9085 130.82 76.9171H128.874C128.844 76.9221 128.814 76.9212 128.785 76.9146C128.756 76.9079 128.729 76.8956 128.704 76.8784C128.68 76.8611 128.659 76.8392 128.644 76.8139C128.628 76.7887 128.617 76.7605 128.612 76.7311V68.9847C128.612 68.7733 128.653 68.5639 128.734 68.3687C128.81 68.1703 128.927 67.9901 129.077 67.8399C129.231 67.6944 129.41 67.5782 129.606 67.497C129.8 67.412 130.01 67.3684 130.222 67.3691L135.028 67.3924ZM134.214 71.931V69.5309H131.012V71.9252L134.214 71.931Z" fill="white"/>
<path d="M141.2 69.7751C141.175 69.7982 141.157 69.8263 141.145 69.8574C141.133 69.8885 141.128 69.922 141.13 69.9553V74.366C141.128 74.3994 141.133 74.4328 141.145 74.4639C141.157 74.4951 141.175 74.5232 141.2 74.5462C141.251 74.5919 141.317 74.6168 141.386 74.6159H145.761C145.795 74.6144 145.828 74.6195 145.858 74.6311C145.889 74.6426 145.918 74.6604 145.942 74.6832C145.966 74.706 145.985 74.7334 145.998 74.7638C146.011 74.7942 146.017 74.8269 146.017 74.86V76.6731C146.019 76.7061 146.014 76.7391 146.002 76.7701C145.991 76.8011 145.973 76.8294 145.95 76.8533C145.927 76.8772 145.9 76.8962 145.869 76.9092C145.839 76.9222 145.806 76.9289 145.773 76.9288H140.328C140.116 76.9299 139.907 76.8884 139.712 76.8068C139.514 76.7309 139.333 76.6141 139.183 76.4639C138.888 76.149 138.724 75.7334 138.724 75.3017V68.9906C138.723 68.7792 138.764 68.5697 138.846 68.3746C138.918 68.1754 139.033 67.9947 139.183 67.8458C139.336 67.6994 139.516 67.5831 139.712 67.5029C139.906 67.4167 140.116 67.3731 140.328 67.3751H145.761C145.828 67.375 145.892 67.4012 145.94 67.4479C145.988 67.4946 146.016 67.5581 146.017 67.6249V69.4323C146.019 69.4991 145.994 69.5639 145.949 69.6128C145.903 69.6617 145.84 69.6907 145.773 69.6938H141.386C141.351 69.6942 141.316 69.7017 141.284 69.7157C141.252 69.7296 141.224 69.7499 141.2 69.7751Z" fill="white"/>
<path d="M153.589 71.4084C153.578 71.4212 153.572 71.4377 153.572 71.4549C153.572 71.4721 153.578 71.4886 153.589 71.5014L156.751 76.7315C156.768 76.754 156.778 76.7816 156.778 76.81C156.778 76.8384 156.768 76.866 156.751 76.8885C156.734 76.9111 156.712 76.9289 156.687 76.9401C156.661 76.9514 156.633 76.9556 156.605 76.9524H154.339C154.263 76.9516 154.188 76.9295 154.124 76.8885C154.055 76.8537 153.998 76.799 153.961 76.7315L151.921 73.0181C151.921 72.9658 151.869 72.9658 151.852 73.0181L150.724 74.2559C150.671 74.3124 150.632 74.3799 150.608 74.4535C150.578 74.5274 150.562 74.6063 150.562 74.686V76.7025C150.569 76.7622 150.553 76.8224 150.517 76.8709C150.482 76.9194 150.429 76.9527 150.37 76.964H148.464C148.404 76.9723 148.344 76.9568 148.296 76.9209C148.248 76.8849 148.217 76.8315 148.208 76.7722C148.202 76.7494 148.202 76.7254 148.208 76.7025V67.6485C148.2 67.5892 148.215 67.529 148.251 67.4811C148.287 67.4332 148.341 67.4015 148.4 67.3928H150.347C150.406 67.3845 150.466 67.4 150.514 67.436C150.562 67.4719 150.594 67.5253 150.602 67.5846C150.608 67.6055 150.608 67.6276 150.602 67.6485V71.7164L154.118 67.602C154.158 67.5407 154.209 67.4874 154.269 67.4451C154.342 67.4106 154.421 67.3927 154.502 67.3928H156.762C156.838 67.3928 156.878 67.3928 156.896 67.4451C156.913 67.4974 156.896 67.5323 156.849 67.5846L153.589 71.4084Z" fill="white"/>
<path d="M160.94 76.6676C160.945 76.6967 160.945 76.7264 160.938 76.7551C160.931 76.7838 160.919 76.8108 160.901 76.8347C160.884 76.8585 160.862 76.8786 160.837 76.8938C160.812 76.9091 160.784 76.9191 160.755 76.9233H158.819C158.79 76.9283 158.76 76.9275 158.731 76.9208C158.702 76.9142 158.674 76.9019 158.65 76.8846C158.626 76.8673 158.605 76.8454 158.589 76.8202C158.573 76.7949 158.563 76.7668 158.558 76.7374V67.6485C158.55 67.5892 158.565 67.529 158.601 67.4811C158.637 67.4332 158.69 67.4015 158.75 67.3928H160.696C160.756 67.3845 160.816 67.4 160.864 67.436C160.912 67.4719 160.943 67.5253 160.952 67.5846C160.958 67.6055 160.958 67.6276 160.952 67.6485L160.94 76.6676Z" fill="white"/>
<path d="M170.093 67.5205C170.474 67.6815 170.778 67.9833 170.942 68.3631C171.026 68.5575 171.067 68.7674 171.064 68.9791V76.6616C171.065 76.6946 171.06 76.7276 171.049 76.7586C171.037 76.7895 171.019 76.8178 170.997 76.8418C170.974 76.8657 170.946 76.8847 170.916 76.8977C170.886 76.9107 170.853 76.9173 170.82 76.9173H168.937C168.904 76.9197 168.87 76.9146 168.839 76.9026C168.808 76.8905 168.78 76.8717 168.757 76.8476C168.711 76.7965 168.686 76.7301 168.687 76.6616V69.9496C168.69 69.9157 168.684 69.8817 168.671 69.8504C168.658 69.8191 168.637 69.7914 168.611 69.7694C168.563 69.724 168.498 69.6991 168.431 69.6997H165.735C165.666 69.6988 165.6 69.7237 165.549 69.7694C165.524 69.7922 165.504 69.8201 165.491 69.8512C165.478 69.8823 165.472 69.9159 165.473 69.9496V76.6674C165.482 76.7267 165.466 76.7869 165.43 76.8348C165.394 76.8827 165.341 76.9145 165.282 76.9231H163.335C163.276 76.9315 163.217 76.9168 163.169 76.8821C163.121 76.8474 163.089 76.7953 163.079 76.7371C163.073 76.7143 163.073 76.6903 163.079 76.6674V67.6483C163.071 67.589 163.086 67.5288 163.122 67.4809C163.158 67.433 163.212 67.4012 163.271 67.3926H169.495C169.701 67.3913 169.905 67.4349 170.093 67.5205Z" fill="white"/>
<path d="M181.141 71.7975C181.166 71.8213 181.185 71.8502 181.198 71.8823C181.211 71.9144 181.218 71.9488 181.216 71.9834V75.3423C181.216 75.5548 181.17 75.7647 181.083 75.9583C181.005 76.1547 180.891 76.3342 180.746 76.4872C180.596 76.6386 180.416 76.7556 180.217 76.83C180.022 76.9116 179.812 76.9532 179.601 76.9521H174.777C174.566 76.9521 174.357 76.9106 174.161 76.83C173.873 76.7039 173.629 76.4952 173.46 76.2305C173.29 75.9657 173.203 75.6567 173.208 75.3423V69.0138C173.21 68.7916 173.258 68.572 173.348 68.3688C173.42 68.1717 173.535 67.9931 173.685 67.8458C173.838 67.6994 174.017 67.5831 174.214 67.5029C174.407 67.4167 174.617 67.3731 174.83 67.3751H180.455C180.523 67.3751 180.588 67.402 180.636 67.45C180.684 67.4979 180.711 67.5629 180.711 67.6308V69.4323C180.711 69.5001 180.684 69.5651 180.636 69.6131C180.588 69.661 180.523 69.688 180.455 69.688H175.887C175.821 69.6874 175.756 69.7123 175.707 69.7577C175.681 69.7796 175.661 69.8074 175.648 69.8387C175.635 69.87 175.629 69.904 175.632 69.9378V74.3486C175.629 74.3825 175.635 74.4164 175.648 74.4478C175.661 74.4791 175.681 74.5068 175.707 74.5288C175.731 74.5516 175.759 74.5691 175.79 74.5801C175.821 74.5911 175.854 74.5954 175.887 74.5927H178.555C178.585 74.5942 178.616 74.5898 178.645 74.5795C178.673 74.5693 178.7 74.5534 178.723 74.5329C178.745 74.5124 178.764 74.4876 178.777 74.46C178.79 74.4323 178.797 74.4024 178.799 74.3719V71.966C178.797 71.933 178.802 71.9 178.814 71.869C178.825 71.838 178.843 71.8097 178.866 71.7858C178.889 71.7619 178.916 71.7429 178.947 71.7299C178.977 71.7169 179.01 71.7102 179.043 71.7103H180.949C180.985 71.71 181.021 71.7176 181.054 71.7327C181.088 71.7477 181.117 71.7698 181.141 71.7975Z" fill="white"/>
<path d="M179.472 0.957684C179.702 0.951338 179.93 0.991293 180.144 1.07516C180.358 1.15903 180.552 1.2851 180.716 1.44583C180.883 1.59633 181.016 1.78013 181.107 1.98535C181.198 2.19056 181.245 2.41262 181.245 2.63715V61.1452C181.245 61.3697 181.198 61.5918 181.107 61.797C181.016 62.0022 180.883 62.186 180.716 62.3365C180.552 62.4972 180.358 62.6233 180.144 62.7072C179.93 62.791 179.702 62.831 179.472 62.8246H166.734C166.505 62.8305 166.278 62.7903 166.065 62.7065C165.853 62.6226 165.659 62.4968 165.496 62.3365C165.328 62.1877 165.193 62.0042 165.102 61.7986C165.01 61.593 164.965 61.3701 164.967 61.1452V40.7301C164.977 40.515 164.941 40.3002 164.862 40.0999C164.783 39.8996 164.662 39.7183 164.508 39.5679C164.349 39.4187 164.162 39.3027 163.957 39.2269C163.753 39.1511 163.535 39.1168 163.317 39.1262H145.453C144.999 39.1117 144.557 39.2695 144.215 39.5679C144.044 39.7085 143.908 39.8864 143.816 40.0878C143.725 40.2892 143.68 40.5089 143.686 40.7301V61.1452C143.686 62.2609 143.105 62.8246 141.943 62.8246H129.298C128.135 62.8246 127.554 62.2435 127.554 61.1452V2.63715C127.554 1.51557 128.135 0.957684 129.298 0.957684H141.966C143.129 0.957684 143.71 1.53881 143.71 2.63715V22.4594C143.71 23.5752 144.291 24.1331 145.453 24.1331H163.358C163.58 24.1407 163.801 24.1017 164.007 24.0187C164.213 23.9356 164.4 23.8103 164.555 23.6508C164.85 23.3355 165.014 22.9201 165.014 22.4885V2.63715C165.011 2.41278 165.056 2.19041 165.147 1.98495C165.237 1.77949 165.37 1.59568 165.537 1.44583C165.856 1.13153 166.286 0.95606 166.734 0.957684H179.472Z" fill="#F8B92A"/>
<path d="M58.1963 1.77745C60.5903 2.79773 62.496 4.70555 63.5137 7.10059C64.0543 8.32335 64.3334 9.64559 64.3331 10.9825V60.9945C64.3362 61.4219 64.1697 61.8332 63.8702 62.1382C63.5706 62.4432 63.1624 62.617 62.735 62.6216H50.7288C50.5191 62.6301 50.3102 62.5917 50.1172 62.5093C49.9242 62.4269 49.752 62.3024 49.6131 62.1451C49.3231 61.8289 49.1687 61.4116 49.183 60.9828V15.556H39.5654V61.0119C39.5766 61.4402 39.4226 61.8563 39.1353 62.1741C38.9935 62.3294 38.82 62.4524 38.6265 62.5346C38.4329 62.6168 38.2239 62.6564 38.0137 62.6507H27.1757C26.9635 62.6538 26.7528 62.615 26.5557 62.5366C26.3585 62.4583 26.1787 62.3418 26.0265 62.194C25.8743 62.0461 25.7527 61.8697 25.6687 61.6749C25.5847 61.48 25.5399 61.2705 25.5369 61.0584V15.556H15.9018V61.0119C15.9329 61.2341 15.9119 61.4605 15.8405 61.6733C15.769 61.886 15.6491 62.0792 15.4901 62.2376C15.3312 62.396 15.1376 62.5152 14.9246 62.5859C14.7116 62.6566 14.4851 62.6768 14.263 62.6449H2.39056C2.16844 62.6768 1.94195 62.6566 1.72897 62.5859C1.516 62.5152 1.32239 62.396 1.16343 62.2376C1.00448 62.0792 0.884538 61.886 0.813093 61.6733C0.741649 61.4605 0.720656 61.2341 0.751774 61.0119V2.59103C0.720656 2.3688 0.741649 2.14238 0.813093 1.92966C0.884538 1.71694 1.00448 1.52375 1.16343 1.36536C1.32239 1.20697 1.516 1.08772 1.72897 1.01703C1.94195 0.946343 2.16844 0.926155 2.39056 0.958063H54.2795C55.6283 0.95199 56.9631 1.23123 58.1963 1.77745Z" fill="#E73427"/>
<path d="M116.507 47.6682C116.724 47.6636 116.939 47.7042 117.139 47.7872C117.339 47.8702 117.52 47.9939 117.67 48.1505C117.971 48.4726 118.134 48.9006 118.123 49.3418V60.9644C118.13 61.3963 117.967 61.8138 117.67 62.1266C117.521 62.2848 117.34 62.41 117.14 62.4941C116.94 62.5781 116.724 62.6193 116.507 62.6148H75.5377C74.3754 62.6148 73.7943 62.0337 73.7943 60.9411V2.63068C73.7943 1.51491 74.3754 0.957031 75.5377 0.957031H88.1133C89.2756 0.957031 89.8567 1.53816 89.8567 2.63068V46.0817C89.8501 46.3029 89.8943 46.5228 89.986 46.7243C90.0777 46.9258 90.2144 47.1036 90.3855 47.2439C90.7237 47.5416 91.1613 47.7013 91.6117 47.6914L116.507 47.6682Z" fill="#1D539F"/>
</g>
<defs>
<clipPath id="clip0_6995_1472">
<rect width="180.493" height="76" fill="white" transform="translate(0.753662 0.957031)"/>
</clipPath>
</defs>
</svg>
