<svg width="113" height="48" viewBox="0 0 113 48" fill="none" xmlns="http://www.w3.org/2000/svg">
<g clip-path="url(#clip0_770_345)">
<mask id="mask0_770_345" style="mask-type:luminance" maskUnits="userSpaceOnUse" x="0" y="0" width="112" height="48">
<path d="M111.8 0H0V47.7H111.8V0Z" fill="white"/>
</mask>
<g mask="url(#mask0_770_345)">
<path d="M0.100006 37.5008C0.100006 38.2008 0.500006 38.5008 1.10001 38.5008H8.70001C9.40001 38.5008 9.70001 38.1008 9.70001 37.5008V9.30078H0C0.1 9.40078 0.100006 37.5008 0.100006 37.5008ZM15.9 37.5008C15.9 37.8008 16 38.0008 16.2 38.2008C16.4 38.4008 16.6 38.5008 16.9 38.5008H23.8C24.1 38.5008 24.3 38.4008 24.5 38.2008C24.7 38.0008 24.8 37.7008 24.8 37.5008V9.30078H15.8V37.5008H15.9ZM31.1 9.40077V37.6008C31.1 37.9008 31.2 38.1008 31.4 38.3008C31.6 38.5008 31.8 38.6008 32.1 38.6008H39.8C40.1 38.6008 40.3 38.5008 40.5 38.3008C40.7 38.1008 40.8 37.8008 40.8 37.6008V9.40077H31.1Z" fill="white"/>
</g>
<mask id="mask1_770_345" style="mask-type:luminance" maskUnits="userSpaceOnUse" x="0" y="0" width="112" height="48">
<path d="M111.8 0H0V47.7H111.8V0Z" fill="white"/>
</mask>
<g mask="url(#mask1_770_345)">
<path d="M57.4998 1V38.5H48.7998C48.0998 38.5 47.7998 38.2 47.7998 37.5V1C47.7998 0.3 48.0998 0 48.7998 0H56.3998C57.1998 0 57.4998 0.4 57.4998 1Z" fill="white"/>
</g>
<mask id="mask2_770_345" style="mask-type:luminance" maskUnits="userSpaceOnUse" x="0" y="0" width="112" height="48">
<path d="M111.8 0H0V47.7H111.8V0Z" fill="white"/>
</mask>
<g mask="url(#mask2_770_345)">
<path d="M89.4002 1V38.5H80.7002C80.0002 38.5 79.7002 38.2 79.7002 37.5V1C79.7002 0.3 80.0002 0 80.7002 0H88.3002C89.1002 0 89.4002 0.4 89.4002 1Z" fill="white"/>
</g>
<mask id="mask3_770_345" style="mask-type:luminance" maskUnits="userSpaceOnUse" x="0" y="0" width="112" height="48">
<path d="M111.8 0H0V47.7H111.8V0Z" fill="white"/>
</mask>
<g mask="url(#mask3_770_345)">
<path d="M112.2 1V38.5H103.5C102.8 38.5 102.5 38.2 102.5 37.5V1C102.5 0.3 102.8 0 103.5 0H111.1C111.8 0 112.2 0.4 112.2 1Z" fill="white"/>
</g>
<path d="M40.7996 6.39999V9.3H0.0996094V1C0.0996094 0.3 0.499609 0 1.09961 0H34.2996C35.1996 0 35.9996 0.2 36.7996 0.5C37.5996 0.8 38.2996 1.29999 38.7996 1.89999C39.3996 2.49999 39.7996 3.09999 40.1996 3.89999C40.5996 4.69999 40.7996 5.59999 40.7996 6.39999Z" fill="white"/>
<path d="M73.7 30.2992V37.5992C73.7 37.8992 73.6 38.0992 73.4 38.2992C73.2 38.4992 73 38.5992 72.7 38.5992H57.5V29.1992H72.7C73 29.1992 73.2 29.2992 73.4 29.4992C73.6 29.6992 73.7 29.9992 73.7 30.2992Z" fill="white"/>
<path d="M102.4 14.3984H89.4004V23.7984H102.4V14.3984Z" fill="#EEEEEE"/>
<path d="M6.3 42.8969V42.9969C6.3 43.0969 6.3 43.0969 6.3 43.1969V47.7969V47.8969H6.20001H5H4.90001V47.7969V43.4969H3.90001V47.7969V47.8969H3.8H2.70001H2.60001V47.7969V43.4969H1.60001V47.7969C1.60001 47.8969 1.50001 47.9969 1.40001 47.9969H0.200012C0.100012 47.9969 0 47.8969 0 47.7969V42.1969V42.0969L0.100006 41.9969H5.10001C5.10001 41.9969 5.2 41.9969 5.3 41.9969C5.4 41.9969 5.40001 41.9969 5.40001 41.9969L6.3 42.8969ZM12.6 42.8969C12.6 42.8969 12.6 42.9969 12.6 43.0969C12.6 43.1969 12.6 43.1969 12.6 43.2969V47.8969V47.9969H12.5H11.3H11.2V47.8969V46.3969V46.2969H11.1H9.40001H9.3V46.3969V47.8969V47.9969H9.20001H8H7.90001V47.8969V43.1969V43.0969C7.90001 42.9969 7.90001 42.9969 7.90001 42.9969L8.70001 42.1969H8.8C8.9 42.1969 8.9 42.1969 9 42.1969H11.7C11.7 42.1969 11.8 42.1969 11.9 42.1969C12 42.1969 12 42.1969 12 42.1969L12.6 42.8969ZM11.1 43.3969H9.10001V44.8969H11.1V43.3969ZM17.8 41.9969C17.8 41.9969 17.9 41.9969 17.9 42.0969V42.1969V46.7969C17.9 46.7969 17.9 46.8969 17.9 46.9969C17.9 47.0969 17.9 47.0969 17.9 47.0969L17.1 47.8969C17.1 47.8969 17 47.8969 17 47.9969C16.9 47.9969 16.9 47.9969 16.8 47.9969H14.6C14.6 47.9969 14.5 47.9969 14.4 47.9969C14.3 47.9969 14.3 47.9969 14.3 47.8969L13.5 47.0969C13.5 47.0969 13.5 46.9969 13.4 46.9969C13.4 46.8969 13.4 46.8969 13.4 46.7969V45.0969V44.9969H13.5H14.7H14.8V45.0969V46.2969V46.3969H14.9H16.1H16.2V46.2969V42.0969V41.9969L16.3 41.8969C16.7 41.9969 17.8 41.9969 17.8 41.9969ZM24.2 42.8969V42.9969C24.2 43.0969 24.2 43.0969 24.2 43.1969V46.8969C24.2 46.8969 24.2 46.9969 24.2 47.0969C24.2 47.1969 24.2 47.1969 24.2 47.1969L23.4 47.9969C23.4 47.9969 23.3 47.9969 23.2 48.0969C23.1 48.0969 23.1 48.0969 23 48.0969H20.3C20.3 48.0969 20.2 48.0969 20.1 48.0969C20 48.0969 20 48.0969 20 47.9969L19.2 47.1969C19.2 47.1969 19.2 47.0969 19.1 47.0969C19.1 46.9969 19.1 46.9969 19.1 46.8969V43.1969C19.1 43.1969 19.1 43.0969 19.1 42.9969C19.1 42.8969 19.1 42.8969 19.2 42.8969L20 42.0969H20.1C20.2 42.0969 20.2 42.0969 20.3 42.0969H23C23 42.0969 23.1 42.0969 23.2 42.0969C23.3 42.0969 23.3 42.0969 23.4 42.0969L24.2 42.8969ZM22.8 43.4969H20.8V46.5969H22.8V43.4969ZM30.7 47.8969V47.9969C30.7 47.9969 30.7 47.9969 30.6 47.9969H29.2H29.1L29 47.8969L28 46.2969C28 46.2969 28 46.2969 27.9 46.2969H26.9V47.8969C26.9 47.9969 26.8 48.0969 26.7 48.0969H25.5C25.4 48.0969 25.3 47.9969 25.3 47.8969V42.2969V42.1969L25.4 42.0969H29.1C29.1 42.0969 29.2 42.0969 29.3 42.0969C29.4 42.0969 29.4 42.0969 29.5 42.0969L30.3 42.8969V42.9969C30.3 43.0969 30.3 43.0969 30.3 43.1969V45.0969V45.1969C30.3 45.1969 30.3 45.2969 30.2 45.2969L29.4 46.0969L30.7 47.8969ZM29 43.3969H26.9V44.7969H29V43.3969ZM38.7 46.5969H38.8V46.6969V47.7969V47.8969H38.7H35C34.9 47.8969 34.8 47.7969 34.8 47.6969V42.0969C34.8 41.9969 34.9 41.8969 35 41.8969H36.2C36.3 41.8969 36.4 41.9969 36.4 42.0969V46.2969V46.3969H36.5L38.7 46.5969ZM41.2 43.3969C41.1 43.3969 41.1 43.3969 41.2 43.3969V44.3969H43.6H43.7V44.4969V45.3969C43.7 45.4969 43.6 45.5969 43.5 45.5969H41.1V46.4969H44H44.1V46.5969V47.6969V47.7969H44H40.8C40.8 47.7969 40.7 47.7969 40.6 47.7969C40.5 47.7969 40.5 47.7969 40.5 47.6969L39.7 46.8969C39.7 46.8969 39.7 46.7969 39.6 46.7969C39.6 46.6969 39.6 46.6969 39.6 46.5969V42.8969C39.6 42.8969 39.6 42.7969 39.6 42.6969C39.6 42.5969 39.6 42.5969 39.7 42.5969L40.5 41.7969H40.6C40.7 41.7969 40.7 41.7969 40.8 41.7969H44C44 41.7969 44.1 41.7969 44.1 41.8969V41.9969V43.0969V43.1969H44L41.2 43.3969ZM50.4 42.8969C50.4 42.8969 50.4 42.9969 50.4 43.0969C50.4 43.1969 50.4 43.1969 50.4 43.2969V47.8969V47.9969H50.3H49.1H49V47.8969V46.3969V46.2969H48.9H47.2H47.1V46.3969V47.8969V47.9969H47H45.8H45.7V47.8969V43.1969V43.0969C45.7 42.9969 45.7 42.9969 45.7 42.9969L46.5 42.1969H46.6C46.7 42.1969 46.7 42.1969 46.8 42.1969H49.5C49.5 42.1969 49.6 42.1969 49.7 42.1969C49.8 42.1969 49.8 42.1969 49.8 42.1969L50.4 42.8969ZM49 43.3969H47V44.8969H49V43.3969ZM56.6 44.7969C56.6 44.7969 56.7 44.7969 56.7 44.8969V44.9969V46.8969C56.7 46.8969 56.7 46.9969 56.7 47.0969C56.7 47.1969 56.7 47.1969 56.7 47.1969L55.9 47.9969C55.9 47.9969 55.8 47.9969 55.7 48.0969C55.6 48.0969 55.6 48.0969 55.5 48.0969H52.8C52.8 48.0969 52.7 48.0969 52.6 48.0969C52.5 48.0969 52.5 48.0969 52.5 47.9969L51.7 47.1969C51.7 47.1969 51.7 47.0969 51.6 47.0969C51.6 46.9969 51.6 46.9969 51.6 46.8969V43.1969C51.6 43.1969 51.6 43.0969 51.6 42.9969C51.6 42.8969 51.6 42.8969 51.7 42.8969L52.5 42.0969H52.6C52.7 42.0969 52.7 42.0969 52.8 42.0969H56.2C56.2 42.0969 56.3 42.0969 56.3 42.1969V42.2969V43.3969V43.4969H56.2H53.3H53.2V43.5969V46.3969V46.4969H53.3H55H55.1V46.3969V44.8969V44.7969L55.2 44.6969L56.6 44.7969ZM62.9 41.9969C62.9 41.9969 63 41.9969 63 42.0969V42.1969V46.8969V46.9969V47.0969L62.2 47.8969C62.2 47.8969 62.1 47.8969 62.1 47.9969C62 47.9969 62 47.9969 61.9 47.9969H59.2C59.2 47.9969 59.1 47.9969 59 47.9969C58.9 47.9969 58.9 47.9969 58.9 47.8969L58.1 47.0969C58.1 47.0969 58.1 46.9969 58 46.9969C58 46.8969 58 46.8969 58 46.7969V42.1969V42.0969L58.1 41.9969H59.3C59.3 41.9969 59.4 41.9969 59.4 42.0969V42.1969V46.3969V46.4969H59.5H61.2H61.3V46.3969V42.1969V42.0969L61.4 41.9969H62.9ZM65.9 43.3969C65.8 43.3969 65.8 43.3969 65.9 43.3969V44.3969H68.3H68.4V44.4969V45.3969C68.4 45.4969 68.3 45.5969 68.2 45.5969H65.8V46.4969H68.7H68.8V46.5969V47.6969V47.7969H68.7H65.5C65.5 47.7969 65.4 47.7969 65.3 47.7969C65.2 47.7969 65.2 47.7969 65.2 47.6969L64.4 46.8969C64.4 46.8969 64.4 46.7969 64.3 46.7969C64.3 46.6969 64.3 46.6969 64.3 46.5969V42.8969C64.3 42.8969 64.3 42.7969 64.3 42.6969C64.3 42.5969 64.3 42.5969 64.4 42.5969L65.2 41.7969H65.3C65.4 41.7969 65.4 41.7969 65.5 41.7969H68.7C68.7 41.7969 68.8 41.7969 68.8 41.8969V41.9969V43.0969V43.1969H68.7L65.9 43.3969ZM77.9 41.9969C77.9 41.9969 78 41.9969 78 42.0969L78.1 42.1969V47.7969C78.1 47.7969 78.1 47.8969 78 47.8969H77.9H76.7H76.6V47.7969V45.7969V45.6969H76.5H74.8H74.7V45.7969V47.7969C74.7 47.8969 74.6 47.9969 74.5 47.9969H73.3C73.2 47.9969 73.1 47.8969 73.1 47.7969V42.1969C73.1 42.0969 73.2 41.9969 73.3 41.9969H74.5C74.6 41.9969 74.7 42.0969 74.7 42.1969V44.0969C74.7 44.1969 74.8 44.2969 74.9 44.2969H76.6H76.7V44.1969V42.2969V42.1969L76.8 42.0969H77.9V41.9969ZM84.3 42.8969C84.3 42.8969 84.3 42.9969 84.3 43.0969C84.3 43.1969 84.3 43.1969 84.3 43.2969V47.8969V47.9969H84.2H83.1H83V47.8969V46.3969V46.2969H82.9H81.1H81V46.3969V47.8969V47.9969H80.9H79.7H79.6V47.8969V43.1969V43.0969V42.9969L80.4 42.1969H80.5C80.6 42.1969 80.6 42.1969 80.7 42.1969H83.4C83.4 42.1969 83.5 42.1969 83.6 42.1969C83.7 42.1969 83.7 42.1969 83.7 42.1969L84.3 42.8969ZM82.9 43.3969H80.9V44.8969H82.9V43.3969ZM87.3 43.4969H87.2V43.5969V46.3969V46.4969H87.3H90H90.1V46.5969V47.6969V47.7969H90H86.8C86.8 47.7969 86.7 47.7969 86.6 47.7969C86.5 47.7969 86.5 47.7969 86.5 47.6969L85.7 46.8969C85.7 46.8969 85.7 46.7969 85.6 46.7969C85.6 46.6969 85.6 46.6969 85.6 46.5969V42.8969C85.6 42.8969 85.6 42.7969 85.6 42.6969C85.6 42.5969 85.6 42.5969 85.7 42.5969L86.5 41.7969H86.6H86.7H90C90 41.7969 90.1 41.7969 90.1 41.8969V41.9969V43.0969V43.1969H90H87.3V43.4969ZM95 44.5969C94.9 44.5969 94.9 44.5969 95 44.5969L97 47.8969V47.9969H96.9H95.5H95.4L95.3 47.8969L94 45.5969L93.3 46.3969L93.2 46.4969C93.2 46.5969 93.2 46.5969 93.2 46.5969V47.8969C93.2 47.9969 93.1 48.0969 93 48.0969H91.8C91.7 48.0969 91.6 47.9969 91.6 47.8969V42.2969C91.6 42.1969 91.7 42.0969 91.8 42.0969H93C93.1 42.0969 93.2 42.1969 93.2 42.2969V44.7969L95.4 42.1969L95.5 42.0969C95.6 42.0969 95.6 42.0969 95.6 42.0969H97H97.1V42.1969L95 44.5969ZM99.5 47.7969C99.5 47.8969 99.4 47.9969 99.3 47.9969H98.1C98 47.9969 97.9 47.8969 97.9 47.7969V42.1969C97.9 42.0969 98 41.9969 98.1 41.9969H99.3C99.4 41.9969 99.5 42.0969 99.5 42.1969V47.7969ZM105.8 42.8969V42.9969C105.8 43.0969 105.8 43.0969 105.8 43.1969V47.7969C105.8 47.7969 105.8 47.8969 105.7 47.8969H105.6H104.4H104.3V47.7969V43.5969V43.4969H104.2H102.5H102.4V43.5969V47.7969C102.4 47.8969 102.3 47.9969 102.2 47.9969H101C100.9 47.9969 100.8 47.8969 100.8 47.7969V42.1969V42.0969L100.9 41.9969H104.6C104.6 41.9969 104.7 41.9969 104.8 41.9969C104.9 41.9969 104.9 41.9969 104.9 41.9969L105.8 42.8969ZM112 44.7969C112 44.7969 112.1 44.7969 112.1 44.8969V44.9969V46.8969C112.1 46.8969 112.1 46.9969 112.1 47.0969C112.1 47.1969 112.1 47.1969 112.1 47.1969L111.3 47.9969C111.3 47.9969 111.2 47.9969 111.1 48.0969C111 48.0969 111 48.0969 110.9 48.0969H108.2C108.2 48.0969 108.1 48.0969 108 48.0969C107.9 48.0969 107.9 48.0969 107.9 47.9969L107.1 47.1969C107.1 47.1969 107.1 47.0969 107 47.0969C107 46.9969 107 46.9969 107 46.8969V43.1969C107 43.1969 107 43.0969 107 42.9969C107 42.8969 107 42.8969 107.1 42.8969L107.9 42.0969H108C108.1 42.0969 108.1 42.0969 108.2 42.0969H111.6C111.6 42.0969 111.7 42.0969 111.7 42.1969V42.2969V43.3969V43.4969H111.6H108.7H108.6V43.5969V46.3969V46.4969H108.7H110.4H110.5V46.3969V44.8969V44.7969L110.6 44.6969L112 44.7969Z" fill="white"/>
</g>
<defs>
<clipPath id="clip0_770_345">
<rect width="112.1" height="48" fill="white"/>
</clipPath>
</defs>
</svg>
