<svg width="236" height="53" viewBox="0 0 236 53" fill="none" xmlns="http://www.w3.org/2000/svg">
<g clip-path="url(#clip0_6995_1593)">
<path d="M51.377 8.01574C51.449 8.06909 51.521 8.12243 51.5952 8.17739C52.7327 9.02677 53.7685 9.97123 54.7888 10.9569C54.8503 11.0158 54.9118 11.0747 54.9751 11.1354C55.7624 11.8917 56.4692 12.686 57.1418 13.5452C57.2347 13.661 57.3277 13.7769 57.4235 13.8963C62.6038 20.413 64.7712 28.7953 63.9925 37.0329C63.5735 40.6858 62.5333 44.2489 60.9065 47.5452C60.8615 47.6372 60.8165 47.7293 60.7701 47.8241C60.0253 49.3343 59.1413 50.7382 58.2006 52.1334C57.7918 51.9971 57.7652 51.9345 57.5581 51.5764C57.5035 51.4834 57.4488 51.3904 57.3926 51.2946C57.3341 51.1929 57.2756 51.0912 57.2153 50.9863C57.0877 50.769 56.9599 50.5518 56.832 50.3347C56.7663 50.2227 56.7006 50.1108 56.6329 49.9954C56.3293 49.483 56.0154 48.9772 55.7006 48.4716C55.5723 48.2651 55.4441 48.0586 55.3159 47.8521C55.2499 47.7458 55.1838 47.6394 55.1157 47.5298C54.0604 45.8275 53.0143 44.1196 51.9745 42.4078C51.462 41.5649 50.9437 40.7259 50.4234 39.8878C49.8824 39.0154 49.3487 38.1386 48.8159 37.2611C48.3596 36.5104 47.8993 35.7622 47.4359 35.0157C46.9019 34.1557 46.3731 33.2928 45.8476 32.4275C45.297 31.5211 44.7436 30.6164 44.1859 29.7143C44.1232 29.6128 44.0606 29.5114 43.9961 29.4068C43.7429 28.9981 43.4889 28.5923 43.2162 28.1963C43.0241 27.8981 43.0241 27.8981 43.0241 27.6628C42.9465 27.6628 42.8688 27.6628 42.7888 27.6628C42.7603 27.7451 42.7318 27.8275 42.7024 27.9123C42.4735 28.433 42.1219 28.8708 41.787 29.3287C41.5098 29.8772 41.6583 30.3697 41.7914 30.9467C41.8571 31.2336 41.9181 31.5212 41.9791 31.8091C42.1327 32.5307 42.2914 33.2512 42.4506 33.9716C42.5331 34.3457 42.6155 34.7198 42.6976 35.094C42.7484 35.3255 42.7995 35.557 42.8508 35.7884C42.8736 35.8922 42.8964 35.996 42.9198 36.1029C42.94 36.1942 42.9602 36.2856 42.981 36.3797C43.0241 36.604 43.0241 36.604 43.0241 36.8393C42.9465 36.8393 42.8688 36.8393 42.7888 36.8393C42.7523 36.7739 42.7159 36.7086 42.6783 36.6413C41.9158 35.2779 41.1402 33.9237 40.3403 32.5819C39.6939 31.4976 39.0594 30.4075 38.4359 29.3099C37.741 28.0869 37.0309 26.8739 36.3112 25.6653C35.5457 24.3781 34.7979 23.081 34.0518 21.7824C33.7324 21.2272 33.4114 20.6729 33.0903 20.1187C33.0353 20.0238 32.9804 19.929 32.9238 19.8312C32.8004 19.6182 32.677 19.4052 32.5535 19.1922C31.5743 20.72 30.6616 22.2858 29.7472 23.8528C29.4229 24.4084 29.0969 24.963 28.7692 25.5167C28.6461 25.7251 28.5233 25.9337 28.401 26.1425C28.0793 26.6904 27.7498 27.2317 27.4092 27.768C27.3016 27.9409 27.3016 27.9409 27.1917 28.1173C27.0549 28.3368 26.9157 28.5548 26.7738 28.771C26.7123 28.8706 26.6508 28.9701 26.5875 29.0727C26.5326 29.1585 26.4776 29.2443 26.421 29.3327C26.1461 30.2155 26.5118 31.2706 26.7088 32.1472C26.7626 32.3932 26.8164 32.6392 26.8702 32.8852C26.9548 33.2687 27.0397 33.6521 27.125 34.0354C27.2078 34.4082 27.2893 34.7814 27.3706 35.1545C27.3966 35.2694 27.4226 35.3842 27.4493 35.5025C27.4725 35.6094 27.4957 35.7162 27.5196 35.8263C27.5508 35.9668 27.5508 35.9668 27.5826 36.1101C27.6144 36.3864 27.5791 36.5761 27.4947 36.8393C26.5001 35.1611 25.5128 33.4788 24.5312 31.793C24.3092 31.412 24.087 31.0312 23.8646 30.6504C23.7904 30.5232 23.7161 30.396 23.6397 30.265C23.4979 30.0222 23.3562 29.7795 23.2144 29.5367C23.1501 29.4265 23.0858 29.3163 23.0195 29.2028C22.9291 29.0483 22.9291 29.0483 22.8369 28.8907C22.6892 28.6352 22.5462 28.3776 22.4037 28.1191C22.2369 27.7723 22.2369 27.7723 21.9653 27.6628C21.9328 27.7486 21.9003 27.8344 21.8669 27.9229C21.7379 28.2321 21.5924 28.5079 21.4221 28.7961C21.3612 28.8994 21.3002 29.0027 21.2375 29.1091C21.1719 29.219 21.1063 29.329 21.0388 29.4422C20.9702 29.5578 20.9016 29.6733 20.831 29.7923C20.3513 30.5966 19.8574 31.3906 19.3536 32.1799C18.8223 33.0149 18.3084 33.8602 17.7962 34.7069C17.0866 35.8795 16.371 37.048 15.6482 38.2124C14.532 40.0105 13.4261 41.8149 12.3274 43.6237C11.8151 44.4664 11.2969 45.3053 10.7766 46.1431C10.3738 46.7924 9.97511 47.444 9.57893 48.0973C9.30535 48.5483 9.03075 48.9986 8.75583 49.4488C8.62004 49.6714 8.48455 49.8942 8.34935 50.1171C8.15642 50.4346 7.96183 50.751 7.76675 51.0672C7.70873 51.1634 7.65071 51.2595 7.59094 51.3586C7.53688 51.4455 7.48283 51.5324 7.42714 51.6219C7.38032 51.6983 7.33351 51.7747 7.28527 51.8535C7.23791 51.907 7.19055 51.9606 7.14175 52.0157C7.02528 52.0157 6.90881 52.0157 6.78881 52.0157C6.58895 51.7647 6.41656 51.5205 6.24469 51.251C6.19307 51.1716 6.14145 51.0922 6.08827 51.0104C5.53701 50.1518 5.03356 49.2687 4.55351 48.3687C4.51319 48.2934 4.47287 48.2181 4.43133 48.1405C0.583194 40.8844 -0.158629 32.0899 2.2093 24.2446C3.64016 19.7116 5.96723 15.4637 9.2594 12.0157C9.40751 11.8475 9.5547 11.6785 9.70057 11.5084C14.7609 5.69086 22.7529 2.39563 30.3117 1.84111C37.8652 1.35144 45.3013 3.4888 51.377 8.01574Z" fill="#42A5A1"/>
<path d="M80.6711 16.6045C82.6123 16.6045 84.5535 16.6045 86.5535 16.6045C88.665 19.1833 88.665 19.1833 89.1937 20.3044C89.8743 21.6544 90.6722 22.884 91.5367 24.1223C91.8997 24.6446 92.2544 25.1724 92.6096 25.7001C92.7097 25.8484 92.7097 25.8484 92.8118 25.9997C93.6821 27.2895 94.5322 28.592 95.377 29.8986C96.0176 30.8886 96.0176 30.8886 96.6711 31.8986C96.71 26.8516 96.7488 21.8045 96.7888 16.6045C98.4582 16.6045 100.128 16.6045 101.848 16.6045C101.848 24.6021 101.848 32.5998 101.848 40.8398C100.139 40.8398 98.4311 40.8398 96.6711 40.8398C96.1505 40.096 95.6371 39.3532 95.1408 38.5939C95.0058 38.3882 94.8707 38.1824 94.7357 37.9767C94.6654 37.8695 94.5951 37.7623 94.5227 37.6518C93.1458 35.5529 91.7547 33.4643 90.3434 31.3883C88.8208 29.1423 87.3406 26.8716 85.8476 24.6045C85.8088 29.9621 85.77 35.3198 85.73 40.8398C84.0606 40.8398 82.3911 40.8398 80.6711 40.8398C80.6711 32.8421 80.6711 24.8445 80.6711 16.6045Z" fill="white"/>
<path d="M157.495 15.4277C171.43 15.4277 171.43 15.4277 173.881 17.6814C175.463 19.3818 176.155 21.2689 176.134 23.5748C176.133 23.7139 176.132 23.853 176.131 23.9963C176.091 26.1114 175.513 27.9509 174.018 29.5123C170.919 32.4032 166.906 32.016 162.906 32.016C162.906 34.9666 162.906 37.9171 162.906 40.9571C161.121 40.9571 159.335 40.9571 157.495 40.9571C157.495 32.5324 157.495 24.1077 157.495 15.4277ZM162.906 20.4866C162.906 22.6219 162.906 24.7571 162.906 26.9571C163.632 26.9669 164.357 26.9766 165.105 26.9866C165.331 26.9908 165.556 26.9951 165.789 26.9995C167.297 27.0161 168.748 26.9224 169.916 25.8446C170.5 25.2391 170.769 24.5529 170.8 23.7122C170.748 22.8685 170.473 22.2336 169.943 21.5821C168.471 20.3714 166.881 20.4544 165.068 20.4719C164.355 20.4767 163.641 20.4816 162.906 20.4866Z" fill="white"/>
<path d="M148.083 15.6631C149.675 15.6631 151.266 15.6631 152.906 15.6631C152.906 23.9713 152.906 32.2796 152.906 40.8396C151.354 40.8396 149.801 40.8396 148.201 40.8396C148.162 40.2184 148.123 39.5972 148.083 38.9572C147.988 39.0785 147.894 39.1999 147.796 39.3249C146.909 40.3515 145.654 40.9089 144.318 41.0749C142.074 41.1988 139.993 40.9624 138.219 39.4442C136.44 37.8287 135.345 35.651 135.214 33.243C135.138 30.761 135.682 28.4955 137.377 26.6043C137.504 26.4594 137.504 26.4594 137.633 26.3115C139.02 24.8176 140.85 24.0012 142.887 23.8931C144.944 23.8439 146.431 24.5343 147.965 25.8984C148.004 22.5207 148.043 19.1431 148.083 15.6631ZM141.024 29.8984C140.216 30.9318 140.088 32.0226 140.201 33.3101C140.465 34.4915 141.082 35.4182 142.078 36.1038C143.078 36.7179 144.223 36.7947 145.367 36.5229C146.478 36.1123 147.311 35.4315 147.848 34.369C148.328 33.1298 148.35 31.9543 147.848 30.7219C147.354 29.6887 146.555 28.9925 145.497 28.5703C143.813 27.9786 142.172 28.6006 141.024 29.8984Z" fill="white"/>
<path d="M191.377 24.7214C192.825 25.9556 193.444 27.552 193.612 29.4273C193.628 29.8158 193.627 30.2038 193.626 30.5925C193.626 30.7051 193.626 30.8177 193.626 30.9337C193.626 31.3029 193.625 31.6721 193.624 32.0413C193.624 32.2984 193.623 32.5556 193.623 32.8127C193.623 33.4873 193.622 34.1619 193.62 34.8365C193.619 35.5258 193.619 36.2151 193.618 36.9043C193.617 38.2551 193.615 39.6059 193.612 40.9567C192.021 40.9567 190.429 40.9567 188.789 40.9567C188.75 40.3356 188.711 39.7144 188.671 39.0744C188.54 39.2151 188.409 39.3558 188.274 39.5008C186.983 40.778 185.445 41.2331 183.664 41.2508C181.957 41.2338 180.498 40.7534 179.23 39.5817C178.139 38.4244 177.788 37.1294 177.819 35.5767C177.914 34.3157 178.4 33.1708 179.318 32.2876C181.103 30.8575 183.347 30.5118 185.568 30.4655C185.7 30.4627 185.831 30.4598 185.967 30.457C186.239 30.4518 186.51 30.4482 186.782 30.4459C186.913 30.4427 187.043 30.4394 187.178 30.436C187.296 30.4343 187.413 30.4326 187.534 30.4308C187.93 30.352 188.069 30.2103 188.318 29.8979C188.502 29.3598 188.417 28.973 188.201 28.4655C187.907 27.9304 187.395 27.6835 186.832 27.4912C185.836 27.2627 184.958 27.3824 184.083 27.8979C183.979 27.9586 183.874 28.0192 183.767 28.0817C183.33 28.542 183.075 29.1008 182.789 29.6626C181.767 29.5063 180.765 29.2974 179.759 29.0597C179.62 29.0271 179.48 28.9945 179.337 28.9609C178.997 28.8815 178.658 28.8016 178.318 28.7214C178.422 27.1611 179.041 26.0163 180.201 24.9567C183.205 22.5316 188.299 22.288 191.377 24.7214ZM183.421 34.6406C183.121 35.0491 183.015 35.3832 183.024 35.8979C183.21 36.5081 183.424 36.852 183.965 37.192C184.783 37.5635 185.555 37.5118 186.392 37.2361C187.293 36.8757 187.831 36.4107 188.233 35.5252C188.398 35.1089 188.449 34.7916 188.443 34.3464C188.442 34.2404 188.441 34.1344 188.44 34.0252C188.439 33.9444 188.437 33.8635 188.436 33.7803C187.914 33.7664 187.392 33.7582 186.87 33.7508C186.723 33.7469 186.577 33.743 186.426 33.7389C185.32 33.7273 184.233 33.8099 183.421 34.6406Z" fill="white"/>
<path d="M119.658 25.87C121.326 27.3035 122.519 29.2382 122.693 31.472C122.824 33.9543 122.315 36.1848 120.666 38.114C120.552 38.2405 120.552 38.2405 120.436 38.3695C120.371 38.4441 120.306 38.5188 120.239 38.5956C119.682 39.196 119.023 39.6079 118.318 40.0166C118.225 40.0713 118.132 40.1261 118.035 40.1825C115.893 41.3484 113.254 41.4738 110.934 40.836C108.632 40.134 106.842 38.8243 105.646 36.7216C104.57 34.668 104.302 32.2387 104.979 30.006C105.487 28.5032 106.237 27.3468 107.377 26.2519C107.445 26.1824 107.514 26.113 107.585 26.0414C110.788 23.0158 116.342 23.209 119.658 25.87ZM110.7 29.6421C109.776 30.7912 109.584 31.9933 109.73 33.4284C109.837 33.855 109.988 34.2205 110.2 34.6048C110.268 34.7286 110.336 34.8523 110.406 34.9798C111.047 35.781 111.773 36.3738 112.789 36.6048C114.109 36.743 115.186 36.6048 116.23 35.7592C117.059 34.9754 117.551 34.1274 117.652 32.9775C117.665 31.5816 117.436 30.4622 116.436 29.4284C115.512 28.6597 114.543 28.2963 113.341 28.3364C112.325 28.4425 111.411 28.9072 110.7 29.6421Z" fill="white"/>
<path d="M225.767 24.4646C226.893 25.4343 227.689 26.5205 227.965 28.016C227.407 28.1678 226.848 28.3185 226.289 28.4684C226.099 28.5195 225.909 28.5709 225.719 28.6225C225.445 28.6968 225.171 28.7701 224.898 28.8432C224.813 28.8664 224.729 28.8896 224.642 28.9134C224.211 29.0276 223.824 29.1023 223.377 29.0749C223.324 28.9557 223.324 28.9557 223.269 28.8341C222.919 28.0887 222.647 27.6309 221.877 27.2807C221.037 27.0868 220.373 27.1348 219.612 27.5454C219.279 27.7679 219.26 27.8961 219.156 28.2954C219.14 28.7865 219.164 28.9494 219.495 29.3102C220.262 29.6562 221.018 29.7693 221.848 29.8837C223.93 30.1963 225.996 30.6371 227.377 32.369C228.267 33.7712 228.419 35.3745 228.068 36.9866C227.648 38.4744 226.687 39.5845 225.377 40.369C223.225 41.5014 220.632 41.6021 218.318 40.9572C216.389 40.3105 215.046 39.2146 214.139 37.3996C213.919 36.936 213.805 36.5277 213.73 36.016C214.289 35.8643 214.848 35.7135 215.407 35.5637C215.597 35.5126 215.787 35.4612 215.977 35.4096C216.25 35.3353 216.524 35.262 216.798 35.1888C216.882 35.1657 216.966 35.1425 217.053 35.1186C217.485 35.0045 217.872 34.9298 218.318 34.9572C218.356 35.0509 218.393 35.1447 218.431 35.2412C218.784 36.0432 219.097 36.5564 219.889 36.9581C220.702 37.2629 221.401 37.2646 222.211 36.9526C222.598 36.758 222.832 36.518 223.024 36.1337C223.072 35.701 223.067 35.493 222.825 35.125C222.073 34.3335 220.575 34.2784 219.546 34.0822C217.673 33.7226 215.945 33.1686 214.789 31.5454C214.07 30.4253 213.941 28.8131 214.213 27.5312C214.738 25.8354 215.748 24.7626 217.259 23.8984C219.875 22.6379 223.398 22.6427 225.767 24.4646Z" fill="white"/>
<path d="M208.759 24.399C209.893 25.3523 210.829 26.5059 211.024 28.0166C209.975 28.3128 208.926 28.6062 207.87 28.8769C207.647 28.9345 207.647 28.9345 207.419 28.9932C207.075 29.0648 206.785 29.0934 206.436 29.0754C206.41 29.0058 206.384 28.9362 206.358 28.8645C206.037 28.0664 205.726 27.6462 204.929 27.274C204.088 27.0928 203.43 27.1362 202.671 27.546C202.371 27.7562 202.326 27.8751 202.215 28.2298C202.196 28.7116 202.268 28.9212 202.554 29.3107C203.317 29.663 204.079 29.7701 204.906 29.8843C206.987 30.1967 209.057 30.637 210.436 32.3696C211.292 33.7376 211.486 35.3139 211.183 36.8852C210.718 38.4116 209.842 39.5945 208.436 40.3485C206.12 41.5342 203.448 41.6228 200.986 40.8323C199.227 40.1506 197.93 38.9928 197.137 37.2822C196.96 36.843 196.892 36.4859 196.906 36.0166C197.448 35.8649 197.99 35.7141 198.533 35.5642C198.717 35.5132 198.901 35.4618 199.086 35.4102C199.351 35.3359 199.617 35.2625 199.882 35.1894C199.964 35.1662 200.046 35.1431 200.13 35.1192C200.556 35.0031 200.935 34.9309 201.377 34.9578C201.473 35.1464 201.568 35.3351 201.664 35.524C201.717 35.6291 201.77 35.7342 201.825 35.8424C201.965 36.1343 201.965 36.1343 202.083 36.4872C202.283 36.6168 202.283 36.6168 202.554 36.7225C202.677 36.7832 202.801 36.8438 202.929 36.9063C203.736 37.2419 204.447 37.2645 205.265 36.9532C205.656 36.7606 205.89 36.5201 206.083 36.1343C206.13 35.7114 206.116 35.4868 205.906 35.1122C205.183 34.4428 204.121 34.3703 203.186 34.2078C201.34 33.8671 199.327 33.448 198.107 31.8774C197.239 30.5709 197.126 29.1926 197.259 27.6637C197.437 26.7834 197.845 26.0947 198.436 25.4284C198.541 25.3085 198.541 25.3085 198.649 25.1862C201.106 22.5659 205.889 22.279 208.759 24.399Z" fill="white"/>
<path d="M134.436 24.2507C134.436 25.8425 134.436 27.4343 134.436 29.0743C133.659 29.0743 132.883 29.0743 132.083 29.0743C131.114 29.3376 130.337 29.7881 129.785 30.6501C129.138 31.8778 129.103 33.0463 129.093 34.4051C129.091 34.5911 129.089 34.777 129.086 34.9629C129.08 35.4495 129.075 35.9361 129.071 36.4228C129.065 37.0081 129.058 37.5934 129.051 38.1787C129.041 39.0655 129.033 39.9522 129.024 40.839C127.432 40.839 125.841 40.839 124.201 40.839C124.201 35.3648 124.201 29.8907 124.201 24.2507C125.754 24.2507 127.306 24.2507 128.906 24.2507C128.965 25.1825 128.965 25.1825 129.024 26.1331C129.177 25.9511 129.33 25.7691 129.487 25.5816C130.34 24.6336 131.342 24.149 132.61 24.026C133.198 24.005 133.902 23.9839 134.436 24.2507Z" fill="white"/>
<path d="M233.848 20.3694C234.402 20.8051 234.878 21.3079 235.024 22.0165C235.144 23.0429 235.049 23.8728 234.436 24.7224C233.811 25.407 233.164 25.6955 232.247 25.7761C231.43 25.7908 230.809 25.5643 230.176 25.05C229.556 24.4326 229.244 23.7563 229.223 22.8841C229.235 22.0355 229.395 21.4429 229.972 20.8092C231.088 19.7607 232.515 19.5144 233.848 20.3694ZM230.666 21.0326C230.116 21.593 229.853 22.1682 229.848 22.9576C229.957 23.598 230.195 24.1542 230.671 24.6047C231.302 25.0406 231.911 25.2056 232.671 25.0753C233.364 24.8535 233.8 24.4995 234.201 23.8988C234.468 23.2549 234.486 22.6857 234.318 22.0165C233.988 21.3813 233.549 20.8749 232.872 20.6213C232.033 20.4078 231.352 20.4837 230.666 21.0326Z" fill="white"/>
<path d="M231.024 21.0742C232.845 21.0742 232.845 21.0742 233.334 21.4616C233.54 21.7195 233.538 21.865 233.531 22.1919C233.531 22.2829 233.531 22.3739 233.53 22.4676C233.495 22.7213 233.495 22.7213 233.259 23.0742C233.182 23.0742 233.104 23.0742 233.024 23.0742C233.067 23.1564 233.109 23.2386 233.153 23.3233C233.207 23.4304 233.262 23.5374 233.318 23.6477C233.373 23.7542 233.427 23.8607 233.484 23.9704C233.612 24.2507 233.612 24.2507 233.612 24.486C233.302 24.486 232.991 24.486 232.671 24.486C232.592 24.3343 232.514 24.1823 232.436 24.0301C232.392 23.9455 232.348 23.8609 232.303 23.7737C232.201 23.5448 232.201 23.5448 232.201 23.3095C232.045 23.3095 231.89 23.3095 231.73 23.3095C231.73 23.6977 231.73 24.086 231.73 24.486C231.497 24.486 231.264 24.486 231.024 24.486C231.024 23.3601 231.024 22.2342 231.024 21.0742ZM231.73 21.8977C231.73 22.1307 231.73 22.3636 231.73 22.6036C232.231 22.6516 232.231 22.6516 232.656 22.4272C232.7 22.3689 232.744 22.3107 232.789 22.2507C232.711 22.1342 232.633 22.0177 232.553 21.8977C232.132 21.8683 232.132 21.8683 231.73 21.8977Z" fill="white"/>
</g>
<defs>
<clipPath id="clip0_6995_1593">
<rect width="235.294" height="52" fill="white" transform="translate(0.671143 0.957031)"/>
</clipPath>
</defs>
</svg>
