<svg width="240" height="53" viewBox="0 0 240 53" fill="none" xmlns="http://www.w3.org/2000/svg">
<path d="M234 18.5807C234 17.8391 234.306 17.0975 234.829 16.574C235.353 16.0505 236.094 15.7451 236.836 15.7451C237.578 15.7451 238.319 16.0505 238.843 16.574C239.366 17.0975 239.672 17.8391 239.672 18.5807C239.672 18.9733 239.584 19.3223 239.453 19.6713C239.323 20.0203 239.104 20.3257 238.843 20.5874C238.581 20.8491 238.276 21.0673 237.927 21.1981C237.578 21.329 237.229 21.4163 236.836 21.4163C236.443 21.4163 236.094 21.329 235.745 21.1981C235.396 21.0673 235.091 20.8491 234.829 20.5874C234.567 20.3257 234.349 20.0203 234.218 19.6713C234.044 19.3223 234 18.9297 234 18.5807ZM234.524 18.5807C234.524 18.8861 234.567 19.1914 234.698 19.4532C234.829 19.7149 234.96 19.9767 235.178 20.1948C235.396 20.4129 235.658 20.5874 235.92 20.7183C236.182 20.8491 236.487 20.8928 236.792 20.8928C237.403 20.8928 238.014 20.631 238.406 20.1948C238.843 19.7585 239.061 19.1914 239.061 18.5371C239.061 17.9263 238.799 17.3156 238.406 16.8793C237.97 16.4431 237.403 16.1814 236.792 16.1814C236.487 16.1814 236.182 16.225 235.92 16.3559C235.658 16.4867 235.396 16.6612 235.178 16.8793C234.96 17.0975 234.786 17.3592 234.698 17.621C234.567 17.97 234.524 18.2753 234.524 18.5807ZM236.4 20.1948H235.745V16.9666H237.01C237.665 16.9666 238.188 17.3156 238.188 17.97C238.188 18.1881 238.145 18.3626 238.014 18.5371C237.883 18.7116 237.752 18.8424 237.534 18.8861L238.188 20.1948H237.447L236.836 19.0169H236.356V20.1948H236.4ZM236.967 17.5773H236.4V18.3626H236.967C237.229 18.3626 237.49 18.2753 237.49 17.97C237.49 17.6646 237.229 17.5773 236.967 17.5773Z" fill="white"/>
<path fill-rule="evenodd" clip-rule="evenodd" d="M100.99 40.9599L89.3859 23.5538V40.9599H84.2383V15.7451H90.2148L101.164 32.2351V15.7451H106.312V40.9599H100.99Z" fill="white"/>
<path fill-rule="evenodd" clip-rule="evenodd" d="M118.134 23.3789C112.9 23.3789 108.712 27.2615 108.712 32.4091C108.712 37.6004 112.856 41.3521 118.091 41.3521C123.326 41.3521 127.514 37.4695 127.514 32.2782C127.47 27.1742 123.282 23.3789 118.134 23.3789ZM118.091 36.7279C115.735 36.7279 113.816 34.9393 113.816 32.3219C113.816 29.7044 115.692 27.9594 118.047 27.9594C120.403 27.9594 122.322 29.748 122.322 32.3219C122.322 34.8957 120.447 36.7279 118.091 36.7279Z" fill="white"/>
<path fill-rule="evenodd" clip-rule="evenodd" d="M140.47 23.7284V28.6579C139.946 28.5707 139.379 28.5271 138.856 28.5271C136.456 28.5271 134.755 30.1848 134.755 33.413V40.96H129.825V23.772H134.58V26.3022H134.624C135.54 24.3392 137.285 23.5975 139.074 23.5975C139.597 23.5539 140.034 23.6412 140.47 23.7284Z" fill="white"/>
<path fill-rule="evenodd" clip-rule="evenodd" d="M154.866 15.7012V25.6911H154.822C153.034 23.5971 150.678 23.4226 149.675 23.4226C144.745 23.4226 141.43 27.9596 141.43 32.322C141.43 36.9461 144.614 41.2649 149.631 41.2649C150.809 41.2649 153.383 41.0904 154.997 38.7347H155.041V40.9159H159.926V15.7012H154.866ZM150.765 36.728C148.41 36.728 146.49 34.9394 146.49 32.322C146.49 29.7045 148.41 27.9596 150.765 27.9596C153.121 27.9596 155.041 29.7481 155.041 32.322C154.997 34.8958 153.077 36.728 150.765 36.728Z" fill="white"/>
<path fill-rule="evenodd" clip-rule="evenodd" d="M170.57 40.9599L161.453 15.7451H167.081L173.624 34.9397L180.211 15.7451H185.752L176.591 40.9599H170.57Z" fill="white"/>
<path fill-rule="evenodd" clip-rule="evenodd" d="M197.269 15.7012H187.89V40.9596H193.124V32.0602H197.094C202.373 32.0602 206.299 29.3992 206.299 23.8153C206.255 18.4495 202.329 15.7012 197.269 15.7012ZM196.832 27.1743H193.081V20.6307H196.789C198.97 20.6307 201.02 21.4596 201.02 23.9025C201.02 26.3018 198.883 27.1743 196.832 27.1743Z" fill="white"/>
<path fill-rule="evenodd" clip-rule="evenodd" d="M225.668 40.9599L214.064 23.5538V40.9599H208.917V15.7451H214.893L225.843 32.2351V15.7451H230.99V40.9599H225.668Z" fill="white"/>
<path fill-rule="evenodd" clip-rule="evenodd" d="M6.2385 52.9561C2.18145 47.3722 0.000244141 40.6104 0.000244141 33.7178C0.000244141 15.6138 14.658 0.956055 32.7184 0.956055C50.7788 0.956055 65.4365 15.6138 65.4365 33.7178C65.4365 40.6104 63.2553 47.3722 59.1982 52.9561L43.4935 27.3923L41.9667 29.9661L43.4935 37.1205L32.7184 18.6238L26.0439 29.9225L27.6143 37.1205L21.9432 27.4359L6.2385 52.9561Z" fill="#3E5FFF"/>
</svg>
