<svg width="508" height="177" viewBox="0 0 508 177" fill="none" xmlns="http://www.w3.org/2000/svg">
<path d="M146.816 134.805L113.787 101.864L100.939 114.682L134.525 148.181L145.936 159.562L163.36 176.957L176.267 164.168L158.813 146.744L146.816 134.776V134.805ZM88.2666 162.056C46.6133 162.056 17.9253 130.61 17.9253 88.957C17.9253 47.3037 46.6133 15.8584 88.2666 15.8584C129.92 15.8584 158.608 47.3037 158.608 88.957C158.608 99.4877 156.731 109.461 153.299 118.349L166.059 131.08C172.629 118.613 176.267 104.181 176.267 88.957C176.267 40.3224 139.365 0.957031 88.2666 0.957031C37.1679 0.957031 0.266602 40.3224 0.266602 88.957C0.266602 137.592 37.1679 176.957 88.2666 176.957C103.813 176.957 118.011 173.29 130.272 166.837L118.891 155.485C109.827 159.68 99.5306 162.056 88.2666 162.056ZM322.933 3.89036H340.533V174.024H315.747L220.267 25.773V174.024H202.667V3.89036H227.365L322.933 152.17V3.89036ZM467.517 117.381L447.307 88.9277L467.517 60.4744L507.675 3.89036H486.056L458.307 42.9624L432.933 78.7197L407.56 42.9624L379.811 3.89036H358.192L398.349 60.4744L418.56 88.9277L398.349 117.381L358.133 174.024H379.752L407.56 134.864L432.933 99.1064L458.307 134.864L486.115 174.024H507.733L467.517 117.381Z" fill="#FF443A"/>
</svg>
