<svg width="78" height="90" viewBox="0 0 78 90" fill="none" xmlns="http://www.w3.org/2000/svg">
<g clip-path="url(#clip0_770_410)">
<path d="M68.2649 78.9301C68.2649 81.938 67.0632 83.6224 64.6595 84.5849C55.4052 88.1943 44.4684 89.999 34.1325 89.999C23.6764 89.999 12.7396 88.1943 3.60555 84.5849C1.20185 83.6224 0 81.938 0 78.9301V0.00390625H68.3852V78.9301H68.2649Z" fill="white"/>
<path d="M18.1476 48.1271C8.65301 42.2317 5.5282 39.5848 5.28783 35.7347C5.28783 34.8925 5.40802 33.5689 5.76857 32.7269L4.92743 32.1253C4.20632 33.2081 3.72559 34.7722 3.72559 36.0957C3.72559 38.3815 4.4467 40.0659 5.28799 41.3893C6.61002 43.4348 8.05224 44.7583 11.4174 47.2847C15.1432 50.0521 17.667 53.3005 19.1093 56.7897H19.7102V52.9397C24.7579 55.8272 29.2049 58.4741 31.3681 63.2867H31.849C31.0074 58.2335 28.2431 54.3836 18.1476 48.1271ZM61.7747 63.1664H61.1738C61.1738 59.6771 57.9288 58.7148 54.5636 58.7148H43.9874C44.3479 60.3992 44.4681 62.4445 44.2276 64.3694H43.7468C42.7854 56.4288 38.3385 52.4584 31.9687 48.2472V51.8567H31.4878C29.8052 48.1269 26.1999 44.6378 22.7143 42.1112C21.7529 41.5097 20.7914 40.7878 19.9501 40.0657V43.9158H19.4692C18.027 40.0657 15.3829 37.1782 11.5371 33.6891C7.45069 29.9593 5.7681 27.7938 4.80678 25.2671C4.20585 23.7031 4.08551 22.4998 4.08551 20.8154C4.08551 17.8076 5.52789 15.0403 7.45069 14.0778V15.5216C6.48937 16.7247 6.00847 18.4091 6.00847 19.9732C6.00847 21.4172 6.36903 23.1016 7.09013 24.5452C9.37365 28.9968 17.1858 34.4109 22.1132 37.6594C37.4969 48.0065 40.6219 49.8113 43.1456 55.2253C43.386 55.8269 43.7465 56.6691 43.9869 57.6316C46.1502 57.2707 54.3228 56.0677 55.765 55.8269C56.0054 55.8269 56.6062 55.7066 56.9669 55.7066C58.4091 54.8644 59.4906 53.6611 60.4522 52.3376L54.5632 51.8564L53.722 53.5408H53.2411C53.3615 52.9392 53.6017 52.3376 53.6017 51.7361L52.0394 51.6156V51.2546L53.722 51.014C54.0826 49.3296 54.2028 47.7657 54.2028 46.3218L46.7513 45.9608V48.1266H46.2704C46.1502 47.4046 46.0302 46.6827 45.9099 45.9608L44.2273 45.8405V45.3591L45.7897 45.2388C45.5493 43.3137 45.5493 41.3887 45.6695 39.8246L41.3428 39.584C41.583 39.9449 41.7034 40.3059 41.9438 40.7871C42.9051 43.4341 42.6649 46.4419 42.3043 47.8857H41.8234C41.7032 46.2013 41.2225 44.2762 40.6217 43.0729C39.4199 40.1856 36.7758 37.7793 32.2088 34.7714V38.3807H31.7285C30.1661 33.5681 26.4404 30.9212 20.9119 28.1541C16.3448 25.7478 14.9026 22.9805 15.1428 18.529L16.7052 19.4915C17.0658 23.5822 20.3108 25.9885 23.5558 25.9885C25.4786 25.9885 27.2815 25.748 29.0841 25.3871C31.608 24.9056 34.0117 24.4245 35.9347 25.1464V22.7401H34.3723C33.7713 23.2214 32.6897 23.823 31.0071 23.823C29.2043 23.823 25.719 22.8605 25.719 19.0104C25.719 15.6414 28.4832 15.1603 30.7667 15.1603C31.9686 15.1603 34.0117 15.1603 34.7328 15.04C35.2137 15.04 35.5741 14.9196 35.9347 14.6791C36.1749 14.4385 36.2952 14.1977 36.2952 13.8369C36.4154 13.4759 36.4154 12.9948 36.4154 12.2728V9.86651H25.8391V14.0775L21.8732 12.5134V11.5509H23.796V9.86651H16.5852V6.37739H14.1815C12.8595 6.37739 11.4171 7.33991 11.2971 9.02431C11.1771 10.7087 12.0182 12.1525 13.7008 12.1525V14.1978H13.3402C10.2154 14.1978 7.9319 11.9119 7.9319 8.78368C7.9319 5.65551 10.6962 3.12891 13.9411 3.12891H19.1091V6.61802H39.3003V11.7917C39.3003 12.6337 39.3003 13.837 39.18 14.5589C39.18 15.0403 38.9398 16.123 37.8579 16.8449C37.2572 17.3262 36.2957 17.4465 34.8535 17.5668C34.3726 17.5668 32.9305 17.5668 31.2479 17.4465C28.9644 17.326 28.2433 18.1684 28.2433 19.0106V19.4918C29.325 18.6496 30.8874 18.048 32.57 18.6496C35.5746 19.6121 36.4157 19.7326 38.0983 18.4091L38.2185 18.7701C38.0983 19.0107 37.7378 19.3717 37.2572 19.7326H38.6994V27.6732L43.2663 24.906H56.126C56.126 24.906 61.5344 27.7935 62.4958 28.1544C63.3371 28.5154 63.5775 29.117 63.6977 29.8388C63.8179 30.4404 63.6977 31.2826 63.3371 31.7639C63.0968 32.1248 61.6546 34.5311 60.9333 35.7342C63.0968 38.1405 64.5388 41.3889 64.5388 45.1188C64.5388 48.4876 63.3371 52.6986 59.2507 55.9471C61.0536 56.5486 62.1351 57.5111 62.9764 58.7144L61.7747 63.1664ZM33.1707 20.3345C31.368 19.9735 30.4065 20.2142 29.325 21.1767C29.8057 21.4173 30.4066 21.5376 31.1277 21.5376C32.2092 21.4173 32.8102 20.8157 33.1707 20.3345ZM32.0891 31.7643L37.1368 28.7565C36.1754 28.2751 35.0937 27.9143 33.7717 27.9143C31.9689 27.9143 29.0844 28.6362 27.6422 28.8768C28.3633 29.3581 30.6468 30.8018 32.0891 31.7643ZM54.804 32.1253L55.5251 31.1628L54.4435 29.719L54.5636 29.3579L57.5683 31.0425L56.9675 33.0878C57.4482 33.3283 57.9288 33.5691 58.5297 34.0503L60.4527 30.8018L55.2846 28.1549H43.9874L34.8533 33.6894C36.5361 34.8925 38.2185 36.216 39.3003 37.5394C41.704 33.93 46.1507 31.644 50.3573 31.644C51.7994 31.5237 53.482 31.644 54.804 32.1253ZM53.8425 44.9989C53.8425 43.3145 53.6022 41.7506 53.2416 40.4271L47.2324 40.1865C46.8718 41.9912 46.5113 43.7959 46.3912 45.4803L53.8425 44.9989ZM55.8857 40.5473C56.126 42.1114 56.126 43.5551 56.006 44.8786L61.8949 44.5177C61.7747 43.1942 61.4142 41.8707 60.8133 40.6676L55.8857 40.5473ZM52.8811 38.6223C52.2801 36.4566 51.559 35.0128 51.0783 34.2909H50.3572C49.9966 34.2909 49.5159 34.2909 49.1553 34.4114C48.5544 35.8552 48.0737 37.4193 47.7131 38.9832L52.8811 38.6223ZM54.5635 35.0128C55.0444 36.216 55.2846 37.2988 55.525 38.5021L59.1305 38.2615C57.9287 36.8176 56.3664 35.6144 54.5635 35.0128ZM61.1738 50.2928C61.6547 49.2099 61.8949 48.2474 61.8949 47.0443L55.7655 46.6833C55.5251 48.3677 55.0444 49.9318 54.5636 51.1351L61.1738 50.2928ZM45.9102 35.2535C43.867 36.216 42.4248 37.4193 41.1028 39.2238L45.3092 38.9832C45.5496 37.0582 45.7901 35.855 45.9102 35.2535Z" fill="black"/>
<path d="M38.0987 72.3095C39.7813 72.0689 41.4639 70.7456 41.4639 68.7001C41.4639 66.8953 40.7428 64.8502 35.3345 64.8502H26.2004V64.9705C26.4406 65.091 26.9215 65.3314 27.1617 65.572C27.7627 66.1736 28.003 67.1361 28.003 68.219V81.8145H35.5747C39.661 81.8145 42.6656 80.2504 42.6656 76.6408C42.7859 73.7534 40.5024 72.43 38.0987 72.3095ZM34.2528 66.4142C36.1756 66.4142 37.4976 66.7752 37.4976 68.9407C37.4976 71.1065 35.6949 71.7079 33.7719 71.7079H32.0893V66.4142H34.2528ZM34.4932 80.2502H32.0895V73.272H34.373C37.4978 73.272 38.8198 74.2345 38.8198 76.6408C38.6996 79.2877 37.1372 80.2502 34.4932 80.2502ZM19.5903 81.9346H24.5178L18.148 73.8736C20.6719 73.1517 22.595 71.8282 22.595 69.3016C22.595 66.4143 20.7921 64.85 16.2252 64.85H6.73047V64.9703C7.09102 65.0908 7.45158 65.3313 7.69195 65.5719C8.41306 66.1735 8.53324 67.2563 8.53324 68.5797V81.8143H12.4993V74.2345H13.9416L19.5903 81.9346ZM12.6195 66.4142H15.2636C17.4269 66.4142 18.6288 67.0157 18.6288 69.4221C18.6288 71.4675 17.0664 72.7909 14.6627 72.7909H12.6195V66.4142ZM58.6503 67.136C59.732 67.7375 59.9724 68.4594 59.9724 68.5797H60.0926L60.9337 65.6922C60.9337 65.6922 59.3715 64.6094 55.7658 64.6094C50.2372 64.6094 46.0308 67.3766 46.0308 73.5126C46.0308 80.3704 50.9584 82.1753 55.2849 82.1753C59.3713 82.1753 60.9335 80.8518 60.9335 80.8518V78.8065C60.9335 78.8065 59.4913 80.1299 56.4867 80.1299C53.963 80.1299 50.2371 78.9268 50.1169 73.272C49.9967 68.0985 52.2802 66.2938 55.405 66.2938C57.2081 66.4143 58.0494 66.8953 58.6503 67.136Z" fill="black"/>
<path d="M73.7934 88.5533C71.5099 88.5533 69.5869 86.6282 69.5869 84.2219C69.5869 81.8157 71.5099 79.8906 73.7934 79.8906C76.0769 79.8906 77.9999 81.8157 77.9999 84.2219C77.9999 86.7485 76.0769 88.5533 73.7934 88.5533ZM73.7934 80.8531C71.9906 80.8531 70.5484 82.4172 70.5484 84.2219C70.5484 86.147 71.9908 87.7111 73.7934 87.7111C75.596 87.7111 77.0384 86.1471 77.0384 84.2219C77.0384 82.4172 75.596 80.8531 73.7934 80.8531ZM74.0338 81.936C74.8749 81.936 75.476 82.5375 75.476 83.3797C75.476 84.1016 74.9951 84.7032 74.3943 84.7032L74.6345 84.9438L75.8364 86.7485H74.7547C74.5143 86.3876 74.5143 86.2673 74.2738 85.9065C73.7931 85.0643 73.6729 84.8237 73.4327 84.7034H73.3123V86.7487H72.351V81.9361H74.0338V81.936ZM73.1925 83.9813H73.553C73.9136 83.9813 74.1539 83.9813 74.2741 83.861C74.3945 83.7405 74.5145 83.6204 74.5145 83.3796C74.5145 83.1391 74.3943 82.8983 74.1539 82.7782C74.0338 82.7782 73.7934 82.6577 73.673 82.6577H73.3125V83.9812L73.1925 83.9813Z" fill="white"/>
</g>
<defs>
<clipPath id="clip0_770_410">
<rect width="78" height="90" fill="white"/>
</clipPath>
</defs>
</svg>
