<svg width="86" height="53" viewBox="0 0 86 53" fill="none" xmlns="http://www.w3.org/2000/svg">
<path d="M42.0568 28.0582C42.1324 28.0726 42.208 28.0861 42.2834 28.0995L42.0568 28.0582ZM42.6749 28.1612C42.7629 28.1743 42.8509 28.1859 42.9392 28.1976L42.6749 28.1612ZM43.3284 28.2396C43.4144 28.2474 43.4998 28.2547 43.5858 28.2613L43.3284 28.2396ZM43.6779 28.2676C43.7505 28.2729 43.823 28.2772 43.8956 28.281L43.6779 28.2676ZM44.0013 28.2866C44.0873 28.2904 44.1733 28.2937 44.2593 28.2965L44.0013 28.2866ZM44.3448 28.2975C44.5369 28.3026 44.729 28.3027 44.9211 28.298L44.3448 28.2975ZM45.0129 28.2965C45.1025 28.2938 45.192 28.2903 45.2815 28.2861L45.0129 28.2965ZM45.366 28.282C45.4436 28.2777 45.52 28.2729 45.5971 28.2676L45.366 28.282ZM45.6773 28.2621C45.7613 28.2557 45.8455 28.2487 45.9289 28.2408L45.6773 28.2621ZM46.3596 28.1928C46.4244 28.1852 46.4886 28.1768 46.5526 28.1667L46.3596 28.1928ZM58.1592 6.48946C58.0895 6.45194 58.0181 6.41784 57.9452 6.38729L58.1592 6.48946ZM57.4581 6.23732C57.3687 6.219 57.2784 6.20515 57.1875 6.19584L57.4581 6.23732ZM11.5587 15.5425C11.2474 15.2568 11.0109 14.8993 10.8698 14.5011C10.7549 14.1685 10.6062 13.753 10.6062 13.4002C10.6136 11.8094 11.542 10.6279 12.5414 10.0809C12.9956 9.83253 13.1643 9.66208 13.2336 9.57458C13.2004 9.55988 13.1649 9.55082 13.1287 9.54777C11.7683 9.54777 11.0708 9.01921 10.7284 8.57183C10.4039 8.15278 10.2383 7.61258 10.2383 7.02181C10.2383 6.73477 10.2787 6.43433 10.3584 6.12705C10.7418 5.49379 11.106 5.66779 11.329 5.99175C11.4712 6.19458 12.4451 6.88499 13.6451 6.9945C14.5183 7.07745 14.989 7.5046 15.2338 7.84576C15.516 8.24079 15.6243 8.71674 15.6243 9.12163C15.6243 9.28728 15.6055 9.44282 15.5699 9.58115C15.4384 10.1148 14.8762 10.5958 14.0932 11.2086L13.6491 11.5768C12.9989 12.1458 12.6411 12.7791 12.6411 13.3157C12.6411 13.4498 12.6646 13.5805 12.7099 13.7011C12.7286 13.7507 12.7511 13.7985 12.7776 13.8438C13.0682 14.3357 13.8894 14.6442 15.0805 14.2274C15.6311 14.0365 16.691 13.3693 17.3382 12.7277C18.0996 11.968 19.116 11.7857 20.0948 11.7083C20.9435 11.6443 21.466 11.4362 21.834 11.0224C22.9214 9.79713 23.9679 9.6249 24.9474 9.55207C25.3222 9.52324 25.3424 9.49643 25.3912 9.43042C25.9312 8.71143 26.4858 8.33082 26.9835 8.10928C27.3628 7.94059 27.7093 7.86371 27.9931 7.8015L28.3375 7.71678L28.4235 7.68643C28.9688 7.51092 29.3908 7.3655 30.5001 6.61591L30.5473 6.58606L30.5476 6.58556L30.5941 6.55648L30.5946 6.55622L30.6414 6.52866L30.6422 6.5284L30.689 6.5016L30.6897 6.50134L30.7368 6.47656L30.7383 6.47605L30.7848 6.45178L30.7863 6.45127L30.8331 6.42851L30.8351 6.428L30.8822 6.40625L30.884 6.40524L30.9312 6.38552L30.9333 6.38476L30.9803 6.36528L30.9828 6.36478L31.0301 6.34707L31.0324 6.34581L31.0792 6.32912L31.129 6.31243L31.1323 6.31167L31.1788 6.29675L31.1819 6.29599L31.2292 6.28233L31.2325 6.28157L31.2792 6.26868L31.2828 6.26766L31.3298 6.25654L31.3341 6.25553L31.3804 6.2449L31.3842 6.24389L31.4315 6.23428L31.4355 6.23327L31.4823 6.22467L31.4866 6.22391L31.5334 6.21607L31.5377 6.21557L31.584 6.20874L31.5888 6.20773L31.6353 6.20242L31.6401 6.20141L31.6859 6.19635L31.691 6.19609L31.7372 6.19179L31.7425 6.19129L31.7886 6.188L31.7939 6.1875L31.8392 6.18471L31.8445 6.18446L31.8902 6.18244L31.9413 6.18092H31.9466L31.9922 6.18041H32.0488L32.0938 6.18092L32.0991 6.18117H32.1045C32.1368 6.18193 32.1692 6.18395 32.2016 6.18573L32.2461 6.18851L32.2524 6.18901L32.2961 6.1923L32.3027 6.19281L32.3465 6.19711L32.3533 6.19786L32.3968 6.20216L32.4039 6.20267L32.4471 6.20798L32.454 6.20899L32.497 6.2143L32.5043 6.21557L32.5468 6.22189L32.5539 6.22315L32.5966 6.22973L32.6042 6.23125L32.6459 6.23858L32.6537 6.23985L32.6952 6.24743L32.7028 6.2492C32.7691 6.2616 32.8343 6.27626 32.8983 6.29194L32.9385 6.30206L32.9466 6.30433C33.0111 6.32103 33.0748 6.33873 33.1375 6.35744L33.1747 6.36908L33.1838 6.37186C33.3083 6.41106 33.4289 6.45532 33.5457 6.5021L33.5786 6.51576L33.6216 6.53346C35.9938 3.31077 39.7443 1.16643 44.0069 0.972458V0.971447C44.2168 0.962011 44.4268 0.957205 44.6369 0.957031C44.7757 0.957123 44.9146 0.95923 45.0534 0.963354C45.1224 0.96563 45.1915 0.968412 45.2603 0.971194H45.261C45.3293 0.974481 45.3984 0.977769 45.4669 0.982068C49.5917 1.22991 53.2243 3.30722 55.5639 6.41308C55.898 6.297 56.2619 6.21279 56.6334 6.1875L56.6433 6.18699L56.6784 6.18471L56.7151 6.18294L56.7239 6.18244L56.7336 6.18218L56.7695 6.18117L56.7791 6.18067L56.815 6.18041L56.8246 6.18016L56.8613 6.17991H56.8701L56.9068 6.18016H56.9159L56.9612 6.18092L56.9981 6.18244L57.0062 6.18269L57.0431 6.18446L57.0517 6.18497L57.0889 6.1875L57.096 6.188L57.1336 6.19104L57.141 6.19154L57.1789 6.19534L57.1857 6.19609C57.2766 6.20539 57.3669 6.21923 57.4563 6.23757L57.4961 6.24566L57.5014 6.24693L57.5406 6.25628L57.5461 6.2573L57.5856 6.26741L57.5909 6.26868L57.6308 6.2793L57.6351 6.28056L57.6761 6.29194L57.6799 6.29321L57.7199 6.3056L57.7244 6.30686L57.7651 6.32027L57.7687 6.32128L57.8127 6.33671L57.8539 6.35137L57.8564 6.35264L57.8974 6.36857L57.8999 6.36958L57.9417 6.38627L57.9442 6.38754C58.0163 6.41789 58.0876 6.45152 58.1581 6.48971L58.1594 6.49047L58.2011 6.51272L58.2016 6.51323L58.2434 6.53726L58.2441 6.53751L58.2859 6.5628L58.2864 6.56305L58.3276 6.5891L58.3693 6.61616C59.1336 7.13562 59.5751 7.36449 59.952 7.51395C60.1214 7.58148 60.2787 7.63231 60.4456 7.68668L60.5334 7.71703L60.8814 7.80175C61.07 7.84323 61.2855 7.89103 61.5189 7.9674C62.1029 8.15758 62.8006 8.52681 63.4776 9.43068C63.5267 9.49668 63.5484 9.52349 63.925 9.55232C64.9035 9.62541 65.9482 9.79738 67.0402 11.0227C67.4054 11.4364 67.9254 11.6443 68.7738 11.7085C69.7584 11.7859 70.7715 11.968 71.5315 12.728C72.1794 13.3696 73.238 14.0367 73.7901 14.2277C74.9808 14.6444 75.806 14.3359 76.0897 13.844C76.1519 13.7403 76.1937 13.6263 76.2149 13.5056C76.226 13.443 76.2317 13.3796 76.2318 13.316C76.2318 12.7793 75.8735 12.1461 75.2251 11.577L75.1444 11.51L74.7767 11.2088C73.9967 10.596 73.4343 10.115 73.2987 9.5814C73.2631 9.44307 73.2476 9.28754 73.2476 9.12189C73.2476 8.71674 73.3584 8.24104 73.6351 7.84601C73.8817 7.50485 74.3574 7.0777 75.2251 6.99475C76.4314 6.88524 77.4 6.19483 77.5416 5.992C77.7685 5.66804 78.1291 5.49405 78.511 6.12731C78.5919 6.43458 78.6324 6.73502 78.6324 7.02206C78.6324 7.61612 78.4667 8.15303 78.1425 8.57208C77.7978 9.01946 77.1026 9.54802 75.74 9.54802C75.7111 9.54802 75.6709 9.56143 75.6373 9.57483C75.7048 9.66259 75.8735 9.83304 76.3287 10.0811C77.3282 10.6284 78.2576 11.81 78.2659 13.4004C78.2659 13.7532 78.119 14.1685 78.0004 14.5013C77.8764 14.8504 77.6799 15.1692 77.4238 15.4368C77.3891 15.4727 77.3529 15.5081 77.3148 15.5427C76.7518 16.0657 75.8141 16.4762 74.2516 16.3829C74.0871 16.3728 73.9229 16.358 73.7592 16.3384C73.7188 17.1267 73.5026 18.0637 73.1983 18.5363C73.1058 18.6848 73.0875 18.7844 73.0875 18.8332C73.0875 18.8537 73.0896 18.8656 73.0896 18.8742C73.0992 18.8775 73.7828 19.2809 73.7828 19.2809L73.893 19.3367C73.893 19.3367 73.9573 19.3671 73.9656 19.3739C73.9755 19.3704 74.2018 19.3603 74.2018 19.3603L74.2466 19.3539L74.2511 19.3534C74.6785 19.3127 75.3313 19.1036 75.6087 19.8785C75.6813 20.0841 75.7255 20.2631 75.7673 20.4217C75.852 20.7459 75.9246 20.9867 76.2083 21.2054C76.2083 21.2054 76.3487 21.085 76.508 20.9434C76.6311 20.8347 76.7518 20.7233 76.8699 20.6093C77.0677 20.4068 77.4336 20.5097 77.6974 20.6093C77.9642 20.7105 78.2945 20.9404 78.5279 21.0734C78.7629 21.2052 78.8923 21.3723 78.9599 21.5719C79.0304 21.7709 79.1936 21.9027 79.4424 22.0344C79.6827 22.171 80.0271 22.6085 80.0271 23.199C80.0271 23.2896 80.0372 23.3669 80.0628 23.4491C80.0802 23.5035 80.104 23.5602 80.1366 23.6247C80.4725 24.3017 80.2029 24.6426 80.0084 24.7862C79.7469 24.982 79.2856 25.0629 78.8521 24.9921L78.8557 25.1034L78.2227 25.0189C77.9774 24.9883 77.6539 25.051 77.4607 25.0912L77.4152 25.1034C76.9645 25.1929 76.3752 25.0404 76.0442 24.5027C76.0321 24.4827 76.0199 24.4628 76.0085 24.4415C75.8396 24.1449 75.5766 23.8695 75.4479 23.7933C75.262 23.8444 74.9684 23.9137 74.6189 23.8781C74.2946 23.8454 73.9206 23.721 73.5402 23.4059C73.4773 23.3535 73.4138 23.2956 73.3508 23.2329C72.7919 22.6722 72.0545 22.5574 71.5909 22.6285L71.3145 22.6775C70.7439 22.7807 70.0313 22.9122 69.373 22.5106C69.2091 22.4107 68.9729 22.3078 68.7412 22.2099C68.1436 21.9497 67.5258 21.6814 67.4416 21.1156C67.4274 21.0147 67.3182 20.8304 67.2284 20.6837C67.1495 20.5539 67.0635 20.4121 66.997 20.2601C66.933 20.1149 66.887 19.9604 66.8827 19.799C66.687 19.8494 66.4848 19.87 66.283 19.8602C66.2118 19.8567 66.1407 19.8497 66.0701 19.8393L65.8106 19.799C65.3734 19.7244 64.4576 19.574 64.166 19.6804C63.5854 19.8898 61.7582 19.991 61.2572 19.8764C61.2572 19.8764 61.0728 19.836 60.8991 19.799C60.7322 19.9713 60.546 20.1329 60.3503 20.2768C60.717 20.2967 61.0394 20.2512 61.261 20.3084L61.7212 20.4298C61.8682 20.3863 62.2275 20.3913 62.4316 20.4098L62.9708 20.4503L63.5859 20.5094C63.8823 20.5689 64.1969 20.6968 64.143 21.2775C64.1223 21.4565 64.0221 21.7097 63.8714 21.8584C63.7884 21.9494 63.467 22.4155 63.3964 22.5622L63.3734 22.608C63.2482 22.8748 63.0626 23.1199 62.5222 23.1199C62.4535 23.1189 62.3849 23.1216 62.3166 23.128C62.3001 23.1717 62.2559 23.2529 62.2559 23.2529C62.1342 23.5296 61.9585 23.9147 61.6226 24.1375L61.5328 24.202C61.2632 24.3945 60.8141 24.7116 60.1265 24.462L59.8897 24.3773C59.2904 24.1613 58.384 23.8373 57.9265 23.5872L57.8623 23.5518C57.4361 23.3186 57.3418 23.2719 57.187 23.2936L57.101 23.307C56.7743 23.3528 56.1582 23.4355 55.7323 22.7294L55.6934 22.6682C53.674 25.44 50.6387 27.424 47.1355 28.0716L47.1201 28.0749C47.0007 28.0967 46.8803 28.1169 46.76 28.1359L46.7152 28.1424L46.5506 28.1667C46.4866 28.1763 46.4223 28.1849 46.3576 28.193L46.2403 28.2077L46.0551 28.2277L45.9269 28.2411C45.8435 28.2489 45.7592 28.256 45.6753 28.2623L45.5956 28.2676C45.5185 28.2729 45.4421 28.278 45.3645 28.282L45.28 28.2866C45.1905 28.2909 45.1015 28.2942 45.0114 28.297L44.9201 28.2985C44.728 28.3033 44.5358 28.3031 44.3438 28.298L44.2578 28.297C44.1718 28.2942 44.0858 28.2909 43.9998 28.2871L43.8946 28.2813C43.822 28.2772 43.7495 28.2734 43.6769 28.2679L43.5846 28.2618C43.4987 28.2552 43.4129 28.2479 43.3271 28.2401L43.2002 28.2269L43.032 28.2087L42.9382 28.1978C42.8499 28.187 42.7618 28.1748 42.6739 28.1612L42.5674 28.1455L42.3792 28.1161L42.2824 28.1C42.2068 28.0866 42.1311 28.0734 42.0558 28.0587L41.8927 28.0261L41.8092 28.0092C41.6977 27.9849 41.5854 27.9609 41.4746 27.9341L41.4453 27.9272L41.271 27.8847L41.1815 27.8617C41.0776 27.8349 40.9741 27.8061 40.871 27.7773L40.834 27.7664C37.7623 26.8802 35.1375 24.9458 33.3679 22.3763L33.135 22.7309C32.7132 23.437 32.0984 23.354 31.7673 23.3085L31.6814 23.2951C31.5271 23.2734 31.4295 23.3202 31.0074 23.5533L30.9396 23.5887C30.4836 23.8389 29.5808 24.1628 28.9781 24.3788L28.7409 24.4635C28.0538 24.7131 27.6031 24.3955 27.3386 24.2035L27.2457 24.139C26.9096 23.9165 26.7357 23.5313 26.6122 23.2544C26.6122 23.2544 26.5718 23.1732 26.552 23.1295C26.4835 23.1232 26.4147 23.1205 26.3459 23.1214C25.8105 23.1214 25.6196 22.8763 25.4964 22.6095L25.4747 22.5637C25.4021 22.4171 25.0847 21.951 24.997 21.8599C24.8485 21.7115 24.7431 21.4581 24.7264 21.279C24.6707 20.6984 24.9896 20.5704 25.2832 20.511L25.8986 20.4518L26.4387 20.4113C26.6395 20.3929 26.9992 20.3878 27.1459 20.4313L27.6066 20.3099C27.8259 20.2527 28.1516 20.2983 28.515 20.2783C28.3219 20.1319 28.1391 19.9723 27.968 19.8006C27.7923 19.8375 27.6097 19.8779 27.6097 19.8779C27.1072 19.9925 25.2832 19.8914 24.7061 19.682C24.4128 19.5755 23.4978 19.7257 23.0585 19.8006L22.795 19.8408C22.5261 19.8821 22.2517 19.8684 21.9882 19.8006C21.9743 20.1311 21.7953 20.4313 21.6418 20.6852C21.5525 20.8319 21.4394 21.0163 21.4258 21.1172C21.3469 21.6829 20.7214 21.9512 20.1256 22.2115C19.8942 22.3093 19.6615 22.4123 19.4964 22.5121C18.8429 22.9138 18.127 22.7822 17.5546 22.6791L17.2775 22.63C16.8164 22.5589 16.0785 22.6737 15.5183 23.2344C14.6617 24.089 13.8095 23.9011 13.4213 23.7949C13.2928 23.871 13.028 24.1464 12.8603 24.443C12.5366 25.0308 11.9183 25.1977 11.4524 25.1049L11.4056 25.0927C11.2145 25.0525 10.895 24.9898 10.6505 25.0204L10.0137 25.1049L10.0205 24.9936C9.58477 25.0644 9.12197 24.9832 8.85946 24.7877C8.6665 24.6441 8.39615 24.3032 8.73756 23.6262C8.81672 23.4638 8.84378 23.351 8.84378 23.2005C8.84378 22.6098 9.18545 22.1725 9.42519 22.0359C9.67658 21.9042 9.84197 21.7724 9.90924 21.5734C9.97525 21.3738 10.1047 21.2067 10.3399 21.0749C10.5726 20.9419 10.9036 20.712 11.1689 20.6109C11.4337 20.5112 11.7997 20.4083 11.9992 20.6109C12.2003 20.8066 12.6608 21.2067 12.6608 21.2067C13.0834 20.8804 13.0429 20.5044 13.2619 19.8795C13.5358 19.1046 14.1911 19.3137 14.6165 19.3544L14.6653 19.3613C14.6653 19.3613 14.8946 19.3714 14.9015 19.3749C14.9134 19.3681 14.9776 19.3378 14.9776 19.3378L15.0841 19.2819C15.0841 19.2819 15.7709 18.8785 15.7778 18.8752C15.7808 18.8669 15.7808 18.8547 15.7808 18.8342C15.7808 18.7854 15.7641 18.6858 15.6713 18.5373C15.3658 18.0644 15.1498 17.1277 15.1106 16.3394C15.0004 16.3525 14.8939 16.3634 14.7892 16.3718C13.1256 16.5053 12.137 16.0845 11.5587 15.5425Z" fill="#F8EE3F"/>
<path d="M15.6543 15.7632C15.6543 15.7632 15.5157 17.1048 16.1202 18.2871C16.1202 18.2871 16.568 18.9219 16.103 19.3295L15.1771 19.8677C15.1771 19.8677 15.0527 19.9603 14.6397 19.9289C14.6397 19.9289 14.0689 19.7875 13.8782 20.0397C13.8782 20.0397 13.7126 20.5245 13.5052 20.9241C13.5052 20.9241 13.0836 21.8927 12.3858 22.203C12.3858 22.203 11.8297 22.3304 11.661 22.8127C11.661 22.8127 11.4817 23.1511 11.1226 23.166C11.1226 23.166 10.8548 23.251 10.6775 23.8476C10.6775 23.8476 10.5809 24.2335 10.586 24.5294C10.586 24.5294 11.0427 24.4695 11.3404 24.5772C11.3404 24.5772 12.0723 24.823 12.3995 24.2201C12.3995 24.2201 13.0318 23.1374 13.5006 23.3003C13.5006 23.3003 14.4424 23.6154 15.1076 22.928C15.1076 22.928 16.0213 21.9298 17.3118 22.1352C17.3118 22.1352 18.7655 22.4296 19.2189 22.0942C19.2189 22.0942 20.1357 21.615 20.4796 21.4961C20.4796 21.4961 20.9005 21.3725 20.944 20.9117C20.944 20.9117 21.1999 20.2635 21.386 20.0475L20.6926 20.0397C20.6926 20.0397 20.0646 21.0958 18.9977 21.4142C18.9977 21.4142 18.4142 21.6474 17.243 21.4579C17.243 21.4579 15.5615 21.0771 14.0846 22.6721C14.0846 22.6721 13.8828 22.9637 13.5947 22.8471C13.5947 22.8471 14.4108 21.4554 16.2026 21.1256C16.2026 21.1256 16.7891 21.0009 17.2782 21.0804C17.2782 21.0804 19.6916 21.1512 20.8107 18.7752C20.8107 18.7752 20.6895 16.7495 21.2239 16.2697C21.2239 16.2697 21.4303 16.2065 21.3891 16.5982C21.3891 16.5982 21.0219 18.7203 21.7115 19.1313C21.7115 19.1313 22.1119 19.4459 22.8526 19.3295C22.8526 19.3295 23.9755 19.0612 24.8882 19.2175C24.8882 19.2175 26.2918 19.5506 27.4978 19.3966C27.4978 19.3966 27.1848 18.9171 27.2462 18.3437C27.2462 18.3437 27.4189 17.9333 27.617 18.1973C27.617 18.1973 28.081 19.7304 29.3493 20.1904C29.3493 20.1904 30.4821 20.6029 30.4636 22.0396C30.4636 22.0396 30.2901 22.2366 28.7881 22.7702C28.7881 22.7702 28.227 22.9475 28.0461 22.5282C28.0461 22.5282 27.3218 20.9779 26.6914 21.0257L25.5075 21.1218C25.5075 21.1218 25.1037 21.2253 25.4011 21.549C25.4011 21.549 25.8065 22.0879 25.9721 22.4096C25.9721 22.4096 26.0204 22.6845 26.4013 22.6261C26.4013 22.6261 26.9296 22.3643 27.2275 23.3471C27.2275 23.3471 27.5001 23.8385 27.9617 23.9955C27.9617 23.9955 28.3934 24.1397 28.7985 23.9123C28.7985 23.9123 30.7537 23.1946 31.0941 22.9402C31.0941 22.9402 31.5169 22.7035 31.8523 22.8173C31.8523 22.8173 32.4387 22.9571 32.6803 22.4943L33.2862 21.5568C33.2862 21.5568 33.4192 21.3259 33.4008 21.0359C33.4008 21.0359 33.4557 20.7486 33.2134 20.4565C33.2134 20.4565 32.9845 20.2144 32.9483 20.0392L32.5164 19.024C32.5164 19.024 32.3414 18.7529 32.1492 18.6414L31.5726 18.6836C31.5726 18.6836 31.9694 19.6978 32.2599 20.111C32.2599 20.111 32.6532 20.7124 32.6332 21.0948C32.6332 21.0948 32.6072 21.3628 32.5015 21.4746C32.5015 21.4746 32.3684 21.6876 32.3148 21.791C32.3148 21.791 32.1401 22.1704 31.9982 22.2546C31.9982 22.2546 31.7529 22.3997 31.6932 22.4056C31.6932 22.4056 31.5865 22.4351 31.6656 22.2439C31.6656 22.2439 31.9888 21.5639 31.9676 21.2002C31.9676 21.2002 32.0303 20.8214 31.7622 20.5996C31.7622 20.5996 31.134 19.608 31.044 19.3116C31.044 19.3116 30.847 18.915 30.742 18.847C30.742 18.847 30.5225 18.5584 30.8768 18.4234C30.8768 18.4234 31.7595 18.2241 31.9175 18.1159C31.9175 18.1159 32.3419 17.9874 32.6175 17.1035C32.6175 17.1035 32.9971 16.0727 32.9916 15.4364C32.9916 15.4364 33.7356 16.8709 32.549 18.3296C32.549 18.3296 33.488 18.6065 33.8765 18.3296C33.8765 18.3296 35.0461 18.1586 35.272 18.0964C35.272 18.0964 35.5661 18.0253 35.3982 18.234C35.3982 18.234 35.0454 18.7357 35.0155 19.0645C35.0155 19.0645 34.9928 19.3262 34.7783 19.4795C34.7783 19.4795 34.1134 19.9451 34.055 20.391C34.055 20.391 33.9129 20.8201 34.2065 20.7175C34.2065 20.7175 34.6046 20.5331 34.7452 20.7187C34.7452 20.7187 34.7864 20.7382 34.6329 20.9104C34.6329 20.9104 34.2336 21.2579 34.2037 21.7242C34.2037 21.7242 34.2776 22.2624 34.4187 22.4354C34.4187 22.4354 34.5985 22.6848 34.8828 22.6056C34.8828 22.6056 34.9581 22.5446 35.0942 22.5856C35.0942 22.5856 35.2348 22.5851 35.602 22.4582C35.602 22.4582 36.1586 22.3052 36.3448 22.2394C36.3448 22.2394 37.0534 21.986 37.4029 22.0037C37.4029 22.0037 37.6303 21.9787 37.9201 22.0366C37.9201 22.0366 38.8062 22.1372 39.3968 21.4845C39.3968 21.4845 39.8462 21.1282 39.9987 21.4741C39.9987 21.4741 41.0768 22.9207 42.8218 22.5396C42.8218 22.5396 41.4334 21.9685 41.0732 21.1909C41.0732 21.1909 41.0252 20.5306 40.2978 19.6135C40.2978 19.6135 40.0755 19.3093 40.29 19.2301C40.29 19.2301 40.4142 19.1373 40.685 19.4092C40.685 19.4092 41.3759 20.0721 41.6256 20.6788C41.6256 20.6788 42.4837 21.9754 43.7203 21.5396C43.7203 21.5396 42.7494 21.1651 42.2932 20.4666C42.2932 20.4666 42.0112 19.5212 41.0634 18.8179C41.0634 18.8179 41.0262 17.7555 40.5841 17.1584C40.5841 17.1584 40.3588 16.1607 40.2981 15.9275C40.2981 15.9275 40.0596 15.0512 40.0611 14.8092C40.0611 14.8092 40.14 13.6646 39.4021 12.7736C39.4021 12.7736 38.9077 11.8205 38.1376 11.1563C38.1376 11.1563 37.5524 10.4333 37.1171 9.99047C37.1171 9.99047 36.5446 9.31928 35.2963 8.44348C35.2963 8.44348 34.731 8.03252 34.317 7.59071C34.317 7.59071 32.115 6.00579 30.5243 7.27711C30.5243 7.27711 29.4257 8.02443 28.5082 8.25583C28.5082 8.25583 26.6226 8.47535 25.8186 9.7841C25.8186 9.7841 25.7498 10.0259 24.9898 10.1179C24.9898 10.1179 23.3205 9.91637 22.0914 11.5582C22.0914 11.5582 21.5203 12.1156 20.3899 12.2511C20.3899 12.2511 18.5462 12.0625 17.346 13.4759C17.346 13.4759 14.3172 16.118 12.5113 14.4046C12.5113 14.4046 11.5756 13.5187 12.6453 11.9145C12.6453 11.9145 13.3239 11.0956 14.4814 10.2401C14.4814 10.2401 15.4204 9.5785 14.99 8.54996C14.99 8.54996 14.7626 7.55606 13.3552 7.52976C13.3552 7.52976 11.5892 7.1886 10.875 6.29688C10.875 6.29688 10.0776 9.10532 13.2073 9.05854C13.2073 9.05854 14.0229 9.17917 13.7381 9.82659C13.7381 9.82659 13.3383 10.3804 12.8016 10.582C12.8016 10.582 11.8575 10.995 11.4309 12.3697C11.4309 12.3697 10.4775 14.7763 12.8036 15.7052C13.6989 16.0145 14.733 15.9235 15.6543 15.7632ZM11.1757 21.4342C11.3019 21.3287 11.4868 21.2693 11.6509 21.3077C12.0212 21.3874 11.7971 21.7081 11.7971 21.7081C11.6471 21.9885 11.1578 22.4617 11.1578 22.4617C10.7225 22.7877 10.3778 22.3995 10.3778 22.3995C10.0554 22.0816 10.4749 21.9278 10.4749 21.9278C10.719 21.8287 11.1757 21.4342 11.1757 21.4342ZM10.2425 22.9384C10.2425 22.9384 10.3778 23.0383 10.3055 23.2356C10.3055 23.2356 9.96004 24.1812 9.97623 24.4985C9.97623 24.4985 9.21171 24.6351 9.10575 24.2578C9.10575 24.2578 9.08526 24.1121 9.20994 23.9009C9.20994 23.9009 9.33968 23.7039 9.37331 23.3436C9.37331 23.3436 9.36193 22.4367 9.94942 22.6769C10.066 22.7422 10.1581 22.837 10.2425 22.9384ZM37.189 21.0194C37.0544 21.0161 37.0203 20.9668 37.0365 20.8186C37.1267 20.4066 37.457 20.2288 37.457 20.2288C38.0766 19.8586 38.152 20.2294 38.152 20.2294C38.2655 20.8907 37.7428 20.9739 37.7428 20.9739C37.6384 21.0098 37.189 21.0194 37.189 21.0194ZM39.0581 18.0661C39.0695 17.7557 39.0958 17.0661 38.7804 16.8198C38.6641 16.7272 38.2038 16.2232 38.2038 16.2232C38.1338 16.101 38.0799 16.0934 38.0799 16.0934C37.9851 16.0843 37.8627 16.3049 37.8627 16.3049C37.5349 16.9374 37.2079 16.8602 37.2079 16.8602C37.2051 16.7449 37.2823 16.6162 37.2823 16.6162C37.4405 16.3089 37.5972 16.0009 37.7524 15.6921C37.8002 15.5823 37.8442 15.4362 37.8442 15.4362C38.1606 14.9458 38.4588 15.3191 38.4588 15.3191C38.5918 15.5788 39.3012 16.425 39.3012 16.425C39.4585 16.6121 39.4736 16.8132 39.4736 16.8132C39.638 17.9722 39.0581 18.0661 39.0581 18.0661ZM32.5245 11.0693C32.4276 10.8951 32.4676 10.7173 32.5649 10.5479C32.7845 10.2115 32.9896 10.5785 32.9896 10.5785C33.7475 11.6351 33.1878 13.217 33.1878 13.217C33.1099 11.761 32.5245 11.0693 32.5245 11.0693ZM73.2193 15.7632C73.2193 15.7632 73.3578 17.1048 72.7534 18.2871C72.7534 18.2871 72.3055 18.9219 72.7706 19.3295L73.6967 19.8677C73.6967 19.8677 73.8209 19.9603 74.2341 19.9289C74.2341 19.9289 74.8047 19.7875 74.9951 20.0397C74.9951 20.0397 75.161 20.5245 75.3681 20.9241C75.3681 20.9241 75.7905 21.8927 76.4882 22.203C76.4882 22.203 77.0441 22.3304 77.2123 22.8127C77.2123 22.8127 77.3921 23.1511 77.7507 23.166C77.7507 23.166 78.019 23.251 78.1961 23.8476C78.1961 23.8476 78.2929 24.2335 78.2881 24.5294C78.2881 24.5294 77.8311 24.4695 77.5332 24.5772C77.5332 24.5772 76.8016 24.823 76.4743 24.2201C76.4743 24.2201 75.8421 23.1374 75.3732 23.3003C75.3732 23.3003 74.4317 23.6154 73.7663 22.928C73.7663 22.928 72.8528 21.9298 71.562 22.1352C71.562 22.1352 70.1089 22.4296 69.6552 22.0942C69.6552 22.0942 68.7384 21.615 68.3945 21.4961C68.3945 21.4961 67.9734 21.3725 67.9304 20.9117C67.9304 20.9117 67.6742 20.2635 67.4881 20.0475L68.1813 20.0397C68.1813 20.0397 68.809 21.0958 69.8759 21.4142C69.8759 21.4142 70.4599 21.6474 71.6306 21.4579C71.6306 21.4579 73.3123 21.0771 74.7893 22.6721C74.7893 22.6721 74.9913 22.9637 75.2789 22.8471C75.2789 22.8471 74.4633 21.4554 72.6712 21.1256C72.6712 21.1256 72.085 21.0009 71.5954 21.0804C71.5954 21.0804 69.182 21.1512 68.0624 18.7752C68.0624 18.7752 68.184 16.7495 67.6497 16.2697C67.6497 16.2697 67.4438 16.2065 67.4843 16.5982C67.4843 16.5982 67.8512 18.7203 67.1621 19.1313C67.1621 19.1313 66.7615 19.4459 66.0207 19.3295C66.0207 19.3295 64.8981 19.0612 63.9857 19.2175C63.9857 19.2175 62.5816 19.5506 61.3755 19.3966C61.3755 19.3966 61.6888 18.9171 61.6274 18.3437C61.6274 18.3437 61.4544 17.9333 61.2564 18.1973C61.2564 18.1973 60.7923 19.7304 59.5238 20.1904C59.5238 20.1904 58.391 20.6029 58.4095 22.0396C58.4095 22.0396 58.5835 22.2366 60.0857 22.7702C60.0857 22.7702 60.6471 22.9475 60.828 22.5282C60.828 22.5282 61.5515 20.9779 62.1822 21.0257L63.3666 21.1218C63.3666 21.1218 63.7702 21.2253 63.4725 21.549C63.4725 21.549 63.0676 22.0879 62.9015 22.4096C62.9015 22.4096 62.8537 22.6845 62.4726 22.6261C62.4726 22.6261 61.9443 22.3643 61.6458 23.3471C61.6458 23.3471 61.3737 23.8385 60.9122 23.9955C60.9122 23.9955 60.4802 24.1397 60.0753 23.9123C60.0753 23.9123 58.1202 23.1946 57.78 22.9402C57.78 22.9402 57.3569 22.7035 57.0218 22.8173C57.0218 22.8173 56.4359 22.9571 56.1943 22.4943L55.5884 21.5568C55.5884 21.5568 55.4549 21.3259 55.4736 21.0359C55.4736 21.0359 55.4184 20.7486 55.661 20.4565C55.661 20.4565 55.8901 20.2144 55.926 20.0392L56.3582 19.024C56.3582 19.024 56.5332 18.7529 56.7252 18.6414L57.3023 18.6836C57.3023 18.6836 56.905 19.6978 56.6141 20.111C56.6141 20.111 56.2209 20.7124 56.2409 21.0948C56.2409 21.0948 56.2672 21.3628 56.3726 21.4746C56.3726 21.4746 56.5057 21.6876 56.5595 21.791C56.5595 21.791 56.7335 22.1704 56.8759 22.2546C56.8759 22.2546 57.121 22.3997 57.1809 22.4056C57.1809 22.4056 57.2879 22.4351 57.2077 22.2439C57.2077 22.2439 56.8855 21.5639 56.906 21.2002C56.906 21.2002 56.8438 20.8214 57.1113 20.5996C57.1113 20.5996 57.7401 19.608 57.8306 19.3116C57.8306 19.3116 58.0268 18.915 58.132 18.847C58.132 18.847 58.3516 18.5584 57.9973 18.4234C57.9973 18.4234 57.1149 18.2241 56.9568 18.1159C56.9568 18.1159 56.5325 17.9874 56.2565 17.1035C56.2565 17.1035 55.8772 16.0727 55.8825 15.4364C55.8825 15.4364 55.1385 16.8709 56.3253 18.3296C56.3253 18.3296 55.3863 18.6065 54.9979 18.3296C54.9979 18.3296 53.8285 18.1586 53.6019 18.0964C53.6019 18.0964 53.3085 18.0253 53.4759 18.234C53.4759 18.234 53.8285 18.7357 53.8588 19.0645C53.8588 19.0645 53.8811 19.3262 54.096 19.4795C54.096 19.4795 54.7609 19.9451 54.8188 20.391C54.8188 20.391 54.9612 20.8201 54.6673 20.7175C54.6673 20.7175 54.2695 20.5331 54.1289 20.7187C54.1289 20.7187 54.0877 20.7382 54.2412 20.9104C54.2412 20.9104 54.6405 21.2579 54.6701 21.7242C54.6701 21.7242 54.5963 22.2624 54.4549 22.4354C54.4549 22.4354 54.2753 22.6848 53.9911 22.6056C53.9911 22.6056 53.916 22.5446 53.7791 22.5856C53.7791 22.5856 53.6388 22.5851 53.2716 22.4582C53.2716 22.4582 52.7149 22.3052 52.5288 22.2394C52.5288 22.2394 51.8202 21.986 51.4704 22.0037C51.4704 22.0037 51.2431 21.9787 50.9532 22.0366C50.9532 22.0366 50.0668 22.1372 49.4763 21.4845C49.4763 21.4845 49.0269 21.1282 48.8749 21.4741C48.8749 21.4741 47.7966 22.9207 46.0513 22.5396C46.0513 22.5396 47.4405 21.9685 47.8004 21.1909C47.8004 21.1909 47.8479 20.5306 48.5752 19.6135C48.5752 19.6135 48.7973 19.3093 48.5828 19.2301C48.5828 19.2301 48.4589 19.1373 48.1878 19.4092C48.1878 19.4092 47.4976 20.0721 47.2478 20.6788C47.2478 20.6788 46.3892 21.9754 45.153 21.5396C45.153 21.5396 46.1234 21.1651 46.5796 20.4666C46.5796 20.4666 46.8616 19.5212 47.8102 18.8179C47.8102 18.8179 47.8471 17.7555 48.2895 17.1584C48.2895 17.1584 48.515 16.1607 48.5752 15.9275C48.5752 15.9275 48.8135 15.0512 48.812 14.8092C48.812 14.8092 48.733 13.6646 49.4713 12.7736C49.4713 12.7736 49.9654 11.8205 50.7363 11.1563C50.7363 11.1563 51.3212 10.4333 51.7562 9.99047C51.7562 9.99047 52.329 9.31928 53.5773 8.44348C53.5773 8.44348 54.1423 8.03252 54.5561 7.59071C54.5561 7.59071 56.7578 6.00579 58.349 7.27711C58.349 7.27711 59.4476 8.02443 60.3657 8.25583C60.3657 8.25583 62.2508 8.47535 63.0542 9.7841C63.0542 9.7841 63.123 10.0259 63.883 10.1179C63.883 10.1179 65.5524 9.91637 66.7817 11.5582C66.7817 11.5582 67.3528 12.1156 68.4835 12.2511C68.4835 12.2511 70.3261 12.0625 71.5264 13.4759C71.5264 13.4759 74.5553 16.118 76.3615 14.4046C76.3615 14.4046 77.2968 13.5187 76.2272 11.9145C76.2272 11.9145 75.549 11.0956 74.3917 10.2401C74.3917 10.2401 73.4519 9.5785 73.8829 8.54996C73.8829 8.54996 74.1102 7.55606 75.5176 7.52976C75.5176 7.52976 77.2836 7.1886 77.9975 6.29688C77.9975 6.29688 78.7954 9.10532 75.6653 9.05854C75.6653 9.05854 74.8494 9.17917 75.1345 9.82659C75.1345 9.82659 75.5343 10.3804 76.071 10.582C76.071 10.582 77.015 10.995 77.4419 12.3697C77.4419 12.3697 78.3956 14.7763 76.0684 15.7052C75.1744 16.0145 74.1406 15.9235 73.2193 15.7632ZM77.6981 21.4342C77.5717 21.3287 77.3868 21.2693 77.2232 21.3077C76.8524 21.3874 77.0767 21.7081 77.0767 21.7081C77.227 21.9885 77.7163 22.4617 77.7163 22.4617C78.1521 22.7877 78.4963 22.3995 78.4963 22.3995C78.8182 22.0816 78.3984 21.9278 78.3984 21.9278C78.1548 21.8287 77.6981 21.4342 77.6981 21.4342ZM78.6308 22.9384C78.6308 22.9384 78.4963 23.0383 78.5678 23.2356C78.5678 23.2356 78.9133 24.1812 78.8974 24.4985C78.8974 24.4985 79.6624 24.6351 79.7676 24.2578C79.7676 24.2578 79.7881 24.1121 79.6636 23.9009C79.6636 23.9009 79.5339 23.7039 79.5003 23.3436C79.5003 23.3436 79.5119 22.4367 78.9244 22.6769C78.8076 22.7422 78.7155 22.837 78.6308 22.9384ZM51.6844 21.0194C51.8192 21.0161 51.8538 20.9668 51.8371 20.8186C51.7466 20.4066 51.4168 20.2288 51.4168 20.2288C50.7972 19.8586 50.7216 20.2294 50.7216 20.2294C50.6085 20.8907 51.131 20.9739 51.131 20.9739C51.2355 21.0098 51.6844 21.0194 51.6844 21.0194ZM49.8157 18.0661C49.8041 17.7557 49.7775 17.0661 50.0934 16.8198C50.2102 16.7272 50.67 16.2232 50.67 16.2232C50.7401 16.101 50.7939 16.0934 50.7939 16.0934C50.8883 16.0843 51.0114 16.3049 51.0114 16.3049C51.3387 16.9374 51.6662 16.8602 51.6662 16.8602C51.6687 16.7449 51.5911 16.6162 51.5911 16.6162C51.4329 16.3089 51.2763 16.0009 51.1212 15.6921C51.0865 15.6083 51.0559 15.5229 51.0294 15.4362C50.713 14.9458 50.4151 15.3191 50.4151 15.3191C50.2821 15.5788 49.5729 16.425 49.5729 16.425C49.4791 16.5351 49.4189 16.6698 49.3997 16.8132C49.2361 17.9722 49.8157 18.0661 49.8157 18.0661ZM56.3491 11.0693C56.446 10.8951 56.406 10.7173 56.3086 10.5479C56.0891 10.2115 55.8845 10.5785 55.8845 10.5785C55.1263 11.6351 55.686 13.217 55.686 13.217C55.7634 11.761 56.3491 11.0693 56.3491 11.0693Z" fill="#CC2729"/>
<path d="M0.424072 32.9651V52.3476H4.33516V36.6643H6.17779C6.17779 36.6643 9.05426 36.5348 9.05426 39.1533C9.05426 41.7718 6.50048 41.7066 6.50048 41.7066H5.56299V46.168L9.47483 52.3481H14.0642L8.60182 44.423C8.60182 44.423 13.0948 44.035 13.0948 39.1538C13.0948 34.2734 9.70067 32.9659 5.1758 32.9659L0.424072 32.9651ZM57.6061 42.031C57.6061 42.031 59.3188 40.6988 59.3188 38.1741C59.3188 35.6481 57.4842 33.371 53.5779 33.371H47.0359V52.3478H55.0938C55.0938 52.3478 60.8693 52.2823 60.8693 47.0632C60.8695 44.0335 59.6933 42.8732 57.6061 42.031ZM54.4543 49.0449H50.9475V36.6799H52.8218C52.8218 36.6799 55.369 36.4888 55.369 38.711C55.369 40.9332 53.3428 40.7372 53.3428 40.7372H52.1756V44.0684H54.4535C55.0506 44.0684 56.9529 44.358 56.9529 46.5471C56.9526 48.7357 54.4543 49.0449 54.4543 49.0449ZM82.2694 32.584H85.9223V52.3478H82.2694V32.584ZM75.9828 32.584H79.6837V52.3478H75.9828V32.584ZM61.9702 40.7701H65.7191V47.396C65.7191 47.396 65.8496 49.6274 67.95 49.6274C70.0503 49.6274 70.0192 47.396 70.0192 47.396V40.8014H73.8003V47.6231C73.8003 47.6231 74.2856 52.9565 68.0466 52.9565C61.8083 52.9565 61.9702 48.2696 61.9702 47.4292V40.7701ZM37.1129 32.584V41.5462C37.1129 41.5462 35.3027 40.1566 33.2327 40.1566C31.1647 40.1566 27.6737 41.611 27.6737 46.2006C27.6737 50.7905 30.6478 52.537 33.2011 52.537C35.7551 52.537 37.1774 50.8557 37.1774 50.8557V52.3483H40.8617V32.5842L37.1129 32.584ZM34.2678 49.3032C34.0736 49.3032 31.6493 49.3358 31.6493 46.3622C31.6493 43.3878 34.2997 43.291 34.2997 43.291C34.2997 43.291 37.274 43.3878 37.274 46.2972C37.274 49.2066 34.4615 49.3032 34.2678 49.3032ZM20.3035 40.156C26.5744 40.156 26.3157 46.2656 26.3157 46.2656V47.2347H17.8147C17.8147 48.6241 18.978 49.8206 20.5622 49.8206C22.1458 49.8206 22.9541 48.3014 22.9541 48.3014L25.9598 49.788C24.5701 51.8898 22.6954 52.7294 20.5946 52.7294C14.0647 52.7294 13.9355 47.2994 13.9355 46.6209C13.9355 45.9416 14.0331 40.156 20.3035 40.156ZM17.8789 45.0039H22.5343C22.5343 45.0039 22.3403 42.8067 20.2392 42.8067C18.1382 42.8064 17.8789 45.0039 17.8789 45.0039Z" fill="#CC2729"/>
</svg>
