<svg width="121" height="53" viewBox="0 0 121 53" fill="none" xmlns="http://www.w3.org/2000/svg">
<path d="M16.9837 3.16522C17.075 3.16528 17.1664 3.16534 17.2606 3.1654C21.746 3.17352 26.7513 3.49501 30.796 5.61386C30.604 6.21 30.3927 6.79335 30.1554 7.37283C30.1238 7.45059 30.0922 7.52836 30.0596 7.60849C29.9595 7.85484 29.8589 8.10103 29.7583 8.34722C29.6925 8.50895 29.6268 8.67069 29.561 8.83244C29.1321 9.88677 28.6993 10.9395 28.2651 11.9917C27.7263 11.8207 27.2031 11.6298 26.6827 11.4093C22.4258 9.61775 16.4032 8.37785 11.9662 10.1695C11.3887 10.4626 10.9322 10.7849 10.6501 11.3843C10.5115 11.8741 10.4993 12.2647 10.7134 12.732C11.1297 13.4446 11.8475 13.7688 12.6208 13.985C12.8977 14.0469 13.1752 14.1014 13.4542 14.1532C13.5619 14.174 13.6696 14.1948 13.7806 14.2162C15.5923 14.5595 17.4144 14.851 19.2339 15.1495C28.6799 16.7014 28.6799 16.7014 31.2005 20.0558C31.6333 20.7034 31.9565 21.3807 32.2133 22.1153C32.262 22.2541 32.262 22.2541 32.3118 22.3956C33.0041 24.801 32.4917 27.6279 31.2997 29.7885C29.5024 32.877 26.1611 34.5603 22.8203 35.4524C20.4416 36.05 18.0505 36.2426 15.6043 36.225C15.4878 36.2246 15.3714 36.2241 15.2514 36.2237C13.3644 36.2154 11.508 36.148 9.63774 35.8833C9.51487 35.866 9.39201 35.8486 9.26542 35.8307C7.43825 35.5618 5.64546 35.1658 3.86731 34.6685C3.80275 34.6505 3.73819 34.6324 3.67167 34.6139C3.20785 34.4836 2.74646 34.3466 2.2855 34.2066C2.16295 34.171 2.0404 34.1354 1.91414 34.0988C1.80153 34.0632 1.68892 34.0277 1.57289 33.9911C1.47324 33.9606 1.37359 33.9301 1.27092 33.8987C0.939042 33.7018 0.930021 33.5174 0.830236 33.15C0.797516 32.9312 0.771679 32.7113 0.751491 32.4911C0.739346 32.3624 0.7272 32.2337 0.714686 32.1011C0.702302 31.9621 0.689937 31.823 0.677591 31.684C0.664321 31.5403 0.650991 31.3967 0.637604 31.253C0.602673 30.8762 0.568633 30.4994 0.534759 30.1225C0.506921 29.8145 0.478438 29.5066 0.449922 29.1987C0.415917 28.8313 0.382208 28.4639 0.348575 28.0965C0.342156 28.0265 0.335737 27.9565 0.329124 27.8843C0.311046 27.6864 0.293201 27.4884 0.275367 27.2905C0.265187 27.1779 0.255007 27.0653 0.244519 26.9493C0.222822 26.6709 0.222822 26.6709 0.222822 26.3672C0.37863 26.294 0.37863 26.294 0.627764 26.2659C0.888359 26.3765 1.12665 26.4922 1.37438 26.6266C1.52174 26.7029 1.66925 26.779 1.81689 26.8548C1.89021 26.8926 1.96354 26.9305 2.03908 26.9695C4.99651 28.478 8.39671 29.103 11.6625 29.5055C11.7449 29.5161 11.8273 29.5267 11.9122 29.5376C12.8236 29.6382 13.7417 29.6292 14.6575 29.631C14.9492 29.632 15.2407 29.6352 15.5323 29.6384C17.4721 29.6494 19.7976 29.5638 21.3811 28.2907C21.8423 27.7305 22.0485 27.2004 21.9885 26.4684C21.8491 26.0007 21.64 25.6589 21.2356 25.3801C20.1214 24.7916 18.8615 24.6227 17.6335 24.4232C17.3289 24.3737 17.0245 24.323 16.7202 24.272C15.9636 24.1456 15.2067 24.0211 14.4498 23.8966C5.69032 22.4544 5.69032 22.4544 2.95618 20.293C2.89211 20.2457 2.82803 20.1983 2.76202 20.1495C1.28159 18.9943 0.494625 17.0922 0.24813 15.2755C0.236649 15.126 0.228548 14.9762 0.222822 14.8263C0.218776 14.7206 0.214731 14.6149 0.210562 14.506C0.166314 12.1582 0.789398 9.83608 2.41204 8.0878C2.59132 7.90207 2.77349 7.71975 2.95618 7.53733C3.01387 7.47248 3.07155 7.40762 3.13097 7.34079C5.6269 4.58247 10.1828 3.63687 13.6872 3.28543C13.8296 3.27101 13.8296 3.27101 13.9748 3.2563C14.9771 3.16681 15.9782 3.16397 16.9837 3.16522Z" fill="#FFF400"/>
<path d="M1.74143 41.3506C5.55222 41.1904 8.87411 42.6264 12.1845 44.3588C12.2447 44.3903 12.3049 44.4218 12.3669 44.4542C12.6567 44.606 12.9459 44.7588 13.2343 44.9133C15.2086 45.9572 16.9672 46.4429 19.154 45.805C19.55 45.6523 19.9266 45.4706 20.3055 45.2798C20.4118 45.2277 20.5182 45.1756 20.6277 45.122C21.3161 44.7821 21.9971 44.4287 22.6773 44.0729C27.3714 41.6178 32.0933 40.5656 37.2831 42.1224C38.887 42.6345 40.3932 43.4678 41.8952 44.2161C43.0016 44.7633 44.052 45.2763 45.2728 45.5013C45.3616 45.5201 45.4505 45.5389 45.5421 45.5582C46.8001 45.723 48.1651 45.7107 49.4045 45.4317C49.4713 45.4167 49.5382 45.4016 49.607 45.3861C50.6734 45.114 51.6717 44.5948 52.6567 44.1156C52.8202 44.0368 52.8202 44.0368 52.987 43.9564C53.513 43.7029 54.0382 43.4477 54.5623 43.1903C58.8289 41.1058 63.4629 40.7619 67.9796 42.3056C68.8471 42.622 69.6725 43.0171 70.4959 43.4327C70.6209 43.4957 70.6209 43.4957 70.7485 43.5601C71.1698 43.7732 71.59 43.9883 72.0088 44.2064C74.3339 45.4064 76.8293 46.0107 79.4398 45.438C79.5049 45.4238 79.5701 45.4097 79.6372 45.3951C80.9574 45.0646 82.1787 44.4254 83.381 43.8059C86.7106 42.0961 90.6566 40.6787 94.4733 41.4519C94.5401 41.5187 94.6069 41.5855 94.6758 41.6543C94.6171 41.7747 94.6171 41.7747 94.5573 41.8974C94.3708 42.2803 94.1847 42.6633 93.9988 43.0463C93.9648 43.1162 93.9309 43.1861 93.896 43.2582C93.337 44.4107 92.7917 45.569 92.2589 46.7338C92.1829 46.8993 92.1829 46.8993 92.1054 47.0681C92.0615 47.1642 92.0176 47.2603 91.9724 47.3594C91.6085 48.1023 91.6085 48.1023 91.3259 48.2261C91.2451 48.2402 91.1643 48.2542 91.0811 48.2687C90.9894 48.2867 90.8977 48.3047 90.8031 48.3232C90.7072 48.3399 90.6113 48.3566 90.5125 48.3739C88.7207 48.6893 87.1366 49.5546 85.5372 50.3851C84.1459 51.1054 82.7395 51.6875 81.2114 52.0563C81.1269 52.0768 81.0423 52.0973 80.9551 52.1185C76.6063 53.1338 72.4774 52.1219 68.5982 50.1242C65.7053 48.6384 62.7632 47.5758 59.4933 48.555C58.3369 48.9462 57.2619 49.4663 56.1799 50.0255C54.1975 51.0461 52.2399 51.8998 50.0308 52.2841C49.9041 52.3068 49.7774 52.3295 49.6469 52.3529C45.9283 52.9155 42.3928 52.1194 39.0776 50.4531C39.0033 50.4158 38.9289 50.3784 38.8523 50.3399C38.4786 50.1517 38.1057 49.9621 37.7339 49.7701C34.9967 48.3667 32.1672 47.714 29.1489 48.6399C27.5882 49.1975 26.1326 50 24.6617 50.7569C21.1552 52.5591 17.7622 53.55 13.8328 52.5751C13.7637 52.5586 13.6947 52.5421 13.6235 52.5251C11.716 52.0082 9.92274 50.9152 8.17805 50.0183C6.57287 49.1945 5.0698 48.477 3.25996 48.2536C3.1707 48.2414 3.08144 48.2292 2.98947 48.2167C2.77609 48.1877 2.56249 48.1603 2.34884 48.1334C2.18127 46.8071 2.02647 45.4796 1.89461 44.1492C1.87475 43.9494 1.8544 43.7497 1.83404 43.5499C1.76256 42.814 1.7234 42.09 1.74143 41.3506Z" fill="#FFF400"/>
<path d="M90.6265 13.0039C94.7356 13.0039 98.8448 13.0039 103.078 13.0039C102.988 13.4565 102.904 13.642 102.674 14.0163C102.398 14.8465 102.656 15.7658 102.93 16.5634C102.97 16.6811 102.97 16.6811 103.01 16.8012C103.346 17.7721 103.741 18.7184 104.135 19.6665C104.216 19.8614 104.296 20.0563 104.376 20.2512C104.499 20.5487 104.622 20.8461 104.744 21.1435C105.14 22.1025 105.531 23.064 105.919 24.0259C106.042 24.329 106.165 24.6321 106.287 24.9351C106.316 25.006 106.345 25.0769 106.374 25.1499C106.554 25.5938 106.736 26.037 106.918 26.4797C106.962 26.5854 107.005 26.691 107.05 26.7999C107.129 26.9894 107.207 27.1788 107.286 27.3681C107.533 27.9646 107.533 27.9646 107.533 28.1893C107.6 28.1893 107.666 28.1893 107.735 28.1893C107.745 28.1254 107.754 28.0615 107.764 27.9957C107.865 27.5587 108.025 27.1498 108.185 26.7308C108.22 26.636 108.256 26.5412 108.293 26.4435C108.37 26.2384 108.447 26.0333 108.525 25.8283C108.648 25.5032 108.77 25.178 108.892 24.8527C109.267 23.8578 109.643 22.8636 110.023 21.871C110.178 21.4684 110.331 21.0655 110.485 20.6627C110.592 20.3844 110.699 20.1065 110.807 19.8286C112.046 16.9171 112.046 16.9171 111.998 13.8751C111.899 13.7155 111.792 13.5616 111.683 13.4088C111.683 13.2752 111.683 13.1416 111.683 13.0039C114.59 13.0039 117.496 13.0039 120.491 13.0039C120.407 13.4226 120.338 13.6443 120.145 14.0052C120.092 14.1058 120.039 14.2063 119.985 14.31C119.927 14.4218 119.868 14.5337 119.808 14.649C118.697 16.81 117.786 19.066 116.847 21.3052C116.808 21.398 116.769 21.4907 116.729 21.5863C115.626 24.2136 114.553 26.8527 113.478 29.4911C113.041 30.5634 112.603 31.6352 112.164 32.7069C112.127 32.7987 112.089 32.8904 112.051 32.985C111.491 34.3526 110.93 35.7198 110.369 37.0868C109.828 38.4062 109.287 39.7261 108.748 41.0462C108.142 42.5263 107.536 44.006 106.929 45.4853C106.523 46.4735 106.118 47.4621 105.714 48.451C105.672 48.554 105.63 48.6569 105.587 48.763C105.381 49.267 105.175 49.7711 104.969 50.2752C104.895 50.457 104.82 50.6388 104.746 50.8206C104.712 50.9044 104.678 50.9883 104.642 51.0746C104.406 51.653 104.406 51.653 104.293 51.8784C101.42 51.8784 98.5471 51.8784 95.587 51.8784C95.587 51.2626 95.7025 50.9883 95.992 50.4801C97.3473 47.9964 98.5023 45.4114 99.6372 42.8216C99.8413 42.3563 100.047 41.8918 100.253 41.4274C100.355 41.1985 100.456 40.9695 100.558 40.7405C100.621 40.5978 100.684 40.4551 100.748 40.3125C100.923 39.9178 101.096 39.5224 101.268 39.1261C101.33 38.9821 101.394 38.8384 101.458 38.695C101.561 38.4653 101.662 38.2348 101.762 38.004C101.794 37.934 101.826 37.864 101.859 37.792C102.105 37.2153 102.084 36.7978 101.853 36.2042C101.807 36.1114 101.761 36.0187 101.713 35.9231C101.661 35.8167 101.609 35.7104 101.555 35.6008C101.47 35.4305 101.47 35.4305 101.383 35.2568C101.261 35.01 101.14 34.7628 101.019 34.5157C100.988 34.4526 100.957 34.3895 100.925 34.3244C100.61 33.6822 100.309 33.0338 100.01 32.3842C99.5205 31.3255 99.0265 30.2692 98.5292 29.2143C98.0187 28.1312 97.5099 27.0474 97.0043 25.9621C96.4667 24.8081 95.9256 23.6558 95.3829 22.5042C94.9598 21.6064 94.5384 20.7079 94.1198 19.8081C93.8889 19.3119 93.6571 18.8163 93.4251 18.3207C93.3145 18.084 93.2041 17.8472 93.094 17.6102C92.1613 15.5419 92.1613 15.5419 90.8538 13.7011C90.6265 13.4088 90.6265 13.4088 90.6265 13.0039Z" fill="#FFF400"/>
<path d="M48.0806 12.162C48.4681 12.1623 48.8555 12.1599 49.243 12.1574C52.6537 12.1485 56.4046 12.5502 59.0058 14.9906C61.0456 17.0542 61.2967 19.6056 61.299 22.3637C61.2994 22.7279 61.3011 23.0922 61.3031 23.4564C61.3087 24.4911 61.3118 25.5258 61.3143 26.5604C61.316 27.1962 61.319 27.8319 61.3229 28.4676C61.3241 28.7076 61.3247 28.9476 61.3247 29.1876C61.3248 30.9027 61.327 32.6821 61.9894 34.295C62.1726 34.7628 62.2979 35.1775 62.3817 35.6806C59.0075 35.6806 55.6334 35.6806 52.1569 35.6806C52.1235 34.4445 52.0901 33.2085 52.0557 31.9349C51.7884 32.269 51.5212 32.6031 51.2458 32.9473C49.4588 34.9836 46.9567 36.0981 44.2605 36.288C41.5739 36.4419 38.6772 35.9641 36.5785 34.1646C35.4309 33.1314 34.5535 31.7447 34.4199 30.1721C34.4099 29.9073 34.4074 29.6437 34.409 29.3787C34.4096 29.2849 34.4102 29.1911 34.4108 29.0944C34.4364 27.644 34.868 26.5185 35.8544 25.4432C37.245 24.162 39.2124 23.6605 41.0257 23.3362C41.1216 23.3189 41.2174 23.3017 41.3162 23.2839C42.5468 23.0667 43.7853 22.9029 45.0237 22.7375C46.1776 22.5825 47.321 22.4077 48.4595 22.1617C48.5533 22.1415 48.6472 22.1212 48.7439 22.1004C49.8625 21.8494 51.1226 21.5372 51.9545 20.6977C52.1123 20.382 52.0844 20.1364 52.0557 19.7866C51.8262 19.192 51.5073 18.9139 50.9532 18.6074C47.2287 16.9884 42.2242 18.1153 38.6036 19.4941C38.3112 19.6167 38.0325 19.7612 37.754 19.9125C37.579 19.9891 37.579 19.9891 37.2753 19.9891C37.2753 17.9178 37.2753 15.8465 37.2753 13.7125C38.764 13.1542 40.3266 12.8301 41.8942 12.5736C41.9854 12.5583 42.0767 12.5431 42.1708 12.5273C44.1321 12.2242 46.099 12.1586 48.0806 12.162ZM51.8279 24.3106C50.3292 25.3074 48.227 25.5503 46.4868 25.8082C45.5497 25.9561 44.5891 26.2197 43.9568 26.9744C43.6718 27.4381 43.6007 27.8371 43.6088 28.3727C43.6098 28.4442 43.6107 28.5157 43.6116 28.5894C43.6387 29.4083 43.8411 29.934 44.4251 30.505C45.0891 31.1052 46.0434 31.1796 46.899 31.1693C46.991 31.1685 47.0831 31.1676 47.1779 31.1668C48.3916 31.1369 49.4804 30.8509 50.5941 30.3784C50.6899 30.3378 50.6899 30.3378 50.7876 30.2963C50.9794 30.2091 51.1621 30.1123 51.347 30.0114C51.4166 29.9752 51.4862 29.9389 51.5578 29.9016C51.8961 29.6935 52.1197 29.5395 52.2279 29.1462C52.2507 28.8256 52.248 28.5143 52.236 28.1931C52.2343 28.0192 52.2343 28.0192 52.2325 27.8417C52.228 27.4722 52.2179 27.1032 52.2075 26.7339C52.2035 26.4831 52.1998 26.2322 52.1965 25.9814C52.1876 25.3674 52.174 24.7536 52.1569 24.1398C52.0217 24.1296 52.0217 24.1296 51.8279 24.3106Z" fill="#FFF400"/>
<path d="M89.614 1.05901C89.6034 1.11606 89.5927 1.17311 89.5817 1.23189C88.8993 4.96268 88.8586 8.69811 88.8646 12.4798C88.8654 13.1337 88.8646 13.7876 88.8642 14.4415C88.8636 15.6058 88.8645 16.7701 88.8661 17.9344C88.8674 18.9855 88.8672 20.0367 88.8658 21.0879C88.8642 22.3188 88.8636 23.5496 88.8645 24.7805C88.8649 25.4285 88.865 26.0765 88.864 26.7244C88.8631 27.3321 88.8637 27.9398 88.8655 28.5476C88.8659 28.769 88.8658 28.9904 88.8651 29.2118C88.8605 30.8654 88.9457 32.48 89.5191 34.0492C89.558 34.1621 89.558 34.1621 89.5976 34.2774C89.6965 34.5604 89.797 34.8345 89.9363 35.1003C90.019 35.2767 90.019 35.2767 90.019 35.6816C86.2439 35.6816 82.4688 35.6816 78.5793 35.6816C78.6751 35.0115 78.8252 34.6391 79.129 34.0583C79.7001 32.7438 79.6358 31.3232 79.6326 29.9221C79.6332 29.6903 79.6339 29.4585 79.6347 29.2267C79.6365 28.6007 79.6364 27.9746 79.6358 27.3486C79.6355 26.8243 79.6361 26.3001 79.6367 25.7758C79.6382 24.4676 79.6379 23.1593 79.6367 21.8511C79.6357 20.7188 79.637 19.5865 79.6394 18.4543C79.6419 17.2875 79.6428 16.1207 79.6422 14.9539C79.6418 14.3005 79.6421 13.6471 79.6438 12.9937C79.6454 12.3789 79.645 11.7641 79.6431 11.1493C79.6427 10.9249 79.643 10.7005 79.6441 10.4761C79.6509 8.90832 79.6171 7.30078 78.7818 5.91832C78.7484 5.88491 78.715 5.85151 78.6806 5.81709C78.6765 5.64841 78.6763 5.47958 78.6806 5.31091C78.8031 5.29564 78.8031 5.29564 78.9281 5.28006C82.3131 4.75543 86.1322 3.20711 88.8382 1.1116C89.1627 0.92647 89.2644 0.969862 89.614 1.05901Z" fill="#FFF400"/>
<path d="M74.6312 11.7891C74.7314 11.8225 74.8316 11.8559 74.9349 11.8903C74.9351 11.9883 74.9354 12.0862 74.9356 12.1872C74.9416 14.5779 74.9493 16.9685 74.9587 19.3592C74.9633 20.5153 74.9673 21.6715 74.97 22.8276C74.9723 23.836 74.9757 24.8444 74.9803 25.8528C74.9827 26.3861 74.9846 26.9194 74.9853 27.4527C74.9859 27.9561 74.9879 28.4594 74.991 28.9628C74.9919 29.1462 74.9923 29.3296 74.9921 29.513C74.991 31.058 75.1151 32.5848 75.6499 34.0483C75.6887 34.1612 75.6887 34.1612 75.7284 34.2764C75.8272 34.5595 75.9277 34.8336 76.0671 35.0994C76.1497 35.2757 76.1497 35.2757 76.1497 35.6807C72.3746 35.6807 68.5996 35.6807 64.7101 35.6807C64.8058 35.0106 64.956 34.6382 65.2598 34.0574C65.7011 33.0623 65.7674 31.9585 65.7617 30.8861C65.7623 30.7591 65.7628 30.6322 65.7634 30.5014C65.7644 30.1577 65.7642 29.814 65.7632 29.4704C65.7625 29.1075 65.7632 28.7447 65.7637 28.3819C65.7642 27.7728 65.7635 27.1637 65.762 26.5546C65.7604 25.8548 65.7609 25.155 65.7626 24.4551C65.764 23.8499 65.7642 23.2447 65.7634 22.6394C65.7629 22.2799 65.7628 21.9203 65.7638 21.5608C65.7838 18.9118 65.7838 18.9118 65.0225 16.4004C64.9133 16.144 64.8617 15.909 64.8113 15.636C64.9048 15.6156 64.9048 15.6156 65.0003 15.5947C68.0404 14.9208 71.9505 14.0132 74.4058 11.9591C74.4802 11.903 74.5545 11.8469 74.6312 11.7891Z" fill="#FFF400"/>
<path d="M74.9349 0.957031C74.9608 1.90656 74.9806 2.85596 74.9926 3.80576C74.9984 4.24687 75.0063 4.68773 75.0189 5.1287C75.0311 5.55473 75.0377 5.98053 75.0406 6.40672C75.0426 6.56884 75.0466 6.73095 75.0527 6.89297C75.098 8.16011 75.098 8.16011 74.6946 8.6231C74.4118 8.83187 74.1345 8.99831 73.8213 9.15712C73.6789 9.2425 73.5367 9.32831 73.395 9.41496C73.2552 9.49063 73.1147 9.56493 72.9735 9.63799C72.8943 9.6792 72.8152 9.7204 72.7337 9.76286C70.9224 10.6809 68.9969 11.4544 67.0386 11.9917C66.9705 12.0114 66.9025 12.0311 66.8324 12.0513C66.7303 12.0794 66.7303 12.0794 66.6261 12.108C66.5666 12.1246 66.5072 12.1412 66.4459 12.1584C66.1412 12.2086 65.8289 12.1942 65.52 12.1942C65.52 9.75542 65.52 7.31666 65.52 4.80399C66.422 4.50332 67.324 4.20265 68.2534 3.89287C68.712 3.72128 69.1631 3.55005 69.6137 3.36138C69.7231 3.31621 69.8326 3.27104 69.9453 3.2245C71.5052 2.57254 73.1006 1.90277 74.5592 1.04596C74.7325 0.957031 74.7325 0.957031 74.9349 0.957031Z" fill="#FFF400"/>
</svg>
