<svg width="443" height="218" viewBox="0 0 443 218" fill="none" xmlns="http://www.w3.org/2000/svg">
<g clip-path="url(#clip0_4651_4661)">
<path d="M148.646 123.121C148.534 122.99 148.396 122.885 148.239 122.813C148.083 122.74 147.912 122.703 147.74 122.703H124.683C124.096 122.703 123.597 123.13 123.506 123.709L110.063 208.909C110.037 209.079 110.047 209.253 110.094 209.419C110.141 209.584 110.223 209.738 110.335 209.869C110.447 209.999 110.586 210.105 110.743 210.177C110.899 210.249 111.069 210.286 111.241 210.286H134.289C134.875 210.286 135.374 209.859 135.466 209.28L148.917 124.08C148.944 123.91 148.934 123.737 148.887 123.571C148.841 123.405 148.759 123.252 148.647 123.121H148.646ZM190.733 187.42C190.621 187.289 190.482 187.184 190.326 187.112C190.169 187.039 189.999 187.002 189.826 187.002L177.95 187.006C175.388 186.768 173.446 185.759 172.013 183.922C169.411 180.585 168.617 174.283 169.835 166.629C170.416 162.927 172.383 153.792 178.073 148.929C181.483 146.094 185.113 145.873 186.145 145.873C186.272 145.873 186.348 145.877 186.36 145.878L186.439 145.88H196.691C197.278 145.88 197.777 145.453 197.868 144.874L201.148 124.081C201.175 123.911 201.165 123.737 201.118 123.571C201.071 123.406 200.989 123.252 200.877 123.121C200.765 122.99 200.626 122.885 200.47 122.813C200.314 122.741 200.143 122.704 199.971 122.704L188.731 122.709C185.711 122.709 175.054 123.282 164.721 130.647C153.986 138.3 147.243 150.464 144.681 166.799C142.366 181.388 144.629 193.183 151.227 200.911C156.403 206.974 163.902 210.178 172.912 210.178H186.546C187.133 210.178 187.632 209.752 187.724 209.172L191.004 188.38C191.031 188.21 191.021 188.036 190.974 187.87C190.927 187.705 190.845 187.551 190.733 187.42ZM117.625 144.874L120.901 124.081C120.928 123.911 120.918 123.737 120.871 123.571C120.824 123.406 120.742 123.252 120.63 123.121C120.518 122.99 120.379 122.885 120.223 122.813C120.067 122.741 119.896 122.703 119.724 122.703H70.7942C70.2072 122.703 69.7082 123.13 69.6162 123.709L66.3412 144.503C66.3145 144.673 66.3249 144.847 66.3718 145.013C66.4186 145.178 66.5008 145.332 66.6126 145.463C66.7245 145.593 66.8633 145.699 67.0197 145.771C67.176 145.843 67.3461 145.88 67.5182 145.88H78.7752L68.8252 208.908C68.798 209.078 68.808 209.252 68.8547 209.418C68.9013 209.584 68.9835 209.738 69.0954 209.869C69.2073 210 69.3464 210.105 69.5029 210.177C69.6595 210.249 69.8298 210.286 70.0022 210.286H93.0502C93.6372 210.286 94.1362 209.859 94.2282 209.28L104.245 145.88H116.448C117.035 145.88 117.534 145.453 117.625 144.874ZM66.7402 123.121C66.6284 122.99 66.4895 122.885 66.3331 122.813C66.1767 122.74 66.0065 122.703 65.8342 122.703H47.6742C47.6342 122.703 47.5942 122.705 47.5542 122.709C28.6552 122.782 18.8832 139.942 17.1622 150.761C16.2372 156.393 16.9912 161.351 19.4842 165.951C21.9742 170.218 25.6052 173.608 29.1112 176.715C29.1342 176.735 29.1592 176.755 29.1842 176.774C30.6132 177.854 31.4722 178.706 32.0582 179.624C32.0832 179.664 32.1102 179.701 32.1392 179.737C32.9652 180.751 33.2242 181.873 32.9782 183.387C32.8332 184.333 32.3832 185.18 31.6642 185.883C30.6102 186.859 28.7172 186.986 28.1962 187.001H12.4542C11.8682 187.001 11.3682 187.427 11.2772 188.006L7.99019 208.801C7.96331 208.971 7.97362 209.145 8.02041 209.311C8.06719 209.477 8.14935 209.63 8.26121 209.761C8.37307 209.892 8.51198 209.997 8.66838 210.07C8.82478 210.142 8.99496 210.179 9.16719 210.179H26.1882C41.7202 210.179 55.3582 197.929 57.9092 181.684C58.8592 175.642 58.2632 170.864 56.0362 166.652C53.8362 162.492 50.1062 159.207 46.3952 156.279C46.0422 155.931 45.6452 155.585 45.2252 155.219C44.4452 154.539 43.6372 153.835 43.0672 153.075C42.0412 151.704 41.6592 150.545 41.8722 149.379C41.9782 148.622 42.3282 147.919 42.9022 147.299C42.9992 147.198 43.0972 147.104 43.2142 146.999C44.2232 146.115 45.3762 145.919 45.9932 145.881H62.5482C63.1342 145.881 63.6332 145.454 63.7252 144.875L67.0102 124.082C67.0372 123.912 67.0271 123.738 66.9805 123.573C66.9339 123.407 66.8519 123.253 66.7402 123.122V123.121ZM422.606 123.121C422.494 122.99 422.356 122.885 422.199 122.813C422.043 122.74 421.872 122.703 421.7 122.703H403.54C403.5 122.703 403.46 122.705 403.42 122.709C384.522 122.782 374.75 139.942 373.028 150.761C372.103 156.392 372.857 161.351 375.351 165.951C377.841 170.218 381.471 173.608 384.978 176.715C385.001 176.735 385.025 176.755 385.05 176.774C386.48 177.854 387.34 178.707 387.925 179.624C387.949 179.664 387.976 179.701 388.005 179.737C388.831 180.751 389.091 181.873 388.845 183.387C388.7 184.332 388.25 185.18 387.531 185.883C386.476 186.859 384.584 186.986 384.062 187.001H368.321C367.734 187.001 367.235 187.427 367.143 188.006L364.622 203.966L354.986 174.312C363.768 170.62 369.688 162.714 371.301 152.444C372.762 143.044 371.424 136.082 367.21 131.162C362.267 125.391 353.641 122.703 340.064 122.703H317.798C317.211 122.703 316.712 123.13 316.621 123.709L303.178 208.909C303.152 209.079 303.163 209.253 303.21 209.418C303.257 209.584 303.339 209.737 303.45 209.868C303.562 209.999 303.701 210.104 303.857 210.176C304.013 210.248 304.183 210.286 304.355 210.286H327.404C327.99 210.286 328.488 209.86 328.58 209.281L332.196 186.568C332.53 184.491 332.822 182.408 333.072 180.319L338.895 209.329C339.007 209.885 339.495 210.286 340.064 210.286H365.035C365.208 210.286 365.377 210.248 365.53 210.178H382.055C397.588 210.178 411.225 197.928 413.776 181.683C414.726 175.641 414.131 170.864 411.903 166.651C409.703 162.491 405.973 159.206 402.262 156.278C401.909 155.929 401.512 155.583 401.092 155.218C400.311 154.538 399.504 153.834 398.934 153.074C397.908 151.703 397.526 150.544 397.739 149.378C397.845 148.621 398.195 147.918 398.772 147.296C398.867 147.196 398.964 147.103 399.081 146.998C400.091 146.114 401.243 145.918 401.861 145.88H418.415C419.001 145.88 419.501 145.453 419.592 144.874L422.877 124.081C422.904 123.911 422.894 123.737 422.847 123.572C422.801 123.406 422.718 123.252 422.606 123.121ZM339.049 143.371C340.901 143.388 343.365 143.783 344.842 145.528C346.112 147.028 346.502 149.302 345.996 152.315C345.309 157.184 341.708 162.112 336.151 162.137L336.019 162.127L339.049 143.371ZM241.485 165.181L266.069 124.511C266.178 124.33 266.237 124.124 266.241 123.913C266.244 123.702 266.191 123.493 266.087 123.309C265.983 123.126 265.832 122.972 265.65 122.866C265.468 122.759 265.26 122.703 265.049 122.703H240.759C240.309 122.703 239.898 122.956 239.695 123.358L224.63 153.201L229.166 124.078C229.193 123.908 229.182 123.734 229.135 123.569C229.088 123.404 229.005 123.25 228.894 123.12C228.782 122.989 228.643 122.884 228.486 122.812C228.33 122.74 228.16 122.703 227.988 122.703H204.931C204.345 122.703 203.845 123.13 203.754 123.709L190.312 208.909C190.286 209.079 190.296 209.253 190.343 209.418C190.39 209.584 190.472 209.737 190.584 209.868C190.696 209.999 190.835 210.104 190.991 210.176C191.147 210.248 191.317 210.286 191.489 210.286H214.536C215.122 210.286 215.621 209.86 215.713 209.281L220.961 176.301L227.834 209.337C227.949 209.889 228.436 210.286 229 210.286H253.75C253.937 210.286 254.121 210.243 254.287 210.159C254.454 210.075 254.598 209.953 254.709 209.803C254.82 209.653 254.894 209.479 254.926 209.295C254.957 209.111 254.945 208.922 254.89 208.744L241.485 165.181ZM303.458 188.206C303.346 188.075 303.207 187.97 303.051 187.898C302.895 187.826 302.724 187.789 302.552 187.789H284.172L285.832 177.181H302.552C303.136 177.181 303.634 176.758 303.728 176.181L307.013 156.069C307.041 155.899 307.032 155.724 306.986 155.557C306.94 155.391 306.858 155.236 306.746 155.105C306.634 154.973 306.495 154.867 306.338 154.795C306.181 154.722 306.01 154.685 305.837 154.685H289.476L290.924 145.199H309.674C310.26 145.199 310.759 144.772 310.851 144.193L314.016 124.08C314.043 123.91 314.032 123.736 313.986 123.57C313.939 123.405 313.856 123.251 313.744 123.12C313.632 122.989 313.493 122.884 313.337 122.812C313.181 122.74 313.01 122.703 312.838 122.703H270.008C269.422 122.703 268.923 123.13 268.832 123.709L255.389 208.909C255.363 209.079 255.374 209.253 255.421 209.418C255.467 209.584 255.55 209.737 255.661 209.868C255.773 209.999 255.912 210.104 256.068 210.176C256.224 210.248 256.394 210.286 256.566 210.286H299.387C299.974 210.286 300.473 209.859 300.564 209.279L303.729 189.166C303.756 188.996 303.746 188.822 303.699 188.656C303.652 188.491 303.57 188.337 303.458 188.206Z" fill="white"/>
<path d="M175.511 58.7537C175.511 64.2977 176.139 69.8667 176.777 75.2707L163.699 38.8467H142.763V102.177L129.324 38.8467H103.148L84.932 114.727H107.914L109.573 105.274H120.908L122.368 114.726H164.251V91.9937C164.251 87.8287 163.931 83.6507 163.578 79.5747L175.857 114.726H197.007V38.8457H175.511V58.7537ZM118.238 87.2937H112.605L115.111 71.6207C115.354 70.1937 115.569 68.7517 115.766 67.3107C115.919 68.7357 116.082 70.1607 116.262 71.5697L118.238 87.2937ZM94.764 38.8467H50.171V59.1677H61.093V114.726H83.358V59.1677H94.764V38.8467ZM33.689 38.8747L31.197 38.8587C14.297 38.8587 8.00002 53.9207 8.00002 63.4147C8.00002 68.4057 9.35602 72.7027 12.15 76.5547C14.828 80.1947 18.514 83.1387 22.106 85.8747C23.198 86.6247 24.329 87.4367 25.112 88.3837L25.156 88.4337C25.987 89.3317 26.364 90.2897 26.374 91.5337L26.367 91.6437C26.3655 91.8056 26.3508 91.9671 26.323 92.1267L26.307 92.1927C26.1694 92.8178 25.8232 93.3775 25.3252 93.7798C24.8272 94.182 24.2071 94.4027 23.567 94.4057H7.99902V114.726H27.296V114.529C39.519 113.037 48.276 102.807 48.276 89.7937C48.276 84.4917 47.081 80.3497 44.528 76.7767C42.02 73.1307 38.318 70.3197 34.686 67.8257C34.396 67.5957 34.079 67.3577 33.751 67.1117C32.888 66.4647 31.996 65.7967 31.303 65.0487C30.653 64.3517 30.229 63.7437 29.97 63.1327C29.8962 62.9615 29.8377 62.7842 29.795 62.6027C29.7528 62.4028 29.7327 62.1989 29.735 61.9947C29.7343 61.9703 29.733 61.946 29.731 61.9217L29.735 61.8687L29.748 61.7387C29.7933 61.0443 30.1002 60.3928 30.6068 59.9157C31.1134 59.4386 31.7821 59.1713 32.478 59.1677H48.276V38.8467L34.261 38.8547C34.077 38.8547 33.882 38.8557 33.689 38.8747ZM431.094 9.82568H364.724C364.307 9.82459 363.895 9.90615 363.51 10.0656C363.125 10.2251 362.776 10.4593 362.482 10.7547L357.759 15.4797V12.9967C357.758 12.156 357.424 11.3501 356.829 10.7556C356.235 10.1612 355.429 9.82674 354.588 9.82568H334.701C333.866 9.82568 333.049 10.1637 332.458 10.7547L324.306 18.9087C318.831 12.1287 311.299 8.55469 302.439 8.55469H300.929C293.106 8.55469 286.461 11.2447 281.212 16.5157L256.843 40.8767C256.776 40.9457 256.711 41.0167 256.65 41.0887C252.824 44.7387 249.7 49.8987 247.611 56.0147C241.873 44.9147 230.787 38.8467 216.077 38.8467H198.901V114.727H217.443C234.036 114.727 244.773 107.94 249.419 94.5407C254.402 108.235 264.424 115.997 277.369 115.997C285.187 115.997 291.828 113.314 297.109 108.023L307.794 97.3427C311.064 109.558 320.285 115.997 334.589 115.997C343.831 115.997 350.962 113.295 355.784 107.967L371.571 92.1787V111.566C371.572 112.406 371.906 113.212 372.501 113.806C373.095 114.401 373.901 114.735 374.741 114.737H394.622C395.469 114.737 396.265 114.408 396.865 113.809L421.932 88.7447C422.232 88.4448 422.469 88.0878 422.629 87.6949C422.788 87.3019 422.868 86.8809 422.862 86.4567V43.6547L433.342 33.1757C433.973 32.5457 434.308 31.6747 434.265 30.7787V12.9967C434.264 12.1558 433.929 11.3497 433.335 10.7553C432.74 10.1608 431.935 9.82648 431.094 9.82568ZM221.167 94.4927V59.6407C225.172 60.2197 229.411 64.0117 229.411 77.4687C229.411 90.9467 224.334 93.9387 221.167 94.4927Z" fill="white"/>
<path d="M436.135 211.814C436.099 211.577 436.077 211.339 436.07 211.1C436.06 210.86 436.047 210.62 436.029 210.388C436.002 210.161 435.964 209.936 435.914 209.714C435.869 209.508 435.791 209.31 435.684 209.129C435.579 208.95 435.437 208.796 435.268 208.678C435.063 208.537 434.83 208.445 434.585 208.408V208.381C435.171 208.217 435.595 207.918 435.859 207.478C436.125 207.038 436.259 206.527 436.259 205.941C436.259 205.161 435.998 204.547 435.486 204.099C434.968 203.651 434.251 203.426 433.336 203.426H428.811V213.038H430.091V208.932H433.214C433.529 208.932 433.783 208.978 433.968 209.074C434.158 209.169 434.308 209.292 434.428 209.452C434.542 209.608 434.628 209.792 434.684 210.002C434.735 210.212 434.781 210.435 434.816 210.669C434.862 210.901 434.889 211.14 434.898 211.379C434.905 211.623 434.913 211.85 434.924 212.064C434.931 212.272 434.954 212.463 434.984 212.636C435.007 212.784 435.07 212.923 435.167 213.038H436.594C436.457 212.873 436.354 212.684 436.288 212.481C436.22 212.262 436.169 212.04 436.135 211.814ZM434.312 207.524C434.109 207.654 433.872 207.744 433.604 207.787C433.334 207.832 433.053 207.857 432.757 207.857H430.091V204.503H433.268C433.868 204.503 434.305 204.657 434.576 204.962C434.843 205.265 434.978 205.662 434.978 206.146C434.978 206.494 434.919 206.778 434.794 207.001C434.674 207.219 434.512 207.393 434.312 207.524Z" fill="#484743"/>
<path d="M432.361 198.59C429.792 198.59 427.329 199.61 425.512 201.427C423.696 203.243 422.676 205.706 422.676 208.275C422.676 210.843 423.696 213.307 425.512 215.123C427.329 216.939 429.792 217.96 432.361 217.96C434.929 217.96 437.393 216.939 439.209 215.123C441.025 213.307 442.046 210.843 442.046 208.275C442.046 205.706 441.025 203.243 439.209 201.427C437.393 199.61 434.929 198.59 432.361 198.59ZM432.361 216.676C427.729 216.676 423.961 212.907 423.961 208.276C423.961 203.643 427.729 199.874 432.361 199.874C436.994 199.874 440.762 203.643 440.762 208.275C440.762 212.907 436.993 216.676 432.361 216.676Z" fill="#484743"/>
<path d="M301.684 12.4815C281.508 12.4815 273.612 32.5665 273.612 50.4995C273.612 68.4365 281.508 88.5155 301.684 88.5155C321.863 88.5155 329.759 68.4365 329.759 50.4995C329.759 32.5665 321.863 12.4805 301.684 12.4805V12.4815ZM301.684 31.0045C309.191 31.0045 309.482 45.9255 309.482 50.4995C309.482 55.0825 309.192 69.9965 301.684 69.9965C299.339 69.9965 297.698 68.5395 296.551 66.3975C296.435 66.1797 296.325 65.9586 296.221 65.7345C295.774 64.7695 295.415 63.6915 295.123 62.5645C295.017 62.156 294.921 61.7453 294.833 61.3325C293.956 57.1955 293.889 52.6795 293.889 50.4995C293.889 45.9255 294.179 31.0045 301.684 31.0045ZM388.135 13.7515V31.6895H399.052V87.2565H418.935V31.6895H430.339V13.7515H388.135ZM363.972 13.7515V60.0545C363.972 61.9075 364.067 64.4405 363.482 66.4915C362.996 68.4365 361.732 69.9965 358.899 69.9965C356.171 69.9965 354.905 68.4365 354.316 66.3905C353.726 64.4405 353.832 61.9075 353.832 59.9575V13.7515H333.946V61.8075C333.946 70.6765 335.902 88.5155 358.899 88.5155C381.909 88.5155 383.857 70.6755 383.857 61.8075V13.7515H363.972Z" fill="#8BD0C0"/>
<path d="M338.027 142.204L334.632 163.219L336.104 163.329C342.204 163.329 346.391 158.021 347.173 152.482C348.424 145.029 344.348 141.864 338.027 142.204ZM431.093 2.04443H334.7C331.775 2.04443 329.024 3.18443 326.955 5.25343L324.208 8.00043C318.075 3.29043 310.604 0.773438 302.438 0.773438H300.929C291.153 0.773438 282.459 4.29242 275.771 10.9504C275.717 11.0034 275.662 11.0564 275.606 11.1134L251.303 35.4134C251.212 35.5044 251.123 35.5984 251.035 35.6934C250.906 35.8184 250.782 35.9514 250.655 36.0794L250.65 36.0744L250.442 36.2954C249.632 37.1244 248.851 37.9964 248.106 38.9174C247.404 39.7399 246.731 40.5871 246.089 41.4574C238.567 34.7214 228.294 31.0654 216.077 31.0654L31.1964 31.0784C8.62844 31.0784 0.218431 50.9134 0.218431 63.4154C0.218431 70.0114 2.11243 75.9674 5.88143 81.1644C7.37143 83.1884 9.04143 84.9844 10.7964 86.6234H9.19043C6.81082 86.6237 4.52876 87.5692 2.84621 89.2519C1.16366 90.9346 0.218431 93.2168 0.218431 95.5964V113.534C0.218431 115.914 1.16366 118.196 2.84621 119.879C4.52876 121.562 6.81082 122.507 9.19043 122.507H25.3424C23.2619 124.14 21.3491 125.976 19.6324 127.987C14.4484 134.032 10.6454 142.092 9.46743 149.5C8.25143 156.9 9.27943 163.484 12.6084 169.627C12.6534 169.71 12.7004 169.793 12.7484 169.875C14.8914 173.547 17.5554 176.547 20.3214 179.222H12.4374C10.3005 179.222 8.23363 179.985 6.60887 181.373C4.98411 182.761 3.90809 184.684 3.57443 186.794L0.288431 207.589C0.0862837 208.87 0.164109 210.18 0.51655 211.428C0.86899 212.675 1.48767 213.832 2.33 214.818C3.17233 215.804 4.2183 216.595 5.3959 217.138C6.57349 217.681 7.85474 217.962 9.15143 217.962H382.054C401.38 217.962 418.322 202.885 421.463 182.893C422.687 175.106 421.834 168.789 418.781 163.016C416.824 159.312 414.139 156.299 411.241 153.661H418.415C420.552 153.662 422.619 152.899 424.244 151.511C425.869 150.123 426.945 148.2 427.278 146.089L430.563 125.294C430.766 124.014 430.689 122.704 430.336 121.456C429.984 120.208 429.366 119.051 428.523 118.065C427.681 117.079 426.635 116.288 425.457 115.745C424.28 115.202 422.998 114.921 421.701 114.921H406.756L427.429 94.2514C428.457 93.2211 429.27 91.9973 429.821 90.651C430.372 89.3046 430.652 87.8623 430.642 86.4074V46.8774L438.845 38.6774C439.895 37.6256 440.72 36.3713 441.27 34.9907C441.821 33.6101 442.084 32.1321 442.045 30.6464V12.9964C442.045 6.95643 437.132 2.04443 431.093 2.04443ZM128.358 40.0384L143.954 113.534V40.0384H162.86L178.75 84.2944L178.948 84.0964C178.17 75.6194 176.702 67.2304 176.702 58.7534V40.0384H195.814V113.534H176.702L161.892 71.1344L161.693 71.3254C162.177 78.2464 163.058 85.0724 163.058 91.9934V113.533H123.39L121.93 104.081H108.57L106.911 113.534H86.4414L104.086 40.0384H128.358ZM51.3624 40.0384H93.5714V57.9754H82.1664V113.534H62.2844V57.9754H51.3624V40.0384ZM9.19043 113.534V95.5964H23.5664C24.4795 95.5958 25.3649 95.2827 26.0753 94.7091C26.7858 94.1354 27.2784 93.3359 27.4714 92.4434L27.4854 92.3884C27.5324 92.1544 27.5544 91.9114 27.5584 91.6644C27.5584 91.6354 27.5654 91.6104 27.5654 91.5814C27.5654 89.8864 26.9884 88.6584 26.0304 87.6234C25.1724 86.5874 24.0194 85.7434 22.7804 84.8934C18.9464 81.9704 15.6034 79.2394 13.1104 75.8484C10.7184 72.5504 9.19043 68.6004 9.19043 63.4154C9.19043 55.1234 14.5444 40.0504 31.1964 40.0504H33.6884C33.6914 40.0384 47.0844 40.0384 47.0844 40.0384V57.9754H32.4774C30.3874 57.9754 28.6954 59.6054 28.5594 61.6604C28.5534 61.7204 28.5444 61.7804 28.5414 61.8404C28.5414 61.8674 28.5334 61.8924 28.5334 61.9204C28.5334 61.9584 28.5434 61.9934 28.5444 62.0304C28.5464 62.3134 28.5704 62.5954 28.6344 62.8694C28.6914 63.1194 28.7744 63.3624 28.8744 63.5984C29.2334 64.4464 29.8074 65.1924 30.4324 65.8624C31.4844 66.9974 32.9184 67.9404 33.9784 68.7844C38.0924 71.6074 41.3414 74.2454 43.5464 77.4524C45.8374 80.6584 47.0844 84.4244 47.0844 89.7944C47.0844 102.327 38.6124 112.475 26.1044 113.45V113.534H9.19043ZM62.5334 144.688H45.9444C45.1794 144.729 43.7094 144.967 42.4134 146.102C42.2775 146.221 42.1473 146.347 42.0234 146.478C41.3294 147.226 40.8274 148.142 40.6764 149.214C40.3564 150.954 41.1204 152.482 42.0984 153.788C43.0834 155.102 44.6114 156.195 45.5884 157.172C49.7364 160.44 53.0054 163.496 54.9684 167.208C56.9304 170.921 57.6944 175.282 56.7184 181.5C54.3194 196.768 41.6624 208.99 26.1724 208.99H9.15143L12.4374 188.195H28.1794C29.0914 188.169 31.1534 187.967 32.4574 186.76C33.3134 185.923 33.9414 184.863 34.1394 183.57C34.4594 181.606 34.0244 180.185 33.0474 178.986C32.2834 177.786 31.1904 176.81 29.8854 175.824C26.0654 172.44 22.7884 169.278 20.4974 165.352C18.4274 161.532 17.3354 156.959 18.3204 150.954C19.8484 141.354 28.6764 123.901 47.6564 123.9L47.6584 123.894H65.8194L62.5334 144.688ZM93.0534 208.989H70.0044L80.1544 144.689H67.5044L70.7794 123.894H119.71L116.434 144.688H103.212L93.0534 208.989ZM111.244 208.989L124.67 123.894H147.729L134.293 208.989H111.244ZM186.536 208.989H172.902C154.684 208.989 141.379 195.133 145.847 166.986C151.629 130.117 177.92 123.9 188.72 123.9L199.962 123.895L196.682 144.688H186.429C186.429 144.688 181.676 144.373 177.301 148.013C172.144 152.42 169.613 160.289 168.647 166.445C167.178 175.677 167.931 187.318 177.887 188.199L189.817 188.196L186.536 208.989ZM228.97 208.989L220.858 170.001H220.748L214.545 208.989H191.495L204.922 123.894H227.98L222.33 160.164H222.441L240.751 123.894H265.043L240.181 165.023L253.711 208.989H228.97ZM302.547 188.983L299.399 208.989H256.576L270.002 123.894H312.834L309.668 144.007H289.895L288.083 155.877H305.832L302.547 175.991H284.807L282.774 188.983H302.547ZM340.039 208.989L332.939 173.617L332.599 173.837C332.147 178.024 331.696 182.201 331.016 186.379L327.416 208.989H304.368L317.793 123.894H340.06C360.064 123.894 373.617 129.774 370.12 152.261C368.648 161.637 363.22 170.001 353.503 173.617L364.997 208.989H340.039ZM421.701 123.894L418.415 144.688H401.825C401.061 144.729 399.59 144.967 398.295 146.102C398.159 146.221 398.029 146.347 397.905 146.478C397.211 147.226 396.708 148.142 396.558 149.214C396.238 150.954 397.002 152.482 397.978 153.788C398.965 155.102 400.493 156.195 401.469 157.172C405.617 160.44 408.886 163.496 410.849 167.208C412.812 170.921 413.576 175.282 412.599 181.5C410.201 196.768 397.544 208.99 382.054 208.99H365.032L368.318 188.195H384.061C384.972 188.169 387.034 187.967 388.338 186.76C389.195 185.923 389.823 184.863 390.021 183.57C390.341 181.606 389.905 180.185 388.928 178.986C388.164 177.786 387.072 176.81 385.766 175.824C381.947 172.44 378.67 169.278 376.378 165.352C374.308 161.532 373.216 156.959 374.202 150.954C375.73 141.354 384.558 123.901 403.538 123.9L403.539 123.894H421.701ZM433.073 30.8104C433.091 31.0904 433.049 31.3709 432.951 31.6335C432.852 31.896 432.698 32.1346 432.5 32.3334L421.67 43.1614V86.4564C421.676 86.7237 421.628 86.9893 421.528 87.2374C421.429 87.4856 421.28 87.7111 421.091 87.9004L396.022 112.965C395.651 113.337 395.148 113.545 394.622 113.545H374.742C374.482 113.546 374.225 113.494 373.985 113.395C373.744 113.296 373.526 113.15 373.342 112.966C373.158 112.782 373.012 112.564 372.913 112.323C372.813 112.083 372.762 111.826 372.762 111.565V89.3004L354.968 107.096L354.933 107.13C350.345 112.222 343.501 114.804 334.589 114.804C320.046 114.804 311.087 107.974 308.466 94.9844L296.353 107.096C296.327 107.123 296.299 107.149 296.271 107.174C291.221 112.237 284.862 114.804 277.368 114.804C262.174 114.804 253.13 104.041 249.37 90.4684C244.306 111.326 227.605 113.534 217.442 113.534H200.092V40.0384H216.077C231.997 40.0384 242.734 47.1034 247.702 59.0354C247.745 59.1344 247.794 59.2294 247.834 59.3304L247.839 59.3404C248.11 58.3504 248.405 57.3804 248.729 56.4354V56.4294C250.74 50.5274 253.732 45.4984 257.529 41.8974C257.577 41.8354 257.629 41.7764 257.686 41.7194L281.95 17.4584L282.022 17.3894C287.073 12.3174 293.434 9.74643 300.929 9.74643H302.439C311.409 9.74643 318.884 13.5254 324.192 20.7094L333.301 11.5964C333.673 11.2251 334.176 11.0165 334.701 11.0164H354.587C355.112 11.0167 355.616 11.2254 355.987 11.5967C356.358 11.968 356.566 12.4715 356.566 12.9964V18.3564L363.324 11.5964C363.697 11.2244 364.2 11.0164 364.724 11.0164H431.094C431.619 11.0167 432.123 11.2254 432.494 11.5967C432.865 11.968 433.073 12.4715 433.073 12.9964V30.8104ZM219.974 58.3644V95.7944C229.038 95.6994 230.602 84.3894 230.602 77.4684C230.602 69.4764 229.038 58.3644 219.974 58.3644ZM117.444 71.4204C116.857 66.8404 116.468 62.1664 115.976 57.5864H115.786C115.198 62.1664 114.714 66.8414 113.936 71.4204L111.206 88.4854H119.588L117.444 71.4204Z" fill="#484743"/>
<path d="M338.027 142.204L334.632 163.219L336.104 163.329C342.204 163.329 346.391 158.021 347.173 152.482C348.424 145.029 344.348 141.864 338.027 142.204ZM431.093 2.04443H334.7C331.775 2.04443 329.024 3.18443 326.955 5.25343L324.208 8.00043C318.075 3.29043 310.604 0.773438 302.438 0.773438H300.929C291.153 0.773438 282.459 4.29242 275.771 10.9504C275.717 11.0034 275.662 11.0564 275.606 11.1134L251.303 35.4134C251.212 35.5044 251.123 35.5984 251.035 35.6934C250.906 35.8184 250.782 35.9514 250.655 36.0794L250.65 36.0744L250.442 36.2954C249.632 37.1244 248.851 37.9964 248.106 38.9174C247.404 39.7399 246.731 40.5871 246.089 41.4574C238.567 34.7214 228.294 31.0654 216.077 31.0654L31.1964 31.0784C8.62844 31.0784 0.218431 50.9134 0.218431 63.4154C0.218431 70.0114 2.11243 75.9674 5.88143 81.1644C7.37143 83.1884 9.04143 84.9844 10.7964 86.6234H9.19043C6.81082 86.6237 4.52876 87.5692 2.84621 89.2519C1.16366 90.9346 0.218431 93.2168 0.218431 95.5964V113.534C0.218431 115.914 1.16366 118.196 2.84621 119.879C4.52876 121.562 6.81082 122.507 9.19043 122.507H25.3424C23.2619 124.14 21.3491 125.976 19.6324 127.987C14.4484 134.032 10.6454 142.092 9.46743 149.5C8.25143 156.9 9.27943 163.484 12.6084 169.627C12.6534 169.71 12.7004 169.793 12.7484 169.875C14.8914 173.547 17.5554 176.547 20.3214 179.222H12.4374C10.3005 179.222 8.23363 179.985 6.60887 181.373C4.98411 182.761 3.90809 184.684 3.57443 186.794L0.288431 207.589C0.0862837 208.87 0.164109 210.18 0.51655 211.428C0.86899 212.675 1.48767 213.832 2.33 214.818C3.17233 215.804 4.2183 216.595 5.3959 217.138C6.57349 217.681 7.85474 217.962 9.15143 217.962H382.054C401.38 217.962 418.322 202.885 421.463 182.893C422.687 175.106 421.834 168.789 418.781 163.016C416.824 159.312 414.139 156.299 411.241 153.661H418.415C420.552 153.662 422.619 152.899 424.244 151.511C425.869 150.123 426.945 148.2 427.278 146.089L430.563 125.294C430.766 124.014 430.689 122.704 430.336 121.456C429.984 120.208 429.366 119.051 428.523 118.065C427.681 117.079 426.635 116.288 425.457 115.745C424.28 115.202 422.998 114.921 421.701 114.921H406.756L427.429 94.2514C428.457 93.2211 429.27 91.9973 429.821 90.651C430.372 89.3046 430.652 87.8623 430.642 86.4074V46.8774L438.845 38.6774C439.895 37.6256 440.72 36.3713 441.27 34.9907C441.821 33.6101 442.084 32.1321 442.045 30.6464V12.9964C442.045 6.95643 437.132 2.04443 431.093 2.04443ZM128.358 40.0384L143.954 113.534V40.0384H162.86L178.75 84.2944L178.948 84.0964C178.17 75.6194 176.702 67.2304 176.702 58.7534V40.0384H195.814V113.534H176.702L161.892 71.1344L161.693 71.3254C162.177 78.2464 163.058 85.0724 163.058 91.9934V113.533H123.39L121.93 104.081H108.57L106.911 113.534H86.4414L104.086 40.0384H128.358ZM51.3624 40.0384H93.5714V57.9754H82.1664V113.534H62.2844V57.9754H51.3624V40.0384ZM9.19043 113.534V95.5964H23.5664C24.4795 95.5958 25.3649 95.2827 26.0753 94.7091C26.7858 94.1354 27.2784 93.3359 27.4714 92.4434L27.4854 92.3884C27.5324 92.1544 27.5544 91.9114 27.5584 91.6644C27.5584 91.6354 27.5654 91.6104 27.5654 91.5814C27.5654 89.8864 26.9884 88.6584 26.0304 87.6234C25.1724 86.5874 24.0194 85.7434 22.7804 84.8934C18.9464 81.9704 15.6034 79.2394 13.1104 75.8484C10.7184 72.5504 9.19043 68.6004 9.19043 63.4154C9.19043 55.1234 14.5444 40.0504 31.1964 40.0504H33.6884C33.6914 40.0384 47.0844 40.0384 47.0844 40.0384V57.9754H32.4774C30.3874 57.9754 28.6954 59.6054 28.5594 61.6604C28.5534 61.7204 28.5444 61.7804 28.5414 61.8404C28.5414 61.8674 28.5334 61.8924 28.5334 61.9204C28.5334 61.9584 28.5434 61.9934 28.5444 62.0304C28.5464 62.3134 28.5704 62.5954 28.6344 62.8694C28.6914 63.1194 28.7744 63.3624 28.8744 63.5984C29.2334 64.4464 29.8074 65.1924 30.4324 65.8624C31.4844 66.9974 32.9184 67.9404 33.9784 68.7844C38.0924 71.6074 41.3414 74.2454 43.5464 77.4524C45.8374 80.6584 47.0844 84.4244 47.0844 89.7944C47.0844 102.327 38.6124 112.475 26.1044 113.45V113.534H9.19043ZM62.5334 144.688H45.9444C45.1794 144.729 43.7094 144.967 42.4134 146.102C42.2775 146.221 42.1473 146.347 42.0234 146.478C41.3294 147.226 40.8274 148.142 40.6764 149.214C40.3564 150.954 41.1204 152.482 42.0984 153.788C43.0834 155.102 44.6114 156.195 45.5884 157.172C49.7364 160.44 53.0054 163.496 54.9684 167.208C56.9304 170.921 57.6944 175.282 56.7184 181.5C54.3194 196.768 41.6624 208.99 26.1724 208.99H9.15143L12.4374 188.195H28.1794C29.0914 188.169 31.1534 187.967 32.4574 186.76C33.3134 185.923 33.9414 184.863 34.1394 183.57C34.4594 181.606 34.0244 180.185 33.0474 178.986C32.2834 177.786 31.1904 176.81 29.8854 175.824C26.0654 172.44 22.7884 169.278 20.4974 165.352C18.4274 161.532 17.3354 156.959 18.3204 150.954C19.8484 141.354 28.6764 123.901 47.6564 123.9L47.6584 123.894H65.8194L62.5334 144.688ZM93.0534 208.989H70.0044L80.1544 144.689H67.5044L70.7794 123.894H119.71L116.434 144.688H103.212L93.0534 208.989ZM111.244 208.989L124.67 123.894H147.729L134.293 208.989H111.244ZM186.536 208.989H172.902C154.684 208.989 141.379 195.133 145.847 166.986C151.629 130.117 177.92 123.9 188.72 123.9L199.962 123.895L196.682 144.688H186.429C186.429 144.688 181.676 144.373 177.301 148.013C172.144 152.42 169.613 160.289 168.647 166.445C167.178 175.677 167.931 187.318 177.887 188.199L189.817 188.196L186.536 208.989ZM228.97 208.989L220.858 170.001H220.748L214.545 208.989H191.495L204.922 123.894H227.98L222.33 160.164H222.441L240.751 123.894H265.043L240.181 165.023L253.711 208.989H228.97ZM302.547 188.983L299.399 208.989H256.576L270.002 123.894H312.834L309.668 144.007H289.895L288.083 155.877H305.832L302.547 175.991H284.807L282.774 188.983H302.547ZM340.039 208.989L332.939 173.617L332.599 173.837C332.147 178.024 331.696 182.201 331.016 186.379L327.416 208.989H304.368L317.793 123.894H340.06C360.064 123.894 373.617 129.774 370.12 152.261C368.648 161.637 363.22 170.001 353.503 173.617L364.997 208.989H340.039ZM421.701 123.894L418.415 144.688H401.825C401.061 144.729 399.59 144.967 398.295 146.102C398.159 146.221 398.029 146.347 397.905 146.478C397.211 147.226 396.708 148.142 396.558 149.214C396.238 150.954 397.002 152.482 397.978 153.788C398.965 155.102 400.493 156.195 401.469 157.172C405.617 160.44 408.886 163.496 410.849 167.208C412.812 170.921 413.576 175.282 412.599 181.5C410.201 196.768 397.544 208.99 382.054 208.99H365.032L368.318 188.195H384.061C384.972 188.169 387.034 187.967 388.338 186.76C389.195 185.923 389.823 184.863 390.021 183.57C390.341 181.606 389.905 180.185 388.928 178.986C388.164 177.786 387.072 176.81 385.766 175.824C381.947 172.44 378.67 169.278 376.378 165.352C374.308 161.532 373.216 156.959 374.202 150.954C375.73 141.354 384.558 123.901 403.538 123.9L403.539 123.894H421.701ZM433.073 30.8104C433.091 31.0904 433.049 31.3709 432.951 31.6335C432.852 31.896 432.698 32.1346 432.5 32.3334L421.67 43.1614V86.4564C421.676 86.7237 421.628 86.9893 421.528 87.2374C421.429 87.4856 421.28 87.7111 421.091 87.9004L396.022 112.965C395.651 113.337 395.148 113.545 394.622 113.545H374.742C374.482 113.546 374.225 113.494 373.985 113.395C373.744 113.296 373.526 113.15 373.342 112.966C373.158 112.782 373.012 112.564 372.913 112.323C372.813 112.083 372.762 111.826 372.762 111.565V89.3004L354.968 107.096L354.933 107.13C350.345 112.222 343.501 114.804 334.589 114.804C320.046 114.804 311.087 107.974 308.466 94.9844L296.353 107.096C296.327 107.123 296.299 107.149 296.271 107.174C291.221 112.237 284.862 114.804 277.368 114.804C262.174 114.804 253.13 104.041 249.37 90.4684C244.306 111.326 227.605 113.534 217.442 113.534H200.092V40.0384H216.077C231.997 40.0384 242.734 47.1034 247.702 59.0354C247.745 59.1344 247.794 59.2294 247.834 59.3304L247.839 59.3404C248.11 58.3504 248.405 57.3804 248.729 56.4354V56.4294C250.74 50.5274 253.732 45.4984 257.529 41.8974C257.577 41.8354 257.629 41.7764 257.686 41.7194L281.95 17.4584L282.022 17.3894C287.073 12.3174 293.434 9.74643 300.929 9.74643H302.439C311.409 9.74643 318.884 13.5254 324.192 20.7094L333.301 11.5964C333.673 11.2251 334.176 11.0165 334.701 11.0164H354.587C355.112 11.0167 355.616 11.2254 355.987 11.5967C356.358 11.968 356.566 12.4715 356.566 12.9964V18.3564L363.324 11.5964C363.697 11.2244 364.2 11.0164 364.724 11.0164H431.094C431.619 11.0167 432.123 11.2254 432.494 11.5967C432.865 11.968 433.073 12.4715 433.073 12.9964V30.8104ZM219.974 58.3644V95.7944C229.038 95.6994 230.602 84.3894 230.602 77.4684C230.602 69.4764 229.038 58.3644 219.974 58.3644ZM117.444 71.4204C116.857 66.8404 116.468 62.1664 115.976 57.5864H115.786C115.198 62.1664 114.714 66.8414 113.936 71.4204L111.206 88.4854H119.588L117.444 71.4204Z" fill="black"/>
</g>
<defs>
<clipPath id="clip0_4651_4661">
<rect width="441.87" height="217.19" fill="white" transform="translate(0.180664 0.769531)"/>
</clipPath>
</defs>
</svg>
