<svg width="113" height="48" viewBox="0 0 113 48" fill="none" xmlns="http://www.w3.org/2000/svg">
<g clip-path="url(#clip0_770_434)">
<mask id="mask0_770_434" style="mask-type:luminance" maskUnits="userSpaceOnUse" x="0" y="0" width="113" height="48">
<path d="M0 0H113V48H0V0Z" fill="white"/>
</mask>
<g mask="url(#mask0_770_434)">
<mask id="mask1_770_434" style="mask-type:luminance" maskUnits="userSpaceOnUse" x="0" y="0" width="113" height="48">
<path d="M0 0H113V48H0V0Z" fill="white"/>
</mask>
<g mask="url(#mask1_770_434)">
<mask id="mask2_770_434" style="mask-type:luminance" maskUnits="userSpaceOnUse" x="0" y="0" width="113" height="48">
<path d="M0 0H113V48H0V0Z" fill="white"/>
</mask>
<g mask="url(#mask2_770_434)">
<path d="M107 0V11H96V0H89V11H78V18H89V29H96V18H107V29H113V0H107ZM0 22H7V29H0V22ZM40 11H51V18H40V11ZM56 0H33V11H40V6H56V0ZM33 18V29H56V22H40V18H33Z" fill="white"/>
<path d="M81 22H67V6H80L84 0H63L60 6V22L64 29H84L81 22ZM29 0H5V6H14V29H21V6H30V0H29Z" fill="white"/>
</g>
<path d="M37.5348 46.1732H35.5588V37.6982H37.5348C39.4708 37.6982 41.5258 38.0192 41.5258 41.9362C41.5258 45.8532 39.4708 46.1732 37.5348 46.1732ZM37.5348 36.1122H33.8008V47.8012H37.5348C40.0038 47.8012 43.2838 47.2012 43.2838 41.9572C43.2838 36.7132 40.0048 36.1122 37.5348 36.1122ZM50.2958 46.3332C48.0238 46.3332 46.6608 44.6862 46.6608 41.9332C46.6608 39.1802 48.0238 37.5332 50.2958 37.5332C52.5478 37.5332 53.8958 39.1802 53.8958 41.9332C53.8958 44.6862 52.5528 46.3332 50.2958 46.3332ZM50.2958 35.9502C47.0758 35.9502 44.9028 38.3602 44.9028 41.9352C44.9028 45.5302 47.0758 47.9402 50.2958 47.9402C53.4958 47.9402 55.6498 45.5302 55.6498 41.9352C55.6498 38.3602 53.4968 35.9502 50.2958 35.9502ZM63.5718 46.9162L60.4478 36.1112H57.4478V47.7802H59.2058V37.8802L62.1058 47.7802H65.0298L67.9138 37.8802V47.7802H69.6918V36.1112H66.7088L63.5718 46.9162ZM74.7528 41.7952L76.2738 36.9552L77.7948 41.7952H74.7528ZM74.7928 36.1112L71.0788 47.8002H72.8788L74.2618 43.4222H78.3318L79.7148 47.8002H81.4928L77.7958 36.1112H74.7928ZM82.8928 37.6982H85.3618V46.1732H82.8928V47.7802H89.5698V46.1732H87.1198V37.6982H89.5698V36.1112H82.8928V37.6982ZM99.7238 46.2332L99.8028 46.6152L94.4488 36.1152H91.4858V47.7842H93.2438V37.6572L93.1848 37.2752L98.4988 47.7752H101.462V36.1112H99.7238V46.2332ZM108.555 40.9912C108.397 40.9512 108.255 40.8912 108.101 40.8502C106.185 40.2502 105.493 39.8662 105.493 38.9022C105.493 38.3202 105.73 37.5362 107.883 37.5362C110.431 37.5362 110.708 39.2832 110.708 40.0262V40.2672H112.466V40.0262C112.466 38.0582 111.261 35.9492 107.866 35.9492C104.448 35.9492 103.717 37.5762 103.717 38.9622C103.717 41.0912 105.337 41.7542 107.628 42.4572C107.828 42.5172 108.003 42.5772 108.201 42.6182C109.722 43.0602 111.145 43.4622 111.145 44.7872C111.145 45.5502 110.829 46.3542 108.439 46.3542C106.246 46.3542 104.982 45.8722 104.982 43.3622V43.1212H103.221V43.3622C103.221 46.4952 104.88 47.9622 108.436 47.9622C111.399 47.9622 112.901 46.8772 112.901 44.7292C112.921 42.3592 110.609 41.6362 108.555 40.9932" fill="white"/>
</g>
</g>
</g>
<defs>
<clipPath id="clip0_770_434">
<rect width="113" height="48" fill="white"/>
</clipPath>
</defs>
</svg>
