<svg width="67" height="53" viewBox="0 0 67 53" fill="none" xmlns="http://www.w3.org/2000/svg">
<g clip-path="url(#clip0_6995_1548)">
<path fill-rule="evenodd" clip-rule="evenodd" d="M46.8004 20.4574L52.0788 14.5353L44.3281 12.8456L45.1179 4.95163L37.8539 8.14003L33.8508 1.29004L29.8504 8.13934L22.5876 4.94889L23.3757 12.8428L15.6242 14.5312L20.9017 20.4547L15.6233 26.3768L23.374 28.0665L22.5844 35.9601L29.8482 32.7717L33.8511 39.6217L37.8515 32.7727L45.1146 35.9628L44.3267 28.0689L52.0779 26.3805L46.8004 20.4574ZM49.3608 24.9124L44.7887 23.3485L41.7552 19.4059L45.7902 20.9049L49.3608 24.9124ZM37.1113 31.9542L34.3769 36.6358V31.6715L37.2192 27.5242L37.1113 31.9542ZM32.3215 12.5445L27.6164 10.8712L24.8011 7.07023L29.7355 9.23769L32.3215 12.5445ZM37.9688 9.23869L42.9026 7.07265L40.0857 10.8712L35.3818 12.544L37.9688 9.23869ZM43.2487 13.0694L40.795 16.5489L40.9341 11.4933L43.7919 7.63957L43.2487 13.0694ZM33.851 30.5783L30.5588 25.7749L33.8509 21.3079L37.143 25.7749L33.851 30.5783ZM27.9961 17.8936L27.8359 12.0656L33.325 14.0175V19.6891L27.9961 17.8936ZM34.3769 14.0175L39.8662 12.0656L39.7058 17.8936L34.3769 19.6891V14.0175ZM24.4552 13.0673L23.9132 7.63861L26.7679 11.493L26.9069 16.5474L24.4552 13.0673ZM32.9999 20.6898L29.709 25.1552L24.1183 23.5071L27.6683 18.8934L32.9999 20.6898ZM30.482 27.5232L33.325 31.6715V36.6368L30.5883 31.9533L30.482 27.5232ZM34.702 20.6898L40.0336 18.8934L43.5837 23.5071L37.9928 25.1552L34.702 20.6898ZM50.0956 15.1797L45.9424 19.8393L41.0449 18.0198L43.987 13.8477L50.0956 15.1797ZM33.8511 3.37524L37.002 8.76713L33.8511 12.7929L30.7023 8.76659L33.8511 3.37524ZM17.6073 15.1756L23.7166 13.8454L26.6572 18.0195L21.76 19.8366L17.6073 15.1756ZM21.9117 20.9023L25.9477 19.4047L22.9138 23.348L18.3397 24.9098L21.9117 20.9023ZM18.5708 25.9426L23.2453 24.3466L28.1141 25.7817L23.9191 27.1089L18.5708 25.9426ZM24.4327 28.0494L29.4048 26.4764L29.5316 31.7616L23.8102 34.2735L24.4327 28.0494ZM38.1681 31.7629L38.2969 26.4766L43.2679 28.0513L43.8892 34.2755L38.1681 31.7629ZM43.7815 27.1108L39.5868 25.782L44.457 24.3465L49.1324 25.9457L43.7815 27.1108Z" fill="#DD1100"/>
<path fill-rule="evenodd" clip-rule="evenodd" d="M0.922363 43.6498H3.19232L4.26093 49.5472L5.83531 43.6498H7.83136L9.70026 49.6502L10.7934 43.6498H12.9504L11.1051 52.4739H8.61467L6.9588 46.9685L5.26466 52.4739H2.65205L0.922363 43.6498ZM66.7798 52.4739H64.5097L63.4432 46.5553L61.867 52.4739H59.8704L58.0093 46.4748L56.909 52.4739H54.7516L56.5971 43.6498H59.0873L60.7429 49.1596L62.4384 43.6498H65.05L66.7798 52.4739ZM17.7044 43.4971C20.5766 43.4971 22.075 45.23 22.075 48.0616C22.075 50.8681 20.5518 52.6246 17.7044 52.6246C14.8581 52.6246 13.3349 50.8681 13.3349 48.0616C13.3349 45.23 14.833 43.4971 17.7044 43.4971ZM17.7044 50.8803C19.1158 50.8803 19.677 49.515 19.677 48.0616C19.677 46.5307 19.1158 45.2419 17.7044 45.2419C16.2932 45.2419 15.7317 46.5307 15.7317 48.0616C15.7316 49.515 16.2932 50.8803 17.7044 50.8803ZM23.3736 43.6485H25.6964V50.7284H29.2924V52.4721H23.3736V43.6485ZM30.2538 43.6485H36.0828V45.3176H32.5758V47.2525H35.9333V48.9202H32.5758V52.4721H30.2538L30.2538 43.6485ZM37.2972 43.6485H41.4425C42.9911 43.6485 44.2523 44.356 44.2523 45.8743C44.2523 47.0504 43.7027 47.8336 42.5791 48.099V48.1247C43.3274 48.3271 43.3783 48.9974 43.8153 50.0718L44.6633 52.472H42.2417L41.743 50.8803C41.2676 49.3636 40.9686 48.9838 40.1071 48.9838H39.6192V52.4721H37.2972V43.6485ZM39.6192 47.3158H40.2322C40.9805 47.3158 41.9298 47.2901 41.9298 46.2911C41.9298 45.4699 41.1181 45.3176 40.2322 45.3176H39.6192V47.3158ZM48.1816 43.6485H51.0293L54.3878 52.4721H51.8405L51.1913 50.5896H47.9205L47.2334 52.4721H44.873L48.1816 43.6485ZM49.6057 45.4699H49.5813L48.4577 48.9202H50.6417L49.6057 45.4699Z" fill="white"/>
</g>
<defs>
<clipPath id="clip0_6995_1548">
<rect width="65.8575" height="52" fill="white" transform="translate(0.922363 0.957031)"/>
</clipPath>
</defs>
</svg>
