<svg width="198" height="157" viewBox="0 0 198 157" fill="none" xmlns="http://www.w3.org/2000/svg">
<path fill-rule="evenodd" clip-rule="evenodd" d="M137.932 58.6266L153.801 40.8218L130.499 35.7417L132.873 12.0086L111.034 21.5945L98.9991 1L86.9719 21.5924L65.1365 12.0003L67.5057 35.7334L44.2008 40.8095L60.0677 58.6183L44.1982 76.423L67.5006 81.5032L65.1267 105.235L86.9652 95.6494L99.0001 116.244L111.027 95.6525L132.864 105.243L130.495 81.5104L153.799 76.4344L137.932 58.6266ZM145.63 72.0206L131.884 67.3187L122.764 55.4652L134.895 59.972L145.63 72.0206ZM108.802 93.1917L100.581 107.267V92.3417L109.126 79.8729L108.802 93.1917ZM94.4014 34.8364L80.2554 29.8058L71.7914 18.3781L86.6264 24.8946L94.4014 34.8364ZM111.38 24.8976L126.213 18.3854L117.744 29.8058L103.602 34.8349L111.38 24.8976ZM127.254 36.4146L119.877 46.8757L120.295 31.6761L128.887 20.0898L127.254 36.4146ZM98.9996 89.055L89.1019 74.6136L98.9996 61.1834L108.897 74.6136L98.9996 89.055ZM81.3971 50.9185L80.9154 33.3967L97.4184 39.2652V56.3167L81.3971 50.9185ZM100.581 39.2652L117.084 33.3967L116.602 50.9185L100.581 56.3167V39.2652ZM70.7513 36.4082L69.1217 20.0869L77.7045 31.6751L78.1222 46.8713L70.7513 36.4082ZM96.441 59.3253L86.547 72.7505L69.7385 67.7955L80.4116 53.9243L96.441 59.3253ZM88.8708 79.8699L97.4184 92.3417V107.27L89.1903 93.189L88.8708 79.8699ZM101.558 59.3253L117.588 53.9243L128.261 67.7955L111.452 72.7505L101.558 59.3253ZM147.839 42.7592L135.352 56.7682L120.628 51.2979L129.474 38.7545L147.839 42.7592ZM99.0001 7.26913L108.473 23.4798L99 35.5834L89.5331 23.4782L99.0001 7.26913ZM50.1632 42.7468L68.5308 38.7476L77.3716 51.297L62.6482 56.7602L50.1632 42.7468ZM63.1043 59.964L75.2384 55.4616L66.117 67.3173L52.365 72.0126L63.1043 59.964ZM53.0598 75.1179L67.1139 70.3195L81.7518 74.6341L69.1395 78.6242L53.0598 75.1179ZM70.6837 81.4517L85.6321 76.7225L86.0133 92.6126L68.812 100.164L70.6837 81.4517ZM111.979 92.6164L112.366 76.7232L127.311 81.4575L129.179 100.171L111.979 92.6164ZM128.856 78.63L116.244 74.635L130.887 70.3191L144.943 75.127L128.856 78.63Z" fill="white"/>
<path fill-rule="evenodd" clip-rule="evenodd" d="M0 128.354H6.82461L10.0374 146.084L14.7707 128.354H20.7719L26.3907 146.394L29.6772 128.354H36.1621L30.6142 154.883H23.1269L18.1485 138.331L13.0551 154.883H5.20028L0 128.354ZM198 154.883H191.175L187.968 137.089L183.23 154.883H177.227L171.632 136.847L168.324 154.883H161.837L167.386 128.354H174.872L179.85 144.919L184.948 128.354H192.799L198 154.883ZM50.4549 127.895C59.0903 127.895 63.5951 133.105 63.5951 141.618C63.5951 150.056 59.0158 155.337 50.4549 155.337C41.8976 155.337 37.3182 150.056 37.3182 141.618C37.3182 133.105 41.8222 127.895 50.4549 127.895ZM50.4549 150.092C54.6983 150.092 56.3858 145.987 56.3858 141.618C56.3858 137.015 54.6983 133.14 50.4549 133.14C46.2124 133.14 44.524 137.015 44.524 141.618C44.524 145.987 46.2124 150.092 50.4549 150.092ZM67.4995 128.35H74.4829V149.635H85.2942V154.878H67.4995V128.35ZM88.1848 128.35H105.71V133.368H95.1658V139.185H105.26V144.199H95.1658V154.878H88.1848L88.1848 128.35ZM109.361 128.35H121.823C126.479 128.35 130.271 130.477 130.271 135.042C130.271 138.577 128.619 140.932 125.241 141.73V141.807C127.491 142.416 127.644 144.431 128.957 147.661L131.507 154.878H124.226L122.727 150.092C121.298 145.532 120.399 144.39 117.809 144.39H116.342V154.878H109.361V128.35ZM116.342 139.376H118.185C120.435 139.376 123.289 139.298 123.289 136.295C123.289 133.826 120.848 133.368 118.185 133.368H116.342V139.376ZM142.085 128.35H150.646L160.743 154.878H153.085L151.133 149.218H141.3L139.234 154.878H132.137L142.085 128.35ZM146.366 133.826H146.293L142.915 144.199H149.481L146.366 133.826Z" fill="white"/>
</svg>
