<?xml version="1.0" encoding="UTF-8" standalone="no"?><!DOCTYPE svg PUBLIC "-//W3C//DTD SVG 1.1//EN" "http://www.w3.org/Graphics/SVG/1.1/DTD/svg11.dtd"><svg width="100%" height="100%" viewBox="0 0 278 28" version="1.1" xmlns="http://www.w3.org/2000/svg" xmlns:xlink="http://www.w3.org/1999/xlink" xml:space="preserve" xmlns:serif="http://www.serif.com/" style="fill-rule:evenodd;clip-rule:evenodd;stroke-miterlimit:2;"><rect id="logo" x="-0" y="-0" width="278" height="27.028" style="fill:none;"/><g><path d="M5.782,10.295l-3.355,12.275c2.461,0.646 5.005,0.92 7.547,0.816c1.357,1.105 2.969,1.945 4.778,2.42c6.807,1.787 13.83,-2.267 15.686,-9.056c0.493,-1.805 0.572,-3.621 0.293,-5.348c1.361,-2.149 2.396,-4.489 3.067,-6.944l-12.298,-3.229c-0.009,-0.002 -0.018,-0.005 -0.027,-0.007c-6.807,-1.787 -13.83,2.267 -15.686,9.056c-0.002,0.006 -0.003,0.012 -0.005,0.017Zm22.472,4.402c-1.842,2.081 -4.013,3.854 -6.428,5.249c-2.416,1.394 -5.037,2.387 -7.759,2.942c0.435,0.182 0.887,0.336 1.357,0.46c5.446,1.429 11.064,-1.814 12.549,-7.245c0.128,-0.469 0.221,-0.938 0.281,-1.406Zm-19.931,-4.02c0.811,0.045 1.627,0.013 2.436,-0.096c1.665,-0.225 3.271,-0.774 4.728,-1.615c1.456,-0.841 2.734,-1.958 3.762,-3.287c0.499,-0.646 0.935,-1.337 1.301,-2.061c-5.283,-1.248 -10.666,1.86 -12.227,7.059Z" style="fill:#a2d4ee;"/><g transform="matrix(0.804688,0,0,0.804688,-233.187,-179.553)"><g transform="matrix(39.0893,0,0,39.0893,357,252)"><path d="M0.374,0.012c-0.099,-0 -0.179,-0.033 -0.239,-0.098c-0.059,-0.066 -0.089,-0.151 -0.089,-0.256c-0,-0.113 0.03,-0.203 0.091,-0.269c0.061,-0.067 0.144,-0.101 0.249,-0.101c0.096,0 0.174,0.033 0.233,0.098c0.059,0.065 0.089,0.15 0.089,0.255c0,0.114 -0.03,0.205 -0.091,0.271c-0.014,0.016 -0.029,0.03 -0.046,0.041l0.197,0.141l-0.149,0l-0.132,-0.098c-0.034,0.01 -0.072,0.016 -0.113,0.016Zm0.006,-0.65c-0.074,0 -0.133,0.027 -0.179,0.08c-0.046,0.053 -0.069,0.123 -0.069,0.209c-0,0.086 0.022,0.155 0.067,0.208c0.045,0.053 0.103,0.079 0.175,0.079c0.077,-0 0.137,-0.025 0.182,-0.075c0.044,-0.05 0.066,-0.12 0.066,-0.211c0,-0.092 -0.021,-0.164 -0.064,-0.214c-0.043,-0.05 -0.103,-0.076 -0.178,-0.076Z" style="fill:#cadfea;fill-rule:nonzero;"/></g><g transform="matrix(39.0893,0,0,39.0893,386.47,252)"><path d="M0.604,-0.283c0,0.196 -0.089,0.295 -0.266,0.295c-0.17,-0 -0.255,-0.095 -0.255,-0.284l0,-0.428l0.082,-0l0,0.423c0,0.143 0.061,0.215 0.182,0.215c0.117,-0 0.175,-0.069 0.175,-0.208l-0,-0.43l0.082,-0l0,0.417Z" style="fill:#cadfea;fill-rule:nonzero;"/></g><g transform="matrix(39.0893,0,0,39.0893,412.542,252)"><path d="M0.634,-0l-0.091,-0l-0.074,-0.196l-0.297,-0l-0.07,0.196l-0.091,-0l0.268,-0.7l0.085,-0l0.27,0.7Zm-0.192,-0.27l-0.11,-0.298c-0.004,-0.01 -0.007,-0.026 -0.011,-0.047l-0.002,-0c-0.003,0.02 -0.007,0.035 -0.011,0.047l-0.109,0.298l0.243,-0Z" style="fill:#cadfea;fill-rule:nonzero;"/></g><g transform="matrix(39.0893,0,0,39.0893,437.755,252)"><path d="M0.656,-0l-0.1,-0l-0.361,-0.558c-0.009,-0.014 -0.016,-0.029 -0.022,-0.044l-0.003,-0c0.003,0.015 0.004,0.047 0.004,0.096l-0,0.506l-0.082,0l-0,-0.7l0.106,-0l0.351,0.549c0.014,0.023 0.024,0.039 0.028,0.047l0.002,-0c-0.003,-0.02 -0.005,-0.055 -0.005,-0.103l0,-0.493l0.082,-0l0,0.7Z" style="fill:#cadfea;fill-rule:nonzero;"/></g><g transform="matrix(39.0893,0,0,39.0893,466.996,252)"><path d="M0.506,-0.626l-0.202,0l-0,0.626l-0.082,-0l-0,-0.626l-0.202,0l0,-0.074l0.486,-0l-0,0.074Z" style="fill:#cadfea;fill-rule:nonzero;"/></g><g transform="matrix(39.0893,0,0,39.0893,487.476,252)"><path d="M0.604,-0.283c0,0.196 -0.089,0.295 -0.266,0.295c-0.17,-0 -0.255,-0.095 -0.255,-0.284l0,-0.428l0.082,-0l0,0.423c0,0.143 0.061,0.215 0.182,0.215c0.117,-0 0.175,-0.069 0.175,-0.208l-0,-0.43l0.082,-0l0,0.417Z" style="fill:#cadfea;fill-rule:nonzero;"/></g><g transform="matrix(39.0893,0,0,39.0893,514.33,252)"><path d="M0.806,-0l-0.082,-0l0,-0.47c0,-0.037 0.002,-0.082 0.007,-0.136l-0.002,0c-0.008,0.032 -0.015,0.054 -0.021,0.068l-0.239,0.538l-0.04,-0l-0.239,-0.534c-0.007,-0.016 -0.014,-0.04 -0.021,-0.072l-0.002,0c0.003,0.028 0.004,0.074 0.004,0.137l-0,0.469l-0.079,0l-0,-0.7l0.108,-0l0.215,0.488c0.017,0.038 0.027,0.066 0.032,0.084l0.003,0c0.014,-0.038 0.025,-0.067 0.034,-0.086l0.219,-0.486l0.103,-0l-0,0.7Z" style="fill:#cadfea;fill-rule:nonzero;"/></g><g transform="matrix(39.0893,0,0,39.0893,549.431,252)"><path d="M0.455,-0l-0.363,-0l-0,-0.7l0.082,-0l-0,0.626l0.281,-0l0,0.074Z" style="fill:#fff;fill-rule:nonzero;stroke:#fff;stroke-width:0.02px;"/></g><g transform="matrix(39.0893,0,0,39.0893,567.83,252)"><path d="M0.463,-0l-0.371,-0l-0,-0.7l0.355,-0l0,0.074l-0.273,0l-0,0.233l0.253,-0l-0,0.074l-0.253,-0l-0,0.245l0.289,-0l-0,0.074Z" style="fill:#fff;fill-rule:nonzero;stroke:#fff;stroke-width:0.02px;"/></g><g transform="matrix(39.0893,0,0,39.0893,587.795,252)"><path d="M0.634,-0l-0.091,-0l-0.074,-0.196l-0.297,-0l-0.07,0.196l-0.091,-0l0.268,-0.7l0.085,-0l0.27,0.7Zm-0.192,-0.27l-0.11,-0.298c-0.004,-0.01 -0.007,-0.026 -0.011,-0.047l-0.002,-0c-0.003,0.02 -0.007,0.035 -0.011,0.047l-0.109,0.298l0.243,-0Z" style="fill:#fff;fill-rule:nonzero;stroke:#fff;stroke-width:0.02px;"/></g><g transform="matrix(39.0893,0,0,39.0893,613.008,252)"><path d="M0.174,-0.265l-0,0.265l-0.082,-0l-0,-0.7l0.192,-0c0.075,-0 0.133,0.018 0.174,0.054c0.041,0.037 0.062,0.088 0.062,0.155c0,0.066 -0.023,0.121 -0.069,0.163c-0.045,0.042 -0.107,0.063 -0.185,0.063l-0.092,0Zm-0,-0.361l-0,0.287l0.086,0c0.056,0 0.1,-0.013 0.129,-0.039c0.03,-0.026 0.045,-0.062 0.045,-0.109c0,-0.093 -0.055,-0.139 -0.164,-0.139l-0.096,0Z" style="fill:#fff;fill-rule:nonzero;stroke:#fff;stroke-width:0.02px;"/></g></g></g></svg>