<svg width="40" height="40" viewBox="0 0 40 40" fill="none" xmlns="http://www.w3.org/2000/svg">
<path d="M17.6783 35.8758L2.60106 24.3598C2.2112 24.1412 2.00416 23.6584 2.09756 23.1858L4.81905 13.4933C4.95384 12.8112 5.13498 12.6112 6.20433 11.9785C5.21164 12.5659 5.20333 13.9953 6.17941 14.5967C6.19579 14.6068 6.2111 14.6168 6.22659 14.6282C6.65877 14.9468 13.2878 19.8228 17.5863 22.3662C19.0939 23.3549 19.6684 24.2589 19.9234 26.0437V36.4624C19.1494 36.4624 18.3755 36.2669 17.6783 35.8758Z" fill="white"/>
<path d="M17.6781 35.8758L2.60094 24.3598C2.21107 24.1412 2.00404 23.6584 2.09743 23.1858L4.81893 13.4933C4.95371 12.8112 5.13486 12.6112 6.20421 11.9785C5.21151 12.5659 5.20321 13.9953 6.17929 14.5967C6.19567 14.6068 6.21098 14.6168 6.22647 14.6282C6.65865 14.9468 13.2877 19.8228 17.5862 22.3662C19.0938 23.3549 19.6683 24.2589 19.9232 26.0437V36.4624C19.1493 36.4624 18.3754 36.2669 17.6781 35.8758Z" fill="url(#paint0_linear_1559_2972)"/>
<path d="M17.6781 35.8758L2.60094 24.3598C2.21107 24.1412 2.00404 23.6584 2.09743 23.1858L4.81893 13.4933C4.95371 12.8112 5.13486 12.6112 6.20421 11.9785C5.21151 12.5659 5.20321 13.9953 6.17929 14.5967C6.19567 14.6068 6.21098 14.6168 6.22647 14.6282C6.65865 14.9468 13.2877 19.8228 17.5862 22.3662C19.0938 23.3549 19.6683 24.2589 19.9232 26.0437V36.4624C19.1493 36.4624 18.3754 36.2669 17.6781 35.8758Z" fill="black" fill-opacity="0.4"/>
<path fill-rule="evenodd" clip-rule="evenodd" d="M17.9959 4.87038L6.63502 12.6104C6.62158 12.6196 6.60785 12.6283 6.59385 12.6366C6.10089 12.9283 6.09331 13.6366 6.57179 13.9397C6.5746 13.9415 6.57777 13.9435 6.58127 13.9457C6.60385 13.9599 6.63981 13.9826 6.67475 14.0065L17.9959 21.7194C19.1868 22.4144 20.6599 22.4144 21.8508 21.7194L33.172 14.0065C33.2069 13.9826 33.2429 13.9599 33.2655 13.9457C33.269 13.9435 33.2721 13.9415 33.2749 13.9397C33.7534 13.6366 33.7459 12.9283 33.2529 12.6366C33.2389 12.6283 33.2252 12.6196 33.2117 12.6104L21.8509 4.87038C20.6599 4.17543 19.1868 4.17543 17.9959 4.87038ZM34.5999 14.799C34.4581 14.9617 34.2893 15.1081 34.0936 15.2321C34.0595 15.2537 34.0468 15.2616 34.0333 15.2707L22.6911 22.9981L22.6799 23.0056C21.9767 23.4668 21.5523 23.8688 21.2677 24.3165C20.9893 24.7546 20.8074 25.2956 20.6883 26.0989V35.6201C21.0544 35.5454 21.4121 35.4165 21.7491 35.2334L36.7814 23.7517C36.81 23.7299 36.8401 23.71 36.8715 23.6924C36.9405 23.6537 37.0272 23.5271 37.0026 23.3562L34.5999 14.799ZM19.1584 35.6201V26.0989C19.0393 25.2956 18.8574 24.7546 18.579 24.3165C18.2945 23.8688 17.87 23.4668 17.1668 23.0056L17.1556 22.9981L5.81339 15.2707C5.8021 15.2631 5.79125 15.2562 5.76772 15.2413C5.76333 15.2385 5.7585 15.2355 5.75315 15.2321C5.55739 15.1081 5.38863 14.9617 5.24686 14.799L2.84414 23.3562C2.81948 23.5271 2.90618 23.6537 2.97525 23.6924C3.00665 23.71 3.03676 23.7299 3.06537 23.7517L18.0976 35.2334C18.4347 35.4165 18.7923 35.5454 19.1584 35.6201ZM5.79372 11.3325L17.1556 3.59172C17.1691 3.58256 17.1828 3.57384 17.1968 3.56556C18.8784 2.5706 20.9684 2.5706 22.65 3.56556C22.664 3.57384 22.6777 3.58256 22.6911 3.59172L34.053 11.3325C34.5628 11.6346 34.9691 11.8935 35.2502 12.2013C35.5744 12.5561 35.6931 12.926 35.772 13.3142L38.4856 22.9788C38.491 22.9981 38.4957 23.0176 38.4996 23.0373C38.6465 23.7809 38.3437 24.5876 37.6732 24.9956L22.6328 36.4835C22.6041 36.5053 22.574 36.5251 22.5426 36.5427C21.7292 36.999 20.8261 37.2271 19.9234 37.2271C19.0206 37.2271 18.1176 36.999 17.3041 36.5427C17.2727 36.5251 17.2426 36.5053 17.214 36.4835L2.17355 24.9956C1.50306 24.5876 1.20022 23.7808 1.34716 23.0373C1.35105 23.0176 1.35571 22.9981 1.36113 22.9788L4.07477 13.3142C4.15365 12.926 4.27235 12.5561 4.59649 12.2013C4.87767 11.8935 5.28394 11.6346 5.79372 11.3325Z" fill="url(#paint1_linear_1559_2972)"/>
<path fill-rule="evenodd" clip-rule="evenodd" d="M6.17463 14.5933C6.17058 14.5908 6.16652 14.5882 6.16246 14.5856C5.20346 13.9781 5.21742 12.562 6.20433 11.978L17.5863 4.2236C19.0276 3.37078 20.8191 3.37078 22.2604 4.2236L33.6424 11.978C34.6293 12.562 34.6433 13.9781 33.6843 14.5856L33.6721 14.5933C33.6488 14.6081 33.6256 14.6227 33.6027 14.6383L22.2604 22.3657C20.8191 23.2185 19.0276 23.2185 17.5863 22.3657L6.24406 14.6383C6.22116 14.6227 6.19799 14.6081 6.17463 14.5933ZM22.6157 9.22401C22.7612 8.90348 22.6194 8.52562 22.2989 8.38005C21.9783 8.23447 21.6005 8.3763 21.4549 8.69683L17.7248 16.9099C17.5792 17.2304 17.721 17.6083 18.0416 17.7538C18.3621 17.8994 18.74 17.7576 18.8855 17.437L22.6157 9.22401ZM15.5938 11.5912C15.8887 11.3988 15.9717 11.0038 15.7793 10.709C15.587 10.4142 15.192 10.3311 14.8972 10.5235L11.4157 12.7952C11.2354 12.9129 11.1266 13.1137 11.1266 13.329C11.1266 13.5444 11.2354 13.7452 11.4157 13.8629L14.8972 16.1346C15.192 16.3269 15.587 16.2439 15.7793 15.9491C15.9717 15.6542 15.8887 15.2593 15.5938 15.0669L12.9305 13.329L15.5938 11.5912ZM25.4433 10.5235C25.1485 10.3311 24.7535 10.4142 24.5611 10.709C24.3687 11.0038 24.4518 11.3988 24.7466 11.5912L27.4099 13.329L24.7466 15.0669C24.4518 15.2593 24.3687 15.6542 24.5611 15.9491C24.7535 16.2439 25.1485 16.3269 25.4433 16.1346L28.9247 13.8629C29.1051 13.7452 29.2138 13.5444 29.2138 13.329C29.2138 13.1137 29.1051 12.9129 28.9247 12.7952L25.4433 10.5235Z" fill="url(#paint2_linear_1559_2972)"/>
<defs>
<linearGradient id="paint0_linear_1559_2972" x1="13.5114" y1="11.9785" x2="4.56598" y2="34.9345" gradientUnits="userSpaceOnUse">
<stop stop-color="#2DDC25"/>
<stop offset="1" stop-color="#00B45B"/>
</linearGradient>
<linearGradient id="paint1_linear_1559_2972" x1="25.163" y1="2.81938" x2="16.0356" y2="37.582" gradientUnits="userSpaceOnUse">
<stop stop-color="#95D500"/>
<stop offset="1" stop-color="#02E63F"/>
</linearGradient>
<linearGradient id="paint2_linear_1559_2972" x1="24.9478" y1="3.58403" x2="16.253" y2="36.8162" gradientUnits="userSpaceOnUse">
<stop stop-color="#95D500"/>
<stop offset="1" stop-color="#02E63F"/>
</linearGradient>
</defs>
</svg>
